<svg width="423" height="292" viewBox="0 0 423 292" fill="none" xmlns="http://www.w3.org/2000/svg">
<path d="M336.671 162.651C292.373 166.939 274.484 202.369 263.485 231.675C251.061 239.676 242.016 247.245 237.916 252.213L238.258 273.176C238.594 267.509 246.898 252.68 266.416 236.87C293.931 247.092 318.995 271.441 363.409 245.97C392.648 229.2 395.925 186.226 406.197 168.809C390.267 171.865 363.357 160.069 336.671 162.651Z" fill="#01A47C"/>
<path d="M336.671 162.651L336.637 162.303L336.637 162.303L336.671 162.651ZM263.485 231.675L263.813 231.798L263.772 231.906L263.674 231.969L263.485 231.675ZM237.916 252.213L237.566 252.219L237.564 252.09L237.646 251.99L237.916 252.213ZM238.258 273.176L238.608 273.197L237.908 273.182L238.258 273.176ZM266.416 236.87L266.196 236.598L266.351 236.473L266.538 236.542L266.416 236.87ZM363.409 245.97L363.583 246.273L363.409 245.97ZM406.197 168.809L406.131 168.465L406.892 168.319L406.499 168.987L406.197 168.809ZM336.671 162.651L336.704 163C292.63 167.266 274.81 202.499 263.813 231.798L263.485 231.675L263.157 231.552C274.159 202.24 292.115 166.612 336.637 162.303L336.671 162.651ZM263.485 231.675L263.674 231.969C251.261 239.963 242.251 247.51 238.186 252.436L237.916 252.213L237.646 251.99C241.78 246.981 250.861 239.388 263.295 231.38L263.485 231.675ZM237.916 252.213L238.266 252.207L238.608 273.17L238.258 273.176L237.908 273.182L237.566 252.219L237.916 252.213ZM238.258 273.176L237.909 273.155C237.997 271.675 238.599 269.639 239.738 267.188C240.879 264.731 242.57 261.833 244.859 258.623C249.437 252.203 256.415 244.521 266.196 236.598L266.416 236.87L266.636 237.142C256.9 245.029 249.967 252.666 245.429 259.03C243.16 262.212 241.492 265.072 240.372 267.483C239.25 269.901 238.688 271.844 238.608 273.197L238.258 273.176ZM266.416 236.87L266.538 236.542C273.436 239.105 280.183 242.554 287.085 245.871C293.995 249.192 301.072 252.386 308.668 254.467C323.836 258.624 341.109 258.355 363.234 245.666L363.409 245.97L363.583 246.273C341.295 259.056 323.829 259.348 308.483 255.142C300.822 253.043 293.697 249.825 286.782 246.502C279.857 243.174 273.153 239.746 266.294 237.198L266.416 236.87ZM363.409 245.97L363.234 245.666C377.746 237.344 385.838 222.505 391.589 207.507C394.464 200.009 396.745 192.496 398.957 185.746C401.164 179.01 403.306 173.023 405.896 168.631L406.197 168.809L406.499 168.987C403.953 173.304 401.832 179.22 399.622 185.964C397.417 192.695 395.125 200.238 392.242 207.758C386.477 222.794 378.311 237.826 363.583 246.273L363.409 245.97ZM406.197 168.809L406.263 169.153C402.227 169.927 397.516 169.757 392.323 169.12C387.13 168.483 381.425 167.373 375.404 166.252C363.346 164.007 349.992 161.714 336.704 163L336.671 162.651L336.637 162.303C350.036 161.006 363.48 163.32 375.532 165.563C381.565 166.687 387.242 167.791 392.409 168.425C397.576 169.06 402.202 169.219 406.131 168.465L406.197 168.809Z" fill="black"/>
<path d="M405.647 169.047C347.199 185.447 323.696 214.372 284.698 224.445" stroke="#101828" stroke-width="0.7"/>
<path opacity="0.3" fill-rule="evenodd" clip-rule="evenodd" d="M239.669 258.458C238.981 259.423 238.349 260.358 237.77 261.261L237.998 272.663L238.514 272.674C238.595 271.304 239.161 269.866 240.286 267.444C241.409 265.026 243.079 261.644 245.351 258.458C249.875 252.112 256.777 244.504 266.459 236.646C268.213 237.3 270.3 238.413 272.039 239.166C268.406 237.45 267.439 236.918 263.775 235.55C254.093 243.408 244.193 252.112 239.669 258.458ZM302.821 252.47C298.112 251.179 293.606 249.466 289.225 247.564C295.385 250.469 301.735 253.198 308.502 255.052C323.826 259.252 341.266 258.962 363.533 246.192C378.232 237.762 386.389 222.754 392.152 207.723C394.381 201.91 396.256 196.083 398.012 190.626C398.527 189.027 399.031 187.46 399.531 185.934C401.74 179.192 403.863 173.266 406.415 168.939L406.706 168.446L406.144 168.554C404.049 168.956 401.757 169.099 399.293 169.05C397.355 173.013 395.63 177.917 393.849 183.352C393.349 184.877 392.845 186.444 392.33 188.043C390.574 193.5 388.699 199.328 386.47 205.141C380.707 220.172 372.551 235.179 357.851 243.609C335.584 256.38 318.144 256.669 302.821 252.47Z" fill="#101828" stroke="#101828" stroke-width="0.7"/>
<path fill-rule="evenodd" clip-rule="evenodd" d="M281.138 243.835C283.798 245.113 286.489 246.376 289.228 247.565C288.422 247.185 287.62 246.802 286.82 246.418C285.591 245.827 284.368 245.233 283.15 244.641C279.309 242.775 275.512 240.93 271.699 239.281C273.615 240.186 275.535 241.119 277.466 242.057C278.684 242.649 279.908 243.244 281.138 243.835Z" fill="#101828"/>
<path d="M123.425 162.651C167.723 166.938 185.611 202.369 196.611 231.674C209.034 239.675 218.078 247.244 222.178 252.212L221.835 273.175C221.499 267.508 213.195 252.68 193.678 236.87C166.164 247.093 141.099 271.441 96.6859 245.97C67.4468 229.201 64.1709 186.226 53.8985 168.809C69.8285 171.864 96.7387 160.068 123.425 162.651Z" fill="#01A47C"/>
<path d="M123.425 162.651L123.459 162.303L123.459 162.303L123.425 162.651ZM196.611 231.674L196.283 231.797L196.324 231.906L196.421 231.968L196.611 231.674ZM222.178 252.212L222.528 252.218L222.53 252.089L222.448 251.989L222.178 252.212ZM221.835 273.175L221.486 273.196L222.185 273.181L221.835 273.175ZM193.678 236.87L193.899 236.598L193.744 236.473L193.557 236.542L193.678 236.87ZM96.6859 245.97L96.5118 246.273L96.5118 246.273L96.6859 245.97ZM53.8985 168.809L53.9644 168.465L53.2033 168.319L53.597 168.986L53.8985 168.809ZM123.425 162.651L123.391 162.999C167.465 167.265 185.286 202.498 196.283 231.797L196.611 231.674L196.938 231.551C185.937 202.239 167.981 166.612 123.459 162.303L123.425 162.651ZM196.611 231.674L196.421 231.968C208.834 239.962 217.843 247.509 221.908 252.435L222.178 252.212L222.448 251.989C218.314 246.98 209.233 239.387 196.8 231.38L196.611 231.674ZM222.178 252.212L221.828 252.206L221.485 273.169L221.835 273.175L222.185 273.181L222.528 252.218L222.178 252.212ZM221.835 273.175L222.185 273.154C222.097 271.674 221.495 269.638 220.356 267.187C219.215 264.73 217.523 261.833 215.235 258.623C210.657 252.203 203.679 244.521 193.899 236.598L193.678 236.87L193.458 237.142C203.194 245.029 210.127 252.666 214.665 259.029C216.934 262.211 218.601 265.071 219.721 267.482C220.844 269.9 221.406 271.843 221.486 273.196L221.835 273.175ZM193.678 236.87L193.557 236.542C186.658 239.105 179.911 242.554 173.01 245.871C166.099 249.192 159.023 252.386 151.427 254.468C136.259 258.624 118.985 258.355 96.86 245.666L96.6859 245.97L96.5118 246.273C118.799 259.056 136.265 259.348 151.612 255.143C159.273 253.043 166.397 249.826 173.313 246.502C180.237 243.174 186.941 239.747 193.8 237.199L193.678 236.87ZM96.6859 245.97L96.86 245.666C82.349 237.344 74.257 222.505 68.5065 207.507C65.6316 200.009 63.3502 192.495 61.1385 185.746C58.9312 179.009 56.7901 173.022 54.2 168.631L53.8985 168.809L53.597 168.986C56.1431 173.303 58.2636 179.22 60.4733 185.964C62.6788 192.694 64.9698 200.238 67.8529 207.758C73.6181 222.794 81.7837 237.827 96.5118 246.273L96.6859 245.97ZM53.8985 168.809L53.8326 169.152C57.8686 169.926 62.5801 169.757 67.7724 169.12C72.9659 168.482 78.6707 167.372 84.6922 166.251C96.7497 164.006 110.103 161.713 123.391 162.999L123.425 162.651L123.459 162.303C110.06 161.006 96.6156 163.319 84.5641 165.563C78.531 166.686 72.8534 167.791 67.6871 168.425C62.5195 169.059 57.8934 169.218 53.9644 168.465L53.8985 168.809Z" fill="black"/>
<path d="M54.4469 169.047C112.894 185.447 136.398 214.372 175.396 224.445" stroke="#101828" stroke-width="0.7"/>
<path fill-rule="evenodd" clip-rule="evenodd" d="M178.959 243.835C176.299 245.113 173.609 246.376 170.87 247.565C171.675 247.185 172.478 246.802 173.278 246.418C174.507 245.827 175.73 245.233 176.948 244.641C180.788 242.775 184.586 240.93 188.398 239.281C186.482 240.186 184.563 241.119 182.632 242.057C181.413 242.649 180.19 243.244 178.959 243.835Z" fill="#101828"/>
<mask id="mask0_7492_1732" style="mask-type:alpha" maskUnits="userSpaceOnUse" x="53" y="161" width="170" height="113">
<path d="M123.425 162.652C167.724 166.94 185.612 202.37 196.611 231.676C209.034 239.677 218.078 247.246 222.178 252.213L221.835 273.176C221.499 267.509 213.195 252.681 193.677 236.871C166.164 247.094 141.099 271.44 96.6871 245.97C67.4481 229.201 64.1708 186.227 53.8985 168.81C69.8285 171.865 96.7387 160.069 123.425 162.652Z" fill="url(#paint0_radial_7492_1732)"/>
<path d="M123.425 162.652L123.459 162.304L123.459 162.304L123.425 162.652ZM196.611 231.676L196.284 231.799L196.325 231.908L196.422 231.971L196.611 231.676ZM222.178 252.213L222.528 252.219L222.53 252.09L222.448 251.99L222.178 252.213ZM221.835 273.176L221.486 273.197L222.185 273.182L221.835 273.176ZM193.677 236.871L193.898 236.599L193.743 236.474L193.556 236.543L193.677 236.871ZM96.6871 245.97L96.5129 246.274L96.5129 246.274L96.6871 245.97ZM53.8985 168.81L53.9644 168.466L53.2033 168.32L53.597 168.987L53.8985 168.81ZM123.425 162.652L123.391 163C167.466 167.266 185.287 202.5 196.284 231.799L196.611 231.676L196.939 231.553C185.937 202.241 167.982 166.613 123.459 162.304L123.425 162.652ZM196.611 231.676L196.422 231.971C208.834 239.964 217.843 247.51 221.908 252.436L222.178 252.213L222.448 251.99C218.314 246.981 209.234 239.389 196.801 231.382L196.611 231.676ZM222.178 252.213L221.828 252.207L221.485 273.17L221.835 273.176L222.185 273.182L222.528 252.219L222.178 252.213ZM221.835 273.176L222.185 273.155C222.097 271.675 221.495 269.639 220.356 267.188C219.214 264.731 217.523 261.833 215.234 258.624C210.656 252.204 203.678 244.522 193.898 236.599L193.677 236.871L193.457 237.143C203.194 245.03 210.127 252.667 214.665 259.03C216.933 262.212 218.601 265.072 219.721 267.483C220.844 269.901 221.406 271.844 221.486 273.197L221.835 273.176ZM193.677 236.871L193.556 236.543C186.657 239.106 179.911 242.555 173.009 245.872C166.099 249.192 159.023 252.386 151.427 254.468C136.259 258.624 118.986 258.355 96.8612 245.666L96.6871 245.97L96.5129 246.274C118.8 259.055 136.265 259.348 151.612 255.143C159.272 253.044 166.397 249.826 173.312 246.503C180.237 243.175 186.941 239.748 193.799 237.199L193.677 236.871ZM96.6871 245.97L96.8612 245.666C82.3502 237.344 74.258 222.505 68.5071 207.508C65.6321 200.01 63.3504 192.496 61.1387 185.747C58.9312 179.01 56.7901 173.023 54.2 168.632L53.8985 168.81L53.597 168.987C56.143 173.304 58.2637 179.221 60.4735 185.965C62.6791 192.695 64.9702 200.239 67.8535 207.758C73.6191 222.794 81.785 237.827 96.5129 246.274L96.6871 245.97ZM53.8985 168.81L53.8326 169.153C57.8686 169.927 62.5801 169.758 67.7724 169.121C72.9659 168.483 78.6707 167.373 84.6922 166.252C96.7498 164.007 110.103 161.714 123.391 163L123.425 162.652L123.459 162.304C110.06 161.007 96.6157 163.32 84.5641 165.564C78.531 166.687 72.8534 167.792 67.6871 168.426C62.5194 169.06 57.8934 169.219 53.9644 168.466L53.8985 168.81Z" fill="black"/>
</mask>
<g mask="url(#mask0_7492_1732)">
<g opacity="0.15">
<path d="M40.1836 130.506C43.3131 129.82 46.4679 129.763 49.4789 130.406C49.4859 130.408 49.4928 130.409 49.4998 130.411C49.67 130.447 49.8397 130.486 50.0089 130.527C50.019 130.53 50.0292 130.532 50.0393 130.534C50.3866 130.619 50.7318 130.713 51.0747 130.817C51.0836 130.82 51.0925 130.823 51.1014 130.826C51.4379 130.928 51.7721 131.04 52.1037 131.161C52.1144 131.164 52.1251 131.168 52.1357 131.172C52.301 131.233 52.4655 131.296 52.6295 131.361C52.6379 131.365 52.6464 131.367 52.6547 131.371C52.9884 131.504 53.3192 131.647 53.6471 131.8C53.6594 131.806 53.6715 131.812 53.6838 131.817C53.9214 131.929 54.1577 132.045 54.392 132.167C54.4228 132.183 54.4536 132.199 54.4843 132.215C54.5445 132.247 54.6047 132.278 54.6646 132.311C54.8298 132.4 54.994 132.492 55.1574 132.586C56.6162 133.428 57.9302 134.439 59.0955 135.591C60.2191 134.755 61.3798 134.006 62.566 133.347C62.5812 133.339 62.5964 133.33 62.6116 133.322C65.6614 131.636 68.8811 130.551 72.0882 130.141C72.0956 130.141 72.1029 130.14 72.1103 130.139C73.0798 130.016 74.0478 129.955 75.0098 129.957C75.0308 129.958 75.0518 129.958 75.0727 129.958C75.5819 129.961 76.0892 129.982 76.5941 130.021C76.6392 130.024 76.6843 130.028 76.7293 130.031C76.8432 130.041 76.957 130.051 77.0706 130.063C77.0911 130.065 77.1115 130.067 77.132 130.069C77.2499 130.081 77.3677 130.094 77.4853 130.108C77.5162 130.112 77.5472 130.116 77.5781 130.12C77.9251 130.164 78.2706 130.216 78.6145 130.278C78.6662 130.287 78.718 130.295 78.7697 130.305C78.8497 130.32 78.9295 130.336 79.0093 130.352C79.0738 130.365 79.1383 130.378 79.2027 130.391C79.2955 130.41 79.3881 130.431 79.4805 130.451C79.5313 130.463 79.5819 130.475 79.6326 130.486C79.7216 130.507 79.8106 130.528 79.8994 130.55C79.9751 130.569 80.0504 130.588 80.1259 130.608C80.1958 130.626 80.2659 130.644 80.3356 130.663C80.4528 130.694 80.5696 130.728 80.6863 130.762C80.7741 130.788 80.8615 130.814 80.9489 130.841C81.0294 130.866 81.1099 130.891 81.1901 130.916C81.2542 130.937 81.3181 130.958 81.382 130.979C81.467 131.008 81.552 131.036 81.6367 131.066C81.7004 131.088 81.764 131.11 81.8276 131.133C81.9115 131.164 81.9951 131.195 82.0787 131.226C82.1395 131.249 82.2005 131.271 82.2611 131.295C82.5471 131.405 82.8312 131.523 83.113 131.648C83.1551 131.666 83.1968 131.686 83.2388 131.705C83.338 131.75 83.4369 131.795 83.5355 131.842C83.5967 131.87 83.6575 131.9 83.7185 131.93C83.792 131.965 83.8655 132.001 83.9387 132.038C84.0065 132.072 84.074 132.106 84.1416 132.141C84.2111 132.177 84.2804 132.213 84.3497 132.25C84.4191 132.287 84.4887 132.323 84.5578 132.361C84.6917 132.434 84.8251 132.509 84.9578 132.585C89.0222 134.932 91.9586 138.584 93.6843 142.942C97.4283 141.414 101.458 141.424 104.824 143.368C111.407 147.168 112.844 156.817 108.198 164.864L108.21 164.872C106.216 168.325 103.407 170.949 100.333 172.517C96.5153 174.479 92.2834 174.821 88.6788 173.103C80.1877 184.782 66.0332 189.512 55.5768 183.475C55.4602 183.408 55.3446 183.339 55.2298 183.27C55.2155 183.261 55.2015 183.252 55.1873 183.244C55.0893 183.184 54.992 183.124 54.8953 183.062C54.8761 183.05 54.8568 183.038 54.8376 183.026C54.629 182.892 54.4234 182.756 54.2211 182.616C54.1673 182.578 54.1141 182.54 54.0607 182.502C54.0157 182.471 53.9707 182.439 53.926 182.407C53.8754 182.37 53.8251 182.333 53.775 182.296C53.7038 182.244 53.6331 182.191 53.5627 182.138C53.5075 182.096 53.4527 182.054 53.3981 182.011C53.3405 181.967 53.2831 181.922 53.2261 181.877C53.1703 181.832 53.1147 181.788 53.0594 181.743C53.0294 181.719 52.9996 181.694 52.9698 181.669C52.6751 181.427 52.3883 181.178 52.1095 180.92C52.0866 180.899 52.0636 180.878 52.0408 180.856C51.983 180.802 51.9255 180.748 51.8684 180.693C51.8451 180.671 51.8223 180.649 51.7992 180.626C51.7447 180.574 51.6899 180.522 51.6361 180.468C43.5815 186.463 33.6307 188.011 25.7759 183.476C21.7226 181.136 18.7911 177.497 17.0636 173.154C13.2758 174.726 9.18987 174.733 5.7804 172.765C-0.835398 168.945 -2.27966 159.247 2.39015 151.159C6.89562 143.355 15.5376 139.736 22.0837 142.917C22.1014 142.892 22.1195 142.868 22.1372 142.844C22.759 141.996 23.4104 141.185 24.0884 140.412C24.1217 140.374 24.1546 140.336 24.188 140.299C24.2907 140.183 24.3945 140.068 24.4984 139.954C24.5494 139.898 24.6001 139.841 24.6514 139.785C24.759 139.669 24.8677 139.553 24.9765 139.438C25.0182 139.394 25.0598 139.35 25.1018 139.306C25.2074 139.196 25.3137 139.086 25.4205 138.978C25.4758 138.921 25.5311 138.865 25.5867 138.809C25.6937 138.702 25.8015 138.596 25.9096 138.49C25.9548 138.446 26 138.402 26.0454 138.358C26.1547 138.252 26.2643 138.147 26.3746 138.043C26.4324 137.989 26.4906 137.935 26.5487 137.881C26.6539 137.784 26.7592 137.686 26.8653 137.59C26.9215 137.54 26.9782 137.489 27.0346 137.439C27.1411 137.344 27.2476 137.249 27.3549 137.156C27.4175 137.101 27.4808 137.048 27.5437 136.994C27.6471 136.905 27.7503 136.817 27.8545 136.73C27.9131 136.681 27.9724 136.633 28.0312 136.584C28.7765 135.97 29.5405 135.396 30.32 134.862C30.3498 134.841 30.3793 134.821 30.4092 134.8C30.5329 134.716 30.6573 134.633 30.7819 134.551C30.838 134.514 30.8939 134.477 30.9502 134.441C31.077 134.358 31.2043 134.277 31.3318 134.197C31.376 134.169 31.4201 134.141 31.4644 134.114C31.6021 134.028 31.7401 133.944 31.8786 133.86C31.9201 133.836 31.9618 133.811 32.0034 133.787C32.1303 133.711 32.2574 133.637 32.385 133.563C32.4489 133.526 32.5128 133.49 32.5769 133.454C32.6994 133.384 32.8223 133.316 32.9454 133.249C32.9919 133.224 33.0383 133.198 33.0849 133.173C33.2258 133.097 33.3668 133.022 33.5085 132.948C33.5337 132.935 33.5592 132.922 33.5845 132.909C34.6224 132.375 35.6776 131.909 36.7435 131.516C36.7611 131.509 36.7784 131.502 36.796 131.496C36.9519 131.438 37.1083 131.384 37.2646 131.329C37.2987 131.318 37.3327 131.305 37.3669 131.294C37.5273 131.239 37.6883 131.186 37.8492 131.135C37.8696 131.128 37.89 131.121 37.9105 131.115C38.0733 131.063 38.2364 131.013 38.3996 130.965C38.4272 130.957 38.4548 130.949 38.4824 130.94C38.6399 130.894 38.7976 130.85 38.9553 130.807C38.9883 130.798 39.0213 130.789 39.0544 130.781C39.2102 130.739 39.366 130.698 39.522 130.659C39.5517 130.652 39.5814 130.645 39.6111 130.638C39.7706 130.599 39.9301 130.561 40.0897 130.526C40.121 130.519 40.1524 130.513 40.1836 130.506Z" fill="#101828"/>
<path d="M109.458 124.79L109.535 124.825C109.494 124.806 109.452 124.787 109.411 124.769L109.458 124.79Z" fill="#101828"/>
</g>
</g>
<path d="M60.1416 130.041C68.1679 123.975 78.0977 122.41 85.8965 126.912C89.9813 129.27 92.9158 132.969 94.6074 137.39C98.361 135.782 102.407 135.758 105.763 137.695C112.173 141.396 113.639 150.857 109.038 158.826C104.571 166.563 96.027 170.05 89.667 166.859C81.242 178.601 67.1358 183.314 56.7842 177.338C55.2767 176.468 53.927 175.413 52.7373 174.209C44.7111 180.275 34.7821 181.841 26.9834 177.339C22.909 174.987 19.9788 171.301 18.2852 166.896C14.4887 168.547 10.3875 168.589 6.98926 166.627C0.546277 162.907 -0.928316 153.398 3.69629 145.388C8.20372 137.581 16.8409 134.079 23.2412 137.351C31.6696 125.638 45.7559 120.944 56.0957 126.913C57.6027 127.783 58.9521 128.837 60.1416 130.041Z" fill="white"/>
<path d="M60.1416 130.041L59.8927 130.287L60.1081 130.505L60.3526 130.32L60.1416 130.041ZM85.8965 126.912L86.0715 126.609L86.0715 126.609L85.8965 126.912ZM94.6074 137.39L94.2805 137.515L94.4106 137.855L94.7452 137.711L94.6074 137.39ZM105.763 137.695L105.938 137.392V137.392L105.763 137.695ZM109.038 158.826L109.341 159.001V159.001L109.038 158.826ZM89.667 166.859L89.8239 166.547L89.5568 166.413L89.3826 166.655L89.667 166.859ZM56.7842 177.338L56.6092 177.641L56.6092 177.641L56.7842 177.338ZM52.7373 174.209L52.9863 173.963L52.7708 173.745L52.5263 173.93L52.7373 174.209ZM26.9834 177.339L26.8084 177.642L26.8084 177.642L26.9834 177.339ZM18.2852 166.896L18.6119 166.77L18.4807 166.429L18.1455 166.575L18.2852 166.896ZM6.98926 166.627L6.81426 166.93L6.81427 166.93L6.98926 166.627ZM3.69629 145.388L3.39318 145.213L3.39318 145.213L3.69629 145.388ZM23.2412 137.351L23.0819 137.662L23.3497 137.799L23.5253 137.555L23.2412 137.351ZM56.0957 126.913L56.2707 126.61L56.2707 126.61L56.0957 126.913ZM60.1416 130.041L60.3526 130.32C68.2991 124.314 78.0762 122.801 85.7215 127.215L85.8965 126.912L86.0715 126.609C78.1192 122.018 68.0366 123.635 59.9306 129.762L60.1416 130.041ZM85.8965 126.912L85.7215 127.215C89.729 129.529 92.6142 133.16 94.2805 137.515L94.6074 137.39L94.9343 137.265C93.2174 132.777 90.2337 129.012 86.0715 126.609L85.8965 126.912ZM94.6074 137.39L94.7452 137.711C98.4178 136.139 102.345 136.126 105.588 137.998L105.763 137.695L105.938 137.392C102.469 135.389 98.3041 135.426 94.4696 137.068L94.6074 137.39ZM105.763 137.695L105.588 137.998C111.772 141.569 113.277 150.784 108.735 158.651L109.038 158.826L109.341 159.001C114.001 150.929 112.573 141.223 105.938 137.392L105.763 137.695ZM109.038 158.826L108.735 158.651C104.327 166.286 95.9639 169.627 89.8239 166.547L89.667 166.859L89.5101 167.172C96.09 170.473 104.815 166.84 109.341 159.001L109.038 158.826ZM89.667 166.859L89.3826 166.655C81.0237 178.305 67.1034 182.891 56.9592 177.035L56.7842 177.338L56.6092 177.641C67.1682 183.737 81.4602 178.897 89.9514 167.063L89.667 166.859ZM56.7842 177.338L56.9592 177.035C55.4796 176.181 54.1546 175.145 52.9863 173.963L52.7373 174.209L52.4883 174.455C53.6994 175.681 55.0739 176.755 56.6092 177.641L56.7842 177.338ZM52.7373 174.209L52.5263 173.93C44.5798 179.936 34.8036 181.449 27.1584 177.036L26.9834 177.339L26.8084 177.642C34.7606 182.233 44.8423 180.615 52.9483 174.488L52.7373 174.209ZM26.9834 177.339L27.1584 177.036C23.1611 174.728 20.2801 171.11 18.6119 166.77L18.2852 166.896L17.9585 167.021C19.6775 171.493 22.6569 175.245 26.8084 177.642L26.9834 177.339ZM18.2852 166.896L18.1455 166.575C14.43 168.191 10.4483 168.22 7.16425 166.324L6.98926 166.627L6.81427 166.93C10.3268 168.958 14.5475 168.903 18.4248 167.216L18.2852 166.896ZM6.98926 166.627L7.16426 166.324C0.946944 162.734 -0.566041 153.47 3.9994 145.563L3.69629 145.388L3.39318 145.213C-1.29059 153.325 0.14561 163.08 6.81426 166.93L6.98926 166.627ZM3.69629 145.388L3.9994 145.563C8.44793 137.858 16.9024 134.504 23.0819 137.662L23.2412 137.351L23.4005 137.039C16.7794 133.655 7.95952 137.304 3.39318 145.213L3.69629 145.388ZM23.2412 137.351L23.5253 137.555C31.8875 125.935 45.7881 121.366 55.9207 127.216L56.0957 126.913L56.2707 126.61C45.7238 120.521 31.4517 125.342 22.9571 137.146L23.2412 137.351ZM56.0957 126.913L55.9207 127.216C57.3999 128.07 58.7245 129.105 59.8927 130.287L60.1416 130.041L60.3905 129.795C59.1797 128.57 57.8056 127.496 56.2707 126.61L56.0957 126.913Z" fill="#101828"/>
<path d="M21.26 140.418C29.2993 126.493 44.8959 120.447 56.096 126.914" stroke="black" stroke-width="0.7"/>
<path opacity="0.15" fill-rule="evenodd" clip-rule="evenodd" d="M110.461 118.854C110.484 118.864 110.506 118.874 110.529 118.885L110.606 118.92C110.635 118.934 110.663 118.948 110.692 118.961L110.741 118.985L110.764 118.996C110.711 118.971 110.659 118.945 110.606 118.92C110.565 118.901 110.524 118.882 110.483 118.864L110.461 118.854Z" fill="#101828"/>
<path d="M56.785 177.338C52.9464 175.122 50.1224 171.723 48.3921 167.653M85.8979 126.913C76.5243 121.501 64.0711 124.854 55.546 134.254" stroke="black" stroke-width="0.7"/>
<path opacity="0.15" fill-rule="evenodd" clip-rule="evenodd" d="M19.875 170.592C21.5993 173.43 23.9464 175.811 26.8841 177.507C34.7236 182.033 44.6688 180.483 52.7157 174.469C53.3618 175.112 54.0547 175.71 54.7929 176.261L54.8574 176.309C54.9226 176.358 54.9884 176.405 55.0546 176.453L55.1362 176.511C55.2312 176.579 55.327 176.646 55.4235 176.712C55.5332 176.787 55.6436 176.861 55.755 176.934L55.9141 177.037L56.051 177.124L56.2135 177.225C56.2702 177.261 56.327 177.296 56.3844 177.33C56.4445 177.366 56.505 177.402 56.5656 177.437C56.6051 177.46 56.6444 177.484 56.6843 177.507C67.1105 183.526 81.2495 178.804 89.7232 167.112C96.1965 170.304 104.797 166.731 109.281 158.967L109.206 158.923C113.65 151.225 112.503 142.082 106.636 138.018C108.79 142.602 108.448 148.781 105.299 154.235L105.374 154.279C100.891 162.044 91.6544 165.664 85.1811 162.472C76.7074 174.164 63.2042 178.839 52.7779 172.819C52.738 172.796 52.6988 172.773 52.6593 172.749C52.5986 172.714 52.5382 172.679 52.4781 172.642C52.4207 172.608 52.3638 172.573 52.3072 172.538L52.1447 172.437L52.0077 172.35L51.8486 172.246C51.639 172.109 51.4328 171.968 51.2299 171.823L51.1482 171.765C51.082 171.718 51.0162 171.67 50.951 171.621L50.8865 171.573C50.1484 171.022 49.8886 170.146 49.2425 169.503C41.1956 175.518 30.8172 177.346 22.9778 172.82C21.857 172.173 20.8222 171.426 19.875 170.592Z" fill="#101828"/>
<path d="M327.957 124.145C282.873 144.548 244.913 200.214 235.232 221.299L235.84 253.984C236.285 236.287 272.977 153.595 328.011 126.575L327.957 124.145Z" fill="#01A47C" stroke="#101828" stroke-width="0.7"/>
<path d="M301.73 108.055L336.862 144.643C327.264 153.859 312.012 153.549 302.795 143.951L301.039 142.122C291.823 132.523 292.132 117.271 301.73 108.055Z" fill="#01A47C" stroke="#101828" stroke-width="0.7"/>
<path opacity="0.3" fill-rule="evenodd" clip-rule="evenodd" d="M332.472 140.07C323.335 148.843 309.076 148.984 299.776 140.699C300.175 141.186 300.596 141.661 301.04 142.122L302.796 143.952C312.013 153.55 327.265 153.86 336.863 144.643L332.472 140.07Z" fill="#101828" stroke="#101828" stroke-width="0.7"/>
<path d="M304.121 67.5205L377.02 143.441C358.076 161.631 327.973 161.02 309.782 142.076L302.756 134.758C284.566 115.814 285.177 85.7107 304.121 67.5205Z" fill="#EBCFF6" stroke="#101828" stroke-width="0.7"/>
<path opacity="0.2" fill-rule="evenodd" clip-rule="evenodd" d="M372.632 138.867C353.687 157.057 323.584 156.446 305.394 137.502L309.786 142.075C327.976 161.019 358.079 161.63 377.023 143.44L372.632 138.867Z" fill="#101828" stroke="#101828" stroke-width="0.7"/>
<path d="M352.274 94.5753C357.993 101.108 352.778 107.94 363.855 112.201C375.197 116.564 383.147 126.173 378.113 131.007C372.648 136.255 381.641 139.336 377.222 143.579C372.803 147.822 359.88 139.671 353.307 126.308C346.759 112.996 344.55 109.997 340.165 105.425C335.995 101.1 333.138 98.5204 320.5 91.6813C307.473 84.6321 299.686 71.6729 304.104 67.4297C308.523 63.1867 311.202 72.261 316.668 67.0134C321.702 62.1803 330.929 70.4593 334.783 81.9213C338.546 93.1143 345.577 88.1788 351.835 94.1167L351.846 94.1066C351.913 94.1762 351.978 94.2467 352.042 94.3164C352.123 94.397 352.205 94.4792 352.286 94.5638L352.274 94.5753Z" fill="#E7A0F7"/>
<path d="M352.274 94.5753L352.032 94.3228L351.791 94.5543L352.011 94.8058L352.274 94.5753ZM363.855 112.201L363.729 112.528L363.729 112.528L363.855 112.201ZM378.113 131.007L378.356 131.259L378.356 131.259L378.113 131.007ZM377.222 143.579L377.464 143.831L377.464 143.831L377.222 143.579ZM353.307 126.308L353.621 126.153L353.307 126.308ZM340.165 105.425L340.418 105.183L340.417 105.182L340.165 105.425ZM320.5 91.6813L320.666 91.3735L320.5 91.6813ZM304.104 67.4297L303.862 67.1772L303.862 67.1772L304.104 67.4297ZM316.668 67.0134L316.91 67.2659L316.91 67.2659L316.668 67.0134ZM334.783 81.9213L335.115 81.8097L335.115 81.8097L334.783 81.9213ZM351.835 94.1167L351.594 94.3706L351.837 94.6006L352.078 94.3692L351.835 94.1167ZM351.846 94.1066L352.098 93.8642L351.856 93.6117L351.603 93.8541L351.846 94.1066ZM352.042 94.3164L351.785 94.5536L351.79 94.5594L351.796 94.5651L352.042 94.3164ZM352.286 94.5638L352.529 94.8162L352.781 94.5738L352.539 94.3213L352.286 94.5638ZM352.274 94.5753L352.011 94.8058C354.799 97.99 354.902 101.196 355.717 104.328C356.121 105.884 356.705 107.398 357.912 108.797C359.117 110.193 360.922 111.448 363.729 112.528L363.855 112.201L363.98 111.874C361.249 110.823 359.552 109.626 358.441 108.339C357.332 107.054 356.785 105.653 356.394 104.152C355.618 101.169 355.469 97.6929 352.538 94.3447L352.274 94.5753ZM363.855 112.201L363.729 112.528C369.352 114.691 374.119 118.15 376.849 121.643C378.215 123.39 379.053 125.123 379.257 126.688C379.458 128.237 379.042 129.63 377.871 130.754L378.113 131.007L378.356 131.259C379.701 129.967 380.179 128.346 379.951 126.598C379.725 124.865 378.811 123.016 377.4 121.212C374.578 117.601 369.699 114.074 363.98 111.874L363.855 112.201ZM378.113 131.007L377.871 130.754C376.454 132.115 375.934 133.378 375.94 134.59C375.946 135.777 376.459 136.855 376.964 137.831C377.485 138.837 377.984 139.718 378.11 140.611C378.229 141.454 378.013 142.334 376.979 143.326L377.222 143.579L377.464 143.831C378.64 142.702 378.957 141.606 378.803 140.514C378.657 139.472 378.078 138.459 377.586 137.509C377.078 136.528 376.645 135.586 376.64 134.587C376.635 133.612 377.04 132.522 378.356 131.259L378.113 131.007ZM377.222 143.579L376.979 143.326C375.988 144.279 374.486 144.57 372.612 144.206C370.739 143.842 368.549 142.83 366.271 141.258C361.717 138.115 356.882 132.783 353.621 126.153L353.307 126.308L352.993 126.462C356.305 133.196 361.218 138.621 365.874 141.834C368.2 143.439 370.48 144.505 372.479 144.893C374.475 145.281 376.246 145.001 377.464 143.831L377.222 143.579ZM353.307 126.308L353.621 126.153C347.067 112.829 344.839 109.792 340.418 105.183L340.165 105.425L339.913 105.667C344.261 110.201 346.452 113.164 352.993 126.462L353.307 126.308ZM340.165 105.425L340.417 105.182C336.215 100.824 333.326 98.2242 320.666 91.3735L320.5 91.6813L320.333 91.9892C332.95 98.8166 335.775 101.376 339.913 105.668L340.165 105.425ZM320.5 91.6813L320.666 91.3735C314.202 87.8753 309.043 82.9125 306.054 78.3126C304.558 76.0111 303.617 73.8193 303.316 71.9617C303.014 70.1037 303.356 68.6338 304.347 67.6821L304.104 67.4297L303.862 67.1772C302.644 68.3472 302.302 70.0884 302.625 72.074C302.947 74.06 303.939 76.3441 305.467 78.694C308.523 83.3968 313.771 88.4382 320.333 91.9892L320.5 91.6813ZM304.104 67.4297L304.347 67.6821C305.381 66.6891 306.267 66.5072 307.101 66.6571C307.985 66.8158 308.841 67.346 309.821 67.9026C310.771 68.4421 311.823 68.9948 313.006 69.0453C314.213 69.0968 315.494 68.6261 316.91 67.2659L316.668 67.0134L316.426 66.7609C315.109 68.0245 314.006 68.3873 313.035 68.3459C312.04 68.3034 311.122 67.8366 310.166 67.2939C309.241 66.7683 308.257 66.1534 307.225 65.9681C306.143 65.7738 305.037 66.0488 303.862 67.1772L304.104 67.4297ZM316.668 67.0134L316.91 67.2659C318.082 66.1408 319.488 65.7783 321.022 66.0371C322.571 66.2985 324.26 67.198 325.941 68.6236C329.302 71.4733 332.54 76.3503 334.451 82.0328L334.783 81.9213L335.115 81.8097C333.171 76.0302 329.869 71.0368 326.394 68.0897C324.657 66.617 322.855 65.6366 321.138 65.3468C319.405 65.0544 317.771 65.4695 316.426 66.7609L316.668 67.0134ZM334.783 81.9213L334.451 82.0328C335.405 84.8694 336.576 86.7152 337.916 87.9694C339.256 89.2246 340.74 89.863 342.272 90.3248C345.357 91.2546 348.545 91.477 351.594 94.3706L351.835 94.1167L352.076 93.8628C348.868 90.8186 345.411 90.5397 342.474 89.6546C340.996 89.2089 339.625 88.6113 338.394 87.4584C337.161 86.3043 336.043 84.5697 335.115 81.8097L334.783 81.9213ZM351.835 94.1167L352.078 94.3692L352.088 94.359L351.846 94.1066L351.603 93.8541L351.593 93.8643L351.835 94.1167ZM351.846 94.1066L351.593 94.349C351.657 94.4156 351.72 94.4834 351.785 94.5536L352.042 94.3164L352.299 94.0792C352.235 94.0099 352.168 93.9368 352.098 93.8642L351.846 94.1066ZM352.042 94.3164L351.796 94.5651C351.876 94.6445 351.955 94.7245 352.034 94.8062L352.286 94.5638L352.539 94.3213C352.455 94.234 352.371 94.1496 352.288 94.0677L352.042 94.3164ZM352.286 94.5638L352.044 94.3113L352.032 94.3228L352.274 94.5753L352.517 94.8277L352.529 94.8162L352.286 94.5638Z" fill="#101828"/>
<path opacity="0.12" d="M345.096 101.027C345.17 101.101 345.244 101.176 345.318 101.253L345.435 101.375L345.418 101.392C348.21 104.66 348.354 108.019 349.13 111.003C349.525 112.519 350.082 113.949 351.216 115.263C352.351 116.579 354.076 117.791 356.827 118.849C362.521 121.04 367.371 124.549 370.169 128.129C371.567 129.919 372.463 131.737 372.683 133.427C372.904 135.124 372.442 136.686 371.141 137.935C369.799 139.223 369.365 140.358 369.37 141.394C369.374 142.292 369.71 143.138 370.125 143.978C368.801 143.437 367.4 142.664 365.978 141.683C361.349 138.488 356.456 133.087 353.157 126.381C347.096 114.058 344.761 110.591 340.98 106.529L340.203 105.706C338.076 103.496 336.328 101.758 333.516 99.7084C330.701 97.6568 326.816 95.2909 320.419 91.8292C313.882 88.2919 308.657 83.2706 305.618 78.5945C304.712 77.1998 303.999 75.8318 303.503 74.5408C304.288 74.9592 305.082 75.2969 305.938 75.3334C306.969 75.3773 308.118 74.9859 309.46 73.6975C310.761 72.4491 312.337 72.0483 314.018 72.332C315.692 72.6145 317.465 73.574 319.187 75.0346C322.633 77.9566 325.918 82.9201 327.853 88.6746C328.787 91.4542 329.92 93.2176 331.18 94.3974C332.44 95.5767 333.841 96.1848 335.334 96.6345C338.272 97.5197 341.61 97.7901 344.744 100.692L344.762 100.674L344.879 100.796C344.953 100.873 345.025 100.95 345.096 101.027Z" fill="#101828"/>
<mask id="mask1_7492_1732" style="mask-type:alpha" maskUnits="userSpaceOnUse" x="289" y="66" width="92" height="93">
<path d="M316.548 67.6172C317.881 66.3379 319.498 65.9266 321.218 66.2168C322.925 66.5051 324.726 67.4825 326.467 68.959C329.95 71.9131 333.265 76.9243 335.217 82.7285C336.154 85.5145 337.286 87.2731 338.539 88.4463C339.791 89.6186 341.184 90.2254 342.678 90.6758C345.592 91.5543 348.961 91.8365 352.117 94.7178L352.141 94.6953L352.327 94.8887C352.403 94.9672 352.475 95.0463 352.545 95.1221C352.618 95.1946 352.694 95.271 352.77 95.3496L352.955 95.543L352.932 95.5654C355.703 98.8541 355.858 102.243 356.629 105.203C357.024 106.721 357.58 108.144 358.708 109.451C359.837 110.759 361.557 111.97 364.314 113.031C370.057 115.24 374.954 118.783 377.782 122.402C379.196 124.211 380.108 126.058 380.332 127.781C380.558 129.517 380.085 131.121 378.752 132.401C377.416 133.684 376.994 134.802 376.999 135.811C377.004 136.838 377.449 137.803 377.96 138.789C378.458 139.752 379.032 140.755 379.177 141.785C379.327 142.854 379.021 143.932 377.854 145.052L377.623 145.258C377.325 145.503 376.997 145.701 376.644 145.854C367.51 154.143 356.003 158.283 344.499 158.323C336.783 158.351 329.069 156.534 322.074 152.888C320.585 152.997 319.088 152.97 317.604 152.809C317.468 152.794 317.332 152.778 317.196 152.761C316.952 152.73 316.708 152.696 316.465 152.658C316.311 152.634 316.157 152.608 316.003 152.581C314.732 152.358 313.474 152.036 312.245 151.611C311.902 151.493 311.561 151.366 311.223 151.231C311.116 151.189 311.01 151.146 310.904 151.103C307.856 149.845 305.012 147.95 302.581 145.419L300.814 143.579C300.746 143.508 300.68 143.435 300.612 143.363C300.56 143.307 300.506 143.252 300.454 143.195C300.354 143.086 300.255 142.976 300.157 142.865C300.148 142.855 300.14 142.845 300.131 142.835C295.449 137.546 293.451 130.746 294.104 124.168C285.151 106.068 288.32 83.5799 303.372 68.666C303.526 68.4411 303.703 68.2302 303.905 68.0361C305.071 66.9174 306.157 66.6518 307.216 66.8418C308.237 67.0252 309.212 67.6344 310.149 68.167C311.11 68.7127 312.051 69.1916 313.074 69.2354C314.079 69.2782 315.211 68.9003 316.548 67.6172Z" fill="#101828"/>
</mask>
<g mask="url(#mask1_7492_1732)">
<path opacity="0.17" d="M234.918 5.7627C235.331 5.75745 235.749 5.75391 236.173 5.75391H236.441V5.79785C251.795 6.23771 260.525 10.2699 268.836 12.8184C273.013 14.0992 277.085 15.0057 281.857 14.9121C286.631 14.8184 292.122 13.7233 299.129 10.9766C312.202 5.85204 326.847 5.68038 337.095 8.32715C342.212 9.64898 346.274 11.684 348.483 14.1953C349.592 15.4556 350.242 16.8467 350.31 18.3311C350.316 18.4818 350.316 18.6332 350.311 18.7852V26.1592C350.311 49.1346 337.363 69.9101 316.479 84.9316C305.364 92.9264 291.995 99.2945 277.121 103.504C268.716 112.96 256.463 118.921 242.815 118.921H227.025C213.38 118.921 201.128 112.963 192.723 103.509C177.842 99.2994 164.468 92.9293 153.349 84.9316C132.465 69.9101 119.517 49.1345 119.517 26.1592V18.6504H119.521C119.52 18.5436 119.522 18.4372 119.526 18.3311C119.594 16.8467 120.244 15.4556 121.353 14.1953C123.562 11.684 127.624 9.64898 132.741 8.32715C142.989 5.68039 157.633 5.85203 170.707 10.9766C177.714 13.7233 183.205 14.8184 187.979 14.9121C192.751 15.0057 196.823 14.0992 201 12.8184C209.311 10.2699 218.041 6.2377 233.395 5.79785V5.75391H233.663C234.086 5.75391 234.505 5.75745 234.918 5.7627Z" fill="black"/>
</g>
<path d="M132.407 124.146C177.49 144.549 215.45 200.215 225.132 221.3L224.524 253.985C224.078 236.288 187.386 153.596 132.352 126.576L132.407 124.146Z" fill="#01A47C" stroke="#101828" stroke-width="0.7"/>
<path d="M123.711 144.258L159.009 107.83C168.565 117.09 168.806 132.343 159.546 141.9L157.781 143.721C148.521 153.277 133.267 153.518 123.711 144.258Z" fill="#01A47C" stroke="#101828" stroke-width="0.7"/>
<path opacity="0.29" fill-rule="evenodd" clip-rule="evenodd" d="M154.599 112.384C163.696 121.198 164.351 135.444 156.406 145.036C156.878 144.62 157.338 144.181 157.783 143.722L159.548 141.9C168.808 132.344 168.568 117.09 159.011 107.831L154.599 112.384Z" fill="#101828" stroke="#101828" stroke-width="0.7"/>
<path d="M83.1172 143.329L156.36 67.7411C175.222 86.0172 175.696 116.123 157.42 134.984L150.36 142.27C132.084 161.131 101.978 161.605 83.1172 143.329Z" fill="#EBCFF6" stroke="#101828" stroke-width="0.7"/>
<path opacity="0.1" fill-rule="evenodd" clip-rule="evenodd" d="M151.951 72.2941C170.812 90.5702 171.287 120.676 153.011 139.537L157.423 134.984C175.699 116.122 175.225 86.0167 156.363 67.7406L151.951 72.2941Z" fill="#101828" stroke="#101828" stroke-width="0.7"/>
<path d="M108.421 94.234C114.743 88.2823 121.758 93.2483 125.617 82.0244C129.569 70.5327 138.886 62.242 143.898 67.098C149.339 72.3702 152.094 63.2726 156.494 67.5356C160.893 71.799 153.213 85.0063 140.095 92.0568C127.034 99.0772 124.114 101.395 119.706 105.938C115.53 110.265 113.056 113.209 106.674 126.092C100.099 139.365 87.4286 147.614 83.0289 143.351C78.6294 139.088 87.6012 136.084 82.16 130.811C77.1486 125.954 85.09 116.434 96.406 112.169C107.456 108.005 102.269 101.157 107.979 94.6885L107.968 94.6783C108.035 94.609 108.104 94.5415 108.171 94.4748C108.248 94.3908 108.327 94.3064 108.409 94.2225L108.421 94.234Z" fill="#E7A0F7"/>
<path d="M108.421 94.234L108.177 94.4854L108.417 94.718L108.66 94.4889L108.421 94.234ZM125.617 82.0244L125.286 81.9106L125.286 81.9106L125.617 82.0244ZM143.898 67.098L143.654 67.3494L143.654 67.3494L143.898 67.098ZM156.494 67.5356L156.737 67.2843L156.737 67.2843L156.494 67.5356ZM140.095 92.0568L139.93 91.7485L140.095 92.0568ZM119.706 105.938L119.455 105.694L119.454 105.695L119.706 105.938ZM106.674 126.092L106.36 125.937L106.674 126.092ZM83.0289 143.351L82.7853 143.602L82.7853 143.602L83.0289 143.351ZM82.16 130.811L82.4036 130.559L82.4036 130.559L82.16 130.811ZM96.406 112.169L96.5294 112.497L96.5294 112.497L96.406 112.169ZM107.979 94.6885L108.241 94.9201L108.462 94.6696L108.222 94.4371L107.979 94.6885ZM107.968 94.6783L107.717 94.4348L107.473 94.6861L107.725 94.9297L107.968 94.6783ZM108.171 94.4748L108.417 94.7235L108.423 94.7179L108.428 94.712L108.171 94.4748ZM108.409 94.2225L108.652 93.9711L108.401 93.7276L108.157 93.9789L108.409 94.2225ZM108.421 94.234L108.66 94.4889C111.742 91.5877 114.943 91.3691 118.043 90.4416C119.583 89.9808 121.076 89.3432 122.429 88.0868C123.782 86.8315 124.97 84.9822 125.948 82.1382L125.617 82.0244L125.286 81.9106C124.335 84.6784 123.199 86.4174 121.953 87.5737C120.709 88.7288 119.329 89.3262 117.842 89.7709C114.889 90.6543 111.421 90.9286 108.181 93.9792L108.421 94.234ZM125.617 82.0244L125.948 82.1382C127.907 76.4406 131.193 71.5526 134.585 68.6986C136.282 67.2709 137.984 66.3708 139.54 66.1108C141.081 65.8535 142.488 66.2196 143.654 67.3494L143.898 67.098L144.141 66.8466C142.801 65.5484 141.165 65.1298 139.425 65.4204C137.702 65.7083 135.887 66.6886 134.135 68.163C130.628 71.1132 127.279 76.1165 125.286 81.9106L125.617 82.0244ZM143.898 67.098L143.654 67.3494C145.065 68.7164 146.346 69.1905 147.557 69.1408C148.743 69.092 149.802 68.5397 150.759 68.0001C151.745 67.4435 152.608 66.9127 153.496 66.7548C154.335 66.6057 155.221 66.7898 156.25 67.787L156.494 67.5356L156.737 67.2843C155.567 66.1499 154.459 65.8726 153.374 66.0656C152.338 66.2497 151.347 66.8645 150.415 67.3904C149.452 67.9333 148.527 68.4003 147.529 68.4414C146.555 68.4814 145.451 68.1157 144.141 66.8466L143.898 67.098ZM156.494 67.5356L156.25 67.7869C157.237 68.7435 157.583 70.2336 157.286 72.1198C156.99 74.0043 156.057 76.2294 154.568 78.5627C151.592 83.2267 146.438 88.2506 139.93 91.7485L140.095 92.0568L140.261 92.3651C146.871 88.8125 152.115 83.7075 155.158 78.9393C156.679 76.5566 157.661 74.2398 157.978 72.2286C158.294 70.219 157.95 68.4594 156.737 67.2843L156.494 67.5356ZM140.095 92.0568L139.93 91.7485C126.855 98.776 123.899 101.114 119.455 105.694L119.706 105.938L119.957 106.181C124.328 101.676 127.213 99.3785 140.261 92.3651L140.095 92.0568ZM119.706 105.938L119.454 105.695C115.247 110.054 112.753 113.032 106.36 125.937L106.674 126.092L106.987 126.248C113.359 113.386 115.814 110.475 119.958 106.181L119.706 105.938ZM106.674 126.092L106.36 125.937C103.097 132.523 98.3236 137.858 93.8344 141.011C91.5884 142.589 89.4318 143.607 87.5864 143.976C85.7405 144.345 84.2592 144.056 83.2724 143.1L83.0289 143.351L82.7853 143.602C83.9985 144.778 85.7508 145.056 87.7235 144.662C89.6965 144.268 91.9434 143.195 94.2368 141.584C98.8264 138.36 103.675 132.934 106.987 126.248L106.674 126.092ZM83.0289 143.351L83.2724 143.1C82.2427 142.102 82.0291 141.223 82.1487 140.384C82.2755 139.495 82.7745 138.621 83.2954 137.621C83.8004 136.653 84.3148 135.581 84.3226 134.397C84.3306 133.189 83.814 131.926 82.4036 130.559L82.16 130.811L81.9165 131.062C83.2266 132.332 83.629 133.422 83.6226 134.393C83.616 135.389 83.1826 136.323 82.6747 137.298C82.1827 138.242 81.6038 139.247 81.4557 140.285C81.3006 141.373 81.6153 142.469 82.7853 143.602L83.0289 143.351ZM82.16 130.811L82.4036 130.559C81.237 129.429 80.8241 128.037 81.0274 126.495C81.2329 124.937 82.071 123.216 83.4352 121.485C86.162 118.024 90.9193 114.611 96.5294 112.497L96.406 112.169L96.2825 111.842C90.5767 113.992 85.7053 117.472 82.8853 121.051C81.476 122.84 80.5612 124.677 80.3335 126.403C80.1037 128.145 80.5773 129.764 81.9165 131.062L82.16 130.811ZM96.406 112.169L96.5294 112.497C99.3297 111.442 101.132 110.205 102.337 108.821C103.543 107.436 104.127 105.93 104.534 104.382C105.352 101.266 105.459 98.0723 108.241 94.9201L107.979 94.6885L107.716 94.4569C104.789 97.7732 104.635 101.238 103.857 104.204C103.465 105.698 102.917 107.089 101.809 108.361C100.7 109.635 99.0072 110.815 96.2825 111.842L96.406 112.169ZM107.979 94.6885L108.222 94.4371L108.212 94.427L107.968 94.6783L107.725 94.9297L107.735 94.9399L107.979 94.6885ZM107.968 94.6783L108.22 94.9219C108.284 94.8556 108.349 94.7906 108.417 94.7235L108.171 94.4748L107.925 94.2262C107.858 94.2925 107.787 94.3624 107.717 94.4348L107.968 94.6783ZM108.171 94.4748L108.428 94.712C108.505 94.6292 108.581 94.5471 108.66 94.466L108.409 94.2225L108.157 93.9789C108.073 94.0657 107.992 94.1523 107.914 94.2377L108.171 94.4748ZM108.409 94.2225L108.165 94.4738L108.177 94.4854L108.421 94.234L108.664 93.9827L108.652 93.9711L108.409 94.2225Z" fill="#101828"/>
<path opacity="0.15" d="M115.128 101.176C115.199 101.099 115.271 101.022 115.346 100.945L115.463 100.824L115.481 100.841C118.646 97.9327 121.997 97.6675 124.952 96.784C126.452 96.3353 127.861 95.7272 129.134 94.5461C130.407 93.3644 131.557 91.5969 132.515 88.8098C134.499 83.0409 137.831 78.0674 141.308 75.142C143.047 73.6798 144.832 72.7192 146.512 72.4384C148.2 72.1565 149.777 72.5622 151.072 73.8169C152.408 75.1111 153.559 75.5049 154.593 75.4624C155.491 75.4254 156.325 75.0598 157.15 74.6148C156.657 75.9575 155.934 77.3848 155.005 78.8407C151.979 83.5819 146.758 88.6665 140.175 92.205C128.079 98.7063 124.698 101.165 120.775 105.09L119.98 105.896C117.848 108.101 116.175 109.911 114.228 112.795C112.279 115.682 110.055 119.649 106.826 126.167C103.526 132.827 98.6966 138.23 94.1331 141.435C92.7724 142.391 91.4311 143.152 90.159 143.694C90.5484 142.896 90.8562 142.09 90.862 141.234C90.8687 140.202 90.4361 139.067 89.1002 137.773C87.8058 136.519 87.3485 134.957 87.5713 133.267C87.7933 131.585 88.6884 129.778 90.0858 128.004C92.8817 124.456 97.7237 120.993 103.405 118.852C106.149 117.818 107.87 116.623 109.004 115.321C110.137 114.019 110.694 112.597 111.09 111.09C111.868 108.122 112.019 104.775 114.805 101.539L114.787 101.522L114.905 101.4C114.979 101.324 115.054 101.249 115.128 101.176Z" fill="#101828"/>
<mask id="mask2_7492_1732" style="mask-type:alpha" maskUnits="userSpaceOnUse" x="80" y="65" width="92" height="92">
<path d="M81.975 131.003C80.6561 129.725 80.1894 128.133 80.416 126.414C80.6411 124.707 81.5471 122.884 82.9508 121.102C85.7599 117.537 90.6185 114.065 96.3131 111.919C99.0461 110.889 100.752 109.701 101.872 108.415C102.991 107.13 103.543 105.724 103.937 104.225C104.705 101.299 104.865 97.9436 107.613 94.7061L107.591 94.6844L107.777 94.491C107.845 94.4211 107.914 94.3533 107.979 94.2883C108.056 94.2047 108.136 94.12 108.218 94.0354L108.405 93.843L108.428 93.8656C111.595 90.996 114.955 90.7201 117.868 89.8489C119.36 89.4023 120.754 88.7996 122.011 87.6327C123.269 86.4649 124.411 84.713 125.366 81.9368C127.354 76.1543 130.695 71.1641 134.189 68.2251C135.935 66.7563 137.736 65.7855 139.44 65.5009C141.157 65.2143 142.767 65.627 144.087 66.9056C145.408 68.1857 146.533 68.5638 147.534 68.5226C148.554 68.4806 149.495 68.0039 150.457 67.4615C151.395 66.9321 152.372 66.327 153.391 66.1459C154.447 65.9583 155.529 66.2244 156.683 67.3425L156.895 67.5654C157.15 67.8527 157.358 68.171 157.523 68.5161C175.53 86.9753 175.678 116.532 157.618 135.17L153.205 139.724L153.203 139.723L150.554 142.457C132.352 161.241 102.482 161.891 83.4833 144.048C83.3412 143.958 83.204 143.859 83.0729 143.749L82.8436 143.544C81.6902 142.426 81.3873 141.355 81.5382 140.297C81.6839 139.276 82.2534 138.285 82.7487 137.335C83.2562 136.361 83.7 135.411 83.7067 134.393C83.7133 133.394 83.2968 132.284 81.975 131.003Z" fill="#101828"/>
</mask>
<g mask="url(#mask2_7492_1732)">
<path opacity="0.17" d="M23.4623 214.153C23.4449 213.787 23.4279 213.415 23.4143 213.04L23.4046 212.772L23.4447 212.77C23.3319 197.508 27.0243 188.693 29.2574 180.349C30.3798 176.155 31.1346 172.078 30.8707 167.342C30.6066 162.605 29.322 157.192 26.3435 150.332C20.786 137.532 20.0911 122.994 22.3525 112.722C23.4819 107.592 25.3576 103.485 27.7728 101.201C28.9849 100.055 30.3437 99.3583 31.816 99.2384C31.949 99.2276 32.0827 99.2233 32.217 99.222L39.5882 98.9561C41.0144 98.9047 42.4339 98.9036 43.8457 98.9521C44.5516 98.9763 45.2555 99.0128 45.9575 99.0616C53.3277 99.5737 60.4755 101.43 67.2693 104.458C67.9164 104.747 68.5599 105.046 69.2004 105.356C80.4093 110.773 90.601 119.402 99.1683 130.45C105.533 138.658 111.004 148.202 115.333 158.764C115.666 159.576 115.993 160.395 116.312 161.219C116.472 161.632 116.629 162.045 116.786 162.46C117.098 163.29 117.403 164.126 117.702 164.968C118.159 166.255 118.598 167.556 119.021 168.869C128.715 176.878 135.074 188.834 135.563 202.388L136.129 218.068C136.617 231.621 131.139 244.003 122.05 252.689C118.403 267.618 112.556 281.128 105.011 292.456C90.8416 313.734 70.6722 327.337 47.855 328.161L40.396 328.43L40.3959 328.427C40.2918 328.432 40.188 328.434 40.0844 328.433C38.6073 328.42 37.2018 327.823 35.9103 326.767C33.3369 324.663 31.1701 320.702 29.6741 315.667C26.6785 305.585 26.3245 291.034 30.9453 277.867C33.422 270.81 34.3131 265.318 34.2353 260.574C34.1574 255.832 33.1106 251.82 31.6892 247.718C28.861 239.557 24.5438 231.03 23.5568 215.799L23.511 215.801L23.5013 215.533C23.4845 215.067 23.4723 214.607 23.4623 214.153Z" fill="black"/>
</g>
<path d="M156.238 67.5215L83.3394 143.442C102.283 161.632 132.387 161.021 150.577 142.077L157.603 134.759C175.793 115.815 175.182 85.7117 156.238 67.5215Z" fill="#EBCFF6" stroke="#101828" stroke-width="0.7"/>
<path d="M108.085 94.5762C102.366 101.109 107.581 107.941 96.5046 112.202C85.1629 116.565 77.2128 126.174 82.2461 131.008C87.7116 136.256 78.7187 139.337 83.1375 143.58C87.5564 147.823 100.479 139.672 107.052 126.309C113.6 112.997 115.809 109.998 120.194 105.426C124.364 101.101 127.221 98.5214 139.86 91.6823C152.887 84.6331 160.673 71.6739 156.255 67.4307C151.836 63.1877 149.157 72.262 143.691 67.0144C138.658 62.1812 129.43 70.4607 125.576 81.923C121.813 93.1155 114.782 88.1799 108.524 94.1177L108.514 94.1075C108.447 94.1772 108.382 94.2477 108.317 94.3174C108.236 94.398 108.154 94.4802 108.073 94.5647L108.085 94.5762Z" fill="#E7A0F7"/>
<path d="M108.085 94.5762L108.328 94.3238L108.569 94.5553L108.348 94.8068L108.085 94.5762ZM96.5046 112.202L96.6303 112.529L96.6303 112.529L96.5046 112.202ZM82.2461 131.008L82.0037 131.26L82.0037 131.26L82.2461 131.008ZM83.1375 143.58L82.8951 143.832L82.8951 143.832L83.1375 143.58ZM107.052 126.309L106.738 126.154L107.052 126.309ZM120.194 105.426L119.941 105.184L119.942 105.183L120.194 105.426ZM139.86 91.6823L139.693 91.3745L139.86 91.6823ZM156.255 67.4307L156.497 67.1782L156.497 67.1782L156.255 67.4307ZM143.691 67.0144L143.449 67.2669L143.449 67.2668L143.691 67.0144ZM125.576 81.923L125.908 82.0345L125.908 82.0345L125.576 81.923ZM108.524 94.1177L108.765 94.3716L108.523 94.6015L108.282 94.3702L108.524 94.1177ZM108.514 94.1075L108.261 93.8651L108.503 93.6127L108.756 93.8551L108.514 94.1075ZM108.317 94.3174L108.575 94.5545L108.569 94.5604L108.564 94.566L108.317 94.3174ZM108.073 94.5647L107.831 94.8172L107.578 94.5748L107.821 94.3223L108.073 94.5647ZM108.085 94.5762L108.348 94.8068C105.561 97.991 105.458 101.197 104.643 104.329C104.238 105.885 103.655 107.399 102.448 108.797C101.242 110.194 99.4371 111.449 96.6303 112.529L96.5046 112.202L96.379 111.875C99.1106 110.824 100.807 109.627 101.918 108.34C103.027 107.055 103.575 105.654 103.965 104.153C104.742 101.17 104.891 97.6938 107.822 94.3457L108.085 94.5762ZM96.5046 112.202L96.6303 112.529C91.007 114.692 86.2405 118.151 83.5105 121.644C82.1447 123.391 81.3065 125.124 81.1027 126.689C80.901 128.238 81.3175 129.631 82.4886 130.755L82.2461 131.008L82.0037 131.26C80.6581 129.968 80.1808 128.347 80.4086 126.599C80.6342 124.866 81.5486 123.017 82.9589 121.213C85.7811 117.602 90.6605 114.075 96.379 111.875L96.5046 112.202ZM82.2461 131.008L82.4886 130.755C83.9057 132.116 84.4258 133.379 84.4198 134.591C84.4138 135.778 83.9 136.856 83.3952 137.832C82.8745 138.838 82.375 139.719 82.2492 140.612C82.1304 141.455 82.3463 142.335 83.3799 143.327L83.1375 143.58L82.8951 143.832C81.7193 142.703 81.4022 141.607 81.556 140.515C81.7028 139.473 82.2815 138.46 82.7735 137.51C83.2814 136.529 83.7148 135.587 83.7198 134.588C83.7246 133.613 83.3193 132.523 82.0037 131.26L82.2461 131.008ZM83.1375 143.58L83.3799 143.327C84.3714 144.279 85.873 144.571 87.7473 144.207C89.6199 143.843 91.81 142.831 94.0883 141.259C98.6421 138.116 103.477 132.784 106.738 126.154L107.052 126.309L107.366 126.463C104.054 133.197 99.1414 138.622 94.4858 141.835C92.1594 143.44 89.8794 144.506 87.8808 144.894C85.8839 145.282 84.1131 145.002 82.8951 143.832L83.1375 143.58ZM107.052 126.309L106.738 126.154C113.293 112.829 115.521 109.793 119.941 105.184L120.194 105.426L120.447 105.668C116.098 110.202 113.908 113.165 107.366 126.463L107.052 126.309ZM120.194 105.426L119.942 105.183C124.144 100.825 127.033 98.2252 139.693 91.3745L139.86 91.6823L140.026 91.9901C127.409 98.8176 124.584 101.377 120.446 105.669L120.194 105.426ZM139.86 91.6823L139.693 91.3745C146.158 87.8763 151.316 82.9135 154.306 78.3135C155.802 76.0121 156.742 73.8202 157.044 71.9627C157.346 70.1047 157.004 68.6347 156.013 67.6831L156.255 67.4307L156.497 67.1782C157.716 68.3482 158.057 70.0894 157.735 72.0749C157.412 74.0609 156.42 76.3451 154.893 78.695C151.837 83.3978 146.588 88.4391 140.026 91.9901L139.86 91.6823ZM156.255 67.4307L156.013 67.6831C154.978 66.69 154.092 66.5082 153.258 66.658C152.374 66.8168 151.519 67.347 150.539 67.9036C149.589 68.4431 148.537 68.9958 147.354 69.0463C146.147 69.0978 144.866 68.6271 143.449 67.2669L143.691 67.0144L143.934 66.7619C145.25 68.0255 146.354 68.3883 147.324 68.3469C148.319 68.3044 149.237 67.8376 150.193 67.2949C151.118 66.7692 152.102 66.1544 153.135 65.9691C154.216 65.7748 155.322 66.0498 156.497 67.1782L156.255 67.4307ZM143.691 67.0144L143.449 67.2668C142.277 66.1418 140.871 65.7793 139.337 66.0381C137.788 66.2996 136.099 67.1992 134.418 68.6248C131.057 71.4747 127.818 76.3519 125.908 82.0345L125.576 81.923L125.244 81.8114C127.187 76.0318 130.489 71.0381 133.965 68.091C135.702 66.6181 137.504 65.6376 139.221 65.3479C140.954 65.0554 142.589 65.4704 143.934 66.7619L143.691 67.0144ZM125.576 81.923L125.908 82.0345C124.954 84.871 123.783 86.7167 122.443 87.9708C121.102 89.226 119.619 89.8642 118.087 90.326C115.002 91.2557 111.815 91.478 108.765 94.3716L108.524 94.1177L108.283 93.8638C111.492 90.8196 114.949 90.5408 117.885 89.6558C119.363 89.2101 120.733 88.6126 121.965 87.4598C123.197 86.3058 124.316 84.5713 125.244 81.8114L125.576 81.923ZM108.524 94.1177L108.282 94.3702L108.271 94.36L108.514 94.1075L108.756 93.8551L108.766 93.8652L108.524 94.1177ZM108.514 94.1075L108.766 94.35C108.702 94.4166 108.639 94.4844 108.575 94.5545L108.317 94.3174L108.06 94.0802C108.124 94.0109 108.191 93.9378 108.261 93.8651L108.514 94.1075ZM108.317 94.3174L108.564 94.566C108.484 94.6454 108.404 94.7254 108.326 94.8072L108.073 94.5647L107.821 94.3223C107.905 94.235 107.988 94.1506 108.071 94.0687L108.317 94.3174ZM108.073 94.5647L108.316 94.3123L108.328 94.3238L108.085 94.5762L107.843 94.8287L107.831 94.8172L108.073 94.5647Z" fill="#101828"/>
<path opacity="0.12" d="M115.264 101.028C115.19 101.102 115.115 101.177 115.041 101.254L114.924 101.376L114.942 101.393C112.15 104.661 112.005 108.02 111.229 111.004C110.835 112.52 110.278 113.95 109.143 115.264C108.008 116.579 106.283 117.792 103.533 118.85C97.8388 121.041 92.9888 124.55 90.1906 128.13C88.7919 129.92 87.8963 131.738 87.6763 133.428C87.4554 135.125 87.9178 136.687 89.2183 137.936C90.56 139.224 90.9948 140.359 90.9896 141.395C90.985 142.293 90.6494 143.139 90.2347 143.979C91.5589 143.438 92.9596 142.665 94.3812 141.684C99.0104 138.489 103.903 133.088 107.202 126.381C113.264 114.059 115.599 110.592 119.379 106.53L120.156 105.707C122.283 103.497 124.032 101.759 126.844 99.7094C129.659 97.6578 133.543 95.2919 139.94 91.8302C146.477 88.2929 151.702 83.2715 154.741 78.5954C155.648 77.2007 156.36 75.8327 156.856 74.5417C156.071 74.9601 155.277 75.2978 154.422 75.3343C153.39 75.3783 152.241 74.9869 150.899 73.6985C149.599 72.45 148.022 72.0492 146.341 72.333C144.668 72.6155 142.895 73.575 141.172 75.0356C137.727 77.9576 134.441 82.9211 132.506 88.6756C131.572 91.4552 130.439 93.2185 129.179 94.3984C127.919 95.5776 126.518 96.1858 125.026 96.6355C122.088 97.5207 118.749 97.7911 115.615 100.693L115.597 100.675L115.48 100.797C115.406 100.874 115.334 100.951 115.264 101.028Z" fill="#101828"/>
<mask id="mask3_7492_1732" style="mask-type:alpha" maskUnits="userSpaceOnUse" x="80" y="65" width="92" height="92">
<path d="M143.884 66.8203C142.559 65.5483 140.95 65.1393 139.24 65.4277C137.543 65.7143 135.754 66.6861 134.023 68.1533C130.562 71.0891 127.266 76.0688 125.327 81.8369C124.396 84.6056 123.271 86.3539 122.026 87.5195C120.782 88.6841 119.398 89.2859 117.914 89.7334C115.019 90.6061 111.67 90.8865 108.534 93.749L108.512 93.7275L108.325 93.9219C108.258 93.992 108.192 94.0631 108.13 94.1309C108.049 94.2111 107.967 94.2938 107.886 94.3789L107.699 94.5723L107.724 94.5957C104.971 97.8639 104.816 101.231 104.051 104.173C103.658 105.681 103.106 107.095 101.985 108.394C100.864 109.693 99.1542 110.897 96.4141 111.951C90.7069 114.147 85.8407 117.666 83.0293 121.263C81.6242 123.06 80.7182 124.896 80.4951 126.609C80.2705 128.335 80.7412 129.929 82.0664 131.201C83.3935 132.476 83.8115 133.586 83.8066 134.588C83.8015 135.609 83.359 136.566 82.8516 137.547C82.3563 138.504 81.7869 139.502 81.6426 140.526C81.493 141.589 81.7982 142.661 82.957 143.773L83.1875 143.979C83.4834 144.222 83.8088 144.418 84.1592 144.57C99.322 158.331 121.07 160.586 138.385 151.56C145.374 152.075 152.531 149.587 157.764 144.138L159.521 142.309C164.662 136.954 166.87 129.86 166.188 123.011C175.079 105.03 171.932 82.6942 156.986 67.875C156.888 67.7299 156.78 67.5905 156.661 67.458L156.447 67.2373C155.288 66.1247 154.207 65.8607 153.154 66.0498C152.14 66.2322 151.171 66.837 150.239 67.3662C149.284 67.9085 148.35 68.3853 147.333 68.4287C146.335 68.4712 145.211 68.0949 143.884 66.8203Z" fill="#101828"/>
</mask>
<g mask="url(#mask3_7492_1732)">
<path opacity="0.17" d="M224.998 5.34961C224.587 5.34439 224.171 5.34082 223.75 5.34082H223.481V5.38379C208.226 5.82134 199.55 9.82828 191.292 12.3604C187.141 13.633 183.094 14.5346 178.352 14.4414C173.608 14.3482 168.152 13.2597 161.189 10.5303C148.198 5.43786 133.644 5.26731 123.461 7.89746C118.375 9.21105 114.338 11.2335 112.143 13.7295C111.041 14.9822 110.394 16.3652 110.327 17.8408C110.322 17.946 110.321 18.0515 110.322 18.1572V25.6211C110.323 48.4532 123.19 69.0997 143.943 84.0273C154.989 91.9721 168.274 98.3004 183.056 102.483C191.409 111.881 203.585 117.805 217.147 117.805H232.838C246.398 117.805 258.574 111.884 266.927 102.489C281.716 98.3063 295.007 91.9756 306.058 84.0273C326.811 69.0997 339.678 48.4532 339.679 25.6211V18.1572H339.674C339.675 18.0515 339.674 17.946 339.669 17.8408C339.602 16.3652 338.955 14.9822 337.854 13.7295C335.658 11.2335 331.621 9.21105 326.535 7.89746C316.352 5.26731 301.799 5.43786 288.807 10.5303C281.844 13.2597 276.388 14.3482 271.645 14.4414C266.902 14.5346 262.855 13.633 258.704 12.3604C250.446 9.82828 241.77 5.82135 226.515 5.38379V5.34082H226.246C225.825 5.34082 225.409 5.34439 224.998 5.34961Z" fill="black"/>
</g>
<path d="M233.558 112.615C233.644 166.456 237.638 288.115 252.928 344.022H207.473C222.762 288.115 226.757 166.456 226.843 112.615H233.558Z" fill="#01A47C" stroke="#101828" stroke-width="0.7"/>
<path opacity="0.3" fill-rule="evenodd" clip-rule="evenodd" d="M229.941 112.615C230.028 166.456 234.022 288.115 249.311 344.022H252.927C237.638 288.115 233.643 166.456 233.557 112.615H229.941Z" fill="#101828" stroke="#101828" stroke-width="0.7"/>
<path d="M179.062 70.2598H281.336C281.336 96.5049 260.06 117.781 233.815 117.781H226.584C200.338 117.781 179.062 96.5049 179.062 70.2598Z" fill="#01A47C" stroke="black" stroke-width="0.7"/>
<path opacity="0.3" fill-rule="evenodd" clip-rule="evenodd" d="M271.007 70.2598C271.007 95.9864 250.563 116.938 225.035 117.756C225.55 117.773 226.066 117.781 226.585 117.781H233.816C260.061 117.781 281.337 96.5049 281.337 70.2598H271.007Z" fill="#101828" stroke="#101828" stroke-width="0.7"/>
<path d="M120.18 13.8887H340.208V21.4306C340.208 69.0714 290.953 107.692 230.194 107.692C169.435 107.692 120.18 69.0714 120.18 21.4307V13.8887Z" fill="#EBCFF6" stroke="black" stroke-width="0.7"/>
<path opacity="0.08" fill-rule="evenodd" clip-rule="evenodd" d="M324.265 21.4306C324.265 66.9694 279.26 104.266 222.223 107.469C224.855 107.617 227.514 107.692 230.195 107.692C290.954 107.692 340.209 69.0714 340.209 21.4306V13.8887H324.265V21.4306Z" fill="black" stroke="black" stroke-width="0.7"/>
<path d="M231.394 0.491211C260.955 1.32513 264.777 17.3568 291.645 5.87598C316.525 -4.7556 347.4 5.16859 338.708 17.8955C330.015 30.6226 296.441 19.7815 276.057 30.623C256.984 40.7668 243.161 42.4502 231.394 42.625V42.6416C231.011 42.6416 230.627 42.6412 230.24 42.6387C229.822 42.6417 229.406 42.6426 228.993 42.6426V42.624C217.226 42.4492 203.402 40.7658 184.33 30.6221C163.946 19.7805 130.372 30.6216 121.679 17.8945C112.986 5.16762 143.862 -4.75658 168.742 5.875C195.61 17.3558 199.432 1.32416 228.993 0.490234V0.455078C229.378 0.455078 229.76 0.459866 230.137 0.464844C230.551 0.458828 230.97 0.454102 231.394 0.454102V0.491211Z" fill="#E7A0F7"/>
<path d="M231.394 0.491211H231.044V0.831477L231.384 0.841072L231.394 0.491211ZM291.645 5.87598L291.507 5.55413L291.645 5.87598ZM338.708 17.8955L338.997 18.0929V18.0929L338.708 17.8955ZM276.057 30.623L275.892 30.314L276.057 30.623ZM231.394 42.625L231.388 42.275L231.044 42.2802V42.625H231.394ZM231.394 42.6416V42.9916H231.744V42.6416H231.394ZM230.24 42.6387L230.243 42.2886L230.238 42.2887L230.24 42.6387ZM228.993 42.6426H228.643V42.9926H228.993V42.6426ZM228.993 42.624H229.343V42.2792L228.998 42.2741L228.993 42.624ZM184.33 30.6221L184.494 30.3131L184.33 30.6221ZM121.679 17.8945L121.39 18.0919L121.39 18.0919L121.679 17.8945ZM168.742 5.875L168.88 5.55315L168.742 5.875ZM228.993 0.490234L229.003 0.840095L229.343 0.8305V0.490234H228.993ZM228.993 0.455078V0.105078L228.643 0.105078V0.455078H228.993ZM230.137 0.464844L230.132 0.814948L230.142 0.814807L230.137 0.464844ZM231.394 0.454102L231.744 0.454102V0.104101L231.394 0.104102V0.454102ZM231.394 0.491211L231.384 0.841072C246.098 1.25615 254.375 5.44525 262.418 8.13356C266.442 9.47841 270.405 10.445 275.06 10.3453C279.714 10.2456 285.035 9.08088 291.782 6.19782L291.645 5.87598L291.507 5.55413C284.82 8.41147 279.588 9.54811 275.045 9.64542C270.503 9.7427 266.626 8.80186 262.64 7.46966C254.665 4.80388 246.251 0.560195 231.403 0.14135L231.394 0.491211ZM291.645 5.87598L291.782 6.19782C304.146 0.914643 318.003 0.741044 327.671 3.46321C332.512 4.82604 336.253 6.90057 338.248 9.37302C339.241 10.6036 339.795 11.9238 339.852 13.3035C339.909 14.6828 339.472 16.1569 338.419 17.6981L338.708 17.8955L338.997 18.0929C340.117 16.4524 340.616 14.8324 340.552 13.2745C340.487 11.7169 339.861 10.2569 338.793 8.93343C336.666 6.29789 332.763 4.16954 327.861 2.78941C318.045 0.025638 304.024 0.205731 291.507 5.55413L291.645 5.87598ZM338.708 17.8955L338.419 17.6981C336.322 20.768 332.703 22.4498 328.049 23.3857C323.396 24.3213 317.779 24.4984 311.76 24.6164C305.752 24.7342 299.353 24.7932 293.183 25.5026C287.012 26.2122 281.043 27.5747 275.892 30.314L276.057 30.623L276.221 30.9321C281.263 28.2506 287.134 26.9027 293.263 26.198C299.393 25.4933 305.752 25.4343 311.773 25.3163C317.782 25.1985 323.462 25.022 328.187 24.072C332.909 23.1223 336.747 21.3866 338.997 18.0929L338.708 17.8955ZM276.057 30.623L275.892 30.314C256.878 40.427 243.111 42.1009 231.388 42.275L231.394 42.625L231.399 42.975C243.211 42.7995 257.091 41.1066 276.221 30.9321L276.057 30.623ZM231.394 42.625H231.044V42.6416H231.394H231.744V42.625H231.394ZM231.394 42.6416V42.2916C231.011 42.2916 230.628 42.2912 230.243 42.2887L230.24 42.6387L230.238 42.9887C230.626 42.9912 231.011 42.9916 231.394 42.9916V42.6416ZM230.24 42.6387L230.238 42.2887C229.821 42.2917 229.406 42.2926 228.993 42.2926V42.6426V42.9926C229.407 42.9926 229.823 42.9917 230.243 42.9887L230.24 42.6387ZM228.993 42.6426H229.343V42.624H228.993H228.643V42.6426H228.993ZM228.993 42.624L228.998 42.2741C217.275 42.0999 203.509 40.426 184.494 30.3131L184.33 30.6221L184.166 30.9311C203.296 41.1057 217.176 42.7985 228.988 42.974L228.993 42.624ZM184.33 30.6221L184.494 30.3131C179.344 27.5737 173.375 26.2112 167.204 25.5017C161.033 24.7922 154.634 24.7332 148.627 24.6154C142.608 24.4974 136.991 24.3203 132.338 23.3847C127.683 22.4488 124.065 20.767 121.968 17.6971L121.679 17.8945L121.39 18.0919C123.639 21.3856 127.477 23.1213 132.2 24.071C136.924 25.021 142.605 25.1975 148.613 25.3153C154.634 25.4333 160.994 25.4923 167.124 26.1971C173.252 26.9017 179.124 28.2496 184.166 30.9311L184.33 30.6221ZM121.679 17.8945L121.968 17.6971C120.915 16.1559 120.477 14.6818 120.535 13.3025C120.592 11.9228 121.146 10.6026 122.139 9.37204C124.134 6.89959 127.875 4.82506 132.715 3.46223C142.384 0.740068 156.241 0.913666 168.605 6.19685L168.742 5.875L168.88 5.55315C156.363 0.204754 142.342 0.0246614 132.526 2.78843C127.624 4.16856 123.721 6.29691 121.594 8.93245C120.526 10.2559 119.9 11.7159 119.835 13.2735C119.77 14.8314 120.269 16.4515 121.39 18.0919L121.679 17.8945ZM168.742 5.875L168.605 6.19685C175.352 9.0799 180.673 10.2446 185.327 10.3443C189.982 10.444 193.945 9.47743 197.969 8.13258C206.011 5.44427 214.289 1.25517 229.003 0.840095L228.993 0.490234L228.983 0.140374C214.136 0.559219 205.722 4.8029 197.747 7.46869C193.761 8.80089 189.884 9.74172 185.342 9.64444C180.799 9.54714 175.567 8.4105 168.88 5.55315L168.742 5.875ZM228.993 0.490234H229.343V0.455078H228.993H228.643V0.490234H228.993ZM228.993 0.455078V0.805078C229.376 0.805078 229.755 0.809833 230.132 0.814813L230.137 0.464844L230.141 0.114874C229.764 0.109898 229.381 0.105078 228.993 0.105078V0.455078ZM230.137 0.464844L230.142 0.814807C230.555 0.8088 230.972 0.804102 231.394 0.804102V0.454102V0.104102C230.967 0.104102 230.546 0.108855 230.132 0.114881L230.137 0.464844ZM231.394 0.454102H231.044V0.491211H231.394L231.744 0.491211V0.454102L231.394 0.454102Z" fill="black"/>
<path opacity="0.09" d="M230.195 13.9551C230.589 13.9496 230.989 13.9453 231.394 13.9453H231.654V13.9922C246.329 14.4507 254.675 18.652 262.614 21.3057C266.605 22.6395 270.493 23.5838 275.05 23.4863C279.607 23.3888 284.851 22.2484 291.546 19.3877C304.043 14.0477 318.044 13.8685 327.841 16.627C331.323 17.6074 334.293 18.9651 336.477 20.6084C334.299 22.2827 331.454 23.3239 328.17 23.9844C323.455 24.9325 317.782 25.1087 311.771 25.2266C305.753 25.3446 299.388 25.404 293.253 26.1094C287.119 26.8146 281.235 28.1639 276.18 30.8525C257.202 40.9459 243.399 42.6838 231.653 42.8799V42.9033H231.394C230.995 42.9033 230.595 42.9012 230.193 42.8984C229.792 42.9012 229.392 42.9033 228.994 42.9033H228.733V42.8799C216.988 42.6838 203.185 40.9457 184.208 30.8525C179.152 28.1638 173.268 26.8146 167.134 26.1094C160.999 25.4041 154.634 25.3446 148.615 25.2266C142.605 25.1087 136.933 24.9325 132.218 23.9844C128.933 23.3239 126.088 22.2835 123.91 20.6094C126.094 18.9652 129.066 17.6079 132.55 16.627C142.347 13.8685 156.348 14.0476 168.845 19.3877C175.539 22.2483 180.783 23.3887 185.34 23.4863C189.896 23.5838 193.786 22.6396 197.776 21.3057C205.715 18.652 214.062 14.4507 228.736 13.9922V13.9453H228.997C229.402 13.9453 229.801 13.9496 230.195 13.9551Z" fill="black"/>
<path opacity="0.15" fill-rule="evenodd" clip-rule="evenodd" d="M411.949 95.1055C411.962 95.1067 411.976 95.108 411.989 95.1093L412.033 95.1138C412.05 95.1156 412.067 95.1175 412.083 95.1194L412.112 95.1227L412.125 95.1243C412.095 95.1207 412.064 95.1171 412.033 95.1138C412.009 95.1113 411.986 95.1089 411.962 95.1067L411.949 95.1055Z" fill="#101828"/>
<path d="M102.099 5.17578L101.945 11.7354C101.643 24.581 112.136 35.0735 124.981 34.7721L131.541 34.6182L124.981 34.4643C112.136 34.1629 101.643 44.6554 101.945 57.501L102.099 64.0606L102.253 57.501C102.554 44.6554 92.0614 34.1629 79.2159 34.4643L72.6562 34.6182L79.2159 34.7721C92.0614 35.0735 102.554 24.581 102.253 11.7354L102.099 5.17578Z" fill="white" stroke="#101828" stroke-width="0.7"/>
<mask id="path-56-inside-1_7492_1732" fill="white">
<path d="M386.608 73.0586C391.326 67.7364 398.302 65.8121 403.539 68.8359C409.732 72.4118 411.149 81.5529 406.704 89.2529C402.258 96.9531 393.633 100.297 387.439 96.7207C385.732 95.735 384.388 94.3263 383.43 92.6416C379.883 95.3263 375.495 96.0225 372.048 94.0322C367.101 91.1763 365.97 83.8763 369.521 77.7266C373.071 71.5767 379.96 68.9058 384.906 71.7617C385.536 72.1255 386.104 72.5621 386.608 73.0586Z"/>
</mask>
<path d="M386.608 73.0586C391.326 67.7364 398.302 65.8121 403.539 68.8359C409.732 72.4118 411.149 81.5529 406.704 89.2529C402.258 96.9531 393.633 100.297 387.439 96.7207C385.732 95.735 384.388 94.3263 383.43 92.6416C379.883 95.3263 375.495 96.0225 372.048 94.0322C367.101 91.1763 365.97 83.8763 369.521 77.7266C373.071 71.5767 379.96 68.9058 384.906 71.7617C385.536 72.1255 386.104 72.5621 386.608 73.0586Z" fill="white"/>
<path d="M386.608 73.0586L386.117 73.5575L386.643 74.0748L387.132 73.5229L386.608 73.0586ZM403.539 68.8359L403.889 68.2297L403.889 68.2297L403.539 68.8359ZM406.704 89.2529L407.31 89.6029L407.31 89.6029L406.704 89.2529ZM387.439 96.7207L387.089 97.3269L387.089 97.3269L387.439 96.7207ZM383.43 92.6416L384.038 92.2954L383.643 91.6018L383.007 92.0835L383.43 92.6416ZM372.048 94.0322L371.698 94.6384L371.698 94.6384L372.048 94.0322ZM369.521 77.7266L368.914 77.3766L368.914 77.3766L369.521 77.7266ZM384.906 71.7617L385.256 71.1555L385.256 71.1555L384.906 71.7617ZM386.608 73.0586L387.132 73.5229C391.705 68.3634 398.329 66.6361 403.189 69.4422L403.539 68.8359L403.889 68.2297C398.274 64.9881 390.946 67.1094 386.085 72.5943L386.608 73.0586ZM403.539 68.8359L403.189 69.4422C408.931 72.7574 410.425 81.4078 406.098 88.9029L406.704 89.2529L407.31 89.6029C411.874 81.698 410.534 72.0662 403.889 68.2297L403.539 68.8359ZM406.704 89.2529L406.098 88.9029C401.77 96.3982 393.532 99.4298 387.789 96.1145L387.439 96.7207L387.089 97.3269C393.734 101.163 402.746 97.508 407.31 89.6029L406.704 89.2529ZM387.439 96.7207L387.789 96.1145C386.197 95.1953 384.94 93.8799 384.038 92.2954L383.43 92.6416L382.821 92.9878C383.837 94.7727 385.267 96.2746 387.089 97.3269L387.439 96.7207ZM383.43 92.6416L383.007 92.0835C379.62 94.6476 375.538 95.2387 372.398 93.426L372.048 94.0322L371.698 94.6384C375.453 96.8062 380.146 96.005 383.852 93.1997L383.43 92.6416ZM372.048 94.0322L372.398 93.426C367.903 90.8307 366.695 84.0214 370.127 78.0766L369.521 77.7266L368.914 77.3766C365.246 83.7312 366.3 91.5219 371.698 94.6384L372.048 94.0322ZM369.521 77.7266L370.127 78.0766C373.559 72.1316 380.061 69.7726 384.556 72.3679L384.906 71.7617L385.256 71.1555C379.858 68.039 372.583 71.0219 368.914 77.3766L369.521 77.7266ZM384.906 71.7617L384.556 72.3679C385.134 72.7013 385.654 73.1015 386.117 73.5575L386.608 73.0586L387.099 72.5597C386.554 72.0228 385.939 71.5498 385.256 71.1555L384.906 71.7617Z" fill="black" mask="url(#path-56-inside-1_7492_1732)"/>
<path opacity="0.15" fill-rule="evenodd" clip-rule="evenodd" d="M404.305 69.3838C406.418 73.7711 406.133 79.7534 403.099 85.0543C398.682 92.77 388.968 97.945 383.962 92.5372C382.841 91.2349 382.491 89.4691 382.841 88.0565C379.318 90.7445 372.099 91.8371 368.676 89.8433C368.604 89.8012 368.532 89.7578 368.461 89.7136C369.217 91.5512 370.468 93.0856 372.177 94.0813C375.601 96.075 379.96 95.3804 383.483 92.6924C384.435 94.3782 385.768 95.7884 387.463 96.7751C393.616 100.358 402.184 97.0079 406.6 89.2922C410.806 81.9445 409.73 73.2879 404.305 69.3838Z" fill="#101828"/>
<path d="M43.3096 63.7314C49.5658 56.6758 58.8149 54.1253 65.7598 58.1348C68.5251 59.7313 70.5713 62.1651 71.8457 65.0801C74.9298 63.6608 78.2921 63.5805 81.0654 65.1816C86.184 68.137 87.3548 75.6919 83.6807 82.0557C80.0348 88.3704 72.9886 91.1392 67.8789 88.2939C61.6438 96.2699 51.7416 99.3511 44.4082 95.1172C42.1461 93.8111 40.3659 91.9444 39.0947 89.7129C34.3921 93.2708 28.5724 94.1903 24.002 91.5518C17.4416 87.7641 15.9405 78.081 20.6494 69.9248C25.3584 61.7689 34.4944 58.228 41.0547 62.0156C41.8889 62.4973 42.6413 63.0744 43.3096 63.7314Z" fill="white"/>
<path d="M43.3096 63.7314L43.0642 63.981L43.327 64.2394L43.5714 63.9637L43.3096 63.7314ZM65.7598 58.1348L65.9348 57.8317L65.9348 57.8317L65.7598 58.1348ZM71.8457 65.0801L71.525 65.2203L71.6679 65.5472L71.992 65.398L71.8457 65.0801ZM81.0654 65.1816L81.2404 64.8785L81.2404 64.8785L81.0654 65.1816ZM83.6807 82.0557L83.9838 82.2307L83.6807 82.0557ZM67.8789 88.2939L68.0492 87.9882L67.7876 87.8425L67.6032 88.0784L67.8789 88.2939ZM44.4082 95.1172L44.2332 95.4203H44.2332L44.4082 95.1172ZM39.0947 89.7129L39.3988 89.5396L39.2015 89.1932L38.8836 89.4338L39.0947 89.7129ZM24.002 91.5518L23.827 91.8549L23.827 91.8549L24.002 91.5518ZM20.6494 69.9248L20.3463 69.7498L20.3463 69.7498L20.6494 69.9248ZM41.0547 62.0156L41.2297 61.7125L41.2297 61.7125L41.0547 62.0156ZM43.3096 63.7314L43.5714 63.9637C49.7555 56.9893 58.8285 54.5373 65.5848 58.4379L65.7598 58.1348L65.9348 57.8317C58.8013 53.7133 49.376 56.3623 43.0477 63.4992L43.3096 63.7314ZM65.7598 58.1348L65.5848 58.4379C68.279 59.9934 70.2774 62.3667 71.525 65.2203L71.8457 65.0801L72.1664 64.9399C70.8651 61.9635 68.7712 59.4693 65.9348 57.8317L65.7598 58.1348ZM71.8457 65.0801L71.992 65.398C74.9951 64.0161 78.2348 63.9515 80.8904 65.4847L81.0654 65.1816L81.2404 64.8785C78.3494 63.2094 74.8645 63.3056 71.6994 64.7621L71.8457 65.0801ZM81.0654 65.1816L80.8904 65.4847C85.7833 68.3097 86.9925 75.6194 83.3776 81.8807L83.6807 82.0557L83.9838 82.2307C87.717 75.7645 86.5847 67.9642 81.2404 64.8785L81.0654 65.1816ZM83.6807 82.0557L83.3776 81.8807C79.7908 88.0931 72.9346 90.7085 68.0492 87.9882L67.8789 88.2939L67.7086 88.5997C73.0426 91.5698 80.2789 88.6478 83.9838 82.2307L83.6807 82.0557ZM67.8789 88.2939L67.6032 88.0784C61.4367 95.9665 51.7167 98.9326 44.5832 94.8141L44.4082 95.1172L44.2332 95.4203C51.7665 99.7696 61.8509 96.5732 68.1546 88.5095L67.8789 88.2939ZM44.4082 95.1172L44.5832 94.8141C42.3788 93.5413 40.6415 91.7212 39.3988 89.5396L39.0947 89.7129L38.7906 89.8861C40.0902 92.1676 41.9134 94.0809 44.2332 95.4203L44.4082 95.1172ZM39.0947 89.7129L38.8836 89.4338C34.2607 92.9313 28.5938 93.7986 24.1769 91.2486L24.002 91.5518L23.827 91.8549C28.551 94.5821 34.5235 93.6102 39.3059 89.992L39.0947 89.7129ZM24.002 91.5518L24.177 91.2486C17.8422 87.5913 16.3027 78.1535 20.9525 70.0998L20.6494 69.9248L20.3463 69.7498C15.5782 78.0084 17.0409 87.9369 23.827 91.8549L24.002 91.5518ZM20.6494 69.9248L20.9525 70.0998C25.6024 62.0464 34.545 58.6614 40.8797 62.3187L41.0547 62.0156L41.2297 61.7125C34.4437 57.7946 25.1145 61.4914 20.3463 69.7498L20.6494 69.9248ZM41.0547 62.0156L40.8797 62.3187C41.6879 62.7854 42.4167 63.3443 43.0642 63.981L43.3096 63.7314L43.555 63.4819C42.866 62.8044 42.09 62.2093 41.2297 61.7125L41.0547 62.0156Z" fill="black"/>
<path d="M69.9576 85.2126C64.0616 95.4249 52.6229 99.8591 44.4086 95.1166C40.4827 92.85 38.0039 88.8974 37.1293 84.2733" stroke="black" stroke-width="0.7"/>
<path opacity="0.15" fill-rule="evenodd" clip-rule="evenodd" d="M20.6604 87.78C20.221 87.5262 19.8042 87.2467 19.4102 86.9436C20.4475 88.9132 21.96 90.5604 23.9209 91.6926C28.5144 94.3446 34.3307 93.4477 39.0446 89.9538C39.7601 91.1765 40.6298 92.288 41.6492 93.2563L41.6708 93.277L41.8135 93.4101L41.8565 93.4496C41.9004 93.4897 41.9445 93.5295 41.9889 93.569L42.0354 93.6101L42.1465 93.7072L42.2175 93.768C42.3064 93.8438 42.3963 93.9183 42.4872 93.9921C42.6722 94.1421 42.8614 94.2876 43.0546 94.429L43.0785 94.4465L43.2126 94.5427L43.2584 94.5752L43.3807 94.6602L43.4491 94.707L43.5784 94.7936L43.6268 94.8254L43.6723 94.855C43.7026 94.8751 43.7328 94.8952 43.7634 94.9146L43.8026 94.9394C43.9747 95.0489 44.1493 95.1553 44.3273 95.2581C44.3931 95.296 44.459 95.3333 44.525 95.3699C44.587 95.4043 44.6491 95.438 44.7113 95.4715L44.7323 95.4829C44.8479 95.5447 44.9643 95.6046 45.081 95.6632L45.1297 95.6874C45.2485 95.7459 45.3677 95.8029 45.4876 95.8583L45.5312 95.8784C45.7902 95.9965 46.0517 96.1067 46.3155 96.2086L46.3677 96.2283L46.5196 96.2853L46.5673 96.3028L46.7316 96.3614L46.7552 96.3697L46.9319 96.4299L47.1258 96.4929L47.1822 96.5108L47.2993 96.5467L47.3831 96.5722L47.5402 96.6181L47.7263 96.6696L47.8868 96.712L47.9756 96.7349C48.003 96.7419 48.0304 96.7483 48.0578 96.7547L48.1122 96.768L48.1508 96.7776L48.2832 96.8081L48.3845 96.8311L48.4797 96.8514L48.5746 96.8715L48.6803 96.8932L48.7646 96.9094C49.1194 96.9779 49.4766 97.0333 49.8361 97.0759L49.8778 97.0807C56.1837 97.8086 63.122 94.5767 67.9236 88.5022C73.1263 91.2936 80.178 88.4496 83.8226 82.1372C87.3955 75.9489 86.4453 68.5889 81.6778 65.3721C83.3456 69.0245 83.0535 73.9095 80.5621 78.2246C78.1991 82.3174 73.4971 85.904 69.7476 85.2519C64.946 91.3264 52.9232 93.896 46.6173 93.1681L46.5756 93.1633C46.2161 93.1207 45.8589 93.0653 45.5041 92.9968L45.4198 92.9806L45.3141 92.9589L45.2192 92.9389L45.124 92.9185L45.0227 92.8956L44.8903 92.865L44.8517 92.8554C44.8062 92.8443 44.7607 92.8338 44.7151 92.8223L44.6263 92.7994L44.4658 92.757L44.3112 92.7141L44.1226 92.6596L44.0388 92.6341L43.9217 92.5982L43.8653 92.5803C43.7949 92.558 43.7247 92.5351 43.6547 92.5116L43.4947 92.4571L43.4711 92.4488L43.3068 92.3902L43.2591 92.3727L43.1072 92.3157L43.055 92.296C42.9227 92.245 42.791 92.1919 42.66 92.1368C42.5296 92.0817 42.3998 92.0247 42.2707 91.9658L42.2271 91.9457C42.1072 91.8903 41.988 91.8333 41.8692 91.7748L41.8205 91.7506C41.7038 91.692 41.5874 91.6321 41.4718 91.5703L41.4508 91.5589C41.3222 91.4898 41.194 91.4188 41.0668 91.3455C40.8888 91.2427 40.7142 91.1363 40.5421 91.0268L40.5029 91.002C40.4724 90.9826 40.4421 90.9625 40.4119 90.9424L40.3663 90.9128L40.3179 90.881L40.1887 90.7944L40.1202 90.7476L39.9979 90.6626L39.9521 90.6301L39.818 90.5339L39.7941 90.5164C39.6009 90.375 39.4117 90.2295 39.2267 90.0796C39.1358 90.0057 39.0459 89.9312 38.957 89.8554L39.1147 89.6287L39.0035 89.5316L38.957 89.4905C38.9126 89.451 38.8685 89.4112 38.8246 89.3711L38.7816 89.3316L38.639 89.1985L38.6173 89.1778C38.2838 88.1863 38.0238 86.7283 37.3083 85.5056C32.5945 88.9995 25.2539 90.432 20.6604 87.78Z" fill="#101828"/>
<defs>
<radialGradient id="paint0_radial_7492_1732" cx="0" cy="0" r="1" gradientUnits="userSpaceOnUse" gradientTransform="translate(58.1429 173.309) rotate(25.4337) scale(128.693 73.9336)">
<stop offset="0.0480769" stop-color="#B0E4F2"/>
<stop offset="0.490385" stop-color="#89DDC8"/>
<stop offset="1" stop-color="#00A47B"/>
</radialGradient>
</defs>
</svg>
