<svg width="89" height="89" viewBox="0 0 89 89" fill="none" xmlns="http://www.w3.org/2000/svg">
<g clip-path="url(#clip0_10155_6506)">
<circle cx="44.3058" cy="43.5152" r="32.7144" stroke="#101828" stroke-width="0.551738"/>
<path d="M44.1172 81.6365C48.3764 74.2544 57.5252 69.3622 64.5508 70.7097C69.6336 71.6849 72.2109 75.6591 71.6357 80.5779C74.2556 78.9172 77.0888 78.1077 79.4541 78.5613C82.4108 79.1284 83.9031 81.5275 83.6992 84.657L42.7227 84.657C43.0671 83.6654 43.5303 82.6538 44.1172 81.6365Z" fill="#2DA17D"/>
<path d="M44.1172 81.6365L43.8782 81.4986L43.8782 81.4986L44.1172 81.6365ZM64.5508 70.7097L64.6028 70.4388L64.6027 70.4388L64.5508 70.7097ZM71.6357 80.5779L71.3617 80.5458L71.2945 81.1208L71.7834 80.8109L71.6357 80.5779ZM79.4541 78.5613L79.5061 78.2904L79.5061 78.2903L79.4541 78.5613ZM83.6992 84.657L83.6992 84.9329L83.9577 84.9329L83.9745 84.6749L83.6992 84.657ZM42.7227 84.657L42.4621 84.5665L42.3348 84.9329L42.7227 84.9329L42.7227 84.657ZM44.1172 81.6365L44.3561 81.7743C46.4575 78.1323 49.7696 75.0984 53.4267 73.1428C57.0862 71.1859 61.0651 70.3221 64.4988 70.9806L64.5508 70.7097L64.6027 70.4388C61.0109 69.7499 56.9025 70.6584 53.1665 72.6562C49.428 74.6554 46.0361 77.7585 43.8782 81.4986L44.1172 81.6365ZM64.5508 70.7097L64.4988 70.9806C66.9781 71.4563 68.8268 72.6582 69.9888 74.3228C71.152 75.9892 71.6428 78.1423 71.3617 80.5458L71.6357 80.5779L71.9097 80.6099C72.2039 78.0947 71.6936 75.8012 70.4412 74.007C69.1876 72.2111 67.2063 70.9383 64.6028 70.4388L64.5508 70.7097ZM71.6357 80.5779L71.7834 80.8109C74.3701 79.1712 77.1311 78.3967 79.4021 78.8322L79.4541 78.5613L79.5061 78.2903C77.0466 77.8187 74.1412 78.6631 71.488 80.3449L71.6357 80.5779ZM79.4541 78.5613L79.4021 78.8322C80.814 79.103 81.8602 79.8061 82.5333 80.8027C83.209 81.8031 83.5228 83.1211 83.4239 84.6391L83.6992 84.657L83.9745 84.6749C84.0795 83.0634 83.7491 81.6171 82.9905 80.4939C82.2292 79.3667 81.0509 78.5867 79.5061 78.2904L79.4541 78.5613ZM83.6992 84.657L83.6992 84.3811L42.7227 84.3811L42.7227 84.657L42.7227 84.9329L83.6992 84.9329L83.6992 84.657ZM42.7227 84.657L42.9832 84.7475C43.3217 83.7734 43.7774 82.7775 44.3561 81.7743L44.1172 81.6365L43.8782 81.4986C43.2832 82.53 42.8126 83.5575 42.4621 84.5665L42.7227 84.657Z" fill="black"/>
<mask id="mask0_10155_6506" style="mask-type:alpha" maskUnits="userSpaceOnUse" x="42" y="70" width="42" height="15">
<path d="M44.1172 81.6366C48.3764 74.2545 57.5252 69.3624 64.5508 70.7098C69.6336 71.685 72.2109 75.6592 71.6357 80.578C74.2556 78.9173 77.0888 78.1079 79.4541 78.5614C82.4108 79.1285 83.9031 81.5276 83.6992 84.6571L42.7227 84.6571C43.0671 83.6656 43.5303 82.6539 44.1172 81.6366Z" fill="#2DA17D"/>
<path d="M44.1172 81.6366L43.8782 81.4987L43.8782 81.4987L44.1172 81.6366ZM64.5508 70.7098L64.6028 70.4389L64.6027 70.4389L64.5508 70.7098ZM71.6357 80.578L71.3617 80.546L71.2945 81.1209L71.7834 80.811L71.6357 80.578ZM79.4541 78.5614L79.5061 78.2905L79.5061 78.2905L79.4541 78.5614ZM83.6992 84.6571L83.6992 84.933L83.9577 84.933L83.9745 84.675L83.6992 84.6571ZM42.7227 84.6571L42.4621 84.5666L42.3348 84.933L42.7227 84.933L42.7227 84.6571ZM44.1172 81.6366L44.3561 81.7745C46.4575 78.1325 49.7696 75.0985 53.4267 73.1429C57.0862 71.186 61.0651 70.3222 64.4988 70.9808L64.5508 70.7098L64.6027 70.4389C61.0109 69.75 56.9025 70.6586 53.1665 72.6564C49.428 74.6555 46.0361 77.7587 43.8782 81.4987L44.1172 81.6366ZM64.5508 70.7098L64.4988 70.9808C66.9781 71.4564 68.8268 72.6583 69.9888 74.323C71.152 75.9893 71.6428 78.1424 71.3617 80.546L71.6357 80.578L71.9097 80.61C72.2039 78.0948 71.6936 75.8014 70.4412 74.0072C69.1876 72.2112 67.2063 70.9384 64.6028 70.4389L64.5508 70.7098ZM71.6357 80.578L71.7834 80.811C74.3701 79.1713 77.1311 78.3969 79.4021 78.8323L79.4541 78.5614L79.5061 78.2905C77.0466 77.8189 74.1412 78.6632 71.488 80.345L71.6357 80.578ZM79.4541 78.5614L79.4021 78.8323C80.814 79.1031 81.8602 79.8062 82.5333 80.8028C83.209 81.8033 83.5228 83.1212 83.4239 84.6392L83.6992 84.6571L83.9745 84.675C84.0795 83.0635 83.7491 81.6172 82.9905 80.494C82.2292 79.3668 81.0509 78.5868 79.5061 78.2905L79.4541 78.5614ZM83.6992 84.6571L83.6992 84.3812L42.7227 84.3812L42.7227 84.6571L42.7227 84.933L83.6992 84.933L83.6992 84.6571ZM42.7227 84.6571L42.9832 84.7476C43.3217 83.7735 43.7774 82.7777 44.3561 81.7745L44.1172 81.6366L43.8782 81.4987C43.2832 82.5302 42.8126 83.5576 42.4621 84.5666L42.7227 84.6571Z" fill="black"/>
</mask>
<g mask="url(#mask0_10155_6506)">
<path opacity="0.3" d="M46.876 23.3698C58.6672 23.0423 68.3301 32.5038 68.3301 44.2213C68.33 49.251 66.5483 53.8655 63.583 57.4674C61.3217 60.2144 59.8208 63.4804 59.1777 66.941C58.9968 67.9148 58.335 68.693 57.4678 69.0602V76.069C57.4676 77.4868 56.4399 78.6608 55.0898 78.8971V79.4811C55.0898 81.3946 53.5385 82.9459 51.625 82.9459H43.3154C41.4021 82.9455 39.8516 81.3942 39.8516 79.4811V78.899C38.5008 78.663 37.4739 77.4871 37.4736 76.069V69.0602C36.6056 68.6934 35.9427 67.9156 35.7617 66.941C35.1193 63.4814 33.6204 60.2157 31.3594 57.4703C28.3553 53.8228 26.5651 49.1365 26.6104 44.0319C26.7014 33.7737 34.2927 25.1995 44.1787 23.6227V23.6217C44.2174 23.6155 44.2617 23.6094 44.2959 23.6041C44.3397 23.5974 44.3838 23.5901 44.4277 23.5836L44.4678 23.5797C44.4745 23.5791 44.4786 23.579 44.4814 23.5787V23.5778C45.266 23.4643 46.0649 23.3923 46.876 23.3698ZM40.4287 79.4811C40.4287 81.0754 41.7212 82.3684 43.3154 82.3688H43.3174C41.7228 82.3688 40.4297 81.0756 40.4297 79.4811V78.944H40.4287V79.4811ZM54.2852 80.6051C54.312 80.5417 54.3341 80.4764 54.3564 80.4108C54.3341 80.4764 54.312 80.5417 54.2852 80.6051Z" fill="#101828"/>
</g>
<path d="M45.8971 77.8991V69.7722H37.2656V77.8991C37.2656 79.4936 38.5582 80.7862 40.1528 80.7862H43.5645C44.8251 80.3916 45.8971 79.2001 45.8971 77.8991Z" fill="#84B8FA"/>
<path d="M47.5148 74.4862C47.5148 75.9149 46.3567 77.0731 44.9279 77.0731H44.8481V77.8992C44.8481 79.4937 43.5555 80.7863 41.9609 80.7863H48.4583C50.0529 80.7863 51.3455 79.4937 51.3455 77.8992V69.7723H47.5147L47.5148 74.4862Z" fill="#669CE2"/>
<mask id="path-9-outside-1_10155_6506" maskUnits="userSpaceOnUse" x="36.2617" y="68.772" width="16" height="13" fill="black">
<rect fill="white" x="36.2617" y="68.772" width="16" height="13"/>
<path d="M45.8936 69.772V76.8843C46.8435 76.5014 47.5146 75.5729 47.5146 74.4858V69.772H51.3457V77.8989C51.3457 79.4935 50.0526 80.7866 48.458 80.7866H40.1484C38.5541 80.7864 37.2617 79.4933 37.2617 77.8989V69.772H45.8936Z"/>
</mask>
<path d="M45.8936 69.772H46.4453V69.2202H45.8936V69.772ZM45.8936 76.8843H45.3418V77.7015L46.0998 77.396L45.8936 76.8843ZM47.5146 69.772V69.2202H46.9629V69.772H47.5146ZM51.3457 69.772H51.8974V69.2202H51.3457V69.772ZM40.1484 80.7866L40.1484 81.3384H40.1484V80.7866ZM37.2617 69.772V69.2202H36.71V69.772H37.2617ZM45.8936 69.772H45.3418V76.8843H45.8936H46.4453V69.772H45.8936ZM45.8936 76.8843L46.0998 77.396C47.2507 76.9322 48.0664 75.8063 48.0664 74.4858H47.5146H46.9629C46.9629 75.3394 46.4363 76.0706 45.6873 76.3725L45.8936 76.8843ZM47.5146 74.4858H48.0664V69.772H47.5146H46.9629V74.4858H47.5146ZM47.5146 69.772V70.3237H51.3457V69.772V69.2202H47.5146V69.772ZM51.3457 69.772H50.794V77.8989H51.3457H51.8974V69.772H51.3457ZM51.3457 77.8989H50.794C50.794 79.1888 49.7479 80.2349 48.458 80.2349V80.7866V81.3384C50.3573 81.3384 51.8974 79.7982 51.8974 77.8989H51.3457ZM48.458 80.7866V80.2349H40.1484V80.7866V81.3384H48.458V80.7866ZM40.1484 80.7866L40.1485 80.2349C38.859 80.2347 37.8135 79.1888 37.8135 77.8989H37.2617H36.71C36.71 79.7979 38.2492 81.3381 40.1484 81.3384L40.1484 80.7866ZM37.2617 77.8989H37.8135V69.772H37.2617H36.71V77.8989H37.2617ZM37.2617 69.772V70.3237H45.8936V69.772V69.2202H37.2617V69.772Z" fill="#101828" mask="url(#path-9-outside-1_10155_6506)"/>
<path d="M34.5977 74.4862C34.5977 75.9149 35.7558 77.0731 37.1845 77.0731H45.8957H45.9756C47.4043 77.0731 48.5625 75.9149 48.5625 74.4862V69.7722V61.8881H34.5977V74.4862Z" fill="#DCEBFF"/>
<path d="M48.5615 67.2802C49.4284 66.9859 50.102 66.247 50.2768 65.3063C50.4546 64.3498 50.7184 63.3298 51.0521 62.3458C51.0581 62.3281 51.0639 62.3103 51.07 62.2927C51.8852 59.91 53.1197 57.6733 54.7434 55.701C57.6677 52.1488 59.4239 47.599 59.4239 42.6386C59.4239 32.6654 51.7244 24.2022 42.2719 22.3115C41.9534 22.2478 41.6266 22.2399 41.3052 22.2871C31.4366 23.7379 23.8256 32.2522 23.7352 42.4524C23.6906 47.4868 25.4551 52.1073 28.4177 55.7044C30.7105 58.4883 32.2304 61.799 32.8816 65.3059C33.1093 66.5326 34.1843 67.4195 35.432 67.4195H48.5614L48.5615 67.2802Z" fill="#FFF4D9"/>
<path d="M49.228 65.3063C49.0532 66.247 48.3796 66.9859 47.5127 67.2802V74.4862C47.5127 75.9149 46.3545 77.0731 44.9258 77.0731H51.4232C52.8519 77.0731 54.0101 75.9149 54.0101 74.4862V61.8882H50.1641C49.7591 62.9981 49.4446 64.1409 49.228 65.3063Z" fill="#B0D3FF"/>
<path d="M43.718 22.0763C42.8158 22.1014 41.9284 22.1861 41.0586 22.3249C50.8739 23.884 58.377 32.3847 58.377 42.6387C58.377 47.5991 56.6208 52.1488 53.6965 55.7011C51.4033 58.4868 49.8819 61.7983 49.23 65.3063C49.0553 66.247 48.3816 66.9859 47.5147 67.2802V67.4195H53.1771C54.4247 67.4195 55.4996 66.5329 55.7275 65.3063C56.3793 61.7981 57.9008 58.4867 60.1939 55.7011C63.1183 52.1489 64.8744 47.5991 64.8744 42.6387C64.8744 31.0833 55.3464 21.7532 43.718 22.0763Z" fill="#F8DA92"/>
<path d="M45.9756 77.0731C47.4043 77.0731 48.5625 75.9149 48.5625 74.4862V72.1694H34.5977V74.4862C34.5977 75.9149 35.7558 77.0731 37.1846 77.0731H45.8959H45.9756Z" fill="#DCEBFF"/>
<path d="M54.014 74.4862V72.1694H47.5166V74.4862C47.5166 75.9149 46.3584 77.0731 44.9297 77.0731H51.4271C52.8558 77.0731 54.014 75.9149 54.014 74.4862Z" fill="#B0D3FF"/>
<path d="M47.8672 67.2507V60.5257L53.4055 57.7565V46.6799" stroke="#101828" stroke-width="0.551738"/>
<circle cx="53.4041" cy="46.68" r="3.28446" fill="white" stroke="black" stroke-width="0.551738"/>
<path d="M40.7461 67.2507V60.5257L35.2078 57.7565V46.6799" stroke="#101828" stroke-width="0.551738"/>
<circle cx="3.56033" cy="3.56033" r="3.28446" transform="matrix(-1 0 0 1 38.7695 43.1196)" fill="white" stroke="black" stroke-width="0.551738"/>
<path d="M44.3047 67.2507V57.7565L44.3047 54.9874V43.9108" stroke="#101828" stroke-width="0.551738"/>
<circle cx="44.3064" cy="41.5373" r="3.28446" fill="white" stroke="black" stroke-width="0.551738"/>
<path d="M43.7188 22.0759L43.7111 21.8002L43.7111 21.8002L43.7188 22.0759ZM64.875 42.6384H65.1509V42.6384L64.875 42.6384ZM60.1953 55.7009L60.4083 55.8763L60.1953 55.7009ZM55.7285 65.3064L55.4573 65.256L55.7285 65.3064ZM32.8809 65.3054L33.1521 65.2551L33.1521 65.2551L32.8809 65.3054ZM28.417 55.7048L28.6299 55.5295H28.6299L28.417 55.7048ZM23.7344 42.4519L23.4585 42.4495L23.4585 42.4495L23.7344 42.4519ZM41.0615 22.325L41.1049 22.5974L41.0615 22.0491V22.325ZM41.0596 22.325L41.0161 22.0525L41.0596 22.6008V22.325ZM41.1133 22.3171L41.0706 22.0446L41.0705 22.0446L41.1133 22.3171ZM41.3047 22.2869L41.2647 22.0139L41.2646 22.0139L41.3047 22.2869ZM41.376 22.2791L41.4092 22.553L41.4152 22.5521L41.376 22.2791ZM43.7188 22.0759L43.7264 22.3517C55.1989 22.033 64.599 31.2381 64.5991 42.6384L64.875 42.6384L65.1509 42.6384C65.1507 30.9282 55.4951 21.4728 43.7111 21.8002L43.7188 22.0759ZM64.875 42.6384H64.5991C64.5991 47.5324 62.8673 52.021 59.9823 55.5256L60.1953 55.7009L60.4083 55.8763C63.3716 52.2765 65.1509 47.665 65.1509 42.6384H64.875ZM60.1953 55.7009L59.9823 55.5256C57.659 58.3478 56.1175 61.7027 55.4573 65.256L55.7285 65.3064L55.9997 65.3568C56.6432 61.8937 58.1454 58.6252 60.4083 55.8763L60.1953 55.7009ZM55.7285 65.3064L55.4573 65.256C55.2539 66.3507 54.2935 67.1438 53.1777 67.1438V67.4197V67.6955C54.557 67.6955 55.7474 66.7151 55.9997 65.3568L55.7285 65.3064ZM53.1777 67.4197V67.1438H35.4316V67.4197V67.6955H53.1777V67.4197ZM35.4316 67.4197V67.1438C34.3158 67.1438 33.3554 66.3501 33.1521 65.2551L32.8809 65.3054L32.6096 65.3558C32.8618 66.7143 34.052 67.6955 35.4316 67.6955V67.4197ZM32.8809 65.3054L33.1521 65.2551C32.4925 61.7033 30.9528 58.3499 28.6299 55.5295L28.417 55.7048L28.204 55.8802C30.4664 58.6272 31.9668 61.8942 32.6096 65.3558L32.8809 65.3054ZM28.417 55.7048L28.6299 55.5295C25.707 51.9805 23.9662 47.4215 24.0102 42.4543L23.7344 42.4519L23.4585 42.4495C23.4133 47.5511 25.2017 52.2349 28.204 55.8802L28.417 55.7048ZM23.7344 42.4519L24.0102 42.4544C24.0989 32.475 31.486 24.1304 41.1049 22.5974L41.0615 22.325L41.0181 22.0525C31.1371 23.6273 23.5496 32.1968 23.4585 42.4495L23.7344 42.4519ZM41.0615 22.325V22.0491H41.0596V22.325V22.6008H41.0615V22.325ZM41.0596 22.325L41.103 22.5974C41.1088 22.5964 41.1152 22.5956 41.1244 22.5943C41.1328 22.5931 41.1443 22.5915 41.156 22.5897L41.1133 22.3171L41.0705 22.0446C41.0644 22.0456 41.058 22.0465 41.0484 22.0478C41.0397 22.049 41.0281 22.0506 41.0161 22.0525L41.0596 22.325ZM41.1133 22.3171L41.156 22.5897C41.2255 22.5788 41.2818 22.5691 41.3448 22.5598L41.3047 22.2869L41.2646 22.0139C41.1996 22.0235 41.1286 22.0355 41.0706 22.0446L41.1133 22.3171ZM41.3047 22.2869L41.3447 22.5598C41.3718 22.5558 41.3558 22.5594 41.4092 22.5529L41.376 22.2791L41.3428 22.0052C41.3351 22.0061 41.3279 22.0068 41.3135 22.0082C41.3011 22.0094 41.2836 22.0111 41.2647 22.0139L41.3047 22.2869ZM41.376 22.2791L41.4152 22.5521C42.1738 22.4431 42.9446 22.3735 43.7264 22.3517L43.7188 22.0759L43.7111 21.8002C42.9066 21.8226 42.1147 21.8942 41.3367 22.006L41.376 22.2791Z" fill="#101828"/>
<path d="M54.0141 67.4268V74.4864C54.014 75.9151 52.8552 77.0732 51.4266 77.0732H37.1845C37.1399 77.0732 37.0956 77.0724 37.0516 77.0701C35.6848 77.001 34.5978 75.8705 34.5977 74.4864V67.426" stroke="#101828" stroke-width="0.551738"/>
<path d="M34.8125 71.9979H53.8009" stroke="#101828" stroke-width="0.551738"/>
<rect x="-3.95703" y="84.6569" width="96.5245" height="9.49422" fill="white" stroke="#101828" stroke-width="0.551738"/>
<path d="M44.3477 81.6366C40.0885 74.2546 30.9406 69.3625 23.915 70.7098C18.8327 71.6848 16.2538 75.6581 16.8281 80.5761C14.2089 78.9162 11.3763 78.1071 9.01172 78.5604C6.05505 79.1276 4.5626 81.5273 4.7666 84.6571L45.7422 84.6571C45.3977 83.6655 44.9346 82.6539 44.3477 81.6366Z" fill="#89DDC8"/>
<path d="M44.3477 81.6366L44.5866 81.4987L44.5866 81.4987L44.3477 81.6366ZM23.915 70.7098L23.8631 70.4389L23.8631 70.4389L23.915 70.7098ZM16.8281 80.5761L17.1021 80.5441L17.1693 81.1188L16.6805 80.8091L16.8281 80.5761ZM9.01172 78.5604L8.95974 78.2895L8.95977 78.2895L9.01172 78.5604ZM4.7666 84.6571L4.7666 84.933L4.50813 84.933L4.49132 84.6751L4.7666 84.6571ZM45.7422 84.6571L46.0028 84.5666L46.1301 84.933L45.7422 84.933L45.7422 84.6571ZM44.3477 81.6366L44.1087 81.7745C42.0074 78.1325 38.6955 75.0986 35.0387 73.143C31.3793 71.1861 27.4007 70.3223 23.967 70.9808L23.915 70.7098L23.8631 70.4389C27.455 69.7501 31.5631 70.6586 35.2989 72.6564C39.0371 74.6555 42.4287 77.7587 44.5866 81.4987L44.3477 81.6366ZM23.915 70.7098L23.967 70.9808C21.488 71.4563 19.6389 72.6579 18.4765 74.3223C17.3129 75.9883 16.8215 78.1409 17.1021 80.5441L16.8281 80.5761L16.5541 80.608C16.2604 78.0932 16.7713 75.8002 18.0242 74.0063C19.2782 72.2108 21.2598 70.9383 23.8631 70.4389L23.915 70.7098ZM16.8281 80.5761L16.6805 80.8091C14.0944 79.1703 11.3341 78.3961 9.06366 78.8314L9.01172 78.5604L8.95977 78.2895C11.4186 77.8181 14.3233 78.6622 16.9758 80.343L16.8281 80.5761ZM9.01172 78.5604L9.06369 78.8314C7.65189 79.1022 6.60565 79.8054 5.93253 80.8022C5.25678 81.8029 4.94294 83.121 5.04189 84.6392L4.7666 84.6571L4.49132 84.6751C4.38627 83.0634 4.71665 81.6168 5.47529 80.4934C6.23657 79.3661 7.41488 78.5859 8.95974 78.2895L9.01172 78.5604ZM4.7666 84.6571L4.7666 84.3812L45.7422 84.3812L45.7422 84.6571L45.7422 84.933L4.7666 84.933L4.7666 84.6571ZM45.7422 84.6571L45.4816 84.7476C45.1432 83.7735 44.6875 82.7777 44.1087 81.7745L44.3477 81.6366L44.5866 81.4987C45.1817 82.5302 45.6522 83.5576 46.0028 84.5666L45.7422 84.6571Z" fill="black"/>
<path d="M69.6256 11.0767L69.5635 13.7207C69.4421 18.8986 73.6714 23.128 78.8493 23.0065L81.4934 22.9444L78.8493 22.8824C73.6714 22.7609 69.4421 26.9903 69.5635 32.1681L69.6256 34.8122L69.6876 32.1681C69.8091 26.9903 65.5797 22.7609 60.4019 22.8824L57.7578 22.9444L60.4019 23.0065C65.5797 23.128 69.8091 18.8986 69.6876 13.7207L69.6256 11.0767Z" fill="white" stroke="#181818" stroke-width="0.551738"/>
</g>
<defs>
<clipPath id="clip0_10155_6506">
<rect width="88.6127" height="88.6127" fill="white"/>
</clipPath>
</defs>
</svg>
