<svg width="397" height="282" viewBox="0 0 397 282" fill="none" xmlns="http://www.w3.org/2000/svg">
<g clip-path="url(#clip0_9693_31150)">
<g clip-path="url(#clip1_9693_31150)">
<path d="M90.252 355.216L316.762 318.27L268.128 20.0959L41.6183 57.04L90.252 355.216ZM320.035 320.626L87.8966 358.488L38.3448 54.6841L270.484 16.8215L320.035 320.626Z" fill="#CECECE" stroke="black" stroke-width="0.663888"/>
<path d="M318.403 319.45L87.6696 357.083L38.3474 54.6855L269.082 17.0522L318.403 319.45Z" fill="#EDEDED" stroke="black" stroke-width="0.663888"/>
<path d="M76.5023 351.105L305.373 334.062L282.937 32.7812L54.067 49.8241L76.5023 351.105ZM308.427 336.694L73.8705 354.161L51.0117 47.1922L285.569 29.7254L308.427 336.694Z" fill="#CECECE" stroke="black" stroke-width="0.663888"/>
<path d="M306.906 335.378L73.7694 352.738L51.0166 47.1914L284.154 29.8295L306.906 335.378Z" fill="#F7F7F7" stroke="black" stroke-width="0.663888"/>
<path d="M45.275 237.474C53.0796 241.98 65.5539 250.667 77.6982 262.128C89.8357 273.582 101.711 287.87 108.229 303.587L106.29 304.392C99.9304 289.058 88.2864 275.008 76.2565 263.655C64.2336 252.309 51.8915 243.72 44.2253 239.294L45.275 237.474Z" fill="#2DA17D"/>
<path d="M45.275 237.474L45.3538 237.338L45.2173 237.259L45.1386 237.396L45.275 237.474ZM77.6982 262.128L77.8063 262.013L77.8063 262.013L77.6982 262.128ZM108.229 303.587L108.289 303.733L108.435 303.672L108.374 303.527L108.229 303.587ZM106.29 304.392L106.144 304.453L106.204 304.598L106.35 304.538L106.29 304.392ZM76.2565 263.655L76.3646 263.541L76.3646 263.541L76.2565 263.655ZM44.2253 239.294L44.0888 239.215L44.0101 239.352L44.1465 239.431L44.2253 239.294ZM45.275 237.474L45.1963 237.611C52.9904 242.11 65.4549 250.79 77.5901 262.242L77.6982 262.128L77.8063 262.013C65.6529 250.544 53.1687 241.849 45.3538 237.338L45.275 237.474ZM77.6982 262.128L77.5901 262.242C89.7195 273.689 101.577 287.959 108.083 303.648L108.229 303.587L108.374 303.527C101.844 287.781 89.9519 273.475 77.8063 262.013L77.6982 262.128ZM108.229 303.587L108.169 303.442L106.229 304.247L106.29 304.392L106.35 304.538L108.289 303.733L108.229 303.587ZM106.29 304.392L106.435 304.332C100.064 288.969 88.4026 274.901 76.3646 263.541L76.2565 263.655L76.1484 263.77C88.1702 275.115 99.7968 289.147 106.144 304.453L106.29 304.392ZM76.2565 263.655L76.3646 263.541C64.3327 252.186 51.9806 243.589 44.3041 239.158L44.2253 239.294L44.1465 239.431C51.8024 243.85 64.1346 252.432 76.1484 263.77L76.2565 263.655ZM44.2253 239.294L44.3618 239.373L45.4115 237.553L45.275 237.474L45.1386 237.396L44.0888 239.215L44.2253 239.294Z" fill="#101828"/>
<ellipse cx="4.04843" cy="17.2631" rx="4.04843" ry="17.2631" transform="matrix(-0.445561 0.895251 0.895251 0.445561 10.9297 217.964)" fill="#E7A200" stroke="#101828" stroke-width="0.315065"/>
<ellipse cx="4.04843" cy="17.2631" rx="4.04843" ry="17.2631" transform="matrix(-0.109604 0.993975 0.993975 0.109604 6.22656 227.455)" fill="#E7A200" stroke="#101828" stroke-width="0.315065"/>
<ellipse cx="31.207" cy="220.622" rx="4.04843" ry="17.2631" transform="rotate(-30.343 31.207 220.622)" fill="#E7A200" stroke="#101828" stroke-width="0.315065"/>
<ellipse cx="28.2409" cy="223.633" rx="4.04843" ry="17.2631" transform="rotate(-50.5098 28.2409 223.633)" fill="#E7A200" stroke="#101828" stroke-width="0.315065"/>
<ellipse cx="25.17" cy="225.655" rx="4.04843" ry="17.2631" transform="rotate(-57.0253 25.17 225.655)" fill="#FECC2F" stroke="#101828" stroke-width="0.315065"/>
<path d="M6.5898 226.261C7.19795 224.109 15.1295 224.467 24.3042 227.06C26.7228 227.744 28.9855 228.517 30.9966 229.321C29.4442 227.813 27.8189 226.061 26.2103 224.133C20.1033 216.812 16.5447 209.716 18.2612 208.284C19.9781 206.851 26.3212 211.625 32.4284 218.946C38.5352 226.267 42.0939 233.363 40.3775 234.796C40.2216 234.926 40.0273 235.004 39.7987 235.035C39.8617 235.253 39.8696 235.459 39.8151 235.652C39.2063 237.803 31.2755 237.445 22.1012 234.852C12.9271 232.259 5.98243 228.412 6.5898 226.261Z" fill="#FECC2F"/>
<path d="M6.5898 226.261L6.4382 226.218L6.43819 226.218L6.5898 226.261ZM24.3042 227.06L24.347 226.909L24.347 226.909L24.3042 227.06ZM30.9966 229.321L30.9382 229.467L31.1064 229.208L30.9966 229.321ZM26.2103 224.133L26.0893 224.234L26.0893 224.234L26.2103 224.133ZM18.2612 208.284L18.1603 208.163L18.1602 208.163L18.2612 208.284ZM32.4284 218.946L32.5494 218.846L32.5494 218.846L32.4284 218.946ZM40.3775 234.796L40.4784 234.917L40.4785 234.917L40.3775 234.796ZM39.7987 235.035L39.7779 234.879L39.5965 234.903L39.6473 235.079L39.7987 235.035ZM39.8151 235.652L39.9666 235.695L39.9666 235.695L39.8151 235.652ZM22.1012 234.852L22.0584 235.003L22.0584 235.003L22.1012 234.852ZM6.5898 226.261L6.74139 226.304C6.80421 226.081 6.9642 225.88 7.23531 225.703C7.50756 225.525 7.88395 225.379 8.36007 225.267C9.31222 225.043 10.6309 224.967 12.2274 225.039C15.4179 225.183 19.6821 225.917 24.2613 227.212L24.3042 227.06L24.347 226.909C19.7516 225.61 15.4627 224.869 12.2416 224.724C10.6324 224.651 9.28077 224.727 8.288 224.96C7.79167 225.077 7.37696 225.234 7.06321 225.439C6.74832 225.644 6.52742 225.902 6.4382 226.218L6.5898 226.261ZM24.3042 227.06L24.2613 227.212C26.6749 227.894 28.9324 228.665 30.9382 229.467L30.9966 229.321L31.0551 229.175C29.0386 228.369 26.7707 227.594 24.347 226.909L24.3042 227.06ZM30.9966 229.321L31.1064 229.208C29.5581 227.704 27.9366 225.956 26.3313 224.032L26.2103 224.133L26.0893 224.234C27.7012 226.166 29.3302 227.922 30.8869 229.434L30.9966 229.321ZM26.2103 224.133L26.3313 224.032C23.2832 220.378 20.8744 216.784 19.4428 213.93C18.7264 212.501 18.2588 211.266 18.075 210.305C17.9831 209.825 17.9639 209.421 18.015 209.1C18.0659 208.781 18.1848 208.553 18.3621 208.405L18.2612 208.284L18.1602 208.163C17.9084 208.373 17.763 208.68 17.7039 209.051C17.6449 209.421 17.6698 209.864 17.7656 210.365C17.9572 211.366 18.439 212.631 19.1611 214.071C20.6065 216.953 23.0305 220.567 26.0893 224.234L26.2103 224.133ZM18.2612 208.284L18.3621 208.405C18.5394 208.257 18.7853 208.181 19.1089 208.188C19.4338 208.195 19.8274 208.286 20.2834 208.463C21.1955 208.816 22.3269 209.497 23.6037 210.458C26.1552 212.379 29.2592 215.393 32.3074 219.047L32.4284 218.946L32.5494 218.846C29.4904 215.178 26.3692 212.145 23.7932 210.207C22.5062 209.238 21.3482 208.537 20.3972 208.169C19.9217 207.985 19.4903 207.881 19.1159 207.873C18.7401 207.864 18.4121 207.953 18.1603 208.163L18.2612 208.284ZM32.4284 218.946L32.3074 219.047C35.3554 222.701 37.7642 226.295 39.1958 229.15C39.9122 230.578 40.3798 231.813 40.5636 232.774C40.6555 233.254 40.6748 233.658 40.6236 233.979C40.5727 234.299 40.4539 234.527 40.2766 234.675L40.3775 234.796L40.4785 234.917C40.7303 234.707 40.8757 234.4 40.9348 234.028C40.9937 233.659 40.9688 233.216 40.8731 232.715C40.6815 231.713 40.1996 230.448 39.4775 229.009C38.0321 226.127 35.6082 222.512 32.5494 218.846L32.4284 218.946ZM40.3775 234.796L40.2766 234.675C40.1474 234.783 39.9824 234.851 39.7779 234.879L39.7987 235.035L39.8195 235.191C40.0722 235.157 40.2958 235.069 40.4784 234.917L40.3775 234.796ZM39.7987 235.035L39.6473 235.079C39.7038 235.274 39.7085 235.45 39.6635 235.609L39.8151 235.652L39.9666 235.695C40.0307 235.468 40.0195 235.232 39.95 234.991L39.7987 235.035ZM39.8151 235.652L39.6635 235.609C39.6006 235.831 39.4405 236.033 39.1694 236.21C38.8971 236.387 38.5207 236.534 38.0446 236.646C37.0924 236.869 35.7738 236.946 34.1773 236.874C30.987 236.729 26.7231 235.994 22.1441 234.7L22.1012 234.852L22.0584 235.003C26.6536 236.302 30.9422 237.043 34.1631 237.188C35.7723 237.261 37.1238 237.186 38.1166 236.953C38.6129 236.836 39.0277 236.678 39.3414 236.474C39.6564 236.268 39.8773 236.01 39.9666 235.695L39.8151 235.652ZM22.1012 234.852L22.1441 234.7C17.5651 233.406 13.5474 231.8 10.7538 230.253C9.35583 229.479 8.27227 228.723 7.57808 228.034C7.23095 227.69 6.98711 227.368 6.84802 227.074C6.70952 226.781 6.67867 226.526 6.7414 226.304L6.5898 226.261L6.43819 226.218C6.34908 226.534 6.40239 226.869 6.56326 227.209C6.72354 227.547 6.99427 227.899 7.35614 228.258C8.07994 228.976 9.19204 229.748 10.6011 230.528C13.4215 232.091 17.4632 233.704 22.0584 235.003L22.1012 234.852Z" fill="#101828"/>
<ellipse cx="33.8978" cy="218.119" rx="4.04843" ry="17.2631" transform="rotate(-23.4555 33.8978 218.119)" fill="#FECC2F"/>
<ellipse cx="4.04843" cy="17.2631" rx="4.04843" ry="17.2631" transform="matrix(0.010385 0.999946 0.999946 -0.010385 4.64062 232.673)" fill="#FECC2F"/>
<path d="M40.7692 233.956C42.8203 233.066 41.4066 225.254 37.6117 216.508C33.8167 207.762 29.0775 201.393 27.0264 202.283C24.9753 203.173 26.3889 210.984 30.1839 219.731C31.3908 222.512 32.6931 225.053 33.9742 227.197" stroke="#101828" stroke-width="0.315065"/>
<ellipse cx="4.04843" cy="17.2631" rx="4.04843" ry="17.2631" transform="matrix(0.010385 0.999946 0.999946 -0.010385 4.64062 232.673)" fill="#FECC2F"/>
<path d="M39.2071 236.363C39.2303 238.599 31.5206 240.491 21.9869 240.59C12.4533 240.69 4.70589 238.957 4.68267 236.722C4.65945 234.486 12.3692 232.593 21.9028 232.494C24.9347 232.463 27.786 232.616 30.2656 232.913" stroke="#101828" stroke-width="0.315065"/>
<path d="M41.6484 230.328C42.4993 231.916 44.837 235.235 47.3791 235.809C50.4392 236.501 51.1046 239.144 49.7791 241.451L49.7881 241.457C49.7558 241.507 49.7211 241.555 49.6878 241.603C49.6648 241.64 49.6433 241.678 49.6193 241.715L49.6119 241.711C48.0456 243.862 45.3602 244.332 43.4818 241.818C41.9216 239.731 37.937 238.95 36.1401 238.82C37.6349 237.926 38.8639 236.352 39.673 235.131C40.468 233.891 41.4372 232.092 41.6484 230.328Z" fill="#2DA17D"/>
<path d="M41.6484 230.328L41.7873 230.253C41.7548 230.193 41.6868 230.16 41.6192 230.173C41.5517 230.186 41.5002 230.241 41.492 230.309L41.6484 230.328ZM47.3791 235.809L47.4138 235.656L47.4138 235.656L47.3791 235.809ZM49.7791 241.451L49.6425 241.373C49.6008 241.445 49.6231 241.538 49.6933 241.583L49.7791 241.451ZM49.7881 241.457L49.9202 241.543C49.9676 241.47 49.9468 241.372 49.8738 241.325L49.7881 241.457ZM49.6878 241.603L49.5581 241.513L49.5537 241.52L49.6878 241.603ZM49.6193 241.715L49.5336 241.848C49.5686 241.87 49.6113 241.878 49.6521 241.87C49.693 241.861 49.7287 241.836 49.7515 241.801L49.6193 241.715ZM49.6119 241.711L49.6977 241.578C49.6274 241.533 49.5339 241.55 49.4846 241.618L49.6119 241.711ZM43.4818 241.818L43.608 241.724L43.608 241.724L43.4818 241.818ZM36.1401 238.82L36.0592 238.685C36.0002 238.72 35.9709 238.789 35.9868 238.856C36.0027 238.923 36.0602 238.972 36.1287 238.977L36.1401 238.82ZM39.673 235.131L39.8044 235.218L39.8057 235.216L39.673 235.131ZM41.6484 230.328L41.5095 230.402C41.9403 231.206 42.7448 232.444 43.7634 233.555C44.7785 234.663 46.0256 235.665 47.3444 235.963L47.3791 235.809L47.4138 235.656C46.1905 235.38 44.9978 234.436 43.9957 233.343C42.9972 232.253 42.2074 231.038 41.7873 230.253L41.6484 230.328ZM47.3791 235.809L47.3444 235.963C48.8321 236.299 49.7145 237.102 50.0759 238.079C50.4393 239.061 50.2876 240.25 49.6425 241.373L49.7791 241.451L49.9156 241.53C50.5961 240.346 50.7744 239.059 50.3714 237.97C49.9666 236.875 48.9862 236.011 47.4138 235.656L47.3791 235.809ZM49.7791 241.451L49.6933 241.583L49.7023 241.589L49.7881 241.457L49.8738 241.325L49.8648 241.319L49.7791 241.451ZM49.7881 241.457L49.6559 241.371C49.6254 241.418 49.5943 241.461 49.5583 241.513L49.6878 241.603L49.8172 241.692C49.8479 241.648 49.8863 241.595 49.9202 241.543L49.7881 241.457ZM49.6878 241.603L49.5537 241.52C49.5247 241.567 49.5112 241.593 49.4871 241.63L49.6193 241.715L49.7515 241.801C49.7755 241.764 49.8049 241.713 49.8218 241.685L49.6878 241.603ZM49.6193 241.715L49.705 241.583L49.6977 241.578L49.6119 241.711L49.5262 241.843L49.5336 241.848L49.6193 241.715ZM49.6119 241.711L49.4846 241.618C48.7223 242.665 47.6987 243.288 46.6536 243.356C45.6141 243.424 44.5212 242.946 43.608 241.724L43.4818 241.818L43.3557 241.913C44.3208 243.204 45.5099 243.747 46.6742 243.671C47.833 243.595 48.9352 242.908 49.7393 241.803L49.6119 241.711ZM43.4818 241.818L43.608 241.724C42.7985 240.641 41.3745 239.911 39.9496 239.436C38.5197 238.958 37.0611 238.728 36.1514 238.663L36.1401 238.82L36.1287 238.977C37.016 239.041 38.4482 239.267 39.8499 239.734C41.2565 240.204 42.6048 240.908 43.3557 241.913L43.4818 241.818ZM36.1401 238.82L36.2209 238.955C37.7473 238.042 38.9923 236.444 39.8044 235.218L39.673 235.131L39.5417 235.044C38.7355 236.261 37.5225 237.81 36.0592 238.685L36.1401 238.82ZM39.673 235.131L39.8057 235.216C40.6034 233.972 41.5892 232.148 41.8048 230.347L41.6484 230.328L41.492 230.309C41.2852 232.036 40.3327 233.811 39.5404 235.046L39.673 235.131Z" fill="#101828"/>
<path opacity="0.1" fill-rule="evenodd" clip-rule="evenodd" d="M26.0944 203.467C26.0693 203.573 26.0477 203.685 26.0293 203.801C26.0698 203.835 26.1105 203.87 26.1514 203.906C26.1305 203.757 26.1115 203.61 26.0944 203.467ZM4.92593 235.813C5.14052 235.562 5.44187 235.323 5.8162 235.097C5.88478 235.138 5.95589 235.178 6.02941 235.218C6.9246 235.702 8.2076 236.129 9.77891 236.48C12.9239 237.183 17.2557 237.592 22.03 237.542C26.8044 237.493 38.8506 236.241 38.8506 236.241C38.8506 236.241 38.5018 236.064 39.9046 236.532C41.312 237.002 42.6639 237.708 43.4174 238.716C44.3803 240.004 45.5652 240.545 46.7241 240.468C47.864 240.394 48.9499 239.724 49.7492 238.645C49.7654 238.635 49.7799 238.621 49.7907 238.604C49.8188 238.561 49.8456 238.518 49.8719 238.475C49.9002 238.433 49.9294 238.391 49.9578 238.347C49.969 238.33 49.9756 238.311 49.9787 238.292C50.0868 238.1 50.1816 237.906 50.263 237.71C50.3054 237.799 50.3437 237.89 50.3778 237.982C50.774 239.053 50.6056 240.317 49.9467 241.487C49.9436 241.506 49.937 241.525 49.9258 241.542C49.8974 241.586 49.8682 241.628 49.8399 241.67C49.8136 241.713 49.7868 241.756 49.7587 241.799C49.7479 241.816 49.7334 241.83 49.7172 241.84C48.9179 242.919 47.832 243.589 46.6921 243.664C45.5332 243.74 44.3483 243.199 43.3854 241.911C42.6319 240.903 41.28 240.197 39.8726 239.727C38.4698 239.259 37.0363 239.033 36.148 238.969C36.148 238.969 34.8824 239.259 34.2247 239.421C31.095 240.189 26.7724 240.688 21.998 240.738C17.2237 240.787 12.8919 240.378 9.74691 239.675C8.1756 239.324 6.8926 238.897 5.99741 238.413C5.54987 238.171 5.19253 237.911 4.94489 237.633C4.69647 237.354 4.55268 237.051 4.54931 236.727C4.54596 236.404 4.68333 236.097 4.92593 235.813Z" fill="#101828"/>
<path d="M91.7714 263.073C94.1455 248.931 108.817 248.067 108.817 248.067C104.911 262.922 91.7714 263.073 91.7714 263.073Z" fill="#2DA17D" stroke="#101828" stroke-width="0.315065" stroke-miterlimit="10"/>
<path d="M96.9521 241.673C102.915 253.987 91.7856 263.075 91.7856 263.075C86.7464 249.587 96.9521 241.673 96.9521 241.673Z" fill="#2DA17D" stroke="#101828" stroke-width="0.315065" stroke-miterlimit="10"/>
<path d="M92.9479 258.823C94.2045 256.771 96.7562 250.488 96.9107 241.774" stroke="#101828" stroke-width="0.315065"/>
<path d="M97.9141 257.443C100.216 255.964 105.585 252.027 108.646 248.114" stroke="#101828" stroke-width="0.315065"/>
<path d="M90.2026 262.291C73.1961 249.725 79.2334 230.859 79.2656 230.759C95.6026 239.703 92.5964 257.958 91.6325 262.236C93.1412 264.827 94.3235 269.259 95.2383 277.649L95.382 277.866L93.8571 276.69C93.0535 268.178 91.5634 264.225 90.2026 262.291Z" fill="#2DA17D"/>
<path d="M90.2026 262.291L90.3314 262.2L90.3167 262.179L90.2962 262.164L90.2026 262.291ZM79.2656 230.759L79.3412 230.62L79.174 230.529L79.1156 230.71L79.2656 230.759ZM91.6325 262.236L91.4788 262.202L91.4652 262.262L91.4964 262.316L91.6325 262.236ZM95.2383 277.649L95.0817 277.666L95.0858 277.704L95.1069 277.736L95.2383 277.649ZM95.382 277.866L95.2858 277.991L96.0371 278.57L95.5134 277.779L95.382 277.866ZM93.8571 276.69L93.7003 276.705L93.7067 276.773L93.7609 276.815L93.8571 276.69ZM90.2026 262.291L90.2962 262.164C81.8358 255.913 79.1105 248.099 78.5014 241.835C77.8919 235.565 79.4027 230.847 79.4156 230.807L79.2656 230.759L79.1156 230.71C79.0963 230.77 77.5724 235.535 78.1878 241.865C78.8037 248.2 81.5629 256.103 90.109 262.418L90.2026 262.291ZM79.2656 230.759L79.1899 230.897C87.3082 235.342 90.6186 242.096 91.782 248.277C92.9465 254.463 91.9586 260.072 91.4788 262.202L91.6325 262.236L91.7862 262.271C92.2703 260.122 93.2674 254.465 92.0917 248.218C90.9149 241.966 87.5599 235.12 79.3412 230.62L79.2656 230.759ZM91.6325 262.236L91.4964 262.316C92.9868 264.875 94.1671 269.277 95.0817 277.666L95.2383 277.649L95.3949 277.632C94.48 269.241 93.2955 264.778 91.7686 262.157L91.6325 262.236ZM95.2383 277.649L95.1069 277.736L95.2506 277.953L95.382 277.866L95.5134 277.779L95.3696 277.562L95.2383 277.649ZM95.382 277.866L95.4782 277.741L93.9533 276.565L93.8571 276.69L93.7609 276.815L95.2858 277.991L95.382 277.866ZM93.8571 276.69L94.014 276.675C93.2096 268.156 91.7166 264.168 90.3314 262.2L90.2026 262.291L90.0738 262.382C91.4103 264.281 92.8973 268.2 93.7003 276.705L93.8571 276.69Z" fill="#101828"/>
<path d="M86.758 251.828C85.9346 247.774 83.3047 237.914 79.3723 230.908" stroke="#101828" stroke-width="0.315065"/>
<path d="M86.8524 271.818C80.5354 266.086 59.3344 254.494 46.8986 259.651C54.5061 268.502 77.5139 284.461 86.8524 271.818Z" fill="#2DA17D"/>
<path d="M83.4398 269.161C74.8382 263.198 57.6151 255.205 46.8998 259.649C54.2701 268.224 76.0949 283.471 85.9408 272.917" stroke="#101828" stroke-width="0.315065"/>
<path d="M80.7407 271.451C78.3888 271.243 70.2294 268.066 64.9117 265.943C59.594 263.819 51.4347 260.642 49.0828 260.434" stroke="#101828" stroke-width="0.315065"/>
<path d="M302.492 129.169C296.668 154.985 287.165 176.249 287.621 176.216C287.621 176.216 276.518 156.418 282.338 130.607C288.162 104.791 297.665 83.5272 297.209 83.5598C297.669 83.527 308.312 103.358 302.492 129.169Z" fill="#2DA17D" stroke="#101828" stroke-width="0.429735" stroke-linejoin="round"/>
<path d="M287.457 175.824C287.457 175.824 287.506 146.747 293.368 123.862C299.23 100.977 297.217 83.5617 297.217 83.5617" fill="#2DA17D"/>
<path d="M287.457 175.824C287.457 175.824 287.506 146.747 293.368 123.862C299.23 100.977 297.217 83.5617 297.217 83.5617" stroke="#101828" stroke-width="0.429735"/>
<path d="M283.447 239.947C275.871 217.39 273.852 162.788 325.614 123.567L326.695 124.995L327.778 126.422C277.546 164.483 279.622 217.31 286.842 238.807L285.144 239.377L283.447 239.947Z" fill="#00A47B"/>
<path d="M283.447 239.947L283.243 240.015L283.312 240.219L283.515 240.151L283.447 239.947ZM325.614 123.567L325.786 123.438L325.656 123.266L325.485 123.396L325.614 123.567ZM326.695 124.995L326.524 125.124L326.524 125.124L326.695 124.995ZM327.778 126.422L327.908 126.593L328.079 126.463L327.949 126.292L327.778 126.422ZM286.842 238.807L286.91 239.011L287.114 238.943L287.046 238.739L286.842 238.807ZM285.144 239.377L285.076 239.173L285.076 239.173L285.144 239.377ZM283.447 239.947L283.651 239.879C276.096 217.385 274.074 162.89 325.744 123.739L325.614 123.567L325.485 123.396C273.631 162.687 275.646 217.395 283.243 240.015L283.447 239.947ZM325.614 123.567L325.443 123.697L326.524 125.124L326.695 124.995L326.867 124.865L325.786 123.438L325.614 123.567ZM326.695 124.995L326.524 125.124L327.607 126.552L327.778 126.422L327.949 126.292L326.867 124.865L326.695 124.995ZM327.778 126.422L327.648 126.251C277.325 164.381 279.396 217.315 286.638 238.876L286.842 238.807L287.046 238.739C279.847 217.305 277.768 164.585 327.908 126.593L327.778 126.422ZM286.842 238.807L286.774 238.604L285.076 239.173L285.144 239.377L285.212 239.581L286.91 239.011L286.842 238.807ZM285.144 239.377L285.076 239.173L283.378 239.743L283.447 239.947L283.515 240.151L285.212 239.58L285.144 239.377Z" fill="#101828"/>
<path d="M329.304 75.6141C331.708 79.1844 341.575 100.09 338.005 102.494C334.434 104.897 318.779 87.8878 316.375 84.3175C313.972 80.7473 314.918 75.9047 318.488 73.5013C322.058 71.0979 326.901 72.0439 329.304 75.6141Z" fill="#FECC2F" stroke="#101828" stroke-width="0.429735"/>
<path d="M346.483 73.9841C346.78 78.2777 344.872 101.316 340.579 101.613C336.285 101.909 331.231 79.3506 330.935 75.057C330.639 70.7634 333.879 67.0425 338.173 66.7463C342.466 66.45 346.187 69.6905 346.483 73.9841Z" fill="#FECC2F" stroke="#FECC2F" stroke-width="0.429735"/>
<path d="M334.656 91.3533C336.426 96.9569 338.584 101.75 340.579 101.613C344.872 101.316 346.78 78.2777 346.483 73.9841C346.187 69.6905 342.466 66.45 338.173 66.7463C333.879 67.0425 330.639 70.7634 330.935 75.057C331.025 76.3594 331.552 79.3422 332.364 82.858" stroke="#101828" stroke-width="0.429735"/>
<path d="M362.157 81.1581C360.267 85.0246 347.096 104.023 343.229 102.133C339.363 100.243 346.265 78.1795 348.156 74.313C350.046 70.4464 354.713 68.8443 358.579 70.7346C362.446 72.6248 364.048 77.2916 362.157 81.1581Z" fill="#FECC2F" stroke="#101828" stroke-width="0.429735"/>
<path d="M372.153 95.2158C368.583 97.6192 347.677 107.487 345.273 103.916C342.87 100.346 359.879 84.6902 363.45 82.2868C367.02 79.8834 371.862 80.8293 374.266 84.3996C376.669 87.9698 375.723 92.8124 372.153 95.2158Z" fill="#FECC2F" stroke="#FECC2F" stroke-width="0.429734"/>
<path d="M356.732 88.06C359.646 85.3027 362.275 83.0775 363.45 82.2868C367.02 79.8834 371.862 80.8293 374.266 84.3996C376.669 87.9698 375.723 92.8124 372.153 95.2158C368.583 97.6192 347.677 107.487 345.273 103.916C344.355 102.551 346.273 99.4202 349.193 95.9384" stroke="#101828" stroke-width="0.429734"/>
<path d="M373.791 112.387C369.497 112.684 346.458 110.776 346.162 106.482C345.866 102.189 368.424 97.135 372.718 96.8387C377.012 96.5424 380.732 99.7829 381.029 104.077C381.325 108.37 378.084 112.091 373.791 112.387Z" fill="#FECC2F" stroke="#101828" stroke-width="0.429735"/>
<path d="M366.63 128.073C362.764 126.183 343.766 113.011 345.656 109.145C347.546 105.278 369.609 112.181 373.476 114.071C377.342 115.961 378.944 120.628 377.054 124.495C375.164 128.361 370.497 129.963 366.63 128.073Z" fill="#FECC2F" stroke="#FECC2F" stroke-width="0.429735"/>
<path d="M356.871 109.007C351.385 107.839 346.502 107.413 345.656 109.143C343.766 113.009 362.764 126.181 366.63 128.071C370.497 129.961 375.164 128.359 377.054 124.493C378.944 120.626 377.342 115.959 373.476 114.069C372.319 113.504 369.536 112.49 366.151 111.451" stroke="#101828" stroke-width="0.429735"/>
<path d="M352.571 138.067C350.167 134.496 340.3 113.59 343.87 111.187C347.441 108.784 363.096 125.793 365.5 129.363C367.903 132.933 366.957 137.776 363.387 140.179C359.817 142.583 354.974 141.637 352.571 138.067Z" fill="#FECC2F" stroke="#FECC2F" stroke-width="0.429735"/>
<path d="M351.587 114.889C351.137 114.516 350.694 114.161 350.26 113.828C347.438 111.66 345.024 110.411 343.87 111.187C340.3 113.59 350.167 134.496 352.571 138.067C354.974 141.637 359.817 142.583 363.387 140.179C366.957 137.776 367.903 132.933 365.5 129.363C364.723 128.209 362.562 125.651 359.872 122.799" stroke="#101828" stroke-width="0.429735"/>
<path d="M335.384 139.702C335.087 135.409 336.995 112.37 341.289 112.074C345.582 111.778 350.636 134.336 350.932 138.63C351.229 142.923 347.988 146.644 343.694 146.94C339.401 147.237 335.68 143.996 335.384 139.702Z" fill="#FECC2F" stroke="#101828" stroke-width="0.429735"/>
<path d="M319.71 132.523C321.6 128.656 334.771 109.658 338.638 111.548C342.504 113.438 335.602 135.501 333.712 139.368C331.821 143.234 327.155 144.836 323.288 142.946C319.422 141.056 317.82 136.389 319.71 132.523Z" fill="#FECC2F" stroke="#101828" stroke-width="0.429734"/>
<path d="M309.714 118.467C313.284 116.063 334.19 106.196 336.594 109.766C338.997 113.337 321.988 128.992 318.418 131.396C314.847 133.799 310.005 132.853 307.601 129.283C305.198 125.713 306.144 120.87 309.714 118.467Z" fill="#FECC2F" stroke="#FECC2F" stroke-width="0.429735"/>
<path d="M331.282 119.349C334.947 115.253 337.652 111.338 336.594 109.766C334.19 106.196 313.284 116.063 309.714 118.467C306.144 120.87 305.198 125.713 307.601 129.283C310.005 132.853 314.847 133.799 318.418 131.396C319.469 130.688 321.687 128.83 324.23 126.471" stroke="#101828" stroke-width="0.429735"/>
<path d="M308.076 101.293C312.37 100.997 335.409 102.905 335.705 107.198C336.001 111.492 313.443 116.546 309.149 116.842C304.856 117.138 301.135 113.898 300.839 109.604C300.542 105.311 303.783 101.59 308.076 101.293Z" fill="#FECC2F" stroke="#101828" stroke-width="0.429734"/>
<path d="M315.252 85.6097C319.119 87.4999 338.117 100.671 336.227 104.538C334.337 108.404 312.274 101.502 308.407 99.6115C304.541 97.7213 302.939 93.0545 304.829 89.188C306.719 85.3215 311.386 83.7194 315.252 85.6097Z" fill="#FECC2F" stroke="#FECC2F" stroke-width="0.429735"/>
<path d="M316.838 102.564C312.961 101.412 309.687 100.237 308.407 99.6115C304.541 97.7213 302.939 93.0545 304.829 89.188C306.719 85.3215 311.386 83.7194 315.252 85.6096C319.119 87.4999 338.117 100.671 336.227 104.538C335.488 106.05 331.663 105.915 327.047 105.077" stroke="#101828" stroke-width="0.429735"/>
<circle cx="340.266" cy="106.71" r="9.86747" transform="rotate(-33.9473 340.266 106.71)" fill="#E7A200" stroke="#101828" stroke-width="0.429735"/>
<path opacity="0.1" d="M345.767 114.898C349.272 112.538 350.78 108.322 349.862 104.44C349.327 106.809 347.921 108.987 345.747 110.451C341.227 113.494 335.095 112.296 332.051 107.775C331.368 106.76 330.898 105.662 330.632 104.537C330.055 107.095 330.492 109.876 332.071 112.222C335.115 116.743 341.247 117.941 345.767 114.898Z" fill="#101828"/>
<path d="M283.99 184.484C292.639 174.242 325.292 149.727 350.12 150.765C340.629 165.611 306.796 196.572 283.99 184.484Z" fill="#2DA17D"/>
<path d="M288.876 179.517C301.526 167.946 328.729 149.869 350.122 150.763C340.927 165.146 308.885 194.654 286.158 185.489" stroke="#101828" stroke-width="0.429735"/>
<ellipse cx="7.00223" cy="29.8586" rx="7.00223" ry="29.8586" transform="matrix(-0.625494 -0.780229 -0.780229 0.625494 371.875 236)" fill="#FECC2F" stroke="#101828" stroke-width="0.569047"/>
<ellipse cx="348.706" cy="256.368" rx="7.00223" ry="29.8586" transform="rotate(64.3124 348.706 256.368)" fill="#FECC2F" stroke="#101828" stroke-width="0.569047"/>
<ellipse cx="347.138" cy="252.372" rx="7.00223" ry="29.8586" transform="rotate(57.797 347.138 252.372)" fill="#FECC2F" stroke="#101828" stroke-width="0.569047"/>
<ellipse cx="7.00223" cy="29.8586" rx="7.00223" ry="29.8586" transform="matrix(-0.733766 -0.679403 -0.679403 0.733766 367.125 229.062)" fill="#FECC2F" stroke="#101828" stroke-width="0.569047"/>
<ellipse cx="350.283" cy="259.863" rx="7.00223" ry="29.8586" transform="rotate(72.797 350.283 259.863)" fill="#FECC2F"/>
<path d="M321.76 268.694C322.904 272.389 336.601 271.43 352.354 266.552C368.106 261.675 379.949 254.727 378.805 251.032C377.662 247.338 363.964 248.297 348.212 253.174C345.717 253.947 343.321 254.771 341.059 255.626C339.225 256.319 337.48 257.032 335.841 257.754" stroke="#101828" stroke-width="0.569047"/>
<path d="M334.883 270.559C331.147 271.156 322.742 273.394 319.002 277.571C314.367 282.749 308.763 282.239 306.166 278.256L306.152 278.264C303.584 274.188 305.524 268.839 312.252 266.879C317.635 265.311 323.285 258.696 325.438 255.586C325.429 258.84 327.001 262.01 328.335 264.15L328.345 264.144C329.693 266.284 331.896 269.137 334.883 270.559Z" fill="#2DA17D"/>
<path d="M334.883 270.559L334.928 270.839C335.051 270.82 335.147 270.722 335.164 270.599C335.182 270.476 335.118 270.355 335.005 270.302L334.883 270.559ZM319.002 277.571L318.79 277.381L318.79 277.381L319.002 277.571ZM306.166 278.256L306.404 278.1C306.319 277.97 306.145 277.932 306.014 278.015L306.166 278.256ZM306.152 278.264L305.911 278.416C305.951 278.48 306.015 278.525 306.089 278.542C306.162 278.559 306.239 278.545 306.303 278.505L306.152 278.264ZM312.252 266.879L312.172 266.606L312.172 266.606L312.252 266.879ZM325.438 255.586L325.722 255.586C325.722 255.462 325.642 255.351 325.523 255.314C325.404 255.277 325.275 255.321 325.204 255.424L325.438 255.586ZM328.335 264.15L328.094 264.3C328.134 264.365 328.198 264.41 328.272 264.427C328.345 264.444 328.423 264.431 328.487 264.391L328.335 264.15ZM328.345 264.144L328.586 263.992C328.502 263.859 328.326 263.819 328.193 263.903L328.345 264.144ZM334.883 270.559L334.838 270.278C332.953 270.579 329.899 271.293 326.843 272.457C323.794 273.618 320.706 275.241 318.79 277.381L319.002 277.571L319.214 277.761C321.038 275.724 324.022 274.14 327.045 272.988C330.061 271.84 333.077 271.135 334.928 270.839L334.883 270.559ZM319.002 277.571L318.79 277.381C316.513 279.925 314.024 281.043 311.817 281.064C309.613 281.085 307.652 280.014 306.404 278.1L306.166 278.256L305.927 278.411C307.277 280.481 309.416 281.656 311.822 281.633C314.225 281.61 316.856 280.395 319.214 277.761L319.002 277.571ZM306.166 278.256L306.014 278.015L306 278.024L306.152 278.264L306.303 278.505L306.317 278.496L306.166 278.256ZM306.152 278.264L306.392 278.113C305.159 276.154 305.012 273.901 305.972 271.901C306.935 269.899 309.026 268.115 312.332 267.152L312.252 266.879L312.172 266.606C308.75 267.603 306.507 269.474 305.46 271.655C304.41 273.839 304.577 276.299 305.911 278.416L306.152 278.264ZM312.252 266.879L312.332 267.152C315.089 266.349 317.888 264.265 320.252 262.017C322.622 259.764 324.586 257.317 325.672 255.747L325.438 255.586L325.204 255.424C324.137 256.965 322.199 259.381 319.86 261.605C317.516 263.834 314.797 265.841 312.172 266.606L312.252 266.879ZM325.438 255.586L325.153 255.585C325.145 258.922 326.752 262.149 328.094 264.3L328.335 264.15L328.577 263.999C327.25 261.872 325.714 258.759 325.722 255.586L325.438 255.586ZM328.335 264.15L328.487 264.391L328.497 264.384L328.345 264.144L328.193 263.903L328.184 263.909L328.335 264.15ZM328.345 264.144L328.104 264.295C329.46 266.447 331.699 269.358 334.76 270.815L334.883 270.559L335.005 270.302C332.094 268.916 329.926 266.12 328.586 263.992L328.345 264.144Z" fill="#101828"/>
<g opacity="0.1">
<path d="M377.985 249.724C378.494 250.053 378.851 250.463 379.006 250.963C379.167 251.483 379.094 252.047 378.835 252.63C378.578 253.211 378.13 253.824 377.523 254.457C376.31 255.723 374.426 257.101 372.026 258.51C367.223 261.328 360.309 264.29 352.422 266.732C346.06 268.702 340.029 270.034 335.019 270.679C334.988 270.717 334.946 270.744 334.896 270.752C333.04 271.049 330.018 271.754 326.996 272.905C323.969 274.058 320.969 275.649 319.131 277.701C316.786 280.321 314.175 281.523 311.802 281.545C309.434 281.568 307.327 280.416 305.992 278.382C305.986 278.375 305.98 278.368 305.975 278.36C305.968 278.349 305.962 278.338 305.957 278.329L305.931 278.288C305.925 278.279 305.918 278.269 305.911 278.258C305.906 278.25 305.902 278.241 305.898 278.233C304.641 276.151 304.512 273.753 305.555 271.627C305.746 271.238 305.977 270.859 306.246 270.493C306.409 271.266 306.708 272.026 307.144 272.748C307.147 272.757 307.151 272.765 307.156 272.773C307.163 272.784 307.171 272.795 307.176 272.803L307.203 272.845C307.208 272.853 307.214 272.864 307.221 272.875C307.226 272.883 307.232 272.891 307.238 272.898C308.573 274.931 310.679 276.083 313.047 276.061C315.421 276.038 318.031 274.837 320.377 272.217C322.215 270.164 325.215 268.574 328.242 267.421C331.264 266.27 334.286 265.564 336.142 265.267C336.191 265.259 336.234 265.232 336.264 265.195C341.275 264.549 347.306 263.217 353.668 261.247C361.554 258.806 368.468 255.843 373.272 253.025C375.204 251.891 376.802 250.776 377.985 249.724Z" fill="#101828"/>
<path d="M375.754 243.229C375.44 243.193 375.112 243.164 374.77 243.143C374.932 242.969 375.086 242.797 375.233 242.628C375.449 242.799 375.624 242.999 375.754 243.229Z" fill="#101828"/>
<path d="M372.211 236.292C372.264 236.219 372.314 236.146 372.365 236.074C372.425 236.14 372.481 236.209 372.531 236.283C372.426 236.285 372.32 236.288 372.211 236.292Z" fill="#101828"/>
</g>
<path d="M331.835 301.25L107.463 363.89L25.2712 69.485L249.644 6.8452L331.835 301.25Z" fill="white"/>
<path d="M332.202 301.058L107.846 363.757L25.5772 69.3726L249.932 6.67372L332.202 301.058Z" fill="white" stroke="black" stroke-width="0.663888"/>
<path d="M212.136 76.4945L95.3143 109.288C87.1146 111.588 78.6037 106.754 76.3041 98.4892C74.004 90.2223 78.7866 81.6558 86.9861 79.356L203.808 46.5625C212.007 44.2607 220.518 49.0963 222.818 57.3612C225.118 65.6281 220.335 74.1947 212.136 76.4945Z" fill="#F9F4F2"/>
<path d="M85.7403 148.453C80.4636 149.927 77.3704 155.419 78.845 160.695C80.3195 165.971 85.8121 169.066 91.0888 167.59C96.3651 166.116 99.4583 160.624 97.9837 155.348C96.509 150.07 91.0166 146.977 85.7403 148.453ZM92.7334 173.475C84.2119 175.857 75.3418 170.862 72.9604 162.34C70.5789 153.818 75.5744 144.949 84.0957 142.568C92.6168 140.186 101.487 145.181 103.868 153.703C106.25 162.225 101.254 171.094 92.7334 173.475Z" fill="#EAEAEA"/>
<path d="M242.493 108.781L111.934 145.267L110.861 141.428L241.42 104.942L242.493 108.781Z" fill="#EAEAEA"/>
<path d="M205.204 127.927L114.199 153.358L113.127 149.52L204.131 124.086L205.204 127.927Z" fill="#EAEAEA"/>
<path d="M184.338 142.482L116.457 161.452L115.385 157.613L183.265 138.643L184.338 142.482Z" fill="#EAEAEA"/>
<path d="M96.2451 147.884L93.0098 146.061L87.0464 156.651L83.3534 154.571L81.5314 157.806L88.4573 161.706L88.4587 161.704L88.4611 161.705L96.2451 147.884Z" fill="#00A47B"/>
<path d="M102.404 208.135C97.1276 209.609 94.0345 215.103 95.5091 220.379C96.9836 225.655 102.476 228.748 107.753 227.274C113.029 225.8 116.122 220.306 114.648 215.03C113.173 209.754 107.681 206.661 102.404 208.135ZM109.398 233.159C100.876 235.539 92.0061 230.546 89.6246 222.024C87.243 213.502 92.2383 204.632 100.76 202.252C109.281 199.87 118.151 204.865 120.533 213.387C122.914 221.907 117.918 230.778 109.398 233.159Z" fill="#EAEAEA"/>
<path d="M259.179 168.47L128.621 204.956L127.549 201.117L258.106 164.632L259.179 168.47Z" fill="#EAEAEA"/>
<path d="M221.875 187.61L130.871 213.044L129.798 209.203L220.802 183.772L221.875 187.61Z" fill="#EAEAEA"/>
<path d="M201.017 202.166L133.137 221.136L132.064 217.297L199.944 198.327L201.017 202.166Z" fill="#EAEAEA"/>
<path d="M118.87 207.207L115.635 205.386L109.671 215.975L105.978 213.895L104.156 217.13L111.082 221.031L111.084 221.028L111.086 221.029L118.87 207.207Z" fill="#00A47B"/>
<path d="M117.732 262.916C112.456 264.392 109.362 269.884 110.837 275.16C112.312 280.436 117.804 283.529 123.081 282.055C128.357 280.581 131.451 275.089 129.976 269.813C128.501 264.535 123.009 261.442 117.732 262.916ZM124.725 287.94C116.204 290.322 107.334 285.327 104.953 276.805C102.571 268.283 107.567 259.414 116.088 257.032C124.609 254.651 133.479 259.646 135.86 268.168C138.242 276.688 133.247 285.558 124.725 287.94Z" fill="#EAEAEA"/>
<path d="M274.477 223.247L143.918 259.733L142.845 255.895L273.404 219.409L274.477 223.247Z" fill="#EAEAEA"/>
<path d="M237.18 242.394L146.176 267.827L145.103 263.988L236.107 238.555L237.18 242.394Z" fill="#EAEAEA"/>
<path d="M216.33 256.949L148.449 275.919L147.377 272.08L215.257 253.11L216.33 256.949Z" fill="#EAEAEA"/>
<path d="M132.175 260.992L128.939 259.171L122.976 269.76L119.283 267.68L117.461 270.915L124.387 274.816L124.388 274.814L124.391 274.815L132.175 260.992Z" fill="#00A47B"/>
<path d="M288.11 271.998L220.23 290.968L218.591 285.102L286.471 266.132L288.11 271.998Z" fill="#EAEAEA"/>
<path d="M315.472 241.225L313.506 234.19L313.965 232.146L313.99 232.04L315.954 239.081L315.472 241.225Z" fill="#C2C0BF"/>
<path d="M266.906 319.298L278.412 298.536L313.108 235.934L313.501 234.187L315.466 241.222L315.273 242.081L273.502 317.456L266.906 319.298Z" fill="#D7D6D4"/>
<path d="M297.663 227.366L242.718 326.511L258.185 335.084L313.131 235.939C312.515 234.711 310.681 231.459 306.732 229.268C302.769 227.07 299.029 227.239 297.663 227.366Z" fill="#00A47B"/>
<path d="M313.961 232.144L316.568 220.569C315.574 220.426 314.015 220.079 312.322 219.145C310.616 218.202 309.485 217.053 308.836 216.283C306.024 219.067 303.214 221.848 300.4 224.63C299.48 225.542 298.56 226.451 297.64 227.363C299.005 227.236 302.746 227.066 306.708 229.265C310.657 231.456 312.492 234.708 313.107 235.936L313.961 232.144Z" fill="#F7D9C1"/>
<path d="M316.596 220.569L320.057 205.206L308.863 216.284C309.512 217.054 310.643 218.203 312.35 219.146C314.043 220.079 315.602 220.427 316.596 220.569Z" fill="#00A47B"/>
<mask id="mask0_9693_31150" style="mask-type:luminance" maskUnits="userSpaceOnUse" x="317" y="209" width="3" height="7">
<path d="M317.633 215.875L319.176 209.027L317.634 215.873L317.633 215.875Z" fill="white"/>
</mask>
<g mask="url(#mask0_9693_31150)">
<path d="M317.633 215.875L319.176 209.027L317.634 215.873L317.633 215.875Z" fill="url(#paint0_radial_9693_31150)"/>
</g>
<mask id="mask1_9693_31150" style="mask-type:luminance" maskUnits="userSpaceOnUse" x="314" y="215" width="4" height="18">
<path d="M316.59 220.567L317.647 215.875L317.648 215.873L316.59 220.567Z" fill="white"/>
</mask>
<g mask="url(#mask1_9693_31150)">
<path d="M316.59 220.567L317.647 215.875L317.648 215.873L316.59 220.567Z" fill="url(#paint1_radial_9693_31150)"/>
</g>
<path d="M278.43 298.539L313.124 235.936L313.518 234.189L313.125 235.936L278.43 298.539Z" fill="#C4C2C0"/>
<path d="M258.183 335.081L250.449 330.793L306.718 229.259C306.72 229.261 306.724 229.262 306.728 229.265C310.677 231.456 312.512 234.708 313.127 235.935L278.433 298.538L258.183 335.081Z" fill="#137159"/>
<path d="M297.663 227.36L297.632 227.029C297.523 227.039 297.426 227.103 297.373 227.199L297.663 227.36ZM306.732 229.262L306.893 228.972L306.893 228.972L306.732 229.262ZM313.13 235.933L313.421 236.094C313.474 235.998 313.476 235.882 313.427 235.784L313.13 235.933ZM258.185 335.079L258.02 335.367C258.097 335.411 258.189 335.422 258.275 335.399C258.36 335.375 258.433 335.317 258.476 335.24L258.185 335.079ZM258.177 335.074L258.342 334.786C258.252 334.735 258.144 334.728 258.049 334.768C257.954 334.808 257.882 334.889 257.856 334.989L258.177 335.074ZM258.176 335.079L258.015 335.369C258.104 335.419 258.212 335.424 258.306 335.384C258.4 335.344 258.47 335.263 258.497 335.164L258.176 335.079ZM250.441 330.792L250.138 330.657C250.068 330.814 250.13 330.999 250.28 331.082L250.441 330.792ZM250.443 330.787L250.747 330.921C250.816 330.764 250.755 330.58 250.604 330.496L250.443 330.787ZM242.718 326.505L242.428 326.344C242.339 326.505 242.397 326.707 242.557 326.796L242.718 326.505ZM297.663 227.36L297.694 227.69C299.03 227.566 302.693 227.401 306.571 229.553L306.732 229.262L306.893 228.972C302.846 226.727 299.027 226.9 297.632 227.029L297.663 227.36ZM306.732 229.262L306.571 229.553C310.436 231.697 312.231 234.881 312.834 236.082L313.13 235.933L313.427 235.784C312.798 234.531 310.926 231.21 306.893 228.972L306.732 229.262ZM313.13 235.933L312.84 235.772L257.895 334.918L258.185 335.079L258.476 335.24L313.421 236.094L313.13 235.933ZM258.185 335.079L258.351 334.791L258.342 334.786L258.177 335.074L258.012 335.362L258.02 335.367L258.185 335.079ZM258.177 335.074L257.856 334.989L257.855 334.994L258.176 335.079L258.497 335.164L258.498 335.159L258.177 335.074ZM258.176 335.079L258.336 334.789L250.602 330.502L250.441 330.792L250.28 331.082L258.015 335.369L258.176 335.079ZM250.441 330.792L250.744 330.926L250.747 330.921L250.443 330.787L250.14 330.652L250.138 330.657L250.441 330.792ZM250.443 330.787L250.604 330.496L242.879 326.215L242.718 326.505L242.557 326.796L250.282 331.077L250.443 330.787ZM242.718 326.505L243.008 326.666L297.953 227.521L297.663 227.36L297.373 227.199L242.428 326.344L242.718 326.505Z" fill="black"/>
<path d="M313.11 235.934C312.495 234.707 310.66 231.455 306.711 229.264C306.707 229.26 306.704 229.259 306.702 229.258L312.312 219.136C312.316 219.139 312.321 219.14 312.325 219.143C314.018 220.077 315.577 220.424 316.571 220.567L313.988 232.037L313.964 232.143L313.505 234.187L313.11 235.934Z" fill="#E1C5AF"/>
<path d="M308.859 216.285C309.508 217.055 310.639 218.204 312.345 219.147C314.038 220.081 315.598 220.428 316.592 220.57L313.984 232.146L313.13 235.937C313.128 235.932 313.124 235.926 313.121 235.921L313.118 235.94C312.502 234.712 310.668 231.461 306.72 229.27C306.716 229.267 306.712 229.265 306.71 229.263L306.713 229.257C302.757 227.069 299.026 227.238 297.663 227.365C298.583 226.453 299.503 225.543 300.423 224.632C303.237 221.85 306.048 219.069 308.859 216.285Z" fill="#FEE29E"/>
<path d="M308.859 216.285L309.113 216.071C309.053 216 308.967 215.957 308.874 215.953C308.782 215.949 308.692 215.984 308.626 216.049L308.859 216.285ZM312.345 219.147L312.185 219.438L312.185 219.438L312.345 219.147ZM316.592 220.57L316.916 220.643C316.936 220.553 316.918 220.458 316.865 220.382C316.813 220.306 316.731 220.255 316.639 220.242L316.592 220.57ZM313.984 232.146L313.66 232.073L313.66 232.073L313.984 232.146ZM313.13 235.937L312.834 236.086C312.896 236.211 313.031 236.284 313.171 236.267C313.31 236.25 313.423 236.147 313.454 236.01L313.13 235.937ZM313.121 235.921L313.418 235.771C313.354 235.644 313.216 235.572 313.075 235.592C312.933 235.612 312.821 235.72 312.795 235.86L313.121 235.921ZM313.118 235.94L312.821 236.088C312.885 236.216 313.023 236.288 313.164 236.268C313.306 236.248 313.418 236.14 313.444 236L313.118 235.94ZM306.72 229.27L306.515 229.531C306.529 229.542 306.543 229.552 306.558 229.56L306.72 229.27ZM306.71 229.263L306.413 229.114C306.342 229.257 306.382 229.43 306.508 229.527L306.71 229.263ZM306.713 229.257L307.01 229.406C307.09 229.246 307.03 229.053 306.874 228.966L306.713 229.257ZM297.663 227.365L297.43 227.129C297.33 227.227 297.303 227.378 297.362 227.505C297.422 227.632 297.554 227.708 297.694 227.695L297.663 227.365ZM300.423 224.632L300.19 224.396L300.19 224.396L300.423 224.632ZM308.859 216.285L308.605 216.499C309.272 217.29 310.433 218.47 312.185 219.438L312.345 219.147L312.506 218.857C310.845 217.939 309.745 216.82 309.113 216.071L308.859 216.285ZM312.345 219.147L312.185 219.438C313.923 220.396 315.524 220.752 316.545 220.899L316.592 220.57L316.639 220.242C315.671 220.103 314.153 219.765 312.506 218.856L312.345 219.147ZM316.592 220.57L316.268 220.497L313.66 232.073L313.984 232.146L314.308 232.219L316.916 220.643L316.592 220.57ZM313.984 232.146L313.66 232.073L312.806 235.864L313.13 235.937L313.454 236.01L314.308 232.219L313.984 232.146ZM313.13 235.937L313.427 235.788C313.424 235.783 313.422 235.778 313.42 235.775C313.418 235.772 313.417 235.769 313.416 235.767C313.415 235.766 313.415 235.766 313.415 235.766C313.416 235.767 313.417 235.769 313.418 235.771L313.121 235.921L312.825 236.07C312.828 236.075 312.83 236.08 312.832 236.083C312.834 236.086 312.835 236.089 312.836 236.09C312.837 236.092 312.837 236.092 312.836 236.091C312.836 236.091 312.835 236.089 312.834 236.086L313.13 235.937ZM313.121 235.921L312.795 235.86L312.791 235.879L313.118 235.94L313.444 236L313.448 235.981L313.121 235.921ZM313.118 235.94L313.415 235.791C312.786 234.537 310.913 231.217 306.881 228.979L306.72 229.27L306.558 229.56C310.423 231.704 312.219 234.888 312.821 236.088L313.118 235.94ZM306.72 229.27L306.924 229.008C306.911 228.998 306.899 228.99 306.895 228.988C306.894 228.987 306.893 228.986 306.893 228.986C306.893 228.986 306.894 228.987 306.894 228.987C306.895 228.988 306.897 228.989 306.9 228.991C306.902 228.993 306.907 228.996 306.912 228.999L306.71 229.263L306.508 229.527C306.514 229.531 306.518 229.534 306.521 229.536C306.525 229.539 306.527 229.54 306.529 229.541C306.53 229.542 306.532 229.543 306.532 229.544C306.533 229.544 306.533 229.544 306.533 229.544C306.532 229.543 306.525 229.539 306.515 229.531L306.72 229.27ZM306.71 229.263L307.007 229.412L307.01 229.406L306.713 229.257L306.416 229.108L306.413 229.114L306.71 229.263ZM306.713 229.257L306.874 228.966C302.834 226.732 299.025 226.905 297.632 227.034L297.663 227.365L297.694 227.695C299.028 227.571 302.681 227.406 306.552 229.547L306.713 229.257ZM297.663 227.365L297.897 227.6C298.357 227.145 298.817 226.689 299.277 226.234C299.737 225.779 300.197 225.323 300.657 224.868L300.423 224.632L300.19 224.396C299.73 224.852 299.27 225.307 298.81 225.762C298.35 226.218 297.89 226.673 297.43 227.129L297.663 227.365ZM300.423 224.632L300.657 224.868C303.471 222.086 306.281 219.305 309.093 216.521L308.859 216.285L308.626 216.049C305.814 218.833 303.004 221.614 300.19 224.396L300.423 224.632Z" fill="black"/>
<path d="M316.576 220.57C315.582 220.427 314.023 220.08 312.33 219.146C312.326 219.143 312.321 219.142 312.317 219.139L320.038 205.206L319.176 209.031L317.633 215.878L316.576 220.57Z" fill="#0A8566"/>
</g>
</g>
<defs>
<radialGradient id="paint0_radial_9693_31150" cx="0" cy="0" r="1" gradientUnits="userSpaceOnUse" gradientTransform="translate(186.224 190.944) rotate(-7.03481) scale(218.019 218.021)">
<stop stop-color="#D45241"/>
<stop offset="1" stop-color="#D15140"/>
</radialGradient>
<radialGradient id="paint1_radial_9693_31150" cx="0" cy="0" r="1" gradientUnits="userSpaceOnUse" gradientTransform="translate(186.237 190.945) rotate(-7.03481) scale(218.022 218.021)">
<stop stop-color="#B34738"/>
<stop offset="1" stop-color="#B14637"/>
</radialGradient>
<clipPath id="clip0_9693_31150">
<rect width="397" height="282" fill="white"/>
</clipPath>
<clipPath id="clip1_9693_31150">
<rect y="-218" width="397.333" height="500" rx="20" fill="white"/>
</clipPath>
</defs>
</svg>
