<svg width="55" height="55" viewBox="0 0 55 55" fill="none" xmlns="http://www.w3.org/2000/svg">
<rect width="55" height="55" rx="10.7714" fill="#DCEBFF"/>
<path d="M27.5 45C37.165 45 45 37.165 45 27.5C45 17.835 37.165 10 27.5 10C17.835 10 10 17.835 10 27.5C10 37.165 17.835 45 27.5 45Z" fill="white" stroke="#101828" stroke-width="0.35"/>
<path d="M27.5019 43.9969C36.6129 43.9969 43.9989 36.611 43.9989 27.4999C43.9989 18.3889 36.6129 11.0029 27.5019 11.0029C18.3908 11.0029 11.0049 18.3889 11.0049 27.4999C11.0049 36.611 18.3908 43.9969 27.5019 43.9969Z" fill="#FFF4D9" stroke="#101828" stroke-width="0.340994"/>
<path d="M27.4904 41.9447C35.4684 41.9447 41.9359 35.4772 41.9359 27.4992C41.9359 19.5212 35.4684 13.0537 27.4904 13.0537C19.5124 13.0537 13.0449 19.5212 13.0449 27.4992C13.0449 35.4772 19.5124 41.9447 27.4904 41.9447Z" fill="url(#paint0_linear_10283_3288)"/>
<path d="M27.4904 41.9447C35.4684 41.9447 41.9359 35.4772 41.9359 27.4992C41.9359 19.5212 35.4684 13.0537 27.4904 13.0537C19.5124 13.0537 13.0449 19.5212 13.0449 27.4992C13.0449 35.4772 19.5124 41.9447 27.4904 41.9447Z" fill="#D0ECE5" stroke="#101828" stroke-width="0.35"/>
<path d="M31.9689 28.1866L37.0002 27.503L31.9689 26.8195C30.8841 26.6721 30.3612 25.4096 31.024 24.5384L32.8117 22.1885L30.4618 23.9762C29.5906 24.639 28.3281 24.1161 28.1808 23.0313L27.4972 18L26.8136 23.0313C26.6662 24.1161 25.4038 24.639 24.5325 23.9762L22.1826 22.1885L23.9703 24.5384C24.6332 25.4096 24.1102 26.6721 23.0255 26.8195L17.9941 27.503L23.0255 28.1866C24.1102 28.334 24.6332 29.5964 23.9703 30.4677L22.1826 32.8176L24.5325 31.0299C25.4038 30.367 26.6662 30.89 26.8136 31.9747L27.4972 37.0061L28.1808 31.9747C28.3281 30.89 29.5906 30.367 30.4618 31.0299L32.8117 32.8176L31.024 30.4677C30.3613 29.5964 30.8841 28.334 31.9689 28.1866Z" fill="#00A47B"/>
<path opacity="0.35" d="M27.4922 41.9457C35.4702 41.9457 41.9377 35.4782 41.9377 27.5002C41.9377 19.5222 35.4702 13.0547 27.4922 13.0547V41.9457Z" fill="#00A47B" stroke="#00A47B" stroke-width="0.35"/>
<path d="M34.133 20.3066L25.5117 25.5095L27.5017 27.4994L29.4916 29.4894L34.6946 20.8681C34.9151 20.5026 34.4986 20.086 34.133 20.3066Z" fill="#E7A200" stroke="black" stroke-width="0.35" stroke-linejoin="round"/>
<path opacity="0.15" d="M29.8711 28.5186C29.66 28.8683 29.1765 28.9265 28.8877 28.6377L28.1924 27.9424C27.9469 27.6968 27.9469 27.2993 28.1924 27.0537L34.3701 20.875C34.4011 20.844 34.4398 20.8232 34.4785 20.8115C34.4964 20.8061 34.5129 20.802 34.5273 20.8008L29.8711 28.5186Z" fill="#101828" stroke="#101828" stroke-width="0.35"/>
<path d="M20.3115 34.1311L25.5144 25.5098L27.5043 27.4997L29.4942 29.4897L20.873 34.6926C20.5075 34.9132 20.0909 34.4966 20.3115 34.1311Z" fill="url(#paint1_linear_10283_3288)" stroke="black" stroke-width="0.35" stroke-linejoin="round"/>
<path opacity="0.15" d="M27.0557 28.1924C27.3013 27.9469 27.6988 27.9469 27.9443 28.1924L28.6396 28.8877C28.9285 29.1765 28.8702 29.66 28.5205 29.8711L20.8027 34.5273C20.8039 34.5129 20.8081 34.4964 20.8135 34.4785C20.8252 34.4398 20.846 34.4011 20.877 34.3701L27.0557 28.1924Z" fill="#101828" stroke="#101828" stroke-width="0.35"/>
<path d="M27.5028 28.906C28.2799 28.906 28.9099 28.276 28.9099 27.4989C28.9099 26.7218 28.2799 26.0918 27.5028 26.0918C26.7257 26.0918 26.0957 26.7218 26.0957 27.4989C26.0957 28.276 26.7257 28.906 27.5028 28.906Z" fill="#101828"/>
<path d="M27.5534 14.2363H27.4503C27.0328 14.2363 26.6943 14.5748 26.6943 14.9923V15.9327C26.6943 16.3503 27.0328 16.6887 27.4503 16.6887H27.5534C27.9709 16.6887 28.3094 16.3503 28.3094 15.9327V14.9923C28.3093 14.5748 27.9709 14.2363 27.5534 14.2363Z" fill="#101828"/>
<path d="M27.5534 38.3115H27.4503C27.0328 38.3115 26.6943 38.65 26.6943 39.0675V40.008C26.6943 40.4255 27.0328 40.764 27.4503 40.764H27.5534C27.9709 40.764 28.3094 40.4255 28.3094 40.008V39.0675C28.3093 38.65 27.9709 38.3115 27.5534 38.3115Z" fill="#101828"/>
<path d="M40.009 26.6904H39.0685C38.651 26.6904 38.3125 27.0289 38.3125 27.4464V27.5495C38.3125 27.967 38.651 28.3055 39.0685 28.3055H40.009C40.4265 28.3055 40.765 27.967 40.765 27.5495V27.4464C40.765 27.0289 40.4264 26.6904 40.009 26.6904Z" fill="#101828"/>
<path d="M16.6946 27.5495V27.4464C16.6946 27.0289 16.3562 26.6904 15.9387 26.6904H14.9982C14.5806 26.6904 14.2422 27.0289 14.2422 27.4464V27.5495C14.2422 27.967 14.5806 28.3055 14.9982 28.3055H15.9387C16.3562 28.3054 16.6946 27.967 16.6946 27.5495Z" fill="#101828"/>
<path d="M16.9781 22.8054L15.4881 22.2379C15.3599 22.1892 15.2177 22.2538 15.1677 22.3817C15.1189 22.5099 15.1832 22.6532 15.3114 22.7022L16.8014 23.2696C16.9269 23.3174 17.0672 23.2565 17.1187 23.1335C17.1198 23.131 17.1208 23.1284 17.1218 23.1259C17.1706 22.9976 17.1064 22.8543 16.9781 22.8054Z" fill="#101828"/>
<path d="M39.6803 32.2995L38.1903 31.7321C38.0621 31.6833 37.9199 31.7479 37.8698 31.8758C37.8211 32.0039 37.8853 32.1474 38.0135 32.1962L39.5035 32.7637C39.6291 32.8115 39.7694 32.7506 39.8209 32.6276C39.8219 32.6251 39.8229 32.6225 39.8239 32.62C39.8729 32.4918 39.8085 32.3484 39.6803 32.2995Z" fill="#101828"/>
<path d="M32.6239 15.1726C32.4958 15.1238 32.3524 15.1881 32.3035 15.3162L31.736 16.8062C31.6882 16.9318 31.7491 17.0721 31.8721 17.1236C31.8746 17.1246 31.8772 17.1257 31.8797 17.1266C32.0079 17.1754 32.1512 17.1111 32.2002 16.983L32.7676 15.493C32.8164 15.3647 32.7518 15.2225 32.6239 15.1726Z" fill="#101828"/>
<path d="M23.1278 37.8698C22.9997 37.8211 22.8562 37.8853 22.8074 38.0135L22.2399 39.5035C22.1921 39.6291 22.253 39.7694 22.376 39.8209C22.3785 39.8219 22.3811 39.8229 22.3836 39.8239C22.5118 39.8727 22.6553 39.8084 22.7041 39.6802L23.2715 38.1902C23.3203 38.062 23.2557 37.9197 23.1278 37.8698Z" fill="#101828"/>
<path d="M19.4931 35.4162C19.3933 35.3222 19.2362 35.3269 19.1421 35.4267L18.0488 36.5872C17.9547 36.6871 17.9601 36.8432 18.0592 36.9382C18.159 37.0322 18.3161 37.0275 18.4102 36.9277L19.5036 35.7672C19.5957 35.6693 19.593 35.5165 19.499 35.4219C19.4971 35.4199 19.4951 35.4181 19.4931 35.4162Z" fill="#101828"/>
<path d="M36.9345 18.0617C36.8347 17.9677 36.6776 17.9724 36.5835 18.0722L35.4902 19.2327C35.3961 19.3326 35.4015 19.4887 35.5006 19.5837C35.6004 19.6777 35.7576 19.673 35.8516 19.5732L36.945 18.4127C37.0371 18.3148 37.0344 18.162 36.9404 18.0674C36.9385 18.0656 36.9364 18.0636 36.9345 18.0617Z" fill="#101828"/>
<path d="M18.4146 18.0507C18.3147 17.9567 18.1586 17.9621 18.0636 18.0612C17.9696 18.161 17.9743 18.3181 18.0741 18.4122L19.2346 19.5055C19.3325 19.5977 19.4854 19.595 19.58 19.5009C19.5819 19.499 19.5838 19.4971 19.5857 19.4951C19.6797 19.3953 19.675 19.2381 19.5752 19.1441L18.4146 18.0507Z" fill="#101828"/>
<path d="M35.7672 35.4931C35.6673 35.3991 35.5112 35.4044 35.4162 35.5036C35.3222 35.6033 35.3269 35.7605 35.4267 35.8546L36.5872 36.9479C36.6851 37.0401 36.8379 37.0373 36.9325 36.9433C36.9344 36.9414 36.9364 36.9394 36.9383 36.9374C37.0323 36.8377 37.0276 36.6805 36.9278 36.5864L35.7672 35.4931Z" fill="#101828"/>
<path d="M17.0729 31.7405C17.0167 31.6154 16.8698 31.5595 16.7447 31.6155L15.2899 32.2679C15.1648 32.324 15.1099 32.4704 15.1649 32.5961C15.2209 32.7212 15.3679 32.7772 15.4931 32.7211L16.9479 32.0687C17.0705 32.0137 17.1267 31.8715 17.076 31.748C17.0751 31.7456 17.074 31.743 17.0729 31.7405Z" fill="#101828"/>
<path d="M38.2548 23.3842L39.7097 22.7318C39.8323 22.6767 39.8885 22.5345 39.8378 22.4111C39.8368 22.4086 39.8357 22.4061 39.8346 22.4036C39.7785 22.2785 39.6315 22.2225 39.5064 22.2786L38.0516 22.931C37.9265 22.9871 37.8716 23.1335 37.9266 23.2592C37.9827 23.3843 38.1296 23.4402 38.2548 23.3842Z" fill="#101828"/>
<path d="M22.7357 15.2879C22.6796 15.1628 22.5332 15.1079 22.4075 15.1629C22.2824 15.2191 22.2265 15.366 22.2825 15.4911L22.9349 16.9459C22.9899 17.0686 23.1321 17.1247 23.2556 17.0741C23.258 17.073 23.2606 17.0719 23.2631 17.0709C23.3882 17.0148 23.4441 16.8679 23.3881 16.7427L22.7357 15.2879Z" fill="#101828"/>
<path d="M32.0765 38.0516C32.0204 37.9265 31.874 37.8716 31.7483 37.9266C31.6232 37.9827 31.5673 38.1296 31.6233 38.2548L32.2757 39.7096C32.3308 39.8323 32.473 39.8884 32.5964 39.8378C32.5989 39.8367 32.6014 39.8356 32.6039 39.8345C32.729 39.7784 32.785 39.6315 32.7289 39.5064L32.0765 38.0516Z" fill="#101828"/>
<defs>
<linearGradient id="paint0_linear_10283_3288" x1="19.6447" y1="19.6524" x2="34.5749" y2="34.5826" gradientUnits="userSpaceOnUse">
<stop stop-color="#00A6F9"/>
<stop offset="1" stop-color="#0071E2"/>
</linearGradient>
<linearGradient id="paint1_linear_10283_3288" x1="22.3661" y1="29.4925" x2="26.9365" y2="34.063" gradientUnits="userSpaceOnUse">
<stop stop-color="white"/>
<stop offset="1" stop-color="#E8EFEE"/>
</linearGradient>
</defs>
</svg>
