<svg width="614" height="664" viewBox="0 0 614 664" fill="none" xmlns="http://www.w3.org/2000/svg">
<g clip-path="url(#clip0_832_12636)">
<path opacity="0.8" d="M419.684 246.393L483.709 237.683C483.822 237.668 483.905 237.565 483.893 237.454L480.583 205.661C480.572 205.55 480.47 205.473 480.357 205.488L416.332 214.198C416.219 214.214 416.136 214.316 416.148 214.427L419.458 246.22C419.469 246.331 419.57 246.409 419.684 246.393Z" fill="black" fill-opacity="0.3"/>
<path d="M480.264 206.341L483.539 237.804L420.81 246.338L417.534 214.875L480.264 206.341Z" fill="#2DA17D" stroke="black" stroke-width="0.550893"/>
<path d="M454.748 238.857L478.481 215.656C479.193 216.824 478.703 218.38 479.096 219.632L460.785 238.024C459.31 237.96 456.965 238.873 454.661 238.97L454.748 238.857Z" fill="#FFF6E9" fill-opacity="0.3"/>
<path d="M463.311 237.718L479.361 222.321C479.514 223.568 479.59 224.004 479.863 224.855L467.018 237.258C465.956 237.23 464.29 237.72 463.248 237.796L463.311 237.718Z" fill="#FFF6E9" fill-opacity="0.3"/>
<path d="M474.851 235.613C474.643 232.589 476.78 229.87 479.718 229.371C482.657 228.872 479.868 229.403 479.899 229.538L480.425 234.84C480.44 234.907 480.389 234.993 480.255 235.028L475.016 235.712C474.949 235.73 474.851 235.613 474.835 235.546L474.851 235.613Z" fill="#005D46"/>
<path d="M472.253 210.767C472.221 210.632 472.174 210.43 472.21 210.277L477.582 209.558C477.648 209.54 477.731 209.589 477.762 209.724L478.331 215.514C478.347 215.582 478.229 215.685 478.162 215.703C475.177 215.999 472.476 213.857 472.186 210.785L472.253 210.767Z" fill="#005D46"/>
<path d="M423.404 242.557L422.878 237.257C422.863 237.19 422.981 237.087 423.047 237.069C426.032 236.772 428.65 238.864 429.058 241.834C429.466 244.803 429.023 241.986 428.889 242.022L423.651 242.706C423.584 242.724 423.502 242.674 423.471 242.539L423.404 242.557Z" fill="#005D46"/>
<path d="M421.459 223.208L420.891 217.417C420.875 217.349 420.926 217.264 421.06 217.228L426.433 216.508C426.464 216.643 426.512 216.845 426.543 216.98C426.833 220.053 424.712 222.84 421.707 223.357C418.702 223.874 421.558 223.325 421.526 223.19L421.459 223.208Z" fill="#005D46"/>
<path d="M480.704 234.999L478.069 209.691C478.061 209.615 477.994 209.561 477.918 209.571L421.269 217.278C421.194 217.289 421.139 217.359 421.147 217.435L423.782 242.743C423.789 242.82 423.857 242.873 423.933 242.863L480.582 235.156C480.657 235.146 480.712 235.075 480.704 234.999Z" stroke="#005D46" stroke-width="1.2223" stroke-miterlimit="10"/>
<path d="M465.082 220.564C463.457 220.998 462.449 222.678 462.831 224.316C463.213 225.954 464.84 226.93 466.464 226.495C468.089 226.061 469.097 224.381 468.715 222.743C468.333 221.106 466.707 220.13 465.082 220.564Z" fill="#005D46"/>
<path d="M434.679 224.685C433.055 225.119 432.047 226.799 432.429 228.437C432.811 230.074 434.437 231.05 436.062 230.616C437.687 230.182 438.694 228.502 438.313 226.864C437.931 225.226 436.304 224.25 434.679 224.685Z" fill="#005D46"/>
<path d="M448.711 217.778C444.132 219.001 441.293 223.735 442.369 228.351C443.444 232.967 448.029 235.717 452.608 234.493C457.186 233.269 460.026 228.536 458.95 223.92C457.874 219.304 453.29 216.554 448.711 217.778Z" fill="#005D46"/>
<path d="M450.763 221.669L450.778 221.736C452.894 221.672 453.809 222.859 453.927 223.973C453.927 223.973 453.927 223.973 453.86 223.99L452.342 224.181C452.342 224.181 452.342 224.181 452.327 224.114C452.217 223.642 451.69 223.21 450.892 223.137L450.825 223.155L451.056 225.67C451.056 225.67 451.056 225.67 451.072 225.738C452.853 225.763 454.044 226.303 454.205 227.907C454.381 229.577 453.001 230.662 451.664 231.019C451.664 231.019 451.664 231.019 451.597 231.037L451.699 232.084L450.799 232.181C450.799 232.181 450.799 232.181 450.783 232.114L450.666 231L450.65 230.932C449.301 230.935 447.981 230.143 447.851 228.674L449.369 228.483C449.369 228.483 449.369 228.483 449.385 228.551C449.479 228.955 449.789 229.373 450.387 229.5L450.454 229.482L450.234 227.322C450.234 227.322 450.234 227.321 450.218 227.254C448.87 227.257 447.176 226.994 446.972 224.901C446.78 223.163 448.128 221.943 449.63 221.685L449.697 221.667L449.595 220.621C449.595 220.621 449.595 220.621 449.662 220.603L450.563 220.505C450.563 220.505 450.563 220.505 450.578 220.573L450.68 221.619L450.763 221.669ZM451.465 227.422L451.398 227.44L451.602 229.533C451.602 229.533 451.617 229.6 451.684 229.582C452.419 229.386 452.844 228.771 452.77 228.147C452.695 227.523 452.149 227.311 451.433 227.287L451.465 227.422ZM450.105 225.853L450.172 225.835L449.905 223.473C449.905 223.473 449.889 223.405 449.823 223.423C449.02 223.638 448.529 224.27 448.619 224.962C448.729 225.433 449.122 225.901 450.054 225.938L450.105 225.853Z" fill="#E9F3E7"/>
<path opacity="0.8" d="M365.031 71.8528L408.338 27.4529C408.414 27.3744 408.416 27.2483 408.342 27.1712L387.063 5.06636C386.988 4.98926 386.866 4.9904 386.79 5.06891L343.482 49.4688C343.406 49.5473 343.404 49.6734 343.478 49.7505L364.758 71.8553C364.832 71.9324 364.954 71.9313 365.031 71.8528Z" fill="black" fill-opacity="0.3"/>
<path d="M387.222 5.78477L408.265 27.6439L365.85 71.1294L344.807 49.2703L387.222 5.78477Z" fill="#2DA17D" stroke="black" stroke-width="0.550893"/>
<path d="M387.114 45.4453L391.374 13.873C392.603 14.3365 393.15 15.8033 394.187 16.5182L391.191 41.2495C390.037 42.0727 388.802 44.148 387.115 45.5824L387.114 45.4453Z" fill="#FFF6E9" fill-opacity="0.3"/>
<path d="M392.924 39.524L395.978 18.3949C396.83 19.2481 397.145 19.533 397.853 20.0161L395.458 36.9867C394.637 37.5928 393.666 38.9474 392.922 39.6208L392.924 39.524Z" fill="#FFF6E9" fill-opacity="0.3"/>
<path d="M400.411 31.1185C398.468 28.9528 398.479 25.6332 400.408 23.5204C402.337 21.4077 400.54 23.4561 400.643 23.5396L404.172 27.2417C404.224 27.2834 404.236 27.3782 404.155 27.4842L400.594 31.096C400.554 31.149 400.411 31.1185 400.359 31.0768L400.411 31.1185Z" fill="#005D46"/>
<path d="M383.772 13.8499C383.669 13.7664 383.514 13.6413 383.45 13.5048L387.09 9.7881C387.13 9.7351 387.222 9.72381 387.325 9.80726L391.175 13.8533C391.227 13.895 391.198 14.0428 391.158 14.0958C389.075 16.0827 385.766 16.0567 383.732 13.9029L383.772 13.8499Z" fill="#005D46"/>
<path d="M365.58 66.7544L362.052 63.0536C362.001 63.0119 362.029 62.8642 362.069 62.8112C364.152 60.8244 367.369 60.8616 369.431 62.8676C371.494 64.8736 369.495 63.004 369.415 63.11L365.855 66.7205C365.815 66.7735 365.723 66.7848 365.62 66.7013L365.58 66.7544Z" fill="#005D46"/>
<path d="M352.685 53.2572L348.835 49.2102C348.783 49.1685 348.772 49.0737 348.852 48.9677L352.493 45.2501C352.596 45.3335 352.751 45.4587 352.854 45.5422C354.889 47.6966 354.93 51.0578 352.961 53.2234C350.992 55.389 352.829 53.2877 352.725 53.2042L352.685 53.2572Z" fill="#005D46"/>
<path d="M404.477 27.1961L387.538 9.60031C387.487 9.5472 387.404 9.54657 387.353 9.59892L349.035 48.8836C348.984 48.936 348.984 49.0215 349.035 49.0746L365.974 66.6704C366.025 66.7235 366.108 66.7241 366.159 66.6718L404.477 27.387C404.528 27.3347 404.528 27.2492 404.477 27.1961Z" stroke="#005D46" stroke-width="1.2223" stroke-miterlimit="10"/>
<path d="M384.134 25.4964C383.161 26.7844 383.391 28.6506 384.647 29.6646C385.903 30.6786 387.71 30.4565 388.683 29.1684C389.656 27.8804 389.427 26.0142 388.171 25.0002C386.915 23.9861 385.108 24.2083 384.134 25.4964Z" fill="#005D46"/>
<path d="M363.56 46.5686C362.587 47.8567 362.817 49.7229 364.073 50.7369C365.329 51.7509 367.136 51.5288 368.109 50.2407C369.082 48.9526 368.853 47.0864 367.597 46.0724C366.341 45.0584 364.533 45.2806 363.56 46.5686Z" fill="#005D46"/>
<path d="M370.102 33.0564C367.359 36.6864 368.006 41.9457 371.546 44.8034C375.086 47.6611 380.179 47.035 382.921 43.405C385.664 39.775 385.017 34.5157 381.477 31.658C377.937 28.8003 372.844 29.4264 370.102 33.0564Z" fill="#005D46"/>
<path d="M373.953 34.7887L374.005 34.8304C375.568 33.5328 376.961 33.8902 377.708 34.6636C377.708 34.6636 377.708 34.6636 377.668 34.7166L376.632 35.7572C376.632 35.7572 376.632 35.7572 376.581 35.7155C376.219 35.4235 375.565 35.4077 374.918 35.8237L374.878 35.8767L376.538 37.6434C376.538 37.6434 376.538 37.6433 376.59 37.6851C377.953 36.6523 379.173 36.3581 380.242 37.4765C381.362 38.6366 380.958 40.2725 380.157 41.3323C380.157 41.3323 380.157 41.3323 380.117 41.3853L380.812 42.117L380.188 42.7224C380.188 42.7224 380.188 42.7224 380.137 42.6807L379.39 41.9073L379.338 41.8655C378.319 42.6638 376.852 42.8442 375.887 41.8092L376.922 40.7686C376.922 40.7686 376.922 40.7686 376.974 40.8103C377.284 41.0606 377.766 41.1936 378.293 40.9366L378.333 40.8836L376.891 39.3785C376.891 39.3785 376.891 39.3785 376.84 39.3368C375.821 40.135 374.383 40.9366 372.993 39.4732C371.821 38.2713 372.122 36.552 373.106 35.4697L373.146 35.4167L372.451 34.685C372.451 34.685 372.451 34.685 372.491 34.632L373.115 34.0266C373.115 34.0266 373.115 34.0266 373.166 34.0683L373.861 34.8L373.953 34.7887ZM377.882 38.7279L377.842 38.7809L379.232 40.2443C379.232 40.2443 379.284 40.286 379.324 40.2331C379.764 39.6502 379.723 38.9343 379.297 38.5058C378.872 38.0774 378.334 38.2398 377.778 38.6445L377.882 38.7279ZM375.926 38.3435L375.966 38.2905L374.369 36.6603C374.369 36.6603 374.318 36.6185 374.278 36.6715C373.797 37.3074 373.799 38.0763 374.275 38.5464C374.637 38.8384 375.211 38.9602 375.938 38.4382L375.926 38.3435Z" fill="#E9F3E7"/>
<circle cx="575.566" cy="85.3807" r="0.488295" transform="rotate(167.451 575.566 85.3807)" fill="#D9D9D9"/>
<circle cx="561.871" cy="83.9511" r="1.68639" transform="rotate(57.8815 561.871 83.9511)" fill="#D9D9D9"/>
<path d="M103.574 190.583L110.947 183.196C111.216 182.928 111.575 182.8 111.946 182.825L122.34 183.619C122.622 183.644 122.775 183.299 122.583 183.094L115.197 175.721C114.928 175.452 114.8 175.093 114.826 174.722L115.62 164.328C115.645 164.046 115.3 163.893 115.095 164.085L107.721 171.471C107.453 171.74 107.094 171.868 106.723 171.842L96.3286 171.048C96.047 171.023 95.8934 171.368 96.0854 171.573L103.472 178.947C103.74 179.215 103.868 179.574 103.843 179.945L103.049 190.339C103.024 190.621 103.369 190.775 103.574 190.583Z" fill="#FECC2F" stroke="#101828" stroke-width="0.532758" stroke-miterlimit="10"/>
<path d="M2.35231 198.203C2.09864 199.222 4.01823 200.313 4.44497 201.363C5.50503 203.95 7.51336 201.624 10.1004 200.564C21.0745 196.083 33.6313 201.357 38.1193 212.317C39.1794 214.904 42.1027 218.797 44.7106 217.73C47.3185 216.663 48.5818 211.057 47.5217 208.47C40.9206 192.321 22.3734 184.442 6.2526 191.161C3.87412 192.153 2.71192 196.697 2.33147 198.209L2.35231 198.203Z" fill="#E6D0F3" stroke="#101828" stroke-width="0.616526" stroke-miterlimit="10"/>
<path d="M2.35312 198.203C2.09944 199.223 2.15103 200.327 2.57777 201.377C3.63782 203.964 6.60538 205.218 9.19244 204.158C20.1665 199.677 32.7234 204.951 37.2114 215.912C38.2714 218.499 41.2389 219.752 43.826 218.692C46.4131 217.632 47.6668 214.665 46.6068 212.078C40.0056 195.929 21.4928 188.155 5.33762 194.77C3.78681 195.396 2.7196 196.718 2.33228 198.21L2.35312 198.203Z" fill="#CD90E3" stroke="#101828" stroke-width="0.616526" stroke-miterlimit="10"/>
<path d="M156.748 485.903C156.131 485.052 154.061 485.817 152.983 485.467C150.321 484.611 150.806 487.645 149.95 490.307C146.306 501.586 134.181 507.791 122.908 504.161C120.246 503.305 115.386 503.032 114.522 505.714C113.657 508.396 117.131 512.975 119.792 513.831C136.395 519.187 154.371 510.08 159.619 493.422C160.394 490.965 157.668 487.148 156.756 485.883L156.748 485.903Z" fill="#E6D0F3" stroke="#101828" stroke-width="0.616526" stroke-miterlimit="10"/>
<path d="M156.747 485.903C156.13 485.052 155.253 484.38 154.175 484.03C151.513 483.174 148.642 484.635 147.786 487.297C144.142 498.576 132.018 504.781 120.744 501.151C118.083 500.295 115.212 501.756 114.355 504.418C113.499 507.079 114.961 509.95 117.622 510.806C134.225 516.163 152.099 507.015 157.45 490.398C157.97 488.809 157.646 487.14 156.755 485.883L156.747 485.903Z" fill="#CD90E3" stroke="#101828" stroke-width="0.616526" stroke-miterlimit="10"/>
<path d="M581.521 190.669C575.719 187.961 573.806 178.259 577.67 167.996C581.534 157.733 589.477 151.388 595.522 153.501C608.823 158.136 611.512 157.905 603.533 179.545C599.024 191.765 598.977 198.814 581.521 190.669Z" fill="#81B6D4" stroke="#101828" stroke-width="0.616526" stroke-miterlimit="10"/>
<path d="M586.482 171.319C582.614 181.584 584.333 191.735 590.323 193.992C596.312 196.249 604.304 189.757 608.172 179.492C612.04 169.227 610.32 159.076 604.331 156.819C598.341 154.562 590.35 161.054 586.482 171.319Z" fill="#BAE3F2" stroke="#101828" stroke-width="0.616526" stroke-miterlimit="10"/>
<path d="M432.021 507.669C426.219 504.961 424.306 495.259 428.17 484.996C432.034 474.732 439.977 468.388 446.022 470.501C459.323 475.136 462.012 474.905 454.033 496.545C449.524 508.765 449.477 515.814 432.021 507.669Z" fill="#81B6D4" stroke="#101828" stroke-width="0.616526" stroke-miterlimit="10"/>
<path d="M436.982 488.319C433.114 498.584 434.833 508.735 440.823 510.992C446.812 513.249 454.804 506.757 458.672 496.492C462.54 486.227 460.82 476.076 454.831 473.819C448.841 471.562 440.85 478.053 436.982 488.319Z" fill="#BAE3F2" stroke="#101828" stroke-width="0.616526" stroke-miterlimit="10"/>
<path d="M160.682 106.948C160.667 106.66 134.622 90.159 134.622 90.159L151.041 62.4428L160.682 106.948Z" fill="#BAE3F2" stroke="#101828" stroke-width="0.616526" stroke-linejoin="round"/>
<path d="M144.839 54.0004L151.087 62.3562L134.622 90.1596L128.357 80.6631L144.839 54.0004Z" fill="#4190BE" stroke="#101828" stroke-width="0.616526" stroke-linecap="square" stroke-linejoin="round"/>
<path d="M99.5589 436.351C99.723 436.283 103.91 417.728 103.91 417.728L123.418 421.521L99.5589 436.351Z" fill="#BAE3F2" stroke="#101828" stroke-width="0.616526" stroke-linejoin="round"/>
<path d="M127.039 416.166L123.48 421.529L103.911 417.728L108.13 412.119L127.039 416.166Z" fill="#4190BE" stroke="#101828" stroke-width="0.616526" stroke-linecap="square" stroke-linejoin="round"/>
<path d="M488.847 193.295L486.454 197.734C486.369 197.896 486.209 198.017 486.026 198.065L480.817 199.523C480.676 199.562 480.655 199.736 480.787 199.787L485.594 201.675C485.769 201.742 485.894 201.878 485.937 202.041L487.251 206.641C487.286 206.766 487.479 206.774 487.544 206.652L489.937 202.213C490.022 202.052 490.181 201.931 490.365 201.882L495.574 200.425C495.714 200.386 495.736 200.212 495.604 200.16L490.797 198.272C490.622 198.206 490.496 198.069 490.453 197.906L489.14 193.306C489.105 193.182 488.912 193.173 488.847 193.295Z" fill="#FECC2F" stroke="#101828" stroke-width="0.734329" stroke-miterlimit="10"/>
<path d="M354.473 147.65L351.953 152.326C351.864 152.496 351.695 152.623 351.502 152.674L346.015 154.209C345.867 154.25 345.845 154.434 345.984 154.488L351.047 156.477C351.231 156.547 351.363 156.69 351.409 156.862L352.792 161.708C352.829 161.838 353.032 161.848 353.101 161.719L355.622 157.043C355.711 156.873 355.879 156.746 356.073 156.695L361.559 155.16C361.707 155.118 361.729 154.935 361.59 154.881L356.527 152.892C356.343 152.822 356.211 152.678 356.165 152.507L354.782 147.661C354.745 147.53 354.542 147.521 354.473 147.65Z" fill="#CD90E3" stroke="#101828" stroke-width="0.734329" stroke-miterlimit="10"/>
<path d="M489.245 193.295L486.852 197.734C486.768 197.896 486.608 198.017 486.424 198.065L481.215 199.523C481.075 199.562 481.054 199.736 481.186 199.787L485.993 201.675C486.167 201.742 486.293 201.878 486.336 202.041L487.649 206.641C487.684 206.766 487.877 206.774 487.942 206.652L490.335 202.213C490.42 202.052 490.58 201.931 490.764 201.882L495.972 200.425C496.113 200.386 496.134 200.212 496.002 200.16L491.195 198.272C491.02 198.206 490.895 198.069 490.852 197.906L489.539 193.306C489.504 193.182 489.311 193.173 489.245 193.295Z" fill="#FECC2F" stroke="#101828" stroke-width="0.734329" stroke-miterlimit="10"/>
<path d="M354.872 147.65L352.351 152.326C352.262 152.496 352.094 152.623 351.9 152.674L346.414 154.209C346.266 154.25 346.243 154.434 346.382 154.488L351.446 156.477C351.63 156.547 351.762 156.69 351.807 156.862L353.19 161.708C353.227 161.838 353.43 161.848 353.499 161.719L356.02 157.043C356.109 156.873 356.277 156.746 356.471 156.695L361.958 155.16C362.106 155.118 362.128 154.935 361.989 154.881L356.925 152.892C356.742 152.822 356.609 152.678 356.564 152.507L355.181 147.661C355.144 147.53 354.941 147.521 354.872 147.65Z" fill="#CD90E3" stroke="#101828" stroke-width="0.734329" stroke-miterlimit="10"/>
<path d="M353.245 580.295L350.852 584.734C350.768 584.895 350.608 585.017 350.424 585.065L345.215 586.522C345.075 586.561 345.054 586.736 345.186 586.787L349.993 588.675C350.167 588.742 350.293 588.878 350.336 589.041L351.649 593.641C351.684 593.765 351.877 593.774 351.942 593.652L354.335 589.213C354.42 589.052 354.58 588.93 354.764 588.882L359.972 587.424C360.113 587.386 360.134 587.211 360.002 587.16L355.195 585.272C355.02 585.205 354.895 585.069 354.852 584.906L353.539 580.306C353.504 580.182 353.311 580.173 353.245 580.295Z" fill="#FECC2F" stroke="#101828" stroke-width="0.734329" stroke-miterlimit="10"/>
<path d="M218.872 534.65L216.351 539.326C216.262 539.495 216.094 539.623 215.9 539.674L210.414 541.209C210.266 541.25 210.243 541.434 210.382 541.488L215.446 543.477C215.63 543.547 215.762 543.69 215.807 543.862L217.19 548.708C217.227 548.838 217.43 548.847 217.499 548.719L220.02 544.043C220.109 543.873 220.277 543.746 220.471 543.694L225.958 542.159C226.106 542.118 226.128 541.935 225.989 541.881L220.925 539.892C220.742 539.822 220.609 539.678 220.564 539.507L219.181 534.661C219.144 534.53 218.941 534.521 218.872 534.65Z" fill="#CD90E3" stroke="#101828" stroke-width="0.734329" stroke-miterlimit="10"/>
<rect x="-0.308228" y="-0.151859" width="13.8583" height="13.8583" transform="matrix(0.997837 -0.0657429 0.555906 0.831245 268.775 211.434)" fill="white" stroke="black" stroke-width="0.396756" stroke-linejoin="bevel"/>
<rect x="-0.197937" y="0.0130475" width="13.8583" height="13.8583" transform="matrix(0.441926 -0.897052 0.555853 0.83128 262.624 223.38)" fill="white" stroke="black" stroke-width="0.396756" stroke-linejoin="bevel"/>
<rect x="-0.110268" y="-0.164895" width="13.8583" height="13.8583" transform="matrix(0.997832 -0.0658065 -0.441983 0.897023 276.103 222.645)" fill="white" stroke="black" stroke-width="0.396756" stroke-linejoin="bevel"/>
<rect x="-0.308228" y="-0.151859" width="13.8583" height="13.8583" transform="matrix(0.997837 -0.0657429 0.555906 0.831245 262.822 223.508)" fill="#E7A200" stroke="black" stroke-width="0.396756" stroke-linejoin="bevel"/>
<rect x="-0.197937" y="0.0130475" width="13.8583" height="13.8583" transform="matrix(0.441926 -0.897052 0.555853 0.83128 276.058 222.494)" fill="#FECC2F" stroke="black" stroke-width="0.396756" stroke-linejoin="bevel"/>
<rect x="-0.285628" y="0.191004" width="13.8583" height="13.8583" transform="matrix(0.441983 -0.897023 0.997832 -0.0658065 262.392 223.503)" fill="#FFEAB4" stroke="black" stroke-width="0.396756" stroke-linejoin="bevel"/>
<rect x="0.0112054" y="0.343424" width="20.3487" height="20.3487" transform="matrix(-0.527949 -0.849276 0.471464 -0.881885 510.093 309.989)" fill="white" stroke="black" stroke-width="0.396756" stroke-linejoin="bevel"/>
<rect x="0.104733" y="0.168465" width="20.3487" height="20.3487" transform="matrix(-0.999467 0.0326429 0.47152 -0.881855 530.31 308.996)" fill="white" stroke="black" stroke-width="0.396756" stroke-linejoin="bevel"/>
<rect x="-0.0935285" y="0.174934" width="20.3487" height="20.3487" transform="matrix(-0.528003 -0.849243 0.999469 -0.0325793 519.327 291.841)" fill="white" stroke="black" stroke-width="0.396756" stroke-linejoin="bevel"/>
<rect x="0.0112054" y="0.343424" width="20.3487" height="20.3487" transform="matrix(-0.527949 -0.849276 0.471464 -0.881885 530.035 309.342)" fill="#005D46" stroke="black" stroke-width="0.396756" stroke-linejoin="bevel"/>
<rect x="0.104733" y="0.168465" width="20.3487" height="20.3487" transform="matrix(-0.999467 0.0326429 0.47152 -0.881855 519.775 292.055)" fill="#85D2A9" stroke="black" stroke-width="0.396756" stroke-linejoin="bevel"/>
<rect x="0.303017" y="0.162008" width="20.3487" height="20.3487" transform="matrix(-0.999469 0.0325793 -0.528003 -0.849243 530.871 308.974)" fill="#2DA17D" stroke="black" stroke-width="0.396756" stroke-linejoin="bevel"/>
<rect x="0.0112054" y="0.343424" width="20.3487" height="20.3487" transform="matrix(-0.527949 -0.849276 0.471464 -0.881885 239.593 472.991)" fill="white" stroke="black" stroke-width="0.396756" stroke-linejoin="bevel"/>
<rect x="0.104733" y="0.168465" width="20.3487" height="20.3487" transform="matrix(-0.999467 0.0326429 0.47152 -0.881855 259.81 471.998)" fill="white" stroke="black" stroke-width="0.396756" stroke-linejoin="bevel"/>
<rect x="-0.0935285" y="0.174934" width="20.3487" height="20.3487" transform="matrix(-0.528003 -0.849243 0.999469 -0.0325793 248.827 454.843)" fill="white" stroke="black" stroke-width="0.396756" stroke-linejoin="bevel"/>
<rect x="0.0112054" y="0.343424" width="20.3487" height="20.3487" transform="matrix(-0.527949 -0.849276 0.471464 -0.881885 259.535 472.344)" fill="#FFEAB4" stroke="black" stroke-width="0.396756" stroke-linejoin="bevel"/>
<rect x="0.104733" y="0.168465" width="20.3487" height="20.3487" transform="matrix(-0.999467 0.0326429 0.47152 -0.881855 249.275 455.057)" fill="#FECC2F" stroke="black" stroke-width="0.396756" stroke-linejoin="bevel"/>
<rect x="0.303017" y="0.162008" width="20.3487" height="20.3487" transform="matrix(-0.999469 0.0325793 -0.528003 -0.849243 260.371 471.976)" fill="#E7A200" stroke="black" stroke-width="0.396756" stroke-linejoin="bevel"/>
<rect x="0.262521" y="-0.221695" width="13.8583" height="13.8583" transform="matrix(-0.339087 0.940755 -0.98425 0.176782 495.692 139.044)" fill="white" stroke="black" stroke-width="0.396756" stroke-linejoin="bevel"/>
<rect x="0.0672577" y="-0.186617" width="13.8583" height="13.8583" transform="matrix(0.645223 0.763994 -0.984261 0.17672 486.715 128.984)" fill="white" stroke="black" stroke-width="0.396756" stroke-linejoin="bevel"/>
<rect x="0.195244" y="-0.0350616" width="13.8583" height="13.8583" transform="matrix(-0.339027 0.940777 -0.645174 -0.764035 482.551 141.607)" fill="white" stroke="black" stroke-width="0.396756" stroke-linejoin="bevel"/>
<rect x="0.262521" y="-0.221695" width="13.8583" height="13.8583" transform="matrix(-0.339087 0.940755 -0.98425 0.176782 487.008 128.759)" fill="#9A6BA7" stroke="black" stroke-width="0.396756" stroke-linejoin="bevel"/>
<rect x="0.0672577" y="-0.186617" width="13.8583" height="13.8583" transform="matrix(0.645223 0.763994 -0.984261 0.17672 482.153 141.648)" fill="#CD90E3" stroke="black" stroke-width="0.396756" stroke-linejoin="bevel"/>
<rect x="-0.0607329" y="-0.338197" width="13.8583" height="13.8583" transform="matrix(0.645174 0.764035 -0.339027 0.940777 486.739 129.215)" fill="#E6D0F3" stroke="black" stroke-width="0.396756" stroke-linejoin="bevel"/>
<rect x="0.262521" y="-0.221695" width="13.8583" height="13.8583" transform="matrix(-0.339087 0.940755 -0.98425 0.176782 383.192 400.044)" fill="white" stroke="black" stroke-width="0.396756" stroke-linejoin="bevel"/>
<rect x="0.0672577" y="-0.186617" width="13.8583" height="13.8583" transform="matrix(0.645223 0.763994 -0.984261 0.17672 374.215 389.984)" fill="white" stroke="black" stroke-width="0.396756" stroke-linejoin="bevel"/>
<rect x="0.195244" y="-0.0350616" width="13.8583" height="13.8583" transform="matrix(-0.339027 0.940777 -0.645174 -0.764035 370.051 402.607)" fill="white" stroke="black" stroke-width="0.396756" stroke-linejoin="bevel"/>
<rect x="0.262521" y="-0.221695" width="13.8583" height="13.8583" transform="matrix(-0.339087 0.940755 -0.98425 0.176782 374.508 389.759)" fill="#9A6BA7" stroke="black" stroke-width="0.396756" stroke-linejoin="bevel"/>
<rect x="0.0672577" y="-0.186617" width="13.8583" height="13.8583" transform="matrix(0.645223 0.763994 -0.984261 0.17672 369.653 402.648)" fill="#CD90E3" stroke="black" stroke-width="0.396756" stroke-linejoin="bevel"/>
<rect x="-0.0607329" y="-0.338197" width="13.8583" height="13.8583" transform="matrix(0.645174 0.764035 -0.339027 0.940777 374.239 390.215)" fill="#E6D0F3" stroke="black" stroke-width="0.396756" stroke-linejoin="bevel"/>
<rect x="-0.601957" y="-0.622636" width="15.4827" height="15.4827" transform="matrix(0.961409 0.275122 0.242504 0.97015 43.2957 297.187)" fill="white" stroke="black" stroke-linejoin="bevel"/>
<rect x="-0.480683" y="-0.137538" width="15.4827" height="15.4827" transform="matrix(0.718923 -0.69509 0.242442 0.970166 32.656 306.768)" fill="white" stroke="black" stroke-linejoin="bevel"/>
<rect x="-0.12123" y="-0.485052" width="15.4827" height="15.4827" transform="matrix(0.961427 0.275061 -0.718967 0.695044 46.3263 310.975)" fill="white" stroke="black" stroke-linejoin="bevel"/>
<rect x="-0.601957" y="-0.622636" width="15.4827" height="15.4827" transform="matrix(0.961409 0.275122 0.242504 0.97015 32.8856 307.252)" fill="#4190BE" stroke="black" stroke-linejoin="bevel"/>
<rect x="-0.480683" y="-0.137538" width="15.4827" height="15.4827" transform="matrix(0.718923 -0.69509 0.242442 0.970166 46.5779 310.751)" fill="#81B6D4" stroke="black" stroke-linejoin="bevel"/>
<rect x="-0.840197" y="0.209992" width="15.4827" height="15.4827" transform="matrix(0.718967 -0.695044 0.961427 0.275061 32.3198 306.675)" fill="#BAE3F2" stroke="black" stroke-linejoin="bevel"/>
<rect x="-0.601957" y="-0.622636" width="15.4827" height="15.4827" transform="matrix(0.961409 0.275122 0.242504 0.97015 114.796 595.187)" fill="white" stroke="black" stroke-linejoin="bevel"/>
<rect x="-0.480683" y="-0.137538" width="15.4827" height="15.4827" transform="matrix(0.718923 -0.69509 0.242442 0.970166 104.156 604.768)" fill="white" stroke="black" stroke-linejoin="bevel"/>
<rect x="-0.12123" y="-0.485052" width="15.4827" height="15.4827" transform="matrix(0.961427 0.275061 -0.718967 0.695044 117.826 608.974)" fill="white" stroke="black" stroke-linejoin="bevel"/>
<rect x="-0.601957" y="-0.622636" width="15.4827" height="15.4827" transform="matrix(0.961409 0.275122 0.242504 0.97015 104.386 605.252)" fill="#4190BE" stroke="black" stroke-linejoin="bevel"/>
<rect x="-0.480683" y="-0.137538" width="15.4827" height="15.4827" transform="matrix(0.718923 -0.69509 0.242442 0.970166 118.078 608.751)" fill="#81B6D4" stroke="black" stroke-linejoin="bevel"/>
<rect x="-0.840197" y="0.209992" width="15.4827" height="15.4827" transform="matrix(0.718967 -0.695044 0.961427 0.275061 103.82 604.675)" fill="#BAE3F2" stroke="black" stroke-linejoin="bevel"/>
<path d="M319.809 399.117L324.898 400.006C325.083 400.037 325.242 400.145 325.331 400.297L327.936 404.557C328.005 404.672 328.19 404.641 328.215 404.508L329.149 399.661C329.181 399.486 329.295 399.335 329.454 399.25L333.927 396.769C334.048 396.702 334.016 396.527 333.876 396.503L328.787 395.613C328.603 395.583 328.444 395.474 328.355 395.323L325.75 391.063C325.68 390.948 325.496 390.978 325.47 391.111L324.536 395.958C324.505 396.134 324.39 396.285 324.231 396.369L319.758 398.85C319.638 398.917 319.669 399.093 319.809 399.117Z" fill="#BAE3F2" stroke="#101828" stroke-width="0.927689" stroke-miterlimit="10"/>
<path d="M319.126 399.523L324.215 400.457C324.399 400.489 324.558 400.603 324.647 400.762L327.252 405.235C327.322 405.356 327.506 405.324 327.532 405.184L328.466 400.095C328.497 399.911 328.612 399.752 328.771 399.663L333.244 397.058C333.364 396.988 333.333 396.804 333.193 396.778L328.103 395.844C327.919 395.812 327.76 395.698 327.671 395.539L325.066 391.066C324.996 390.945 324.812 390.977 324.787 391.117L323.853 396.206C323.821 396.391 323.707 396.549 323.548 396.638L319.075 399.243C318.954 399.313 318.986 399.498 319.126 399.523Z" fill="#81B6D4" stroke="#101828" stroke-width="0.927689" stroke-miterlimit="10"/>
<ellipse cx="288.5" cy="651.499" rx="107.5" ry="12.5" fill="black" fill-opacity="0.21"/>
<path opacity="0.8" d="M211.38 185.305L251.014 191.92C251.084 191.931 251.152 191.886 251.165 191.818L255.053 172.323C255.066 172.255 255.021 172.191 254.951 172.179L215.316 165.564C215.246 165.553 215.179 165.598 215.165 165.666L211.277 185.161C211.264 185.229 211.31 185.293 211.38 185.305Z" fill="black" fill-opacity="0.3"/>
<path d="M254.691 172.703L250.86 191.913L212.11 185.446L215.941 166.236L254.691 172.703Z" fill="#2DA17D" stroke="black" stroke-width="0.425628"/>
<path d="M233.593 187.286L251.963 177.875C252.17 178.699 251.593 179.533 251.596 180.349L237.333 187.902C236.468 187.593 234.907 187.703 233.521 187.337L233.593 187.286Z" fill="#FFF6E9" fill-opacity="0.3"/>
<path d="M238.895 188.185L251.263 181.995C251.124 182.764 251.089 183.037 251.094 183.592L241.181 188.594C240.556 188.382 239.476 188.366 238.842 188.22L238.895 188.185Z" fill="#FFF6E9" fill-opacity="0.3"/>
<path d="M246.133 189.06C246.567 187.225 248.337 186.003 250.174 186.248C252.011 186.493 250.257 186.294 250.251 186.38L249.587 189.626C249.584 189.669 249.537 189.711 249.451 189.707L246.213 189.149C246.17 189.147 246.133 189.06 246.136 189.017L246.133 189.06Z" fill="#005D46"/>
<path d="M249.164 173.823C249.17 173.737 249.18 173.608 249.229 173.524L252.552 174.086C252.595 174.088 252.635 174.132 252.629 174.218L251.9 177.762C251.897 177.805 251.808 177.845 251.765 177.843C249.938 177.469 248.728 175.7 249.121 173.821L249.164 173.823Z" fill="#005D46"/>
<path d="M214.295 183.712L214.959 180.467C214.962 180.424 215.051 180.385 215.094 180.387C216.922 180.76 218.092 182.485 217.787 184.324C217.483 186.162 217.738 184.408 217.652 184.404L214.415 183.846C214.372 183.845 214.332 183.8 214.338 183.714L214.295 183.712Z" fill="#005D46"/>
<path d="M216.706 171.862L217.434 168.317C217.437 168.274 217.483 168.233 217.569 168.236L220.894 168.798C220.887 168.884 220.878 169.012 220.872 169.098C220.478 170.977 218.706 172.242 216.825 171.996C214.945 171.749 216.743 171.949 216.749 171.863L216.706 171.862Z" fill="#005D46"/>
<path d="M249.724 189.772L252.819 174.254C252.828 174.207 252.798 174.163 252.751 174.155L217.683 168.303C217.637 168.295 217.591 168.327 217.582 168.374L214.487 183.891C214.478 183.938 214.508 183.982 214.555 183.99L249.623 189.843C249.67 189.85 249.715 189.819 249.724 189.772Z" stroke="#005D46" stroke-width="0.944369" stroke-miterlimit="10"/>
<path d="M243.105 178.322C242.06 178.281 241.152 179.093 241.078 180.137C241.003 181.18 241.789 182.059 242.834 182.1C243.879 182.141 244.787 181.329 244.862 180.286C244.937 179.243 244.15 178.364 243.105 178.322Z" fill="#005D46"/>
<path d="M224.289 175.172C223.244 175.131 222.336 175.943 222.261 176.986C222.186 178.029 222.973 178.909 224.018 178.95C225.063 178.991 225.971 178.179 226.046 177.136C226.12 176.092 225.334 175.213 224.289 175.172Z" fill="#005D46"/>
<path d="M233.896 173.652C230.95 173.536 228.392 175.825 228.181 178.765C227.97 181.705 230.187 184.182 233.132 184.298C236.077 184.415 238.636 182.126 238.847 179.186C239.057 176.246 236.841 173.768 233.896 173.652Z" fill="#005D46"/>
<path d="M234.395 176.342L234.392 176.385C235.661 176.737 235.986 177.61 235.851 178.293C235.851 178.293 235.851 178.293 235.808 178.292L234.871 178.126C234.871 178.126 234.871 178.126 234.874 178.083C234.896 177.782 234.662 177.429 234.202 177.238L234.159 177.237L233.833 178.773C233.833 178.773 233.833 178.773 233.83 178.816C234.883 179.159 235.491 179.699 235.291 180.681C235.089 181.706 234.069 182.096 233.209 182.062C233.209 182.062 233.209 182.062 233.166 182.061L233.034 182.701L232.481 182.593C232.481 182.593 232.481 182.593 232.484 182.55L232.62 181.867L232.623 181.824C231.821 181.577 231.183 180.863 231.376 179.967L232.313 180.133C232.313 180.133 232.313 180.133 232.31 180.176C232.291 180.434 232.399 180.739 232.73 180.924L232.773 180.926L233.041 179.603C233.041 179.603 233.041 179.603 233.044 179.56C232.242 179.313 231.284 178.845 231.549 177.564C231.754 176.496 232.78 176.02 233.72 176.144L233.763 176.145L233.895 175.505C233.895 175.505 233.895 175.505 233.938 175.507L234.491 175.614C234.491 175.614 234.491 175.614 234.488 175.657L234.355 176.298L234.395 176.342ZM233.753 179.889L233.71 179.887L233.446 181.168C233.446 181.168 233.443 181.211 233.486 181.213C233.959 181.231 234.324 180.944 234.395 180.56C234.465 180.175 234.18 179.949 233.759 179.803L233.753 179.889ZM233.234 178.707L233.277 178.708L233.554 177.256C233.554 177.256 233.557 177.213 233.514 177.211C232.998 177.191 232.59 177.476 232.516 177.904C232.494 178.204 232.642 178.554 233.188 178.748L233.234 178.707Z" fill="#E9F3E7"/>
<path opacity="0.8" d="M274.774 130.155L241.672 83.9632C241.614 83.8815 241.5 83.8596 241.419 83.9141L218.064 99.5624C217.982 99.617 217.964 99.7275 218.022 99.8091L251.124 146.001C251.183 146.083 251.296 146.104 251.378 146.05L274.733 130.402C274.814 130.347 274.833 130.237 274.774 130.155Z" fill="black" fill-opacity="0.3"/>
<path d="M218.771 99.5373L241.828 84.0887L274.222 129.292L251.165 144.74L218.771 99.5373Z" fill="#2DA17D" stroke="black" stroke-width="0.550893"/>
<path d="M254.496 105.995L226.699 97.0858C227.314 96.0521 228.725 95.7934 229.537 94.9727L251.365 101.644C251.923 102.818 253.597 104.265 254.62 106.016L254.496 105.995Z" fill="#FFF6E9" fill-opacity="0.3"/>
<path d="M250.087 99.8056L231.517 93.6603C232.424 93.0283 232.731 92.7901 233.281 92.2285L248.205 97.113C248.62 97.9504 249.686 99.0441 250.174 99.823L250.087 99.8056Z" fill="#FFF6E9" fill-opacity="0.3"/>
<path d="M243.708 91.7009C241.442 93.1059 238.45 92.5632 236.853 90.484C235.257 88.4047 236.816 90.3547 236.908 90.2749L240.814 87.6858C240.86 87.6459 240.947 87.6506 241.03 87.7398L243.717 91.5318C243.758 91.5764 243.708 91.7009 243.662 91.7409L243.708 91.7009Z" fill="#005D46"/>
<path d="M225.461 103.938C225.369 104.018 225.232 104.138 225.098 104.173L222.33 100.293C222.288 100.249 222.293 100.164 222.385 100.084L226.652 97.261C226.698 97.2211 226.827 97.2704 226.868 97.3151C228.326 99.5135 227.772 102.494 225.503 103.983L225.461 103.938Z" fill="#005D46"/>
<path d="M270.262 128.841L266.358 131.429C266.312 131.469 266.183 131.419 266.142 131.375C264.684 129.177 265.234 126.281 267.374 124.742C269.515 123.204 267.508 124.707 267.59 124.797L270.276 128.587C270.317 128.632 270.313 128.716 270.221 128.796L270.262 128.841Z" fill="#005D46"/>
<path d="M256.022 138.307L251.753 141.131C251.707 141.171 251.62 141.167 251.537 141.077L248.768 137.196C248.86 137.116 248.997 136.997 249.089 136.917C251.359 135.427 254.398 135.93 256.035 138.054C257.673 140.177 256.072 138.183 255.98 138.263L256.022 138.307Z" fill="#005D46"/>
<path d="M240.822 87.4024L222.231 99.8586C222.174 99.8962 222.161 99.9708 222.2 100.025L251.488 140.895C251.527 140.95 251.604 140.963 251.66 140.926L270.251 128.469C270.307 128.432 270.321 128.357 270.282 128.303L240.994 87.4329C240.955 87.3785 240.878 87.3648 240.822 87.4024Z" stroke="#005D46" stroke-width="1.2223" stroke-miterlimit="10"/>
<path d="M236.025 105.481C237.03 106.565 238.751 106.658 239.867 105.687C240.983 104.717 241.073 103.051 240.067 101.967C239.061 100.882 237.341 100.789 236.225 101.76C235.109 102.73 235.019 104.396 236.025 105.481Z" fill="#005D46"/>
<path d="M251.732 127.424C252.738 128.509 254.458 128.601 255.574 127.631C256.69 126.66 256.78 124.994 255.774 123.91C254.768 122.825 253.048 122.733 251.932 123.703C250.816 124.674 250.726 126.339 251.732 127.424Z" fill="#005D46"/>
<path d="M240.591 119.354C243.426 122.411 248.274 122.672 251.42 119.937C254.566 117.202 254.818 112.507 251.984 109.451C249.149 106.395 244.301 106.134 241.155 108.869C238.009 111.603 237.757 116.298 240.591 119.354Z" fill="#005D46"/>
<path d="M242.778 116.159L242.823 116.119C241.904 114.501 242.45 113.301 243.267 112.751C243.267 112.751 243.267 112.751 243.309 112.796L244.081 113.897C244.081 113.897 244.081 113.897 244.035 113.937C243.714 114.217 243.595 114.804 243.866 115.454L243.907 115.499L245.767 114.285C245.767 114.285 245.767 114.285 245.813 114.245C245.1 112.85 245.031 111.702 246.211 110.917C247.438 110.093 248.848 110.72 249.676 111.613C249.676 111.613 249.676 111.613 249.717 111.657L250.489 111.148L250.935 111.807C250.935 111.807 250.935 111.807 250.889 111.847L250.071 112.397L250.026 112.437C250.582 113.484 250.509 114.837 249.421 115.541L248.648 114.44C248.648 114.44 248.648 114.44 248.694 114.4C248.97 114.16 249.167 113.747 249.02 113.23L248.978 113.186L247.389 114.245C247.389 114.245 247.389 114.245 247.343 114.285C247.9 115.332 248.392 116.758 246.849 117.777C245.577 118.641 244.074 118.094 243.256 117.032L243.214 116.988L242.443 117.497C242.443 117.497 242.443 117.497 242.401 117.453L241.955 116.793C241.955 116.793 241.955 116.793 242.001 116.753L242.773 116.243L242.778 116.159ZM246.961 113.247L247.003 113.292L248.546 112.272C248.546 112.272 248.592 112.232 248.551 112.188C248.095 111.697 247.443 111.62 246.988 111.934C246.534 112.249 246.594 112.761 246.87 113.327L246.961 113.247ZM246.301 114.949L246.259 114.905L244.533 116.084C244.533 116.084 244.487 116.123 244.528 116.168C245.025 116.704 245.718 116.826 246.219 116.471C246.54 116.192 246.742 115.694 246.388 114.954L246.301 114.949Z" fill="#E9F3E7"/>
<path opacity="0.8" d="M219.195 265.747L199.162 237.792C199.126 237.742 199.058 237.729 199.008 237.762L184.874 247.233C184.824 247.266 184.813 247.332 184.848 247.382L204.882 275.338C204.917 275.387 204.986 275.4 205.035 275.367L219.17 265.897C219.22 265.864 219.231 265.797 219.195 265.747Z" fill="black" fill-opacity="0.3"/>
<path d="M185.454 247.245L199.227 238.017L218.706 265.198L204.933 274.426L185.454 247.245Z" fill="#2DA17D" stroke="black" stroke-width="0.550893"/>
<path d="M206.925 251.126L190.102 245.734C190.474 245.108 191.328 244.951 191.819 244.455L205.03 248.493C205.367 249.203 206.38 250.078 206.999 251.139L206.925 251.126Z" fill="#FFF6E9" fill-opacity="0.3"/>
<path d="M204.256 247.38L193.018 243.661C193.566 243.278 193.752 243.134 194.085 242.794L203.117 245.75C203.369 246.257 204.014 246.919 204.309 247.39L204.256 247.38Z" fill="#FFF6E9" fill-opacity="0.3"/>
<path d="M200.396 242.474C199.025 243.325 197.214 242.996 196.248 241.738C195.282 240.479 196.225 241.66 196.281 241.611L198.645 240.044C198.673 240.02 198.725 240.023 198.776 240.077L200.402 242.372C200.427 242.399 200.396 242.474 200.368 242.498L200.396 242.474Z" fill="#005D46"/>
<path d="M189.351 249.882C189.295 249.93 189.212 250.003 189.131 250.024L187.455 247.676C187.43 247.649 187.433 247.598 187.489 247.549L190.071 245.841C190.099 245.816 190.177 245.846 190.202 245.873C191.085 247.204 190.749 249.008 189.376 249.909L189.351 249.882Z" fill="#005D46"/>
<path d="M216.465 264.952L214.102 266.518C214.074 266.543 213.996 266.513 213.971 266.486C213.089 265.155 213.421 263.403 214.717 262.472C216.012 261.541 214.797 262.45 214.848 262.504L216.473 264.799C216.498 264.826 216.495 264.877 216.44 264.925L216.465 264.952Z" fill="#005D46"/>
<path d="M207.845 270.681L205.261 272.39C205.233 272.414 205.18 272.411 205.13 272.357L203.454 270.008C203.51 269.96 203.593 269.887 203.649 269.839C205.023 268.937 206.862 269.242 207.853 270.527C208.844 271.812 207.875 270.605 207.819 270.654L207.845 270.681Z" fill="#005D46"/>
<path d="M198.649 239.872L187.397 247.411C187.363 247.434 187.355 247.479 187.379 247.512L205.104 272.247C205.128 272.28 205.175 272.288 205.209 272.265L216.46 264.727C216.494 264.704 216.502 264.659 216.479 264.626L198.753 239.891C198.73 239.858 198.683 239.85 198.649 239.872Z" stroke="#005D46" stroke-width="1.2223" stroke-miterlimit="10"/>
<path d="M195.742 250.814C196.35 251.471 197.391 251.527 198.067 250.939C198.743 250.352 198.797 249.344 198.188 248.688C197.579 248.031 196.538 247.975 195.863 248.562C195.187 249.15 195.133 250.158 195.742 250.814Z" fill="#005D46"/>
<path d="M205.245 264.095C205.854 264.752 206.895 264.808 207.571 264.221C208.246 263.633 208.301 262.625 207.692 261.969C207.083 261.312 206.042 261.256 205.367 261.844C204.691 262.431 204.637 263.439 205.245 264.095Z" fill="#005D46"/>
<path d="M198.504 259.211C200.22 261.061 203.154 261.219 205.058 259.564C206.962 257.909 207.114 255.067 205.399 253.217C203.684 251.368 200.75 251.21 198.846 252.865C196.942 254.52 196.789 257.361 198.504 259.211Z" fill="#005D46"/>
<path d="M199.823 257.277L199.851 257.253C199.294 256.274 199.625 255.548 200.12 255.215C200.12 255.215 200.12 255.215 200.145 255.242L200.612 255.909C200.612 255.909 200.612 255.909 200.584 255.933C200.39 256.102 200.318 256.457 200.482 256.851L200.507 256.878L201.633 256.143C201.633 256.143 201.633 256.143 201.661 256.119C201.229 255.275 201.187 254.58 201.901 254.105C202.644 253.606 203.497 253.986 203.998 254.526C203.998 254.526 203.998 254.526 204.023 254.553L204.49 254.244L204.76 254.644C204.76 254.644 204.76 254.644 204.732 254.668L204.238 255L204.21 255.025C204.547 255.658 204.503 256.477 203.844 256.903L203.376 256.237C203.376 256.237 203.376 256.237 203.404 256.213C203.571 256.068 203.69 255.818 203.601 255.505L203.576 255.478L202.614 256.119C202.614 256.119 202.614 256.119 202.587 256.143C202.923 256.777 203.221 257.64 202.287 258.256C201.518 258.779 200.608 258.448 200.113 257.806L200.088 257.779L199.621 258.087C199.621 258.087 199.621 258.087 199.596 258.06L199.326 257.661C199.326 257.661 199.326 257.661 199.354 257.637L199.821 257.328L199.823 257.277ZM202.355 255.515L202.38 255.542L203.314 254.925C203.314 254.925 203.342 254.901 203.317 254.874C203.042 254.577 202.647 254.53 202.372 254.72C202.097 254.911 202.133 255.221 202.3 255.563L202.355 255.515ZM201.956 256.545L201.931 256.518L200.885 257.232C200.885 257.232 200.858 257.256 200.883 257.283C201.183 257.607 201.603 257.681 201.906 257.466C202.101 257.297 202.223 256.996 202.008 256.548L201.956 256.545Z" fill="#E9F3E7"/>
<path opacity="0.8" d="M74.9741 149.054L100.804 126.345C100.85 126.305 100.856 126.235 100.818 126.189L89.9921 113.064C89.9543 113.018 89.8867 113.014 89.841 113.054L64.0111 135.762C63.9654 135.803 63.959 135.872 63.9967 135.918L74.823 149.043C74.8607 149.089 74.9284 149.094 74.9741 149.054Z" fill="black" fill-opacity="0.3"/>
<path d="M90.0376 113.644L100.587 126.434L75.4723 148.513L64.9231 135.724L90.0376 113.644Z" fill="#2DA17D" stroke="black" stroke-width="0.550893"/>
<path d="M88.306 135.392L92.0023 118.117C92.6618 118.425 92.9023 119.259 93.4453 119.699L90.7383 133.245C90.0652 133.651 89.2941 134.746 88.3007 135.467L88.306 135.392Z" fill="#FFF6E9" fill-opacity="0.3"/>
<path d="M91.7693 132.365L94.355 120.812C94.7901 121.32 94.952 121.491 95.3232 121.788L93.2779 131.069C92.7985 131.37 92.2039 132.077 91.7641 132.418L91.7693 132.365Z" fill="#FFF6E9" fill-opacity="0.3"/>
<path d="M96.266 128.035C95.2839 126.755 95.431 124.92 96.5873 123.834C97.7436 122.748 96.6629 123.804 96.7165 123.855L98.5102 126.051C98.5371 126.077 98.5395 126.13 98.4907 126.185L96.3684 128.03C96.344 128.058 96.266 128.035 96.2392 128.01L96.266 128.035Z" fill="#005D46"/>
<path d="M87.804 117.781C87.7504 117.731 87.67 117.655 87.6408 117.577L89.8112 115.677C89.8356 115.649 89.8868 115.647 89.9404 115.697L91.8969 118.098C91.9237 118.123 91.9017 118.203 91.8773 118.231C90.6409 119.241 88.8127 119.086 87.7797 117.809L87.804 117.781Z" fill="#005D46"/>
<path d="M75.4944 146.258L73.7013 144.062C73.6745 144.036 73.6965 143.956 73.7209 143.928C74.9571 142.918 76.7341 143.076 77.789 144.272C78.844 145.469 77.8182 144.35 77.7694 144.406L75.6479 146.251C75.6236 146.278 75.5724 146.281 75.5188 146.23L75.4944 146.258Z" fill="#005D46"/>
<path d="M68.9393 138.247L66.9824 135.846C66.9556 135.821 66.9532 135.768 67.002 135.713L69.1729 133.812C69.2265 133.863 69.307 133.938 69.3606 133.989C70.3939 135.266 70.2736 137.127 69.093 138.24C67.9123 139.354 69.0174 138.27 68.9637 138.22L68.9393 138.247Z" fill="#005D46"/>
<path d="M98.6805 126.039L90.0627 115.591C90.0367 115.56 89.9909 115.556 89.9605 115.583L67.1065 135.675C67.076 135.702 67.0724 135.749 67.0984 135.78L75.7162 146.228C75.7422 146.26 75.788 146.264 75.8185 146.237L98.6725 126.145C98.7029 126.118 98.7065 126.071 98.6805 126.039Z" stroke="#005D46" stroke-width="1.2223" stroke-miterlimit="10"/>
<path d="M87.513 124.234C86.9203 124.905 86.9679 125.947 87.6193 126.561C88.2707 127.175 89.2793 127.129 89.8721 126.458C90.4648 125.787 90.4172 124.746 89.7658 124.132C89.1144 123.518 88.1058 123.564 87.513 124.234Z" fill="#005D46"/>
<path d="M75.2435 135.012C74.6508 135.683 74.6983 136.724 75.3498 137.338C76.0012 137.952 77.0098 137.906 77.6025 137.235C78.1953 136.564 78.1477 135.523 77.4963 134.909C76.8449 134.295 75.8363 134.341 75.2435 135.012Z" fill="#005D46"/>
<path d="M79.4327 127.818C77.7623 129.709 77.8964 132.644 79.7322 134.374C81.568 136.105 84.4104 135.975 86.0809 134.084C87.7513 132.194 87.6172 129.259 85.7814 127.528C83.9456 125.798 81.1032 125.928 79.4327 127.818Z" fill="#005D46"/>
<path d="M81.4811 128.94L81.5079 128.965C82.4271 128.314 83.1825 128.571 83.5625 129.03C83.5625 129.03 83.5625 129.03 83.5381 129.058L82.9213 129.589C82.9213 129.589 82.9213 129.589 82.8945 129.564C82.7069 129.387 82.3462 129.351 81.9708 129.553L81.9464 129.581L82.7892 130.628C82.7892 130.628 82.7892 130.628 82.816 130.653C83.6132 130.14 84.3005 130.029 84.8438 130.693C85.4138 131.382 85.1209 132.269 84.6332 132.821C84.6332 132.821 84.6332 132.821 84.6088 132.849L84.962 133.283L84.5914 133.591C84.5914 133.591 84.5914 133.591 84.5646 133.566L84.1846 133.106L84.1578 133.081C83.5605 133.479 82.7416 133.517 82.252 132.903L82.8689 132.372C82.8689 132.372 82.8689 132.372 82.8957 132.397C83.0564 132.549 83.3172 132.643 83.6194 132.523L83.6438 132.496L82.9106 131.602C82.9106 131.602 82.9106 131.602 82.8838 131.577C82.2865 131.975 81.4577 132.357 80.7513 131.489C80.1545 130.775 80.3937 129.837 80.9838 129.28L81.0082 129.253L80.655 128.819C80.655 128.819 80.655 128.819 80.6794 128.791L81.0499 128.483C81.0499 128.483 81.05 128.483 81.0767 128.508L81.43 128.942L81.4811 128.94ZM83.486 131.285L83.4616 131.312L84.168 132.18C84.168 132.18 84.1948 132.206 84.2192 132.178C84.4874 131.874 84.4949 131.477 84.2781 131.222C84.0613 130.967 83.7566 131.034 83.4324 131.234L83.486 131.285ZM82.421 130.989L82.4454 130.961L81.6318 129.992C81.6318 129.992 81.605 129.967 81.5806 129.995C81.288 130.326 81.2561 130.751 81.4997 131.031C81.6873 131.208 81.9992 131.3 82.4234 131.042L82.421 130.989Z" fill="#E9F3E7"/>
<path fill-rule="evenodd" clip-rule="evenodd" d="M296.812 370.13H303.769V575.336C303.77 575.373 303.771 575.409 303.771 575.446V587.416C303.771 604.815 289.739 618.834 272.502 618.834C255.278 618.834 241.16 604.828 241.16 587.416C241.16 578.745 244.72 570.877 250.338 565.155C251.781 563.685 254.125 563.681 255.573 565.145C257.021 566.61 257.025 568.988 255.582 570.458C251.244 574.876 248.563 580.876 248.563 587.416C248.563 600.574 259.262 611.322 272.502 611.322C285.73 611.322 296.814 600.7 296.814 587.529V576.223H296.812V370.13Z" fill="#FFD011"/>
<path d="M303.769 370.13H304.142V369.757H303.769V370.13ZM296.812 370.13V369.757H296.439V370.13H296.812ZM303.769 575.336H303.396L303.396 575.347L303.769 575.336ZM250.338 565.155L250.072 564.893L250.072 564.893L250.338 565.155ZM255.582 570.458L255.849 570.719L255.849 570.719L255.582 570.458ZM296.814 576.223H297.187V575.85H296.814V576.223ZM296.812 576.223H296.439V576.596H296.812V576.223ZM303.769 369.757H296.812V370.503H303.769V369.757ZM304.142 575.336V370.13H303.396V575.336H304.142ZM303.396 575.347C303.397 575.38 303.398 575.413 303.398 575.446H304.144C304.144 575.406 304.143 575.366 304.142 575.325L303.396 575.347ZM303.398 575.446V587.416H304.144V575.446H303.398ZM303.398 587.416C303.398 604.61 289.532 618.461 272.502 618.461V619.207C289.946 619.207 304.144 605.02 304.144 587.416H303.398ZM272.502 618.461C255.484 618.461 241.533 604.622 241.533 587.416H240.787C240.787 605.035 255.072 619.207 272.502 619.207V618.461ZM241.533 587.416C241.533 578.849 245.05 571.073 250.605 565.416L250.072 564.893C244.39 570.681 240.787 578.641 240.787 587.416H241.533ZM250.605 565.416C251.902 564.095 254.006 564.092 255.308 565.408L255.838 564.883C254.244 563.271 251.661 563.275 250.072 564.893L250.605 565.416ZM255.308 565.408C256.612 566.727 256.616 568.872 255.316 570.196L255.849 570.719C257.434 569.104 257.43 566.492 255.838 564.883L255.308 565.408ZM255.316 570.196C250.914 574.68 248.19 580.772 248.19 587.416H248.936C248.936 580.98 251.574 575.072 255.849 570.719L255.316 570.196ZM248.19 587.416C248.19 600.78 259.056 611.695 272.502 611.695V610.949C259.468 610.949 248.936 600.368 248.936 587.416H248.19ZM272.502 611.695C285.926 611.695 297.187 600.916 297.187 587.529H296.441C296.441 600.484 285.534 610.949 272.502 610.949V611.695ZM297.187 587.529V576.223H296.441V587.529H297.187ZM296.812 576.596H296.814V575.85H296.812V576.596ZM296.439 370.13V576.223H297.186V370.13H296.439Z" fill="black"/>
<path d="M303.5 369.997H296.5V408.997H303.5V369.997Z" fill="black" fill-opacity="0.51"/>
<path fill-rule="evenodd" clip-rule="evenodd" d="M396.823 265.811C373.852 259.189 349.317 254.456 323.834 252.535C322.715 251.887 321.594 251.262 320.472 250.661C313.364 250.219 306.182 249.997 298.927 249.997C293.448 249.997 288.043 250.071 282.639 250.366C282 250.684 281.348 250.988 280.699 251.29L280.699 251.29C280.414 251.423 280.129 251.556 279.846 251.689C267.825 252.327 255.944 253.671 244.387 255.597C147.244 271.3 68.5075 326.08 45.5 366.398C68.5075 360.554 99.6955 361.578 132.198 370.781C151.7 376.332 169.465 383.513 184 392.497C184.285 392.367 184.494 392.329 184.711 392.29C185.048 392.229 185.407 392.165 186.105 391.747C196.781 387.355 209.234 383.466 223.185 380.428C246.137 375.418 273.013 372.469 301.74 372.469C346.792 372.469 386.572 379.723 414.738 391.185L414.767 391.305C414.863 391.344 414.96 391.385 415.058 391.427C415.71 391.705 416.433 392.014 417.421 391.684C424.798 386.937 432.028 383.551 441.304 379.753C453.721 374.64 467.672 370.477 482.572 367.701C507.771 362.954 531.8 362.881 551.74 366.533V366.46C532.677 331.62 473.369 287.942 396.823 265.811Z" fill="black"/>
<path d="M323.834 252.535L323.583 252.968L323.682 253.025L323.796 253.034L323.834 252.535ZM396.823 265.811L396.962 265.331L396.962 265.331L396.823 265.811ZM320.472 250.661L320.708 250.22L320.612 250.169L320.503 250.162L320.472 250.661ZM282.639 250.366L282.611 249.867L282.508 249.872L282.416 249.918L282.639 250.366ZM280.699 251.29L280.867 251.761L280.889 251.753L280.91 251.743L280.699 251.29ZM280.699 251.29L280.532 250.819L280.509 250.827L280.488 250.837L280.699 251.29ZM279.846 251.689L279.873 252.189L279.971 252.184L280.06 252.142L279.846 251.689ZM244.387 255.597L244.467 256.09L244.469 256.09L244.387 255.597ZM45.5 366.398L45.0657 366.15L44.4825 367.172L45.6231 366.882L45.5 366.398ZM132.198 370.781L132.335 370.3L132.334 370.3L132.198 370.781ZM184 392.497L183.737 392.922L183.964 393.062L184.207 392.952L184 392.497ZM184.711 392.29L184.8 392.782L184.8 392.782L184.711 392.29ZM186.105 391.747L185.915 391.285L185.881 391.299L185.849 391.318L186.105 391.747ZM223.185 380.428L223.292 380.917L223.292 380.917L223.185 380.428ZM414.738 391.185L415.225 391.069L415.165 390.819L414.927 390.722L414.738 391.185ZM414.767 391.305L414.281 391.422L414.341 391.673L414.581 391.77L414.767 391.305ZM415.058 391.427L414.862 391.887L414.862 391.887L415.058 391.427ZM417.421 391.684L417.579 392.159L417.639 392.139L417.692 392.105L417.421 391.684ZM441.304 379.753L441.494 380.216L441.495 380.215L441.304 379.753ZM482.572 367.701L482.663 368.193L482.664 368.193L482.572 367.701ZM551.74 366.533L551.65 367.025L552.24 367.133V366.533H551.74ZM551.74 366.46H552.24V366.332L552.179 366.22L551.74 366.46ZM323.796 253.034C349.242 254.952 373.743 259.678 396.685 266.292L396.962 265.331C373.961 258.7 349.392 253.96 323.872 252.037L323.796 253.034ZM320.236 251.102C321.353 251.7 322.469 252.322 323.583 252.968L324.085 252.103C322.96 251.452 321.835 250.824 320.708 250.22L320.236 251.102ZM298.927 250.497C306.172 250.497 313.344 250.719 320.441 251.16L320.503 250.162C313.385 249.719 306.193 249.497 298.927 249.497V250.497ZM282.666 250.865C288.058 250.571 293.452 250.497 298.927 250.497V249.497C293.444 249.497 288.029 249.571 282.611 249.867L282.666 250.865ZM280.91 251.743C281.558 251.442 282.216 251.135 282.861 250.814L282.416 249.918C281.784 250.233 281.137 250.534 280.488 250.837L280.91 251.743ZM280.866 251.761L280.867 251.761L280.532 250.819L280.532 250.819L280.866 251.761ZM280.06 252.142C280.341 252.009 280.625 251.877 280.91 251.744L280.488 250.837C280.202 250.97 279.917 251.103 279.633 251.237L280.06 252.142ZM244.469 256.09C256.009 254.167 267.871 252.826 279.873 252.189L279.82 251.19C267.779 251.829 255.879 253.175 244.305 255.104L244.469 256.09ZM45.9343 366.645C57.3781 346.591 82.7331 322.872 117.399 302.196C152.052 281.528 195.963 263.931 244.467 256.09L244.307 255.103C195.669 262.966 151.639 280.61 116.887 301.337C82.1466 322.057 56.6294 345.886 45.0657 366.15L45.9343 366.645ZM132.334 370.3C99.7698 361.079 68.4899 360.043 45.3769 365.913L45.6231 366.882C68.5251 361.066 99.6212 362.076 132.062 371.262L132.334 370.3ZM184.263 392.071C169.677 383.056 151.866 375.859 132.335 370.3L132.061 371.262C151.534 376.804 169.253 383.969 183.737 392.922L184.263 392.071ZM184.622 391.798C184.397 391.839 184.138 391.885 183.793 392.041L184.207 392.952C184.432 392.849 184.59 392.82 184.8 392.782L184.622 391.798ZM185.849 391.318C185.216 391.696 184.918 391.745 184.622 391.798L184.8 392.782C185.179 392.714 185.598 392.633 186.362 392.176L185.849 391.318ZM223.079 379.94C209.102 382.983 196.621 386.88 185.915 391.285L186.295 392.209C196.942 387.829 209.366 383.949 223.292 380.917L223.079 379.94ZM301.74 371.969C272.98 371.969 246.069 374.921 223.079 379.94L223.292 380.917C246.206 375.914 273.046 372.969 301.74 372.969V371.969ZM414.927 390.722C386.686 379.229 346.839 371.969 301.74 371.969V372.969C346.746 372.969 386.458 380.216 414.55 391.648L414.927 390.722ZM415.253 391.189L415.225 391.069L414.252 391.301L414.281 391.422L415.253 391.189ZM415.254 390.967C415.157 390.926 415.055 390.882 414.953 390.841L414.581 391.77C414.671 391.805 414.762 391.844 414.862 391.887L415.254 390.967ZM417.263 391.21C416.468 391.475 415.903 391.244 415.254 390.967L414.862 391.887C415.517 392.167 416.398 392.553 417.579 392.159L417.263 391.21ZM441.115 379.29C431.826 383.093 424.564 386.493 417.15 391.264L417.692 392.105C425.032 387.381 432.23 384.009 441.494 380.216L441.115 379.29ZM482.48 367.21C467.547 369.991 453.563 374.164 441.114 379.291L441.495 380.215C453.878 375.116 467.796 370.962 482.663 368.193L482.48 367.21ZM551.83 366.041C531.823 362.377 507.731 362.452 482.479 367.21L482.664 368.193C507.81 363.455 531.778 363.385 551.65 367.025L551.83 366.041ZM551.24 366.46V366.533H552.24V366.46H551.24ZM396.684 266.291C434.908 277.343 468.824 293.773 495.558 311.784C522.302 329.802 541.823 349.378 551.302 366.7L552.179 366.22C542.594 348.702 522.929 329.019 496.117 310.955C469.295 292.885 435.284 276.411 396.962 265.331L396.684 266.291Z" fill="black"/>
<path d="M302.5 407.997V372.997C302.5 372.445 302.052 371.997 301.5 371.997C300.948 371.997 300.5 372.445 300.5 372.997V407.997C300.5 408.55 300.948 408.997 301.5 408.997C302.052 408.997 302.5 408.55 302.5 407.997Z" fill="black"/>
<path d="M303.5 375.997H300.5V586.997H303.5V375.997Z" fill="black" fill-opacity="0.2"/>
<path d="M414.336 390.346C386.127 378.867 345.184 371.746 299.725 371.746C270.998 371.746 244.122 374.653 221.17 379.593C206.954 382.645 194.294 386.568 183.484 390.999C185.039 378.213 188 365.208 192.443 352.276C193.183 350.024 194.071 347.771 194.886 345.592C195.626 343.703 196.293 341.959 197.107 340.143C197.329 339.489 197.625 338.908 197.847 338.254C198.662 336.365 199.476 334.477 200.439 332.661C201.401 330.699 202.364 328.664 203.4 326.703C203.4 326.63 203.475 326.557 203.549 326.412C204.511 324.523 205.548 322.706 206.584 320.89C210.064 314.715 213.766 308.903 217.838 303.382C219.467 301.13 221.17 298.95 222.947 296.77C223.761 295.68 224.575 294.663 225.538 293.646C232.053 285.799 239.235 278.753 246.787 272.505C248.12 271.415 249.378 270.397 250.785 269.38C252.118 268.291 253.451 267.274 254.858 266.33C256.19 265.385 257.597 264.368 259.003 263.423C260.336 262.479 261.743 261.607 263.076 260.808C266.111 258.919 269.221 257.175 272.331 255.432C273.589 254.778 274.921 254.124 276.18 253.47C277.587 252.744 279.142 252.089 280.623 251.363C286.028 251.072 291.432 250.999 296.911 250.999C304.167 250.999 311.349 251.218 318.457 251.654C350.367 268.509 381.611 304.471 401.528 351.404C407.081 364.482 411.375 377.632 414.484 390.418L414.336 390.346Z" fill="#FFD011" stroke="black" stroke-miterlimit="10"/>
<path d="M552.256 365.35C532.316 361.698 508.286 361.77 483.087 366.518C468.187 369.293 454.237 373.457 441.82 378.569C432.544 382.367 424.072 386.677 416.695 391.424C416.041 391.638 415.476 391.373 414.998 390.497C411.93 377.642 407.272 364.473 401.794 351.326C382.146 304.142 351.251 267.987 319.844 251.042C346.942 252.722 373.017 257.616 397.339 264.628C473.885 286.759 533.193 330.437 552.256 365.277V365.35Z" fill="#FFDF88" stroke="black" stroke-width="1.57005" stroke-miterlimit="10"/>
<path d="M280.5 250.997C279.055 251.652 277.61 252.381 276.165 253.109C274.865 253.764 273.637 254.419 272.409 255.074C269.374 256.748 266.34 258.495 263.378 260.461C262.078 261.334 260.705 262.208 259.404 263.081C258.032 264.028 256.659 264.974 255.359 265.993C254.059 266.939 252.686 267.958 251.385 269.05C250.085 269.996 248.784 271.088 247.484 272.18C240.115 278.441 233.107 285.502 226.75 293.363C225.883 294.382 225.016 295.474 224.221 296.493C222.487 298.677 220.826 300.861 219.237 303.117C215.263 308.65 211.651 314.473 208.256 320.661C207.172 322.481 206.232 324.3 205.293 326.192C205.221 326.338 205.149 326.411 205.149 326.484C204.137 328.449 203.198 330.415 202.259 332.453C201.392 334.346 200.525 336.165 199.73 338.057C199.441 338.713 199.225 339.295 199.008 339.95C198.213 341.77 197.491 343.59 196.84 345.41C195.973 347.593 195.179 349.85 194.457 352.107C190.122 365.064 187.232 378.094 185.715 390.905C184.848 391.269 184.053 391.633 183.258 391.997C168.882 383.044 151.543 375.328 132.254 369.796C100.105 360.624 69.257 359.604 46.5 365.428C69.257 325.246 147.136 270.652 243.222 255.001C255.359 252.963 267.857 251.58 280.5 250.997Z" fill="#FFDF88" stroke="black" stroke-width="1.57005" stroke-miterlimit="10"/>
<mask id="mask0_832_12636" style="mask-type:alpha" maskUnits="userSpaceOnUse" x="44" y="250" width="236" height="140">
<path d="M279.5 250.999C278.049 251.645 276.598 252.363 275.147 253.081C273.841 253.726 272.607 254.372 271.374 255.018C268.327 256.669 265.28 258.391 262.305 260.328C260.999 261.19 259.62 262.051 258.314 262.912C256.936 263.845 255.558 264.778 254.252 265.782C252.946 266.715 251.567 267.719 250.261 268.796C248.955 269.729 247.649 270.805 246.343 271.882C238.942 278.053 231.905 285.014 225.52 292.764C224.649 293.769 223.779 294.845 222.981 295.85C221.239 298.002 219.571 300.155 217.975 302.38C213.985 307.834 210.357 313.575 206.947 319.675C205.858 321.469 204.915 323.262 203.972 325.128C203.899 325.271 203.827 325.343 203.827 325.415C202.811 327.352 201.867 329.29 200.924 331.3C200.054 333.165 199.183 334.959 198.385 336.825C198.095 337.47 197.877 338.045 197.66 338.69C196.862 340.484 196.136 342.278 195.483 344.072C194.612 346.225 193.814 348.45 193.089 350.675C188.736 363.448 185.834 376.293 184.31 388.923C183.44 389.281 182.641 389.64 181.843 389.999C167.405 381.173 149.992 373.567 130.621 368.113C98.3345 359.071 67.3543 358.066 44.5 363.807C67.3543 324.195 145.566 270.375 242.062 254.946C254.251 252.937 266.803 251.573 279.5 250.999Z" fill="#FFDF88"/>
</mask>
<g mask="url(#mask0_832_12636)">
<path d="M277.5 251.997C159.621 262.479 81.7171 331.279 57.5 364.368L60.0581 368.4L86.6628 380.997C135.779 308.032 233.5 259.052 277.5 251.997Z" fill="white" fill-opacity="0.4"/>
<path d="M289 249.497C226.46 257.149 130.422 328.767 105.754 362.265L99.5 373.997L115.135 364.815C133.897 330.127 244.18 256.639 289 249.497Z" fill="white" fill-opacity="0.4"/>
</g>
<path opacity="0.8" d="M119.294 301.285L142.196 318.168C142.237 318.198 142.33 318.145 142.404 318.051L163.691 291.001C163.765 290.907 163.792 290.806 163.752 290.777L140.85 273.893C140.809 273.863 140.716 273.916 140.642 274.01L119.355 301.06C119.281 301.154 119.254 301.255 119.294 301.285Z" fill="black" fill-opacity="0.3"/>
<path opacity="0.8" d="M451.403 301.321L436.548 310.277C436.521 310.293 436.554 310.403 436.621 310.522L455.842 344.799C455.909 344.919 455.984 345.003 456.011 344.987L470.866 336.031C470.892 336.015 470.859 335.905 470.792 335.786L451.572 301.509C451.505 301.39 451.429 301.305 451.403 301.321Z" fill="black" fill-opacity="0.3"/>
<path opacity="0.8" d="M76.2972 269.809L138.757 310.663C138.868 310.735 139.017 310.708 139.091 310.603L160.264 280.355C160.338 280.25 160.308 280.106 160.197 280.033L97.7376 239.18C97.6271 239.107 97.4777 239.134 97.4039 239.24L76.231 269.487C76.1571 269.593 76.1868 269.737 76.2972 269.809Z" fill="black" fill-opacity="0.3"/>
<path d="M159.533 280.697L138.531 310.7L77.2636 270.627L98.2657 240.623L159.533 280.697Z" fill="#2DA17D" stroke="black" stroke-width="0.550893"/>
<path d="M112.597 289.768L150.865 287.485C150.603 289.043 148.997 290.03 148.393 291.42L118.496 293.611C117.257 292.438 114.52 291.461 112.436 289.801L112.597 289.768Z" fill="#FFF6E9" fill-opacity="0.3"/>
<path d="M120.935 295.257L146.592 293.969C145.782 295.173 145.519 295.611 145.112 296.559L124.518 297.661C123.612 296.833 121.788 295.999 120.82 295.277L120.935 295.257Z" fill="#FFF6E9" fill-opacity="0.3"/>
<path d="M132.596 302.153C134.703 299.357 138.625 298.601 141.567 300.39C144.509 302.178 141.673 300.531 141.599 300.672L138.045 305.696C138.007 305.767 137.898 305.803 137.754 305.733L132.665 302.364C132.593 302.329 132.596 302.153 132.633 302.082L132.596 302.153Z" fill="#005D46"/>
<path d="M149.132 278.506C149.207 278.364 149.319 278.152 149.465 278.046L154.697 281.483C154.769 281.518 154.803 281.624 154.729 281.765L150.843 287.248C150.805 287.319 150.624 287.319 150.553 287.284C147.724 285.284 146.988 281.371 149.06 278.471L149.132 278.506Z" fill="#005D46"/>
<path d="M82.4439 269.276L85.9968 264.254C86.0341 264.183 86.215 264.182 86.2869 264.217C89.1155 266.217 89.8167 270.024 87.9257 272.924C86.0346 275.824 87.7792 273.03 87.6355 272.96L82.5476 269.593C82.4757 269.558 82.4412 269.453 82.5158 269.311L82.4439 269.276Z" fill="#005D46"/>
<path d="M95.3951 250.924L99.2821 245.44C99.3194 245.369 99.4286 245.333 99.5723 245.403L104.806 248.842C104.731 248.983 104.619 249.195 104.544 249.337C102.472 252.238 98.5122 253.065 95.4988 251.241C92.4855 249.418 95.3924 251.1 95.467 250.959L95.3951 250.924Z" fill="#005D46"/>
<path d="M138.167 306.048L155.021 281.97C155.072 281.898 155.054 281.8 154.98 281.752L99.7159 245.605C99.6423 245.557 99.5414 245.576 99.4905 245.649L82.6365 269.727C82.5856 269.799 82.6041 269.897 82.6777 269.945L137.942 306.092C138.015 306.14 138.116 306.121 138.167 306.048Z" stroke="#005D46" stroke-width="1.2223" stroke-miterlimit="10"/>
<path d="M135.46 281.631C133.714 280.781 131.563 281.484 130.657 283.202C129.75 284.92 130.431 287.003 132.178 287.853C133.924 288.704 136.075 288.001 136.981 286.283C137.887 284.565 137.207 282.482 135.46 281.631Z" fill="#005D46"/>
<path d="M105.812 262.217C104.065 261.367 101.915 262.07 101.008 263.788C100.102 265.506 100.783 267.588 102.529 268.439C104.276 269.29 106.426 268.587 107.333 266.869C108.239 265.151 107.558 263.068 105.812 262.217Z" fill="#005D46"/>
<path d="M123.284 266.811C118.363 264.413 112.302 266.395 109.748 271.237C107.193 276.079 109.112 281.948 114.034 284.346C118.956 286.743 125.016 284.761 127.571 279.919C130.125 275.077 128.206 269.209 123.284 266.811Z" fill="#005D46"/>
<path d="M122.129 271.757L122.091 271.828C123.986 273.372 123.886 275.101 123.146 276.162C123.146 276.162 123.146 276.162 123.074 276.127L121.606 275.145C121.606 275.145 121.606 275.145 121.643 275.074C121.904 274.579 121.771 273.804 121.13 273.136L121.058 273.101L119.357 275.471C119.357 275.471 119.357 275.471 119.319 275.542C120.854 276.911 121.485 278.284 120.411 279.805C119.301 281.396 117.276 281.298 115.839 280.598C115.839 280.598 115.839 280.598 115.767 280.563L115.064 281.554L114.205 280.957C114.205 280.957 114.205 280.957 114.242 280.887L114.982 279.826L115.019 279.755C113.841 278.737 113.288 277.046 114.287 275.666L115.755 276.648C115.755 276.648 115.755 276.648 115.718 276.719C115.494 277.143 115.449 277.743 115.874 278.306L115.946 278.341L117.39 276.29C117.39 276.29 117.39 276.29 117.427 276.219C116.248 275.2 114.969 273.689 116.375 271.708C117.522 270.046 119.622 270.003 121.128 270.914L121.2 270.949L121.903 269.959C121.903 269.959 121.903 269.959 121.975 269.994L122.834 270.59C122.834 270.59 122.834 270.59 122.797 270.661L122.094 271.651L122.129 271.757ZM118.387 277.309L118.315 277.274L116.909 279.254C116.909 279.254 116.872 279.325 116.944 279.36C117.734 279.745 118.57 279.53 118.977 278.929C119.385 278.328 119.068 277.729 118.462 277.167L118.387 277.309ZM118.388 274.91L118.46 274.945L120.015 272.682C120.015 272.682 120.052 272.611 119.981 272.576C119.118 272.156 118.211 272.336 117.766 273.008C117.505 273.503 117.494 274.208 118.279 274.946L118.388 274.91Z" fill="#E9F3E7"/>
<path opacity="0.8" d="M301.305 318.179L316.658 336.275C316.685 336.307 316.826 336.238 316.973 336.122L359.044 302.648C359.19 302.532 359.287 302.411 359.26 302.379L343.908 284.283C343.881 284.251 343.74 284.32 343.593 284.436L301.522 317.91C301.375 318.026 301.278 318.147 301.305 318.179Z" fill="black" fill-opacity="0.3"/>
<path opacity="0.8" d="M332.946 266.345L296.792 310.189C296.728 310.266 296.735 310.381 296.809 310.446L317.925 329.006C317.999 329.071 318.11 329.06 318.174 328.983L354.329 285.139C354.393 285.062 354.385 284.947 354.311 284.882L333.196 266.322C333.122 266.257 333.01 266.268 332.946 266.345Z" fill="black" fill-opacity="0.3"/>
<path d="M317.721 328.332L296.874 310.009L332.256 267.104L353.102 285.427L317.721 328.332Z" fill="#2DA17D" stroke="black" stroke-width="0.550893"/>
<path d="M314.799 292.142L313.318 321.294C312.161 320.965 311.549 319.667 310.547 319.094L311.396 296.284C312.387 295.444 313.357 293.455 314.787 292.017L314.799 292.142Z" fill="#FFF6E9" fill-opacity="0.3"/>
<path d="M309.944 297.992L308.767 317.517C307.924 316.803 307.615 316.567 306.931 316.18L307.824 300.502C308.527 299.886 309.31 298.575 309.938 297.904L309.944 297.992Z" fill="#FFF6E9" fill-opacity="0.3"/>
<path d="M303.752 306.238C305.691 308.067 305.934 311.099 304.334 313.175C302.734 315.251 304.218 313.244 304.118 313.176L300.613 310.065C300.563 310.03 300.545 309.945 300.61 309.842L303.586 306.272C303.618 306.221 303.752 306.238 303.802 306.272L303.752 306.238Z" fill="#005D46"/>
<path d="M320.257 320.737C320.358 320.805 320.509 320.907 320.577 321.027L317.537 324.698C317.505 324.75 317.422 324.767 317.321 324.699L313.497 321.298C313.447 321.264 313.462 321.127 313.494 321.076C315.245 319.102 318.268 318.874 320.29 320.685L320.257 320.737Z" fill="#005D46"/>
<path d="M332.835 271.043L336.338 274.153C336.388 274.187 336.373 274.324 336.341 274.376C334.59 276.349 331.65 276.56 329.614 274.886C327.578 273.211 329.546 274.766 329.611 274.663L332.586 271.095C332.619 271.044 332.701 271.026 332.802 271.095L332.835 271.043Z" fill="#005D46"/>
<path d="M345.637 282.383L349.462 285.784C349.512 285.819 349.53 285.904 349.465 286.007L346.424 289.679C346.323 289.611 346.172 289.508 346.072 289.44C344.05 287.628 343.756 284.562 345.389 282.435C347.021 280.307 345.504 282.366 345.605 282.434L345.637 282.383Z" fill="#005D46"/>
<path d="M300.334 310.129L317.143 324.903C317.193 324.947 317.269 324.941 317.312 324.89L349.301 286.097C349.343 286.046 349.337 285.968 349.286 285.923L332.478 271.149C332.427 271.105 332.351 271.111 332.309 271.162L300.319 309.954C300.277 310.006 300.283 310.084 300.334 310.129Z" stroke="#005D46" stroke-width="1.2223" stroke-miterlimit="10"/>
<path d="M319.032 310.129C319.823 308.879 319.471 307.193 318.246 306.363C317.022 305.533 315.389 305.873 314.599 307.124C313.809 308.374 314.16 310.06 315.385 310.89C316.609 311.72 318.242 311.38 319.032 310.129Z" fill="#005D46"/>
<path d="M336.212 289.319C337.002 288.069 336.65 286.382 335.426 285.552C334.202 284.722 332.569 285.063 331.779 286.313C330.988 287.563 331.34 289.25 332.564 290.08C333.789 290.91 335.422 290.569 336.212 289.319Z" fill="#005D46"/>
<path d="M331.269 302.158C333.496 298.634 332.504 293.882 329.054 291.543C325.604 289.203 321.002 290.164 318.775 293.687C316.548 297.211 317.539 301.964 320.989 304.303C324.44 306.642 329.042 305.682 331.269 302.158Z" fill="#005D46"/>
<path d="M327.614 300.869L327.564 300.835C326.236 302.139 324.936 301.919 324.195 301.27C324.195 301.27 324.195 301.27 324.228 301.218L325.094 300.189C325.094 300.189 325.094 300.189 325.145 300.223C325.497 300.462 326.095 300.427 326.654 299.998L326.687 299.946L325.036 298.46C325.036 298.46 325.036 298.46 324.986 298.426C323.82 299.473 322.728 299.834 321.667 298.895C320.556 297.921 320.8 296.396 321.451 295.368C321.451 295.368 321.451 295.368 321.483 295.316L320.793 294.701L321.316 294.101C321.316 294.101 321.316 294.101 321.366 294.135L322.107 294.784L322.158 294.818C323.027 294.012 324.353 293.735 325.313 294.606L324.447 295.636C324.447 295.636 324.447 295.636 324.396 295.601C324.094 295.397 323.644 295.312 323.183 295.587L323.15 295.638L324.581 296.902C324.581 296.902 324.581 296.902 324.632 296.937C325.501 296.13 326.753 295.289 328.134 296.519C329.295 297.527 329.152 299.119 328.336 300.183L328.303 300.234L328.994 300.849C328.994 300.849 328.994 300.849 328.961 300.901L328.438 301.501C328.438 301.501 328.438 301.501 328.388 301.467L327.697 300.852L327.614 300.869ZM323.727 297.572L323.759 297.521L322.378 296.29C322.378 296.29 322.328 296.256 322.295 296.308C321.938 296.874 322.03 297.524 322.451 297.883C322.872 298.242 323.351 298.052 323.827 297.64L323.727 297.572ZM325.542 297.774L325.509 297.825L327.091 299.192C327.091 299.192 327.142 299.226 327.174 299.175C327.564 298.557 327.504 297.856 327.033 297.463C326.681 297.224 326.148 297.156 325.524 297.688L325.542 297.774Z" fill="#E9F3E7"/>
<path opacity="0.8" d="M210.196 363.538L200.484 374.986C200.467 375.006 200.378 374.963 200.285 374.889L173.671 353.713C173.578 353.64 173.517 353.563 173.534 353.543L183.246 342.095C183.263 342.075 183.352 342.119 183.445 342.192L210.059 363.368C210.152 363.442 210.213 363.518 210.196 363.538Z" fill="black" fill-opacity="0.3"/>
<path opacity="0.8" d="M190.176 330.749L213.048 358.485C213.088 358.534 213.083 358.607 213.037 358.648L199.679 370.389C199.632 370.43 199.562 370.423 199.521 370.374L176.649 342.638C176.609 342.589 176.614 342.517 176.661 342.476L190.018 330.735C190.065 330.694 190.136 330.7 190.176 330.749Z" fill="black" fill-opacity="0.3"/>
<path d="M199.809 369.961L212.996 358.37L190.614 331.228L177.427 342.819L199.809 369.961Z" fill="#2DA17D" stroke="black" stroke-width="0.348499"/>
<path d="M201.659 347.068L202.596 365.51C203.328 365.301 203.715 364.48 204.348 364.118L203.811 349.688C203.184 349.157 202.571 347.898 201.666 346.989L201.659 347.068Z" fill="#FFF6E9" fill-opacity="0.3"/>
<path d="M204.728 350.768L205.472 363.12C206.005 362.668 206.201 362.519 206.633 362.274L206.069 352.356C205.624 351.967 205.128 351.137 204.731 350.712L204.728 350.768Z" fill="#FFF6E9" fill-opacity="0.3"/>
<path d="M208.648 355.984C207.421 357.141 207.267 359.059 208.279 360.372C209.292 361.686 208.352 360.416 208.416 360.372L210.633 358.404C210.665 358.383 210.676 358.329 210.635 358.264L208.753 356.005C208.732 355.973 208.648 355.984 208.616 356.005L208.648 355.984Z" fill="#005D46"/>
<path d="M198.203 365.155C198.14 365.199 198.044 365.264 198.001 365.339L199.924 367.662C199.945 367.694 199.997 367.705 200.061 367.662L202.48 365.511C202.511 365.489 202.502 365.402 202.482 365.37C201.374 364.122 199.462 363.977 198.183 365.123L198.203 365.155Z" fill="#005D46"/>
<path d="M190.248 333.72L188.031 335.687C188 335.708 188.009 335.795 188.029 335.828C189.137 337.076 190.997 337.21 192.285 336.15C193.573 335.091 192.328 336.075 192.287 336.01L190.405 333.752C190.384 333.72 190.332 333.709 190.268 333.752L190.248 333.72Z" fill="#005D46"/>
<path d="M182.149 340.893L179.73 343.045C179.698 343.067 179.686 343.121 179.728 343.186L181.651 345.509C181.715 345.466 181.81 345.401 181.874 345.358C183.153 344.211 183.339 342.272 182.306 340.926C181.273 339.58 182.233 340.883 182.169 340.926L182.149 340.893Z" fill="#005D46"/>
<path d="M210.808 358.446L200.175 367.792C200.143 367.82 200.095 367.817 200.068 367.784L179.832 343.244C179.805 343.211 179.809 343.162 179.841 343.133L190.474 333.787C190.506 333.759 190.554 333.763 190.581 333.796L210.818 358.336C210.845 358.369 210.84 358.418 210.808 358.446Z" stroke="#005D46" stroke-width="0.773237" stroke-miterlimit="10"/>
<path d="M198.978 358.445C198.478 357.654 198.7 356.587 199.475 356.062C200.249 355.537 201.282 355.753 201.782 356.544C202.282 357.335 202.06 358.402 201.285 358.927C200.511 359.452 199.478 359.236 198.978 358.445Z" fill="#005D46"/>
<path d="M188.107 345.281C187.607 344.49 187.829 343.423 188.604 342.898C189.378 342.373 190.411 342.589 190.911 343.38C191.411 344.171 191.189 345.238 190.414 345.763C189.64 346.288 188.607 346.072 188.107 345.281Z" fill="#005D46"/>
<path d="M191.233 353.402C189.824 351.173 190.451 348.166 192.634 346.687C194.816 345.207 197.728 345.814 199.137 348.043C200.545 350.272 199.918 353.279 197.736 354.759C195.553 356.239 192.641 355.631 191.233 353.402Z" fill="#005D46"/>
<path d="M193.553 352.587L193.585 352.566C194.425 353.391 195.247 353.252 195.716 352.841C195.716 352.841 195.716 352.841 195.695 352.808L195.147 352.157C195.147 352.157 195.147 352.157 195.115 352.179C194.892 352.33 194.514 352.308 194.16 352.036L194.14 352.004L195.184 351.063C195.184 351.063 195.184 351.063 195.216 351.042C195.953 351.704 196.644 351.933 197.315 351.338C198.018 350.722 197.863 349.758 197.452 349.107C197.452 349.107 197.452 349.107 197.431 349.075L197.868 348.686L197.537 348.306C197.537 348.306 197.537 348.306 197.505 348.327L197.037 348.738L197.005 348.76C196.455 348.249 195.616 348.074 195.008 348.626L195.556 349.277C195.556 349.277 195.556 349.277 195.588 349.255C195.779 349.125 196.064 349.072 196.356 349.246L196.377 349.278L195.471 350.078C195.471 350.078 195.471 350.078 195.439 350.1C194.889 349.589 194.098 349.057 193.224 349.835C192.489 350.473 192.58 351.481 193.096 352.153L193.117 352.186L192.68 352.575C192.68 352.575 192.68 352.575 192.701 352.607L193.032 352.987C193.032 352.987 193.032 352.987 193.064 352.966L193.5 352.576L193.553 352.587ZM196.012 350.502L195.992 350.469L196.865 349.691C196.865 349.691 196.897 349.669 196.918 349.702C197.144 350.06 197.085 350.471 196.819 350.698C196.553 350.925 196.25 350.805 195.948 350.545L196.012 350.502ZM194.864 350.629L194.884 350.662L193.883 351.526C193.883 351.526 193.852 351.548 193.831 351.516C193.584 351.125 193.622 350.681 193.92 350.432C194.143 350.281 194.48 350.239 194.875 350.575L194.864 350.629Z" fill="#E9F3E7"/>
<path opacity="0.8" d="M485.093 330.213L457.697 298.99C457.649 298.935 457.565 298.927 457.509 298.972L441.644 312.032C441.589 312.078 441.583 312.159 441.631 312.214L469.027 343.438C469.075 343.493 469.159 343.501 469.215 343.456L485.08 330.396C485.135 330.35 485.141 330.269 485.093 330.213Z" fill="black" fill-opacity="0.3"/>
<path d="M442.157 311.962L457.82 299.069L484.629 329.625L468.966 342.518L442.157 311.962Z" fill="#2DA17D" stroke="black" stroke-width="0.402675"/>
<path d="M468.608 314.095L447.749 309.61C448.122 308.814 449.13 308.524 449.661 307.869L466.019 311.155C466.508 311.968 467.83 312.901 468.7 314.101L468.608 314.095Z" fill="#FFF6E9" fill-opacity="0.3"/>
<path d="M464.957 309.91L451.007 306.773C451.621 306.248 451.828 306.053 452.187 305.605L463.394 308.086C463.756 308.666 464.61 309.385 465.021 309.916L464.957 309.91Z" fill="#FFF6E9" fill-opacity="0.3"/>
<path d="M459.734 304.473C458.186 305.658 455.971 305.478 454.66 304.08C453.35 302.682 454.624 303.989 454.685 303.924L457.34 301.76C457.371 301.728 457.435 301.725 457.501 301.784L459.728 304.349C459.761 304.379 459.734 304.473 459.703 304.505L459.734 304.473Z" fill="#005D46"/>
<path d="M447.34 314.684C447.279 314.749 447.187 314.846 447.093 314.881L444.801 312.258C444.767 312.228 444.764 312.166 444.826 312.102L447.727 309.741C447.758 309.709 447.855 309.736 447.888 309.765C449.107 311.26 448.917 313.468 447.374 314.714L447.34 314.684Z" fill="#005D46"/>
<path d="M481.717 329.581L479.063 331.744C479.032 331.776 478.935 331.75 478.902 331.72C477.684 330.226 477.876 328.08 479.322 326.807C480.769 325.534 479.416 326.772 479.483 326.831L481.709 329.395C481.742 329.425 481.745 329.487 481.684 329.551L481.717 329.581Z" fill="#005D46"/>
<path d="M472.037 337.491L469.135 339.852C469.104 339.884 469.04 339.887 468.974 339.828L466.681 337.204C466.742 337.139 466.833 337.042 466.894 336.977C468.439 335.731 470.685 335.878 472.029 337.305C473.372 338.733 472.065 337.397 472.004 337.462L472.037 337.491Z" fill="#005D46"/>
<path d="M457.327 301.552L444.698 311.948C444.66 311.98 444.655 312.035 444.687 312.072L468.927 339.698C468.959 339.735 469.016 339.739 469.054 339.708L481.683 329.312C481.721 329.281 481.726 329.225 481.694 329.189L457.454 301.562C457.422 301.525 457.365 301.521 457.327 301.552Z" stroke="#005D46" stroke-width="0.893442" stroke-miterlimit="10"/>
<path d="M455.133 315.049C455.942 315.766 457.2 315.71 457.943 314.924C458.685 314.138 458.631 312.92 457.821 312.203C457.012 311.486 455.754 311.542 455.011 312.328C454.269 313.115 454.323 314.333 455.133 315.049Z" fill="#005D46"/>
<path d="M468.133 329.881C468.942 330.598 470.2 330.542 470.943 329.756C471.685 328.97 471.631 327.752 470.821 327.035C470.012 326.318 468.754 326.375 468.011 327.161C467.269 327.947 467.323 329.165 468.133 329.881Z" fill="#005D46"/>
<path d="M459.449 324.813C461.73 326.832 465.276 326.674 467.368 324.459C469.46 322.244 469.306 318.811 467.025 316.791C464.744 314.771 461.199 314.93 459.107 317.145C457.015 319.36 457.168 322.793 459.449 324.813Z" fill="#005D46"/>
<path d="M460.808 322.33L460.838 322.298C460.053 321.187 460.364 320.275 460.92 319.816C460.92 319.816 460.919 319.816 460.953 319.846L461.594 320.591C461.594 320.591 461.594 320.591 461.563 320.624C461.349 320.85 461.305 321.286 461.549 321.739L461.582 321.769L462.848 320.752C462.848 320.752 462.848 320.752 462.879 320.72C462.26 319.756 462.127 318.926 462.929 318.271C463.762 317.583 464.833 317.938 465.499 318.528C465.499 318.528 465.499 318.528 465.533 318.557L466.057 318.131L466.429 318.579C466.429 318.579 466.429 318.579 466.399 318.611L465.844 319.07L465.813 319.102C466.293 319.824 466.337 320.813 465.596 321.404L464.955 320.658C464.955 320.658 464.955 320.658 464.986 320.626C465.169 320.432 465.283 320.117 465.138 319.752L465.105 319.722L464.025 320.607C464.025 320.607 464.025 320.607 463.995 320.639C464.475 321.361 464.935 322.362 463.886 323.215C463.023 323.934 461.89 323.644 461.219 322.931L461.185 322.902L460.661 323.328C460.661 323.328 460.661 323.328 460.627 323.298L460.255 322.85C460.255 322.85 460.255 322.85 460.286 322.818L460.811 322.392L460.808 322.33ZM463.642 319.911L463.676 319.941L464.725 319.089C464.725 319.089 464.756 319.056 464.722 319.027C464.356 318.703 463.876 318.693 463.568 318.955C463.259 319.216 463.34 319.584 463.581 319.976L463.642 319.911ZM463.284 321.197L463.251 321.168L462.079 322.149C462.079 322.149 462.049 322.182 462.082 322.211C462.482 322.565 462.995 322.604 463.334 322.31C463.547 322.084 463.659 321.707 463.348 321.194L463.284 321.197Z" fill="#E9F3E7"/>
</g>
<defs>
<clipPath id="clip0_832_12636">
<rect width="614" height="664" fill="white"/>
</clipPath>
</defs>
</svg>
