<svg width="565" height="367" viewBox="0 0 565 367" fill="none" xmlns="http://www.w3.org/2000/svg">
<g clip-path="url(#clip0_1159_12737)">
<rect width="565" height="365" rx="11.937" fill="#E9F3E7"/>
<mask id="mask0_1159_12737" style="mask-type:alpha" maskUnits="userSpaceOnUse" x="14" y="5" width="548" height="354">
<circle cx="16.3788" cy="7.46087" r="1.49212" fill="black"/>
<circle cx="61.1425" cy="7.46087" r="1.49212" fill="black"/>
<circle cx="105.906" cy="7.46087" r="1.49212" fill="black"/>
<circle cx="150.67" cy="7.46087" r="1.49212" fill="black"/>
<circle cx="195.434" cy="7.46087" r="1.49212" fill="black"/>
<circle cx="240.197" cy="7.46087" r="1.49212" fill="black"/>
<circle cx="284.961" cy="7.46087" r="1.49212" fill="black"/>
<circle cx="329.725" cy="7.46087" r="1.49212" fill="black"/>
<circle cx="374.488" cy="7.46087" r="1.49212" fill="black"/>
<circle cx="419.252" cy="7.46087" r="1.49212" fill="black"/>
<circle cx="464.016" cy="7.46087" r="1.49212" fill="black"/>
<circle cx="508.777" cy="7.46087" r="1.49212" fill="black"/>
<circle cx="553.541" cy="7.46087" r="1.49212" fill="black"/>
<circle cx="16.3788" cy="46.2558" r="1.49212" fill="black"/>
<circle cx="61.1425" cy="46.2558" r="1.49212" fill="black"/>
<circle cx="105.906" cy="46.2558" r="1.49212" fill="black"/>
<circle cx="150.67" cy="46.2558" r="1.49212" fill="black"/>
<circle cx="195.434" cy="46.2558" r="1.49212" fill="black"/>
<circle cx="240.197" cy="46.2558" r="1.49212" fill="black"/>
<circle cx="284.961" cy="46.2558" r="1.49212" fill="black"/>
<circle cx="329.725" cy="46.2558" r="1.49212" fill="black"/>
<circle cx="374.488" cy="46.2558" r="1.49212" fill="black"/>
<circle cx="419.252" cy="46.2558" r="1.49212" fill="black"/>
<circle cx="464.016" cy="46.2558" r="1.49212" fill="black"/>
<circle cx="508.777" cy="46.2558" r="1.49212" fill="black"/>
<circle cx="553.541" cy="46.2558" r="1.49212" fill="black"/>
<circle cx="16.3788" cy="85.0507" r="1.49212" fill="black"/>
<circle cx="61.1425" cy="85.0507" r="1.49212" fill="black"/>
<circle cx="105.906" cy="85.0507" r="1.49212" fill="black"/>
<circle cx="150.67" cy="85.0507" r="1.49212" fill="black"/>
<circle cx="195.434" cy="85.0507" r="1.49212" fill="black"/>
<circle cx="240.197" cy="85.0507" r="1.49212" fill="black"/>
<circle cx="284.961" cy="85.0507" r="1.49212" fill="black"/>
<circle cx="329.725" cy="85.0507" r="1.49212" fill="black"/>
<circle cx="374.488" cy="85.0507" r="1.49212" fill="black"/>
<circle cx="419.252" cy="85.0507" r="1.49212" fill="black"/>
<circle cx="464.016" cy="85.0507" r="1.49212" fill="black"/>
<circle cx="508.777" cy="85.0507" r="1.49212" fill="black"/>
<circle cx="553.541" cy="85.0507" r="1.49212" fill="black"/>
<circle cx="16.3788" cy="123.846" r="1.49212" fill="black"/>
<circle cx="61.1425" cy="123.846" r="1.49212" fill="black"/>
<circle cx="105.906" cy="123.846" r="1.49212" fill="black"/>
<circle cx="150.67" cy="123.846" r="1.49212" fill="black"/>
<circle cx="195.434" cy="123.846" r="1.49212" fill="black"/>
<circle cx="240.197" cy="123.846" r="1.49212" fill="black"/>
<circle cx="284.961" cy="123.846" r="1.49212" fill="black"/>
<circle cx="329.725" cy="123.846" r="1.49212" fill="black"/>
<circle cx="374.488" cy="123.846" r="1.49212" fill="black"/>
<circle cx="419.252" cy="123.846" r="1.49212" fill="black"/>
<circle cx="464.016" cy="123.846" r="1.49212" fill="black"/>
<circle cx="508.777" cy="123.846" r="1.49212" fill="black"/>
<circle cx="553.541" cy="123.846" r="1.49212" fill="black"/>
<circle cx="16.3788" cy="162.641" r="1.49212" fill="black"/>
<circle cx="61.1425" cy="162.641" r="1.49212" fill="black"/>
<circle cx="105.906" cy="162.641" r="1.49212" fill="black"/>
<circle cx="150.67" cy="162.641" r="1.49212" fill="black"/>
<circle cx="195.434" cy="162.641" r="1.49212" fill="black"/>
<circle cx="240.197" cy="162.641" r="1.49212" fill="black"/>
<circle cx="284.961" cy="162.641" r="1.49212" fill="black"/>
<circle cx="329.725" cy="162.641" r="1.49212" fill="black"/>
<circle cx="374.488" cy="162.641" r="1.49212" fill="black"/>
<circle cx="419.252" cy="162.641" r="1.49212" fill="black"/>
<circle cx="464.016" cy="162.641" r="1.49212" fill="black"/>
<circle cx="508.777" cy="162.641" r="1.49212" fill="black"/>
<circle cx="553.541" cy="162.641" r="1.49212" fill="black"/>
<circle cx="16.3788" cy="201.435" r="1.49212" fill="black"/>
<circle cx="61.1425" cy="201.435" r="1.49212" fill="black"/>
<circle cx="105.906" cy="201.435" r="1.49212" fill="black"/>
<circle cx="150.67" cy="201.435" r="1.49212" fill="black"/>
<circle cx="195.434" cy="201.435" r="1.49212" fill="black"/>
<circle cx="240.197" cy="201.435" r="1.49212" fill="black"/>
<circle cx="284.961" cy="201.435" r="1.49212" fill="black"/>
<circle cx="329.725" cy="201.435" r="1.49212" fill="black"/>
<circle cx="374.488" cy="201.435" r="1.49212" fill="black"/>
<circle cx="419.252" cy="201.435" r="1.49212" fill="black"/>
<circle cx="464.016" cy="201.435" r="1.49212" fill="black"/>
<circle cx="508.777" cy="201.435" r="1.49212" fill="black"/>
<circle cx="553.541" cy="201.435" r="1.49212" fill="black"/>
<circle cx="16.3788" cy="240.232" r="1.49212" fill="black"/>
<circle cx="61.1425" cy="240.232" r="1.49212" fill="black"/>
<circle cx="105.906" cy="240.232" r="1.49212" fill="black"/>
<circle cx="150.67" cy="240.232" r="1.49212" fill="black"/>
<circle cx="195.434" cy="240.232" r="1.49212" fill="black"/>
<circle cx="240.197" cy="240.232" r="1.49212" fill="black"/>
<circle cx="284.961" cy="240.232" r="1.49212" fill="black"/>
<circle cx="329.725" cy="240.232" r="1.49212" fill="black"/>
<circle cx="374.488" cy="240.232" r="1.49212" fill="black"/>
<circle cx="419.252" cy="240.232" r="1.49212" fill="black"/>
<circle cx="464.016" cy="240.232" r="1.49212" fill="black"/>
<circle cx="508.777" cy="240.232" r="1.49212" fill="black"/>
<circle cx="553.541" cy="240.232" r="1.49212" fill="black"/>
<circle cx="16.3788" cy="279.027" r="1.49212" fill="black"/>
<circle cx="61.1425" cy="279.027" r="1.49212" fill="black"/>
<circle cx="105.906" cy="279.027" r="1.49212" fill="black"/>
<circle cx="150.67" cy="279.027" r="1.49212" fill="black"/>
<circle cx="195.434" cy="279.027" r="1.49212" fill="black"/>
<circle cx="240.197" cy="279.027" r="1.49212" fill="black"/>
<circle cx="284.961" cy="279.027" r="1.49212" fill="black"/>
<circle cx="329.725" cy="279.027" r="1.49212" fill="black"/>
<circle cx="374.488" cy="279.027" r="1.49212" fill="black"/>
<circle cx="419.252" cy="279.027" r="1.49212" fill="black"/>
<circle cx="464.016" cy="279.027" r="1.49212" fill="black"/>
<circle cx="508.777" cy="279.027" r="1.49212" fill="black"/>
<circle cx="553.541" cy="279.027" r="1.49212" fill="black"/>
<circle cx="16.3788" cy="317.822" r="1.49212" fill="black"/>
<circle cx="61.1425" cy="317.822" r="1.49212" fill="black"/>
<circle cx="105.906" cy="317.822" r="1.49212" fill="black"/>
<circle cx="150.67" cy="317.822" r="1.49212" fill="black"/>
<circle cx="195.434" cy="317.822" r="1.49212" fill="black"/>
<circle cx="240.197" cy="317.822" r="1.49212" fill="black"/>
<circle cx="284.961" cy="317.822" r="1.49212" fill="black"/>
<circle cx="329.725" cy="317.822" r="1.49212" fill="black"/>
<circle cx="374.488" cy="317.822" r="1.49212" fill="black"/>
<circle cx="419.252" cy="317.822" r="1.49212" fill="black"/>
<circle cx="464.016" cy="317.822" r="1.49212" fill="black"/>
<circle cx="508.777" cy="317.822" r="1.49212" fill="black"/>
<circle cx="553.541" cy="317.822" r="1.49212" fill="black"/>
<circle cx="16.3788" cy="356.617" r="1.49212" fill="black"/>
<circle cx="61.1425" cy="356.617" r="1.49212" fill="black"/>
<circle cx="105.906" cy="356.617" r="1.49212" fill="black"/>
<circle cx="150.67" cy="356.617" r="1.49212" fill="black"/>
<circle cx="195.434" cy="356.617" r="1.49212" fill="black"/>
<circle cx="240.197" cy="356.617" r="1.49212" fill="black"/>
<circle cx="284.961" cy="356.617" r="1.49212" fill="black"/>
<circle cx="329.725" cy="356.617" r="1.49212" fill="black"/>
<circle cx="374.488" cy="356.617" r="1.49212" fill="black"/>
<circle cx="419.252" cy="356.617" r="1.49212" fill="black"/>
<circle cx="464.016" cy="356.617" r="1.49212" fill="black"/>
<circle cx="508.777" cy="356.617" r="1.49212" fill="black"/>
<circle cx="553.541" cy="356.617" r="1.49212" fill="black"/>
</mask>
<g mask="url(#mask0_1159_12737)">
<rect x="4.46094" y="-0.279297" width="561.042" height="365.072" rx="11.937" fill="#005D46" fill-opacity="0.3"/>
</g>
<rect x="198.102" y="173.086" width="31.9532" height="6.03953" fill="#89C5A5"/>
<rect x="198.102" y="183.957" width="31.9532" height="6.03953" fill="#89C5A5"/>
<rect x="197.109" y="174.08" width="31.9532" height="6.03953" fill="#005D46"/>
<rect x="197.109" y="184.951" width="31.9532" height="6.03953" fill="#005D46"/>
<path d="M322.743 161.738L322.689 188.55V161.684L322.743 161.738Z" fill="#9A6BA7" stroke="#101828" stroke-width="0.44988" stroke-miterlimit="10"/>
<path d="M327.026 152.074L326.971 152.129L326.898 152.074H327.026Z" fill="#9A6BA7" stroke="#101828" stroke-width="0.44988" stroke-miterlimit="10"/>
<path d="M329.887 154.558V188.119L329.401 188.568L322.689 194.471V188.568L322.743 161.738L322.689 161.684V161.126C322.689 159.632 321.483 158.427 319.99 158.427H289.668L296.866 152.074H326.9L326.972 152.128L327.026 152.074H327.278C328.682 152.074 329.851 153.172 329.905 154.54L329.887 154.558Z" fill="#9A6BA7" stroke="#101828" stroke-width="0.44988" stroke-miterlimit="10"/>
<path d="M322.689 161.125V194.2C322.689 194.596 322.401 194.902 322.005 194.902H288.174C287.779 194.902 287.473 194.578 287.473 194.2V161.665C287.473 159.883 288.948 158.426 290.73 158.426H320.008C321.502 158.426 322.707 159.631 322.707 161.125H322.689Z" fill="#E6D0F3" stroke="#101828" stroke-width="0.44988" stroke-miterlimit="10"/>
<path d="M329.275 153.207L321.789 159.433" stroke="#101828" stroke-width="0.44988" stroke-miterlimit="10"/>
<path d="M365.175 161.738L365.121 188.55V161.684L365.175 161.738Z" fill="#9A6BA7" stroke="#101828" stroke-width="0.44988" stroke-miterlimit="10"/>
<path d="M369.461 152.074L369.407 152.129L369.334 152.074H369.461Z" fill="#9A6BA7" stroke="#101828" stroke-width="0.44988" stroke-miterlimit="10"/>
<path d="M372.319 154.558V188.119L371.833 188.568L365.121 194.471V188.568L365.175 161.738L365.121 161.684V161.126C365.121 159.632 363.915 158.427 362.422 158.427H332.1L339.298 152.074H369.332L369.404 152.128L369.458 152.074H369.71C371.113 152.074 372.283 153.172 372.337 154.54L372.319 154.558Z" fill="#9A6BA7" stroke="#101828" stroke-width="0.44988" stroke-miterlimit="10"/>
<path d="M365.121 161.125V194.2C365.121 194.596 364.833 194.902 364.437 194.902H330.606C330.21 194.902 329.904 194.578 329.904 194.2V161.665C329.904 159.883 331.38 158.426 333.161 158.426H362.44C363.933 158.426 365.139 159.631 365.139 161.125H365.121Z" fill="#E6D0F3" stroke="#101828" stroke-width="0.44988" stroke-miterlimit="10"/>
<path d="M371.705 153.209L364.219 159.435" stroke="#101828" stroke-width="0.44988" stroke-miterlimit="10"/>
<path d="M407.607 161.738L407.553 188.55V161.684L407.607 161.738Z" fill="#9A6BA7" stroke="#101828" stroke-width="0.44988" stroke-miterlimit="10"/>
<path d="M411.889 152.074L411.834 152.129L411.762 152.074H411.889Z" fill="#9A6BA7" stroke="#101828" stroke-width="0.44988" stroke-miterlimit="10"/>
<path d="M414.75 154.558V188.119L414.265 188.568L407.552 194.471V188.568L407.606 161.738L407.552 161.684V161.126C407.552 159.632 406.347 158.427 404.853 158.427H374.531L381.729 152.074H411.763L411.835 152.128L411.889 152.074H412.141C413.545 152.074 414.714 153.172 414.768 154.54L414.75 154.558Z" fill="#9A6BA7" stroke="#101828" stroke-width="0.44988" stroke-miterlimit="10"/>
<path d="M407.553 161.125V194.2C407.553 194.596 407.265 194.902 406.869 194.902H373.038C372.642 194.902 372.336 194.578 372.336 194.2V161.665C372.336 159.883 373.812 158.426 375.593 158.426H404.871C406.365 158.426 407.57 159.631 407.57 161.125H407.553Z" fill="#E6D0F3" stroke="#101828" stroke-width="0.44988" stroke-miterlimit="10"/>
<path d="M414.14 153.209L406.654 159.435" stroke="#101828" stroke-width="0.44988" stroke-miterlimit="10"/>
<path d="M321.663 121.492L321.609 148.304V121.438L321.663 121.492Z" fill="#9A6BA7" stroke="#101828" stroke-width="0.44988" stroke-miterlimit="10"/>
<path d="M325.944 111.828L325.889 111.883L325.816 111.828H325.944Z" fill="#9A6BA7" stroke="#101828" stroke-width="0.44988" stroke-miterlimit="10"/>
<path d="M328.805 114.311V147.872L328.319 148.322L321.607 154.225V148.322L321.661 121.492L321.607 121.438V120.88C321.607 119.386 320.401 118.18 318.908 118.18H288.586L295.784 111.828H325.818L325.89 111.882L325.944 111.828H326.196C327.599 111.828 328.769 112.926 328.823 114.294L328.805 114.311Z" fill="#9A6BA7" stroke="#101828" stroke-width="0.44988" stroke-miterlimit="10"/>
<path d="M321.609 120.879V153.954C321.609 154.35 321.321 154.656 320.925 154.656H287.094C286.699 154.656 286.393 154.332 286.393 153.954V121.419C286.393 119.637 287.868 118.18 289.65 118.18H318.928C320.421 118.18 321.627 119.385 321.627 120.879H321.609Z" fill="#E6D0F3" stroke="#101828" stroke-width="0.44988" stroke-miterlimit="10"/>
<path d="M328.191 112.961L320.705 119.187" stroke="#101828" stroke-width="0.44988" stroke-miterlimit="10"/>
<path d="M364.095 121.492L364.041 148.304V121.438L364.095 121.492Z" fill="#9A6BA7" stroke="#101828" stroke-width="0.44988" stroke-miterlimit="10"/>
<path d="M368.381 111.828L368.327 111.883L368.254 111.828H368.381Z" fill="#9A6BA7" stroke="#101828" stroke-width="0.44988" stroke-miterlimit="10"/>
<path d="M371.237 114.311V147.872L370.751 148.322L364.039 154.225V148.322L364.093 121.492L364.039 121.438V120.88C364.039 119.386 362.833 118.18 361.339 118.18H331.018L338.216 111.828H368.25L368.322 111.882L368.376 111.828H368.628C370.031 111.828 371.201 112.926 371.255 114.294L371.237 114.311Z" fill="#9A6BA7" stroke="#101828" stroke-width="0.44988" stroke-miterlimit="10"/>
<path d="M364.041 120.879V153.954C364.041 154.35 363.753 154.656 363.357 154.656H329.526C329.13 154.656 328.824 154.332 328.824 153.954V121.419C328.824 119.637 330.3 118.18 332.081 118.18H361.359C362.853 118.18 364.059 119.385 364.059 120.879H364.041Z" fill="#E6D0F3" stroke="#101828" stroke-width="0.44988" stroke-miterlimit="10"/>
<path d="M370.625 112.961L363.139 119.187" stroke="#101828" stroke-width="0.44988" stroke-miterlimit="10"/>
<path d="M406.531 121.492L406.477 148.304V121.438L406.531 121.492Z" fill="#9A6BA7" stroke="#101828" stroke-width="0.44988" stroke-miterlimit="10"/>
<path d="M410.811 111.828L410.756 111.883L410.684 111.828H410.811Z" fill="#9A6BA7" stroke="#101828" stroke-width="0.44988" stroke-miterlimit="10"/>
<path d="M413.672 114.311V147.872L413.186 148.322L406.474 154.225V148.322L406.528 121.492L406.474 121.438V120.88C406.474 119.386 405.269 118.18 403.775 118.18H373.453L380.651 111.828H410.685L410.757 111.882L410.811 111.828H411.063C412.467 111.828 413.636 112.926 413.69 114.294L413.672 114.311Z" fill="#9A6BA7" stroke="#101828" stroke-width="0.44988" stroke-miterlimit="10"/>
<path d="M406.476 120.879V153.954C406.476 154.35 406.188 154.656 405.793 154.656H371.962C371.566 154.656 371.26 154.332 371.26 153.954V121.419C371.26 119.637 372.735 118.18 374.517 118.18H403.795C405.289 118.18 406.494 119.385 406.494 120.879H406.476Z" fill="#E6D0F3" stroke="#101828" stroke-width="0.44988" stroke-miterlimit="10"/>
<path d="M413.058 112.961L405.572 119.187" stroke="#101828" stroke-width="0.44988" stroke-miterlimit="10"/>
<path d="M322.743 81.2845L322.689 108.097V81.2305L322.743 81.2845Z" fill="#9A6BA7" stroke="#101828" stroke-width="0.44988" stroke-miterlimit="10"/>
<path d="M327.026 71.6211L326.971 71.6756L326.898 71.6211H327.026Z" fill="#9A6BA7" stroke="#101828" stroke-width="0.44988" stroke-miterlimit="10"/>
<path d="M329.887 74.1044V107.665L329.401 108.115L322.689 114.018V108.115L322.743 81.2846L322.689 81.2305V80.6727C322.689 79.1791 321.483 77.9734 319.99 77.9734H289.668L296.866 71.6211H326.9L326.972 71.6751L327.026 71.6211H327.278C328.682 71.6211 329.851 72.7188 329.905 74.0865L329.887 74.1044Z" fill="#9A6BA7" stroke="#101828" stroke-width="0.44988" stroke-miterlimit="10"/>
<path d="M322.689 80.6719V113.747C322.689 114.143 322.401 114.449 322.005 114.449H288.174C287.779 114.449 287.473 114.125 287.473 113.747V81.2118C287.473 79.4303 288.948 77.9727 290.73 77.9727H320.008C321.502 77.9727 322.707 79.1783 322.707 80.6719H322.689Z" fill="#E6D0F3" stroke="#101828" stroke-width="0.44988" stroke-miterlimit="10"/>
<path d="M329.275 72.7539L321.789 78.9802" stroke="#101828" stroke-width="0.44988" stroke-miterlimit="10"/>
<path d="M365.175 81.2845L365.121 108.097V81.2305L365.175 81.2845Z" fill="#9A6BA7" stroke="#101828" stroke-width="0.44988" stroke-miterlimit="10"/>
<path d="M369.461 71.6211L369.407 71.6756L369.334 71.6211H369.461Z" fill="#9A6BA7" stroke="#101828" stroke-width="0.44988" stroke-miterlimit="10"/>
<path d="M372.319 74.1044V107.665L371.833 108.115L365.121 114.018V108.115L365.175 81.2846L365.121 81.2305V80.6727C365.121 79.1791 363.915 77.9734 362.422 77.9734H332.1L339.298 71.6211H369.332L369.404 71.6751L369.458 71.6211H369.71C371.113 71.6211 372.283 72.7188 372.337 74.0865L372.319 74.1044Z" fill="#9A6BA7" stroke="#101828" stroke-width="0.44988" stroke-miterlimit="10"/>
<path d="M365.121 80.6719V113.747C365.121 114.143 364.833 114.449 364.437 114.449H330.606C330.21 114.449 329.904 114.125 329.904 113.747V81.2118C329.904 79.4303 331.38 77.9727 333.161 77.9727H362.44C363.933 77.9727 365.139 79.1783 365.139 80.6719H365.121Z" fill="#E6D0F3" stroke="#101828" stroke-width="0.44988" stroke-miterlimit="10"/>
<path d="M371.705 72.7539L364.219 78.9802" stroke="#101828" stroke-width="0.44988" stroke-miterlimit="10"/>
<path d="M407.607 81.2845L407.553 108.097V81.2305L407.607 81.2845Z" fill="#9A6BA7" stroke="#101828" stroke-width="0.44988" stroke-miterlimit="10"/>
<path d="M411.889 71.6211L411.834 71.6756L411.762 71.6211H411.889Z" fill="#9A6BA7" stroke="#101828" stroke-width="0.44988" stroke-miterlimit="10"/>
<path d="M414.75 74.1044V107.665L414.265 108.115L407.552 114.018V108.115L407.606 81.2846L407.552 81.2305V80.6727C407.552 79.1791 406.347 77.9734 404.853 77.9734H374.531L381.729 71.6211H411.763L411.835 71.6751L411.889 71.6211H412.141C413.545 71.6211 414.714 72.7188 414.768 74.0865L414.75 74.1044Z" fill="#9A6BA7" stroke="#101828" stroke-width="0.44988" stroke-miterlimit="10"/>
<path d="M407.553 80.6719V113.747C407.553 114.143 407.265 114.449 406.869 114.449H373.038C372.642 114.449 372.336 114.125 372.336 113.747V81.2118C372.336 79.4303 373.812 77.9727 375.593 77.9727H404.871C406.365 77.9727 407.57 79.1783 407.57 80.6719H407.553Z" fill="#E6D0F3" stroke="#101828" stroke-width="0.44988" stroke-miterlimit="10"/>
<path d="M414.14 72.7539L406.654 78.9802" stroke="#101828" stroke-width="0.44988" stroke-miterlimit="10"/>
<path d="M322.743 292.118L322.689 318.931V292.064L322.743 292.118Z" fill="#9A6BA7" stroke="#101828" stroke-width="0.44988" stroke-miterlimit="10"/>
<path d="M327.026 282.455L326.971 282.51L326.898 282.455H327.026Z" fill="#9A6BA7" stroke="#101828" stroke-width="0.44988" stroke-miterlimit="10"/>
<path d="M329.887 284.938V318.499L329.401 318.949L322.689 324.852V318.949L322.743 292.119L322.689 292.064V291.507C322.689 290.013 321.483 288.807 319.99 288.807H289.668L296.866 282.455H326.9L326.972 282.509L327.026 282.455H327.278C328.682 282.455 329.851 283.553 329.905 284.92L329.887 284.938Z" fill="#E7A200" stroke="#101828" stroke-width="0.44988" stroke-miterlimit="10"/>
<path d="M322.689 291.506V324.581C322.689 324.977 322.401 325.283 322.005 325.283H288.174C287.779 325.283 287.473 324.959 287.473 324.581V292.046C287.473 290.264 288.948 288.807 290.73 288.807H320.008C321.502 288.807 322.707 290.012 322.707 291.506H322.689Z" fill="#FFEAB4" stroke="#101828" stroke-width="0.44988" stroke-miterlimit="10"/>
<path d="M329.275 283.59L321.789 289.816" stroke="#101828" stroke-width="0.44988" stroke-miterlimit="10"/>
<path d="M365.175 292.118L365.121 318.931V292.064L365.175 292.118Z" fill="#9A6BA7" stroke="#101828" stroke-width="0.44988" stroke-miterlimit="10"/>
<path d="M369.461 282.455L369.407 282.51L369.334 282.455H369.461Z" fill="#9A6BA7" stroke="#101828" stroke-width="0.44988" stroke-miterlimit="10"/>
<path d="M372.319 284.938V318.499L371.833 318.949L365.121 324.852V318.949L365.175 292.119L365.121 292.064V291.507C365.121 290.013 363.915 288.807 362.422 288.807H332.1L339.298 282.455H369.332L369.404 282.509L369.458 282.455H369.71C371.113 282.455 372.283 283.553 372.337 284.92L372.319 284.938Z" fill="#E7A200" stroke="#101828" stroke-width="0.44988" stroke-miterlimit="10"/>
<path d="M365.121 291.506V324.581C365.121 324.977 364.833 325.283 364.437 325.283H330.606C330.21 325.283 329.904 324.959 329.904 324.581V292.046C329.904 290.264 331.38 288.807 333.161 288.807H362.44C363.933 288.807 365.139 290.012 365.139 291.506H365.121Z" fill="#FFEAB4" stroke="#101828" stroke-width="0.44988" stroke-miterlimit="10"/>
<path d="M371.705 283.59L364.219 289.816" stroke="#101828" stroke-width="0.44988" stroke-miterlimit="10"/>
<path d="M407.607 292.118L407.553 318.931V292.064L407.607 292.118Z" fill="#9A6BA7" stroke="#101828" stroke-width="0.44988" stroke-miterlimit="10"/>
<path d="M411.889 282.455L411.834 282.51L411.762 282.455H411.889Z" fill="#9A6BA7" stroke="#101828" stroke-width="0.44988" stroke-miterlimit="10"/>
<path d="M414.75 284.938V318.499L414.265 318.949L407.552 324.852V318.949L407.606 292.119L407.552 292.064V291.507C407.552 290.013 406.347 288.807 404.853 288.807H374.531L381.729 282.455H411.763L411.835 282.509L411.889 282.455H412.141C413.545 282.455 414.714 283.553 414.768 284.92L414.75 284.938Z" fill="#E7A200" stroke="#101828" stroke-width="0.44988" stroke-miterlimit="10"/>
<path d="M407.553 291.506V324.581C407.553 324.977 407.265 325.283 406.869 325.283H373.038C372.642 325.283 372.336 324.959 372.336 324.581V292.046C372.336 290.264 373.812 288.807 375.593 288.807H404.871C406.365 288.807 407.57 290.012 407.57 291.506H407.553Z" fill="#FFEAB4" stroke="#101828" stroke-width="0.44988" stroke-miterlimit="10"/>
<path d="M414.14 283.59L406.654 289.816" stroke="#101828" stroke-width="0.44988" stroke-miterlimit="10"/>
<path d="M323.398 252.64L323.344 279.453V252.586L323.398 252.64Z" fill="#9A6BA7" stroke="#101828" stroke-width="0.44988" stroke-miterlimit="10"/>
<path d="M327.68 242.977L327.625 243.031L327.553 242.977H327.68Z" fill="#9A6BA7" stroke="#101828" stroke-width="0.44988" stroke-miterlimit="10"/>
<path d="M330.542 245.46V279.021L330.056 279.471L323.343 285.373V279.471L323.397 252.64L323.343 252.586V252.028C323.343 250.535 322.138 249.329 320.644 249.329H290.322L297.52 242.977H327.554L327.626 243.031L327.68 242.977H327.932C329.336 242.977 330.505 244.074 330.559 245.442L330.542 245.46Z" fill="#E7A200" stroke="#101828" stroke-width="0.44988" stroke-miterlimit="10"/>
<path d="M323.344 252.027V285.103C323.344 285.498 323.056 285.804 322.66 285.804H288.829C288.433 285.804 288.127 285.48 288.127 285.103V252.567C288.127 250.786 289.603 249.328 291.384 249.328H320.662C322.156 249.328 323.361 250.534 323.361 252.027H323.344Z" fill="#FFEAB4" stroke="#101828" stroke-width="0.44988" stroke-miterlimit="10"/>
<path d="M329.929 244.109L322.443 250.336" stroke="#101828" stroke-width="0.44988" stroke-miterlimit="10"/>
<path d="M365.829 252.64L365.775 279.453V252.586L365.829 252.64Z" fill="#9A6BA7" stroke="#101828" stroke-width="0.44988" stroke-miterlimit="10"/>
<path d="M370.116 242.977L370.061 243.031L369.988 242.977H370.116Z" fill="#9A6BA7" stroke="#101828" stroke-width="0.44988" stroke-miterlimit="10"/>
<path d="M372.973 245.46V279.021L372.487 279.471L365.775 285.373V279.471L365.829 252.64L365.775 252.586V252.028C365.775 250.535 364.569 249.329 363.076 249.329H332.754L339.952 242.977H369.986L370.058 243.031L370.112 242.977H370.364C371.767 242.977 372.937 244.074 372.991 245.442L372.973 245.46Z" fill="#E7A200" stroke="#101828" stroke-width="0.44988" stroke-miterlimit="10"/>
<path d="M365.775 252.027V285.103C365.775 285.498 365.487 285.804 365.091 285.804H331.26C330.865 285.804 330.559 285.48 330.559 285.103V252.567C330.559 250.786 332.034 249.328 333.816 249.328H363.094C364.587 249.328 365.793 250.534 365.793 252.027H365.775Z" fill="#FFEAB4" stroke="#101828" stroke-width="0.44988" stroke-miterlimit="10"/>
<path d="M372.365 244.109L364.879 250.336" stroke="#101828" stroke-width="0.44988" stroke-miterlimit="10"/>
<path d="M408.261 252.64L408.207 279.453V252.586L408.261 252.64Z" fill="#9A6BA7" stroke="#101828" stroke-width="0.44988" stroke-miterlimit="10"/>
<path d="M412.543 242.977L412.489 243.031L412.416 242.977H412.543Z" fill="#9A6BA7" stroke="#101828" stroke-width="0.44988" stroke-miterlimit="10"/>
<path d="M415.405 245.46V279.021L414.919 279.471L408.207 285.373V279.471L408.261 252.64L408.207 252.586V252.028C408.207 250.535 407.001 249.329 405.507 249.329H375.186L382.384 242.977H412.418L412.49 243.031L412.544 242.977H412.795C414.199 242.977 415.369 244.074 415.423 245.442L415.405 245.46Z" fill="#E7A200" stroke="#101828" stroke-width="0.44988" stroke-miterlimit="10"/>
<path d="M408.207 252.027V285.103C408.207 285.498 407.919 285.804 407.523 285.804H373.692C373.296 285.804 372.99 285.48 372.99 285.103V252.567C372.99 250.786 374.466 249.328 376.247 249.328H405.525C407.019 249.328 408.225 250.534 408.225 252.027H408.207Z" fill="#FFEAB4" stroke="#101828" stroke-width="0.44988" stroke-miterlimit="10"/>
<path d="M414.793 244.109L407.307 250.336" stroke="#101828" stroke-width="0.44988" stroke-miterlimit="10"/>
<path d="M322.743 211.663L322.689 238.476V211.609L322.743 211.663Z" fill="#9A6BA7" stroke="#101828" stroke-width="0.44988" stroke-miterlimit="10"/>
<path d="M327.026 202L326.971 202.055L326.898 202H327.026Z" fill="#9A6BA7" stroke="#101828" stroke-width="0.44988" stroke-miterlimit="10"/>
<path d="M329.887 204.483V238.044L329.401 238.494L322.689 244.397V238.494L322.743 211.663L322.689 211.609V211.052C322.689 209.558 321.483 208.352 319.99 208.352H289.668L296.866 202H326.9L326.972 202.054L327.026 202H327.278C328.682 202 329.851 203.098 329.905 204.465L329.887 204.483Z" fill="#E7A200" stroke="#101828" stroke-width="0.44988" stroke-miterlimit="10"/>
<path d="M322.689 211.051V244.126C322.689 244.522 322.401 244.828 322.005 244.828H288.174C287.779 244.828 287.473 244.504 287.473 244.126V211.591C287.473 209.809 288.948 208.352 290.73 208.352H320.008C321.502 208.352 322.707 209.557 322.707 211.051H322.689Z" fill="#FFEAB4" stroke="#101828" stroke-width="0.44988" stroke-miterlimit="10"/>
<path d="M329.275 203.133L321.789 209.359" stroke="#101828" stroke-width="0.44988" stroke-miterlimit="10"/>
<path d="M365.175 211.663L365.121 238.476V211.609L365.175 211.663Z" fill="#9A6BA7" stroke="#101828" stroke-width="0.44988" stroke-miterlimit="10"/>
<path d="M369.461 202L369.407 202.055L369.334 202H369.461Z" fill="#9A6BA7" stroke="#101828" stroke-width="0.44988" stroke-miterlimit="10"/>
<path d="M372.319 204.483V238.044L371.833 238.494L365.121 244.397V238.494L365.175 211.663L365.121 211.609V211.052C365.121 209.558 363.915 208.352 362.422 208.352H332.1L339.298 202H369.332L369.404 202.054L369.458 202H369.71C371.113 202 372.283 203.098 372.337 204.465L372.319 204.483Z" fill="#E7A200" stroke="#101828" stroke-width="0.44988" stroke-miterlimit="10"/>
<path d="M365.121 211.051V244.126C365.121 244.522 364.833 244.828 364.437 244.828H330.606C330.21 244.828 329.904 244.504 329.904 244.126V211.591C329.904 209.809 331.38 208.352 333.161 208.352H362.44C363.933 208.352 365.139 209.557 365.139 211.051H365.121Z" fill="#FFEAB4" stroke="#101828" stroke-width="0.44988" stroke-miterlimit="10"/>
<path d="M371.705 203.135L364.219 209.361" stroke="#101828" stroke-width="0.44988" stroke-miterlimit="10"/>
<path d="M407.607 211.663L407.553 238.476V211.609L407.607 211.663Z" fill="#9A6BA7" stroke="#101828" stroke-width="0.44988" stroke-miterlimit="10"/>
<path d="M411.889 202L411.834 202.055L411.762 202H411.889Z" fill="#9A6BA7" stroke="#101828" stroke-width="0.44988" stroke-miterlimit="10"/>
<path d="M414.75 204.483V238.044L414.265 238.494L407.552 244.397V238.494L407.606 211.663L407.552 211.609V211.052C407.552 209.558 406.347 208.352 404.853 208.352H374.531L381.729 202H411.763L411.835 202.054L411.889 202H412.141C413.545 202 414.714 203.098 414.768 204.465L414.75 204.483Z" fill="#E7A200" stroke="#101828" stroke-width="0.44988" stroke-miterlimit="10"/>
<path d="M407.553 211.051V244.126C407.553 244.522 407.265 244.828 406.869 244.828H373.038C372.642 244.828 372.336 244.504 372.336 244.126V211.591C372.336 209.809 373.812 208.352 375.593 208.352H404.871C406.365 208.352 407.57 209.557 407.57 211.051H407.553Z" fill="#FFEAB4" stroke="#101828" stroke-width="0.44988" stroke-miterlimit="10"/>
<path d="M414.14 203.133L406.654 209.359" stroke="#101828" stroke-width="0.44988" stroke-miterlimit="10"/>
<path d="M457.558 162.329L457.504 189.142V162.275L457.558 162.329Z" fill="#9A6BA7" stroke="#101828" stroke-width="0.44988" stroke-miterlimit="10"/>
<path d="M461.84 152.666L461.786 152.721L461.713 152.666H461.84Z" fill="#9A6BA7" stroke="#101828" stroke-width="0.44988" stroke-miterlimit="10"/>
<path d="M464.702 155.149V188.71L464.216 189.16L457.504 195.063V189.16L457.558 162.329L457.504 162.275V161.718C457.504 160.224 456.298 159.018 454.804 159.018H424.482L431.68 152.666H461.714L461.786 152.72L461.84 152.666H462.092C463.496 152.666 464.666 153.764 464.72 155.131L464.702 155.149Z" fill="#4190BE" stroke="#101828" stroke-width="0.44988" stroke-miterlimit="10"/>
<path d="M457.504 161.717V194.792C457.504 195.188 457.216 195.494 456.82 195.494H422.989C422.593 195.494 422.287 195.17 422.287 194.792V162.257C422.287 160.475 423.763 159.018 425.544 159.018H454.822C456.316 159.018 457.522 160.223 457.522 161.717H457.504Z" fill="#BAE3F2" stroke="#101828" stroke-width="0.44988" stroke-miterlimit="10"/>
<path d="M464.09 153.801L456.604 160.027" stroke="#101828" stroke-width="0.44988" stroke-miterlimit="10"/>
<path d="M499.99 162.329L499.936 189.142V162.275L499.99 162.329Z" fill="#9A6BA7" stroke="#101828" stroke-width="0.44988" stroke-miterlimit="10"/>
<path d="M504.276 152.666L504.221 152.721L504.148 152.666H504.276Z" fill="#9A6BA7" stroke="#101828" stroke-width="0.44988" stroke-miterlimit="10"/>
<path d="M507.133 155.149V188.71L506.647 189.16L499.935 195.063V189.16L499.989 162.329L499.935 162.275V161.718C499.935 160.224 498.73 159.018 497.236 159.018H466.914L474.112 152.666H504.146L504.218 152.72L504.272 152.666H504.524C505.928 152.666 507.097 153.764 507.151 155.131L507.133 155.149Z" fill="#4190BE" stroke="#101828" stroke-width="0.44988" stroke-miterlimit="10"/>
<path d="M499.935 161.717V194.792C499.935 195.188 499.647 195.494 499.252 195.494H465.421C465.025 195.494 464.719 195.17 464.719 194.792V162.257C464.719 160.475 466.194 159.018 467.976 159.018H497.254C498.748 159.018 499.953 160.223 499.953 161.717H499.935Z" fill="#BAE3F2" stroke="#101828" stroke-width="0.44988" stroke-miterlimit="10"/>
<path d="M506.521 153.801L499.035 160.027" stroke="#101828" stroke-width="0.44988" stroke-miterlimit="10"/>
<path d="M542.421 162.329L542.367 189.142V162.275L542.421 162.329Z" fill="#9A6BA7" stroke="#101828" stroke-width="0.44988" stroke-miterlimit="10"/>
<path d="M546.703 152.666L546.649 152.721L546.576 152.666H546.703Z" fill="#9A6BA7" stroke="#101828" stroke-width="0.44988" stroke-miterlimit="10"/>
<path d="M549.565 155.149V188.71L549.079 189.16L542.367 195.063V189.16L542.421 162.329L542.367 162.275V161.718C542.367 160.224 541.161 159.018 539.668 159.018H509.346L516.544 152.666H546.578L546.65 152.72L546.704 152.666H546.956C548.359 152.666 549.529 153.764 549.583 155.131L549.565 155.149Z" fill="#4190BE" stroke="#101828" stroke-width="0.44988" stroke-miterlimit="10"/>
<path d="M542.367 161.717V194.792C542.367 195.188 542.079 195.494 541.683 195.494H507.852C507.456 195.494 507.15 195.17 507.15 194.792V162.257C507.15 160.475 508.626 159.018 510.408 159.018H539.686C541.179 159.018 542.385 160.223 542.385 161.717H542.367Z" fill="#BAE3F2" stroke="#101828" stroke-width="0.44988" stroke-miterlimit="10"/>
<path d="M548.953 153.801L541.467 160.027" stroke="#101828" stroke-width="0.44988" stroke-miterlimit="10"/>
<path d="M456.476 121.492L456.422 148.304V121.438L456.476 121.492Z" fill="#9A6BA7" stroke="#101828" stroke-width="0.44988" stroke-miterlimit="10"/>
<path d="M460.756 111.828L460.702 111.883L460.629 111.828H460.756Z" fill="#9A6BA7" stroke="#101828" stroke-width="0.44988" stroke-miterlimit="10"/>
<path d="M463.618 114.311V147.872L463.132 148.322L456.42 154.225V148.322L456.474 121.492L456.42 121.438V120.88C456.42 119.386 455.214 118.18 453.72 118.18H423.398L430.597 111.828H460.63L460.702 111.882L460.756 111.828H461.008C462.412 111.828 463.582 112.926 463.636 114.294L463.618 114.311Z" fill="#4190BE" stroke="#101828" stroke-width="0.44988" stroke-miterlimit="10"/>
<path d="M456.422 120.879V153.954C456.422 154.35 456.134 154.656 455.738 154.656H421.907C421.511 154.656 421.205 154.332 421.205 153.954V121.419C421.205 119.637 422.681 118.18 424.462 118.18H453.74C455.234 118.18 456.44 119.385 456.44 120.879H456.422Z" fill="#BAE3F2" stroke="#101828" stroke-width="0.44988" stroke-miterlimit="10"/>
<path d="M463.009 112.961L455.523 119.187" stroke="#101828" stroke-width="0.44988" stroke-miterlimit="10"/>
<path d="M498.906 121.492L498.852 148.304V121.438L498.906 121.492Z" fill="#9A6BA7" stroke="#101828" stroke-width="0.44988" stroke-miterlimit="10"/>
<path d="M503.192 111.828L503.137 111.883L503.064 111.828H503.192Z" fill="#9A6BA7" stroke="#101828" stroke-width="0.44988" stroke-miterlimit="10"/>
<path d="M506.047 114.311V147.872L505.561 148.322L498.849 154.225V148.322L498.903 121.492L498.849 121.438V120.88C498.849 119.386 497.644 118.18 496.15 118.18H465.828L473.026 111.828H503.06L503.132 111.882L503.186 111.828H503.438C504.842 111.828 506.011 112.926 506.065 114.294L506.047 114.311Z" fill="#4190BE" stroke="#101828" stroke-width="0.44988" stroke-miterlimit="10"/>
<path d="M498.851 120.879V153.954C498.851 154.35 498.563 154.656 498.168 154.656H464.337C463.941 154.656 463.635 154.332 463.635 153.954V121.419C463.635 119.637 465.11 118.18 466.892 118.18H496.17C497.664 118.18 498.869 119.385 498.869 120.879H498.851Z" fill="#BAE3F2" stroke="#101828" stroke-width="0.44988" stroke-miterlimit="10"/>
<path d="M505.439 112.961L497.953 119.187" stroke="#101828" stroke-width="0.44988" stroke-miterlimit="10"/>
<path d="M541.343 121.492L541.289 148.304V121.438L541.343 121.492Z" fill="#9A6BA7" stroke="#101828" stroke-width="0.44988" stroke-miterlimit="10"/>
<path d="M545.623 111.828L545.569 111.883L545.496 111.828H545.623Z" fill="#9A6BA7" stroke="#101828" stroke-width="0.44988" stroke-miterlimit="10"/>
<path d="M548.491 114.311V147.872L548.005 148.322L541.293 154.225V148.322L541.347 121.492L541.293 121.438V120.88C541.293 119.386 540.087 118.18 538.593 118.18H508.271L515.47 111.828H545.504L545.576 111.882L545.63 111.828H545.881C547.285 111.828 548.455 112.926 548.509 114.294L548.491 114.311Z" fill="#4190BE" stroke="#101828" stroke-width="0.44988" stroke-miterlimit="10"/>
<path d="M541.289 120.879V153.954C541.289 154.35 541.001 154.656 540.605 154.656H506.774C506.378 154.656 506.072 154.332 506.072 153.954V121.419C506.072 119.637 507.548 118.18 509.329 118.18H538.608C540.101 118.18 541.307 119.385 541.307 120.879H541.289Z" fill="#BAE3F2" stroke="#101828" stroke-width="0.44988" stroke-miterlimit="10"/>
<path d="M547.875 112.961L540.389 119.187" stroke="#101828" stroke-width="0.44988" stroke-miterlimit="10"/>
<path d="M457.558 81.8763L457.504 108.689V81.8223L457.558 81.8763Z" fill="#9A6BA7" stroke="#101828" stroke-width="0.44988" stroke-miterlimit="10"/>
<path d="M461.84 72.2129L461.786 72.2674L461.713 72.2129H461.84Z" fill="#9A6BA7" stroke="#101828" stroke-width="0.44988" stroke-miterlimit="10"/>
<path d="M464.702 74.6962V108.257L464.216 108.707L457.504 114.61V108.707L457.558 81.8763L457.504 81.8223V81.2645C457.504 79.7709 456.298 78.5652 454.804 78.5652H424.482L431.68 72.2129H461.714L461.786 72.2669L461.84 72.2129H462.092C463.496 72.2129 464.666 73.3106 464.72 74.6783L464.702 74.6962Z" fill="#4190BE" stroke="#101828" stroke-width="0.44988" stroke-miterlimit="10"/>
<path d="M457.504 81.2637V114.339C457.504 114.735 457.216 115.041 456.82 115.041H422.989C422.593 115.041 422.287 114.717 422.287 114.339V81.8036C422.287 80.0221 423.763 78.5645 425.544 78.5645H454.822C456.316 78.5645 457.522 79.7701 457.522 81.2637H457.504Z" fill="#BAE3F2" stroke="#101828" stroke-width="0.44988" stroke-miterlimit="10"/>
<path d="M464.09 73.3457L456.604 79.572" stroke="#101828" stroke-width="0.44988" stroke-miterlimit="10"/>
<path d="M499.99 81.8763L499.936 108.689V81.8223L499.99 81.8763Z" fill="#9A6BA7" stroke="#101828" stroke-width="0.44988" stroke-miterlimit="10"/>
<path d="M504.276 72.2129L504.221 72.2674L504.148 72.2129H504.276Z" fill="#9A6BA7" stroke="#101828" stroke-width="0.44988" stroke-miterlimit="10"/>
<path d="M507.133 74.6962V108.257L506.647 108.707L499.935 114.61V108.707L499.989 81.8763L499.935 81.8223V81.2645C499.935 79.7709 498.73 78.5652 497.236 78.5652H466.914L474.112 72.2129H504.146L504.218 72.2669L504.272 72.2129H504.524C505.928 72.2129 507.097 73.3106 507.151 74.6783L507.133 74.6962Z" fill="#4190BE" stroke="#101828" stroke-width="0.44988" stroke-miterlimit="10"/>
<path d="M499.935 81.2637V114.339C499.935 114.735 499.647 115.041 499.252 115.041H465.421C465.025 115.041 464.719 114.717 464.719 114.339V81.8036C464.719 80.0221 466.194 78.5645 467.976 78.5645H497.254C498.748 78.5645 499.953 79.7701 499.953 81.2637H499.935Z" fill="#BAE3F2" stroke="#101828" stroke-width="0.44988" stroke-miterlimit="10"/>
<path d="M506.521 73.3457L499.035 79.572" stroke="#101828" stroke-width="0.44988" stroke-miterlimit="10"/>
<path d="M542.421 81.8763L542.367 108.689V81.8223L542.421 81.8763Z" fill="#9A6BA7" stroke="#101828" stroke-width="0.44988" stroke-miterlimit="10"/>
<path d="M546.703 72.2129L546.649 72.2674L546.576 72.2129H546.703Z" fill="#9A6BA7" stroke="#101828" stroke-width="0.44988" stroke-miterlimit="10"/>
<path d="M549.565 74.6962V108.257L549.079 108.707L542.367 114.61V108.707L542.421 81.8763L542.367 81.8223V81.2645C542.367 79.7709 541.161 78.5652 539.668 78.5652H509.346L516.544 72.2129H546.578L546.65 72.2669L546.704 72.2129H546.956C548.359 72.2129 549.529 73.3106 549.583 74.6783L549.565 74.6962Z" fill="#4190BE" stroke="#101828" stroke-width="0.44988" stroke-miterlimit="10"/>
<path d="M542.367 81.2637V114.339C542.367 114.735 542.079 115.041 541.683 115.041H507.852C507.456 115.041 507.15 114.717 507.15 114.339V81.8036C507.15 80.0221 508.626 78.5645 510.408 78.5645H539.686C541.179 78.5645 542.385 79.7701 542.385 81.2637H542.367Z" fill="#BAE3F2" stroke="#101828" stroke-width="0.44988" stroke-miterlimit="10"/>
<path d="M548.953 73.3457L541.467 79.572" stroke="#101828" stroke-width="0.44988" stroke-miterlimit="10"/>
<path d="M457.558 291.525L457.504 318.338V291.471L457.558 291.525Z" fill="#85D2A9" stroke="#101828" stroke-width="0.44988" stroke-miterlimit="10"/>
<path d="M461.84 281.861L461.786 281.916L461.713 281.861H461.84Z" fill="#85D2A9" stroke="#101828" stroke-width="0.44988" stroke-miterlimit="10"/>
<path d="M464.702 284.345V317.906L464.216 318.356L457.504 324.258V318.356L457.558 291.525L457.504 291.471V290.913C457.504 289.419 456.298 288.214 454.804 288.214H424.482L431.68 281.861H461.714L461.786 281.915L461.84 281.861H462.092C463.496 281.861 464.666 282.959 464.72 284.327L464.702 284.345Z" fill="#005D46" stroke="#101828" stroke-width="0.44988" stroke-miterlimit="10"/>
<path d="M457.504 290.912V323.987C457.504 324.383 457.216 324.689 456.82 324.689H422.989C422.593 324.689 422.287 324.365 422.287 323.987V291.452C422.287 289.671 423.763 288.213 425.544 288.213H454.822C456.316 288.213 457.522 289.419 457.522 290.912H457.504Z" fill="#85D2A9" stroke="#101828" stroke-width="0.44988" stroke-miterlimit="10"/>
<path d="M464.09 282.996L456.604 289.222" stroke="#101828" stroke-width="0.44988" stroke-miterlimit="10"/>
<path d="M499.99 291.525L499.936 318.338V291.471L499.99 291.525Z" fill="#85D2A9" stroke="#101828" stroke-width="0.44988" stroke-miterlimit="10"/>
<path d="M504.276 281.861L504.221 281.916L504.148 281.861H504.276Z" fill="#85D2A9" stroke="#101828" stroke-width="0.44988" stroke-miterlimit="10"/>
<path d="M507.133 284.345V317.906L506.647 318.356L499.935 324.258V318.356L499.989 291.525L499.935 291.471V290.913C499.935 289.419 498.73 288.214 497.236 288.214H466.914L474.112 281.861H504.146L504.218 281.915L504.272 281.861H504.524C505.928 281.861 507.097 282.959 507.151 284.327L507.133 284.345Z" fill="#005D46" stroke="#101828" stroke-width="0.44988" stroke-miterlimit="10"/>
<path d="M499.935 290.912V323.987C499.935 324.383 499.647 324.689 499.252 324.689H465.421C465.025 324.689 464.719 324.365 464.719 323.987V291.452C464.719 289.671 466.194 288.213 467.976 288.213H497.254C498.748 288.213 499.953 289.419 499.953 290.912H499.935Z" fill="#85D2A9" stroke="#101828" stroke-width="0.44988" stroke-miterlimit="10"/>
<path d="M506.521 282.996L499.035 289.222" stroke="#101828" stroke-width="0.44988" stroke-miterlimit="10"/>
<path d="M542.421 291.525L542.367 318.338V291.471L542.421 291.525Z" fill="#85D2A9" stroke="#101828" stroke-width="0.44988" stroke-miterlimit="10"/>
<path d="M546.703 281.861L546.649 281.916L546.576 281.861H546.703Z" fill="#85D2A9" stroke="#101828" stroke-width="0.44988" stroke-miterlimit="10"/>
<path d="M549.565 284.345V317.906L549.079 318.356L542.367 324.258V318.356L542.421 291.525L542.367 291.471V290.913C542.367 289.419 541.161 288.214 539.668 288.214H509.346L516.544 281.861H546.578L546.65 281.915L546.704 281.861H546.956C548.359 281.861 549.529 282.959 549.583 284.327L549.565 284.345Z" fill="#005D46" stroke="#101828" stroke-width="0.44988" stroke-miterlimit="10"/>
<path d="M542.367 290.912V323.987C542.367 324.383 542.079 324.689 541.683 324.689H507.852C507.456 324.689 507.15 324.365 507.15 323.987V291.452C507.15 289.671 508.626 288.213 510.408 288.213H539.686C541.179 288.213 542.385 289.419 542.385 290.912H542.367Z" fill="#85D2A9" stroke="#101828" stroke-width="0.44988" stroke-miterlimit="10"/>
<path d="M548.953 282.996L541.467 289.222" stroke="#101828" stroke-width="0.44988" stroke-miterlimit="10"/>
<path d="M456.476 251.577L456.422 278.39V251.523L456.476 251.577Z" fill="#85D2A9" stroke="#101828" stroke-width="0.44988" stroke-miterlimit="10"/>
<path d="M460.758 241.914L460.704 241.969L460.631 241.914H460.758Z" fill="#85D2A9" stroke="#101828" stroke-width="0.44988" stroke-miterlimit="10"/>
<path d="M463.618 244.397V277.958L463.132 278.408L456.42 284.311V278.408L456.474 251.578L456.42 251.523V250.966C456.42 249.472 455.214 248.266 453.72 248.266H423.398L430.597 241.914H460.63L460.702 241.968L460.756 241.914H461.008C462.412 241.914 463.582 243.012 463.636 244.379L463.618 244.397Z" fill="#005D46" stroke="#101828" stroke-width="0.44988" stroke-miterlimit="10"/>
<path d="M456.42 250.965V284.04C456.42 284.436 456.132 284.742 455.736 284.742H421.905C421.509 284.742 421.203 284.418 421.203 284.04V251.505C421.203 249.723 422.679 248.266 424.46 248.266H453.738C455.232 248.266 456.438 249.471 456.438 250.965H456.42Z" fill="#85D2A9" stroke="#101828" stroke-width="0.44988" stroke-miterlimit="10"/>
<path d="M463.009 243.047L455.523 249.273" stroke="#101828" stroke-width="0.44988" stroke-miterlimit="10"/>
<path d="M498.907 251.577L498.854 278.39V251.523L498.907 251.577Z" fill="#85D2A9" stroke="#101828" stroke-width="0.44988" stroke-miterlimit="10"/>
<path d="M503.194 241.914L503.139 241.969L503.066 241.914H503.194Z" fill="#85D2A9" stroke="#101828" stroke-width="0.44988" stroke-miterlimit="10"/>
<path d="M506.051 244.397V277.958L505.565 278.408L498.853 284.311V278.408L498.907 251.578L498.853 251.523V250.966C498.853 249.472 497.648 248.266 496.154 248.266H465.832L473.03 241.914H503.064L503.136 241.968L503.19 241.914H503.442C504.846 241.914 506.015 243.012 506.069 244.379L506.051 244.397Z" fill="#005D46" stroke="#101828" stroke-width="0.44988" stroke-miterlimit="10"/>
<path d="M498.853 250.965V284.04C498.853 284.436 498.565 284.742 498.169 284.742H464.339C463.943 284.742 463.637 284.418 463.637 284.04V251.505C463.637 249.723 465.112 248.266 466.894 248.266H496.172C497.666 248.266 498.871 249.471 498.871 250.965H498.853Z" fill="#85D2A9" stroke="#101828" stroke-width="0.44988" stroke-miterlimit="10"/>
<path d="M505.441 243.047L497.955 249.273" stroke="#101828" stroke-width="0.44988" stroke-miterlimit="10"/>
<path d="M541.347 251.577L541.293 278.39V251.523L541.347 251.577Z" fill="#85D2A9" stroke="#101828" stroke-width="0.44988" stroke-miterlimit="10"/>
<path d="M545.629 241.914L545.575 241.969L545.502 241.914H545.629Z" fill="#85D2A9" stroke="#101828" stroke-width="0.44988" stroke-miterlimit="10"/>
<path d="M548.491 244.397V277.958L548.005 278.408L541.293 284.311V278.408L541.347 251.578L541.293 251.523V250.966C541.293 249.472 540.087 248.266 538.593 248.266H508.271L515.47 241.914H545.504L545.576 241.968L545.63 241.914H545.881C547.285 241.914 548.455 243.012 548.509 244.379L548.491 244.397Z" fill="#005D46" stroke="#101828" stroke-width="0.44988" stroke-miterlimit="10"/>
<path d="M541.293 250.965V284.04C541.293 284.436 541.005 284.742 540.609 284.742H506.778C506.382 284.742 506.076 284.418 506.076 284.04V251.505C506.076 249.723 507.552 248.266 509.333 248.266H538.611C540.105 248.266 541.311 249.471 541.311 250.965H541.293Z" fill="#85D2A9" stroke="#101828" stroke-width="0.44988" stroke-miterlimit="10"/>
<path d="M547.877 243.047L540.391 249.273" stroke="#101828" stroke-width="0.44988" stroke-miterlimit="10"/>
<path d="M457.558 211.072L457.504 237.884V211.018L457.558 211.072Z" fill="#85D2A9" stroke="#101828" stroke-width="0.44988" stroke-miterlimit="10"/>
<path d="M461.84 201.408L461.786 201.463L461.713 201.408H461.84Z" fill="#85D2A9" stroke="#101828" stroke-width="0.44988" stroke-miterlimit="10"/>
<path d="M464.702 203.892V237.453L464.216 237.902L457.504 243.805V237.902L457.558 211.072L457.504 211.018V210.46C457.504 208.966 456.298 207.761 454.804 207.761H424.482L431.68 201.408H461.714L461.786 201.462L461.84 201.408H462.092C463.496 201.408 464.666 202.506 464.72 203.874L464.702 203.892Z" fill="#005D46" stroke="#101828" stroke-width="0.44988" stroke-miterlimit="10"/>
<path d="M457.504 210.459V243.534C457.504 243.93 457.216 244.236 456.82 244.236H422.989C422.593 244.236 422.287 243.912 422.287 243.534V210.999C422.287 209.217 423.763 207.76 425.544 207.76H454.822C456.316 207.76 457.522 208.965 457.522 210.459H457.504Z" fill="#85D2A9" stroke="#101828" stroke-width="0.44988" stroke-miterlimit="10"/>
<path d="M464.09 202.543L456.604 208.769" stroke="#101828" stroke-width="0.44988" stroke-miterlimit="10"/>
<path d="M499.99 211.072L499.936 237.884V211.018L499.99 211.072Z" fill="#85D2A9" stroke="#101828" stroke-width="0.44988" stroke-miterlimit="10"/>
<path d="M504.276 201.408L504.221 201.463L504.148 201.408H504.276Z" fill="#85D2A9" stroke="#101828" stroke-width="0.44988" stroke-miterlimit="10"/>
<path d="M507.133 203.892V237.453L506.647 237.902L499.935 243.805V237.902L499.989 211.072L499.935 211.018V210.46C499.935 208.966 498.73 207.761 497.236 207.761H466.914L474.112 201.408H504.146L504.218 201.462L504.272 201.408H504.524C505.928 201.408 507.097 202.506 507.151 203.874L507.133 203.892Z" fill="#005D46" stroke="#101828" stroke-width="0.44988" stroke-miterlimit="10"/>
<path d="M499.935 210.459V243.534C499.935 243.93 499.647 244.236 499.252 244.236H465.421C465.025 244.236 464.719 243.912 464.719 243.534V210.999C464.719 209.217 466.194 207.76 467.976 207.76H497.254C498.748 207.76 499.953 208.965 499.953 210.459H499.935Z" fill="#85D2A9" stroke="#101828" stroke-width="0.44988" stroke-miterlimit="10"/>
<path d="M506.521 202.543L499.035 208.769" stroke="#101828" stroke-width="0.44988" stroke-miterlimit="10"/>
<path d="M542.421 211.072L542.367 237.884V211.018L542.421 211.072Z" fill="#85D2A9" stroke="#101828" stroke-width="0.44988" stroke-miterlimit="10"/>
<path d="M546.703 201.408L546.649 201.463L546.576 201.408H546.703Z" fill="#85D2A9" stroke="#101828" stroke-width="0.44988" stroke-miterlimit="10"/>
<path d="M549.565 203.892V237.453L549.079 237.902L542.367 243.805V237.902L542.421 211.072L542.367 211.018V210.46C542.367 208.966 541.161 207.761 539.668 207.761H509.346L516.544 201.408H546.578L546.65 201.462L546.704 201.408H546.956C548.359 201.408 549.529 202.506 549.583 203.874L549.565 203.892Z" fill="#005D46" stroke="#101828" stroke-width="0.44988" stroke-miterlimit="10"/>
<path d="M542.367 210.459V243.534C542.367 243.93 542.079 244.236 541.683 244.236H507.852C507.456 244.236 507.15 243.912 507.15 243.534V210.999C507.15 209.217 508.626 207.76 510.408 207.76H539.686C541.179 207.76 542.385 208.965 542.385 210.459H542.367Z" fill="#85D2A9" stroke="#101828" stroke-width="0.44988" stroke-miterlimit="10"/>
<path d="M548.953 202.541L541.467 208.767" stroke="#101828" stroke-width="0.44988" stroke-miterlimit="10"/>
<path d="M88.0066 44.135H85.8928C85.8325 43.7883 85.7213 43.4812 85.5593 43.2137C85.3973 42.9424 85.1957 42.7126 84.9546 42.5242C84.7134 42.3358 84.4384 42.1945 84.1294 42.1003C83.8242 42.0023 83.4945 41.9533 83.1403 41.9533C82.511 41.9533 81.9534 42.1116 81.4673 42.4281C80.9812 42.7408 80.6007 43.2005 80.3256 43.8072C80.0505 44.41 79.913 45.1467 79.913 46.0171C79.913 46.9025 80.0505 47.6486 80.3256 48.2553C80.6044 48.8581 80.985 49.3141 81.4673 49.623C81.9534 49.9282 82.5091 50.0808 83.1346 50.0808C83.4813 50.0808 83.8053 50.0356 84.1068 49.9452C84.412 49.851 84.6852 49.7135 84.9263 49.5326C85.1712 49.3517 85.3766 49.1294 85.5424 48.8657C85.7119 48.6019 85.8287 48.3005 85.8928 47.9613L88.0066 47.9727C87.9275 48.5228 87.7561 49.039 87.4923 49.5213C87.2323 50.0036 86.8913 50.4294 86.4693 50.7986C86.0473 51.1641 85.5537 51.4505 84.9885 51.6577C84.4233 51.8612 83.7959 51.9629 83.1064 51.9629C82.089 51.9629 81.1809 51.7274 80.3821 51.2564C79.5833 50.7854 78.9541 50.1053 78.4944 49.2161C78.0347 48.3268 77.8048 47.2605 77.8048 46.0171C77.8048 44.7699 78.0366 43.7035 78.5 42.8181C78.9635 41.9288 79.5946 41.2487 80.3934 40.7777C81.1922 40.3067 82.0966 40.0712 83.1064 40.0712C83.7507 40.0712 84.3498 40.1616 84.9037 40.3425C85.4576 40.5234 85.9512 40.789 86.3845 41.1394C86.8178 41.4861 87.1739 41.9119 87.4527 42.4168C87.7353 42.9179 87.92 43.4906 88.0066 44.135ZM93.6233 51.9742C92.7755 51.9742 92.0407 51.7877 91.419 51.4147C90.7973 51.0417 90.315 50.5198 89.9721 49.8491C89.633 49.1784 89.4634 48.3947 89.4634 47.4979C89.4634 46.6011 89.633 45.8155 89.9721 45.141C90.315 44.4666 90.7973 43.9428 91.419 43.5698C92.0407 43.1967 92.7755 43.0102 93.6233 43.0102C94.4711 43.0102 95.2058 43.1967 95.8275 43.5698C96.4493 43.9428 96.9297 44.4666 97.2688 45.141C97.6117 45.8155 97.7831 46.6011 97.7831 47.4979C97.7831 48.3947 97.6117 49.1784 97.2688 49.8491C96.9297 50.5198 96.4493 51.0417 95.8275 51.4147C95.2058 51.7877 94.4711 51.9742 93.6233 51.9742ZM93.6346 50.3352C94.0943 50.3352 94.4786 50.2089 94.7876 49.9565C95.0965 49.7003 95.3264 49.3574 95.4771 48.9278C95.6316 48.4983 95.7088 48.0198 95.7088 47.4922C95.7088 46.961 95.6316 46.4805 95.4771 46.051C95.3264 45.6177 95.0965 45.2729 94.7876 45.0167C94.4786 44.7605 94.0943 44.6323 93.6346 44.6323C93.1636 44.6323 92.7717 44.7605 92.459 45.0167C92.15 45.2729 91.9183 45.6177 91.7638 46.051C91.6131 46.4805 91.5377 46.961 91.5377 47.4922C91.5377 48.0198 91.6131 48.4983 91.7638 48.9278C91.9183 49.3574 92.15 49.7003 92.459 49.9565C92.7717 50.2089 93.1636 50.3352 93.6346 50.3352ZM106.381 45.418L104.516 45.6214C104.463 45.433 104.371 45.2559 104.239 45.0902C104.111 44.9244 103.938 44.7906 103.719 44.6889C103.501 44.5871 103.233 44.5363 102.917 44.5363C102.491 44.5363 102.133 44.6286 101.843 44.8132C101.556 44.9978 101.415 45.2371 101.419 45.531C101.415 45.7835 101.507 45.9888 101.696 46.1471C101.888 46.3053 102.204 46.4353 102.645 46.5371L104.126 46.8536C104.947 47.0307 105.558 47.3114 105.957 47.6957C106.36 48.08 106.564 48.5831 106.568 49.2048C106.564 49.7511 106.404 50.2334 106.087 50.6517C105.775 51.0662 105.339 51.3902 104.782 51.6238C104.224 51.8574 103.583 51.9742 102.86 51.9742C101.797 51.9742 100.942 51.7519 100.294 51.3073C99.6459 50.8589 99.2597 50.2353 99.1354 49.4365L101.13 49.2443C101.221 49.6362 101.413 49.932 101.707 50.1317C102.001 50.3314 102.383 50.4313 102.854 50.4313C103.34 50.4313 103.73 50.3314 104.024 50.1317C104.322 49.932 104.471 49.6852 104.471 49.3913C104.471 49.1426 104.375 48.9373 104.183 48.7752C103.994 48.6132 103.7 48.4889 103.301 48.4022L101.82 48.0913C100.987 47.918 100.371 47.626 99.9718 47.2153C99.5724 46.8008 99.3746 46.2771 99.3784 45.644C99.3746 45.109 99.5197 44.6455 99.8136 44.2537C100.111 43.858 100.524 43.5528 101.051 43.338C101.583 43.1195 102.195 43.0102 102.888 43.0102C103.906 43.0102 104.706 43.2269 105.29 43.6602C105.878 44.0935 106.242 44.6794 106.381 45.418ZM112.59 43.1233V44.7058H107.599V43.1233H112.59ZM108.831 41.0433H110.877V49.1935C110.877 49.4685 110.919 49.6795 111.002 49.8265C111.088 49.9697 111.201 50.0676 111.341 50.1204C111.48 50.1732 111.635 50.1995 111.804 50.1995C111.932 50.1995 112.049 50.1901 112.155 50.1713C112.264 50.1524 112.347 50.1355 112.403 50.1204L112.748 51.7199C112.639 51.7576 112.482 51.799 112.279 51.8443C112.079 51.8895 111.834 51.9158 111.544 51.9234C111.032 51.9385 110.57 51.8612 110.16 51.6916C109.749 51.5183 109.423 51.2508 109.182 50.8891C108.944 50.5273 108.828 50.0752 108.831 49.5326V41.0433Z" fill="#005D46"/>
<path d="M404.746 51.8047H400.823V40.2295H404.825C405.974 40.2295 406.961 40.4612 407.787 40.9247C408.616 41.3843 409.252 42.0456 409.697 42.9085C410.142 43.7714 410.364 44.8038 410.364 46.0058C410.364 47.2115 410.14 48.2477 409.691 49.1144C409.247 49.981 408.604 50.646 407.764 51.1095C406.927 51.573 405.921 51.8047 404.746 51.8047ZM402.92 49.9904H404.644C405.45 49.9904 406.123 49.8435 406.662 49.5496C407.201 49.2519 407.606 48.8091 407.877 48.2213C408.148 47.6298 408.284 46.8912 408.284 46.0058C408.284 45.1203 408.148 44.3855 407.877 43.8015C407.606 43.2137 407.204 42.7747 406.673 42.4846C406.146 42.1907 405.49 42.0437 404.706 42.0437H402.92V49.9904ZM414.764 51.9799C414.214 51.9799 413.718 51.8819 413.277 51.686C412.84 51.4863 412.494 51.1924 412.237 50.8043C411.985 50.4162 411.859 49.9377 411.859 49.3687C411.859 48.8789 411.949 48.4738 412.13 48.1535C412.311 47.8332 412.558 47.577 412.871 47.3848C413.183 47.1927 413.536 47.0476 413.927 46.9496C414.323 46.8479 414.732 46.7744 415.154 46.7292C415.663 46.6765 416.075 46.6294 416.392 46.5879C416.708 46.5427 416.938 46.4749 417.081 46.3845C417.228 46.2903 417.302 46.1452 417.302 45.9492V45.9153C417.302 45.4896 417.175 45.1599 416.923 44.9262C416.671 44.6926 416.307 44.5758 415.832 44.5758C415.331 44.5758 414.933 44.6851 414.64 44.9036C414.349 45.1222 414.154 45.3803 414.052 45.678L412.141 45.4067C412.292 44.8791 412.541 44.4383 412.887 44.0841C413.234 43.7261 413.658 43.4586 414.159 43.2815C414.66 43.1007 415.214 43.0102 415.821 43.0102C416.239 43.0102 416.655 43.0592 417.07 43.1572C417.484 43.2551 417.863 43.4172 418.206 43.6432C418.549 43.8656 418.824 44.1689 419.031 44.5532C419.242 44.9375 419.348 45.418 419.348 45.9945V51.8047H417.381V50.6121H417.313C417.189 50.8533 417.013 51.0794 416.787 51.2904C416.565 51.4976 416.284 51.6653 415.945 51.7934C415.61 51.9177 415.216 51.9799 414.764 51.9799ZM415.295 50.4765C415.706 50.4765 416.062 50.3955 416.363 50.2334C416.665 50.0676 416.897 49.8491 417.059 49.5778C417.224 49.3065 417.307 49.0107 417.307 48.6905V47.6674C417.243 47.7202 417.134 47.7692 416.979 47.8144C416.829 47.8596 416.659 47.8992 416.471 47.9331C416.282 47.967 416.096 47.9971 415.911 48.0235C415.727 48.0499 415.566 48.0725 415.431 48.0913C415.126 48.1328 414.852 48.2006 414.611 48.2948C414.37 48.389 414.18 48.5209 414.04 48.6905C413.901 48.8562 413.831 49.071 413.831 49.3348C413.831 49.7116 413.969 49.9961 414.244 50.1882C414.519 50.3804 414.869 50.4765 415.295 50.4765ZM425.74 43.1233V44.7058H420.749V43.1233H425.74ZM421.981 41.0433H424.027V49.1935C424.027 49.4685 424.069 49.6795 424.152 49.8265C424.238 49.9697 424.352 50.0676 424.491 50.1204C424.63 50.1732 424.785 50.1995 424.954 50.1995C425.083 50.1995 425.199 50.1901 425.305 50.1713C425.414 50.1524 425.497 50.1355 425.554 50.1204L425.898 51.7199C425.789 51.7576 425.633 51.799 425.429 51.8443C425.229 51.8895 424.985 51.9158 424.694 51.9234C424.182 51.9385 423.72 51.8612 423.31 51.6916C422.899 51.5183 422.573 51.2508 422.332 50.8891C422.095 50.5273 421.978 50.0752 421.981 49.5326V41.0433ZM429.949 51.9799C429.399 51.9799 428.904 51.8819 428.463 51.686C428.026 51.4863 427.679 51.1924 427.423 50.8043C427.17 50.4162 427.044 49.9377 427.044 49.3687C427.044 48.8789 427.135 48.4738 427.316 48.1535C427.496 47.8332 427.743 47.577 428.056 47.3848C428.369 47.1927 428.721 47.0476 429.113 46.9496C429.508 46.8479 429.917 46.7744 430.339 46.7292C430.848 46.6765 431.261 46.6294 431.577 46.5879C431.894 46.5427 432.123 46.4749 432.267 46.3845C432.414 46.2903 432.487 46.1452 432.487 45.9492V45.9153C432.487 45.4896 432.361 45.1599 432.108 44.9262C431.856 44.6926 431.492 44.5758 431.018 44.5758C430.516 44.5758 430.119 44.6851 429.825 44.9036C429.535 45.1222 429.339 45.3803 429.237 45.678L427.327 45.4067C427.478 44.8791 427.726 44.4383 428.073 44.0841C428.42 43.7261 428.843 43.4586 429.345 43.2815C429.846 43.1007 430.4 43.0102 431.006 43.0102C431.424 43.0102 431.841 43.0592 432.255 43.1572C432.67 43.2551 433.048 43.4172 433.391 43.6432C433.734 43.8656 434.009 44.1689 434.217 44.5532C434.428 44.9375 434.533 45.418 434.533 45.9945V51.8047H432.566V50.6121H432.498C432.374 50.8533 432.199 51.0794 431.973 51.2904C431.75 51.4976 431.47 51.6653 431.131 51.7934C430.795 51.9177 430.401 51.9799 429.949 51.9799ZM430.481 50.4765C430.891 50.4765 431.247 50.3955 431.549 50.2334C431.85 50.0676 432.082 49.8491 432.244 49.5778C432.41 49.3065 432.493 49.0107 432.493 48.6905V47.6674C432.429 47.7202 432.319 47.7692 432.165 47.8144C432.014 47.8596 431.845 47.8992 431.656 47.9331C431.468 47.967 431.281 47.9971 431.097 48.0235C430.912 48.0499 430.752 48.0725 430.616 48.0913C430.311 48.1328 430.038 48.2006 429.797 48.2948C429.556 48.389 429.365 48.5209 429.226 48.6905C429.086 48.8562 429.017 49.071 429.017 49.3348C429.017 49.7116 429.154 49.9961 429.429 50.1882C429.704 50.3804 430.055 50.4765 430.481 50.4765Z" fill="#005D46"/>
<path d="M128.145 158.342L119.849 193.192L95.8105 174.093L104.085 139.264L128.145 158.342Z" fill="#F7B600" stroke="#101828" stroke-width="0.529959" stroke-miterlimit="10"/>
<path d="M87.1952 211.063L119.55 193.553L95.5115 174.453L63.1562 191.984L87.1952 211.063Z" fill="#FECC2F" stroke="#101828" stroke-width="0.529959" stroke-miterlimit="10"/>
<path d="M63.0527 191.454L95.4503 174.177L103.576 139.264L70.8188 155.82L63.0527 191.454Z" fill="#F3DB9B" stroke="#101828" stroke-width="0.529959" stroke-miterlimit="10"/>
</g>
<defs>
<clipPath id="clip0_1159_12737">
<rect width="565" height="367" fill="white"/>
</clipPath>
</defs>
</svg>
