<svg width="398" height="292" viewBox="0 0 398 292" fill="none" xmlns="http://www.w3.org/2000/svg">
<g clip-path="url(#clip0_9693_31080)">
<path d="M88.4404 211.064C88.4404 211.064 121.727 235.096 127 264.017L104.919 319.822C104.919 319.822 88.77 293.752 90.4178 255.87C92.0657 217.988 88.4404 210.656 88.4404 210.656V211.064Z" fill="#005D46" stroke="#101828" stroke-width="0.979995" stroke-linecap="round" stroke-linejoin="round"/>
<path d="M88.4387 211.064C88.4387 211.064 112.497 247.724 115.793 292.123L104.917 319.822C104.917 319.822 88.7683 293.752 90.4161 255.87C92.064 217.988 88.4387 210.656 88.4387 210.656V211.064Z" fill="#00A47B" stroke="#101828" stroke-width="0.979995" stroke-miterlimit="10"/>
<path d="M151.293 198.137C151.293 198.137 175.208 260.459 162.918 299.97L102.134 341.111C102.134 341.111 99.4772 294.267 125.385 252.312C151.293 210.357 151.293 198.137 151.293 198.137Z" fill="#00A47B" stroke="#101828" stroke-width="0.979995" stroke-miterlimit="10" stroke-linejoin="round"/>
<path d="M151.413 198.137C151.413 198.137 156.396 265.347 132.148 320.337L102.255 340.703C102.255 340.703 99.5977 293.86 125.505 251.905C151.413 209.949 151.413 197.729 151.413 197.729V198.137Z" fill="#005D46" stroke="#101828" stroke-width="0.979995" stroke-linecap="round" stroke-linejoin="round"/>
<path d="M352.238 186.833C352.238 186.833 343.945 203.534 278.921 238.157C219.122 269.837 206.253 298.356 206.253 338.994H303.714C346.646 295.025 352.238 186.833 352.238 186.833Z" fill="#00A47B" stroke="#101828" stroke-width="0.979995" stroke-linecap="round" stroke-linejoin="round"/>
<path d="M44.0992 218.14L44.1346 218.217C44.1412 218.327 44.1477 218.451 44.1566 218.591C44.1962 219.215 44.2587 220.135 44.3499 221.316C44.5322 223.679 44.8296 227.089 45.2905 231.287C46.2121 239.683 47.7875 251.23 50.4036 263.835C53.0445 276.56 56.7516 290.39 61.9296 303.151C70.1263 323.351 91.6277 332.671 113.428 332.671H169.871C169.226 331.249 168.342 329.374 167.204 327.139C164.502 321.828 160.378 314.474 154.688 306.294C143.309 289.933 125.66 270.257 100.588 257.002C75.5992 243.792 61.6425 233.945 53.9405 227.411C50.0903 224.145 47.8071 221.711 46.4912 220.103C46.1966 219.743 45.952 219.423 45.7478 219.146C45.5612 218.892 45.4092 218.674 45.2873 218.49C45.2541 218.404 45.2215 218.325 45.1923 218.249C45.0837 217.968 45.002 217.754 44.9479 217.611C44.9209 217.539 44.9008 217.486 44.8874 217.45C44.8807 217.432 44.8757 217.418 44.8724 217.409L44.8677 217.397L44.0992 215.318V218.14Z" fill="#00A47B" stroke="#101828" stroke-width="0.979995" stroke-linecap="round" stroke-linejoin="round"/>
<path d="M113.949 322.23C111.669 315.103 101.075 295.477 76.9352 273.996C52.7956 252.514 45.1514 227.254 44.3467 217.308" stroke="#101828" stroke-width="0.979995"/>
<path d="M272.89 301.166C277.718 293.376 291.397 274.613 307.49 261.883C327.607 245.971 346.285 223.631 351.918 187.828" stroke="#101828" stroke-width="0.979995"/>
<path d="M138.905 143.762C138.905 143.762 171.679 145.069 175.408 188.104C179.048 192.306 182.589 200.525 186.493 216.754L182.204 217.334C178.51 201.979 175.187 194.651 172.458 191.1C164.141 188.175 142.291 177.361 138.905 143.762Z" fill="#005D46"/>
<path d="M138.905 143.762L138.925 143.272L138.361 143.25L138.418 143.811L138.905 143.762ZM175.408 188.104L174.92 188.147L174.934 188.305L175.038 188.425L175.408 188.104ZM186.493 216.754L186.558 217.24L187.096 217.167L186.969 216.64L186.493 216.754ZM182.204 217.334L181.727 217.448L181.831 217.878L182.269 217.819L182.204 217.334ZM172.458 191.1L172.846 190.802L172.757 190.686L172.62 190.638L172.458 191.1ZM138.905 143.762C138.886 144.251 138.885 144.251 138.885 144.251C138.885 144.251 138.886 144.251 138.886 144.251C138.886 144.251 138.887 144.251 138.889 144.251C138.892 144.252 138.897 144.252 138.904 144.252C138.918 144.253 138.94 144.254 138.969 144.256C139.028 144.259 139.117 144.265 139.233 144.275C139.467 144.295 139.813 144.329 140.256 144.388C141.143 144.505 142.419 144.721 143.964 145.113C147.054 145.898 151.214 147.387 155.489 150.204C164.017 155.824 173.068 166.771 174.92 188.147L175.408 188.104L175.896 188.062C174.019 166.402 164.818 155.178 156.028 149.385C151.643 146.496 147.376 144.969 144.205 144.163C142.619 143.761 141.305 143.538 140.385 143.416C139.925 143.355 139.563 143.319 139.315 143.298C139.191 143.288 139.095 143.282 139.029 143.278C138.996 143.276 138.971 143.274 138.953 143.273C138.945 143.273 138.938 143.273 138.933 143.272C138.931 143.272 138.929 143.272 138.927 143.272C138.927 143.272 138.926 143.272 138.926 143.272C138.925 143.272 138.925 143.272 138.905 143.762ZM175.408 188.104L175.038 188.425C178.592 192.528 182.112 200.64 186.016 216.869L186.493 216.754L186.969 216.64C183.065 200.41 179.503 192.084 175.779 187.784L175.408 188.104ZM186.493 216.754L186.427 216.269L182.138 216.848L182.204 217.334L182.269 217.819L186.558 217.24L186.493 216.754ZM182.204 217.334L182.68 217.219C178.984 201.854 175.643 194.439 172.846 190.802L172.458 191.1L172.069 191.399C174.732 194.862 178.036 202.104 181.727 217.448L182.204 217.334ZM172.458 191.1L172.62 190.638C164.409 187.75 142.752 177.056 139.393 143.712L138.905 143.762L138.418 143.811C141.829 177.667 163.874 188.6 172.295 191.563L172.458 191.1Z" fill="#101828"/>
<path d="M168.584 182.004C166.11 179.344 160.014 172.195 155.422 164.875C150.83 157.556 142.428 147.916 138.802 144.011" stroke="#101828" stroke-width="0.979995"/>
<path d="M124.18 68.2529C124.18 68.2529 166.002 57.5573 183.055 114.826C188.066 120.4 192 132.616 194.746 160.68L189.016 161.094C186.864 139.092 183.903 127.994 181.031 122.292C169.783 121.514 137.954 115.092 124.18 68.2529Z" fill="#005D46"/>
<path d="M124.18 68.2529L124.058 67.7782L123.567 67.904L123.71 68.3912L124.18 68.2529ZM183.055 114.826L182.586 114.966L182.617 115.072L182.691 115.154L183.055 114.826ZM194.746 160.68L194.781 161.169L195.283 161.133L195.234 160.632L194.746 160.68ZM189.016 161.094L188.529 161.142L188.575 161.617L189.052 161.583L189.016 161.094ZM181.031 122.292L181.468 122.072L181.343 121.823L181.065 121.803L181.031 122.292ZM124.18 68.2529C124.301 68.7276 124.301 68.7277 124.301 68.7277C124.301 68.7276 124.301 68.7276 124.302 68.7275C124.303 68.7273 124.304 68.7269 124.306 68.7264C124.311 68.7253 124.317 68.7237 124.326 68.7214C124.345 68.7169 124.373 68.7101 124.411 68.7013C124.487 68.6837 124.602 68.658 124.753 68.6266C125.056 68.5638 125.505 68.4785 126.085 68.3895C127.244 68.2116 128.923 68.0197 130.994 67.9664C135.136 67.8597 140.834 68.3076 147.058 70.5253C159.479 74.9508 174.098 86.461 182.586 114.966L183.055 114.826L183.525 114.687C174.96 85.9226 160.141 74.1461 147.387 69.6022C141.024 67.3352 135.201 66.8777 130.968 66.9867C128.852 67.0413 127.131 67.2375 125.936 67.4209C125.339 67.5125 124.873 67.601 124.554 67.667C124.395 67.7 124.273 67.7273 124.19 67.7467C124.148 67.7564 124.116 67.764 124.094 67.7694C124.083 67.772 124.075 67.7741 124.069 67.7756C124.066 67.7764 124.063 67.777 124.062 67.7774C124.061 67.7776 124.06 67.7778 124.06 67.7779C124.059 67.7781 124.058 67.7782 124.18 68.2529ZM183.055 114.826L182.691 115.154C185.122 117.858 187.333 122.221 189.277 129.446C191.22 136.668 192.887 146.707 194.258 160.728L194.746 160.68L195.234 160.632C193.86 146.589 192.187 136.488 190.223 129.192C188.261 121.9 185.999 117.368 183.42 114.499L183.055 114.826ZM194.746 160.68L194.711 160.191L188.981 160.606L189.016 161.094L189.052 161.583L194.781 161.169L194.746 160.68ZM189.016 161.094L189.504 161.047C187.351 139.036 184.384 127.86 181.468 122.072L181.031 122.292L180.593 122.513C183.422 128.128 186.377 139.149 188.529 161.142L189.016 161.094ZM181.031 122.292L181.065 121.803C175.498 121.418 164.821 119.635 153.829 112.141C142.845 104.652 131.508 91.4348 124.65 68.1147L124.18 68.2529L123.71 68.3912C130.626 91.9105 142.091 105.324 153.277 112.95C164.455 120.571 175.316 122.388 180.997 122.781L181.031 122.292Z" fill="#101828"/>
<path d="M173.128 110.873C169.192 108.068 159.332 100.313 151.373 91.7297C143.415 83.1465 129.885 72.7607 124.115 68.6407" stroke="#101828" stroke-width="0.979995"/>
<path d="M236.709 157.777C246.099 157.686 254.173 164.953 254.29 173.975C254.991 183.15 247.519 190.168 238.129 190.259C228.738 190.35 220.664 183.082 220.547 174.061C219.846 164.886 227.318 157.867 236.709 157.777Z" fill="#FECC2F" stroke="#101828" stroke-width="0.979995" stroke-miterlimit="10"/>
<path d="M231.483 142.139C199.192 158.021 214.949 200.066 214.949 200.066C247.181 179.674 231.483 142.139 231.483 142.139Z" fill="#005D46" stroke="#101828" stroke-width="0.979995" stroke-miterlimit="10"/>
<path d="M231.21 142.336C229.75 145.899 226.615 155.025 225.75 163.026C224.67 173.026 223.193 179.806 220.06 184.589" stroke="#101828" stroke-width="0.979995"/>
<path d="M296.508 171.391C254.951 155.122 227.305 183.167 218.859 193.544C210.787 196.681 199.619 207.259 180.083 235.156L185.07 235.187C203.565 208.502 213.487 200.294 219.137 198.003C271.532 212.103 296.508 171.391 296.508 171.391Z" fill="#00A47B"/>
<path d="M296.508 171.391L296.686 170.935L297.232 171.149L296.925 171.648L296.508 171.391ZM218.859 193.544L219.239 193.853L219.158 193.954L219.037 194.001L218.859 193.544ZM180.083 235.156L180.08 235.646L179.146 235.64L179.682 234.875L180.083 235.156ZM185.07 235.187L185.473 235.466L185.326 235.679L185.067 235.677L185.07 235.187ZM219.137 198.003L218.953 197.549L219.106 197.487L219.265 197.53L219.137 198.003ZM296.508 171.391L296.329 171.848C255.093 155.704 227.658 183.509 219.239 193.853L218.859 193.544L218.479 193.235C226.951 182.825 254.809 154.54 296.686 170.935L296.508 171.391ZM218.859 193.544L219.037 194.001C215.098 195.532 210.346 198.902 204.124 205.404C197.906 211.902 190.246 221.498 180.485 235.437L180.083 235.156L179.682 234.875C189.456 220.917 197.148 211.276 203.416 204.726C209.68 198.181 214.549 194.694 218.682 193.087L218.859 193.544ZM180.083 235.156L180.086 234.666L185.074 234.697L185.07 235.187L185.067 235.677L180.08 235.646L180.083 235.156ZM185.07 235.187L184.668 234.908C193.923 221.554 201.045 212.807 206.569 207.106C212.089 201.41 216.038 198.731 218.953 197.549L219.137 198.003L219.321 198.457C216.587 199.566 212.749 202.136 207.272 207.788C201.799 213.436 194.712 222.136 185.473 235.466L185.07 235.187ZM219.137 198.003L219.265 197.53C245.308 204.538 264.508 197.925 277.201 189.575C283.554 185.397 288.281 180.78 291.419 177.209C292.987 175.424 294.158 173.901 294.935 172.826C295.324 172.289 295.614 171.864 295.806 171.574C295.902 171.429 295.974 171.318 296.021 171.244C296.045 171.207 296.063 171.179 296.074 171.161C296.08 171.152 296.084 171.145 296.087 171.141C296.088 171.139 296.089 171.137 296.09 171.136C296.09 171.136 296.09 171.135 296.09 171.135C296.09 171.135 296.09 171.135 296.508 171.391C296.925 171.648 296.925 171.648 296.925 171.649C296.925 171.649 296.924 171.65 296.924 171.65C296.923 171.652 296.922 171.654 296.92 171.657C296.916 171.662 296.911 171.67 296.905 171.681C296.892 171.701 296.873 171.732 296.848 171.771C296.797 171.85 296.722 171.966 296.623 172.116C296.424 172.416 296.126 172.852 295.729 173.4C294.936 174.497 293.746 176.045 292.155 177.856C288.973 181.477 284.181 186.157 277.74 190.394C264.846 198.875 245.361 205.567 219.01 198.476L219.137 198.003Z" fill="#101828"/>
<path d="M296.109 171.615C289.39 173.063 272.976 177.543 261.081 183.879C249.185 190.216 238.009 192.96 233.908 193.54" stroke="#101828" stroke-width="0.979995"/>
<path d="M199.364 420.046C199.364 420.046 199.256 418.09 198.722 415.381C190.469 349.63 174.987 188.216 211.285 109.818L202.42 105.552C165.647 185.751 181.078 349.72 189.173 416.072C189.173 416.072 201.333 424.418 196.662 423.186L199.364 420.046Z" fill="#00A47B" stroke="#101828" stroke-width="0.979995" stroke-miterlimit="10"/>
<path d="M212.068 40.5962C227.7 40.4454 241.139 52.5424 241.334 67.5579C242.502 82.8298 229.801 95.5113 214.434 94.6628C198.802 94.8135 185.363 82.7166 185.168 67.7011C184 52.4292 196.701 39.7477 212.068 40.5962Z" fill="#FECC2F" stroke="#101828" stroke-width="0.979995" stroke-miterlimit="10"/>
<path opacity="0.15" fill-rule="evenodd" clip-rule="evenodd" d="M238.113 55.4955C240.116 59.1227 241.279 63.219 241.336 67.5593C242.503 82.8312 229.803 95.5127 214.435 94.6641C198.804 94.8149 185.365 82.7179 185.169 67.7025C184.706 61.638 186.429 55.982 189.637 51.4195C194.563 60.3411 204.568 66.4245 215.681 66.3173C224.946 66.8288 233.242 62.4225 238.113 55.4955Z" fill="#101828" stroke="#101828" stroke-width="0.979995" stroke-miterlimit="10"/>
<path d="M247.111 89.4852C253.828 89.119 259.757 94.2477 260.474 101.565C260.572 108.72 255.277 113.738 248.384 114.77C241.667 115.137 235.738 110.008 235.021 102.69C234.923 95.536 240.395 89.8514 247.111 89.4852Z" fill="#FECC2F" stroke="#101828" stroke-width="0.979995" stroke-miterlimit="10"/>
<path opacity="0.15" fill-rule="evenodd" clip-rule="evenodd" d="M258.121 109.179C255.945 112.173 252.44 114.162 248.382 114.77C241.665 115.137 235.736 110.008 235.019 102.69C234.928 96.0717 239.604 90.711 245.623 89.6553C244.115 91.8184 243.235 94.4821 243.275 97.3882C243.992 104.706 249.921 109.835 256.638 109.468C257.141 109.393 257.636 109.296 258.121 109.179Z" fill="#101828" stroke="#101828" stroke-width="0.979995" stroke-miterlimit="10"/>
<path d="M256.454 118.521C235.886 89.976 202.161 104.194 202.161 104.194C226.707 131.863 256.454 118.521 256.454 118.521Z" fill="#005D46" stroke="#101828" stroke-width="0.979995" stroke-miterlimit="10"/>
<path d="M203.653 105.523C215.126 73.8736 182.633 55.025 182.633 55.025C173.445 89.8457 203.653 105.523 203.653 105.523Z" fill="#00A47B" stroke="#101828" stroke-width="0.979995" stroke-miterlimit="10"/>
<path d="M197.779 88.3211C193.555 81.4921 184.584 65.3274 182.492 55.3" stroke="#101828" stroke-width="0.979995"/>
<path d="M202.264 106.302C258.784 119.29 284.342 65.0288 284.342 65.0288C211.584 49.683 202.264 106.302 202.264 106.302Z" fill="#00A47B" stroke="#101828" stroke-width="0.979995" stroke-miterlimit="10"/>
<path d="M283.973 65.2418C277.416 67.2521 265.27 71.1535 251.765 79.8084C238.26 88.4632 223.34 95.7887 219.74 97.2282" stroke="#101828" stroke-width="0.979995"/>
<path d="M100.574 147.414L100.7 152.762C100.902 161.366 93.8738 168.393 85.2699 168.192L79.9222 168.066L85.2699 167.941C93.8739 167.739 100.902 174.767 100.7 183.371L100.574 188.718L100.449 183.371C100.247 174.767 107.275 167.739 115.879 167.941L121.227 168.066L115.879 168.192C107.275 168.393 100.247 161.366 100.449 152.762L100.574 147.414Z" fill="white" stroke="#101828" stroke-width="0.979995"/>
<path d="M10.2063 70.8504L6.76335 108.365L79.4839 59.6668L10.2063 70.8504Z" fill="#D3D8E0" stroke="black" stroke-width="0.979995" stroke-linejoin="round"/>
<path d="M26.6447 97.6753L6.76449 108.365L16.0828 86.9019L25.7402 90.1096L26.6447 97.6753Z" fill="#A8AEB7" stroke="black" stroke-width="0.979995" stroke-linejoin="round"/>
<path d="M79.4858 59.6654L9.37701 79.905L-3.85557 66.1048L79.4858 59.6654Z" fill="#FEFDFC" stroke="black" stroke-width="0.979995" stroke-linejoin="round"/>
<path d="M79.4849 59.667L79.3429 59.8585L32.528 103.676L16.0827 86.9019L79.4849 59.667Z" fill="#FEFDFC"/>
<path d="M32.5279 103.676L79.3429 59.8587L40.7046 112.017L32.5279 103.676Z" fill="#F2EFEE"/>
<path d="M79.3428 59.8559L78.9501 59.5628L78.9491 59.5642L79.3428 59.8559ZM40.7048 112.014L40.3549 112.357C40.4553 112.46 40.5955 112.513 40.7386 112.503C40.8816 112.493 41.0132 112.421 41.0985 112.306L40.7048 112.014ZM32.5279 103.674L32.8778 103.331L32.8778 103.331L32.5279 103.674ZM16.0829 86.8995L15.8895 86.4493C15.741 86.5131 15.6335 86.646 15.6022 86.8046C15.5709 86.9632 15.6198 87.1271 15.733 87.2425L16.0829 86.8995ZM79.4851 59.6652L79.8778 59.9583C80.0104 59.7806 80.0071 59.5359 79.8698 59.3618C79.7325 59.1877 79.4954 59.1275 79.2917 59.215L79.4851 59.6652ZM79.3428 59.8559L78.9491 59.5642L40.3111 111.723L40.7048 112.014L41.0985 112.306L79.7365 60.1476L79.3428 59.8559ZM40.7048 112.014L41.0547 111.671L32.8778 103.331L32.5279 103.674L32.178 104.017L40.3549 112.357L40.7048 112.014ZM32.5279 103.674L32.8778 103.331L16.4328 86.5564L16.0829 86.8995L15.733 87.2425L32.178 104.017L32.5279 103.674ZM16.0829 86.8995L16.2763 87.3497L79.6784 60.1155L79.4851 59.6652L79.2917 59.215L15.8895 86.4493L16.0829 86.8995ZM79.4851 59.6652L79.0923 59.3722L78.9501 59.5628L79.3428 59.8559L79.7355 60.1489L79.8778 59.9583L79.4851 59.6652Z" fill="black"/>
<path d="M325.271 122.476L319.662 126.605L313.987 133.806L328.676 133.358L325.271 122.476Z" fill="#A8AEB7" stroke="black" stroke-width="0.979995" stroke-linejoin="round"/>
<path d="M374.819 123.003L328.613 150.858L325.271 122.476L320.627 109.968L312.747 92.0547L374.819 123.003Z" fill="#FEFDFC" stroke="black" stroke-width="0.979995" stroke-linejoin="round"/>
<path fill-rule="evenodd" clip-rule="evenodd" d="M328.614 150.857L374.819 123.003L327.354 140.159L328.614 150.857Z" fill="#F2EFEE"/>
<path d="M320.628 109.968L313.988 133.806L325.272 122.476L358.13 122.382L320.628 109.968Z" fill="#D3D8E0" stroke="black" stroke-width="0.979995" stroke-linejoin="round"/>
<path d="M325.271 122.476L328.613 150.859L374.819 123.004L312.747 92.0553L320.627 109.968" stroke="black" stroke-width="0.979995" stroke-linejoin="round"/>
</g>
<defs>
<clipPath id="clip0_9693_31080">
<rect width="510.973" height="291.184" fill="white" transform="translate(-56.8203)"/>
</clipPath>
</defs>
</svg>
