<svg width="378" height="361" viewBox="0 0 378 361" fill="none" xmlns="http://www.w3.org/2000/svg">
<path d="M295.199 191.019C293.668 219.832 287.578 240.33 279.023 256.062C270.471 271.789 259.555 282.564 248.713 292.019C227.001 310.954 206.068 324.397 201.258 361.767L198.387 361.397L195.515 361.027C200.659 321.069 223.661 306.185 244.908 287.655C255.545 278.378 265.866 268.136 273.936 253.296C282.004 238.46 287.922 218.837 289.417 190.712L295.199 191.019Z" fill="#00A47B"/>
<path d="M295.199 191.019L295.549 191.038L295.567 190.688L295.218 190.67L295.199 191.019ZM279.023 256.062L279.331 256.229L279.023 256.062ZM248.713 292.019L248.943 292.283L248.713 292.019ZM201.258 361.767L201.213 362.114L201.56 362.158L201.605 361.811L201.258 361.767ZM198.387 361.397L198.343 361.744L198.343 361.744L198.387 361.397ZM195.515 361.027L195.168 360.982L195.123 361.329L195.47 361.374L195.515 361.027ZM244.908 287.655L245.138 287.919L244.908 287.655ZM273.936 253.296L274.244 253.463L273.936 253.296ZM289.417 190.712L289.436 190.363L289.086 190.344L289.068 190.694L289.417 190.712ZM295.199 191.019L294.85 191.001C293.32 219.772 287.241 240.217 278.716 255.895L279.023 256.062L279.331 256.229C287.915 240.443 294.015 219.892 295.549 191.038L295.199 191.019ZM279.023 256.062L278.716 255.895C270.193 271.568 259.313 282.311 248.483 291.755L248.713 292.019L248.943 292.283C259.798 282.817 270.749 272.01 279.331 256.229L279.023 256.062ZM248.713 292.019L248.483 291.755C226.8 310.666 205.741 324.196 200.911 361.722L201.258 361.767L201.605 361.811C206.395 324.599 227.203 311.243 248.943 292.283L248.713 292.019ZM201.258 361.767L201.303 361.419L198.432 361.05L198.387 361.397L198.343 361.744L201.213 362.114L201.258 361.767ZM198.387 361.397L198.432 361.05L195.56 360.68L195.515 361.027L195.47 361.374L198.343 361.744L198.387 361.397ZM195.515 361.027L195.862 361.072C200.986 321.27 223.863 306.473 245.138 287.919L244.908 287.655L244.678 287.392C223.459 305.897 200.332 320.868 195.168 360.982L195.515 361.027ZM244.908 287.655L245.138 287.919C255.788 278.631 266.144 268.357 274.244 253.463L273.936 253.296L273.629 253.129C265.588 267.916 255.303 278.125 244.678 287.392L244.908 287.655ZM273.936 253.296L274.244 253.463C282.341 238.573 288.27 218.897 289.767 190.731L289.417 190.712L289.068 190.694C287.575 218.777 281.667 238.347 273.629 253.129L273.936 253.296ZM289.417 190.712L289.399 191.062L295.18 191.369L295.199 191.019L295.218 190.67L289.436 190.363L289.417 190.712Z" fill="#101828"/>
<path d="M291.972 165.265C292.987 160.861 298.832 158.276 306.035 158.565C309.387 158.699 312.718 157.543 316.002 156.857C317.15 156.617 318.321 156.614 319.477 156.88C325.144 158.186 328.302 165.486 326.541 173.194C326.538 173.206 326.536 173.218 326.534 173.229C326.531 173.241 326.527 173.253 326.525 173.264C324.735 180.967 318.701 186.148 313.033 184.842C311.877 184.576 310.825 184.06 309.899 183.342C307.246 181.288 304.757 178.791 301.684 177.444C295.081 174.551 290.957 169.669 291.972 165.265Z" fill="#FEE29E" stroke="#101828" stroke-width="0.7"/>
<path opacity="0.1" d="M291.972 165.265C292.987 160.861 298.832 158.276 306.035 158.565C309.387 158.699 312.718 157.543 316.002 156.857C317.15 156.617 318.321 156.614 319.477 156.88C325.144 158.186 328.302 165.486 326.541 173.194C326.538 173.206 326.536 173.218 326.534 173.229C326.531 173.241 326.527 173.253 326.525 173.264C324.735 180.967 318.701 186.148 313.033 184.842C311.877 184.576 310.825 184.06 309.899 183.342C307.246 181.288 304.757 178.791 301.684 177.444C295.081 174.551 290.957 169.669 291.972 165.265Z" fill="#101828" stroke="#101828" stroke-width="0.7"/>
<path d="M288.72 165.343C287.659 161.577 283.045 159.347 277.164 159.23C272.038 159.128 266.552 157.18 261.514 158.134C261.29 158.176 261.066 158.229 260.843 158.292C255.236 159.872 252.433 167.335 254.582 174.962C256.731 182.589 263.018 187.491 268.625 185.912C268.848 185.849 269.067 185.777 269.28 185.696C274.074 183.879 277.737 179.355 282.055 176.592C287.01 173.421 289.782 169.11 288.72 165.343Z" fill="#FEE29E"/>
<path d="M288.72 165.343L289.057 165.248L289.057 165.248L288.72 165.343ZM260.843 158.292L260.748 157.955L260.748 157.955L260.843 158.292ZM254.582 174.962L254.245 175.057L254.245 175.057L254.582 174.962ZM268.625 185.912L268.72 186.249L268.72 186.249L268.625 185.912ZM282.055 176.592L282.244 176.887L282.055 176.592ZM277.164 159.23L277.157 159.58L277.164 159.23ZM288.72 165.343L288.383 165.438C287.886 163.673 286.55 162.241 284.589 161.229C282.627 160.217 280.059 159.638 277.157 159.58L277.164 159.23L277.171 158.88C280.15 158.939 282.83 159.534 284.91 160.607C286.992 161.681 288.493 163.247 289.057 165.248L288.72 165.343ZM261.514 158.134L261.579 158.478C261.365 158.518 261.151 158.569 260.938 158.629L260.843 158.292L260.748 157.955C260.981 157.889 261.215 157.834 261.449 157.79L261.514 158.134ZM260.843 158.292L260.938 158.629C258.267 159.381 256.236 161.542 255.132 164.482C254.027 167.422 253.862 171.118 254.919 174.867L254.582 174.962L254.245 175.057C253.152 171.179 253.314 167.33 254.476 164.236C255.638 161.143 257.812 158.782 260.748 157.955L260.843 158.292ZM254.582 174.962L254.919 174.867C255.975 178.617 258.045 181.682 260.522 183.613C262.999 185.545 265.86 186.327 268.53 185.575L268.625 185.912L268.72 186.249C265.784 187.076 262.698 186.197 260.092 184.165C257.485 182.134 255.337 178.935 254.245 175.057L254.582 174.962ZM268.625 185.912L268.53 185.575C268.743 185.515 268.952 185.446 269.156 185.368L269.28 185.696L269.404 186.023C269.181 186.108 268.953 186.183 268.72 186.249L268.625 185.912ZM282.055 176.592L281.867 176.297C284.312 174.733 286.2 172.898 287.345 171.01C288.489 169.123 288.881 167.204 288.383 165.438L288.72 165.343L289.057 165.248C289.621 167.25 289.158 169.37 287.943 171.373C286.729 173.374 284.754 175.28 282.244 176.887L282.055 176.592ZM269.28 185.696L269.156 185.368C271.495 184.482 273.572 182.93 275.623 181.229C277.659 179.541 279.684 177.694 281.867 176.297L282.055 176.592L282.244 176.887C280.109 178.253 278.143 180.049 276.07 181.768C274.011 183.475 271.859 185.093 269.404 186.023L269.28 185.696ZM277.164 159.23L277.157 159.58C274.566 159.528 271.875 159.009 269.256 158.632C266.619 158.253 264.037 158.013 261.579 158.478L261.514 158.134L261.449 157.79C264.029 157.302 266.709 157.558 269.356 157.94C272.022 158.323 274.637 158.83 277.171 158.88L277.164 159.23Z" fill="#101828"/>
<path d="M289.927 153.915C297.558 153.731 303.894 159.769 304.077 167.4C304.261 175.032 298.224 181.367 290.592 181.551C282.961 181.735 276.625 175.697 276.441 168.066C276.258 160.434 282.295 154.099 289.927 153.915Z" fill="#E7A0F7" stroke="#101828" stroke-width="0.7"/>
<path opacity="0.1" fill-rule="evenodd" clip-rule="evenodd" d="M290.567 167.965C285.294 168.092 280.64 165.249 278.206 160.963C277.027 163.058 276.379 165.488 276.441 168.066C276.625 175.698 282.96 181.735 290.592 181.551C298.223 181.368 304.26 175.032 304.077 167.401C304.02 165.042 303.375 162.835 302.286 160.917C299.974 165.024 295.62 167.843 290.567 167.965Z" fill="#101828" stroke="#101828" stroke-width="0.7"/>
<path d="M299.98 167.022C304.191 164.059 310.983 166.14 316.629 171.622C319.098 174.019 322.426 175.395 325.497 176.944C326.746 177.575 327.809 178.46 328.613 179.601C332.214 184.717 329.211 193.033 321.906 198.174L321.563 198.412C314.326 203.315 305.704 203.256 302.159 198.219C301.357 197.078 300.882 195.779 300.71 194.391C300.287 190.977 300.115 187.38 298.692 184.248C295.437 177.082 295.77 169.985 299.98 167.022Z" fill="#FEE29E" stroke="#101828" stroke-width="0.7"/>
<g opacity="0.1">
<path fill-rule="evenodd" clip-rule="evenodd" d="M300.202 166.874C303.134 167.708 306.245 169.6 309.07 172.342C311.113 174.327 313.746 175.611 316.335 176.874C316.873 177.136 317.409 177.398 317.937 177.664C319.186 178.294 320.25 179.18 321.053 180.321C324.654 185.437 321.651 193.753 314.346 198.894L314.003 199.131C312.198 200.355 310.306 201.269 308.429 201.874C312.374 202.512 317.219 201.357 321.564 198.413L321.907 198.175C329.212 193.034 332.215 184.718 328.614 179.602C327.811 178.461 326.747 177.575 325.498 176.945C324.97 176.679 324.434 176.417 323.896 176.155C321.307 174.892 318.674 173.608 316.631 171.623C311.082 166.236 304.426 164.133 300.202 166.874Z" fill="#101828"/>
<path d="M316.335 176.874C313.746 175.611 311.113 174.327 309.07 172.342C306.245 169.6 303.134 167.708 300.202 166.874C304.426 164.133 311.082 166.236 316.631 171.623C318.674 173.608 321.307 174.892 323.896 176.155C324.434 176.417 324.97 176.679 325.498 176.945C326.747 177.575 327.811 178.461 328.614 179.602C332.215 184.718 329.212 193.034 321.907 198.175L321.564 198.413C317.219 201.357 312.374 202.512 308.429 201.874C310.306 201.269 312.198 200.355 314.003 199.131L314.346 198.894C321.651 193.753 324.654 185.437 321.053 180.321C320.25 179.18 319.186 178.294 317.937 177.664M316.335 176.874C316.873 177.136 317.409 177.398 317.937 177.664M316.335 176.874C316.402 176.907 316.47 176.94 316.537 176.972C317.007 177.202 317.475 177.431 317.937 177.664" stroke="#101828" stroke-width="0.7"/>
</g>
<path d="M280.805 167.485C277.004 165.075 271.418 166.61 266.482 170.875C262.504 174.312 257.02 176.478 253.557 180.432C253.285 180.742 253.036 181.074 252.812 181.428C249.461 186.712 252.861 194.874 260.405 199.657C267.949 204.441 276.78 204.035 280.131 198.751C280.355 198.398 280.55 198.031 280.714 197.653C282.814 192.833 282.435 186.949 283.847 181.885C285.599 175.602 284.605 169.896 280.805 167.485Z" fill="#FEE29E"/>
<path d="M280.805 167.485L280.992 167.19L280.992 167.19L280.805 167.485ZM252.812 181.428L252.517 181.24L252.517 181.24L252.812 181.428ZM260.405 199.657L260.217 199.953L260.217 199.953L260.405 199.657ZM280.131 198.751L280.427 198.939L280.427 198.939L280.131 198.751ZM266.482 170.875L266.71 171.14L266.482 170.875ZM280.805 167.485L280.618 167.781C277.02 165.5 271.613 166.905 266.71 171.14L266.482 170.875L266.253 170.611C271.224 166.316 276.988 164.65 280.992 167.19L280.805 167.485ZM253.557 180.432L253.82 180.663C253.56 180.959 253.322 181.277 253.108 181.615L252.812 181.428L252.517 181.24C252.751 180.871 253.01 180.525 253.293 180.202L253.557 180.432ZM252.812 181.428L253.108 181.615C251.51 184.134 251.502 187.369 252.846 190.596C254.189 193.82 256.874 197.004 260.592 199.362L260.405 199.657L260.217 199.953C256.392 197.527 253.605 194.238 252.2 190.865C250.796 187.493 250.763 184.005 252.517 181.24L252.812 181.428ZM260.405 199.657L260.592 199.362C264.311 201.72 268.335 202.79 271.824 202.63C275.315 202.47 278.238 201.083 279.835 198.564L280.131 198.751L280.427 198.939C278.673 201.704 275.505 203.162 271.856 203.329C268.207 203.497 264.043 202.379 260.217 199.953L260.405 199.657ZM280.131 198.751L279.835 198.564C280.05 198.225 280.236 197.875 280.393 197.513L280.714 197.653L281.035 197.793C280.863 198.187 280.661 198.57 280.427 198.939L280.131 198.751ZM283.847 181.885L283.509 181.791C285.249 175.552 284.215 170.062 280.618 167.781L280.805 167.485L280.992 167.19C284.996 169.729 285.948 175.652 284.184 181.979L283.847 181.885ZM280.714 197.653L280.393 197.513C281.421 195.153 281.847 192.522 282.191 189.817C282.533 187.128 282.795 184.355 283.509 181.791L283.847 181.885L284.184 181.979C283.487 184.48 283.232 187.181 282.886 189.905C282.541 192.613 282.107 195.333 281.035 197.793L280.714 197.653ZM266.482 170.875L266.71 171.14C264.697 172.88 262.3 174.299 260.014 175.755C257.714 177.22 255.516 178.727 253.82 180.663L253.557 180.432L253.293 180.202C255.061 178.183 257.336 176.631 259.638 175.164C261.954 173.69 264.289 172.307 266.253 170.611L266.482 170.875Z" fill="#101828"/>
<path d="M290.48 170.443C296.808 170.291 302.31 176.034 304.343 184.103C305.248 187.695 307.494 190.844 309.624 193.874C310.577 195.229 311.118 196.72 311.156 198.294C311.316 204.916 302.493 210.501 291.451 210.767L290.935 210.775C280.127 210.871 271.325 205.776 271.168 199.257C271.131 197.682 271.6 196.167 272.486 194.768C274.468 191.639 276.56 188.385 277.291 184.754C278.933 176.596 284.152 170.596 290.48 170.443Z" fill="#FEE29E" stroke="#101828" stroke-width="0.7"/>
<path opacity="0.1" fill-rule="evenodd" clip-rule="evenodd" d="M291.406 170.463C295.164 172.677 298.15 177.087 299.532 182.574C300.419 186.096 302.596 189.192 304.689 192.168L304.813 192.344C305.766 193.699 306.308 195.19 306.345 196.764C306.505 203.387 297.683 208.971 286.64 209.237L286.124 209.246C283.67 209.267 281.319 209.022 279.149 208.552C282.441 209.988 286.52 210.814 290.933 210.775L291.45 210.767C302.492 210.501 311.314 204.916 311.155 198.293C311.117 196.719 310.575 195.228 309.623 193.874L309.498 193.697C307.406 190.721 305.229 187.625 304.342 184.103C302.409 176.43 297.339 170.861 291.406 170.463Z" fill="#101828" stroke="#101828" stroke-width="0.7"/>
<path d="M298.128 274.426C297.538 276.079 296.978 277.768 296.446 279.49C298.575 278.661 301.568 277.638 304.082 277.307C310.178 276.505 312.001 279.753 311.759 282.34C311.563 284.447 309.615 287.44 305.141 286.448C304.564 286.321 303.946 286.13 303.284 285.859C300.757 284.831 297.748 283.123 295.781 281.942C295.759 281.931 295.742 281.917 295.723 281.903C295.196 283.717 294.7 285.555 294.231 287.41C294.247 287.454 294.261 287.498 294.272 287.545C296.556 287.377 299.751 287.274 302.269 287.703C303.403 287.894 304.352 288.178 305.141 288.529C308.567 290.047 308.939 292.82 308.137 294.771C307.69 295.855 306.653 297.038 305.141 297.494C303.566 297.975 301.475 297.668 299 295.642C297.124 294.108 295.044 291.954 293.527 290.296C291.268 299.871 289.731 309.673 288.694 318.126C288.553 319.268 288.421 320.385 288.3 321.471C288.222 322.151 288.151 322.825 288.079 323.494C286.708 336.323 286.275 347.013 286.142 351.513H283.935C284.073 346.778 284.545 335.088 286.104 321.244C286.131 320.99 286.162 320.733 286.192 320.473C286.407 318.599 286.647 316.642 286.915 314.627C287.946 306.887 289.386 298.251 291.384 289.773C289.588 290.348 287.508 290.94 285.72 291.255C283.193 291.703 281.475 291.222 280.363 290.34C278.898 289.176 278.484 287.316 278.658 285.97C278.766 285.135 279.089 284.278 279.662 283.576C280.857 282.111 283.135 281.306 286.818 282.738C288.661 283.454 290.7 284.695 292.36 285.82C292.782 284.19 293.229 282.572 293.695 280.975C291.624 280.991 288.998 280.936 286.865 280.635C285.866 280.494 285.025 280.253 284.327 279.941C280.918 278.421 280.818 275.178 281.604 273.373C282.636 271.007 285.673 269.091 290.277 272.812C291.853 274.086 293.472 275.935 294.746 277.544C295.221 276.06 295.717 274.6 296.236 273.168C294.206 272.375 291.237 271.128 289.025 269.829C283.861 266.8 285.009 262.684 286.639 261.017C288.41 259.203 291.889 258.579 294.884 263.831C295.919 265.647 296.793 268.032 297.428 270.042C297.941 268.754 298.476 267.496 299.031 266.272C299.257 263.986 299.676 260.569 300.352 257.937C301.908 251.859 306.181 251.969 308.219 253.208C310.437 254.551 311.957 257.954 307.684 262.385C305.786 264.353 302.909 266.294 300.951 267.51C300.926 267.524 300.901 267.535 300.876 267.549C300.432 268.538 300.002 269.547 299.585 270.578C301.047 269.332 302.757 268.013 304.366 267.129C309.753 264.157 312.633 266.52 313.345 269.017C314.004 271.314 312.989 275.474 306.727 275.385C304.002 275.347 300.578 274.852 298.319 274.473C298.253 274.462 298.189 274.446 298.128 274.426Z" fill="#89DDC8" stroke="#101828" stroke-width="0.7" stroke-miterlimit="10"/>
<mask id="path-17-inside-1_7492_2079" fill="white">
<path d="M278.838 367.574C256.609 322.463 209.903 292.727 173.96 301.012C160.634 304.083 150.643 311.954 144.425 322.953C133.856 317.111 123.132 314.696 113.814 316.844C104.098 319.083 97.4432 325.931 94.1621 335.621C88.1895 333.734 82.3615 333.261 77.0557 334.484C63.706 337.561 56.9692 350.589 57.9014 367.574H278.838Z"/>
</mask>
<path d="M278.838 367.574C256.609 322.463 209.903 292.727 173.96 301.012C160.634 304.083 150.643 311.954 144.425 322.953C133.856 317.111 123.132 314.696 113.814 316.844C104.098 319.083 97.4432 325.931 94.1621 335.621C88.1895 333.734 82.3615 333.261 77.0557 334.484C63.706 337.561 56.9692 350.589 57.9014 367.574H278.838Z" fill="#137159"/>
<path d="M278.838 367.574L279.466 367.265L279.963 368.274H278.838V367.574ZM173.96 301.012L173.803 300.33L173.803 300.33L173.96 301.012ZM144.425 322.953L145.034 323.298L144.693 323.901L144.086 323.566L144.425 322.953ZM113.814 316.844L113.657 316.162L113.657 316.162L113.814 316.844ZM94.1621 335.621L94.8251 335.846L94.6052 336.495L93.9512 336.289L94.1621 335.621ZM77.0557 334.484L76.8984 333.802L76.8985 333.802L77.0557 334.484ZM57.9014 367.574V368.274H57.2387L57.2024 367.613L57.9014 367.574ZM278.838 367.574L278.21 367.884C267.152 345.443 250.005 326.829 231.166 314.86C212.318 302.886 191.848 297.607 174.117 301.694L173.96 301.012L173.803 300.33C192.015 296.132 212.87 301.578 231.917 313.679C250.974 325.785 268.295 344.595 279.466 367.265L278.838 367.574ZM173.96 301.012L174.117 301.694C160.988 304.72 151.158 312.465 145.034 323.298L144.425 322.953L143.815 322.609C150.128 311.443 160.281 303.446 173.803 300.33L173.96 301.012ZM144.425 322.953L144.086 323.566C133.608 317.774 123.063 315.43 113.972 317.526L113.814 316.844L113.657 316.162C123.2 313.962 134.105 316.449 144.763 322.34L144.425 322.953ZM113.814 316.844L113.972 317.526C104.529 319.702 98.0414 326.347 94.8251 335.846L94.1621 335.621L93.4991 335.397C96.845 325.515 103.667 318.464 113.657 316.162L113.814 316.844ZM94.1621 335.621L93.9512 336.289C88.0684 334.429 82.37 333.978 77.2129 335.166L77.0557 334.484L76.8985 333.802C82.3531 332.545 88.3107 333.038 94.373 334.954L94.1621 335.621ZM77.0557 334.484L77.2129 335.166C64.3403 338.134 57.6772 350.716 58.6003 367.536L57.9014 367.574L57.2024 367.613C56.2612 350.462 63.0717 336.989 76.8984 333.802L77.0557 334.484ZM57.9014 367.574V366.874H278.838V367.574V368.274H57.9014V367.574Z" fill="#101828" mask="url(#path-17-inside-1_7492_2079)"/>
<mask id="path-19-inside-2_7492_2079" fill="white">
<path d="M231.253 356.85C247.958 329.627 283.838 311.587 311.393 316.557C324.767 318.969 333.722 326.36 337.486 336.439C345.56 332.924 353.761 331.464 360.88 332.748C374.588 335.22 380.274 347.137 376.425 361.779H228.498C229.324 360.143 230.241 358.498 231.253 356.85Z"/>
</mask>
<path d="M231.253 356.85C247.958 329.627 283.838 311.587 311.393 316.557C324.767 318.969 333.722 326.36 337.486 336.439C345.56 332.924 353.761 331.464 360.88 332.748C374.588 335.22 380.274 347.137 376.425 361.779H228.498C229.324 360.143 230.241 358.498 231.253 356.85Z" fill="#89DDC8"/>
<path d="M231.253 356.85L230.656 356.483L230.656 356.484L231.253 356.85ZM311.393 316.557L311.517 315.868L311.517 315.868L311.393 316.557ZM337.486 336.439L336.831 336.684L337.089 337.376L337.766 337.081L337.486 336.439ZM360.88 332.748L361.004 332.059L361.004 332.059L360.88 332.748ZM376.425 361.779V362.479H376.965L377.102 361.957L376.425 361.779ZM228.498 361.779L227.873 361.464L227.36 362.479H228.498V361.779ZM231.253 356.85L231.85 357.216C240.125 343.73 253.166 332.498 267.568 325.257C281.976 318.013 297.679 314.795 311.268 317.246L311.393 316.557L311.517 315.868C297.551 313.349 281.537 316.666 266.94 324.006C252.337 331.348 239.086 342.747 230.656 356.483L231.253 356.85ZM311.393 316.557L311.268 317.246C324.438 319.621 333.165 326.87 336.831 336.684L337.486 336.439L338.142 336.195C334.278 325.85 325.097 318.317 311.517 315.868L311.393 316.557ZM337.486 336.439L337.766 337.081C345.756 333.602 353.813 332.185 360.756 333.437L360.88 332.748L361.004 332.059C353.709 330.744 345.364 332.246 337.207 335.798L337.486 336.439ZM360.88 332.748L360.756 333.437C367.418 334.639 372.071 338.115 374.615 343.022C377.169 347.947 377.641 354.4 375.748 361.601L376.425 361.779L377.102 361.957C379.058 354.516 378.612 347.689 375.858 342.378C373.094 337.047 368.05 333.33 361.004 332.059L360.88 332.748ZM376.425 361.779V361.079H228.498V361.779V362.479H376.425V361.779ZM228.498 361.779L229.123 362.095C229.94 360.477 230.848 358.848 231.85 357.216L231.253 356.85L230.656 356.484C229.635 358.148 228.708 359.81 227.873 361.464L228.498 361.779Z" fill="#101828" mask="url(#path-19-inside-2_7492_2079)"/>
<path d="M184.547 98.905C152.828 136.936 139.699 175.84 141.63 213.54C143.557 251.175 160.464 287.111 187.896 319.35C211.715 347.344 221.986 365.584 223.407 383.305C224.833 401.11 217.429 419.249 203.081 447.489L210.373 451.194C224.59 423.213 233.199 403.085 231.561 382.652C229.917 362.136 218.048 342.165 194.126 314.049C167.535 282.798 151.612 248.516 149.799 213.122C147.99 177.793 160.212 140.854 190.829 104.144L184.547 98.905Z" fill="#00A47B"/>
<path d="M184.547 98.905L184.278 98.6808L184.502 98.4121L184.771 98.6362L184.547 98.905ZM141.63 213.54L141.28 213.558L141.63 213.54ZM187.896 319.35L187.629 319.577L187.896 319.35ZM223.407 383.305L223.755 383.277L223.755 383.277L223.407 383.305ZM203.081 447.489L202.922 447.801L202.61 447.642L202.769 447.33L203.081 447.489ZM210.373 451.194L210.685 451.352L210.527 451.664L210.215 451.506L210.373 451.194ZM231.561 382.652L231.91 382.624L231.91 382.624L231.561 382.652ZM194.126 314.049L194.393 313.823L194.126 314.049ZM149.799 213.122L149.449 213.14L149.799 213.122ZM190.829 104.144L191.054 103.875L191.322 104.099L191.098 104.368L190.829 104.144ZM184.547 98.905L184.816 99.1292C153.144 137.104 140.054 175.924 141.979 213.523L141.63 213.54L141.28 213.558C139.344 175.757 152.512 136.768 184.278 98.6808L184.547 98.905ZM141.63 213.54L141.979 213.523C143.902 251.062 160.767 286.926 188.162 319.123L187.896 319.35L187.629 319.577C160.162 287.296 143.212 251.289 141.28 213.558L141.63 213.54ZM187.896 319.35L188.162 319.123C211.986 347.123 222.326 365.436 223.755 383.277L223.407 383.305L223.058 383.333C221.647 365.731 211.444 347.566 187.629 319.577L187.896 319.35ZM223.407 383.305L223.755 383.277C225.191 401.195 217.735 419.419 203.393 447.647L203.081 447.489L202.769 447.33C217.122 419.079 224.475 401.026 223.058 383.333L223.407 383.305ZM203.081 447.489L203.239 447.177L210.532 450.882L210.373 451.194L210.215 451.506L202.922 447.801L203.081 447.489ZM210.373 451.194L210.061 451.035C224.283 423.043 232.841 403 231.212 382.68L231.561 382.652L231.91 382.624C233.556 403.169 224.896 423.382 210.685 451.352L210.373 451.194ZM231.561 382.652L231.212 382.68C229.578 362.283 217.777 342.387 193.859 314.276L194.126 314.049L194.393 313.823C218.319 341.943 230.257 361.988 231.91 382.624L231.561 382.652ZM194.126 314.049L193.859 314.276C167.232 282.982 151.267 248.63 149.449 213.14L149.799 213.122L150.148 213.104C151.956 248.403 167.837 282.613 194.393 313.823L194.126 314.049ZM149.799 213.122L149.449 213.14C147.635 177.71 159.896 140.687 190.561 103.919L190.829 104.144L191.098 104.368C160.528 141.022 148.345 177.877 150.148 213.104L149.799 213.122ZM190.829 104.144L190.605 104.412L184.323 99.1738L184.547 98.905L184.771 98.6362L191.054 103.875L190.829 104.144Z" fill="#101828"/>
<path d="M216.651 66.4193C227.193 75.4812 227.646 92.6604 218.459 106.823C216.591 109.704 216.049 113.258 216.712 116.628C217.765 121.982 217.012 126.703 214.155 130.027C206.557 138.865 186.963 134.482 170.39 120.236C170.39 120.236 170.39 120.236 170.39 120.236L170.39 120.235C170.39 120.235 170.39 120.235 170.39 120.235C170.39 120.235 170.389 120.235 170.389 120.235L170.389 120.234C170.389 120.234 170.389 120.234 170.389 120.234C153.818 105.988 146.543 87.2753 154.14 78.4368C156.997 75.1133 161.55 73.6597 167.001 73.8967C170.432 74.0459 173.864 72.9767 176.432 70.6968C189.055 59.4879 206.109 57.3574 216.651 66.4193Z" fill="#FEE29E"/>
<path d="M216.651 66.4193L216.879 66.1539L216.879 66.1539L216.651 66.4193ZM214.155 130.027L214.42 130.255L214.42 130.255L214.155 130.027ZM154.14 78.4368L153.875 78.2087L153.875 78.2087L154.14 78.4368ZM167.001 73.8967L166.986 74.2464L167.001 73.8967ZM170.389 120.235L170.738 120.208L170.389 120.235ZM170.39 120.235L170.041 120.261L170.39 120.235ZM170.39 120.236L170.162 120.501L170.39 120.236ZM170.39 120.236L170.739 120.209L170.39 120.236ZM170.389 120.234L170.738 120.208L170.389 120.234ZM170.389 120.234L170.161 120.499L170.389 120.234ZM216.712 116.628L216.368 116.695L216.712 116.628ZM216.651 66.4193L216.423 66.6848C226.786 75.5932 227.294 92.56 218.166 106.632L218.459 106.823L218.753 107.013C227.998 92.7608 227.599 75.3692 216.879 66.1539L216.651 66.4193ZM216.712 116.628L216.368 116.695C217.41 121.987 216.653 126.584 213.889 129.799L214.155 130.027L214.42 130.255C217.372 126.822 218.121 121.978 217.055 116.56L216.712 116.628ZM214.155 130.027L213.889 129.799C210.216 134.072 203.584 135.207 195.714 133.447C187.861 131.69 178.87 127.064 170.618 119.971L170.39 120.236L170.162 120.501C178.483 127.654 187.575 132.343 195.561 134.13C203.531 135.913 210.496 134.82 214.42 130.255L214.155 130.027ZM170.39 120.236L170.739 120.209L170.739 120.209L170.39 120.235L170.041 120.261L170.041 120.262L170.39 120.236ZM170.389 120.235L170.738 120.208L170.738 120.208L170.389 120.234L170.04 120.26L170.04 120.261L170.389 120.235ZM170.389 120.234L170.617 119.968C162.366 112.875 156.443 104.681 153.528 97.1806C150.606 89.6645 150.732 82.9385 154.406 78.665L154.14 78.4368L153.875 78.2087C149.951 82.7737 149.916 89.8231 152.875 97.4343C155.84 105.061 161.84 113.346 170.161 120.499L170.389 120.234ZM154.14 78.4368L154.406 78.665C157.169 75.4508 161.599 74.0121 166.986 74.2464L167.001 73.8967L167.016 73.547C161.502 73.3072 156.826 74.7759 153.875 78.2087L154.14 78.4368ZM176.432 70.6968L176.664 70.9585C189.207 59.8209 206.059 57.7762 216.423 66.6848L216.651 66.4193L216.879 66.1539C206.159 56.9386 188.903 59.1549 176.2 70.4351L176.432 70.6968ZM167.001 73.8967L166.986 74.2464C170.497 74.399 174.021 73.3056 176.664 70.9585L176.432 70.6968L176.2 70.4351C173.708 72.6478 170.367 73.6927 167.016 73.547L167.001 73.8967ZM170.39 120.235L170.124 120.007C170.327 119.77 170.715 119.898 170.738 120.208L170.389 120.235L170.04 120.261C170.064 120.572 170.452 120.7 170.655 120.463L170.39 120.235ZM170.39 120.235L170.739 120.209C170.716 119.898 170.328 119.77 170.124 120.007L170.39 120.235L170.655 120.463C170.452 120.699 170.064 120.572 170.041 120.261L170.39 120.235ZM170.39 120.236L170.618 119.971C170.688 120.031 170.732 120.116 170.739 120.209L170.39 120.236L170.041 120.262C170.048 120.355 170.092 120.441 170.162 120.501L170.39 120.236ZM170.389 120.234L170.738 120.208C170.731 120.114 170.687 120.028 170.617 119.968L170.389 120.234L170.161 120.499C170.091 120.439 170.047 120.354 170.04 120.26L170.389 120.234ZM218.459 106.823L218.166 106.632C216.242 109.598 215.69 113.247 216.368 116.695L216.712 116.628L217.055 116.56C216.408 113.27 216.939 109.809 218.753 107.013L218.459 106.823Z" fill="#101828"/>
<ellipse opacity="0.1" cx="193.522" cy="93.3287" rx="28.1158" ry="35.4833" transform="rotate(40.6833 193.522 93.3287)" fill="#101828" stroke="#101828" stroke-width="0.7"/>
<path d="M192.691 101.118C197.917 93.6865 211.844 94.3046 224.99 102.103C227.047 103.323 229.51 103.617 231.877 103.278C235.949 102.694 239.871 103.433 243.076 105.687C251.409 111.546 251.75 125.437 243.879 136.803C243.832 136.873 243.785 136.942 243.737 137.011C243.688 137.08 243.638 137.149 243.588 137.216C235.554 148.467 222.369 152.844 214.036 146.985C210.832 144.732 208.81 141.291 207.981 137.263C207.5 134.921 206.39 132.702 204.546 131.18C192.759 121.447 187.466 108.549 192.691 101.118Z" fill="#FEE29E" stroke="#101828" stroke-width="0.7"/>
<path opacity="0.1" fill-rule="evenodd" clip-rule="evenodd" d="M224.991 102.104C213.318 95.1798 201.029 93.9165 194.763 98.9226C201.732 98.2609 210.866 101.96 218.951 109.099C220.743 110.682 223.108 111.431 225.497 111.54C229.606 111.727 233.321 113.186 236.048 115.998C243.14 123.312 240.88 137.021 231.023 146.717C230.964 146.777 230.905 146.836 230.845 146.895C230.832 146.907 230.819 146.92 230.806 146.932C230.792 146.945 230.779 146.958 230.765 146.971C230.73 147.004 230.696 147.036 230.661 147.069C230.158 147.549 229.646 148.01 229.125 148.451C234.4 146.652 239.622 142.773 243.589 137.218C243.639 137.15 243.689 137.082 243.738 137.012C243.786 136.944 243.833 136.874 243.88 136.804C251.751 125.438 251.41 111.548 243.077 105.688C239.872 103.434 235.95 102.695 231.878 103.279C229.511 103.618 227.048 103.324 224.991 102.104Z" fill="#101828" stroke="#101828" stroke-width="0.7"/>
<path d="M187.17 100.565C194.202 95.1022 193.111 81.6542 185.138 69.1059C183.55 66.6077 183.07 63.5824 183.212 60.6261C183.393 56.8644 182.435 53.3207 180.209 50.4543C173.921 42.3607 159.9 42.7327 148.89 51.2849L148.379 51.6891C137.763 60.2572 134.149 73.4575 140.338 81.4251C142.564 84.291 145.76 86.0954 149.449 86.8511C152.348 87.4451 155.16 88.6589 157.188 90.8147C167.375 101.645 180.137 106.029 187.17 100.565Z" fill="#FEE29E"/>
<path d="M187.17 100.565L187.384 100.842L187.384 100.842L187.17 100.565ZM180.209 50.4543L180.485 50.2396L180.485 50.2396L180.209 50.4543ZM148.89 51.2849L148.673 51.0104L148.675 51.0085L148.89 51.2849ZM148.379 51.6891L148.159 51.4167L148.162 51.4146L148.379 51.6891ZM140.338 81.4251L140.061 81.6398L140.061 81.6398L140.338 81.4251ZM183.212 60.6261L182.862 60.6093L183.212 60.6261ZM187.17 100.565L186.955 100.289C190.345 97.6558 191.818 93.0656 191.432 87.5169C191.046 81.9734 188.805 75.5297 184.842 69.2936L185.138 69.1059L185.433 68.9182C189.444 75.2304 191.735 81.7849 192.13 87.4683C192.525 93.1464 191.027 98.0118 187.384 100.842L187.17 100.565ZM183.212 60.6261L182.862 60.6093C183.04 56.9182 182.1 53.4599 179.932 50.669L180.209 50.4543L180.485 50.2396C182.77 53.1815 183.746 56.8107 183.562 60.6429L183.212 60.6261ZM180.209 50.4543L179.932 50.669C176.873 46.7311 171.915 44.8291 166.329 44.9773C160.744 45.1255 154.557 47.3262 149.104 51.5613L148.89 51.2849L148.675 51.0085C154.233 46.6914 160.561 44.43 166.311 44.2775C172.06 44.1251 177.257 46.0839 180.485 50.2396L180.209 50.4543ZM148.89 51.2849L149.107 51.5593L148.596 51.9635L148.379 51.6891L148.162 51.4146L148.673 51.0104L148.89 51.2849ZM148.379 51.6891L148.599 51.9614C143.342 56.2042 139.83 61.5854 138.394 66.874C136.959 72.1624 137.603 77.3337 140.614 81.2104L140.338 81.4251L140.061 81.6398C136.884 77.5489 136.241 72.1362 137.719 66.6906C139.197 61.245 142.8 55.742 148.159 51.4167L148.379 51.6891ZM140.338 81.4251L140.614 81.2104C142.782 84.0009 145.9 85.7667 149.519 86.5083L149.449 86.8511L149.379 87.194C145.621 86.4241 142.346 84.5812 140.061 81.6398L140.338 81.4251ZM157.188 90.8147L157.443 90.5749C162.506 95.957 168.195 99.7228 173.471 101.468C178.753 103.214 183.565 102.922 186.955 100.289L187.17 100.565L187.384 100.842C183.741 103.672 178.656 103.919 173.252 102.132C167.842 100.343 162.057 96.5023 156.933 91.0545L157.188 90.8147ZM149.449 86.8511L149.519 86.5083C152.462 87.1111 155.35 88.3493 157.443 90.5749L157.188 90.8147L156.933 91.0545C154.971 88.9686 152.235 87.7792 149.379 87.194L149.449 86.8511ZM185.138 69.1059L184.842 69.2936C183.204 66.7145 182.718 63.6097 182.862 60.6093L183.212 60.6261L183.562 60.6429C183.422 63.5551 183.897 66.501 185.433 68.9182L185.138 69.1059Z" fill="#101828"/>
<path d="M206.016 80.3949C217.753 90.484 219.088 108.177 208.999 119.914C198.91 131.65 181.217 132.986 169.48 122.897C157.744 112.808 156.408 95.1145 166.497 83.378C176.586 71.6414 194.28 70.3059 206.016 80.3949Z" fill="#E7A0F7" stroke="#101828" stroke-width="0.7"/>
<path opacity="0.1" fill-rule="evenodd" clip-rule="evenodd" d="M215.627 98.7992C208.606 99.2257 201.418 97.0256 195.663 92.078C189.997 87.2072 186.755 80.564 186.052 73.6744C178.756 74.1176 171.639 77.3975 166.498 83.3786C156.409 95.1152 157.744 112.808 169.481 122.898C181.217 132.987 198.911 131.651 209 119.915C214.218 113.844 216.38 106.18 215.627 98.7992Z" fill="#101828" stroke="#101828" stroke-width="0.7"/>
<path d="M203.925 103.224C213.831 101.339 224.329 111.795 228.82 127.23C229.668 130.144 231.692 132.555 234.138 134.352C237.579 136.879 239.937 140.229 240.686 144.168C242.744 154.982 231.896 166.13 216.456 169.067C201.017 172.005 186.833 165.62 184.775 154.806C184.026 150.869 184.988 146.889 187.258 143.276C188.872 140.707 189.869 137.721 189.587 134.7C188.094 118.693 194.018 105.109 203.925 103.224Z" fill="#FEE29E"/>
<path d="M203.925 103.224L203.86 102.88L203.86 102.88L203.925 103.224ZM240.686 144.168L241.03 144.102L241.03 144.102L240.686 144.168ZM216.456 169.067L216.522 169.411L216.522 169.411L216.456 169.067ZM184.775 154.806L184.431 154.871L184.431 154.871L184.775 154.806ZM228.82 127.23L228.484 127.327L228.82 127.23ZM203.925 103.224L203.991 103.567C208.793 102.654 213.784 104.723 218.159 108.983C222.532 113.24 226.252 119.656 228.484 127.327L228.82 127.23L229.156 127.132C226.897 119.369 223.123 112.839 218.647 108.481C214.174 104.125 208.963 101.909 203.86 102.88L203.925 103.224ZM234.138 134.352L233.931 134.634C237.314 137.119 239.612 140.397 240.342 144.233L240.686 144.168L241.03 144.102C240.261 140.062 237.844 136.639 234.345 134.07L234.138 134.352ZM240.686 144.168L240.342 144.233C241.344 149.497 239.211 154.878 234.882 159.327C230.553 163.775 224.049 167.266 216.391 168.723L216.456 169.067L216.522 169.411C224.303 167.93 230.943 164.379 235.383 159.815C239.823 155.253 242.086 149.652 241.03 144.102L240.686 144.168ZM216.456 169.067L216.391 168.723C208.733 170.18 201.401 169.322 195.741 166.774C190.08 164.226 186.121 160.004 185.119 154.74L184.775 154.806L184.431 154.871C185.487 160.421 189.649 164.799 195.454 167.412C201.26 170.026 208.74 170.891 216.522 169.411L216.456 169.067ZM184.775 154.806L185.119 154.74C184.389 150.906 185.322 147.014 187.554 143.462L187.258 143.276L186.961 143.09C184.653 146.763 183.663 150.833 184.431 154.871L184.775 154.806ZM189.587 134.7L189.935 134.667C189.193 126.711 190.297 119.376 192.8 113.81C195.305 108.24 199.188 104.481 203.991 103.567L203.925 103.224L203.86 102.88C198.756 103.851 194.723 107.827 192.162 113.522C189.6 119.221 188.488 126.681 189.239 134.732L189.587 134.7ZM187.258 143.276L187.554 143.462C189.197 140.848 190.226 137.786 189.935 134.667L189.587 134.7L189.239 134.732C189.511 137.656 188.548 140.565 186.961 143.09L187.258 143.276ZM228.82 127.23L228.484 127.327C229.359 130.336 231.442 132.806 233.931 134.634L234.138 134.352L234.345 134.07C231.941 132.305 229.976 129.952 229.156 127.132L228.82 127.23Z" fill="#101828"/>
<path d="M185.101 87.1735C185.712 77.1076 174.006 68.0232 158.125 65.5299C155.127 65.0592 152.478 63.3581 150.385 61.1602C147.442 58.0694 143.821 56.1571 139.82 55.9139C128.832 55.2464 119.152 67.4223 118.199 83.1098C117.246 98.7973 125.381 112.056 136.369 112.723C140.369 112.966 144.197 111.506 147.492 108.795C149.836 106.866 152.671 105.498 155.704 105.394C171.77 104.841 184.489 97.2392 185.101 87.1735Z" fill="#FEE29E"/>
<path d="M185.101 87.1735L185.45 87.1947L185.45 87.1947L185.101 87.1735ZM139.82 55.9139L139.842 55.5646L139.842 55.5646L139.82 55.9139ZM118.199 83.1098L117.849 83.0886L117.849 83.0886L118.199 83.1098ZM136.369 112.723L136.348 113.073L136.348 113.073L136.369 112.723ZM155.704 105.394L155.716 105.744L155.704 105.394ZM158.125 65.5299L158.071 65.8757L158.125 65.5299ZM150.385 61.1602L150.639 60.9188L150.385 61.1602ZM185.101 87.1735L184.751 87.1523C185.048 82.2723 182.361 77.5843 177.58 73.786C172.801 69.9898 165.964 67.1149 158.071 65.8757L158.125 65.5299L158.179 65.1842C166.167 66.4382 173.123 69.3522 178.015 73.2379C182.904 77.1216 185.765 82.0088 185.45 87.1947L185.101 87.1735ZM150.385 61.1602L150.132 61.4015C147.238 58.3627 143.696 56.5001 139.799 56.2633L139.82 55.9139L139.842 55.5646C143.946 55.814 147.646 57.7761 150.639 60.9188L150.385 61.1602ZM139.82 55.9139L139.799 56.2633C134.45 55.9383 129.384 58.7368 125.52 63.5965C121.658 68.4553 119.021 75.3502 118.548 83.1311L118.199 83.1098L117.849 83.0886C118.33 75.1819 121.01 68.1451 124.973 63.1609C128.934 58.1777 134.202 55.222 139.842 55.5646L139.82 55.9139ZM118.199 83.1098L118.548 83.131C118.075 90.9118 119.858 98.0753 123.104 103.366C126.351 108.658 131.041 112.049 136.39 112.374L136.369 112.723L136.348 113.073C130.709 112.73 125.837 109.158 122.508 103.732C119.178 98.3047 117.369 90.9953 117.849 83.0886L118.199 83.1098ZM136.369 112.723L136.39 112.374C140.287 112.611 144.03 111.191 147.27 108.524L147.492 108.795L147.715 109.065C144.364 111.822 140.452 113.322 136.348 113.073L136.369 112.723ZM155.704 105.394L155.692 105.044C163.677 104.769 170.811 102.743 176.015 99.5527C181.221 96.3607 184.455 92.0321 184.751 87.1522L185.101 87.1735L185.45 87.1947C185.135 92.3805 181.704 96.8858 176.381 100.149C171.055 103.415 163.797 105.466 155.716 105.744L155.704 105.394ZM147.492 108.795L147.27 108.524C149.654 106.563 152.561 105.152 155.692 105.044L155.704 105.394L155.716 105.744C152.781 105.845 150.017 107.17 147.715 109.065L147.492 108.795ZM158.125 65.5299L158.071 65.8757C154.975 65.3898 152.261 63.6376 150.132 61.4015L150.385 61.1602L150.639 60.9188C152.695 63.0785 155.278 64.7287 158.179 65.1842L158.125 65.5299Z" fill="#101828"/>
<path d="M195.25 94.6911C205.792 103.753 206.245 120.932 197.058 135.095C195.19 137.976 194.648 141.53 195.311 144.899C196.363 150.253 195.61 154.973 192.752 158.297C185.154 167.135 165.562 162.752 148.99 148.507C148.989 148.506 148.989 148.506 148.988 148.506C148.988 148.506 148.988 148.506 148.987 148.506C132.415 134.26 125.141 115.546 132.738 106.707C135.595 103.383 140.15 101.929 145.602 102.167C149.032 102.316 152.465 101.247 155.033 98.9672C167.656 87.7594 184.709 85.6294 195.25 94.6911Z" fill="#FEE29E"/>
<path d="M195.25 94.6911L195.478 94.4257L195.478 94.4257L195.25 94.6911ZM192.752 158.297L193.018 158.525L193.018 158.525L192.752 158.297ZM132.738 106.707L132.473 106.479L132.473 106.479L132.738 106.707ZM148.987 148.506L148.759 148.771L148.987 148.506ZM148.99 148.507L148.761 148.772L148.99 148.507ZM197.058 135.095L196.765 134.904L197.058 135.095ZM195.25 94.6911L195.022 94.9565C205.385 103.865 205.893 120.832 196.765 134.904L197.058 135.095L197.352 135.285C206.597 121.033 206.198 103.641 195.478 94.4257L195.25 94.6911ZM195.311 144.899L194.967 144.967C196.008 150.258 195.25 154.855 192.487 158.069L192.752 158.297L193.018 158.525C195.969 155.092 196.719 150.249 195.654 144.832L195.311 144.899ZM192.752 158.297L192.487 158.069C188.813 162.342 182.182 163.477 174.313 161.717C166.46 159.96 157.469 155.334 149.218 148.241L148.99 148.507L148.761 148.772C157.082 155.925 166.174 160.613 174.16 162.4C182.129 164.183 189.093 163.09 193.018 158.525L192.752 158.297ZM148.987 148.506L149.215 148.24C140.964 141.147 135.041 132.953 132.125 125.452C129.203 117.936 129.33 111.209 133.004 106.935L132.738 106.707L132.473 106.479C128.549 111.044 128.514 118.094 131.473 125.706C134.438 133.333 140.438 141.618 148.759 148.771L148.987 148.506ZM132.738 106.707L133.004 106.935C135.767 103.721 140.199 102.282 145.586 102.516L145.602 102.167L145.617 101.817C140.101 101.577 135.424 103.046 132.473 106.479L132.738 106.707ZM155.033 98.9672L155.265 99.2289C167.808 88.0924 184.659 86.0482 195.022 94.9565L195.25 94.6911L195.478 94.4257C184.758 85.2106 167.504 87.4264 154.8 98.7055L155.033 98.9672ZM148.988 148.506L148.962 148.157C149.055 148.15 149.146 148.181 149.215 148.24L148.987 148.506L148.759 148.771C148.829 148.832 148.921 148.862 149.015 148.855L148.988 148.506ZM148.99 148.507L149.218 148.241C149.148 148.181 149.056 148.15 148.962 148.157L148.988 148.506L149.015 148.855C148.922 148.862 148.831 148.832 148.761 148.772L148.99 148.507ZM145.602 102.167L145.586 102.516C149.097 102.669 152.622 101.576 155.265 99.2289L155.033 98.9672L154.8 98.7055C152.308 100.918 148.967 101.963 145.617 101.817L145.602 102.167ZM197.058 135.095L196.765 134.904C194.841 137.87 194.289 141.519 194.967 144.967L195.311 144.899L195.654 144.832C195.007 141.541 195.538 138.081 197.352 135.285L197.058 135.095Z" fill="#101828"/>
<g opacity="0.1">
<path fill-rule="evenodd" clip-rule="evenodd" d="M229.073 128.124C224.734 112.202 214.024 101.304 203.928 103.225C202.801 103.439 201.726 103.805 200.708 104.308C208.199 107.292 215.056 116.419 218.317 128.382C218.962 130.748 220.586 132.713 222.623 134.078C226.476 136.658 229.127 140.205 229.93 144.426C231.988 155.24 221.138 166.388 205.699 169.326L205.692 169.327C205.322 169.397 204.953 169.462 204.585 169.522C208.313 169.97 212.336 169.85 216.449 169.068C216.447 169.068 216.449 169.068 216.449 169.068C216.45 169.068 216.457 169.067 216.457 169.067C231.896 166.13 242.744 154.982 240.687 144.168C239.883 139.946 237.232 136.4 233.379 133.819C231.342 132.455 229.718 130.489 229.073 128.124Z" fill="#101828"/>
<path d="M216.449 169.068C212.336 169.85 208.313 169.97 204.585 169.522C204.953 169.462 205.322 169.397 205.692 169.327L205.699 169.326C221.138 166.388 231.988 155.24 229.93 144.426C229.127 140.205 226.476 136.658 222.623 134.078C220.586 132.713 218.962 130.748 218.317 128.382C215.056 116.419 208.199 107.292 200.708 104.308C201.726 103.805 202.801 103.439 203.928 103.225C214.024 101.304 224.734 112.202 229.073 128.124C229.718 130.489 231.342 132.455 233.379 133.819C237.232 136.4 239.883 139.946 240.687 144.168C242.744 154.982 231.896 166.13 216.457 169.067C216.457 169.067 216.45 169.068 216.449 169.068ZM216.449 169.068C216.449 169.068 216.447 169.068 216.449 169.068ZM216.455 169.067V169.067Z" stroke="#101828" stroke-width="0.7"/>
</g>
<path d="M195.251 94.6906C206.015 103.943 206.262 121.66 196.469 135.986C194.903 138.276 194.448 141.157 195.086 143.857C196.453 149.64 195.796 154.76 192.754 158.298C185.156 167.137 165.562 162.753 148.989 148.507C132.417 134.261 125.142 115.547 132.74 106.708C135.781 103.17 140.744 101.751 146.666 102.235C149.431 102.46 152.211 101.578 154.24 99.686C166.934 87.8526 184.488 85.438 195.251 94.6906Z" fill="#FEE29E" stroke="#101828" stroke-width="0.7"/>
<path opacity="0.1" fill-rule="evenodd" clip-rule="evenodd" d="M193.015 92.9972C200.655 102.754 199.926 118.275 191.169 131.086C189.603 133.376 189.148 136.257 189.786 138.957C191.154 144.739 190.496 149.859 187.454 153.397C179.961 162.114 160.802 157.971 144.379 144.191C145.822 145.663 147.36 147.106 148.988 148.506C165.561 162.752 185.155 167.135 192.753 158.297C195.794 154.759 196.452 149.639 195.085 143.856C194.446 141.156 194.902 138.275 196.467 135.985C206.261 121.659 206.013 103.942 195.25 94.6894C194.534 94.074 193.788 93.5101 193.015 92.9972Z" fill="#101828" stroke="#101828" stroke-width="0.7"/>
<path d="M202.417 244.424C200.812 284.941 192.396 319.619 193.075 319.443C193.075 319.443 170.847 292.694 172.449 252.188C174.055 211.671 182.47 176.993 181.792 177.168C182.476 176.991 204.019 203.917 202.417 244.424Z" fill="#00A47B"/>
<path d="M193.075 319.443C193.271 317.492 200.812 284.941 202.417 244.424C204.019 203.917 182.476 176.991 181.792 177.168C182.47 176.993 174.055 211.671 172.449 252.188C171.339 280.244 181.662 301.7 188.112 312.239" stroke="#101828" stroke-width="0.7"/>
<path d="M181.8 177.174C181.8 177.174 189.668 202.856 187.191 238.967C185.309 266.407 189.476 298.303 191.586 312.037" stroke="#101828" stroke-width="0.7"/>
<path d="M105.013 285.167C106.047 287.047 107.053 288.976 108.032 290.951C105.311 290.367 101.516 289.719 98.4341 289.812C90.9571 290.039 89.4086 294.318 90.2103 297.395C90.8608 299.899 93.7893 303.132 98.9652 301.056C99.6323 300.789 100.336 300.438 101.078 299.981C103.909 298.244 107.185 295.591 109.313 293.781C109.338 293.763 109.355 293.743 109.375 293.723C110.365 295.809 111.324 297.93 112.253 300.078C112.242 300.135 112.234 300.191 112.23 300.25C109.454 300.494 105.599 300.997 102.66 302.008C101.337 302.461 100.254 302.99 99.3757 303.569C95.5618 306.073 95.6616 309.493 97.0102 311.692C97.7604 312.913 99.2389 314.138 101.144 314.392C103.129 314.664 105.579 313.883 108.15 310.952C110.1 308.732 112.172 305.724 113.666 303.424C118.267 314.542 122.045 326.074 124.957 336.077C125.351 337.427 125.73 338.75 126.09 340.037C126.317 340.843 126.536 341.643 126.754 342.437C130.93 357.657 133.558 370.477 134.605 375.884L137.254 375.452C136.155 369.762 133.283 355.741 128.682 339.333C128.599 339.031 128.511 338.727 128.424 338.419C127.796 336.199 127.122 333.883 126.403 331.503C123.638 322.36 120.206 312.217 116.137 302.373C118.406 302.715 121.02 303.021 123.228 303.051C126.35 303.096 128.318 302.179 129.479 300.896C131.008 299.204 131.137 296.877 130.663 295.285C130.37 294.299 129.813 293.327 128.986 292.592C127.263 291.058 124.369 290.533 120.23 292.984C118.159 294.21 115.956 296.108 114.185 297.792C113.356 295.906 112.501 294.041 111.626 292.204C114.116 291.817 117.258 291.236 119.759 290.454C120.93 290.088 121.892 289.632 122.669 289.118C126.462 286.614 125.942 282.68 124.642 280.655C122.937 278 118.913 276.283 114.119 281.678C112.48 283.526 110.9 286.076 109.688 288.268C108.825 286.569 107.941 284.904 107.036 283.277C109.317 281.921 112.635 279.834 115.035 277.832C120.637 273.161 118.447 268.417 116.161 266.724C113.678 264.882 109.378 264.81 106.818 271.739C105.934 274.134 105.355 277.186 104.989 279.736C104.119 278.282 103.229 276.868 102.322 275.499C101.599 272.783 100.422 268.74 99.0916 265.696C96.025 258.662 90.9169 259.633 88.7138 261.528C86.3161 263.585 85.1625 267.992 91.1662 272.503C93.8328 274.507 97.6696 276.286 100.261 277.37C100.293 277.382 100.325 277.391 100.358 277.402C101.086 278.51 101.802 279.644 102.505 280.807C100.504 279.588 98.1908 278.332 96.0857 277.579C89.0319 275.048 86.0405 278.467 85.6784 281.62C85.3399 284.522 87.3791 289.346 94.8792 288.011C98.1436 287.43 102.156 286.161 104.793 285.261C104.871 285.235 104.944 285.202 105.013 285.167Z" fill="#89DDC8" stroke="#101828" stroke-width="0.7" stroke-miterlimit="10"/>
<path d="M97.1551 45.0498L96.9959 51.8352C96.6841 65.123 107.538 75.9767 120.826 75.6649L127.611 75.5057L120.826 75.3465C107.538 75.0347 96.6841 85.8884 96.9959 99.1762L97.1551 105.962L97.3143 99.1762C97.6261 85.8884 86.7724 75.0347 73.4846 75.3465L66.6992 75.5057L73.4846 75.6649C86.7724 75.9767 97.6261 65.123 97.3143 51.8352L97.1551 45.0498Z" fill="white" stroke="#101828" stroke-width="0.7"/>
<path d="M306.855 101.521L306.767 105.267C306.595 112.603 312.587 118.595 319.923 118.423L323.669 118.335L319.923 118.247C312.587 118.075 306.595 124.067 306.767 131.403L306.855 135.149L306.943 131.403C307.115 124.067 301.123 118.075 293.787 118.247L290.041 118.335L293.787 118.423C301.123 118.595 307.115 112.603 306.943 105.267L306.855 101.521Z" fill="white" stroke="#101828" stroke-width="0.7"/>
</svg>
