<?xml version="1.0" encoding="UTF-8"?>
<!DOCTYPE svg PUBLIC "-//W3C//DTD SVG 1.1//EN" "http://www.w3.org/Graphics/SVG/1.1/DTD/svg11.dtd">
<!-- Creator: CorelDRAW 2021.5 -->
<svg xmlns="http://www.w3.org/2000/svg" xml:space="preserve" width="7.4302in" height="1.14378in" version="1.1" style="shape-rendering:geometricPrecision; text-rendering:geometricPrecision; image-rendering:optimizeQuality; fill-rule:evenodd; clip-rule:evenodd"
viewBox="0 0 7430.2 1143.78"
 xmlns:xlink="http://www.w3.org/1999/xlink"
 xmlns:xodm="http://www.corel.com/coreldraw/odm/2003">
 <defs>
  <style type="text/css">
   <![CDATA[
    .fil1 {fill:#0063A6;fill-rule:nonzero}
    .fil0 {fill:#231F20;fill-rule:nonzero}
    .fil3 {fill:#E31837;fill-rule:nonzero}
    .fil2 {fill:white;fill-rule:nonzero}
   ]]>
  </style>
 </defs>
 <g id="Layer_x0020_1">
  <metadata id="CorelCorpID_0Corel-Layer"/>
  <g id="_2331609167600">
   <path class="fil0" d="M454.12 0c0,0 -102.54,41.7 -126.89,55.61 -24.33,13.9 -114.73,67.79 -118.21,76.5 -3.46,8.67 0,144.27 -1.74,156.44 -1.72,12.17 -5.16,32.13 -6.9,44.3 -1.75,12.16 6.9,30.43 3.43,46.09 -3.47,15.65 -5.22,57.37 -3.47,74.74 1.74,17.38 -7.85,24.3 -6.12,34.71 1.75,10.44 -0.85,24.39 -0.85,24.39 0,0 -38.22,20.85 -57.35,33.02 -19.13,12.18 -52.16,24.33 -67.8,36.51 -15.63,12.16 -57.36,22.6 -57.36,33.03 0,10.41 -1.74,52.14 -3.48,73.01 -1.72,20.86 0,252.04 0,252.04 0,0 -6.94,5.22 -6.94,12.18 0,6.94 -1.74,133.86 1.74,165.15 1.09,9.77 53.89,6.94 79.96,13.9 11.88,3.17 76.48,-8.69 100.81,-6.96 24.33,1.74 112.99,8.69 146.02,10.44 33.03,1.74 125.15,1.74 142.53,1.74 17.39,0 83.45,6.94 83.45,6.94 0,0 60.85,-53.88 88.65,-78.22 27.81,-24.35 97.35,-83.43 100.82,-92.14 3.48,-8.67 3.48,-12.16 0,-20.85 -3.47,-8.69 -1.74,-248.57 0,-271.19 1.75,-22.6 60.85,-57.35 73.01,-64.3 12.17,-6.94 79.95,-43.45 79.95,-50.42 0,-6.94 13.92,-165.13 8.7,-199.9 -5.22,-34.76 0,-208.59 -1.73,-225.98 -1.75,-17.38 0,-73 -6.97,-86.91 -6.94,-13.91 -3.46,-22.6 -3.46,-22.6 0,0 -90.41,1.75 -111.27,-1.74 -20.85,-3.47 -116.45,-8.69 -142.54,-15.65 -26.07,-6.96 -186,-13.89 -186,-13.89z"/>
   <path class="fil1" d="M302.9 173.81c0,0 -19.12,-13.9 -22.6,8.69 -3.48,22.6 -8.69,45.2 -5.22,60.84 3.48,15.65 8.69,39.98 6.96,66.06 -1.74,26.07 6.95,34.76 1.74,55.62 -5.21,20.86 -19.12,43.46 -17.38,78.22 1.74,34.77 -5.22,83.44 1.74,92.13 6.95,8.69 -6.95,41.72 5.22,45.2 12.17,3.47 24.33,-1.74 52.15,8.69 27.81,10.43 93.87,17.38 104.3,13.91 10.43,-3.48 88.65,-15.64 144.28,-5.21 55.63,10.43 99.08,10.43 104.3,5.21 5.22,-5.21 8.69,-40.85 5.22,-62.57 -3.47,-21.71 -15.65,-112.99 -15.65,-131.24 0,-7.61 2.87,-26.33 6.95,-53.89 3.61,-24.33 10.43,-48.13 10.43,-53.02 0,-10.43 2.35,-34.46 -3.48,-53.88 -5.21,-17.39 -1.74,-18.26 -6.95,-33.03 -2.33,-6.61 -23.47,-16.52 -26.94,-15.64 -3.48,0.87 -20.86,-5.22 -30.43,-5.22 -9.56,0 -60.84,-4.34 -72.13,-1.74 -11.3,2.61 -59.97,5.22 -66.06,3.48 -6.08,-1.74 -31.28,-13.04 -61.71,-8.69 -30.42,4.35 -49.54,-0.87 -64.31,-3.48 -14.78,-2.6 -50.41,-10.43 -50.41,-10.43z"/>
   <path class="fil2" d="M462.82 208.58l-135.59 69.53 -1.74 92.13c0,0 42.59,1.74 56.5,-1.74 18.11,-4.53 37.37,-6.08 37.37,-6.08 0,0 1.74,36.5 -6.09,64.31 -4.73,16.81 -7.61,40.13 -13.91,79.09 -6.16,38.11 -4.7,65.4 -4.7,65.4 0,0 29.49,11.02 37.16,12.46 7.67,1.44 21.58,6.23 35.49,-3.11 13.91,-9.35 20.71,-3.48 28.53,-3.48 26.26,0 12.17,2.61 12.17,2.61 0,0 6.94,-33.74 10.43,-67.79 1.84,-17.91 0.84,-37.67 1.38,-48.82 2.1,-43.31 -0.51,-90.24 -0.51,-90.24l5.21 3.47 16.52 0.87 27.81 12.17 29.85 14.99 -0.3 -76.7c0,0 -5.51,-2.53 -4.34,-13.04 0.87,-7.82 -55.78,-43.09 -77.36,-60.12 -21.58,-17.02 -53.89,-45.92 -53.89,-45.92z"/>
   <path class="fil2" d="M483.68 63.46c0,0 -41.72,7.14 -69.53,27.28 -27.81,20.14 -69.53,24.7 -38.6,27.81 30.93,3.12 43.16,10.79 87.99,17.02 44.83,6.23 86.56,-1.74 103.58,-1.74 17.02,0 34.76,5.58 57.36,8.69 12.34,1.7 36.86,0.72 36.86,0.72 0,0 3.12,-13.91 27.81,-21.58 24.7,-7.67 47.66,-18.76 57,-29.55 9.35,-10.79 -4.2,-13.19 -20.86,-15.65 -30.52,-4.51 -26.69,-11.46 -68.51,-10.43 -70.55,1.74 -173.11,-2.58 -173.11,-2.58z"/>
   <path class="fil2" d="M836.55 137.31c0,0 -59.1,31.29 -71.27,41.72 -12.17,10.43 -24.33,17.39 -24.33,17.39 0,0 -5.22,15.64 -1.74,24.33 3.48,8.69 5.26,12.97 3.52,19.93 -1.74,6.95 -1.74,22.59 -1.74,22.59 0,0 -8.73,2.67 -7,13.1 1.74,10.43 8.69,22.6 8.69,31.29 0,8.69 5.21,33.03 5.21,48.67 0,15.65 0,203.39 0,203.39l-6.95 8.69 10.43 8.69c0,0 15.64,-17.38 26.07,-22.6 10.43,-5.21 19.12,-17.38 31.29,-20.86 12.17,-3.47 34.77,-17.38 34.77,-17.38 0,0 6.91,-46.93 -1.74,-86.91 -2.24,-10.33 -1.74,-20.86 -1.74,-39.98 0,-19.12 1.74,-55.63 3.48,-67.8 1.74,-12.17 0,-39.98 0,-39.98 0,0 13.91,-46.93 15.64,-66.06 1.74,-19.12 0,-46.93 -1.74,-53.89 -1.74,-6.96 0,-22.6 0,-22.6l-20.86 -1.74z"/>
   <path class="fil2" d="M589.72 664.01l38.24 -10.43 26.07 1.74c0,0 0,10.43 1.74,19.12 1.74,8.69 6.96,57.37 5.22,67.79 -1.74,10.43 -5.22,17.39 0,26.08 5.21,8.69 6.95,41.72 5.21,57.36 -1.74,15.65 -1.74,34.76 0,50.41 1.74,15.65 1.74,31.29 3.48,48.67 1.74,17.39 -1.74,33.03 -1.74,33.03 0,0 -17.38,34.77 -34.76,46.93 -17.39,12.17 -29.55,20.86 -39.98,27.81 -10.43,6.96 -22.59,-1.74 -22.59,-1.74 0,0 -0.89,-138.75 3.48,-161.66 2.83,-14.88 0.87,-48.67 6.08,-49.54 0.54,-14.04 -0.55,-30.59 0,-42.59 6.95,-0.87 4.84,-18.93 4.35,-26.07 -0.54,-7.76 0,-22.6 3.47,-36.5 1.6,-23.62 1.74,-50.41 1.74,-50.41z"/>
   <path class="fil2" d="M421.32 665.32c0,0 -53.24,-4.78 -64.54,-4.35 -11.3,0.43 -26.94,-3.48 -33.24,-5.87 -5.14,-1.95 -12.82,-0.22 -23.69,1.09 -10.86,1.3 -16.08,0.43 -19.99,-0.44 -3.91,-0.87 -16.3,-6.08 -18.47,-5.65 -2.17,0.43 -2.39,1.74 -7.17,1.74 -4.78,0 -8.26,-1.74 -13.04,0.87 -4.78,2.61 -8.69,7.83 -18.68,8.26 -10,0.43 -28.69,-3.91 -35.2,-5.65 -6.52,-1.74 -15.21,-8.69 -21.29,-8.26 -6.09,0.43 -2.61,16.08 -3.48,22.17 -0.87,6.08 -7.39,12.17 -8.26,16.51 -0.87,4.35 4.35,43.46 1.74,46.07 -2.61,2.61 -5.22,35.2 -10.87,46.5 -5.65,11.3 -11.73,45.2 -9.99,52.59 1.74,7.39 -0.87,57.8 3.47,62.14 4.35,4.35 3.92,32.59 3.92,44.33 0,11.73 0,51.71 -0.44,57.36 -0.43,5.65 -5.21,14.34 -4.78,18.25 0.44,3.91 0.44,19.12 -0.87,21.3 -1.3,2.17 -4.35,23.03 -2.18,24.77 2.18,1.74 14.35,10.86 28.25,15.21 13.91,4.35 75.62,0.87 77.79,-0.87 2.17,-1.74 21.29,-7.39 25.2,-6.09 3.91,1.31 22.16,5.22 27.38,4.78 5.22,-0.43 22.16,6.96 26.07,5.65 3.91,-1.3 14.45,-1.3 18.8,-2.6 4.35,-1.3 25.96,1.3 34.66,0.43 8.69,-0.87 22.16,-5.65 26.07,-5.65 3.91,0 5.65,0.43 13.04,1.3 7.39,0.87 -6.95,-8.69 -8.26,-13.91 -1.3,-5.22 -7.39,-29.99 -3.91,-37.81 3.48,-7.82 8.26,-26.51 8.69,-33.02 0.43,-6.52 -3.91,-68.67 -1.3,-77.79 2.61,-9.13 2.17,-60.41 8.26,-71.7 6.08,-11.3 6.95,-66.06 8.26,-75.62 1.3,-9.56 1.3,-57.37 2.61,-67.8 1.3,-10.43 -4.56,-28.24 -4.56,-28.24z"/>
   <path class="fil3" d="M166.44 647.07c0,0 -21.3,0.43 -30.85,0 -3.28,-0.15 -5.38,-0.92 -8.69,-2.61 -12.6,0 -18.44,-6.33 -20.61,-6.33 -3.48,0 -12.85,-0.19 -16.33,5.03 -3.48,5.21 1.3,10.43 -1.31,12.6 -2.6,2.17 -3.04,1.74 -3.47,16.52 -0.43,14.78 0.43,54.32 -2.61,57.36 -3.04,3.04 -4.78,9.13 -5.65,23.03 -0.87,13.91 4.78,19.56 3.48,27.81 -1.31,8.26 3.04,11.3 4.35,18.25 1.3,6.95 -0.44,43.02 -4.78,49.11 -4.35,6.08 -3.48,19.56 -5.22,28.24 -1.74,8.69 -3.48,7.39 -3.48,14.78 0,7.39 -1.3,46.94 0,66.93 1.3,19.99 1.3,44.33 -2.61,45.63 -3.91,1.3 -3.91,0.87 -3.47,11.3 0.43,10.43 0.87,26.51 0.87,29.55 0,3.04 -3.04,-3.48 -3.48,3.04 -0.43,6.52 1.3,5.65 10,5.21 8.69,-0.43 34.33,-3.47 37.37,-0.87 3.04,2.61 17.82,3.48 21.29,7.39 3.48,3.91 8.04,3.04 8.04,3.04 0,0 -1.52,-9.56 2.39,-17.38 3.91,-7.82 3.04,-25.64 3.04,-29.12 0,-3.48 4.34,-3.04 4.34,-7.82 0,-4.78 0,-80.83 0,-93 0,-12.17 0,-27.81 -0.87,-31.29 -0.87,-3.47 -3.48,-0.87 -4.78,-4.35 -1.31,-3.48 0.43,-42.15 0.87,-46.93 0.43,-4.78 3.91,-24.77 3.91,-28.25 0,-3.48 4.89,-39.27 7.5,-39.7 2.61,-0.44 1.35,-17.63 5.26,-25.89 3.91,-8.25 -2.33,-46.52 0.71,-50.86 3.04,-4.35 6.95,-9.13 6.52,-15.65 -0.43,-6.52 -1.74,-24.77 -1.74,-24.77z"/>
   <path class="fil3" d="M421.1 664.89c0,0 -7.82,100.82 -9.56,123.42 -1.74,22.59 -13.04,98.21 -11.3,132.98 1.74,34.76 1.74,69.53 -5.21,85.17 -4.52,10.17 -1.74,57.37 3.47,60.84 13.72,9.15 29.55,6.96 45.2,6.96 15.65,0 43.46,3.47 43.46,3.47 0,0 1.98,-33.64 4.35,-73.05 -0.87,-62.53 1.73,-125.11 4.34,-139.02 1.65,-8.8 4.9,-34.07 7.82,-73 2.69,-35.8 7.82,-68.23 7.82,-78.22 0,-20.86 0.87,-40.85 0.87,-40.85 0,0 -15.64,0.87 -20.86,-4.34 -5.11,-0.45 -18.56,0.87 -21.73,0.87 -7.6,0 -26.72,1.32 -39.54,-0.43 -6.52,-5.22 -9.13,-4.78 -9.13,-4.78z"/>
   <path class="fil3" d="M261.18 650.11c0,0 14.78,-1.74 14.78,1.74 0,3.48 8.69,5.21 13.9,4.35 5.22,-0.87 32.16,-3.48 34.77,-0.87 2.61,2.61 3.48,13.04 6.95,19.12 3.48,6.08 0.57,31.55 1.74,44.32 1.74,19.12 -6.95,51.89 -6.95,65.19 0,19.12 0.87,17.38 0.87,33.9 0,12.92 6.08,26.07 6.08,49.54 0,27.94 -3.48,44.33 -6.08,61.71 -2.61,17.39 -2.61,23.47 -2.61,64.32 0,40.85 11.67,38.21 13.91,69.53 0.87,12.17 -0.87,12.17 -0.87,12.17 0,0 -6.95,5.21 -17.38,5.21 -10.43,0 -11.3,-6.08 -32.16,-6.08 -20.86,0 -27.81,-5.22 -33.9,-3.48 -6.08,1.74 -16.51,3.48 -16.51,3.48 0,0 3.47,-10.43 0.87,-16.52 -2.61,-6.08 0.87,-74.75 -2.61,-78.22 -3.48,-3.47 -7.82,-13.9 -6.08,-64.31 1.74,-50.41 5.21,-88.65 5.21,-95.61 0,-6.95 3.48,-59.1 10.43,-89.52 7.02,-30.7 15.65,-79.96 15.65,-79.96z"/>
   <path class="fil0" d="M1000.5 36.24c10.29,0 20.15,2.57 29.59,7.72 9.46,5.13 16.89,12.51 22.29,22.1 5.4,9.6 8.1,19.65 8.1,30.15 0,10.45 -2.65,20.39 -7.94,29.88 -5.32,9.46 -12.7,16.84 -22.16,22.16 -9.49,5.29 -19.43,7.94 -29.88,7.94 -10.44,0 -20.39,-2.65 -29.88,-7.94 -9.46,-5.32 -16.84,-12.7 -22.16,-22.16 -5.29,-9.49 -7.93,-19.43 -7.93,-29.88 0,-10.5 2.7,-20.55 8.09,-30.15 5.4,-9.59 12.83,-16.97 22.29,-22.1 9.44,-5.16 19.3,-7.72 29.58,-7.72zm0.06 11.87c-8.26,0 -16.17,2.06 -23.73,6.17 -7.56,4.11 -13.52,10.02 -17.88,17.74 -4.35,7.7 -6.55,15.8 -6.55,24.21 0,8.39 2.14,16.41 6.39,24 4.25,7.61 10.18,13.55 17.8,17.83 7.62,4.28 15.61,6.41 23.97,6.41 8.39,0 16.39,-2.13 23.98,-6.41 7.61,-4.28 13.55,-10.21 17.83,-17.83 4.28,-7.59 6.41,-15.61 6.41,-24 0,-8.42 -2.19,-16.52 -6.55,-24.21 -4.36,-7.72 -10.32,-13.63 -17.91,-17.74 -7.61,-4.12 -15.52,-6.17 -23.76,-6.17zm-27.15 80.18l0 -63.5 12.88 0c12.08,0 18.87,0.06 20.31,0.16 4.27,0.35 7.59,1.2 9.97,2.54 2.35,1.31 4.33,3.34 5.93,6.09 1.57,2.72 2.38,5.77 2.38,9.09 0,4.6 -1.5,8.5 -4.49,11.76 -2.99,3.26 -7.19,5.26 -12.59,6.07 1.93,0.72 3.42,1.52 4.46,2.38 1.04,0.85 2.48,2.48 4.3,4.87 0.48,0.64 2.03,3.2 4.7,7.75l7.46 12.8 -16.04 0 -5.26 -10.35c-3.56,-6.92 -6.5,-11.3 -8.82,-13.09 -2.35,-1.79 -5.29,-2.7 -8.87,-2.7l-3.34 0 0 26.14 -12.99 0zm12.99 -36.24l5.21 0c7.43,0 12.06,-0.29 13.84,-0.85 1.79,-0.56 3.21,-1.55 4.25,-2.96 1.04,-1.42 1.55,-3.02 1.55,-4.84 0,-1.74 -0.51,-3.31 -1.52,-4.68 -1.02,-1.36 -2.46,-2.35 -4.33,-2.94 -1.87,-0.59 -6.47,-0.88 -13.79,-0.88l-5.21 0 0 17.15z"/>
   <g>
    <path class="fil1" d="M1141.85 923.06l147.61 0 0 -289.58 271.72 0 0 289.58 147.61 0 0 -671.3 -147.61 0 0 257.61 -271.72 0 0 -257.61 -147.61 0 0 671.3zm1150.35 -210.61c9.41,-149.49 -70.51,-288.64 -235.99,-288.64 -147.61,0 -248.21,110.94 -248.21,256.67 0,150.43 94.96,255.73 248.21,255.73 110,0 189.92,-48.89 227.53,-163.59l-117.53 0c-8.46,30.09 -51.7,62.99 -105.3,62.99 -74.28,0 -115.64,-38.55 -119.41,-123.17l350.69 0zm-350.69 -84.61c1.88,-37.61 26.33,-103.43 110.94,-103.43 64.88,0 94.02,35.73 106.24,103.43l-217.19 0zm739.49 107.18c0,29.15 -3.76,111.89 -108.12,111.89 -43.25,0 -81.8,-12.22 -81.8,-62.06 0,-48.89 37.61,-62.99 78.98,-71.45 41.37,-7.52 88.38,-8.46 110.94,-28.2l0 49.83zm-174.88 -148.55c4.7,-52.65 37.61,-73.33 88.38,-73.33 47.01,0 86.5,8.46 86.5,65.81 0,54.53 -76.16,51.71 -157.95,63.93 -82.74,11.28 -165.48,37.61 -165.48,147.61 0,99.66 73.33,145.73 165.48,145.73 59.23,0 121.28,-15.98 163.59,-60.17 0.94,15.98 4.7,31.96 9.4,47.01l135.39 0c-12.22,-19.74 -16.92,-63.93 -16.92,-108.12l0 -252.91c0,-116.58 -116.59,-138.21 -213.43,-138.21 -109.06,0 -220.94,37.61 -228.46,162.65l133.5 0zm765.82 336.59l126.93 0 0 -671.3 -133.51 0 0 244.45 -1.88 0c-30.09,-47.95 -86.5,-72.39 -143.85,-72.39 -142.91,0 -215.3,121.28 -215.3,251.98 0,134.44 71.45,260.43 218.13,260.43 62.05,0 116.59,-22.56 147.61,-75.21l1.88 0 0 62.05zm-1.88 -244.45c0,79.92 -26.33,157.02 -114.7,157.02 -82.74,0 -117.52,-79.91 -117.52,-156.07 0,-79.92 30.09,-155.14 117.52,-155.14 86.5,0 114.7,75.22 114.7,154.19z"/>
    <path class="fil3" d="M3478.34 700.23c-1.88,165.48 137.27,238.81 285.82,238.81 182.4,0 279.24,-92.14 279.24,-215.31 0,-152.31 -150.43,-183.34 -199.32,-195.56 -168.29,-43.25 -200.26,-49.83 -200.26,-101.54 0,-56.41 54.54,-76.15 101.54,-76.15 70.52,0 127.87,20.68 132.57,101.54l142.91 0c0,-155.13 -128.81,-216.25 -268.9,-216.25 -121.29,0 -251.03,65.82 -251.03,203.08 0,125.99 100.6,164.54 200.26,190.87 98.72,26.32 199.32,38.55 199.32,110.94 0,68.63 -78.98,83.68 -130.69,83.68 -78.97,0 -148.55,-34.78 -148.55,-124.11l-142.91 0zm814.71 -408.99l-133.51 0 0 145.73 -80.85 0 0 89.32 80.85 0 0 286.76c0,96.84 71.45,115.65 153.25,115.65 26.33,0 55.47,-0.94 78.04,-4.7l0 -104.36c-14.1,2.82 -27.26,3.76 -41.37,3.76 -45.13,0 -56.41,-11.28 -56.41,-56.41l0 -240.69 97.78 0 0 -89.32 -97.78 0 0 -145.73zm471.53 443.78c0,29.15 -3.76,111.89 -108.12,111.89 -43.25,0 -81.8,-12.22 -81.8,-62.06 0,-48.89 37.61,-62.99 78.98,-71.45 41.37,-7.52 88.38,-8.46 110.94,-28.2l0 49.83zm-174.87 -148.55c4.7,-52.65 37.61,-73.33 88.38,-73.33 47.01,0 86.5,8.46 86.5,65.81 0,54.53 -76.15,51.71 -157.95,63.93 -82.74,11.28 -165.47,37.61 -165.47,147.61 0,99.66 73.33,145.73 165.47,145.73 59.23,0 121.28,-15.98 163.59,-60.17 0.94,15.98 4.7,31.96 9.41,47.01l135.39 0c-12.22,-19.74 -16.92,-63.93 -16.92,-108.12l0 -252.91c0,-116.58 -116.59,-138.21 -213.43,-138.21 -109.06,0 -220.94,37.61 -228.46,162.65l133.5 0zm418.89 336.59l133.51 0 0 -219.06c0,-85.56 33.85,-156.07 131.63,-156.07 9.68,0 20.73,0.69 30.66,1.86l0 -125.13c-4.05,-0.54 -8.1,-0.84 -11.85,-0.84 -64.87,0 -130.69,42.31 -155.13,103.42l-1.88 0 0 -90.26 -126.93 0 0 486.08zm542.05 -631.81l-133.51 0 0 145.73 -65.73 0 0 89.32 65.73 0 0 286.76c0,96.84 71.45,115.65 153.25,115.65 26.33,0 55.47,-0.94 78.04,-4.7l0 -104.36c-14.1,2.82 -27.26,3.76 -41.37,3.76 -45.13,0 -56.41,-11.28 -56.41,-56.41l0 -240.69 97.78 0 0 -89.32 -97.78 0 0 -145.73z"/>
    <path class="fil0" d="M5838.84 923.06l0 -99.66 -78.97 0 0 99.66 78.97 0zm349.31 -55.47c-109.06,0 -159.83,-94.96 -159.83,-192.74 0,-100.6 47.01,-201.2 159.83,-201.2 111.88,0 156.07,106.24 156.07,201.2 0,98.72 -53.59,192.74 -156.07,192.74zm215.31 -429.67l-59.24 0 0 83.68 -1.88 0c-23.51,-53.59 -83.68,-97.78 -154.19,-97.78 -140.09,0 -219.07,110.94 -219.07,244.45 0,138.21 63.94,249.15 219.07,249.15 69.57,0 126.93,-40.43 154.19,-99.66l1.88 0 0 65.81c0,118.47 -47.01,183.34 -156.07,183.34 -65.81,0 -128.81,-25.39 -141.97,-96.84l-59.23 0c8.46,103.42 104.36,146.67 201.2,146.67 158.89,0 214.36,-88.38 215.31,-233.17l0 -445.65zm324.86 -14.1c-148.55,0 -229.41,117.52 -229.41,256.67 0,139.15 80.86,256.68 229.41,256.68 148.55,0 229.41,-117.53 229.41,-256.68 0,-139.15 -80.86,-256.67 -229.41,-256.67zm0 49.83c113.76,0 170.17,103.42 170.17,206.84 0,103.43 -56.41,206.84 -170.17,206.84 -113.76,0 -170.18,-103.42 -170.18,-206.84 0,-103.42 56.41,-206.84 170.18,-206.84zm457.43 449.41l62.99 0 181.45 -485.14 -61.11 0 -150.43 425.91 -1.88 0 -152.31 -425.91 -65.81 0 187.1 485.14z"/>
   </g>
  </g>
 </g>
</svg>
