<svg width="90" height="83" viewBox="0 0 90 83" fill="none" xmlns="http://www.w3.org/2000/svg">
<path d="M23.4336 31.7648L20.1899 67.1089L88.7036 21.2281L23.4336 31.7648Z" fill="#D3D8E0" stroke="black" stroke-width="0.827607" stroke-linejoin="round"/>
<path d="M38.9208 57.0379L20.1907 67.1092L28.97 46.8878L38.0686 49.9099L38.9208 57.0379Z" fill="#A8AEB7" stroke="black" stroke-width="0.827607" stroke-linejoin="round"/>
<path d="M88.7043 21.2266L22.6512 40.2953L10.1842 27.2934L88.7043 21.2266Z" fill="#FEFDFC" stroke="black" stroke-width="0.827607" stroke-linejoin="round"/>
<path d="M88.7027 21.2281L88.569 21.4085L44.4623 62.6913L28.9684 46.8875L88.7027 21.2281Z" fill="#FEFDFC"/>
<path d="M44.4622 62.6917L88.5689 21.4089L52.1658 70.5501L44.4622 62.6917Z" fill="#F2EFEE"/>
<path d="M88.5699 21.4065L88.815 21.7399C88.8485 21.7152 88.8781 21.6857 88.9028 21.6522L88.5699 21.4065ZM88.5659 21.4094L88.3208 21.076C88.2875 21.1005 88.258 21.1298 88.2334 21.1631L88.5659 21.4094ZM52.1656 70.5468L51.8701 70.8364C51.9549 70.9229 52.0733 70.9679 52.1941 70.9596C52.3149 70.9513 52.426 70.8904 52.4981 70.7931L52.1656 70.5468ZM44.4631 62.6891L44.7586 62.3994C44.6562 62.295 44.5063 62.2523 44.3643 62.2872C44.2223 62.3221 44.1092 62.4294 44.067 62.5694L44.4631 62.6891ZM44.4628 62.69L44.1673 62.9797C44.2697 63.0841 44.4196 63.1268 44.5616 63.0918C44.7036 63.0569 44.8167 62.9497 44.8589 62.8097L44.4628 62.69ZM28.9684 46.8854L28.8051 46.5052C28.6797 46.5591 28.5889 46.6714 28.5625 46.8053C28.536 46.9392 28.5774 47.0776 28.673 47.1751L28.9684 46.8854ZM88.7028 21.2263L89.0358 21.472C89.1467 21.3217 89.1432 21.1156 89.0271 20.9692C88.911 20.8228 88.7112 20.7723 88.5395 20.8461L88.7028 21.2263ZM88.5699 21.4065L88.3247 21.0731L88.3208 21.076L88.5659 21.4094L88.811 21.7428L88.815 21.7399L88.5699 21.4065ZM88.5659 21.4094L88.2334 21.1631L51.8331 70.3005L52.1656 70.5468L52.4981 70.7931L88.8984 21.6557L88.5659 21.4094ZM52.1656 70.5468L52.4611 70.2571L44.7586 62.3994L44.4631 62.6891L44.1676 62.9787L51.8701 70.8364L52.1656 70.5468ZM44.4631 62.6891L44.067 62.5694L44.0667 62.5704L44.4628 62.69L44.8589 62.8097L44.8592 62.8087L44.4631 62.6891ZM44.4628 62.69L44.7583 62.4003L29.2639 46.5957L28.9684 46.8854L28.673 47.1751L44.1673 62.9797L44.4628 62.69ZM28.9684 46.8854L29.1318 47.2656L88.8662 21.6065L88.7028 21.2263L88.5395 20.8461L28.8051 46.5052L28.9684 46.8854ZM88.7028 21.2263L88.3699 20.9806L88.2369 21.1608L88.5699 21.4065L88.9028 21.6522L89.0358 21.472L88.7028 21.2263Z" fill="black"/>
</svg>
