<svg width="55" height="55" viewBox="0 0 55 55" fill="none" xmlns="http://www.w3.org/2000/svg">
<rect width="55" height="55" rx="10.7714" fill="url(#paint0_linear_10283_2927)"/>
<path d="M8.71503 18.6649C8.70748 18.6179 8.73737 18.573 8.78364 18.5619L19.6659 15.9429C19.6721 15.9414 19.6785 15.9406 19.6849 15.9404L32.5483 15.6222C32.5569 15.622 32.5655 15.6206 32.5737 15.6179L42.7485 12.3764C42.8025 12.3592 42.8589 12.3949 42.8664 12.451L46.0748 36.2653C46.0806 36.3085 46.055 36.3498 46.0137 36.3638L35.8533 39.7957C35.8443 39.7988 35.8349 39.8004 35.8254 39.8005L22.5111 39.9823C22.5026 39.9824 22.4943 39.9837 22.4862 39.9861L12.7171 42.9123C12.6644 42.9281 12.6098 42.8939 12.6011 42.8395L8.71503 18.6649Z" fill="#F9F4F2"/>
<path d="M42.248 10.458C43.4846 10.0641 44.7769 10.8818 44.9502 12.168L48.1592 35.9824C48.2924 36.9726 47.7052 37.9183 46.7588 38.2383L36.5977 41.6709C36.3916 41.7405 36.1754 41.7773 35.958 41.7803L22.9082 41.958L13.3955 44.8076C12.1869 45.1696 10.9356 44.3853 10.7354 43.1396L6.84961 18.9648C6.67666 17.8882 7.3617 16.8599 8.42188 16.6045L19.3047 13.9854C19.4478 13.9509 19.5941 13.9314 19.7412 13.9277L32.3311 13.6162L42.248 10.458ZM32.7324 15.7676C32.7084 15.7752 32.6834 15.7796 32.6582 15.7803L19.8047 16.0977L9.00488 18.6973L12.8643 42.7002L22.542 39.8018L22.6143 39.791L35.917 39.6084L45.9971 36.2031L42.8115 12.5566L32.7324 15.7676Z" fill="#FFFCF7" stroke="#101828" stroke-width="0.35"/>
<path d="M32.3984 14.085L32.535 15.4054" stroke="#101828" stroke-width="0.35"/>
<path d="M37.0083 18.4811C37.3598 18.5512 40.1553 18 41.575 17.6584C41.7394 17.6188 41.9087 17.7032 41.9744 17.859L42.21 18.4174C42.2277 18.4594 42.2369 18.5046 42.2369 18.5502V21.1231C42.2369 21.1787 42.2233 21.2334 42.1974 21.2825L40.8599 23.8187C40.8361 23.8639 40.8025 23.9031 40.7615 23.9336L38.8492 25.3548C38.7121 25.4567 38.6713 25.6442 38.7536 25.7938L40.4046 28.7935C40.4324 28.8439 40.4469 28.9006 40.4469 28.9582V31.149C40.4469 31.3881 40.2076 31.5533 39.984 31.4685L38.2635 30.816C38.1562 30.7753 38.0766 30.6835 38.0513 30.5716L37.6952 28.9921C37.6775 28.9135 37.6326 28.8437 37.5684 28.795L36.818 28.2258C36.6476 28.0966 36.4017 28.1538 36.3059 28.345L35.822 29.3111C35.6932 29.5681 35.3239 29.5609 35.2052 29.2991L34.697 28.1778C34.6416 28.0557 34.5199 27.9772 34.3858 27.9772H33.4888C33.3405 27.9772 33.2092 28.0729 33.1636 28.214L32.3451 30.7508L31.2775 34.5864C31.2202 34.7921 30.9905 34.8955 30.7986 34.802L29.2857 34.0646C29.1946 34.0202 29.128 33.9377 29.1037 33.8393L28.4054 31.0106C28.3677 30.858 28.2308 30.7508 28.0736 30.7508H26.1864C25.9977 30.7508 25.8447 30.5978 25.8447 30.4091V28.0226C25.8447 27.9925 25.8487 27.9625 25.8566 27.9334L26.5865 25.2346C26.5944 25.2055 26.5984 25.1755 26.5984 25.1454V23.8132C26.5984 23.6788 26.6771 23.5569 26.7996 23.5017L28.3162 22.8174C28.3329 22.8098 28.3489 22.801 28.3642 22.7909L30.1977 21.5781C30.2467 21.5457 30.2866 21.5011 30.3134 21.4488L31.0836 19.9441C31.1286 19.8561 31.2096 19.7919 31.3056 19.7681L34.606 18.9512C35.2498 18.7632 36.6315 18.4059 37.0083 18.4811Z" fill="#2DA17D" stroke="#101828" stroke-width="0.35"/>
<path d="M23.0601 31.0821C22.4656 30.8526 21.2718 30.4382 20.6707 30.3799C20.5308 30.3664 20.4196 30.4709 20.3905 30.6085L19.9617 32.634C19.938 32.7458 19.9718 32.862 20.0516 32.9437L21.7925 34.7248C21.8549 34.7886 21.8899 34.8744 21.8899 34.9636V36.9576C21.8899 37.0304 21.9132 37.1014 21.9563 37.1601L22.4432 37.8217C22.6387 38.0875 23.0601 37.9492 23.0601 37.6192V35.5469C23.0601 35.4448 23.1057 35.3481 23.1845 35.2832L24.8082 33.9445C24.8869 33.8796 24.9325 33.7829 24.9325 33.6809V31.9795C24.9325 31.8343 24.8407 31.7049 24.7036 31.657L23.0601 31.0821Z" fill="#2DA17D" stroke="#101828" stroke-width="0.35"/>
<path d="M23.0636 19.9219L21.3293 20.2544C21.2184 20.2756 21.1251 20.3503 21.0802 20.4539L20.2641 22.3329C20.231 22.409 20.2268 22.4945 20.2522 22.5735L21.0758 25.1367C21.1212 25.278 21.2527 25.3739 21.4012 25.3739H23.1024C23.2545 25.3739 23.3883 25.2733 23.4306 25.1271L24.1753 22.552C24.1944 22.4862 24.1932 22.4161 24.1719 22.3509L23.4528 20.1513C23.3993 19.9878 23.2326 19.8895 23.0636 19.9219Z" fill="#2DA17D"/>
<path d="M15.6441 22.3842L17.1495 21.1355C17.1876 21.1039 17.232 21.081 17.2798 21.0683L19.5308 20.4697C19.8068 20.3963 20.0457 20.6738 19.9321 20.9358L19.1832 22.6635C19.1506 22.7387 19.1461 22.8231 19.1705 22.9013L19.8024 24.9254C19.8249 24.9975 19.8229 25.0751 19.7966 25.146L19.154 26.8795C19.1399 26.9175 19.1327 26.9578 19.1327 26.9983V28.8242C19.1327 28.8688 19.124 28.913 19.107 28.9542L18.5374 30.3391C18.4981 30.4346 18.4176 30.5073 18.3186 30.5367L17.8552 30.6741C17.5866 30.7538 17.5227 31.1051 17.7461 31.2742L18.7948 32.0679C18.9685 32.1995 18.9764 32.4578 18.8111 32.5997L18.5712 32.8055C18.5093 32.8587 18.4304 32.8879 18.3487 32.8879H17.3141C17.2445 32.8879 17.1766 32.8667 17.1195 32.827L14.8514 31.2551C14.7953 31.2162 14.7521 31.1614 14.7274 31.0977L13.8858 28.9249C13.8773 28.9029 13.8711 28.88 13.8672 28.8567L13.4384 26.2416C13.3992 26.0026 13.1306 25.8791 12.9237 26.0049L11.2457 27.0248C11.018 27.1632 10.7266 26.9992 10.7266 26.7328V25.8236C10.7266 25.7699 10.7392 25.7169 10.7635 25.669L12.1446 22.9471C12.1974 22.843 12.2996 22.7731 12.4157 22.7617L15.4595 22.4612C15.5274 22.4545 15.5916 22.4277 15.6441 22.3842Z" fill="#2DA17D"/>
<path d="M23.0636 19.9219L21.3293 20.2544C21.2184 20.2756 21.1251 20.3503 21.0802 20.4539L20.2641 22.3329C20.231 22.409 20.2268 22.4945 20.2522 22.5735L21.0758 25.1367C21.1212 25.278 21.2527 25.3739 21.4012 25.3739H23.1024C23.2545 25.3739 23.3883 25.2733 23.4306 25.1271L24.1753 22.552C24.1944 22.4862 24.1932 22.4161 24.1719 22.3509L23.4528 20.1513C23.3993 19.9878 23.2326 19.8895 23.0636 19.9219Z" stroke="#101828" stroke-width="0.35"/>
<path d="M15.6441 22.3842L17.1495 21.1355C17.1876 21.1039 17.232 21.081 17.2798 21.0683L19.5308 20.4697C19.8068 20.3963 20.0457 20.6738 19.9321 20.9358L19.1832 22.6635C19.1506 22.7387 19.1461 22.8231 19.1705 22.9013L19.8024 24.9254C19.8249 24.9975 19.8229 25.0751 19.7966 25.146L19.154 26.8795C19.1399 26.9175 19.1327 26.9578 19.1327 26.9983V28.8242C19.1327 28.8688 19.124 28.913 19.107 28.9542L18.5374 30.3391C18.4981 30.4346 18.4176 30.5073 18.3186 30.5367L17.8552 30.6741C17.5866 30.7538 17.5227 31.1051 17.7461 31.2742L18.7948 32.0679C18.9685 32.1995 18.9764 32.4578 18.8111 32.5997L18.5712 32.8055C18.5093 32.8587 18.4304 32.8879 18.3487 32.8879H17.3141C17.2445 32.8879 17.1766 32.8667 17.1195 32.827L14.8514 31.2551C14.7953 31.2162 14.7521 31.1614 14.7274 31.0977L13.8858 28.9249C13.8773 28.9029 13.8711 28.88 13.8672 28.8567L13.4384 26.2416C13.3992 26.0026 13.1306 25.8791 12.9237 26.0049L11.2457 27.0248C11.018 27.1632 10.7266 26.9992 10.7266 26.7328V25.8236C10.7266 25.7699 10.7392 25.7169 10.7635 25.669L12.1446 22.9471C12.1974 22.843 12.2996 22.7731 12.4157 22.7617L15.4595 22.4612C15.5274 22.4545 15.5916 22.4277 15.6441 22.3842Z" stroke="#101828" stroke-width="0.35"/>
<path opacity="0.3" fill-rule="evenodd" clip-rule="evenodd" d="M26.4105 13.7685C26.381 13.9053 26.3579 14.0448 26.3413 14.1867C26.2286 15.1516 26.7786 16.5359 27.4312 18.1783C28.3828 20.5735 29.5526 23.5176 29.2031 26.5103C29.5469 23.5662 31.3552 20.9695 32.8323 18.8484C33.8521 17.384 34.714 16.1463 34.8272 15.1775C34.92 14.3822 34.7934 13.6125 34.4958 12.9303L32.3239 13.622L26.4105 13.7685Z" fill="#101828"/>
<path d="M33.4732 14.6015C33.4732 16.9896 29.2014 21.4995 29.2014 26.51C29.2014 21.4309 24.9297 16.9896 24.9297 14.6015C24.9297 12.2133 26.8422 10.2773 29.2014 10.2773C31.5607 10.2773 33.4732 12.2133 33.4732 14.6015Z" fill="#FEE29E" stroke="#101828" stroke-width="0.35" stroke-linejoin="round"/>
<circle cx="29.2017" cy="14.5494" r="2.38806" fill="#E7A200" stroke="#101828" stroke-width="0.35"/>
<path d="M42.0151 29.9484C42.0151 30.9037 40.3064 32.7076 40.3064 34.7118C40.3064 32.6802 38.5977 30.9037 38.5977 29.9484C38.5977 28.9931 39.3627 28.2188 40.3064 28.2188C41.2501 28.2188 42.0151 28.9931 42.0151 29.9484Z" fill="#FEE29E" stroke="#101828" stroke-width="0.35" stroke-linejoin="round"/>
<circle cx="40.3035" cy="29.9285" r="0.875223" fill="#E7A200" stroke="#FEE29E" stroke-width="0.3"/>
<path d="M39.4516 17.9875C39.4516 18.9427 37.7429 20.7467 37.7429 22.7509C37.7429 20.7192 36.0342 18.9427 36.0342 17.9875C36.0342 17.0322 36.7992 16.2578 37.7429 16.2578C38.6866 16.2578 39.4516 17.0322 39.4516 17.9875Z" fill="#FEE29E" stroke="#101828" stroke-width="0.35" stroke-linejoin="round"/>
<circle cx="37.7401" cy="17.9676" r="0.875223" fill="#E7A200" stroke="#FEE29E" stroke-width="0.3"/>
<path d="M24.0776 28.2404C24.0776 29.1957 22.3689 30.9996 22.3689 33.0038C22.3689 30.9722 20.6602 29.1957 20.6602 28.2404C20.6602 27.2851 21.4252 26.5107 22.3689 26.5107C23.3126 26.5107 24.0776 27.2851 24.0776 28.2404Z" fill="#FEE29E" stroke="#101828" stroke-width="0.35" stroke-linejoin="round"/>
<circle cx="22.366" cy="28.2205" r="0.875223" fill="#E7A200" stroke="#FEE29E" stroke-width="0.3"/>
<path d="M18.0932 21.4045C18.0932 22.3597 16.3845 24.1637 16.3845 26.1679C16.3845 24.1362 14.6758 22.3597 14.6758 21.4045C14.6758 20.4492 15.4408 19.6748 16.3845 19.6748C17.3282 19.6748 18.0932 20.4492 18.0932 21.4045Z" fill="#FEE29E" stroke="#101828" stroke-width="0.35" stroke-linejoin="round"/>
<circle cx="16.3817" cy="21.3846" r="0.875223" fill="#E7A200" stroke="#FEE29E" stroke-width="0.3"/>
<defs>
<linearGradient id="paint0_linear_10283_2927" x1="-38.024" y1="-27.4312" x2="85.2237" y2="9.32982" gradientUnits="userSpaceOnUse">
<stop offset="0.160747" stop-color="#2A81FE"/>
<stop offset="0.648338" stop-color="#C0E0FF"/>
<stop offset="0.850962" stop-color="#C0E0FF"/>
</linearGradient>
</defs>
</svg>
