<svg width="90" height="90" viewBox="0 0 90 90" fill="none" xmlns="http://www.w3.org/2000/svg">
<circle cx="74.6683" cy="55.4027" r="4.05115" fill="#FECC2F" stroke="#101828" stroke-width="0.9"/>
<path opacity="0.2" fill-rule="evenodd" clip-rule="evenodd" d="M78.0842 53.2266C77.9239 55.3172 76.1768 56.9636 74.0451 56.9636C72.6098 56.9636 71.3488 56.2172 70.6292 55.0914C70.6212 55.195 70.6172 55.2998 70.6172 55.4055C70.6172 57.6429 72.4309 59.4566 74.6683 59.4566C76.9057 59.4566 78.7195 57.6429 78.7195 55.4055C78.7195 54.6034 78.4864 53.8557 78.0842 53.2266Z" fill="#101828" stroke="#101828" stroke-width="0.9"/>
<circle cx="74.5164" cy="28.6024" r="2.49301" fill="#E7A200" stroke="#101828" stroke-width="0.9"/>
<circle cx="53.3249" cy="70.0828" r="2.739" fill="#E7A200" stroke="#101828" stroke-width="0.9"/>
<path d="M77.628 47.9273C73.6145 48.34 71.5546 51.8463 71.0652 54.0612L71.3993 55.6539L71.6502 56.1538C75.5966 55.4304 77.2797 50.3681 77.628 47.9273Z" fill="#00A47B"/>
<path d="M71.0652 54.0612C71.5546 51.8463 73.6145 48.34 77.628 47.9273C77.2797 50.3681 75.5966 55.4304 71.6502 56.1538" stroke="#101828" stroke-width="0.9" stroke-linecap="round"/>
<path d="M27.3455 12.9766C32.0231 14.4967 33.7886 18.4363 33.9416 20.6976L33.2386 22.1313L32.8447 22.5404C28.3066 20.7411 27.2877 15.4148 27.3455 12.9766Z" fill="#00A47B"/>
<path d="M33.9416 20.6976C33.7886 18.4363 32.0231 14.4967 27.3455 12.9766C27.2877 15.4148 28.3066 20.7411 32.8447 22.5404" stroke="#101828" stroke-width="0.9" stroke-linecap="round"/>
<path d="M67.6211 19.6143C69.5822 19.3751 72.1468 19.4877 73.6104 21.4561C75.0738 23.4246 74.4425 25.9126 73.6484 27.7217C72.7698 29.7232 71.2241 31.9896 69.248 34.3594C65.2715 39.1282 59.1986 44.7343 51.9814 50.0996C44.7642 55.4649 37.6459 59.6657 31.9336 62.0996C29.0952 63.3089 26.4802 64.1357 24.3105 64.4004C22.3493 64.6396 19.7838 64.5273 18.3203 62.5586C16.8573 60.59 17.4892 58.1019 18.2832 56.293C19.1618 54.2915 20.7077 52.0259 22.6836 49.6562C26.6601 44.8874 32.7329 39.2804 39.9502 33.915C47.1674 28.5498 54.2857 24.3499 59.998 21.916C62.8365 20.7066 65.4514 19.879 67.6211 19.6143ZM69.79 24.2959C69.5948 24.2398 69.1338 24.1604 68.1904 24.2754C66.6488 24.4634 64.4961 25.1028 61.8379 26.2354C56.5563 28.4858 49.7609 32.4724 42.751 37.6836C35.7413 42.8947 29.9667 48.253 26.29 52.6621C24.4395 54.8813 23.2062 56.7586 22.582 58.1807C22.2011 59.0486 22.1453 59.5128 22.1426 59.7168C22.338 59.7729 22.7985 59.8542 23.7412 59.7393C25.2828 59.5512 27.4355 58.9119 30.0938 57.7793C35.3753 55.5289 42.1707 51.5432 49.1807 46.332C56.1905 41.1209 61.9649 35.7617 65.6416 31.3525C67.4921 29.1333 68.7254 27.256 69.3496 25.834C69.7319 24.9629 69.7877 24.4986 69.79 24.2959Z" fill="#00A47B"/>
<path d="M67.6211 19.6143L67.5666 19.1676L67.5666 19.1676L67.6211 19.6143ZM73.6104 21.4561L73.9715 21.1876L73.9715 21.1875L73.6104 21.4561ZM73.6484 27.7217L74.0605 27.9026L74.0605 27.9025L73.6484 27.7217ZM69.248 34.3594L69.5937 34.6476L69.5937 34.6476L69.248 34.3594ZM51.9814 50.0996L52.2499 50.4607L52.2499 50.4607L51.9814 50.0996ZM31.9336 62.0996L32.11 62.5136L32.11 62.5136L31.9336 62.0996ZM24.3105 64.4004L24.365 64.8471L24.365 64.8471L24.3105 64.4004ZM18.3203 62.5586L17.9591 62.827L17.9592 62.8271L18.3203 62.5586ZM18.2832 56.293L17.8712 56.1121L17.8712 56.1121L18.2832 56.293ZM22.6836 49.6562L22.338 49.3681L22.338 49.3681L22.6836 49.6562ZM39.9502 33.915L39.6817 33.5539L39.6817 33.5539L39.9502 33.915ZM59.998 21.916L59.8217 21.502L59.8217 21.502L59.998 21.916ZM69.79 24.2959L70.24 24.3011L70.244 23.9582L69.9144 23.8634L69.79 24.2959ZM68.1904 24.2754L68.136 23.8287L68.1359 23.8287L68.1904 24.2754ZM61.8379 26.2354L61.6615 25.8214L61.6615 25.8214L61.8379 26.2354ZM42.751 37.6836L42.4825 37.3225L42.4825 37.3225L42.751 37.6836ZM26.29 52.6621L25.9444 52.3739L25.9444 52.3739L26.29 52.6621ZM22.582 58.1807L22.17 57.9998L22.17 57.9998L22.582 58.1807ZM22.1426 59.7168L21.6926 59.7107L21.688 60.0544L22.0184 60.1493L22.1426 59.7168ZM23.7412 59.7393L23.7957 60.1859L23.7957 60.1859L23.7412 59.7393ZM30.0938 57.7793L30.2701 58.1933L30.2701 58.1933L30.0938 57.7793ZM49.1807 46.332L49.4491 46.6932L49.4491 46.6932L49.1807 46.332ZM65.6416 31.3525L65.9872 31.6407L65.9872 31.6407L65.6416 31.3525ZM69.3496 25.834L69.7617 26.0149L69.7617 26.0148L69.3496 25.834ZM67.6211 19.6143L67.6756 20.0609C69.619 19.8239 71.9449 19.9703 73.2492 21.7246L73.6104 21.4561L73.9715 21.1875C72.3487 19.0051 69.5454 18.9262 67.5666 19.1676L67.6211 19.6143ZM73.6104 21.4561L73.2492 21.7245C74.5534 23.479 74.0233 25.7479 73.2364 27.5408L73.6484 27.7217L74.0605 27.9025C74.8617 26.0772 75.5941 23.3703 73.9715 21.1876L73.6104 21.4561ZM73.6484 27.7217L73.2364 27.5408C72.3821 29.4868 70.8664 31.7159 68.9024 34.0712L69.248 34.3594L69.5937 34.6476C71.5818 32.2633 73.1575 29.9596 74.0605 27.9026L73.6484 27.7217ZM69.248 34.3594L68.9024 34.0712C64.9546 38.8056 58.9103 44.388 51.713 49.7385L51.9814 50.0996L52.2499 50.4607C59.4869 45.0807 65.5884 39.4509 69.5937 34.6476L69.248 34.3594ZM51.9814 50.0996L51.713 49.7385C44.5156 55.089 37.4282 59.2693 31.7572 61.6856L31.9336 62.0996L32.11 62.5136C37.8636 60.0621 45.0129 55.8408 52.2499 50.4607L51.9814 50.0996ZM31.9336 62.0996L31.7572 61.6856C28.9362 62.8875 26.3656 63.6964 24.2561 63.9537L24.3105 64.4004L24.365 64.8471C26.5948 64.5751 29.2542 63.7303 32.11 62.5136L31.9336 62.0996ZM24.3105 64.4004L24.2561 63.9537C22.3124 64.1908 19.9858 64.0446 18.6815 62.2901L18.3203 62.5586L17.9592 62.8271C19.5819 65.0099 22.3863 65.0884 24.365 64.8471L24.3105 64.4004ZM18.3203 62.5586L18.6815 62.2902C17.3777 60.5358 17.9083 58.2667 18.6953 56.4738L18.2832 56.293L17.8712 56.1121C17.07 57.9372 16.337 60.6442 17.9591 62.827L18.3203 62.5586ZM18.2832 56.293L18.6953 56.4738C19.5495 54.5279 21.0653 52.2997 23.0292 49.9444L22.6836 49.6562L22.338 49.3681C20.35 51.7522 18.7741 54.0551 17.8712 56.1121L18.2832 56.293ZM22.6836 49.6562L23.0292 49.9444C26.977 45.21 33.0213 39.6268 40.2187 34.2762L39.9502 33.915L39.6817 33.5539C32.4446 38.934 26.3433 44.5647 22.338 49.3681L22.6836 49.6562ZM39.9502 33.915L40.2187 34.2762C47.416 28.9257 54.5034 24.7463 60.1744 22.33L59.998 21.916L59.8217 21.502C54.068 23.9535 46.9188 28.1738 39.6817 33.5539L39.9502 33.915ZM59.998 21.916L60.1744 22.33C62.9956 21.128 65.5661 20.3183 67.6756 20.0609L67.6211 19.6143L67.5666 19.1676C65.3367 19.4397 62.6774 20.2853 59.8217 21.502L59.998 21.916ZM69.79 24.2959L69.9144 23.8634C69.6443 23.7858 69.1191 23.7088 68.136 23.8287L68.1904 24.2754L68.2449 24.7221C69.1485 24.6119 69.5452 24.6937 69.6657 24.7284L69.79 24.2959ZM68.1904 24.2754L68.1359 23.8287C66.5342 24.0241 64.337 24.6814 61.6615 25.8214L61.8379 26.2354L62.0143 26.6493C64.6552 25.5241 66.7635 24.9028 68.2449 24.7221L68.1904 24.2754ZM61.8379 26.2354L61.6615 25.8214C56.3386 28.0894 49.5123 32.0965 42.4825 37.3225L42.751 37.6836L43.0195 38.0447C50.0095 32.8483 56.774 28.8821 62.0143 26.6493L61.8379 26.2354ZM42.751 37.6836L42.4825 37.3225C35.453 42.5483 29.6498 47.9303 25.9444 52.3739L26.29 52.6621L26.6356 52.9503C30.2835 48.5757 36.0296 43.241 43.0195 38.0447L42.751 37.6836ZM26.29 52.6621L25.9444 52.3739C24.082 54.6075 22.8186 56.5221 22.17 57.9998L22.582 58.1807L22.9941 58.3615C23.5939 56.9951 24.7971 55.1551 26.6357 52.9503L26.29 52.6621ZM22.582 58.1807L22.17 57.9998C21.7725 58.9054 21.6964 59.43 21.6926 59.7107L22.1426 59.7168L22.5925 59.7229C22.5943 59.5957 22.6297 59.1918 22.9941 58.3615L22.582 58.1807ZM22.1426 59.7168L22.0184 60.1493C22.2876 60.2266 22.8118 60.3059 23.7957 60.1859L23.7412 59.7393L23.6867 59.2926C22.7852 59.4025 22.3885 59.3192 22.2668 59.2843L22.1426 59.7168ZM23.7412 59.7393L23.7957 60.1859C25.3975 59.9906 27.5946 59.3333 30.2701 58.1933L30.0938 57.7793L29.9174 57.3653C27.2764 58.4905 25.1681 59.1119 23.6867 59.2926L23.7412 59.7393ZM30.0938 57.7793L30.2701 58.1933C35.593 55.9253 42.4193 51.9192 49.4491 46.6932L49.1807 46.332L48.9122 45.9709C41.9221 51.1673 35.1576 55.1325 29.9174 57.3653L30.0938 57.7793ZM49.1807 46.332L49.4491 46.6932C56.4789 41.4672 62.2818 36.0844 65.9872 31.6407L65.6416 31.3525L65.296 31.0643C61.648 35.4391 55.9022 40.7745 48.9122 45.9709L49.1807 46.332ZM65.6416 31.3525L65.9872 31.6407C67.8497 29.4071 69.113 27.4925 69.7617 26.0149L69.3496 25.834L68.9376 25.6531C68.3377 27.0196 67.1345 28.8595 65.296 31.0644L65.6416 31.3525ZM69.3496 25.834L69.7617 26.0148C70.1603 25.1066 70.2367 24.5815 70.24 24.3011L69.79 24.2959L69.3401 24.2907C69.3386 24.4157 69.3035 24.8192 68.9375 25.6531L69.3496 25.834Z" fill="black"/>
<g opacity="0.21">
<mask id="mask0_17403_3246" style="mask-type:alpha" maskUnits="userSpaceOnUse" x="16" y="19" width="59" height="46">
<path d="M67.6211 19.6143C69.5822 19.3751 72.1468 19.4877 73.6104 21.4561C75.0738 23.4246 74.4425 25.9126 73.6484 27.7217C72.7698 29.7232 71.2241 31.9896 69.248 34.3594C65.2715 39.1282 59.1986 44.7343 51.9814 50.0996C44.7642 55.4649 37.6459 59.6657 31.9336 62.0996C29.0952 63.3089 26.4802 64.1357 24.3105 64.4004C22.3493 64.6396 19.7838 64.5273 18.3203 62.5586C16.8573 60.59 17.4892 58.1019 18.2832 56.293C19.1618 54.2915 20.7077 52.0259 22.6836 49.6562C26.6601 44.8874 32.7329 39.2804 39.9502 33.915C47.1674 28.5498 54.2857 24.3499 59.998 21.916C62.8365 20.7066 65.4514 19.879 67.6211 19.6143ZM69.79 24.2959C69.5948 24.2398 69.1338 24.1604 68.1904 24.2754C66.6488 24.4634 64.4961 25.1028 61.8379 26.2354C56.5563 28.4858 49.7609 32.4724 42.751 37.6836C35.7413 42.8947 29.9667 48.253 26.29 52.6621C24.4395 54.8813 23.2062 56.7586 22.582 58.1807C22.2011 59.0486 22.1453 59.5128 22.1426 59.7168C22.338 59.7729 22.7985 59.8542 23.7412 59.7393C25.2828 59.5512 27.4355 58.9119 30.0938 57.7793C35.3753 55.5289 42.1707 51.5432 49.1807 46.332C56.1905 41.1209 61.9649 35.7617 65.6416 31.3525C67.4921 29.1333 68.7254 27.256 69.3496 25.834C69.7319 24.9629 69.7877 24.4986 69.79 24.2959Z" fill="#00A47B"/>
<path d="M67.6211 19.6143L67.5666 19.1676L67.5666 19.1676L67.6211 19.6143ZM73.6104 21.4561L73.9715 21.1876L73.9715 21.1875L73.6104 21.4561ZM73.6484 27.7217L74.0605 27.9026L74.0605 27.9025L73.6484 27.7217ZM69.248 34.3594L69.5937 34.6476L69.5937 34.6476L69.248 34.3594ZM51.9814 50.0996L52.2499 50.4607L52.2499 50.4607L51.9814 50.0996ZM31.9336 62.0996L32.11 62.5136L32.11 62.5136L31.9336 62.0996ZM24.3105 64.4004L24.365 64.8471L24.365 64.8471L24.3105 64.4004ZM18.3203 62.5586L17.9591 62.827L17.9592 62.8271L18.3203 62.5586ZM18.2832 56.293L17.8712 56.1121L17.8712 56.1121L18.2832 56.293ZM22.6836 49.6562L22.338 49.3681L22.338 49.3681L22.6836 49.6562ZM39.9502 33.915L39.6817 33.5539L39.6817 33.5539L39.9502 33.915ZM59.998 21.916L59.8217 21.502L59.8217 21.502L59.998 21.916ZM69.79 24.2959L70.24 24.3011L70.244 23.9582L69.9144 23.8634L69.79 24.2959ZM68.1904 24.2754L68.136 23.8287L68.1359 23.8287L68.1904 24.2754ZM61.8379 26.2354L61.6615 25.8214L61.6615 25.8214L61.8379 26.2354ZM42.751 37.6836L42.4825 37.3225L42.4825 37.3225L42.751 37.6836ZM26.29 52.6621L25.9444 52.3739L25.9444 52.3739L26.29 52.6621ZM22.582 58.1807L22.17 57.9998L22.17 57.9998L22.582 58.1807ZM22.1426 59.7168L21.6926 59.7107L21.688 60.0544L22.0184 60.1493L22.1426 59.7168ZM23.7412 59.7393L23.7957 60.1859L23.7957 60.1859L23.7412 59.7393ZM30.0938 57.7793L30.2701 58.1933L30.2701 58.1933L30.0938 57.7793ZM49.1807 46.332L49.4491 46.6932L49.4491 46.6932L49.1807 46.332ZM65.6416 31.3525L65.9872 31.6407L65.9872 31.6407L65.6416 31.3525ZM69.3496 25.834L69.7617 26.0149L69.7617 26.0148L69.3496 25.834ZM67.6211 19.6143L67.6756 20.0609C69.619 19.8239 71.9449 19.9703 73.2492 21.7246L73.6104 21.4561L73.9715 21.1875C72.3487 19.0051 69.5454 18.9262 67.5666 19.1676L67.6211 19.6143ZM73.6104 21.4561L73.2492 21.7245C74.5534 23.479 74.0233 25.7479 73.2364 27.5408L73.6484 27.7217L74.0605 27.9025C74.8617 26.0772 75.5941 23.3703 73.9715 21.1876L73.6104 21.4561ZM73.6484 27.7217L73.2364 27.5408C72.3821 29.4868 70.8664 31.7159 68.9024 34.0712L69.248 34.3594L69.5937 34.6476C71.5818 32.2633 73.1575 29.9596 74.0605 27.9026L73.6484 27.7217ZM69.248 34.3594L68.9024 34.0712C64.9546 38.8056 58.9103 44.388 51.713 49.7385L51.9814 50.0996L52.2499 50.4607C59.4869 45.0807 65.5884 39.4509 69.5937 34.6476L69.248 34.3594ZM51.9814 50.0996L51.713 49.7385C44.5156 55.089 37.4282 59.2693 31.7572 61.6856L31.9336 62.0996L32.11 62.5136C37.8636 60.0621 45.0129 55.8408 52.2499 50.4607L51.9814 50.0996ZM31.9336 62.0996L31.7572 61.6856C28.9362 62.8875 26.3656 63.6964 24.2561 63.9537L24.3105 64.4004L24.365 64.8471C26.5948 64.5751 29.2542 63.7303 32.11 62.5136L31.9336 62.0996ZM24.3105 64.4004L24.2561 63.9537C22.3124 64.1908 19.9858 64.0446 18.6815 62.2901L18.3203 62.5586L17.9592 62.8271C19.5819 65.0099 22.3863 65.0884 24.365 64.8471L24.3105 64.4004ZM18.3203 62.5586L18.6815 62.2902C17.3777 60.5358 17.9083 58.2667 18.6953 56.4738L18.2832 56.293L17.8712 56.1121C17.07 57.9372 16.337 60.6442 17.9591 62.827L18.3203 62.5586ZM18.2832 56.293L18.6953 56.4738C19.5495 54.5279 21.0653 52.2997 23.0292 49.9444L22.6836 49.6562L22.338 49.3681C20.35 51.7522 18.7741 54.0551 17.8712 56.1121L18.2832 56.293ZM22.6836 49.6562L23.0292 49.9444C26.977 45.21 33.0213 39.6268 40.2187 34.2762L39.9502 33.915L39.6817 33.5539C32.4446 38.934 26.3433 44.5647 22.338 49.3681L22.6836 49.6562ZM39.9502 33.915L40.2187 34.2762C47.416 28.9257 54.5034 24.7463 60.1744 22.33L59.998 21.916L59.8217 21.502C54.068 23.9535 46.9188 28.1738 39.6817 33.5539L39.9502 33.915ZM59.998 21.916L60.1744 22.33C62.9956 21.128 65.5661 20.3183 67.6756 20.0609L67.6211 19.6143L67.5666 19.1676C65.3367 19.4397 62.6774 20.2853 59.8217 21.502L59.998 21.916ZM69.79 24.2959L69.9144 23.8634C69.6443 23.7858 69.1191 23.7088 68.136 23.8287L68.1904 24.2754L68.2449 24.7221C69.1485 24.6119 69.5452 24.6937 69.6657 24.7284L69.79 24.2959ZM68.1904 24.2754L68.1359 23.8287C66.5342 24.0241 64.337 24.6814 61.6615 25.8214L61.8379 26.2354L62.0143 26.6493C64.6552 25.5241 66.7635 24.9028 68.2449 24.7221L68.1904 24.2754ZM61.8379 26.2354L61.6615 25.8214C56.3386 28.0894 49.5123 32.0965 42.4825 37.3225L42.751 37.6836L43.0195 38.0447C50.0095 32.8483 56.774 28.8821 62.0143 26.6493L61.8379 26.2354ZM42.751 37.6836L42.4825 37.3225C35.453 42.5483 29.6498 47.9303 25.9444 52.3739L26.29 52.6621L26.6356 52.9503C30.2835 48.5757 36.0296 43.241 43.0195 38.0447L42.751 37.6836ZM26.29 52.6621L25.9444 52.3739C24.082 54.6075 22.8186 56.5221 22.17 57.9998L22.582 58.1807L22.9941 58.3615C23.5939 56.9951 24.7971 55.1551 26.6357 52.9503L26.29 52.6621ZM22.582 58.1807L22.17 57.9998C21.7725 58.9054 21.6964 59.43 21.6926 59.7107L22.1426 59.7168L22.5925 59.7229C22.5943 59.5957 22.6297 59.1918 22.9941 58.3615L22.582 58.1807ZM22.1426 59.7168L22.0184 60.1493C22.2876 60.2266 22.8118 60.3059 23.7957 60.1859L23.7412 59.7393L23.6867 59.2926C22.7852 59.4025 22.3885 59.3192 22.2668 59.2843L22.1426 59.7168ZM23.7412 59.7393L23.7957 60.1859C25.3975 59.9906 27.5946 59.3333 30.2701 58.1933L30.0938 57.7793L29.9174 57.3653C27.2764 58.4905 25.1681 59.1119 23.6867 59.2926L23.7412 59.7393ZM30.0938 57.7793L30.2701 58.1933C35.593 55.9253 42.4193 51.9192 49.4491 46.6932L49.1807 46.332L48.9122 45.9709C41.9221 51.1673 35.1576 55.1325 29.9174 57.3653L30.0938 57.7793ZM49.1807 46.332L49.4491 46.6932C56.4789 41.4672 62.2818 36.0844 65.9872 31.6407L65.6416 31.3525L65.296 31.0643C61.648 35.4391 55.9022 40.7745 48.9122 45.9709L49.1807 46.332ZM65.6416 31.3525L65.9872 31.6407C67.8497 29.4071 69.113 27.4925 69.7617 26.0149L69.3496 25.834L68.9376 25.6531C68.3377 27.0196 67.1345 28.8595 65.296 31.0644L65.6416 31.3525ZM69.3496 25.834L69.7617 26.0148C70.1603 25.1066 70.2367 24.5815 70.24 24.3011L69.79 24.2959L69.3401 24.2907C69.3386 24.4157 69.3035 24.8192 68.9375 25.6531L69.3496 25.834Z" fill="black"/>
</mask>
<g mask="url(#mask0_17403_3246)">
<path d="M21.4385 21.4551C22.9021 19.4869 25.4667 19.3751 27.4277 19.6143C29.5975 19.8789 32.2123 20.7066 35.0508 21.916C40.7632 24.3499 47.8823 28.5497 55.0996 33.915C62.3167 39.2803 68.3897 44.8865 72.3662 49.6553C74.3422 52.025 75.888 54.2914 76.7666 56.293C77.5606 58.102 78.1916 60.5901 76.7285 62.5586C75.265 64.527 72.7004 64.6395 70.7393 64.4004C68.5695 64.1357 65.9538 63.3081 63.1152 62.0986C57.4029 59.6647 50.2845 55.4649 43.0674 50.0996C35.8501 44.7342 29.7773 39.1273 25.8008 34.3584C23.8249 31.9887 22.279 29.7231 21.4004 27.7217C20.6063 25.9125 19.975 23.4237 21.4385 21.4551ZM26.8584 24.2754C25.9152 24.1604 25.454 24.2398 25.2588 24.2959C25.2612 24.4988 25.3179 24.963 25.7002 25.834C26.3244 27.256 27.5568 29.1334 29.4072 31.3525C33.0839 35.7617 38.8593 41.1199 45.8691 46.3311C52.879 51.5422 59.6736 55.5289 64.9551 57.7793C67.6132 58.9119 69.766 59.5512 71.3076 59.7393C72.2502 59.8542 72.7107 59.7729 72.9062 59.7168C72.9035 59.513 72.8479 59.049 72.4668 58.1807C71.8426 56.7587 70.6102 54.8812 68.7598 52.6621C65.0831 48.2529 59.3078 42.8939 52.2979 37.6826C45.288 32.4715 38.4924 28.4857 33.2109 26.2354C30.5528 25.1028 28.3999 24.4634 26.8584 24.2754Z" fill="#101828"/>
<path d="M21.4385 21.4551L21.0774 21.1866L21.0773 21.1866L21.4385 21.4551ZM27.4277 19.6143L27.4822 19.1676L27.4822 19.1676L27.4277 19.6143ZM35.0508 21.916L35.2272 21.502L35.2272 21.502L35.0508 21.916ZM55.0996 33.915L55.3681 33.5539L55.3681 33.5539L55.0996 33.915ZM72.3662 49.6553L72.7118 49.3671L72.7118 49.3671L72.3662 49.6553ZM76.7666 56.293L77.1787 56.1121L77.1787 56.1121L76.7666 56.293ZM76.7285 62.5586L77.0896 62.8271L77.0897 62.827L76.7285 62.5586ZM70.7393 64.4004L70.6848 64.8471L70.6848 64.8471L70.7393 64.4004ZM63.1152 62.0986L62.9388 62.5126L62.9388 62.5126L63.1152 62.0986ZM43.0674 50.0996L42.7989 50.4607L42.7989 50.4607L43.0674 50.0996ZM25.8008 34.3584L25.4552 34.6466L25.4552 34.6466L25.8008 34.3584ZM21.4004 27.7217L20.9883 27.9025L20.9883 27.9026L21.4004 27.7217ZM26.8584 24.2754L26.9129 23.8287L26.9129 23.8287L26.8584 24.2754ZM25.2588 24.2959L25.1344 23.8634L24.8047 23.9582L24.8088 24.3012L25.2588 24.2959ZM25.7002 25.834L25.2881 26.0148L25.2881 26.0149L25.7002 25.834ZM29.4072 31.3525L29.0616 31.6407L29.0616 31.6407L29.4072 31.3525ZM45.8691 46.3311L45.6007 46.6922L45.6007 46.6922L45.8691 46.3311ZM64.9551 57.7793L64.7787 58.1933L64.7787 58.1933L64.9551 57.7793ZM71.3076 59.7393L71.2531 60.1859L71.2532 60.1859L71.3076 59.7393ZM72.9062 59.7168L73.0304 60.1493L73.3608 60.0545L73.3562 59.7108L72.9062 59.7168ZM72.4668 58.1807L72.8789 57.9998L72.8788 57.9998L72.4668 58.1807ZM68.7598 52.6621L69.1054 52.3739L69.1054 52.3739L68.7598 52.6621ZM52.2979 37.6826L52.5663 37.3215L52.5663 37.3215L52.2979 37.6826ZM33.2109 26.2354L33.3873 25.8214L33.3873 25.8214L33.2109 26.2354ZM21.4385 21.4551L21.7996 21.7236C23.1039 19.9696 25.4297 19.8239 27.3733 20.0609L27.4277 19.6143L27.4822 19.1676C25.5037 18.9263 22.7002 19.0042 21.0774 21.1866L21.4385 21.4551ZM27.4277 19.6143L27.3732 20.0609C29.4828 20.3183 32.0532 21.128 34.8744 22.33L35.0508 21.916L35.2272 21.502C32.3714 20.2853 29.7122 19.4396 27.4822 19.1676L27.4277 19.6143ZM35.0508 21.916L34.8744 22.33C40.5455 24.7463 47.6337 28.9256 54.8311 34.2762L55.0996 33.915L55.3681 33.5539C48.1309 28.1738 40.9808 23.9535 35.2272 21.502L35.0508 21.916ZM55.0996 33.915L54.8311 34.2762C62.0284 39.6267 68.0729 45.2091 72.0206 49.9435L72.3662 49.6553L72.7118 49.3671C68.7066 44.5638 62.605 38.9339 55.3681 33.5539L55.0996 33.915ZM72.3662 49.6553L72.0206 49.9435C73.9845 52.2987 75.5003 54.5278 76.3546 56.4738L76.7666 56.293L77.1787 56.1121C76.2757 54.0551 74.6999 51.7513 72.7118 49.3671L72.3662 49.6553ZM76.7666 56.293L76.3545 56.4738C77.1414 58.2665 77.6713 60.5358 76.3673 62.2902L76.7285 62.5586L77.0897 62.827C78.7119 60.6444 77.9798 57.9374 77.1787 56.1121L76.7666 56.293ZM76.7285 62.5586L76.3674 62.2901C75.0631 64.0443 72.7372 64.1907 70.7937 63.9537L70.7393 64.4004L70.6848 64.8471C72.6635 65.0884 75.467 65.0096 77.0896 62.8271L76.7285 62.5586ZM70.7393 64.4004L70.7937 63.9537C68.6841 63.6964 66.1129 62.8867 63.2916 61.6846L63.1152 62.0986L62.9388 62.5126C65.7948 63.7294 68.4548 64.5751 70.6848 64.8471L70.7393 64.4004ZM63.1152 62.0986L63.2916 61.6846C57.6206 59.2683 50.5332 55.089 43.3359 49.7385L43.0674 50.0996L42.7989 50.4607C50.0359 55.8408 57.1852 60.0611 62.9388 62.5126L63.1152 62.0986ZM43.0674 50.0996L43.3359 49.7385C36.1384 44.3879 30.0942 38.8047 26.1464 34.0702L25.8008 34.3584L25.4552 34.6466C29.4605 39.4499 35.5618 45.0806 42.7989 50.4607L43.0674 50.0996ZM25.8008 34.3584L26.1464 34.0702C24.1825 31.715 22.6666 29.4867 21.8124 27.5408L21.4004 27.7217L20.9883 27.9026C21.8913 29.9596 23.4672 32.2625 25.4552 34.6466L25.8008 34.3584ZM21.4004 27.7217L21.8124 27.5408C21.0255 25.7479 20.4953 23.4781 21.7996 21.7236L21.4385 21.4551L21.0773 21.1866C19.4546 23.3694 20.1871 26.0772 20.9883 27.9025L21.4004 27.7217ZM26.8584 24.2754L26.9129 23.8287C25.9299 23.7089 25.4045 23.7858 25.1344 23.8634L25.2588 24.2959L25.3831 24.7284C25.5035 24.6938 25.9005 24.6119 26.8039 24.7221L26.8584 24.2754ZM25.2588 24.2959L24.8088 24.3012C24.8122 24.5822 24.8898 25.1073 25.2881 26.0148L25.7002 25.834L26.1123 25.6531C25.746 24.8188 25.7102 24.4154 25.7088 24.2906L25.2588 24.2959ZM25.7002 25.834L25.2881 26.0149C25.9367 27.4924 27.1991 29.4071 29.0616 31.6407L29.4072 31.3525L29.7528 31.0644C27.9145 28.8597 26.7121 27.0196 26.1122 25.6531L25.7002 25.834ZM29.4072 31.3525L29.0616 31.6407C32.7671 36.0844 38.571 41.4663 45.6007 46.6922L45.8691 46.3311L46.1376 45.9699C39.1476 40.7735 33.4008 35.4391 29.7528 31.0643L29.4072 31.3525ZM45.8691 46.3311L45.6007 46.6922C52.6303 51.9181 59.4559 55.9253 64.7787 58.1933L64.9551 57.7793L65.1315 57.3653C59.8913 55.1325 53.1276 51.1663 46.1376 45.9699L45.8691 46.3311ZM64.9551 57.7793L64.7787 58.1933C67.4541 59.3332 69.6514 59.9905 71.2531 60.1859L71.3076 59.7393L71.3621 59.2926C69.8807 59.1118 67.7723 58.4905 65.1315 57.3653L64.9551 57.7793ZM71.3076 59.7393L71.2532 60.1859C72.2369 60.3059 72.7612 60.2266 73.0304 60.1493L72.9062 59.7168L72.7821 59.2843C72.6603 59.3192 72.2635 59.4025 71.3621 59.2926L71.3076 59.7393ZM72.9062 59.7168L73.3562 59.7108C73.3525 59.4302 73.2765 58.9058 72.8789 57.9998L72.4668 58.1807L72.0547 58.3615C72.4193 59.1922 72.4546 59.5959 72.4563 59.7228L72.9062 59.7168ZM72.4668 58.1807L72.8788 57.9998C72.2303 56.5223 70.9678 54.6075 69.1054 52.3739L68.7598 52.6621L68.4142 52.9503C70.2525 55.155 71.4549 56.995 72.0547 58.3615L72.4668 58.1807ZM68.7598 52.6621L69.1054 52.3739C65.4 47.9302 59.5961 42.5475 52.5663 37.3215L52.2979 37.6826L52.0294 38.0438C59.0195 43.2402 64.7662 48.5755 68.4142 52.9503L68.7598 52.6621ZM52.2979 37.6826L52.5663 37.3215C45.5366 32.0956 38.7101 28.0893 33.3873 25.8214L33.2109 26.2354L33.0345 26.6493C38.2748 28.8821 45.0394 32.8474 52.0294 38.0438L52.2979 37.6826ZM33.2109 26.2354L33.3873 25.8214C30.7119 24.6814 28.5146 24.0241 26.9129 23.8287L26.8584 24.2754L26.8039 24.7221C28.2853 24.9028 30.3937 25.5242 33.0345 26.6493L33.2109 26.2354Z" fill="black"/>
</g>
</g>
<path d="M18.3213 21.4551C19.7849 19.4869 22.3495 19.3751 24.3105 19.6143C26.4803 19.879 29.0951 20.7066 31.9336 21.916C37.6459 24.3499 44.7642 28.5497 51.9814 33.915C59.1985 39.2802 65.2715 44.8865 69.248 49.6553C71.2241 52.0251 72.7698 54.2914 73.6484 56.293C74.4425 58.102 75.0745 60.59 73.6113 62.5586C72.1479 64.5269 69.5832 64.6395 67.6221 64.4004C65.4523 64.1357 62.8367 63.3081 59.998 62.0986C54.2857 59.6647 47.1674 55.4649 39.9502 50.0996C32.7329 44.7342 26.6601 39.1273 22.6836 34.3584C20.7077 31.9887 19.1618 29.7232 18.2832 27.7217C17.4891 25.9125 16.8578 23.4238 18.3213 21.4551ZM23.7412 24.2754C22.798 24.1604 22.3369 24.2398 22.1416 24.2959C22.144 24.4988 22.2008 24.9631 22.583 25.834C23.2072 27.256 24.4396 29.1334 26.29 31.3525C29.9667 35.7616 35.7413 41.12 42.751 46.3311C49.7609 51.5423 56.5563 55.5289 61.8379 57.7793C64.4961 58.9119 66.6488 59.5512 68.1904 59.7393C69.1331 59.8542 69.5936 59.7729 69.7891 59.7168C69.7864 59.5131 69.7307 59.049 69.3496 58.1807C68.7254 56.7586 67.4921 54.8813 65.6416 52.6621C61.9649 48.2529 56.1905 42.8938 49.1807 37.6826C42.1708 32.4715 35.3753 28.4857 30.0938 26.2354C27.4356 25.1028 25.2828 24.4634 23.7412 24.2754Z" fill="#00A47B"/>
<path d="M18.3213 21.4551L17.9602 21.1866L17.9601 21.1866L18.3213 21.4551ZM24.3105 19.6143L24.365 19.1676L24.365 19.1676L24.3105 19.6143ZM31.9336 21.916L32.11 21.502L32.11 21.502L31.9336 21.916ZM51.9814 33.915L52.2499 33.5539L52.2499 33.5539L51.9814 33.915ZM69.248 49.6553L69.5937 49.3671L69.5937 49.3671L69.248 49.6553ZM73.6484 56.293L74.0605 56.1121L74.0605 56.1121L73.6484 56.293ZM73.6113 62.5586L73.9725 62.8271L73.9725 62.827L73.6113 62.5586ZM67.6221 64.4004L67.5676 64.8471L67.5676 64.8471L67.6221 64.4004ZM59.998 62.0986L59.8217 62.5126L59.8217 62.5126L59.998 62.0986ZM39.9502 50.0996L39.6817 50.4607L39.6817 50.4607L39.9502 50.0996ZM22.6836 34.3584L22.338 34.6466L22.338 34.6466L22.6836 34.3584ZM18.2832 27.7217L17.8712 27.9026L17.8712 27.9026L18.2832 27.7217ZM23.7412 24.2754L23.7957 23.8287L23.7957 23.8287L23.7412 24.2754ZM22.1416 24.2959L22.0173 23.8634L21.6876 23.9582L21.6916 24.3013L22.1416 24.2959ZM22.583 25.834L22.171 26.0148L22.171 26.0149L22.583 25.834ZM26.29 31.3525L25.9444 31.6407L25.9444 31.6407L26.29 31.3525ZM42.751 46.3311L42.4825 46.6922L42.4825 46.6922L42.751 46.3311ZM61.8379 57.7793L61.6615 58.1933L61.6615 58.1933L61.8379 57.7793ZM68.1904 59.7393L68.1359 60.1859L68.136 60.1859L68.1904 59.7393ZM69.7891 59.7168L69.9133 60.1493L70.2436 60.0545L70.239 59.7108L69.7891 59.7168ZM69.3496 58.1807L69.7617 57.9998L69.7617 57.9998L69.3496 58.1807ZM65.6416 52.6621L65.9872 52.3739L65.9872 52.3739L65.6416 52.6621ZM49.1807 37.6826L49.4491 37.3215L49.4491 37.3215L49.1807 37.6826ZM30.0938 26.2354L30.2701 25.8214L30.2701 25.8214L30.0938 26.2354ZM18.3213 21.4551L18.6824 21.7236C19.9867 19.9696 22.3125 19.8239 24.2561 20.0609L24.3105 19.6143L24.365 19.1676C22.3865 18.9263 19.583 19.0042 17.9602 21.1866L18.3213 21.4551ZM24.3105 19.6143L24.2561 20.0609C26.3656 20.3183 28.936 21.128 31.7572 22.33L31.9336 21.916L32.11 21.502C29.2542 20.2853 26.595 19.4396 24.365 19.1676L24.3105 19.6143ZM31.9336 21.916L31.7572 22.33C37.4283 24.7463 44.5156 28.9256 51.713 34.2762L51.9814 33.915L52.2499 33.5539C45.0129 28.1738 37.8636 23.9535 32.11 21.502L31.9336 21.916ZM51.9814 33.915L51.713 34.2762C58.9102 39.6266 64.9546 45.2091 68.9024 49.9435L69.248 49.6553L69.5937 49.3671C65.5884 44.5638 59.4868 38.9339 52.2499 33.5539L51.9814 33.915ZM69.248 49.6553L68.9024 49.9435C70.8664 52.2987 72.3822 54.5278 73.2364 56.4738L73.6484 56.293L74.0605 56.1121C73.1575 54.0551 71.5818 51.7514 69.5937 49.3671L69.248 49.6553ZM73.6484 56.293L73.2364 56.4738C74.0234 58.2668 74.5541 60.5358 73.2502 62.2902L73.6113 62.5586L73.9725 62.827C75.5949 60.6442 74.8616 57.9372 74.0605 56.1121L73.6484 56.293ZM73.6113 62.5586L73.2502 62.2901C71.9459 64.0443 69.62 64.1907 67.6765 63.9537L67.6221 64.4004L67.5676 64.8471C69.5463 65.0884 72.3498 65.0096 73.9725 62.8271L73.6113 62.5586ZM67.6221 64.4004L67.6766 63.9537C65.567 63.6964 62.9957 62.8867 60.1744 61.6846L59.998 62.0986L59.8217 62.5126C62.6776 63.7294 65.3376 64.5751 67.5676 64.8471L67.6221 64.4004ZM59.998 62.0986L60.1744 61.6846C54.5034 59.2683 47.416 55.089 40.2187 49.7385L39.9502 50.0996L39.6817 50.4607C46.9187 55.8408 54.068 60.0611 59.8217 62.5126L59.998 62.0986ZM39.9502 50.0996L40.2187 49.7385C33.0213 44.3879 26.977 38.8047 23.0292 34.0702L22.6836 34.3584L22.338 34.6466C26.3433 39.4499 32.4446 45.0806 39.6817 50.4607L39.9502 50.0996ZM22.6836 34.3584L23.0292 34.0702C21.0653 31.715 19.5495 29.4867 18.6953 27.5408L18.2832 27.7217L17.8712 27.9026C18.7741 29.9596 20.35 32.2625 22.338 34.6466L22.6836 34.3584ZM18.2832 27.7217L18.6953 27.5408C17.9083 25.7479 17.3781 23.4781 18.6824 21.7236L18.3213 21.4551L17.9601 21.1866C16.3374 23.3694 17.0699 26.0772 17.8712 27.9026L18.2832 27.7217ZM23.7412 24.2754L23.7957 23.8287C22.8127 23.7088 22.2874 23.7858 22.0173 23.8634L22.1416 24.2959L22.2659 24.7284C22.3864 24.6938 22.7832 24.6119 23.6867 24.7221L23.7412 24.2754ZM22.1416 24.2959L21.6916 24.3013C21.695 24.5822 21.7726 25.1073 22.171 26.0148L22.583 25.834L22.9951 25.6531C22.6289 24.8188 22.5931 24.4155 22.5916 24.2905L22.1416 24.2959ZM22.583 25.834L22.171 26.0149C22.8196 27.4924 24.0819 29.4071 25.9444 31.6407L26.29 31.3525L26.6357 31.0644C24.7973 28.8597 23.5949 27.0196 22.9951 25.6531L22.583 25.834ZM26.29 31.3525L25.9444 31.6407C29.6498 36.0843 35.453 41.4664 42.4825 46.6922L42.751 46.3311L43.0195 45.9699C36.0297 40.7736 30.2835 35.439 26.6356 31.0643L26.29 31.3525ZM42.751 46.3311L42.4825 46.6922C49.5123 51.9181 56.3386 55.9253 61.6615 58.1933L61.8379 57.7793L62.0143 57.3653C56.774 55.1325 50.0095 51.1664 43.0194 45.9699L42.751 46.3311ZM61.8379 57.7793L61.6615 58.1933C64.337 59.3332 66.5342 59.9906 68.1359 60.1859L68.1904 59.7393L68.2449 59.2926C66.7635 59.1119 64.6551 58.4905 62.0143 57.3653L61.8379 57.7793ZM68.1904 59.7393L68.136 60.1859C69.1198 60.3059 69.644 60.2266 69.9133 60.1493L69.7891 59.7168L69.6649 59.2843C69.5431 59.3192 69.1464 59.4025 68.2449 59.2926L68.1904 59.7393ZM69.7891 59.7168L70.239 59.7108C70.2353 59.4302 70.1593 58.9058 69.7617 57.9998L69.3496 58.1807L68.9375 58.3615C69.3021 59.1923 69.3374 59.5959 69.3391 59.7228L69.7891 59.7168ZM69.3496 58.1807L69.7617 57.9998C69.113 56.5221 67.8497 54.6075 65.9872 52.3739L65.6416 52.6621L65.296 52.9503C67.1345 55.1551 68.3377 56.9951 68.9376 58.3615L69.3496 58.1807ZM65.6416 52.6621L65.9872 52.3739C62.2818 47.9303 56.4788 42.5474 49.4491 37.3215L49.1807 37.6826L48.9122 38.0438C55.9022 43.2401 61.648 48.5756 65.296 52.9503L65.6416 52.6621ZM49.1807 37.6826L49.4491 37.3215C42.4194 32.0956 35.5929 28.0893 30.2701 25.8214L30.0938 26.2354L29.9174 26.6493C35.1576 28.8821 41.9222 32.8474 48.9122 38.0438L49.1807 37.6826ZM30.0938 26.2354L30.2701 25.8214C27.5946 24.6814 25.3975 24.0241 23.7957 23.8287L23.7412 24.2754L23.6867 24.7221C25.1681 24.9028 27.2765 25.5241 29.9174 26.6493L30.0938 26.2354Z" fill="black"/>
<g opacity="0.2">
<mask id="mask1_17403_3246" style="mask-type:alpha" maskUnits="userSpaceOnUse" x="16" y="19" width="59" height="46">
<path d="M18.3213 21.4551C19.7849 19.4868 22.3495 19.3751 24.3105 19.6143C26.4802 19.879 29.0952 20.7057 31.9336 21.915C37.646 24.3489 44.7642 28.5497 51.9814 33.915C59.1985 39.2803 65.2715 44.8865 69.248 49.6553C71.2241 52.0251 72.7698 54.2914 73.6484 56.293C74.4425 58.102 75.0744 60.59 73.6113 62.5586C72.1479 64.5268 69.5831 64.6395 67.6221 64.4004C65.4523 64.1357 62.8367 63.3081 59.998 62.0986C54.2857 59.6647 47.1674 55.4649 39.9502 50.0996C32.7329 44.7342 26.6601 39.1273 22.6836 34.3584C20.7077 31.9887 19.1618 29.7231 18.2832 27.7217C17.4891 25.9125 16.8578 23.4238 18.3213 21.4551ZM23.7412 24.2754C22.7979 24.1604 22.3369 24.2398 22.1416 24.2959C22.144 24.4989 22.2008 24.9633 22.583 25.834C23.2073 27.256 24.4397 29.1335 26.29 31.3525C29.9667 35.7616 35.7414 41.12 42.751 46.3311C49.7609 51.5423 56.5563 55.5289 61.8379 57.7793C64.4961 58.9119 66.6488 59.5512 68.1904 59.7393C69.133 59.8542 69.5935 59.7729 69.7891 59.7168C69.7864 59.5131 69.7307 59.049 69.3496 58.1807C68.7254 56.7586 67.4921 54.8813 65.6416 52.6621C61.9649 48.2529 56.1906 42.8938 49.1807 37.6826C42.1708 32.4714 35.3753 28.4857 30.0938 26.2354C27.4355 25.1028 25.2828 24.4634 23.7412 24.2754Z" fill="#00A47B"/>
<path d="M18.3213 21.4551L17.9602 21.1866L17.9601 21.1866L18.3213 21.4551ZM24.3105 19.6143L24.365 19.1676L24.365 19.1676L24.3105 19.6143ZM31.9336 21.915L32.11 21.5011L32.11 21.501L31.9336 21.915ZM51.9814 33.915L52.2499 33.5539L52.2499 33.5539L51.9814 33.915ZM69.248 49.6553L69.5937 49.3671L69.5937 49.3671L69.248 49.6553ZM73.6484 56.293L74.0605 56.1121L74.0605 56.1121L73.6484 56.293ZM73.6113 62.5586L73.9724 62.8271L73.9725 62.827L73.6113 62.5586ZM67.6221 64.4004L67.5676 64.8471L67.5676 64.8471L67.6221 64.4004ZM59.998 62.0986L59.8217 62.5126L59.8217 62.5126L59.998 62.0986ZM39.9502 50.0996L39.6817 50.4607L39.6817 50.4607L39.9502 50.0996ZM22.6836 34.3584L22.338 34.6466L22.338 34.6466L22.6836 34.3584ZM18.2832 27.7217L17.8712 27.9026L17.8712 27.9026L18.2832 27.7217ZM23.7412 24.2754L23.7957 23.8287L23.7957 23.8287L23.7412 24.2754ZM22.1416 24.2959L22.0173 23.8634L21.6875 23.9582L21.6916 24.3013L22.1416 24.2959ZM22.583 25.834L22.171 26.0148L22.171 26.0149L22.583 25.834ZM26.29 31.3525L25.9444 31.6407L25.9444 31.6407L26.29 31.3525ZM42.751 46.3311L42.4825 46.6922L42.4825 46.6922L42.751 46.3311ZM61.8379 57.7793L61.6615 58.1933L61.6615 58.1933L61.8379 57.7793ZM68.1904 59.7393L68.1359 60.1859L68.136 60.1859L68.1904 59.7393ZM69.7891 59.7168L69.9132 60.1493L70.2436 60.0545L70.239 59.7108L69.7891 59.7168ZM69.3496 58.1807L69.7617 57.9998L69.7617 57.9998L69.3496 58.1807ZM65.6416 52.6621L65.9872 52.3739L65.9872 52.3739L65.6416 52.6621ZM49.1807 37.6826L49.4491 37.3215L49.4491 37.3215L49.1807 37.6826ZM30.0938 26.2354L30.2701 25.8214L30.2701 25.8214L30.0938 26.2354ZM18.3213 21.4551L18.6824 21.7236C19.9867 19.9695 22.3125 19.8239 24.2561 20.0609L24.3105 19.6143L24.365 19.1676C22.3865 18.9262 19.583 19.0041 17.9602 21.1866L18.3213 21.4551ZM24.3105 19.6143L24.2561 20.0609C26.3656 20.3183 28.9362 21.1271 31.7572 22.329L31.9336 21.915L32.11 21.501C29.2542 20.2843 26.5948 19.4396 24.365 19.1676L24.3105 19.6143ZM31.9336 21.915L31.7572 22.329C37.4283 24.7453 44.5156 28.9256 51.713 34.2762L51.9814 33.915L52.2499 33.5539C45.0129 28.1738 37.8637 23.9526 32.11 21.5011L31.9336 21.915ZM51.9814 33.915L51.713 34.2762C58.9102 39.6267 64.9546 45.2091 68.9024 49.9435L69.248 49.6553L69.5937 49.3671C65.5884 44.5638 59.4869 38.9339 52.2499 33.5539L51.9814 33.915ZM69.248 49.6553L68.9024 49.9435C70.8664 52.2987 72.3822 54.5278 73.2364 56.4738L73.6484 56.293L74.0605 56.1121C73.1575 54.0551 71.5818 51.7514 69.5937 49.3671L69.248 49.6553ZM73.6484 56.293L73.2364 56.4738C74.0234 58.2667 74.5541 60.5358 73.2502 62.2902L73.6113 62.5586L73.9725 62.827C75.5948 60.6443 74.8616 57.9372 74.0605 56.1121L73.6484 56.293ZM73.6113 62.5586L73.2502 62.2901C71.946 64.0442 69.62 64.1907 67.6765 63.9537L67.6221 64.4004L67.5676 64.8471C69.5463 65.0884 72.3498 65.0095 73.9724 62.8271L73.6113 62.5586ZM67.6221 64.4004L67.6766 63.9537C65.567 63.6964 62.9957 62.8867 60.1744 61.6846L59.998 62.0986L59.8217 62.5126C62.6776 63.7294 65.3376 64.5751 67.5676 64.8471L67.6221 64.4004ZM59.998 62.0986L60.1744 61.6846C54.5034 59.2683 47.416 55.089 40.2187 49.7385L39.9502 50.0996L39.6817 50.4607C46.9187 55.8408 54.0681 60.0611 59.8217 62.5126L59.998 62.0986ZM39.9502 50.0996L40.2187 49.7385C33.0213 44.3879 26.977 38.8047 23.0292 34.0702L22.6836 34.3584L22.338 34.6466C26.3433 39.4499 32.4446 45.0806 39.6817 50.4607L39.9502 50.0996ZM22.6836 34.3584L23.0292 34.0702C21.0653 31.715 19.5495 29.4867 18.6952 27.5408L18.2832 27.7217L17.8712 27.9026C18.7741 29.9596 20.35 32.2625 22.338 34.6466L22.6836 34.3584ZM18.2832 27.7217L18.6953 27.5408C17.9083 25.7479 17.3781 23.4781 18.6824 21.7236L18.3213 21.4551L17.9601 21.1866C16.3374 23.3694 17.0699 26.0772 17.8712 27.9026L18.2832 27.7217ZM23.7412 24.2754L23.7957 23.8287C22.8126 23.7088 22.2874 23.7858 22.0173 23.8634L22.1416 24.2959L22.2659 24.7284C22.3864 24.6938 22.7832 24.6119 23.6867 24.7221L23.7412 24.2754ZM22.1416 24.2959L21.6916 24.3013C21.695 24.5823 21.7727 25.1075 22.171 26.0148L22.583 25.834L22.9951 25.6531C22.629 24.8191 22.5931 24.4155 22.5916 24.2905L22.1416 24.2959ZM22.583 25.834L22.171 26.0149C22.8196 27.4924 24.082 29.4072 25.9444 31.6407L26.29 31.3525L26.6357 31.0644C24.7974 28.8598 23.5949 27.0196 22.9951 25.6531L22.583 25.834ZM26.29 31.3525L25.9444 31.6407C29.6498 36.0843 35.453 41.4664 42.4825 46.6922L42.751 46.3311L43.0195 45.9699C36.0297 40.7736 30.2835 35.439 26.6356 31.0643L26.29 31.3525ZM42.751 46.3311L42.4825 46.6922C49.5123 51.9182 56.3386 55.9253 61.6615 58.1933L61.8379 57.7793L62.0143 57.3653C56.774 55.1325 50.0096 51.1664 43.0194 45.9699L42.751 46.3311ZM61.8379 57.7793L61.6615 58.1933C64.337 59.3333 66.5342 59.9906 68.1359 60.1859L68.1904 59.7393L68.2449 59.2926C66.7635 59.1119 64.6552 58.4905 62.0143 57.3653L61.8379 57.7793ZM68.1904 59.7393L68.136 60.1859C69.1197 60.3059 69.644 60.2266 69.9132 60.1493L69.7891 59.7168L69.6649 59.2843C69.5431 59.3192 69.1464 59.4025 68.2449 59.2926L68.1904 59.7393ZM69.7891 59.7168L70.239 59.7108C70.2353 59.4303 70.1592 58.9057 69.7617 57.9998L69.3496 58.1807L68.9375 58.3615C69.3021 59.1923 69.3374 59.5959 69.3391 59.7228L69.7891 59.7168ZM69.3496 58.1807L69.7617 57.9998C69.113 56.5221 67.8497 54.6075 65.9872 52.3739L65.6416 52.6621L65.296 52.9503C67.1345 55.1551 68.3377 56.9951 68.9376 58.3615L69.3496 58.1807ZM65.6416 52.6621L65.9872 52.3739C62.2818 47.9303 56.4789 42.5474 49.4491 37.3215L49.1807 37.6826L48.9122 38.0438C55.9022 43.2402 61.648 48.5755 65.296 52.9503L65.6416 52.6621ZM49.1807 37.6826L49.4491 37.3215C42.4194 32.0955 35.593 28.0893 30.2701 25.8214L30.0938 26.2354L29.9174 26.6493C35.1576 28.8821 41.9222 32.8473 48.9122 38.0438L49.1807 37.6826ZM30.0938 26.2354L30.2701 25.8214C27.5946 24.6814 25.3975 24.0241 23.7957 23.8287L23.7412 24.2754L23.6867 24.7221C25.1681 24.9028 27.2764 25.5241 29.9174 26.6493L30.0938 26.2354Z" fill="black"/>
</mask>
<g mask="url(#mask1_17403_3246)">
<path d="M47.8369 7.5625C50.29 7.56253 51.9106 9.55386 52.8887 11.2705C53.9708 13.1698 54.8669 15.7621 55.5898 18.7617C57.0446 24.7982 57.9209 33.0167 57.9209 42.0098C57.9209 51.0028 57.0446 59.2214 55.5898 65.2578C54.8669 68.2574 53.9708 70.8498 52.8887 72.749C51.9106 74.4657 50.29 76.457 47.8369 76.457C45.3841 76.4568 43.7642 74.4656 42.7861 72.749C41.704 70.8498 40.8079 68.2574 40.085 65.2578C38.6302 59.2214 37.7539 51.0028 37.7539 42.0098C37.7539 33.0167 38.6302 24.7982 40.085 18.7617C40.8079 15.7621 41.704 13.1698 42.7861 11.2705C43.7642 9.55396 45.3841 7.56276 47.8369 7.5625ZM47.8369 12.3232C47.6754 12.4465 47.3367 12.769 46.8662 13.5947C46.0974 14.9441 45.3264 17.0532 44.6494 19.8623C43.3044 25.4435 42.4492 33.275 42.4492 42.0098C42.4492 50.7445 43.3044 58.576 44.6494 64.1572C45.3264 66.9663 46.0974 69.0755 46.8662 70.4248C47.3358 71.2489 47.675 71.5706 47.8369 71.6943C47.9986 71.571 48.3384 71.25 48.8086 70.4248C49.5774 69.0754 50.3484 66.9663 51.0254 64.1572C52.3704 58.576 53.2256 50.7445 53.2256 42.0098C53.2256 33.2751 52.3704 25.4435 51.0254 19.8623C50.3484 17.0533 49.5774 14.9441 48.8086 13.5947C48.3376 12.7681 47.9983 12.4461 47.8369 12.3232Z" fill="black"/>
<path d="M47.8369 7.5625L47.8369 7.1125L47.8369 7.1125L47.8369 7.5625ZM52.8887 11.2705L53.2797 11.0477L53.2797 11.0477L52.8887 11.2705ZM55.5898 18.7617L56.0273 18.6563L56.0273 18.6563L55.5898 18.7617ZM57.9209 42.0098L58.3709 42.0098L58.3709 42.0098L57.9209 42.0098ZM55.5898 65.2578L56.0273 65.3632L56.0273 65.3632L55.5898 65.2578ZM52.8887 72.749L53.2797 72.9718L53.2797 72.9718L52.8887 72.749ZM47.8369 76.457L47.8369 76.907L47.8369 76.907L47.8369 76.457ZM42.7861 72.749L42.3951 72.9718L42.3951 72.9718L42.7861 72.749ZM40.085 65.2578L39.6475 65.3632L39.6475 65.3632L40.085 65.2578ZM37.7539 42.0098L37.3039 42.0098L37.3039 42.0098L37.7539 42.0098ZM40.085 18.7617L39.6475 18.6563L39.6475 18.6563L40.085 18.7617ZM42.7861 11.2705L42.3951 11.0477L42.3951 11.0477L42.7861 11.2705ZM47.8369 12.3232L48.1096 11.9653L47.8367 11.7574L47.564 11.9654L47.8369 12.3232ZM46.8662 13.5947L46.4752 13.3719L46.4752 13.372L46.8662 13.5947ZM44.6494 19.8623L44.2119 19.7569L44.2119 19.7569L44.6494 19.8623ZM42.4492 42.0098L41.9992 42.0098L41.9992 42.0098L42.4492 42.0098ZM44.6494 64.1572L44.2119 64.2627L44.2119 64.2627L44.6494 64.1572ZM46.8662 70.4248L46.4752 70.6476L46.4752 70.6476L46.8662 70.4248ZM47.8369 71.6943L47.5637 72.0519L47.8367 72.2605L48.1099 72.0521L47.8369 71.6943ZM48.8086 70.4248L49.1996 70.6476L49.1996 70.6476L48.8086 70.4248ZM51.0254 64.1572L51.4629 64.2627L51.4629 64.2627L51.0254 64.1572ZM53.2256 42.0098L53.6756 42.0098L53.6756 42.0098L53.2256 42.0098ZM51.0254 19.8623L51.4629 19.7569L51.4629 19.7569L51.0254 19.8623ZM48.8086 13.5947L49.1996 13.372L49.1996 13.3719L48.8086 13.5947ZM47.8369 7.5625L47.8369 8.0125C50.0231 8.01253 51.5284 9.79206 52.4977 11.4933L52.8887 11.2705L53.2797 11.0477C52.2928 9.31567 50.5568 7.11254 47.8369 7.1125L47.8369 7.5625ZM52.8887 11.2705L52.4977 11.4933C53.5498 13.3398 54.4339 15.8858 55.1524 18.8671L55.5898 18.7617L56.0273 18.6563C55.3 15.6384 54.3918 12.9997 53.2797 11.0477L52.8887 11.2705ZM55.5898 18.7617L55.1524 18.8671C56.5966 24.86 57.4709 33.0414 57.4709 42.0098L57.9209 42.0098L58.3709 42.0098C58.3709 32.9919 57.4926 24.7364 56.0273 18.6563L55.5898 18.7617ZM57.9209 42.0098L57.4709 42.0098C57.4709 50.9781 56.5966 59.1596 55.1524 65.1524L55.5898 65.2578L56.0273 65.3632C57.4926 59.2832 58.3709 51.0276 58.3709 42.0098L57.9209 42.0098ZM55.5898 65.2578L55.1524 65.1524C54.4339 68.1337 53.5498 70.6797 52.4977 72.5263L52.8887 72.749L53.2797 72.9718C54.3918 71.0199 55.3 68.3812 56.0273 65.3632L55.5898 65.2578ZM52.8887 72.749L52.4977 72.5262C51.5284 74.2275 50.0231 76.007 47.8369 76.007L47.8369 76.457L47.8369 76.907C50.5568 76.907 52.2928 74.7039 53.2797 72.9718L52.8887 72.749ZM47.8369 76.457L47.837 76.007C45.651 76.0068 44.1464 74.2274 43.1771 72.5262L42.7861 72.749L42.3951 72.9718C43.3819 74.7037 45.1172 76.9067 47.8369 76.907L47.8369 76.457ZM42.7861 72.749L43.1771 72.5263C42.125 70.6797 41.2409 68.1337 40.5224 65.1524L40.085 65.2578L39.6475 65.3632C40.3748 68.3812 41.283 71.0199 42.3951 72.9718L42.7861 72.749ZM40.085 65.2578L40.5224 65.1524C39.0782 59.1596 38.2039 50.9781 38.2039 42.0098L37.7539 42.0098L37.3039 42.0098C37.3039 51.0276 38.1822 59.2832 39.6475 65.3632L40.085 65.2578ZM37.7539 42.0098L38.2039 42.0098C38.2039 33.0414 39.0782 24.86 40.5224 18.8671L40.085 18.7617L39.6475 18.6563C38.1822 24.7364 37.3039 32.9919 37.3039 42.0098L37.7539 42.0098ZM40.085 18.7617L40.5224 18.8671C41.2409 15.8858 42.125 13.3398 43.1771 11.4933L42.7861 11.2705L42.3951 11.0477C41.283 12.9997 40.3748 15.6383 39.6475 18.6563L40.085 18.7617ZM42.7861 11.2705L43.1771 11.4933C44.1464 9.79209 45.651 8.01273 47.837 8.0125L47.8369 7.5625L47.8369 7.1125C45.1172 7.11278 43.3819 9.31583 42.3951 11.0477L42.7861 11.2705ZM47.8369 12.3232L47.564 11.9654C47.3405 12.1359 46.9656 12.5114 46.4752 13.3719L46.8662 13.5947L47.2572 13.8175C47.7079 13.0266 48.0102 12.757 48.1098 12.6811L47.8369 12.3232ZM46.8662 13.5947L46.4752 13.372C45.6764 14.774 44.8933 16.9295 44.2119 19.7569L44.6494 19.8623L45.0869 19.9677C45.7595 17.1769 46.5184 15.1141 47.2572 13.8175L46.8662 13.5947ZM44.6494 19.8623L44.2119 19.7569C42.8564 25.3818 41.9992 33.2503 41.9992 42.0098L42.4492 42.0098L42.8992 42.0098C42.8992 33.2998 43.7524 25.5053 45.0869 19.9677L44.6494 19.8623ZM42.4492 42.0098L41.9992 42.0098C41.9992 50.7693 42.8564 58.6378 44.2119 64.2627L44.6494 64.1572L45.0869 64.0518C43.7524 58.5142 42.8992 50.7198 42.8992 42.0098L42.4492 42.0098ZM44.6494 64.1572L44.2119 64.2627C44.8933 67.09 45.6764 69.2455 46.4752 70.6476L46.8662 70.4248L47.2572 70.202C46.5184 68.9054 45.7595 66.8426 45.0869 64.0518L44.6494 64.1572ZM46.8662 70.4248L46.4752 70.6476C46.9651 71.5073 47.3407 71.8815 47.5637 72.0519L47.8369 71.6943L48.1101 71.3368C48.0094 71.2598 47.7065 70.9905 47.2572 70.202L46.8662 70.4248ZM47.8369 71.6943L48.1099 72.0521C48.3326 71.8821 48.7089 71.5087 49.1996 70.6476L48.8086 70.4248L48.4176 70.202C47.9679 70.9912 47.6645 71.2598 47.5639 71.3366L47.8369 71.6943ZM48.8086 70.4248L49.1996 70.6476C49.9984 69.2455 50.7815 67.09 51.4629 64.2627L51.0254 64.1572L50.5879 64.0518C49.9153 66.8426 49.1564 68.9054 48.4176 70.202L48.8086 70.4248ZM51.0254 64.1572L51.4629 64.2627C52.8184 58.6378 53.6756 50.7693 53.6756 42.0098L53.2256 42.0098L52.7756 42.0098C52.7756 50.7198 51.9224 58.5142 50.5879 64.0518L51.0254 64.1572ZM53.2256 42.0098L53.6756 42.0098C53.6756 33.2503 52.8184 25.3817 51.4629 19.7569L51.0254 19.8623L50.5879 19.9677C51.9224 25.5053 52.7756 33.2998 52.7756 42.0098L53.2256 42.0098ZM51.0254 19.8623L51.4629 19.7569C50.7815 16.9296 49.9984 14.774 49.1996 13.372L48.8086 13.5947L48.4176 13.8175C49.1564 15.1141 49.9153 17.1769 50.5879 19.9677L51.0254 19.8623ZM48.8086 13.5947L49.1996 13.3719C48.7085 12.5101 48.3328 12.1353 48.1096 11.9653L47.8369 12.3232L47.5642 12.6812C47.6638 12.757 47.9666 13.026 48.4176 13.8175L48.8086 13.5947Z" fill="black"/>
</g>
</g>
<path d="M45.9658 7.5625C48.4189 7.5625 50.0395 9.55387 51.0176 11.2705C52.0997 13.1698 52.9958 15.7621 53.7188 18.7617C55.1735 24.7982 56.0498 33.0166 56.0498 42.0098C56.0498 51.0028 55.1735 59.2214 53.7188 65.2578C52.9958 68.2574 52.0997 70.8498 51.0176 72.749C50.0395 74.4656 48.4188 76.457 45.9658 76.457C43.5132 76.4566 41.893 74.4655 40.915 72.749C39.8329 70.8498 38.9368 68.2574 38.2139 65.2578C36.7591 59.2214 35.8828 51.0028 35.8828 42.0098C35.8828 33.0167 36.7591 24.7982 38.2139 18.7617C38.9368 15.7622 39.833 13.1697 40.915 11.2705C41.893 9.55403 43.5132 7.56292 45.9658 7.5625ZM45.9658 12.3232C45.8042 12.4466 45.4654 12.7693 44.9951 13.5947C44.2263 14.9441 43.4553 17.0533 42.7783 19.8623C41.4333 25.4435 40.5781 33.2751 40.5781 42.0098C40.5781 50.7445 41.4333 58.576 42.7783 64.1572C43.4553 66.9662 44.2263 69.0754 44.9951 70.4248C45.4646 71.2487 45.8039 71.5705 45.9658 71.6943C46.1275 71.571 46.4673 71.2499 46.9375 70.4248C47.7063 69.0755 48.4773 66.9663 49.1543 64.1572C50.4993 58.576 51.3545 50.7445 51.3545 42.0098C51.3545 33.275 50.4993 25.4435 49.1543 19.8623C48.4773 17.0532 47.7063 14.9441 46.9375 13.5947C46.4664 12.768 46.1271 12.4461 45.9658 12.3232Z" fill="#00A47B"/>
<path d="M45.9658 7.5625L45.9658 7.1125L45.9657 7.1125L45.9658 7.5625ZM51.0176 11.2705L51.4086 11.0477L51.4086 11.0477L51.0176 11.2705ZM53.7188 18.7617L54.1562 18.6563L54.1562 18.6563L53.7188 18.7617ZM56.0498 42.0098L56.4998 42.0098L56.4998 42.0098L56.0498 42.0098ZM53.7188 65.2578L54.1562 65.3632L54.1562 65.3632L53.7188 65.2578ZM51.0176 72.749L51.4086 72.9718L51.4086 72.9718L51.0176 72.749ZM45.9658 76.457L45.9657 76.907L45.9658 76.907L45.9658 76.457ZM40.915 72.749L40.524 72.9718L40.5241 72.9718L40.915 72.749ZM38.2139 65.2578L37.7764 65.3632L37.7764 65.3632L38.2139 65.2578ZM35.8828 42.0098L35.4328 42.0098L35.4328 42.0098L35.8828 42.0098ZM38.2139 18.7617L37.7764 18.6563L37.7764 18.6563L38.2139 18.7617ZM40.915 11.2705L40.5241 11.0477L40.524 11.0477L40.915 11.2705ZM45.9658 12.3232L46.2385 11.9653L45.9656 11.7574L45.6929 11.9655L45.9658 12.3232ZM44.9951 13.5947L44.6041 13.3719L44.6041 13.372L44.9951 13.5947ZM42.7783 19.8623L42.3408 19.7569L42.3408 19.7569L42.7783 19.8623ZM40.5781 42.0098L40.1281 42.0098L40.1281 42.0098L40.5781 42.0098ZM42.7783 64.1572L42.3408 64.2627L42.3408 64.2627L42.7783 64.1572ZM44.9951 70.4248L44.6041 70.6476L44.6041 70.6476L44.9951 70.4248ZM45.9658 71.6943L45.6925 72.0518L45.9656 72.2606L46.2388 72.0521L45.9658 71.6943ZM46.9375 70.4248L47.3285 70.6476L47.3285 70.6476L46.9375 70.4248ZM49.1543 64.1572L49.5918 64.2627L49.5918 64.2627L49.1543 64.1572ZM51.3545 42.0098L51.8045 42.0098L51.8045 42.0098L51.3545 42.0098ZM49.1543 19.8623L49.5918 19.7569L49.5918 19.7569L49.1543 19.8623ZM46.9375 13.5947L47.3285 13.372L47.3285 13.3719L46.9375 13.5947ZM45.9658 7.5625L45.9658 8.0125C48.152 8.0125 49.6573 9.79205 50.6266 11.4933L51.0176 11.2705L51.4086 11.0477C50.4217 9.31569 48.6857 7.1125 45.9658 7.1125L45.9658 7.5625ZM51.0176 11.2705L50.6266 11.4933C51.6787 13.3398 52.5628 15.8858 53.2813 18.8671L53.7188 18.7617L54.1562 18.6563C53.4289 15.6384 52.5207 12.9997 51.4086 11.0477L51.0176 11.2705ZM53.7188 18.7617L53.2813 18.8671C54.7255 24.86 55.5998 33.0414 55.5998 42.0098L56.0498 42.0098L56.4998 42.0098C56.4998 32.9919 55.6215 24.7364 54.1562 18.6563L53.7188 18.7617ZM56.0498 42.0098L55.5998 42.0098C55.5998 50.9781 54.7255 59.1596 53.2813 65.1524L53.7188 65.2578L54.1562 65.3632C55.6215 59.2832 56.4998 51.0276 56.4998 42.0098L56.0498 42.0098ZM53.7188 65.2578L53.2813 65.1524C52.5628 68.1337 51.6787 70.6797 50.6266 72.5263L51.0176 72.749L51.4086 72.9718C52.5207 71.0199 53.4289 68.3811 54.1562 65.3632L53.7188 65.2578ZM51.0176 72.749L50.6266 72.5262C49.6573 74.2275 48.152 76.007 45.9658 76.007L45.9658 76.457L45.9658 76.907C48.6857 76.907 50.4217 74.7038 51.4086 72.9718L51.0176 72.749ZM45.9658 76.457L45.9659 76.007C43.7801 76.0067 42.2753 74.2273 41.306 72.5262L40.915 72.749L40.5241 72.9718C41.5108 74.7037 43.2463 76.9066 45.9657 76.907L45.9658 76.457ZM40.915 72.749L41.306 72.5263C40.254 70.6797 39.3698 68.1337 38.6513 65.1524L38.2139 65.2578L37.7764 65.3632C38.5037 68.3811 39.4119 71.0199 40.524 72.9718L40.915 72.749ZM38.2139 65.2578L38.6513 65.1524C37.2071 59.1596 36.3328 50.9781 36.3328 42.0098L35.8828 42.0098L35.4328 42.0098C35.4328 51.0276 36.3111 59.2832 37.7764 65.3632L38.2139 65.2578ZM35.8828 42.0098L36.3328 42.0098C36.3328 33.0414 37.2071 24.86 38.6513 18.8671L38.2139 18.7617L37.7764 18.6563C36.3111 24.7364 35.4328 32.992 35.4328 42.0098L35.8828 42.0098ZM38.2139 18.7617L38.6513 18.8671C39.3698 15.8859 40.254 13.3398 41.306 11.4933L40.915 11.2705L40.524 11.0477C39.412 12.9997 38.5037 15.6384 37.7764 18.6563L38.2139 18.7617ZM40.915 11.2705L41.306 11.4933C42.2753 9.79219 43.7801 8.01287 45.9659 8.0125L45.9658 7.5625L45.9657 7.1125C43.2463 7.11296 41.5108 9.31587 40.5241 11.0477L40.915 11.2705ZM45.9658 12.3232L45.6929 11.9655C45.4693 12.136 45.0943 12.5118 44.6041 13.3719L44.9951 13.5947L45.3861 13.8175C45.8366 13.0269 46.139 12.7571 46.2388 12.681L45.9658 12.3232ZM44.9951 13.5947L44.6041 13.372C43.8053 14.774 43.0222 16.9296 42.3408 19.7569L42.7783 19.8623L43.2158 19.9677C43.8883 17.177 44.6473 15.1141 45.3861 13.8175L44.9951 13.5947ZM42.7783 19.8623L42.3408 19.7569C40.9853 25.3817 40.1281 33.2503 40.1281 42.0098L40.5781 42.0098L41.0281 42.0098C41.0281 33.2998 41.8813 25.5053 43.2158 19.9677L42.7783 19.8623ZM40.5781 42.0098L40.1281 42.0098C40.1281 50.7693 40.9853 58.6378 42.3408 64.2627L42.7783 64.1572L43.2158 64.0518C41.8813 58.5142 41.0281 50.7198 41.0281 42.0098L40.5781 42.0098ZM42.7783 64.1572L42.3408 64.2627C43.0222 67.0899 43.8053 69.2455 44.6041 70.6476L44.9951 70.4248L45.3861 70.202C44.6473 68.9054 43.8884 66.8426 43.2158 64.0518L42.7783 64.1572ZM44.9951 70.4248L44.6041 70.6476C45.0939 71.5071 45.4695 71.8814 45.6925 72.0518L45.9658 71.6943L46.2391 71.3368C46.1382 71.2597 45.8353 70.9903 45.3861 70.202L44.9951 70.4248ZM45.9658 71.6943L46.2388 72.0521C46.4615 71.8821 46.8378 71.5086 47.3285 70.6476L46.9375 70.4248L46.5465 70.202C46.0968 70.9911 45.7934 71.2598 45.6928 71.3366L45.9658 71.6943ZM46.9375 70.4248L47.3285 70.6476C48.1273 69.2455 48.9104 67.0899 49.5918 64.2627L49.1543 64.1572L48.7168 64.0518C48.0443 66.8426 47.2853 68.9054 46.5465 70.202L46.9375 70.4248ZM49.1543 64.1572L49.5918 64.2627C50.9473 58.6378 51.8045 50.7693 51.8045 42.0098L51.3545 42.0098L50.9045 42.0098C50.9045 50.7198 50.0513 58.5142 48.7168 64.0518L49.1543 64.1572ZM51.3545 42.0098L51.8045 42.0098C51.8045 33.2503 50.9473 25.3818 49.5918 19.7569L49.1543 19.8623L48.7168 19.9677C50.0513 25.5053 50.9045 33.2998 50.9045 42.0098L51.3545 42.0098ZM49.1543 19.8623L49.5918 19.7569C48.9104 16.9296 48.1274 14.774 47.3285 13.372L46.9375 13.5947L46.5465 13.8175C47.2853 15.1141 48.0442 17.1769 48.7168 19.9677L49.1543 19.8623ZM46.9375 13.5947L47.3285 13.3719C46.8374 12.5101 46.4616 12.1352 46.2385 11.9653L45.9658 12.3232L45.6932 12.6812C45.7926 12.757 46.0955 13.026 46.5465 13.8175L46.9375 13.5947Z" fill="black"/>
<path d="M78.1899 29.681C71.8118 28.9852 67.7934 31.4176 66.5264 33.1657L66.6894 34.6012L66.9693 35.0899C73.3125 35.5051 77.0927 31.657 78.1899 29.681Z" fill="#00A47B"/>
<path d="M66.5264 33.1657C67.7934 31.4176 71.8118 28.9852 78.1899 29.681C77.0927 31.657 73.3125 35.5051 66.9693 35.0899" stroke="#101828" stroke-width="0.9" stroke-linecap="round"/>
<path d="M72.8511 40.4736C68.0764 43.6479 67.8053 49.4204 68.6552 52.5298L70.129 54.3119L70.7753 54.7746C75.26 51.2539 74.0278 43.7736 72.8511 40.4736Z" fill="#00A47B"/>
<path d="M68.6552 52.5298C67.8053 49.4204 68.0764 43.6479 72.8511 40.4736C74.0278 43.7736 75.26 51.2539 70.7753 54.7746" stroke="#101828" stroke-width="0.9" stroke-linecap="round"/>
<path d="M44.559 23.4293C50.1789 24.5651 52.6101 29.8077 52.9976 33.0079L52.306 35.2145L51.8823 35.8871C46.4001 34.321 44.7159 26.9293 44.559 23.4293Z" fill="#00A47B"/>
<path d="M52.9976 33.0079C52.6101 29.8077 50.1789 24.5651 44.559 23.4293C44.7159 26.9293 46.4001 34.321 51.8823 35.8871" stroke="#101828" stroke-width="0.9" stroke-linecap="round"/>
<path d="M13.7326 33.7118C18.6786 30.8117 23.9858 33.0984 26.4081 35.2253L27.3638 37.3311L27.4963 38.1148C22.3661 40.6024 16.1829 36.216 13.7326 33.7118Z" fill="#00A47B"/>
<path d="M26.4081 35.2253C23.9858 33.0984 18.6786 30.8117 13.7326 33.7118C16.1829 36.216 22.3661 40.6024 27.4963 38.1148" stroke="#101828" stroke-width="0.9" stroke-linecap="round"/>
<path d="M65.4424 11.2672C60.5213 15.0637 59.741 20.0053 60.2877 22.4349L61.5593 23.5971L62.1455 23.8373C66.816 19.8157 66.2895 13.7816 65.4424 11.2672Z" fill="#00A47B"/>
<path d="M60.2877 22.4349C59.741 20.0053 60.5213 15.0637 65.4424 11.2672C66.2895 13.7816 66.816 19.8157 62.1455 23.8373" stroke="#101828" stroke-width="0.9" stroke-linecap="round"/>
<path d="M59.607 71.2897C59.7209 67.5336 55.7559 65.1083 53.1261 64.3235L51.1297 64.3904L50.4805 64.5459C50.7564 68.2871 56.6798 70.6006 59.607 71.2897Z" fill="#00A47B"/>
<path d="M53.1261 64.3235C55.7559 65.1083 59.7209 67.5336 59.607 71.2897C56.6798 70.6006 50.7564 68.2871 50.4805 64.5459" stroke="#101828" stroke-width="0.9" stroke-linecap="round"/>
<circle cx="29.7951" cy="19.8732" r="3.42789" fill="#FECC2F" stroke="#101828" stroke-width="0.9"/>
<path opacity="0.2" fill-rule="evenodd" clip-rule="evenodd" d="M30.7315 19.25C30.7315 20.9824 29.4463 22.4146 27.7773 22.6454C28.3432 23.0578 29.0402 23.3011 29.7941 23.3011C31.6872 23.3011 33.222 21.7664 33.222 19.8732C33.222 17.98 31.6872 16.4453 29.7941 16.4453C29.6333 16.4453 29.4752 16.4564 29.3203 16.4778C30.1756 17.1011 30.7315 18.1106 30.7315 19.25Z" fill="#101828" stroke="#101828" stroke-width="0.9"/>
<path d="M32.4949 12.9661C29.4548 16.0658 30.7454 21.0347 32.248 23.6321L33.9089 25.0424L34.554 25.3876C37.2683 22.0141 34.3122 15.701 32.4949 12.9661Z" fill="#00A47B"/>
<path d="M32.248 23.6321C30.7454 21.0347 29.4548 16.0658 32.4949 12.9661C34.3122 15.701 37.2683 22.0141 34.554 25.3876" stroke="#101828" stroke-width="0.9" stroke-linecap="round"/>
<circle cx="23.5607" cy="57.5841" r="3.42789" fill="#FECC2F" stroke="#101828" stroke-width="0.9"/>
<path opacity="0.2" fill-rule="evenodd" clip-rule="evenodd" d="M23.8768 56.3376C23.8768 58.0798 22.5772 59.5184 20.8945 59.7368C21.5229 60.5146 22.4845 61.012 23.5623 61.012C25.4555 61.012 26.9902 59.4773 26.9902 57.5841C26.9902 55.691 25.4555 54.1562 23.5623 54.1562C23.4113 54.1562 23.2626 54.166 23.1167 54.185C23.5921 54.7734 23.8768 55.5223 23.8768 56.3376Z" fill="#101828" stroke="#101828" stroke-width="0.9"/>
<path d="M30.8422 51.0972C30.8531 57.5866 27.6572 61.3753 25.555 62.4675L23.973 62.1536L23.4614 61.821C23.7594 55.396 28.5061 51.9947 30.8422 51.0972Z" fill="#00A47B"/>
<path d="M25.555 62.4675C27.6572 61.3753 30.8531 57.5866 30.8422 51.0972C28.5061 51.9947 23.7594 55.396 23.4614 61.821" stroke="#101828" stroke-width="0.9" stroke-linecap="round"/>
<ellipse opacity="0.2" cx="45.6771" cy="83.3861" rx="23.8685" ry="1.95643" fill="#101828"/>
</svg>
