<svg width="253" height="332" viewBox="0 0 253 332" fill="none" xmlns="http://www.w3.org/2000/svg">
<mask id="mask0_10132_4118" style="mask-type:alpha" maskUnits="userSpaceOnUse" x="0" y="0" width="253" height="332">
<rect width="252.93" height="332" rx="13.8719" fill="#F0ECE2"/>
</mask>
<g mask="url(#mask0_10132_4118)">
<path d="M107.935 235.327C104.193 246.074 117.215 255.487 125.003 255.672L118.801 256.756C105.961 252.153 97.0098 240.144 98.3203 231.222C100.423 216.905 112.012 200.232 126.558 197.4C148.086 193.208 150.554 207.839 140.764 215.674C129.948 224.33 111.677 224.579 107.935 235.327Z" fill="#00A47B"/>
<path d="M125.003 255.672C117.215 255.487 104.193 246.074 107.935 235.326C111.677 224.579 129.948 224.33 140.764 215.674C150.554 207.839 148.086 193.208 126.558 197.4C112.012 200.232 100.423 216.905 98.3203 231.222C97.0098 240.144 105.476 252.153 118.627 256.724" stroke="#101828" stroke-width="0.457497"/>
<path d="M130.43 207.092C130.43 207.092 110.806 213.633 104.749 227.927C102.24 233.848 102.418 238.904 104.051 243.089" stroke="#101828" stroke-width="0.457497"/>
<path d="M109.39 293.329C133.163 309.582 129.669 328.786 123.857 337.953L111.57 334.795C115.336 323.312 111.492 311.757 97.1727 303.865C55.2878 280.78 42.9899 273.336 30.0333 257.199C10.7874 233.23 12.7036 194.832 30.9493 194.663C49.1949 194.494 58.8324 213.293 62.3117 240.103C65.791 266.913 81.0298 273.94 109.39 293.329Z" fill="#137159" stroke="#101828" stroke-width="0.457497"/>
<path d="M121.219 329.146C123.304 316.629 116.31 306.005 93.2614 292.051C52.4851 267.364 43.0795 257.669 39.2693 227.289" stroke="#101828" stroke-width="0.457497"/>
<g opacity="0.4">
<mask id="mask1_10132_4118" style="mask-type:alpha" maskUnits="userSpaceOnUse" x="16" y="194" width="113" height="145">
<path d="M30.9453 194.446C26.2931 194.489 22.6883 196.973 20.2129 201.022C17.7418 205.063 16.3887 210.67 16.2109 217.001C15.8556 229.666 20.2025 245.31 29.8604 257.338C42.8488 273.514 55.1882 280.978 97.0645 304.058C104.192 307.986 108.694 312.816 110.95 318.072C113.206 323.326 113.228 329.03 111.359 334.729L111.286 334.951L111.513 335.009L123.801 338.167L123.955 338.207L124.041 338.073C126.971 333.451 129.314 326.304 127.932 318.263C126.548 310.216 121.437 301.303 109.512 293.15C95.3152 283.444 84.4427 276.857 76.6709 269.343C68.9178 261.847 64.2607 253.433 62.5273 240.076C60.7859 226.658 57.5005 215.219 52.3506 207.15C47.1949 199.072 40.1604 194.36 30.9453 194.446Z" fill="#137159"/>
</mask>
<g mask="url(#mask1_10132_4118)">
<path fill-rule="evenodd" clip-rule="evenodd" d="M122.34 165.648C95.9817 174.144 70.6085 193.322 56.6699 212.474C49.7193 222.024 45.4092 231.846 45.5445 240.52C45.613 244.904 46.8207 249.003 49.3986 252.551C51.9691 256.09 55.8077 258.953 60.9365 261.04C76.649 267.436 96.0438 269.273 115.706 268.359C129.142 267.734 142.778 265.82 155.573 263.149C148.817 274.556 144.7 288.083 145.74 302.946C146.884 319.301 154.258 337.055 170.824 355.192L173.965 352.323C157.923 334.76 151.049 317.88 149.984 302.649C148.917 287.405 153.652 273.593 161.213 262.154C161.276 262.058 161.341 261.962 161.405 261.866C165.307 260.964 169.113 259.998 172.789 258.981C190.019 254.212 204.576 248.305 213.062 242.858C215.194 241.49 216.998 240.116 218.38 238.754C219.737 237.418 220.828 235.956 221.303 234.392C221.818 232.698 221.57 230.976 220.419 229.512C219.365 228.173 217.697 227.232 215.714 226.545C211.948 225.24 207.383 225.285 202.553 226.323C197.697 227.367 192.418 229.446 187.116 232.393C177.025 238.001 166.676 246.853 158.832 258.09C145.062 261.185 130.146 263.428 115.508 264.109C96.1585 265.009 77.4552 263.171 62.5403 257.101C57.983 255.246 54.8504 252.818 52.8402 250.051C50.8375 247.294 49.8544 244.071 49.7979 240.454C49.6835 233.124 53.3854 224.216 60.1093 214.977C73.52 196.551 98.1469 177.915 123.645 169.697L122.34 165.648ZM203.447 230.483C207.836 229.539 211.547 229.603 214.321 230.565C215.963 231.134 216.747 231.726 217.076 232.143C217.307 232.437 217.373 232.696 217.233 233.156C217.054 233.746 216.524 234.612 215.395 235.724C214.292 236.811 212.746 238.007 210.765 239.278C202.8 244.391 188.711 250.16 171.654 254.881C169.568 255.458 167.44 256.018 165.276 256.56C172.278 247.752 180.843 240.746 189.182 236.111C194.197 233.323 199.082 231.42 203.447 230.483Z" fill="#101828" stroke="#101828" stroke-width="0.457497"/>
</g>
</g>
<path d="M123.216 155.997C96.8574 164.493 71.4836 183.671 57.5449 202.823C50.5943 212.373 46.2846 222.196 46.4199 230.87C46.4884 235.254 47.6949 239.351 50.2725 242.9C52.8429 246.438 56.6826 249.301 61.8115 251.389C77.524 257.784 96.9185 259.622 116.581 258.707C130.017 258.083 143.654 256.169 156.449 253.497C149.694 264.905 145.575 278.431 146.615 293.295C147.76 309.65 155.132 327.405 171.698 345.541L173.269 344.106L174.84 342.672C158.798 325.109 151.924 308.229 150.858 292.998C149.792 277.755 154.528 263.943 162.088 252.503C162.152 252.407 162.217 252.311 162.281 252.215C166.183 251.314 169.988 250.347 173.663 249.33C190.893 244.561 205.451 238.654 213.937 233.207C216.068 231.84 217.873 230.465 219.255 229.104C220.611 227.768 221.704 226.306 222.179 224.742C222.693 223.048 222.446 221.324 221.294 219.861C220.24 218.522 218.571 217.582 216.589 216.895C212.822 215.59 208.258 215.634 203.428 216.672C198.572 217.716 193.292 219.795 187.99 222.742C177.9 228.35 167.555 237.202 159.711 248.438C145.939 251.533 131.022 253.778 116.383 254.458C97.033 255.358 78.3298 253.52 63.415 247.45C58.8577 245.595 55.7251 243.167 53.7148 240.4C51.7121 237.643 50.7294 234.421 50.6729 230.803C50.5585 223.473 54.2604 214.564 60.9844 205.326C74.3951 186.9 99.0225 168.264 124.521 160.046L123.867 158.022L123.216 155.997ZM204.321 220.831C208.711 219.888 212.422 219.952 215.196 220.914C216.838 221.482 217.622 222.074 217.951 222.492C218.182 222.785 218.248 223.045 218.108 223.505C217.929 224.095 217.399 224.961 216.27 226.074C215.166 227.161 213.62 228.356 211.639 229.627C203.674 234.74 189.585 240.509 172.528 245.23C170.444 245.807 168.317 246.366 166.154 246.908C173.155 238.101 181.719 231.095 190.057 226.46C195.072 223.673 199.957 221.769 204.321 220.831Z" fill="#00A47B"/>
<path d="M123.216 155.997L123.146 155.78L123.363 155.71L123.434 155.927L123.216 155.997ZM57.5449 202.823L57.36 202.688L57.5449 202.823ZM46.4199 230.87L46.1912 230.873L46.4199 230.87ZM50.2725 242.9L50.0874 243.034V243.034L50.2725 242.9ZM61.8115 251.389L61.7253 251.601L61.8115 251.389ZM116.581 258.707L116.592 258.936L116.581 258.707ZM156.449 253.497L156.402 253.274L156.91 253.168L156.646 253.614L156.449 253.497ZM146.615 293.295L146.387 293.311V293.311L146.615 293.295ZM171.698 345.541L171.853 345.71L171.684 345.865L171.529 345.696L171.698 345.541ZM173.269 344.106L173.114 343.937L173.114 343.937L173.269 344.106ZM174.84 342.672L175.009 342.518L175.163 342.687L174.994 342.841L174.84 342.672ZM150.858 292.998L150.63 293.014V293.014L150.858 292.998ZM162.088 252.503L161.897 252.377L161.897 252.377L162.088 252.503ZM162.281 252.215L162.091 252.088L162.141 252.013L162.23 251.992L162.281 252.215ZM173.663 249.33L173.724 249.55L173.663 249.33ZM213.937 233.207L214.06 233.4H214.06L213.937 233.207ZM219.255 229.104L219.415 229.267L219.415 229.267L219.255 229.104ZM222.179 224.742L222.398 224.808L222.398 224.808L222.179 224.742ZM221.294 219.861L221.474 219.719L221.474 219.719L221.294 219.861ZM216.589 216.895L216.664 216.679H216.664L216.589 216.895ZM203.428 216.672L203.38 216.449L203.38 216.449L203.428 216.672ZM187.99 222.742L187.879 222.542H187.879L187.99 222.742ZM159.711 248.438L159.899 248.569L159.848 248.642L159.761 248.661L159.711 248.438ZM116.383 254.458L116.393 254.687L116.383 254.458ZM63.415 247.45L63.3288 247.662L63.415 247.45ZM53.7148 240.4L53.5298 240.534L53.7148 240.4ZM50.6729 230.803L50.4441 230.807L50.6729 230.803ZM60.9844 205.326L60.7994 205.191L60.9844 205.326ZM124.521 160.046L124.738 159.976L124.808 160.194L124.591 160.264L124.521 160.046ZM123.867 158.022L123.649 158.092L123.649 158.092L123.867 158.022ZM204.321 220.831L204.273 220.608H204.273L204.321 220.831ZM215.196 220.914L215.271 220.697H215.271L215.196 220.914ZM217.951 222.492L218.131 222.35L218.131 222.35L217.951 222.492ZM218.108 223.505L218.327 223.572L218.327 223.572L218.108 223.505ZM216.27 226.074L216.43 226.237H216.43L216.27 226.074ZM211.639 229.627L211.762 229.82H211.762L211.639 229.627ZM172.528 245.23L172.589 245.45L172.528 245.23ZM166.154 246.908L166.21 247.13L165.555 247.293L165.975 246.765L166.154 246.908ZM190.057 226.46L189.946 226.26L190.057 226.46ZM123.216 155.997L123.286 156.215C96.9739 164.696 71.6402 183.845 57.7299 202.957L57.5449 202.823L57.36 202.688C71.3271 183.498 96.741 164.29 123.146 155.78L123.216 155.997ZM57.5449 202.823L57.7299 202.957C50.7915 212.491 46.5144 222.264 46.6486 230.866L46.4199 230.87L46.1912 230.873C46.0547 222.127 50.3972 212.255 57.36 202.688L57.5449 202.823ZM46.4199 230.87L46.6486 230.866C46.7165 235.209 47.9109 239.26 50.4575 242.765L50.2725 242.9L50.0874 243.034C47.4789 239.443 46.2603 235.298 46.1912 230.873L46.4199 230.87ZM50.2725 242.9L50.4575 242.765C52.9978 246.262 56.7996 249.102 61.8978 251.177L61.8115 251.389L61.7253 251.601C56.5657 249.501 52.688 246.614 50.0874 243.034L50.2725 242.9ZM61.8115 251.389L61.8978 251.177C77.5674 257.555 96.9247 259.393 116.57 258.479L116.581 258.707L116.592 258.936C96.9124 259.851 77.4807 258.014 61.7253 251.601L61.8115 251.389ZM116.581 258.707L116.57 258.479C129.993 257.855 143.618 255.943 156.402 253.274L156.449 253.497L156.496 253.721C143.691 256.395 130.042 258.31 116.592 258.936L116.581 258.707ZM156.449 253.497L156.646 253.614C149.91 264.988 145.807 278.469 146.843 293.279L146.615 293.295L146.387 293.311C145.343 278.394 149.477 264.821 156.252 253.381L156.449 253.497ZM146.615 293.295L146.843 293.279C147.984 309.574 155.329 327.281 171.867 345.387L171.698 345.541L171.529 345.696C154.935 327.528 147.536 309.727 146.387 293.311L146.615 293.295ZM171.698 345.541L171.544 345.373L173.114 343.937L173.269 344.106L173.423 344.275L171.853 345.71L171.698 345.541ZM173.269 344.106L173.114 343.937L174.686 342.503L174.84 342.672L174.994 342.841L173.423 344.275L173.269 344.106ZM174.84 342.672L174.671 342.827C158.601 325.233 151.7 308.306 150.63 293.014L150.858 292.998L151.087 292.982C152.148 308.153 158.995 324.986 175.009 342.518L174.84 342.672ZM150.858 292.998L150.63 293.014C149.559 277.712 154.314 263.851 161.897 252.377L162.088 252.503L162.279 252.629C154.741 264.035 150.024 277.798 151.087 292.983L150.858 292.998ZM162.088 252.503L161.897 252.377C161.96 252.282 162.03 252.18 162.091 252.088L162.281 252.215L162.472 252.342C162.404 252.443 162.343 252.532 162.279 252.629L162.088 252.503ZM162.281 252.215L162.23 251.992C166.128 251.091 169.93 250.125 173.602 249.109L173.663 249.33L173.724 249.55C170.046 250.568 166.238 251.536 162.333 252.438L162.281 252.215ZM173.663 249.33L173.602 249.109C190.822 244.343 205.355 238.444 213.813 233.015L213.937 233.207L214.06 233.4C205.546 238.865 190.963 244.779 173.724 249.55L173.663 249.33ZM213.937 233.207L213.813 233.015C215.936 231.652 217.727 230.288 219.094 228.941L219.255 229.104L219.415 229.267C218.018 230.643 216.199 232.027 214.06 233.4L213.937 233.207ZM219.255 229.104L219.094 228.941C220.439 227.617 221.501 226.187 221.96 224.675L222.179 224.742L222.398 224.808C221.907 226.425 220.784 227.919 219.415 229.267L219.255 229.104ZM222.179 224.742L221.96 224.675C222.454 223.048 222.216 221.402 221.114 220.002L221.294 219.861L221.474 219.719C222.675 221.246 222.932 223.048 222.398 224.808L222.179 224.742ZM221.294 219.861L221.114 220.002C220.099 218.713 218.478 217.792 216.514 217.111L216.589 216.895L216.664 216.679C218.664 217.372 220.381 218.331 221.474 219.719L221.294 219.861ZM216.589 216.895L216.514 217.111C212.801 215.824 208.282 215.863 203.476 216.896L203.428 216.672L203.38 216.449C208.233 215.406 212.844 215.355 216.664 216.679L216.589 216.895ZM203.428 216.672L203.476 216.896C198.647 217.934 193.388 220.003 188.101 222.942L187.99 222.742L187.879 222.542C193.196 219.586 198.498 217.498 203.38 216.449L203.428 216.672ZM187.99 222.742L188.101 222.942C178.041 228.533 167.722 237.363 159.899 248.569L159.711 248.438L159.523 248.307C167.388 237.041 177.76 228.166 187.879 222.542L187.99 222.742ZM159.711 248.438L159.761 248.661C145.979 251.759 131.048 254.005 116.393 254.687L116.383 254.458L116.372 254.23C130.996 253.55 145.9 251.308 159.661 248.215L159.711 248.438ZM116.383 254.458L116.393 254.687C97.0268 255.587 78.2865 253.75 63.3288 247.662L63.415 247.45L63.5013 247.238C78.3731 253.291 97.0392 255.129 116.372 254.23L116.383 254.458ZM63.415 247.45L63.3288 247.662C58.7407 245.794 55.5701 243.343 53.5298 240.534L53.7148 240.4L53.8999 240.265C55.88 242.991 58.9747 245.395 63.5013 247.238L63.415 247.45ZM53.7148 240.4L53.5298 240.534C51.4962 237.735 50.5013 234.465 50.4441 230.807L50.6729 230.803L50.9016 230.8C50.9575 234.376 51.9281 237.551 53.8999 240.265L53.7148 240.4ZM50.6729 230.803L50.4441 230.807C50.3286 223.404 54.0632 214.447 60.7994 205.191L60.9844 205.326L61.1693 205.46C54.4575 214.682 50.7883 223.542 50.9016 230.8L50.6729 230.803ZM60.9844 205.326L60.7994 205.191C74.2386 186.726 98.9061 168.062 124.45 159.829L124.521 160.046L124.591 160.264C99.139 168.467 74.5517 187.073 61.1693 205.46L60.9844 205.326ZM124.521 160.046L124.303 160.117L123.649 158.092L123.867 158.022L124.085 157.952L124.738 159.976L124.521 160.046ZM123.867 158.022L123.649 158.092L122.998 156.068L123.216 155.997L123.434 155.927L124.085 157.952L123.867 158.022ZM204.321 220.831L204.273 220.608C208.686 219.66 212.444 219.718 215.271 220.697L215.196 220.914L215.121 221.13C212.401 220.187 208.735 220.117 204.369 221.055L204.321 220.831ZM215.196 220.914L215.271 220.697C216.931 221.273 217.763 221.883 218.131 222.35L217.951 222.492L217.771 222.633C217.482 222.265 216.744 221.692 215.121 221.13L215.196 220.914ZM217.951 222.492L218.131 222.35C218.26 222.515 218.357 222.687 218.394 222.896C218.43 223.103 218.403 223.322 218.327 223.572L218.108 223.505L217.89 223.439C217.953 223.229 217.963 223.087 217.943 222.975C217.924 222.866 217.873 222.762 217.771 222.633L217.951 222.492ZM218.108 223.505L218.327 223.572C218.132 224.214 217.571 225.112 216.43 226.237L216.27 226.074L216.109 225.911C217.226 224.81 217.726 223.976 217.89 223.439L218.108 223.505ZM216.27 226.074L216.43 226.237C215.311 227.338 213.751 228.543 211.762 229.82L211.639 229.627L211.515 229.435C213.488 228.168 215.02 226.983 216.109 225.911L216.27 226.074ZM211.639 229.627L211.762 229.82C203.769 234.95 189.655 240.727 172.589 245.45L172.528 245.23L172.467 245.009C189.515 240.291 203.578 234.529 211.515 229.435L211.639 229.627ZM172.528 245.23L172.589 245.45C170.503 246.028 168.374 246.588 166.21 247.13L166.154 246.908L166.099 246.686C168.259 246.145 170.385 245.586 172.467 245.009L172.528 245.23ZM166.154 246.908L165.975 246.765C172.995 237.934 181.582 230.909 189.946 226.26L190.057 226.46L190.168 226.66C181.856 231.28 173.315 238.267 166.333 247.05L166.154 246.908ZM190.057 226.46L189.946 226.26C194.976 223.464 199.883 221.551 204.273 220.608L204.321 220.831L204.369 221.055C200.032 221.987 195.168 223.881 190.168 226.66L190.057 226.46Z" fill="#101828"/>
<path fill-rule="evenodd" clip-rule="evenodd" d="M174.523 238.102C169.817 242.433 165.997 246.991 162.272 252.626C159.955 256.131 158.051 259.616 156.353 263.54L151.266 263.297C153.22 258.414 155.533 254.301 158.352 250.035C161.339 245.516 164.346 241.844 167.982 238.102H174.523Z" fill="#00A47B"/>
<path d="M175.105 237.617C170.399 241.948 165.996 246.991 162.271 252.626C159.955 256.131 157.905 259.859 156.207 263.782M151.118 263.782C153.072 258.898 155.532 254.301 158.351 250.035C161.338 245.516 164.733 241.359 168.37 237.617" stroke="#101828" stroke-width="0.457497"/>
<path d="M142.742 175.989L111.149 129.478C99.0886 137.67 95.953 154.088 104.145 166.148L106.072 168.985C114.264 181.045 130.682 184.181 142.742 175.989Z" fill="#00A47B" stroke="#101828" stroke-width="0.457497"/>
<path opacity="0.12" fill-rule="evenodd" clip-rule="evenodd" d="M114.094 137.067C103.843 144.03 101.264 158.474 107.54 170.711C106.679 169.729 105.867 168.68 105.11 167.566C96.386 154.722 98.4127 138.13 109.637 130.505L111.15 129.477L115.607 136.039L114.094 137.067Z" fill="#101828" stroke="#101828" stroke-width="0.457497"/>
<path d="M184.293 179.942L122.787 89.3947C99.0246 105.536 92.8464 137.884 108.987 161.646L112.042 166.143C128.183 189.905 160.531 196.083 184.293 179.942Z" fill="#EBCFF6" stroke="#101828" stroke-width="0.457497"/>
<path opacity="0.12" fill-rule="evenodd" clip-rule="evenodd" d="M125.115 98.206C103.557 112.849 98.648 143.607 113.286 168.419C112.471 167.369 111.682 166.284 110.923 165.167C93.7145 139.833 98.0467 106.877 120.599 91.5581L124.169 89.1329L128.685 95.7808L125.115 98.206Z" fill="#101828" stroke="#101828" stroke-width="0.457497"/>
<path d="M182.033 180.574C190.59 180.464 190.757 167.879 179.486 158.794C160.432 143.436 167.831 143.075 160.022 130.984L160.034 130.976C159.931 130.825 159.828 130.676 159.725 130.528C159.608 130.351 159.487 130.171 159.364 129.989L159.352 129.997C150.803 118.024 144.285 120.153 142.041 105.519C139.962 91.9677 124.772 83.7171 121.365 91.2597C117.957 98.8024 145.871 121.666 135.908 119.06C126.221 116.525 132.301 131.443 140.021 143.128L140.013 143.133C143.449 148.191 156.9 168.614 161.837 156.614C166.774 144.614 173.478 180.683 182.033 180.574Z" fill="#E7A0F7"/>
<path d="M182.033 180.574L182.036 180.802L182.036 180.802L182.033 180.574ZM179.486 158.794L179.63 158.616L179.63 158.616L179.486 158.794ZM160.022 130.984L159.83 131.109L159.709 130.921L159.894 130.795L160.022 130.984ZM160.034 130.976L160.223 130.848L160.352 131.037L160.163 131.165L160.034 130.976ZM159.725 130.528L159.537 130.659L159.535 130.655L159.725 130.528ZM159.364 129.989L159.235 129.8L159.424 129.671L159.553 129.86L159.364 129.989ZM159.352 129.997L159.48 130.186L159.295 130.312L159.165 130.13L159.352 129.997ZM142.041 105.519L142.267 105.484L142.267 105.484L142.041 105.519ZM121.365 91.2597L121.156 91.1655L121.156 91.1655L121.365 91.2597ZM135.908 119.06L135.966 118.838L135.966 118.838L135.908 119.06ZM140.021 143.128L140.211 143.002L140.336 143.191L140.149 143.318L140.021 143.128ZM140.013 143.133L139.824 143.262L139.695 143.073L139.885 142.944L140.013 143.133ZM161.837 156.614L162.048 156.701L162.048 156.701L161.837 156.614ZM182.033 180.574L182.031 180.345C184.109 180.318 185.655 179.537 186.65 178.261C187.649 176.98 188.113 175.173 187.967 173.065C187.675 168.848 184.942 163.485 179.343 158.972L179.486 158.794L179.63 158.616C185.302 163.188 188.12 168.66 188.423 173.034C188.575 175.221 188.097 177.149 187.01 178.542C185.92 179.941 184.236 180.774 182.036 180.802L182.033 180.574ZM179.486 158.794L179.343 158.972C169.808 151.287 166.858 147.328 165.327 143.754C163.791 140.167 163.724 137.138 159.83 131.109L160.022 130.984L160.214 130.86C164.129 136.921 164.268 140.118 165.748 143.574C167.233 147.043 170.111 150.943 179.63 158.616L179.486 158.794ZM160.022 130.984L159.894 130.795L159.906 130.787L160.034 130.976L160.163 131.165L160.151 131.174L160.022 130.984ZM160.034 130.976L159.845 131.105C159.743 130.954 159.64 130.807 159.538 130.659L159.725 130.528L159.913 130.398C160.015 130.545 160.12 130.695 160.223 130.848L160.034 130.976ZM159.725 130.528L159.535 130.655C159.418 130.478 159.298 130.299 159.174 130.118L159.364 129.989L159.553 129.86C159.677 130.043 159.798 130.224 159.916 130.402L159.725 130.528ZM159.364 129.989L159.492 130.178L159.48 130.186L159.352 129.997L159.223 129.808L159.235 129.8L159.364 129.989ZM159.352 129.997L159.165 130.13C154.909 124.168 151.179 121.74 148.176 118.923C146.674 117.515 145.363 116.015 144.287 113.939C143.212 111.865 142.378 109.229 141.815 105.554L142.041 105.519L142.267 105.484C142.825 109.126 143.648 111.711 144.693 113.728C145.738 115.744 147.011 117.204 148.489 118.589C151.443 121.36 155.246 123.853 159.538 129.864L159.352 129.997ZM142.041 105.519L141.815 105.554C140.786 98.8512 136.513 93.4556 132.079 90.6729C129.862 89.281 127.624 88.5555 125.75 88.6286C123.889 88.7011 122.385 89.5569 121.573 91.3538L121.365 91.2597L121.156 91.1655C122.048 89.1912 123.721 88.2498 125.732 88.1715C127.729 88.0936 130.057 88.8636 132.323 90.2854C136.855 93.1302 141.216 98.6354 142.267 105.484L142.041 105.519ZM121.365 91.2597L121.573 91.3538C121.181 92.2228 121.228 93.3401 121.638 94.6587C122.048 95.9738 122.808 97.4564 123.795 99.0306C125.767 102.179 128.615 105.651 131.27 108.819C133.915 111.975 136.381 114.843 137.555 116.757C137.849 117.237 138.07 117.668 138.191 118.037C138.309 118.397 138.349 118.747 138.208 119.026C138.058 119.323 137.748 119.459 137.366 119.488C136.985 119.517 136.481 119.446 135.85 119.281L135.908 119.06L135.966 118.838C136.58 118.999 137.026 119.055 137.332 119.032C137.637 119.009 137.753 118.913 137.799 118.82C137.856 118.708 137.864 118.509 137.756 118.18C137.651 117.86 137.451 117.463 137.165 116.996C136.013 115.12 133.581 112.289 130.919 109.113C128.267 105.948 125.399 102.452 123.407 99.2735C122.411 97.6843 121.628 96.1636 121.202 94.7947C120.777 93.4294 120.697 92.1822 121.156 91.1655L121.365 91.2597ZM135.908 119.06L135.85 119.281C134.659 118.969 133.737 118.934 133.043 119.109C132.358 119.282 131.883 119.662 131.579 120.218C131.269 120.782 131.127 121.542 131.145 122.476C131.164 123.408 131.342 124.496 131.658 125.704C132.923 130.541 136.357 137.167 140.211 143.002L140.021 143.128L139.83 143.254C135.965 137.404 132.499 130.728 131.215 125.819C130.894 124.59 130.707 123.464 130.688 122.485C130.669 121.507 130.815 120.658 131.178 119.998C131.544 119.329 132.124 118.869 132.931 118.665C133.728 118.464 134.735 118.516 135.966 118.838L135.908 119.06ZM140.021 143.128L140.149 143.318L140.142 143.322L140.013 143.133L139.885 142.944L139.892 142.939L140.021 143.128ZM140.013 143.133L140.202 143.005C141.925 145.54 146.132 151.888 150.52 156.106C152.722 158.221 154.928 159.761 156.862 160.056C157.817 160.201 158.7 160.042 159.493 159.499C160.291 158.952 161.018 158.002 161.625 156.527L161.837 156.614L162.048 156.701C161.421 158.226 160.647 159.263 159.752 159.876C158.851 160.494 157.846 160.668 156.793 160.508C154.708 160.19 152.412 158.558 150.203 156.435C145.773 152.177 141.538 145.785 139.824 143.262L140.013 143.133ZM161.837 156.614L161.625 156.527C161.938 155.766 162.264 155.181 162.606 154.762C162.948 154.343 163.317 154.077 163.717 153.98C164.528 153.785 165.312 154.309 166.045 155.161C166.792 156.029 167.558 157.317 168.344 158.846C169.132 160.377 169.946 162.166 170.787 164.041C172.471 167.799 174.259 171.907 176.159 175.071C177.108 176.653 178.079 177.985 179.068 178.917C180.06 179.85 181.045 180.358 182.031 180.345L182.033 180.574L182.036 180.802C180.883 180.817 179.787 180.222 178.755 179.25C177.721 178.277 176.725 176.903 175.766 175.306C173.849 172.113 172.048 167.974 170.369 164.228C169.528 162.352 168.718 160.574 167.937 159.055C167.155 157.532 166.408 156.284 165.699 155.46C164.976 154.62 164.359 154.296 163.825 154.425C163.553 154.491 163.263 154.681 162.96 155.052C162.657 155.423 162.352 155.963 162.048 156.701L161.837 156.614Z" fill="#101828"/>
<path opacity="0.15" d="M151.002 136.419C150.891 136.25 150.776 136.08 150.658 135.907L150.539 135.731L150.521 135.743C146.28 129.856 142.524 127.384 139.597 124.638C138.119 123.252 136.843 121.792 135.798 119.774C135.621 119.434 135.452 119.077 135.289 118.702C134.363 118.524 133.583 118.519 132.941 118.681C132.139 118.883 131.562 119.341 131.197 120.006C130.837 120.663 130.691 121.508 130.71 122.484C130.729 123.462 130.915 124.588 131.236 125.816C132.506 130.673 135.917 137.261 139.734 143.069L139.723 143.077L139.843 143.253C141.557 145.776 145.791 152.167 150.22 156.423C152.427 158.545 154.72 160.174 156.8 160.491C157.85 160.651 158.85 160.476 159.748 159.862C160.609 159.272 161.357 158.289 161.972 156.852C159.078 153.842 157.724 151.656 156.851 149.618C155.383 146.191 155.235 143.028 151.431 137.082L151.448 137.07L151.329 136.894C151.219 136.733 151.11 136.574 151.002 136.419ZM133.37 111.525C132.32 104.681 127.962 99.1796 123.433 96.337C122.749 95.9074 122.058 95.5384 121.373 95.2335C121.82 96.4824 122.537 97.8465 123.426 99.2651C125.417 102.443 128.285 105.938 130.937 109.103C131.818 110.154 132.673 111.167 133.466 112.12C133.434 111.925 133.401 111.726 133.37 111.525ZM179.526 179.072C179.223 174.703 176.407 169.234 170.738 164.665C170.658 164.601 170.58 164.536 170.502 164.472C172.148 168.151 173.911 172.177 175.785 175.298C176.743 176.894 177.738 178.266 178.77 179.238C179.027 179.479 179.288 179.697 179.552 179.888C179.553 179.621 179.545 179.348 179.526 179.072Z" fill="#101828"/>
<mask id="mask2_10132_4118" style="mask-type:alpha" maskUnits="userSpaceOnUse" x="124" y="79" width="86" height="97">
<path d="M178.23 174.963C186.452 174.361 217.492 144.314 207.202 136.674C189.806 123.758 191.541 114.125 184.751 103.535L184.763 103.527C184.664 103.381 184.565 103.238 184.466 103.097C184.372 102.954 184.276 102.81 184.177 102.664L184.165 102.672C176.659 92.2333 159.631 96.8167 158.333 83.5767C157.132 71.3161 128.924 89.8183 125.21 96.9101C121.497 104.002 146.959 123.257 137.545 121.459C128.392 119.711 133.356 132.985 140.083 143.211L140.076 143.215C143.079 147.636 154.797 165.509 160.241 154.254C165.685 143 170.008 175.565 178.23 174.963Z" fill="#D88DE8" stroke="black" stroke-width="0.457497"/>
</mask>
<g mask="url(#mask2_10132_4118)">
<path d="M132.492 152.181C151.619 141.012 172.239 138.803 185.824 138.849" stroke="#101828" stroke-width="0.457497"/>
<path d="M129.434 144.427C137.657 140.668 162.326 125.161 174.309 110.83" stroke="#101828" stroke-width="0.457497"/>
<circle cx="5.16878" cy="5.16878" r="4.94003" transform="matrix(-1 3.59244e-08 3.59244e-08 1 191.93 133.855)" fill="#FFCA00" stroke="#101828" stroke-width="0.457497"/>
<circle cx="5.16878" cy="5.16878" r="4.94003" transform="matrix(-1 3.59244e-08 3.59244e-08 1 179.715 105.192)" fill="#FFCA00" stroke="#101828" stroke-width="0.457497"/>
</g>
<mask id="mask3_10132_4118" style="mask-type:alpha" maskUnits="userSpaceOnUse" x="97" y="196" width="50" height="61">
<path opacity="0.3" d="M145.603 201.929C143.449 197.679 137.31 195.085 126.518 197.186C119.177 198.615 112.602 203.532 107.603 209.87C102.603 216.209 99.1627 223.992 98.1051 231.191C97.4384 235.73 99.2596 241.022 102.878 245.74C106.501 250.462 111.94 254.633 118.557 256.933L118.639 256.697C118.693 256.717 118.747 256.738 118.802 256.758L124.097 255.831C124.404 255.864 124.705 255.885 124.999 255.892L125.01 255.454C121.185 255.363 116.033 252.996 112.301 249.306C108.573 245.619 106.311 240.664 108.144 235.4C109.977 230.134 115.379 227.413 121.778 224.921C128.141 222.443 135.461 220.201 140.903 215.846C145.844 211.891 147.752 206.169 145.603 201.929Z" fill="#101828"/>
</mask>
<g mask="url(#mask3_10132_4118)">
<path d="M146.871 127.014C145.009 114.878 132.633 106.996 127.621 110.899L127.614 110.89L124.154 113.24C110.98 122.189 104.318 137.485 104.824 153.701C104.807 157.072 105.117 160.455 105.764 163.802C105.183 165.607 104.804 167.496 104.63 169.434C103.831 175.609 105.199 182.088 108.973 187.643L110.899 190.48C115.756 197.629 123.503 201.641 131.519 202.017C148.339 212.953 170.693 213.554 188.447 201.885C195.39 200.308 194.842 188.773 184.315 180.289C165.262 164.931 172.661 164.569 164.853 152.479L164.864 152.471C164.75 152.303 164.635 152.137 164.521 151.973C164.415 151.812 164.306 151.649 164.193 151.484L164.181 151.492C155.633 139.52 149.116 141.648 146.871 127.014Z" fill="#101828"/>
</g>
<path d="M53.3186 106.812L53.4257 111.377C53.6355 120.316 46.3334 127.618 37.3937 127.409L32.8287 127.301L37.3937 127.194C46.3334 126.985 53.6355 134.287 53.4257 143.226L53.3186 147.791L53.2115 143.226C53.0018 134.287 60.3039 126.985 69.2435 127.194L73.8086 127.301L69.2435 127.409C60.3039 127.618 53.0018 120.316 53.2115 111.377L53.3186 106.812Z" fill="white" stroke="#101828" stroke-width="0.457497"/>
<path d="M73.168 18.0037C82.6591 10.8306 94.4011 8.98016 103.623 14.3044C108.453 17.0932 111.923 21.4655 113.923 26.6931C118.361 24.7921 123.146 24.7623 127.114 27.0535C134.694 31.4297 136.428 42.6171 130.987 52.0408C125.705 61.1897 115.603 65.312 108.082 61.5398C98.1196 75.4254 81.4385 80.9986 69.1973 73.9314C67.4148 72.9023 65.8189 71.6558 64.4121 70.2322C54.9211 77.405 43.1808 79.2565 33.959 73.9324C29.141 71.1507 25.6756 66.7939 23.6729 61.5837C19.1834 63.537 14.3331 63.5855 10.3145 61.2654C2.69587 56.8665 0.953249 45.6221 6.42188 36.1501C11.752 26.9184 21.9649 22.7785 29.5332 26.6472C39.4998 12.7972 56.1579 7.24624 68.3848 14.3054C70.1666 15.3342 71.7615 16.5805 73.168 18.0037Z" fill="white"/>
<path d="M73.168 18.0037L73.0053 18.1645L73.1461 18.3069L73.3059 18.1862L73.168 18.0037ZM103.623 14.3044L103.737 14.1063L103.737 14.1063L103.623 14.3044ZM113.923 26.6931L113.709 26.7749L113.794 26.997L114.013 26.9034L113.923 26.6931ZM127.114 27.0535L127.229 26.8554V26.8554L127.114 27.0535ZM130.987 52.0408L131.185 52.1551L130.987 52.0408ZM108.082 61.5398L108.185 61.3353L108.01 61.2478L107.896 61.4064L108.082 61.5398ZM69.1973 73.9314L69.0829 74.1295V74.1295L69.1973 73.9314ZM64.4121 70.2322L64.5748 70.0714L64.434 69.9289L64.2742 70.0497L64.4121 70.2322ZM33.959 73.9324L33.8446 74.1305L33.959 73.9324ZM23.6729 61.5837L23.8864 61.5017L23.8007 61.2787L23.5816 61.374L23.6729 61.5837ZM10.3145 61.2654L10.2001 61.4635L10.2001 61.4635L10.3145 61.2654ZM6.42188 36.1501L6.22378 36.0358L6.22377 36.0358L6.42188 36.1501ZM29.5332 26.6472L29.4291 26.8509L29.6041 26.9403L29.7189 26.7808L29.5332 26.6472ZM68.3848 14.3054L68.4991 14.1073V14.1073L68.3848 14.3054ZM73.168 18.0037L73.3059 18.1862C82.7448 11.0525 94.387 9.23617 103.509 14.5025L103.623 14.3044L103.737 14.1063C94.4152 8.72415 82.5733 10.6087 73.03 17.8212L73.168 18.0037ZM103.623 14.3044L103.509 14.5025C108.288 17.2621 111.725 21.5905 113.709 26.7749L113.923 26.6931L114.136 26.6114C112.12 21.3405 108.618 16.9243 103.737 14.1063L103.623 14.3044ZM113.923 26.6931L114.013 26.9034C118.399 25.025 123.105 25.0032 127 27.2516L127.114 27.0535L127.229 26.8554C123.186 24.5215 118.324 24.5592 113.833 26.4828L113.923 26.6931ZM127.114 27.0535L127 27.2516C134.432 31.5427 136.191 42.5697 130.789 51.9264L130.987 52.0408L131.185 52.1551C136.665 42.6645 134.956 31.3168 127.229 26.8554L127.114 27.0535ZM130.987 52.0408L130.789 51.9264C125.545 61.0087 115.561 65.0354 108.185 61.3353L108.082 61.5398L107.979 61.7443C115.644 65.5886 125.865 61.3707 131.185 52.1551L130.987 52.0408ZM108.082 61.5398L107.896 61.4064C97.9769 75.2319 81.4173 80.7222 69.3116 73.7333L69.1973 73.9314L69.0829 74.1295C81.4596 81.2749 98.2622 75.619 108.268 61.6731L108.082 61.5398ZM69.1973 73.9314L69.3116 73.7333C67.5474 72.7147 65.9676 71.4809 64.5748 70.0714L64.4121 70.2322L64.2494 70.393C65.6701 71.8307 67.2823 73.0899 69.0829 74.1295L69.1973 73.9314ZM64.4121 70.2322L64.2742 70.0497C54.8353 77.1831 43.1948 79.0005 34.0734 73.7343L33.959 73.9324L33.8446 74.1305C43.1667 79.5126 55.0069 77.6269 64.55 70.4147L64.4121 70.2322ZM33.959 73.9324L34.0734 73.7343C29.3057 70.9817 25.8725 66.6687 23.8864 61.5017L23.6729 61.5837L23.4593 61.6658C25.4787 66.9192 28.9762 71.3197 33.8446 74.1305L33.959 73.9324ZM23.6729 61.5837L23.5816 61.374C19.145 63.3042 14.3728 63.3443 10.4288 61.0673L10.3145 61.2654L10.2001 61.4635C14.2933 63.8267 19.2218 63.7698 23.7641 61.7935L23.6729 61.5837ZM10.3145 61.2654L10.4288 61.0673C2.95775 56.7536 1.19001 45.6695 6.61998 36.2645L6.42188 36.1501L6.22377 36.0358C0.71649 45.5747 2.434 56.9795 10.2001 61.4635L10.3145 61.2654ZM6.42188 36.1501L6.61997 36.2645C11.9116 27.0995 22.0051 23.056 29.4291 26.8509L29.5332 26.6472L29.6373 26.4435C21.9247 22.5011 11.5924 26.7374 6.22378 36.0358L6.42188 36.1501ZM29.5332 26.6472L29.7189 26.7808C39.6422 12.991 56.1789 7.52249 68.2704 14.5035L68.3848 14.3054L68.4991 14.1073C56.1369 6.96999 39.3574 12.6035 29.3475 26.5136L29.5332 26.6472ZM68.3848 14.3054L68.2704 14.5035C70.034 15.5218 71.6128 16.7554 73.0053 18.1645L73.168 18.0037L73.3307 17.8429C71.9103 16.4056 70.2993 15.1466 68.4991 14.1073L68.3848 14.3054Z" fill="#101828"/>
<path d="M27.1895 30.2741C36.6959 13.8086 55.1388 6.65925 68.3828 14.3057" stroke="#101828" stroke-width="0.457497"/>
<path opacity="0.15" fill-rule="evenodd" clip-rule="evenodd" d="M132.672 4.77441C132.699 4.78669 132.726 4.79901 132.753 4.81141L132.843 4.85357C132.878 4.86967 132.912 4.88598 132.946 4.90237L133.003 4.93006L133.031 4.94347C132.969 4.91333 132.906 4.8831 132.843 4.85357C132.795 4.83088 132.747 4.80857 132.698 4.78644L132.672 4.77441Z" fill="#101828"/>
<path d="M131.075 52.091C125.634 61.5146 115.079 65.6064 107.499 61.2301C104.945 59.7554 103.054 57.5072 101.878 54.8136M127.202 27.1041C121.418 23.7647 113.901 25.356 108.247 30.4847" stroke="#101828" stroke-width="0.457497"/>
<path d="M69.1948 73.9298C64.6556 71.3091 61.3162 67.2905 59.2702 62.4772M103.621 14.3026C92.5363 7.9031 77.8105 11.8672 67.7297 22.9826" stroke="#101828" stroke-width="0.457497"/>
<path opacity="0.15" fill-rule="evenodd" clip-rule="evenodd" d="M25.5547 65.9524C27.5937 69.3091 30.369 72.1244 33.8429 74.13C43.113 79.4818 54.8732 77.6485 64.3886 70.537C65.1526 71.2971 65.972 72.0044 66.8449 72.6558L66.9211 72.7131C66.9982 72.7704 67.0761 72.8267 67.1543 72.8831L67.2509 72.9517C67.3632 73.032 67.4764 73.1109 67.5905 73.189C67.7202 73.2778 67.8508 73.3658 67.9825 73.452L68.1707 73.5742L68.3326 73.6771L68.5248 73.7966C68.5918 73.8381 68.659 73.8796 68.7269 73.9202C68.7979 73.9631 68.8694 74.005 68.9411 74.047C68.9878 74.0745 69.0343 74.1024 69.0814 74.1295C81.4104 81.2474 98.1297 75.6632 108.15 61.8375C115.804 65.6119 125.975 61.3873 131.276 52.2057L131.188 52.1542C136.443 43.0511 135.087 32.2396 128.148 27.4336C130.697 32.8549 130.292 40.1618 126.569 46.6111L126.657 46.6626C121.356 55.8442 110.433 60.1252 102.779 56.3508C92.7587 70.1765 76.7911 75.7043 64.4622 68.5864C64.415 68.5593 64.3686 68.5314 64.3219 68.5039C64.2502 68.4619 64.1787 68.42 64.1076 68.3771C64.0397 68.3365 63.9725 68.295 63.9055 68.2535L63.7133 68.134L63.5514 68.0311L63.3633 67.9089C63.1154 67.7465 62.8716 67.5796 62.6316 67.4086L62.5351 67.34C62.4568 67.2836 62.379 67.2273 62.3019 67.17L62.2256 67.1127C61.3527 66.4613 61.0455 65.4256 60.2816 64.6655C50.7661 71.777 38.4938 73.9387 29.2237 68.5869C27.8984 67.8218 26.6748 66.9386 25.5547 65.9524Z" fill="#101828"/>
<path d="M201.414 73.0879C207.433 62.6623 219.111 58.136 227.497 62.9775C230.32 64.6076 232.409 67.0922 233.71 70.0684C236.859 68.6187 240.292 68.537 243.124 70.1719C248.349 73.189 249.545 80.9018 245.794 87.3984C242.072 93.845 234.878 96.6705 229.662 93.7656C223.297 101.909 213.186 105.055 205.699 100.732C197.313 95.8908 195.395 83.5136 201.414 73.0879Z" fill="white"/>
<path d="M201.414 73.0879L201.216 72.9735L201.216 72.9735L201.414 73.0879ZM227.497 62.9775L227.611 62.7794V62.7794L227.497 62.9775ZM233.71 70.0684L233.5 70.16L233.594 70.3737L233.806 70.2761L233.71 70.0684ZM243.124 70.1719L243.238 69.9738L243.238 69.9738L243.124 70.1719ZM245.794 87.3984L245.992 87.5128V87.5128L245.794 87.3984ZM229.662 93.7656L229.773 93.5658L229.602 93.4706L229.482 93.6248L229.662 93.7656ZM205.699 100.732L205.585 100.931H205.585L205.699 100.732ZM201.414 73.0879L201.612 73.2023C207.593 62.8436 219.144 58.4192 227.383 63.1756L227.497 62.9775L227.611 62.7794C219.078 57.8527 207.274 62.4809 201.216 72.9735L201.414 73.0879ZM227.497 62.9775L227.383 63.1756C230.159 64.7788 232.217 67.2239 233.5 70.16L233.71 70.0684L233.92 69.9767C232.601 66.9605 230.481 64.4363 227.611 62.7794L227.497 62.9775ZM233.71 70.0684L233.806 70.2761C236.902 68.8509 240.255 68.7795 243.01 70.37L243.124 70.1719L243.238 69.9738C240.33 68.2944 236.816 68.3865 233.614 69.8606L233.71 70.0684ZM243.124 70.1719L243.01 70.37C248.088 73.3019 249.308 80.8544 245.596 87.2841L245.794 87.3984L245.992 87.5128C249.782 80.9492 248.611 73.0761 243.238 69.9738L243.124 70.1719ZM245.794 87.3984L245.596 87.2841C241.912 93.6637 234.843 96.3891 229.773 93.5658L229.662 93.7656L229.551 93.9655C234.914 96.952 242.231 94.0263 245.992 87.5128L245.794 87.3984ZM229.662 93.7656L229.482 93.6248C223.161 101.711 213.17 104.782 205.814 100.534L205.699 100.732L205.585 100.931C213.203 105.329 223.432 102.108 229.842 93.9065L229.662 93.7656ZM205.699 100.732L205.814 100.534C197.575 95.7779 195.632 83.561 201.612 73.2023L201.414 73.0879L201.216 72.9735C195.158 83.4662 197.051 96.0038 205.585 100.931L205.699 100.732Z" fill="#101828"/>
<path d="M225.437 88.7139C226.22 90.8198 227.603 92.5818 229.538 93.6994C234.764 96.7164 242.041 93.8956 245.792 87.3988C249.543 80.9021 248.347 73.1896 243.122 70.1726C239.301 67.9669 234.385 68.8814 230.551 72.0713" stroke="#101828" stroke-width="0.457497"/>
<path opacity="0.15" fill-rule="evenodd" clip-rule="evenodd" d="M200.806 95.2126C200.38 94.9666 199.971 94.7014 199.578 94.419C200.909 97.1349 202.922 99.4052 205.578 100.939C213.152 105.311 223.301 102.157 229.721 94.0714C231.808 95.1744 234.176 95.3995 236.511 94.8822L236.528 94.8785C236.629 94.8561 236.73 94.8319 236.832 94.8067C236.911 94.7867 236.99 94.7662 237.069 94.7448L237.091 94.7382C237.176 94.7149 237.261 94.6907 237.346 94.6656L237.371 94.6581C237.432 94.6399 237.493 94.6213 237.554 94.6012L237.62 94.5803L237.652 94.5696C237.727 94.5453 237.801 94.5202 237.875 94.4945L237.95 94.468C238.018 94.4437 238.087 94.4186 238.155 94.3929L238.215 94.3706C238.286 94.3435 238.357 94.3165 238.427 94.2881L238.508 94.2559L238.684 94.1828L238.699 94.1758L238.788 94.1376L238.95 94.0653L239.077 94.0076L239.221 93.9395L239.351 93.8766L239.491 93.8067L239.62 93.741L239.767 93.6636L239.897 93.5933L240.017 93.5266L240.104 93.4777L240.196 93.4251L240.268 93.3831C240.333 93.3449 240.399 93.3058 240.464 93.2662L240.538 93.2205C240.577 93.1967 240.616 93.172 240.654 93.1473L240.717 93.1082L240.819 93.0425L240.959 92.9507L241.089 92.8635C241.138 92.8304 241.187 92.7964 241.236 92.7624L241.33 92.6962C241.392 92.6524 241.454 92.6082 241.515 92.563L241.585 92.5112C241.652 92.4618 241.718 92.4115 241.784 92.3607L241.825 92.329L241.947 92.2344L242.047 92.1543L242.076 92.1314C242.142 92.0783 242.207 92.0238 242.273 91.9693L242.34 91.9138C242.4 91.863 242.46 91.8113 242.52 91.7596L242.58 91.7069C242.647 91.6482 242.713 91.5886 242.779 91.5284L242.82 91.4916C242.879 91.438 242.937 91.3835 242.995 91.329L243.071 91.2568C244.179 90.1985 245.174 88.944 245.998 87.5171C249.374 81.6688 248.815 74.779 244.853 71.1475C244.779 71.0799 244.704 71.0137 244.628 70.9485C244.293 70.6605 243.934 70.3958 243.553 70.1553C243.45 70.0901 243.346 70.0263 243.24 69.9647C243.162 69.92 243.084 69.8767 243.005 69.8343L242.931 69.7951L242.81 69.7322C244.001 73.3265 243.529 77.801 241.226 81.7909C240.402 83.2178 239.407 84.4723 238.299 85.5305L238.223 85.6028C238.165 85.6573 238.107 85.7118 238.049 85.7654L238.008 85.8022L237.896 85.9029L237.808 85.9807L237.748 86.0334C237.688 86.0851 237.628 86.1368 237.568 86.1876L237.501 86.2431C237.436 86.2976 237.37 86.3521 237.304 86.4052L237.275 86.4281C237.202 86.4872 237.128 86.5455 237.054 86.6028L237.012 86.6345C236.946 86.6853 236.88 86.7356 236.814 86.785L236.743 86.8367C236.682 86.8819 236.62 86.9262 236.558 86.97L236.464 87.0362C236.415 87.0702 236.366 87.1042 236.317 87.1373L236.187 87.2245L236.048 87.3163L235.945 87.382L235.841 87.4477L235.767 87.4943L235.692 87.5399L235.619 87.5837C235.578 87.6084 235.537 87.6331 235.496 87.6569L235.424 87.6988L235.344 87.7445L235.246 87.8004L235.125 87.8671L234.995 87.9374L234.849 88.0148L234.719 88.0805L234.579 88.1504L234.449 88.2133L234.305 88.2813L234.178 88.3391L234.016 88.4114L233.927 88.4496L233.912 88.4566L233.736 88.5297L233.656 88.5619L233.577 88.5926L233.444 88.6444L233.383 88.6667C233.315 88.6924 233.247 88.7175 233.178 88.7418L233.103 88.7683L233.014 88.7991L232.881 88.8433L232.848 88.8541L232.762 88.8816L232.6 88.9319L232.574 88.9393C232.489 88.9645 232.404 88.9887 232.32 89.012L232.297 89.0186C232.117 89.0675 231.937 89.1122 231.756 89.1523L231.739 89.156C229.404 89.6733 227.036 89.4482 224.949 88.3452C218.529 96.4303 208.38 99.5851 200.806 95.2126ZM229.31 63.9156C229.225 63.951 229.14 63.9869 229.055 64.0242C228.984 63.8681 228.911 63.7129 228.836 63.5596C228.997 63.6751 229.155 63.794 229.31 63.9156Z" fill="#101828"/>
</g>
</svg>
