<svg width="449" height="292" viewBox="0 0 449 292" fill="none" xmlns="http://www.w3.org/2000/svg">
<path d="M84.7163 200.201C71.2621 232.597 84.8645 309.413 69.1817 337.293H37.5951L15.4759 333.894C18.2459 231.398 84.7163 200.201 84.7163 200.201Z" fill="#00A47B"/>
<path d="M15.4759 333.894C15.4757 333.903 15.4762 333.912 15.4759 333.921L15.4556 333.891L15.4759 333.894Z" fill="#00A47B"/>
<path d="M15.4759 333.894L37.5951 337.293H69.1817C84.8645 309.413 71.2621 232.597 84.7163 200.201C84.7163 200.201 18.2459 231.398 15.4759 333.894ZM15.4759 333.894C15.4757 333.903 15.4762 333.912 15.4759 333.921L15.4556 333.891L15.4759 333.894Z" stroke="#101828" stroke-width="0.8" stroke-miterlimit="10" stroke-linejoin="round"/>
<path d="M105.622 245.01C92.4045 265.59 90.6347 315.898 78.0247 337.293H48.5227L37.8079 334.342C54.107 261.81 105.622 245.01 105.622 245.01ZM37.8079 334.342C37.8064 334.349 37.8054 334.355 37.804 334.362L37.7942 334.338L37.8079 334.342Z" fill="#89DDC8"/>
<path d="M105.622 245.01L105.959 245.226C106.05 245.084 106.042 244.9 105.939 244.766C105.836 244.632 105.659 244.578 105.498 244.63L105.622 245.01ZM78.0247 337.293V337.693C78.1663 337.693 78.2973 337.619 78.3693 337.497L78.0247 337.293ZM48.5227 337.293L48.4165 337.679C48.4511 337.689 48.4868 337.693 48.5227 337.693V337.293ZM37.804 334.362L37.4347 334.516C37.5017 334.676 37.6651 334.775 37.8387 334.76C38.0122 334.745 38.1561 334.619 38.1942 334.449L37.804 334.362ZM37.7942 334.338L37.9041 333.954C37.7563 333.912 37.5975 333.958 37.4954 334.072C37.3932 334.187 37.3659 334.35 37.425 334.492L37.7942 334.338ZM105.622 245.01L105.286 244.794C101.948 249.99 99.3468 257.039 97.122 264.995C94.8959 272.956 93.0388 281.856 91.2038 290.765C89.3676 299.681 87.5535 308.606 85.4114 316.639C83.2683 324.676 80.8044 331.789 77.6801 337.09L78.0247 337.293L78.3693 337.497C81.55 332.1 84.0361 324.901 86.1844 316.845C88.3337 308.785 90.1527 299.835 91.9873 290.927C93.8233 282.013 95.6751 273.14 97.8924 265.211C100.111 257.277 102.687 250.32 105.959 245.226L105.622 245.01ZM78.0247 337.293V336.893H48.5227V337.293V337.693H78.0247V337.293ZM48.5227 337.293L48.6289 336.908L37.9141 333.957L37.8079 334.342L37.7016 334.728L48.4165 337.679L48.5227 337.293ZM37.8079 334.342L38.1981 334.43C46.328 298.252 63.2345 275.991 78.0931 262.776C85.5242 256.166 92.446 251.817 97.5064 249.122C100.037 247.774 102.101 246.84 103.531 246.243C104.246 245.945 104.802 245.731 105.178 245.592C105.366 245.522 105.51 245.472 105.605 245.439C105.653 245.422 105.689 245.41 105.712 245.402C105.724 245.398 105.733 245.395 105.739 245.393C105.742 245.392 105.744 245.391 105.745 245.391C105.745 245.391 105.746 245.391 105.746 245.391C105.746 245.391 105.746 245.391 105.622 245.01C105.498 244.63 105.498 244.63 105.497 244.63C105.497 244.63 105.496 244.631 105.495 244.631C105.493 244.632 105.491 244.633 105.487 244.634C105.48 244.636 105.47 244.639 105.457 244.644C105.431 244.652 105.393 244.665 105.343 244.683C105.243 244.718 105.094 244.77 104.901 244.841C104.515 244.984 103.948 245.202 103.223 245.505C101.772 246.11 99.6844 247.055 97.1303 248.415C92.0223 251.136 85.0465 255.521 77.5614 262.178C62.5876 275.496 45.5869 297.901 37.4176 334.255L37.8079 334.342ZM37.8079 334.342L37.4176 334.255C37.4162 334.261 37.4151 334.266 37.4144 334.27C37.4137 334.274 37.413 334.277 37.4128 334.278C37.4124 334.28 37.4124 334.28 37.4125 334.28C37.4126 334.279 37.413 334.277 37.4137 334.274L37.804 334.362L38.1942 334.449C38.1956 334.443 38.1967 334.438 38.1974 334.434C38.1982 334.431 38.1988 334.427 38.199 334.426C38.1994 334.424 38.1994 334.424 38.1993 334.424C38.1992 334.425 38.1988 334.427 38.1981 334.43L37.8079 334.342ZM37.804 334.362L38.1732 334.208L38.1634 334.185L37.7942 334.338L37.425 334.492L37.4347 334.516L37.804 334.362ZM37.7942 334.338L37.6843 334.723L37.698 334.727L37.8079 334.342L37.9177 333.958L37.9041 333.954L37.7942 334.338Z" fill="#101828"/>
<path d="M37.7916 334.341L47.7111 337.077C64.532 277.001 95.0689 255.45 105.611 244.988C105.611 244.988 54.0862 261.79 37.7916 334.341Z" fill="#89DDC8" stroke="#101828" stroke-width="0.8" stroke-miterlimit="10" stroke-linejoin="round"/>
<path d="M12.761 243.65C16.858 268.112 57.0561 315.939 56.8958 337.294H15.5569C-15.4249 275.859 12.761 243.65 12.761 243.65Z" fill="#89DDC8"/>
<path d="M12.761 243.65L13.1555 243.584C13.13 243.431 13.0189 243.307 12.8702 243.265C12.7215 243.223 12.5618 243.27 12.46 243.386L12.761 243.65ZM56.8958 337.294V337.694C57.1155 337.694 57.2941 337.517 57.2957 337.297L56.8958 337.294ZM15.5569 337.294L15.1997 337.474C15.2677 337.609 15.4059 337.694 15.5569 337.694V337.294ZM12.761 243.65L12.3665 243.716C13.4021 249.899 16.7095 257.523 21.054 265.785C25.4024 274.054 30.8132 283.005 36.0813 291.842C41.3532 300.686 46.4821 309.416 50.2834 317.267C54.092 325.133 56.5351 332.053 56.4958 337.291L56.8958 337.294L57.2957 337.297C57.3366 331.858 54.815 324.791 51.0035 316.919C47.1847 309.032 42.0381 300.272 36.7685 291.432C31.4949 282.586 26.098 273.658 21.7621 265.413C17.4221 257.159 14.1684 249.632 13.1555 243.584L12.761 243.65ZM56.8958 337.294V336.894H15.5569V337.294V337.694H56.8958V337.294ZM15.5569 337.294L15.914 337.114C0.460405 306.47 -0.221847 283.15 2.93286 267.513C4.51093 259.691 7.05088 253.782 9.19264 249.833C10.2636 247.858 11.2349 246.374 11.9366 245.385C12.2874 244.891 12.5708 244.52 12.7655 244.275C12.8628 244.152 12.938 244.06 12.9883 244C13.0134 243.97 13.0324 243.948 13.0448 243.933C13.051 243.926 13.0555 243.921 13.0584 243.917C13.0599 243.916 13.0609 243.914 13.0615 243.914C13.0618 243.913 13.0619 243.913 13.0621 243.913C13.0621 243.913 13.062 243.913 12.761 243.65C12.46 243.386 12.4597 243.387 12.4593 243.387C12.459 243.387 12.4585 243.388 12.4579 243.389C12.4568 243.39 12.4553 243.392 12.4533 243.394C12.4494 243.398 12.4438 243.405 12.4366 243.413C12.4221 243.43 12.4011 243.455 12.3739 243.488C12.3194 243.553 12.2401 243.65 12.1385 243.778C11.9355 244.034 11.6435 244.416 11.2842 244.922C10.5655 245.935 9.57684 247.447 8.48941 249.452C6.3145 253.462 3.74434 259.445 2.14866 267.355C-1.04414 283.181 -0.32844 306.683 15.1997 337.474L15.5569 337.294Z" fill="#101828"/>
<path d="M12.7393 243.632C11.5258 256.18 2.32927 284.792 27.1602 337.293H15.541C-15.4528 275.847 12.7393 243.632 12.7393 243.632Z" fill="#89DDC8"/>
<path d="M12.7393 243.632L13.1374 243.67C13.1541 243.497 13.0573 243.333 12.8978 243.265C12.7384 243.196 12.5526 243.238 12.4382 243.368L12.7393 243.632ZM27.1602 337.293V337.693C27.2972 337.693 27.4248 337.623 27.4981 337.507C27.5714 337.391 27.5804 337.246 27.5218 337.122L27.1602 337.293ZM15.541 337.293L15.1839 337.473C15.2519 337.608 15.39 337.693 15.541 337.693V337.293ZM12.7393 243.632L12.3411 243.593C11.7408 249.801 9.12891 260.178 9.78344 275.497C10.4389 290.838 14.3619 311.169 26.7986 337.464L27.1602 337.293L27.5218 337.122C15.1275 310.916 11.2333 290.69 10.5827 275.463C9.93114 260.213 12.5242 250.011 13.1374 243.67L12.7393 243.632ZM27.1602 337.293V336.893H15.541V337.293V337.693H27.1602V337.293ZM15.541 337.293L15.8982 337.113C0.438541 306.464 -0.245166 283.139 2.90957 267.499C4.48766 259.676 7.028 253.766 9.17015 249.816C10.2413 247.841 11.2128 246.357 11.9146 245.368C12.2655 244.873 12.549 244.503 12.7437 244.257C12.841 244.134 12.9162 244.043 12.9665 243.982C12.9917 243.952 13.0106 243.93 13.023 243.915C13.0292 243.908 13.0338 243.903 13.0367 243.899C13.0381 243.898 13.0392 243.897 13.0398 243.896C13.0401 243.896 13.0402 243.895 13.0403 243.895C13.0404 243.895 13.0403 243.895 12.7393 243.632C12.4382 243.368 12.4379 243.369 12.4375 243.369C12.4373 243.37 12.4367 243.37 12.4362 243.371C12.4351 243.372 12.4335 243.374 12.4316 243.376C12.4277 243.381 12.4221 243.387 12.4148 243.396C12.4004 243.412 12.3794 243.437 12.3521 243.47C12.2977 243.535 12.2183 243.632 12.1167 243.76C11.9136 244.016 11.6217 244.398 11.2622 244.905C10.5434 245.917 9.55453 247.43 8.46692 249.435C6.29162 253.446 3.72106 259.43 2.12537 267.341C-1.06746 283.17 -0.350287 306.676 15.1839 337.473L15.541 337.293Z" fill="#101828"/>
<path d="M233.181 174.361C242.282 173.788 249.672 176.145 254.426 182.074C258.965 187.735 260.217 195.609 259.756 204.088C259.288 212.687 257.013 222.769 253.532 233.718C239.652 277.369 205.184 338.975 177.896 386.135L173.568 383.631L169.24 381.126C196.669 333.722 230.516 273.101 244.002 230.688C247.362 220.12 249.368 210.945 249.771 203.545C250.18 196.026 248.89 191.157 246.624 188.331C244.573 185.772 240.893 183.896 233.808 184.342C226.609 184.795 216.609 187.645 203.202 193.8L199.029 184.712C212.892 178.348 224.194 174.927 233.181 174.361Z" fill="#72D0B8"/>
<path d="M233.181 174.361L233.156 173.962L233.156 173.962L233.181 174.361ZM254.426 182.074L254.738 181.824L254.738 181.824L254.426 182.074ZM259.756 204.088L260.156 204.11L260.156 204.11L259.756 204.088ZM253.532 233.718L253.913 233.839L253.532 233.718ZM177.896 386.135L177.695 386.481L178.042 386.682L178.242 386.336L177.896 386.135ZM173.568 383.631L173.367 383.977L173.367 383.977L173.568 383.631ZM169.24 381.126L168.894 380.926L168.694 381.272L169.04 381.473L169.24 381.126ZM244.002 230.688L244.383 230.809L244.002 230.688ZM249.771 203.545L250.17 203.567L250.17 203.567L249.771 203.545ZM246.624 188.331L246.936 188.08L246.936 188.08L246.624 188.331ZM233.808 184.342L233.783 183.942L233.783 183.942L233.808 184.342ZM203.202 193.8L202.838 193.967L203.005 194.33L203.369 194.164L203.202 193.8ZM199.029 184.712L198.863 184.348L198.499 184.515L198.666 184.878L199.029 184.712ZM233.181 174.361L233.206 174.76C242.227 174.193 249.468 176.531 254.114 182.324L254.426 182.074L254.738 181.824C249.875 175.76 242.336 173.384 233.156 173.962L233.181 174.361ZM254.426 182.074L254.114 182.324C258.562 187.872 259.816 195.625 259.357 204.066L259.756 204.088L260.156 204.11C260.619 195.592 259.368 187.598 254.738 181.824L254.426 182.074ZM259.756 204.088L259.357 204.066C258.892 212.617 256.627 222.664 253.15 233.596L253.532 233.718L253.913 233.839C257.399 222.875 259.685 212.756 260.156 204.11L259.756 204.088ZM253.532 233.718L253.15 233.596C239.287 277.199 204.843 338.765 177.55 385.935L177.896 386.135L178.242 386.336C205.524 339.185 240.017 277.54 253.913 233.839L253.532 233.718ZM177.896 386.135L178.096 385.789L173.768 383.284L173.568 383.631L173.367 383.977L177.695 386.481L177.896 386.135ZM173.568 383.631L173.768 383.284L169.441 380.78L169.24 381.126L169.04 381.473L173.367 383.977L173.568 383.631ZM169.24 381.126L169.586 381.327C197.01 333.932 230.881 273.272 244.383 230.809L244.002 230.688L243.621 230.567C230.15 272.931 196.329 333.512 168.894 380.926L169.24 381.126ZM244.002 230.688L244.383 230.809C247.748 220.226 249.765 211.015 250.17 203.567L249.771 203.545L249.372 203.523C248.972 210.876 246.976 220.014 243.621 230.567L244.002 230.688ZM249.771 203.545L250.17 203.567C250.581 196.009 249.293 191.02 246.936 188.08L246.624 188.331L246.312 188.581C248.487 191.294 249.778 196.043 249.372 203.523L249.771 203.545ZM246.624 188.331L246.936 188.08C244.777 185.388 240.95 183.491 233.783 183.942L233.808 184.342L233.834 184.741C240.836 184.3 244.368 186.156 246.312 188.581L246.624 188.331ZM233.808 184.342L233.783 183.942C226.513 184.4 216.46 187.273 203.035 193.437L203.202 193.8L203.369 194.164C216.758 188.017 226.706 185.189 233.834 184.741L233.808 184.342ZM203.202 193.8L203.565 193.633L199.393 184.545L199.029 184.712L198.666 184.878L202.838 193.967L203.202 193.8ZM199.029 184.712L199.196 185.075C213.041 178.72 224.291 175.321 233.206 174.76L233.181 174.361L233.156 173.962C224.098 174.532 212.743 177.976 198.863 184.348L199.029 184.712Z" fill="#101828"/>
<ellipse cx="19.5201" cy="27.9531" rx="19.5201" ry="27.9531" transform="matrix(-0.715094 -0.699028 0.680835 -0.732437 148.953 247.649)" fill="#EBCFF6" stroke="#101828" stroke-width="0.8"/>
<ellipse cx="17.1777" cy="32.1589" rx="17.1777" ry="32.1589" transform="matrix(0.410269 -0.911965 0.835664 0.54924 117.099 179.515)" fill="#EBCFF6"/>
<ellipse cx="17.2536" cy="32.0366" rx="17.2536" ry="32.0366" transform="matrix(0.987345 0.158586 0.00316061 0.999995 157.754 132.384)" fill="#EBCFF6"/>
<ellipse cx="201.705" cy="185.069" rx="24.6002" ry="28.0298" transform="rotate(58.9758 201.705 185.069)" fill="#EBCFF6"/>
<ellipse cx="17.1777" cy="32.1589" rx="17.1777" ry="32.1589" transform="matrix(-0.410269 0.911965 -0.835664 -0.54924 238.69 218.835)" fill="#EBCFF6"/>
<ellipse cx="17.3746" cy="31.8274" rx="17.3746" ry="31.8274" transform="matrix(-0.954801 -0.297246 0.136352 -0.99066 193.148 267.888)" fill="#EBCFF6"/>
<path d="M158.068 165.847C143.225 156.092 128.038 155.198 124.146 163.849C120.254 172.501 129.131 187.423 143.973 197.178C147.028 199.186 150.098 200.819 153.081 202.07" stroke="#101828" stroke-width="0.8"/>
<ellipse cx="17.2536" cy="32.0366" rx="17.2536" ry="32.0366" transform="matrix(0.987345 0.158586 0.00316061 0.999995 157.754 132.384)" fill="#EBCFF6"/>
<ellipse cx="17.2536" cy="32.0366" rx="17.2536" ry="32.0366" transform="matrix(0.987345 0.158586 0.00316061 0.999995 157.754 132.384)" fill="#EBCFF6"/>
<path d="M191.885 171.685L192.275 171.814L191.885 171.685ZM191.874 174.086L191.479 174.015L191.874 174.086ZM191.485 177.604L191.879 177.683L191.485 177.604ZM191.351 178.773L191.739 178.912L191.351 178.773ZM190.7 182.21L190.321 182.034L190.7 182.21ZM190.089 184.429L189.73 184.204L190.089 184.429ZM189.374 186.602L188.995 186.428L189.374 186.602ZM189.046 187.707L188.666 187.537L189.046 187.707ZM188.535 188.709L188.212 188.426L188.535 188.709ZM187.627 190.781L187.958 191.052L187.627 190.781ZM186.422 192.652L186.72 192.963L186.422 192.652ZM185.826 193.597L185.453 193.404L185.826 193.597ZM185.245 194.551L184.94 194.247L185.245 194.551ZM181.051 198.088L181.283 198.449L181.051 198.088ZM178.974 198.899L178.746 198.536L178.974 198.899ZM177.906 199.225L177.809 198.822L177.906 199.225ZM175.568 199.232L175.635 199.637L175.568 199.232ZM172.068 198.221L172.038 198.615L172.068 198.221ZM170.973 197.634L171.206 197.349L170.973 197.634ZM168.894 196.126L169.054 195.787L168.894 196.126ZM167.883 195.322L168.137 195.058L167.883 195.322ZM167.077 194.301L166.755 194.479L167.077 194.301ZM165.495 192.253L165.189 192.457L165.495 192.253ZM164.788 191.176L164.461 191.345L164.788 191.176ZM164.148 190.063L164.484 189.909L164.148 190.063ZM163.558 188.929L163.906 188.798L163.558 188.929ZM162.907 187.817L162.597 188.014L162.907 187.817ZM161.776 185.521L161.435 185.667L161.776 185.521ZM161.331 184.337L160.947 184.37L161.331 184.337ZM160.957 183.132L161.321 183.037L160.957 183.132ZM159.763 179.545L159.381 179.582L159.763 179.545ZM158.955 175.906L159.338 175.87L158.955 175.906ZM158.457 173.474L158.848 173.478L158.457 173.474ZM158.302 172.258L158.695 172.278L158.302 172.258ZM158.203 169.838L158.594 169.852L158.203 169.838ZM158.006 168.619L157.619 168.638L158.006 168.619ZM157.85 167.402L158.244 167.445L157.85 167.402ZM157.937 163.813L157.542 163.736L157.937 163.813ZM158.269 156.68L157.875 156.594L158.269 156.68ZM158.663 154.378L158.275 154.239L158.663 154.378ZM158.88 153.232L158.492 153.098L158.88 153.232ZM159.113 152.092L159.499 152.242L159.113 152.092ZM160.059 148.78L159.685 148.591L160.059 148.78ZM160.433 147.702L160.058 147.515L160.433 147.702ZM160.834 146.637L160.466 146.431L160.834 146.637ZM162.225 143.556L162.529 143.861L162.225 143.556ZM162.886 142.659L162.536 142.417L162.886 142.659ZM163.402 141.665L163.042 141.442L163.402 141.665ZM163.925 140.668L163.576 140.424L163.925 140.668ZM166.996 137.535L167.293 137.847L166.996 137.535ZM168.785 136.274L168.535 135.924L168.785 136.274ZM169.764 135.771L169.578 135.388L169.764 135.771ZM170.792 135.332L170.581 134.959L170.792 135.332ZM171.904 135.136L171.87 134.732L171.904 135.136ZM176.598 135.558L176.578 135.954L176.598 135.558ZM177.745 136.025L177.906 135.687L177.745 136.025ZM178.827 136.705L178.995 136.371L178.827 136.705ZM181.854 139.069L182.112 138.809L181.854 139.069ZM183.461 141.091L183.765 140.886L183.461 141.091ZM184.996 143.162L185.294 142.948L184.996 143.162ZM186.395 145.333L186.727 145.171L186.395 145.333ZM186.891 146.507L187.269 146.454L186.891 146.507ZM187.437 147.666L187.749 147.471L187.437 147.666ZM188.023 148.807L188.392 148.724L188.023 148.807ZM188.467 149.996L188.103 150.091L188.467 149.996ZM188.868 151.192L189.246 151.139L188.868 151.192ZM189.262 152.39L189.628 152.3L189.262 152.39ZM189.609 153.594L189.995 153.574L189.609 153.594ZM190.203 156.009L189.81 155.991L190.203 156.009ZM190.78 158.428L191.175 158.498L190.78 158.428ZM190.891 159.648L190.504 159.665L190.891 159.648ZM191.238 160.861L190.872 160.951L191.238 160.861ZM191.597 164.495L191.992 164.568L191.597 164.495ZM191.69 165.706L191.301 165.714L191.69 165.706ZM191.813 166.918L191.418 166.865L191.813 166.918ZM191.921 169.312L191.527 169.267L191.921 169.312ZM191.954 170.498L191.56 170.452C191.577 170.828 191.555 171.196 191.495 171.557L191.885 171.685L192.275 171.814C192.344 171.4 192.368 170.976 192.349 170.544L191.954 170.498ZM191.885 171.685L191.495 171.557C191.425 171.975 191.407 172.405 191.441 172.844L191.835 172.877L192.229 172.91C192.2 172.536 192.215 172.171 192.275 171.814L191.885 171.685ZM191.835 172.877L191.441 172.844C191.472 173.238 191.484 173.628 191.479 174.015L191.874 174.086L192.269 174.156C192.275 173.744 192.261 173.329 192.229 172.91L191.835 172.877ZM191.874 174.086L191.479 174.015C191.473 174.391 191.435 174.76 191.365 175.122L191.753 175.26L192.141 175.399C192.22 174.993 192.262 174.579 192.269 174.156L191.874 174.086ZM191.753 175.26L191.365 175.122C191.289 175.514 191.227 175.911 191.182 176.311L191.574 176.42L191.966 176.53C192.01 176.15 192.068 175.773 192.141 175.399L191.753 175.26ZM191.574 176.42L191.182 176.311C191.136 176.711 191.105 177.115 191.09 177.524L191.485 177.604L191.879 177.683C191.894 177.294 191.923 176.91 191.966 176.53L191.574 176.42ZM191.485 177.604L191.09 177.524C191.076 177.903 191.034 178.273 190.963 178.635L191.351 178.773L191.739 178.912C191.817 178.512 191.864 178.102 191.879 177.683L191.485 177.604ZM191.351 178.773L190.963 178.635C190.893 178.997 190.796 179.352 190.673 179.698L191.047 179.888L191.421 180.077C191.555 179.699 191.662 179.31 191.739 178.912L191.351 178.773ZM191.047 179.888L190.673 179.698C190.53 180.101 190.461 180.531 190.467 180.986L190.862 181.046L191.257 181.105C191.252 180.74 191.307 180.398 191.421 180.077L191.047 179.888ZM190.862 181.046L190.467 180.986C190.472 181.357 190.423 181.705 190.321 182.034L190.7 182.21L191.078 182.387C191.203 181.983 191.263 181.555 191.257 181.105L190.862 181.046ZM190.7 182.21L190.321 182.034C190.203 182.416 190.11 182.808 190.044 183.211L190.434 183.339L190.824 183.467C190.885 183.097 190.969 182.737 191.078 182.387L190.7 182.21ZM190.434 183.339L190.044 183.211C189.986 183.562 189.881 183.893 189.73 184.204L190.089 184.429L190.448 184.654C190.629 184.284 190.754 183.888 190.824 183.467L190.434 183.339ZM190.089 184.429L189.73 184.204C189.554 184.564 189.413 184.94 189.307 185.333L189.69 185.496L190.072 185.66C190.166 185.311 190.291 184.976 190.448 184.654L190.089 184.429ZM189.69 185.496L189.307 185.333C189.209 185.7 189.104 186.065 188.995 186.428L189.374 186.602L189.753 186.776C189.865 186.406 189.971 186.034 190.072 185.66L189.69 185.496ZM189.374 186.602L188.995 186.428C188.883 186.796 188.774 187.166 188.666 187.537L189.046 187.707L189.426 187.878C189.533 187.509 189.642 187.142 189.753 186.776L189.374 186.602ZM189.046 187.707L188.666 187.537C188.57 187.864 188.42 188.16 188.212 188.426L188.535 188.709L188.858 188.991C189.116 188.661 189.306 188.29 189.426 187.878L189.046 187.707ZM188.535 188.709L188.212 188.426C187.947 188.765 187.77 189.157 187.681 189.6L188.069 189.741L188.456 189.881C188.524 189.544 188.657 189.249 188.858 188.991L188.535 188.709ZM188.069 189.741L187.681 189.6C187.613 189.943 187.484 190.245 187.295 190.509L187.627 190.781L187.958 191.052C188.203 190.71 188.369 190.319 188.456 189.881L188.069 189.741ZM187.627 190.781L187.295 190.509C187.067 190.828 186.868 191.166 186.698 191.524L187.059 191.746L187.42 191.968C187.573 191.646 187.752 191.34 187.958 191.052L187.627 190.781ZM187.059 191.746L186.698 191.524C186.553 191.83 186.362 192.102 186.124 192.341L186.422 192.652L186.72 192.963C187.009 192.674 187.242 192.342 187.42 191.968L187.059 191.746ZM186.422 192.652L186.124 192.341C185.827 192.638 185.604 192.993 185.453 193.404L185.826 193.597L186.199 193.79C186.317 193.468 186.49 193.193 186.72 192.963L186.422 192.652ZM185.826 193.597L185.453 193.404C185.334 193.73 185.163 194.01 184.94 194.247L185.245 194.551L185.55 194.855C185.833 194.554 186.049 194.198 186.199 193.79L185.826 193.597ZM185.245 194.551L184.94 194.247C184.688 194.515 184.435 194.78 184.18 195.043L184.482 195.351L184.783 195.659C185.04 195.393 185.296 195.125 185.55 194.855L185.245 194.551ZM184.482 195.351L184.18 195.043C183.925 195.307 183.669 195.569 183.411 195.829L183.711 196.139L184.01 196.449C184.269 196.187 184.527 195.923 184.783 195.659L184.482 195.351ZM183.711 196.139L183.411 195.829C183.175 196.069 182.907 196.27 182.607 196.434L182.834 196.799L183.061 197.163C183.414 196.97 183.73 196.732 184.01 196.449L183.711 196.139ZM182.834 196.799L182.607 196.434C182.258 196.625 181.939 196.853 181.649 197.119L181.938 197.44L182.227 197.76C182.479 197.528 182.756 197.329 183.061 197.163L182.834 196.799ZM181.938 197.44L181.649 197.119C181.396 197.352 181.119 197.555 180.819 197.726L181.051 198.088L181.283 198.449C181.624 198.254 181.939 198.025 182.227 197.76L181.938 197.44ZM181.051 198.088L180.819 197.726C180.526 197.894 180.21 198.018 179.871 198.099L180.018 198.495L180.164 198.89C180.563 198.794 180.936 198.647 181.283 198.449L181.051 198.088ZM180.018 198.495L179.871 198.099C179.473 198.195 179.098 198.34 178.746 198.536L178.974 198.899L179.203 199.263C179.504 199.095 179.824 198.971 180.164 198.89L180.018 198.495ZM178.974 198.899L178.746 198.536C178.458 198.696 178.147 198.79 177.809 198.822L177.906 199.225L178.003 199.629C178.437 199.589 178.837 199.466 179.203 199.263L178.974 198.899ZM177.906 199.225L177.809 198.822C177.441 198.856 177.069 198.865 176.695 198.848L176.741 199.252L176.787 199.657C177.196 199.675 177.601 199.666 178.003 199.629L177.906 199.225ZM176.741 199.252L176.695 198.848C176.296 198.829 175.898 198.822 175.501 198.827L175.568 199.232L175.635 199.637C176.018 199.633 176.402 199.639 176.787 199.657L176.741 199.252ZM175.568 199.232L175.501 198.827C175.139 198.83 174.775 198.792 174.408 198.713L174.387 199.109L174.366 199.504C174.792 199.597 175.215 199.641 175.635 199.637L175.568 199.232ZM174.387 199.109L174.408 198.713C174.052 198.636 173.708 198.506 173.373 198.322L173.233 198.673L173.093 199.024C173.504 199.249 173.929 199.409 174.366 199.504L174.387 199.109ZM173.233 198.673L173.373 198.322C172.964 198.098 172.539 197.933 172.098 197.827L172.068 198.221L172.038 198.615C172.405 198.703 172.756 198.84 173.093 199.024L173.233 198.673ZM172.068 198.221L172.098 197.827C171.767 197.748 171.472 197.59 171.206 197.349L170.973 197.634L170.74 197.919C171.126 198.267 171.561 198.5 172.038 198.615L172.068 198.221ZM170.973 197.634L171.206 197.349C170.866 197.042 170.514 196.761 170.151 196.506L169.966 196.829L169.781 197.152C170.11 197.382 170.429 197.638 170.74 197.919L170.973 197.634ZM169.966 196.829L170.151 196.506C169.797 196.258 169.431 196.018 169.054 195.787L168.894 196.126L168.733 196.465C169.094 196.686 169.444 196.915 169.781 197.152L169.966 196.829ZM168.894 196.126L169.054 195.787C168.718 195.581 168.413 195.338 168.137 195.058L167.883 195.322L167.628 195.586C167.962 195.925 168.331 196.218 168.733 196.465L168.894 196.126ZM167.883 195.322L168.137 195.058C167.858 194.774 167.613 194.463 167.4 194.123L167.077 194.301L166.755 194.479C167.006 194.88 167.297 195.25 167.628 195.586L167.883 195.322ZM167.077 194.301L167.4 194.123C167.153 193.729 166.877 193.36 166.572 193.017L166.3 193.262L166.028 193.507C166.295 193.808 166.537 194.132 166.755 194.479L167.077 194.301ZM166.3 193.262L166.572 193.017C166.297 192.708 166.04 192.386 165.8 192.05L165.495 192.253L165.189 192.457C165.45 192.822 165.73 193.172 166.028 193.507L166.3 193.262ZM165.495 192.253L165.8 192.05C165.557 191.711 165.33 191.363 165.116 191.007L164.788 191.176L164.461 191.345C164.688 191.725 164.931 192.095 165.189 192.457L165.495 192.253ZM164.788 191.176L165.116 191.007C164.899 190.644 164.688 190.278 164.484 189.909L164.148 190.063L163.811 190.218C164.021 190.597 164.237 190.972 164.461 191.345L164.788 191.176ZM164.148 190.063L164.484 189.909C164.281 189.542 164.089 189.172 163.906 188.798L163.558 188.929L163.21 189.061C163.4 189.451 163.6 189.837 163.811 190.218L164.148 190.063ZM163.558 188.929L163.906 188.798C163.709 188.393 163.479 188 163.217 187.621L162.907 187.817L162.597 188.014C162.831 188.353 163.035 188.702 163.21 189.061L163.558 188.929ZM162.907 187.817L163.217 187.621C162.991 187.293 162.809 186.951 162.671 186.592L162.306 186.686L161.942 186.78C162.108 187.211 162.327 187.623 162.597 188.014L162.907 187.817ZM162.306 186.686L162.671 186.592C162.511 186.178 162.327 185.773 162.117 185.375L161.776 185.521L161.435 185.667C161.627 186.031 161.796 186.402 161.942 186.78L162.306 186.686ZM161.776 185.521L162.117 185.375C161.936 185.031 161.801 184.674 161.714 184.303L161.331 184.337L160.947 184.37C161.053 184.817 161.215 185.25 161.435 185.667L161.776 185.521ZM161.331 184.337L161.714 184.303C161.613 183.874 161.482 183.452 161.321 183.037L160.957 183.132L160.593 183.227C160.738 183.601 160.856 183.982 160.947 184.37L161.331 184.337ZM160.957 183.132L161.321 183.037C161.171 182.651 161.033 182.263 160.906 181.872L160.533 181.942L160.159 182.012C160.292 182.42 160.436 182.825 160.593 183.227L160.957 183.132ZM160.533 181.942L160.906 181.872C160.775 181.468 160.637 181.065 160.493 180.663L160.125 180.746L159.756 180.83C159.897 181.223 160.031 181.617 160.159 182.012L160.533 181.942ZM160.125 180.746L160.493 180.663C160.356 180.281 160.24 179.896 160.146 179.508L159.763 179.545L159.381 179.582C159.483 180.001 159.608 180.417 159.756 180.83L160.125 180.746ZM159.763 179.545L160.146 179.508C160.048 179.108 159.955 178.708 159.868 178.307L159.483 178.333L159.098 178.359C159.187 178.767 159.281 179.175 159.381 179.582L159.763 179.545ZM159.483 178.333L159.868 178.307C159.78 177.904 159.695 177.501 159.612 177.098L159.226 177.119L158.84 177.14C158.923 177.547 159.009 177.953 159.098 178.359L159.483 178.333ZM159.226 177.119L159.612 177.098C159.528 176.689 159.436 176.279 159.338 175.87L158.955 175.906L158.572 175.941C158.669 176.341 158.758 176.741 158.84 177.14L159.226 177.119ZM158.955 175.906L159.338 175.87C159.241 175.469 159.149 175.067 159.062 174.665L158.677 174.69L158.292 174.715C158.38 175.125 158.474 175.533 158.572 175.941L158.955 175.906ZM158.677 174.69L159.062 174.665C158.976 174.269 158.905 173.873 158.848 173.478L158.457 173.474L158.066 173.469C158.127 173.884 158.202 174.3 158.292 174.715L158.677 174.69ZM158.457 173.474L158.848 173.478C158.789 173.078 158.738 172.678 158.695 172.278L158.302 172.258L157.91 172.239C157.955 172.649 158.007 173.059 158.066 173.469L158.457 173.474ZM158.302 172.258L158.695 172.278C158.653 171.893 158.638 171.509 158.651 171.127L158.256 171.048L157.862 170.97C157.847 171.391 157.863 171.814 157.91 172.239L158.302 172.258ZM158.256 171.048L158.651 171.127C158.665 170.704 158.646 170.279 158.594 169.852L158.203 169.838L157.811 169.824C157.857 170.207 157.874 170.589 157.862 170.97L158.256 171.048ZM158.203 169.838L158.594 169.852C158.544 169.436 158.476 169.019 158.392 168.6L158.006 168.619L157.619 168.638C157.699 169.035 157.763 169.43 157.811 169.824L158.203 169.838ZM158.006 168.619L158.392 168.6C158.314 168.212 158.265 167.827 158.244 167.445L157.85 167.402L157.456 167.36C157.479 167.783 157.533 168.209 157.619 168.638L158.006 168.619ZM157.85 167.402L158.244 167.445C158.224 167.057 158.224 166.672 158.247 166.29L157.853 166.202L157.459 166.113C157.434 166.526 157.433 166.941 157.456 167.36L157.85 167.402ZM157.853 166.202L158.247 166.29C158.271 165.888 158.288 165.486 158.299 165.083L157.904 165.008L157.509 164.932C157.499 165.327 157.482 165.72 157.459 166.113L157.853 166.202ZM157.904 165.008L158.299 165.083C158.309 164.685 158.32 164.287 158.332 163.889L157.937 163.813L157.542 163.736C157.531 164.134 157.52 164.533 157.509 164.932L157.904 165.008ZM157.937 163.813L158.332 163.889C158.343 163.494 158.359 163.1 158.379 162.708L157.985 162.622L157.591 162.537C157.57 162.936 157.554 163.335 157.542 163.736L157.937 163.813ZM157.985 162.622L158.379 162.708C158.4 162.305 158.411 161.901 158.411 161.496L158.016 161.43L157.621 161.365C157.621 161.757 157.61 162.148 157.591 162.537L157.985 162.622ZM158.016 161.43L158.411 161.496C158.412 161.107 158.428 160.723 158.461 160.342L158.067 160.243L157.674 160.145C157.64 160.548 157.622 160.955 157.621 161.365L158.016 161.43ZM158.067 160.243L158.461 160.342C158.494 159.958 158.538 159.576 158.594 159.197L158.203 159.075L157.812 158.954C157.754 159.348 157.708 159.745 157.674 160.145L158.067 160.243ZM158.203 159.075L158.594 159.197C158.654 158.786 158.676 158.365 158.657 157.933L158.263 157.885L157.868 157.838C157.884 158.22 157.866 158.592 157.812 158.954L158.203 159.075ZM158.263 157.885L158.657 157.933C158.641 157.539 158.643 157.15 158.663 156.766L158.269 156.68L157.875 156.594C157.853 157.004 157.851 157.418 157.868 157.838L158.263 157.885ZM158.269 156.68L158.663 156.766C158.684 156.389 158.733 156.022 158.812 155.664L158.426 155.517L158.04 155.369C157.952 155.767 157.897 156.175 157.875 156.594L158.269 156.68ZM158.426 155.517L158.812 155.664C158.896 155.284 158.975 154.901 159.051 154.517L158.663 154.378L158.275 154.239C158.201 154.618 158.122 154.994 158.04 155.369L158.426 155.517ZM158.663 154.378L159.051 154.517C159.126 154.135 159.198 153.751 159.269 153.367L158.88 153.232L158.492 153.098C158.422 153.479 158.349 153.86 158.275 154.239L158.663 154.378ZM158.88 153.232L159.269 153.367C159.338 152.989 159.415 152.614 159.499 152.242L159.113 152.092L158.727 151.943C158.641 152.325 158.563 152.71 158.492 153.098L158.88 153.232ZM159.113 152.092L159.499 152.242C159.579 151.885 159.689 151.542 159.829 151.21L159.462 151.002L159.096 150.793C158.94 151.162 158.817 151.546 158.727 151.943L159.113 152.092ZM159.462 151.002L159.829 151.21C159.988 150.835 160.101 150.439 160.167 150.023L159.777 149.897L159.387 149.77C159.33 150.128 159.233 150.469 159.096 150.793L159.462 151.002ZM159.777 149.897L160.167 150.023C160.226 149.658 160.315 149.307 160.434 148.968L160.059 148.78L159.685 148.591C159.552 148.969 159.453 149.362 159.387 149.77L159.777 149.897ZM160.059 148.78L160.434 148.968C160.56 148.609 160.685 148.249 160.808 147.888L160.433 147.702L160.058 147.515C159.935 147.875 159.811 148.233 159.685 148.591L160.059 148.78ZM160.433 147.702L160.808 147.888C160.929 147.534 161.061 147.186 161.202 146.843L160.834 146.637L160.466 146.431C160.32 146.787 160.183 147.148 160.058 147.515L160.433 147.702ZM160.834 146.637L161.202 146.843C161.341 146.506 161.498 146.18 161.674 145.864L161.323 145.624L160.972 145.383C160.784 145.721 160.616 146.07 160.466 146.431L160.834 146.637ZM161.323 145.624L161.674 145.864C161.872 145.507 162.015 145.116 162.102 144.693L161.715 144.55L161.328 144.408C161.255 144.762 161.136 145.087 160.972 145.383L161.323 145.624ZM161.715 144.55L162.102 144.693C162.169 144.367 162.31 144.091 162.529 143.861L162.225 143.556L161.921 143.251C161.62 143.569 161.421 143.956 161.328 144.408L161.715 144.55ZM162.225 143.556L162.529 143.861C162.806 143.568 163.042 143.248 163.237 142.901L162.886 142.659L162.536 142.417C162.368 142.717 162.163 142.995 161.921 143.251L162.225 143.556ZM162.886 142.659L163.237 142.901C163.422 142.571 163.597 142.233 163.762 141.888L163.402 141.665L163.042 141.442C162.882 141.775 162.714 142.1 162.536 142.417L162.886 142.659ZM163.402 141.665L163.762 141.888C163.922 141.555 164.092 141.23 164.274 140.912L163.925 140.668L163.576 140.424C163.386 140.756 163.208 141.095 163.042 141.442L163.402 141.665ZM163.925 140.668L164.274 140.912C164.451 140.601 164.651 140.309 164.872 140.034L164.551 139.748L164.23 139.462C163.988 139.763 163.77 140.084 163.576 140.424L163.925 140.668ZM164.551 139.748L164.872 140.034C165.1 139.749 165.335 139.47 165.576 139.196L165.264 138.899L164.952 138.603C164.705 138.884 164.465 139.17 164.23 139.462L164.551 139.748ZM165.264 138.899L165.576 139.196C165.797 138.945 166.055 138.734 166.351 138.563L166.118 138.202L165.885 137.841C165.53 138.045 165.219 138.299 164.952 138.603L165.264 138.899ZM166.118 138.202L166.351 138.563C166.699 138.363 167.014 138.124 167.293 137.847L166.996 137.535L166.699 137.223C166.459 137.461 166.188 137.667 165.885 137.841L166.118 138.202ZM166.996 137.535L167.293 137.847C167.535 137.607 167.802 137.399 168.095 137.222L167.856 136.864L167.617 136.507C167.282 136.709 166.976 136.948 166.699 137.223L166.996 137.535ZM167.856 136.864L168.095 137.222C168.413 137.03 168.727 136.831 169.036 136.624L168.785 136.274L168.535 135.924C168.233 136.125 167.928 136.319 167.617 136.507L167.856 136.864ZM168.785 136.274L169.036 136.624C169.322 136.434 169.627 136.277 169.951 136.154L169.764 135.771L169.578 135.388C169.208 135.529 168.86 135.707 168.535 135.924L168.785 136.274ZM169.764 135.771L169.951 136.154C170.307 136.019 170.658 135.869 171.003 135.704L170.792 135.332L170.581 134.959C170.251 135.116 169.916 135.259 169.578 135.388L169.764 135.771ZM170.792 135.332L171.003 135.704C171.287 135.569 171.597 135.514 171.939 135.54L171.904 135.136L171.87 134.732C171.405 134.697 170.973 134.772 170.581 134.959L170.792 135.332ZM171.904 135.136L171.939 135.54C172.377 135.573 172.8 135.547 173.207 135.461L173.07 135.063L172.932 134.666C172.592 134.738 172.239 134.76 171.87 134.732L171.904 135.136ZM173.07 135.063L173.207 135.461C173.538 135.39 173.877 135.384 174.227 135.44L174.225 135.04L174.224 134.64C173.78 134.569 173.349 134.577 172.932 134.666L173.07 135.063ZM174.225 135.04L174.227 135.44C174.612 135.501 174.995 135.58 175.376 135.675L175.409 135.282L175.442 134.889C175.038 134.788 174.632 134.705 174.224 134.64L174.225 135.04ZM175.409 135.282L175.376 135.675C175.773 135.773 176.173 135.867 176.578 135.954L176.598 135.558L176.618 135.162C176.222 135.076 175.83 134.985 175.442 134.889L175.409 135.282ZM176.598 135.558L176.578 135.954C176.929 136.029 177.263 136.166 177.583 136.364L177.745 136.025L177.906 135.687C177.497 135.434 177.067 135.259 176.618 135.162L176.598 135.558ZM177.745 136.025L177.583 136.364C177.946 136.588 178.304 136.813 178.659 137.04L178.827 136.705L178.995 136.371C178.636 136.142 178.273 135.914 177.906 135.687L177.745 136.025ZM178.827 136.705L178.659 137.04C178.992 137.253 179.308 137.494 179.606 137.763L179.839 137.478L180.072 137.194C179.733 136.888 179.374 136.613 178.995 136.371L178.827 136.705ZM179.839 137.478L179.606 137.763C179.945 138.069 180.308 138.345 180.693 138.591L180.861 138.256L181.028 137.922C180.688 137.705 180.369 137.462 180.072 137.194L179.839 137.478ZM180.861 138.256L180.693 138.591C181.023 138.801 181.324 139.048 181.596 139.33L181.854 139.069L182.112 138.809C181.785 138.469 181.423 138.173 181.028 137.922L180.861 138.256ZM181.854 139.069L181.596 139.33C181.882 139.626 182.149 139.939 182.397 140.267L182.694 140.053L182.992 139.838C182.719 139.478 182.426 139.135 182.112 138.809L181.854 139.069ZM182.694 140.053L182.397 140.267C182.655 140.608 182.908 140.951 183.157 141.296L183.461 141.091L183.765 140.886C183.512 140.535 183.254 140.186 182.992 139.838L182.694 140.053ZM183.461 141.091L183.157 141.296C183.409 141.646 183.664 141.994 183.922 142.34L184.221 142.129L184.521 141.917C184.266 141.575 184.014 141.232 183.765 140.886L183.461 141.091ZM184.221 142.129L183.922 142.34C184.179 142.685 184.438 143.03 184.699 143.376L184.996 143.162L185.294 142.948C185.034 142.604 184.777 142.261 184.521 141.917L184.221 142.129ZM184.996 143.162L184.699 143.376C184.95 143.71 185.187 144.053 185.408 144.405L185.73 144.227L186.052 144.049C185.816 143.672 185.563 143.305 185.294 142.948L184.996 143.162ZM185.73 144.227L185.408 144.405C185.633 144.764 185.852 145.128 186.063 145.495L186.395 145.333L186.727 145.171C186.51 144.793 186.285 144.419 186.052 144.049L185.73 144.227ZM186.395 145.333L186.063 145.495C186.257 145.833 186.407 146.187 186.513 146.56L186.891 146.507L187.269 146.454C187.142 146.007 186.962 145.579 186.727 145.171L186.395 145.333ZM186.891 146.507L186.513 146.56C186.643 147.02 186.848 147.454 187.126 147.861L187.437 147.666L187.749 147.471C187.531 147.152 187.371 146.814 187.269 146.454L186.891 146.507ZM187.437 147.666L187.126 147.861C187.35 148.189 187.526 148.532 187.654 148.89L188.023 148.807L188.392 148.724C188.235 148.286 188.02 147.868 187.749 147.471L187.437 147.666ZM188.023 148.807L187.654 148.89C187.798 149.292 187.948 149.692 188.103 150.091L188.467 149.996L188.831 149.9C188.679 149.51 188.533 149.118 188.392 148.724L188.023 148.807ZM188.467 149.996L188.103 150.091C188.251 150.471 188.38 150.856 188.489 151.244L188.868 151.192L189.246 151.139C189.128 150.722 188.99 150.309 188.831 149.9L188.467 149.996ZM188.868 151.192L188.489 151.244C188.607 151.66 188.742 152.072 188.896 152.481L189.262 152.39L189.628 152.3C189.484 151.916 189.356 151.529 189.246 151.139L188.868 151.192ZM189.262 152.39L188.896 152.481C189.037 152.853 189.145 153.23 189.222 153.613L189.609 153.594L189.995 153.574C189.908 153.144 189.786 152.719 189.628 152.3L189.262 152.39ZM189.609 153.594L189.222 153.613C189.308 154.038 189.421 154.459 189.561 154.875L189.933 154.801L190.304 154.726C190.176 154.346 190.073 153.962 189.995 153.574L189.609 153.594ZM189.933 154.801L189.561 154.875C189.685 155.243 189.768 155.614 189.81 155.991L190.203 156.009L190.595 156.027C190.546 155.589 190.449 155.155 190.304 154.726L189.933 154.801ZM190.203 156.009L189.81 155.991C189.861 156.443 189.982 156.89 190.172 157.33L190.53 157.218L190.887 157.106C190.733 156.749 190.636 156.39 190.595 156.027L190.203 156.009ZM190.53 157.218L190.172 157.33C190.319 157.669 190.389 158.01 190.385 158.358L190.78 158.428L191.175 158.498C191.181 158.029 191.085 157.563 190.887 157.106L190.53 157.218ZM190.78 158.428L190.385 158.358C190.379 158.795 190.419 159.231 190.504 159.665L190.891 159.648L191.278 159.63C191.204 159.256 191.169 158.879 191.175 158.498L190.78 158.428ZM190.891 159.648L190.504 159.665C190.589 160.094 190.712 160.523 190.872 160.951L191.238 160.861L191.604 160.771C191.462 160.39 191.353 160.009 191.278 159.63L190.891 159.648ZM191.238 160.861L190.872 160.951C191.01 161.319 191.096 161.685 191.131 162.051L191.524 162.076L191.917 162.101C191.874 161.656 191.77 161.213 191.604 160.771L191.238 160.861ZM191.524 162.076L191.131 162.051C191.169 162.446 191.192 162.84 191.201 163.233L191.596 163.289L191.991 163.344C191.981 162.931 191.957 162.516 191.917 162.101L191.524 162.076ZM191.596 163.289L191.201 163.233C191.21 163.631 191.211 164.027 191.202 164.422L191.597 164.495L191.992 164.568C192.001 164.162 192 163.753 191.991 163.344L191.596 163.289ZM191.597 164.495L191.202 164.422C191.193 164.85 191.226 165.28 191.301 165.714L191.69 165.706L192.079 165.699C192.013 165.32 191.984 164.943 191.992 164.568L191.597 164.495ZM191.69 165.706L191.301 165.714C191.368 166.1 191.407 166.484 191.418 166.865L191.813 166.918L192.208 166.971C192.196 166.549 192.153 166.126 192.079 165.699L191.69 165.706ZM191.813 166.918L191.418 166.865C191.43 167.269 191.446 167.674 191.467 168.08L191.862 168.123L192.256 168.167C192.235 167.767 192.219 167.369 192.208 166.971L191.813 166.918ZM191.862 168.123L191.467 168.08C191.488 168.482 191.508 168.878 191.527 169.267L191.921 169.312L192.316 169.357C192.297 168.967 192.277 168.57 192.256 168.167L191.862 168.123ZM191.921 169.312L191.527 169.267C191.536 169.461 191.542 169.604 191.545 169.696C191.546 169.744 191.546 169.773 191.546 169.789C191.546 169.799 191.546 169.794 191.547 169.784C191.547 169.781 191.549 169.758 191.557 169.729C191.56 169.718 191.57 169.678 191.598 169.636C191.612 169.614 191.64 169.575 191.69 169.542C191.744 169.507 191.829 169.477 191.937 169.494L191.938 169.894L191.939 170.294C192.161 170.33 192.263 170.177 192.279 170.152C192.307 170.108 192.318 170.068 192.321 170.055C192.33 170.023 192.333 169.996 192.333 169.988C192.335 169.965 192.336 169.943 192.336 169.928C192.336 169.896 192.336 169.853 192.334 169.803C192.331 169.701 192.325 169.552 192.316 169.357L191.921 169.312ZM191.938 169.894L191.937 169.494C191.708 169.458 191.607 169.62 191.593 169.641C191.567 169.684 191.556 169.724 191.553 169.737C191.545 169.768 191.543 169.794 191.542 169.802C191.54 169.825 191.54 169.847 191.539 169.862C191.539 169.895 191.54 169.939 191.541 169.991C191.544 170.095 191.55 170.25 191.56 170.452L191.954 170.498L192.349 170.544C192.339 170.343 192.333 170.195 192.331 170.098C192.329 170.049 192.329 170.018 192.329 170.001C192.329 169.991 192.33 169.994 192.329 170.004C192.329 170.006 192.327 170.028 192.32 170.056C192.317 170.067 192.307 170.106 192.281 170.148C192.268 170.17 192.24 170.209 192.191 170.243C192.137 170.279 192.051 170.312 191.939 170.294L191.938 169.894Z" fill="#101828"/>
<ellipse cx="201.705" cy="185.069" rx="24.6002" ry="28.0298" transform="rotate(58.9758 201.705 185.069)" fill="#EBCFF6"/>
<path d="M214.384 206.151C227.65 198.172 232.728 182.266 225.725 170.623C218.723 158.98 202.292 156.01 189.026 163.988C186.766 165.348 184.743 166.938 182.977 168.698" stroke="#101828" stroke-width="0.8"/>
<path d="M197.721 232.503C182.879 222.748 174.002 207.826 177.894 199.175C180.667 193.01 189.175 191.692 199.207 194.972C203.254 196.296 207.549 198.368 211.816 201.172C226.658 210.927 235.534 225.849 231.642 234.501C227.75 243.152 212.563 242.258 197.721 232.503Z" fill="#EBCFF6"/>
<path d="M197.721 232.503C212.563 242.258 227.75 243.152 231.642 234.501C235.534 225.849 226.658 210.927 211.816 201.172C207.549 198.368 203.254 196.296 199.207 194.972" stroke="#101828" stroke-width="0.8"/>
<path d="M164.309 226.029C166.706 208.616 176.076 196.811 185.238 199.664C192.027 201.777 196.796 211.343 197.837 223.241C198.201 227.401 198.109 231.847 197.488 236.358C195.091 253.772 185.721 265.576 176.559 262.724C167.397 259.872 161.913 243.443 164.309 226.029Z" fill="#EBCFF6"/>
<path d="M164.309 226.029C161.913 243.443 167.397 259.872 176.559 262.724C185.721 265.576 195.091 253.772 197.488 236.358C198.109 231.847 198.201 227.401 197.837 223.241" stroke="#101828" stroke-width="0.8"/>
<path d="M186.27 193.643C183.885 189.677 176.382 188.199 172.239 187.675C170.538 187.46 168.946 188.417 168.338 190.021C166.859 193.926 164.648 201.247 167.033 205.213C169.418 209.178 176.921 210.657 181.064 211.181C182.766 211.396 184.358 210.438 184.965 208.834C186.445 204.929 188.655 197.608 186.27 193.643Z" fill="#E7A0F7" stroke="#101828" stroke-width="0.8"/>
<path opacity="0.2" fill-rule="evenodd" clip-rule="evenodd" d="M167.58 205.977C170.747 209.777 178.875 210.977 182.311 211.322C183.263 211.417 184.145 210.887 184.507 210.002C185.896 206.6 188.921 198.049 186.271 193.643C185.299 192.026 183.476 190.823 181.377 189.929C181.58 190.173 181.763 190.428 181.923 190.693C184.574 195.1 181.549 203.651 180.159 207.052C179.797 207.938 178.915 208.468 177.964 208.373C175.648 208.14 171.203 207.52 167.58 205.977Z" fill="#101828" stroke="#101828" stroke-width="0.8"/>
<path d="M186.273 193.644L167.035 205.214" stroke="#101828" stroke-width="0.8"/>
<path opacity="0.1" fill-rule="evenodd" clip-rule="evenodd" d="M170.558 258.377C172.298 260.516 174.319 262.026 176.56 262.724C185.722 265.576 195.092 253.772 197.489 236.358C197.662 235.102 197.792 233.85 197.885 232.608C212.675 242.263 227.765 243.12 231.644 234.5C235.094 226.829 228.507 214.231 216.625 204.673C228.203 196.328 232.32 181.585 225.727 170.622C223.057 166.183 219.016 163.005 214.303 161.214C215.764 162.577 217.05 164.15 218.117 165.924C224.71 176.887 220.593 191.63 209.015 199.975C220.897 209.532 227.485 222.131 224.034 229.802C220.156 238.422 201.945 233.633 198.195 227.051C198.103 228.293 197.972 229.545 197.799 230.802C195.542 247.197 179.184 259.478 170.558 258.377ZM177.759 135.919C177.707 135.889 177.655 135.859 177.602 135.828L177.617 135.837C177.664 135.864 177.712 135.892 177.759 135.919ZM177.493 135.765C177.473 135.753 177.453 135.742 177.434 135.73C177.351 135.682 177.267 135.634 177.184 135.585C177.282 135.642 177.38 135.699 177.478 135.756L177.493 135.765Z" fill="#101828"/>
<path opacity="0.1" fill-rule="evenodd" clip-rule="evenodd" d="M171.074 131.696C171.029 131.674 170.984 131.652 170.94 131.63C170.864 131.593 170.789 131.557 170.714 131.52C170.833 131.578 170.953 131.637 171.074 131.696ZM170.15 131.221C170.088 131.185 170.025 131.149 169.962 131.112L169.973 131.118C170.032 131.153 170.091 131.187 170.15 131.221ZM169.574 130.887C169.659 130.936 169.743 130.985 169.826 131.034L169.574 130.887Z" fill="#101828"/>
<path d="M176.278 235.672C176.278 235.672 175.48 246.65 176.752 259.425C178.86 280.593 198.479 292.181 219.598 294.741L226.422 295.568C226.422 295.568 220.056 271.355 198.99 256.585C178.449 241.878 176.278 235.672 176.278 235.672Z" fill="#89DDC8" stroke="#101828" stroke-width="0.8" stroke-linecap="round" stroke-linejoin="round"/>
<path d="M176.278 235.672C176.278 235.672 184.748 271.366 206.895 293.201L226.864 295.622C226.864 295.622 220.468 271.405 199.332 256.626C178.458 241.879 176.278 235.672 176.278 235.672Z" fill="#89DDC8" stroke="#101828" stroke-width="0.8" stroke-miterlimit="10"/>
<path d="M357.159 191.337C343.483 136.455 388.15 107.677 388.15 107.677C407.107 154.614 368.619 187.65 359.979 194.311C358.252 200.797 353.017 209.947 341.544 227.557L341.474 228.253L340.307 223.218C352.46 205.141 356.379 196.422 357.159 191.337Z" fill="#00A47B"/>
<path d="M357.159 191.337L357.554 191.397L357.566 191.318L357.547 191.24L357.159 191.337ZM388.15 107.677L388.521 107.527L388.34 107.079L387.933 107.341L388.15 107.677ZM359.979 194.311L359.735 193.994L359.627 194.077L359.592 194.208L359.979 194.311ZM341.544 227.557L341.209 227.339L341.155 227.421L341.146 227.517L341.544 227.557ZM341.474 228.253L341.084 228.343L341.63 230.7L341.872 228.293L341.474 228.253ZM340.307 223.218L339.975 222.995L339.878 223.139L339.918 223.308L340.307 223.218ZM357.159 191.337L357.547 191.24C350.742 163.931 358.45 143.131 367.858 129.15C372.564 122.156 377.696 116.868 381.651 113.329C383.628 111.56 385.311 110.229 386.497 109.341C387.09 108.897 387.559 108.564 387.879 108.342C388.039 108.232 388.162 108.149 388.244 108.094C388.285 108.066 388.316 108.046 388.337 108.033C388.347 108.026 388.355 108.021 388.36 108.018C388.362 108.016 388.364 108.015 388.365 108.014C388.366 108.014 388.366 108.013 388.366 108.013C388.367 108.013 388.367 108.013 388.15 107.677C387.933 107.341 387.933 107.341 387.932 107.341C387.932 107.341 387.931 107.342 387.931 107.342C387.929 107.343 387.927 107.345 387.924 107.347C387.918 107.351 387.909 107.356 387.898 107.363C387.876 107.378 387.843 107.4 387.8 107.428C387.714 107.486 387.588 107.571 387.424 107.685C387.096 107.911 386.619 108.25 386.018 108.7C384.815 109.601 383.114 110.947 381.118 112.733C377.125 116.305 371.945 121.642 367.194 128.703C357.687 142.831 349.9 163.861 356.77 191.434L357.159 191.337ZM388.15 107.677L387.779 107.827C397.202 131.158 392.352 151.024 384.064 165.903C375.769 180.794 364.035 190.679 359.735 193.994L359.979 194.311L360.223 194.628C364.563 191.282 376.393 181.318 384.763 166.292C393.14 151.253 398.055 131.132 388.521 107.527L388.15 107.677ZM359.979 194.311L359.592 194.208C357.885 200.619 352.693 209.711 341.209 227.339L341.544 227.557L341.879 227.776C353.341 210.182 358.618 200.974 360.365 194.414L359.979 194.311ZM341.544 227.557L341.146 227.517L341.076 228.213L341.474 228.253L341.872 228.293L341.942 227.597L341.544 227.557ZM341.474 228.253L341.864 228.163L340.697 223.128L340.307 223.218L339.918 223.308L341.084 228.343L341.474 228.253ZM340.307 223.218L340.639 223.441C352.788 205.371 356.759 196.583 357.554 191.397L357.159 191.337L356.763 191.276C355.999 196.261 352.133 204.91 339.975 222.995L340.307 223.218Z" fill="#101828"/>
<path d="M367.919 164.159C373.1 154.344 384.397 129.406 388.14 108.18" stroke="#101828" stroke-width="0.8"/>
<path d="M416.78 215.313C416.78 215.313 393.342 232.235 389.629 252.599L405.177 291.892C405.177 291.892 416.548 273.536 415.387 246.863C414.227 220.189 416.78 215.027 416.78 215.027V215.313Z" fill="#137159" stroke="#101828" stroke-width="0.8" stroke-linecap="round" stroke-linejoin="round"/>
<path d="M416.779 215.313C416.779 215.313 399.839 241.126 397.519 272.389L405.176 291.892C405.176 291.892 416.547 273.536 415.387 246.863C414.227 220.189 416.779 215.027 416.779 215.027V215.313Z" fill="#00A47B" stroke="#101828" stroke-width="0.8" stroke-miterlimit="10"/>
<path d="M372.527 206.211C372.527 206.211 355.688 250.093 364.341 277.914L407.141 306.882C407.141 306.882 409.012 273.899 390.769 244.357C372.527 214.815 372.527 206.211 372.527 206.211Z" fill="#00A47B" stroke="#101828" stroke-width="0.8" stroke-miterlimit="10" stroke-linejoin="round"/>
<path d="M372.442 206.211C372.442 206.211 368.934 253.535 386.006 292.255L407.055 306.596C407.055 306.596 408.926 273.612 390.684 244.071C372.442 214.529 372.442 205.925 372.442 205.925V206.211Z" fill="#137159" stroke="#101828" stroke-width="0.8" stroke-linecap="round" stroke-linejoin="round"/>
<path d="M274.512 198.253C274.512 198.253 280.352 210.012 326.137 234.391C368.242 256.698 377.303 276.778 377.303 305.393H308.679C278.45 274.434 274.512 198.253 274.512 198.253Z" fill="#00A47B" stroke="#101828" stroke-width="0.8" stroke-linecap="round" stroke-linejoin="round"/>
<path d="M448 220.297L447.975 220.351C447.97 220.428 447.966 220.516 447.959 220.614C447.932 221.054 447.888 221.701 447.823 222.533C447.695 224.197 447.486 226.598 447.161 229.554C446.512 235.466 445.403 243.596 443.561 252.472C442.702 256.609 441.683 260.912 440.477 265.231C433.65 289.656 408.788 300.941 383.427 300.941H359.441C359.895 299.94 360.518 298.619 361.319 297.045C363.222 293.306 366.126 288.128 370.132 282.368C378.144 270.848 390.571 256.993 408.225 247.661C425.82 238.359 435.647 231.425 441.07 226.825C443.781 224.526 445.389 222.811 446.316 221.679C446.523 221.426 446.695 221.2 446.839 221.006C446.97 220.827 447.077 220.673 447.163 220.543C447.187 220.483 447.21 220.427 447.23 220.374C447.307 220.176 447.364 220.025 447.402 219.924C447.421 219.874 447.435 219.836 447.445 219.811C447.45 219.798 447.453 219.788 447.455 219.782L447.459 219.774L448 218.31V220.297Z" fill="#00A47B" stroke="#101828" stroke-width="0.8" stroke-linecap="round" stroke-linejoin="round"/>
<path d="M398.82 293.588C400.425 288.569 407.885 274.751 424.882 259.625C441.879 244.5 447.262 226.713 447.828 219.71" stroke="#101828" stroke-width="0.8"/>
<path d="M330.383 278.757C326.984 273.272 317.352 260.06 306.021 251.097C291.856 239.893 278.704 224.163 274.738 198.953" stroke="#101828" stroke-width="0.8"/>
<path d="M320.653 72.1663C335.006 109.03 359.681 209.691 344.769 320.188L339.813 319.519L334.858 318.851C349.508 210.301 325.179 111.354 311.335 75.7952L320.653 72.1663Z" fill="#72D0B8"/>
<path d="M320.653 72.1663L321.026 72.0211L320.881 71.6484L320.508 71.7935L320.653 72.1663ZM344.769 320.188L344.715 320.584L345.111 320.638L345.165 320.241L344.769 320.188ZM339.813 319.519L339.867 319.122H339.867L339.813 319.519ZM334.858 318.851L334.462 318.797L334.408 319.194L334.805 319.247L334.858 318.851ZM311.335 75.7952L311.19 75.4224L310.817 75.5676L310.962 75.9403L311.335 75.7952ZM320.653 72.1663L320.281 72.3114C334.613 109.123 359.274 209.715 344.372 320.134L344.769 320.188L345.165 320.241C360.088 209.666 335.399 108.937 321.026 72.0211L320.653 72.1663ZM344.769 320.188L344.822 319.791L339.867 319.122L339.813 319.519L339.76 319.915L344.715 320.584L344.769 320.188ZM339.813 319.519L339.867 319.122L334.912 318.454L334.858 318.851L334.805 319.247L339.76 319.915L339.813 319.519ZM334.858 318.851L335.255 318.904C349.915 210.276 325.573 111.261 311.708 75.65L311.335 75.7952L310.962 75.9403C324.786 111.447 349.101 210.325 334.462 318.797L334.858 318.851ZM311.335 75.7952L311.48 76.1679L320.798 72.539L320.653 72.1663L320.508 71.7935L311.19 75.4224L311.335 75.7952Z" fill="#101828"/>
<ellipse cx="336.333" cy="47.7058" rx="37.3351" ry="17.5443" transform="rotate(-38.5288 336.333 47.7058)" fill="#EBCFF6" stroke="#101828" stroke-width="0.8"/>
<ellipse opacity="0.1" cx="336.333" cy="47.7058" rx="37.3351" ry="17.5443" transform="rotate(-38.5288 336.333 47.7058)" fill="#101828" stroke="#101828" stroke-width="0.8"/>
<ellipse cx="37.3351" cy="17.5443" rx="37.3351" ry="17.5443" transform="matrix(-0.97526 0.221063 0.221063 0.97526 298.076 52.6091)" fill="#EBCFF6" stroke="#101828" stroke-width="0.8"/>
<path d="M291.655 44.0152C291.953 42.5267 293.011 42.04 294.335 42.7832C297.854 44.7591 305.258 48.8587 313.524 52.278C318.455 54.8021 319.233 61.5932 316.981 68.0537C316.443 69.801 297.753 78.3877 296.077 77.6583C289.708 75.1588 285.06 70.15 286.359 64.7594C289.15 56.2617 290.863 47.9727 291.655 44.0152Z" fill="#E7A0F7" stroke="#101828" stroke-width="0.8"/>
<path opacity="0.2" fill-rule="evenodd" clip-rule="evenodd" d="M311.142 51.2653C309.557 56.7882 304.769 61.5778 298.233 63.4044C294.281 64.5093 290.312 64.3559 286.86 63.1992C286.697 63.7179 286.529 64.2384 286.358 64.7597C285.059 70.1502 289.707 75.159 296.076 77.6586C302.187 80.3169 309.996 80.4898 309.903 80.2022C310.061 80.4598 315.02 74.4205 316.98 68.054C319.232 61.5935 318.455 54.8024 313.523 52.2783C312.721 51.9461 311.926 51.6076 311.142 51.2653Z" fill="#101828" stroke="#101828" stroke-width="0.8"/>
<path d="M292.142 41.5449L306.761 73.3621" stroke="#101828" stroke-width="0.8"/>
<path d="M385.628 80.4475C382.25 90.3933 362.901 92.8139 342.411 85.854C321.922 78.8942 308.05 65.1894 311.429 55.2436C314.807 45.2978 334.156 42.8772 354.646 49.8371C375.135 56.7969 389.007 70.5017 385.628 80.4475Z" fill="#EBCFF6"/>
<path opacity="0.1" fill-rule="evenodd" clip-rule="evenodd" d="M378.527 83.573C377.834 85.6146 376.467 87.339 374.556 88.7304C380.229 87.3015 384.254 84.499 385.63 80.4482C389.008 70.5024 375.137 56.7977 354.647 49.8378C338.364 44.3066 322.8 44.7 315.401 50.087C323.656 48.0077 335.4 48.8374 347.545 52.9626C368.034 59.9225 381.906 73.6272 378.527 83.573Z" fill="#101828"/>
<ellipse cx="39.1816" cy="19.019" rx="39.1816" ry="19.019" transform="matrix(-0.320303 0.947315 0.947315 0.320303 269.152 58.595)" fill="#EBCFF6"/>
<path d="M329.66 45.9328C320.288 46.4333 313.33 49.6471 311.429 55.2436C308.05 65.1894 321.922 78.8942 342.411 85.854C362.901 92.8139 382.25 90.3933 385.628 80.4475C389.007 70.5017 375.135 56.7969 354.646 49.8371C353.168 49.3352 351.697 48.8821 350.237 48.4771" stroke="#101828" stroke-width="0.8"/>
<path d="M258.905 89.6992C258.075 91.6285 257.304 93.6365 256.602 95.7123C249.671 116.212 252.119 135.557 262.069 138.921C272.02 142.286 285.705 128.395 292.636 107.896C299.568 87.3967 297.12 68.0513 287.169 64.6868C283.138 63.3237 278.494 64.7929 273.934 68.3864" stroke="#101828" stroke-width="0.8"/>
<ellipse cx="319.214" cy="97.3716" rx="33.9972" ry="33.0789" transform="rotate(60.4306 319.214 97.3716)" fill="#EBCFF6" stroke="#101828" stroke-width="0.8"/>
<path d="M340.618 208.931C285.201 207.15 274.81 150.755 274.81 150.755C345.813 154.317 340.618 208.931 340.618 208.931Z" fill="#72D0B8" stroke="#101828" stroke-width="0.8" stroke-miterlimit="10"/>
<path d="M275.099 151.044C280.669 154.502 290.946 161.071 301.319 172.366C311.692 183.661 323.698 194.072 326.675 196.281" stroke="#101828" stroke-width="0.8"/>
<path d="M380.437 4.97192C380.142 17.5712 390.433 27.8624 403.032 27.5668C390.433 27.2712 380.142 37.5625 380.437 50.1617C380.733 37.5625 370.442 27.2712 357.842 27.5668C370.442 27.8624 380.733 17.5712 380.437 4.97192Z" fill="white" stroke="#101828" stroke-width="0.8"/>
<path d="M220.605 111.602C220.397 120.477 227.646 127.727 236.521 127.519C227.646 127.31 220.397 134.56 220.605 143.435C220.813 134.56 213.564 127.31 204.688 127.519C213.564 127.727 220.813 120.477 220.605 111.602Z" fill="white" stroke="#101828" stroke-width="0.8"/>
</svg>
