<svg width="279" height="339" viewBox="0 0 279 339" fill="none" xmlns="http://www.w3.org/2000/svg">
<path d="M92.3721 165.795C66.4902 165.256 53.5043 184.892 49.2356 195.788L50.5836 198.821L51.9316 201.517C77.5439 200.439 88.8897 177.927 92.3721 165.795Z" fill="#2DA17D"/>
<path d="M49.2356 195.788C53.5043 184.892 66.4902 165.256 92.3721 165.795C88.8897 177.927 77.5439 200.439 51.9316 201.517" stroke="#101828" stroke-width="0.7" stroke-linecap="round"/>
<path d="M67.6536 99.4629C67.6505 99.4696 67.6465 99.4788 67.6415 99.4895C67.6315 99.5112 67.617 99.5415 67.5996 99.5794C67.5648 99.6551 67.5157 99.7633 67.4526 99.9031C67.326 100.183 67.1435 100.592 66.9108 101.127C66.4452 102.196 65.7772 103.771 64.9484 105.833C63.2908 109.957 60.9885 116.033 58.3696 123.925C53.1319 139.71 46.6251 162.768 41.4796 192.017C31.1879 250.52 26.3388 333.805 47.9846 433.171L53.4182 431.987L58.8508 430.803C37.5593 333.064 42.3499 251.256 52.4322 193.944C57.4737 165.286 63.8381 142.755 68.9242 127.428C71.467 119.765 73.6894 113.904 75.2665 109.98C76.0549 108.018 76.6827 106.541 77.1075 105.565C77.3198 105.077 77.4818 104.715 77.588 104.48C77.641 104.362 77.6796 104.276 77.7043 104.222C77.7165 104.196 77.7254 104.177 77.7304 104.166L77.735 104.156C77.7241 104.152 77.4993 104.049 72.6971 101.803C67.7078 99.4709 67.6592 99.4512 67.6573 99.454C67.6565 99.4558 67.6551 99.4596 67.6536 99.4629Z" fill="#2DA17D"/>
<path d="M67.6536 99.4629L67.3362 99.3153L67.3363 99.3151L67.6536 99.4629ZM67.6415 99.4895L67.9591 99.6367L67.9591 99.6367L67.6415 99.4895ZM67.5996 99.5794L67.2816 99.4332L67.2816 99.4332L67.5996 99.5794ZM67.4526 99.9031L67.1336 99.759L67.1336 99.759L67.4526 99.9031ZM66.9108 101.127L66.5899 100.987L66.5899 100.987L66.9108 101.127ZM64.9484 105.833L64.6236 105.703L64.6236 105.703L64.9484 105.833ZM58.3696 123.925L58.0374 123.815L58.3696 123.925ZM41.4796 192.017L41.1349 191.956L41.4796 192.017ZM47.9846 433.171L48.0591 433.513L47.7171 433.587L47.6426 433.245L47.9846 433.171ZM53.4182 431.987L53.4927 432.329L53.4927 432.329L53.4182 431.987ZM58.8508 430.803L59.1928 430.729L59.2673 431.071L58.9253 431.145L58.8508 430.803ZM52.4322 193.944L52.0875 193.883L52.4322 193.944ZM68.9242 127.428L68.592 127.317L68.9242 127.428ZM75.2665 109.98L74.9418 109.849L74.9418 109.849L75.2665 109.98ZM77.1075 105.565L76.7866 105.425L76.7866 105.425L77.1075 105.565ZM77.588 104.48L77.269 104.336L77.269 104.336L77.588 104.48ZM77.7043 104.222L77.3862 104.076L77.3863 104.076L77.7043 104.222ZM77.7304 104.166L77.4128 104.019L77.4138 104.016L77.7304 104.166ZM77.735 104.156L77.8515 103.826L78.2169 103.955L78.0515 104.305L77.735 104.156ZM72.6971 101.803L72.8454 101.486L72.6971 101.803ZM67.6573 99.454L67.3383 99.31L67.3497 99.2849L67.3648 99.2618L67.6573 99.454ZM67.6536 99.4629L67.971 99.6104C67.971 99.6104 67.971 99.6105 67.9708 99.6109C67.9706 99.6112 67.9704 99.6117 67.9701 99.6124C67.9694 99.6139 67.9687 99.6155 67.9676 99.618C67.9655 99.6227 67.9625 99.6293 67.9591 99.6367L67.6415 99.4895L67.324 99.3423C67.3255 99.339 67.327 99.3357 67.329 99.3313C67.3305 99.328 67.3334 99.3213 67.3362 99.3153L67.6536 99.4629ZM67.6415 99.4895L67.9591 99.6367C67.9455 99.666 67.936 99.6856 67.9176 99.7255L67.5996 99.5794L67.2816 99.4332C67.298 99.3975 67.3174 99.3564 67.324 99.3423L67.6415 99.4895ZM67.5996 99.5794L67.9176 99.7255C67.8833 99.8001 67.8347 99.9074 67.7716 100.047L67.4526 99.9031L67.1336 99.759C67.1967 99.6192 67.2462 99.5101 67.2816 99.4332L67.5996 99.5794ZM67.4526 99.9031L67.7716 100.047C67.6456 100.326 67.4637 100.733 67.2317 101.266L66.9108 101.127L66.5899 100.987C66.8232 100.451 67.0064 100.041 67.1336 99.759L67.4526 99.9031ZM66.9108 101.127L67.2317 101.266C66.7674 102.333 66.1007 103.905 65.2731 105.964L64.9484 105.833L64.6236 105.703C65.4537 103.638 66.123 102.059 66.5899 100.987L66.9108 101.127ZM64.9484 105.833L65.2731 105.964C63.6181 110.081 61.3183 116.15 58.7018 124.035L58.3696 123.925L58.0374 123.815C60.6587 115.916 62.9635 109.833 64.6236 105.703L64.9484 105.833ZM58.3696 123.925L58.7018 124.035C53.4688 139.805 46.9665 162.847 41.8243 192.078L41.4796 192.017L41.1349 191.956C46.2836 162.689 52.7949 139.614 58.0374 123.815L58.3696 123.925ZM41.4796 192.017L41.8243 192.078C31.5392 250.543 26.692 333.782 48.3265 433.096L47.9846 433.171L47.6426 433.245C25.9857 333.828 30.8366 250.497 41.1349 191.956L41.4796 192.017ZM47.9846 433.171L47.9101 432.829L53.3437 431.645L53.4182 431.987L53.4927 432.329L48.0591 433.513L47.9846 433.171ZM53.4182 431.987L53.3436 431.645L58.7763 430.461L58.8508 430.803L58.9253 431.145L53.4927 432.329L53.4182 431.987ZM58.8508 430.803L58.5088 430.878C37.2062 333.087 41.9987 251.233 52.0875 193.883L52.4322 193.944L52.7769 194.004C42.7012 251.279 37.9124 333.04 59.1928 430.729L58.8508 430.803ZM52.4322 193.944L52.0875 193.883C57.1323 165.206 63.5011 142.659 68.592 127.317L68.9242 127.428L69.2563 127.538C64.1751 142.851 57.8152 165.365 52.7769 194.004L52.4322 193.944ZM68.9242 127.428L68.592 127.317C71.1372 119.647 73.3621 113.779 74.9418 109.849L75.2665 109.98L75.5912 110.11C74.0167 114.028 71.7968 119.882 69.2563 127.538L68.9242 127.428ZM75.2665 109.98L74.9418 109.849C75.7315 107.885 76.3606 106.404 76.7866 105.425L77.1075 105.565L77.4285 105.705C77.0049 106.678 76.3784 108.152 75.5912 110.11L75.2665 109.98ZM77.1075 105.565L76.7866 105.425C76.9996 104.936 77.1622 104.572 77.269 104.336L77.588 104.48L77.907 104.624C77.8014 104.858 77.6401 105.219 77.4285 105.705L77.1075 105.565ZM77.588 104.48L77.269 104.336C77.3209 104.221 77.361 104.131 77.3862 104.076L77.7043 104.222L78.0223 104.368C77.9983 104.421 77.9612 104.504 77.907 104.624L77.588 104.48ZM77.7043 104.222L77.3863 104.076C77.3987 104.049 77.4086 104.028 77.4128 104.019L77.7304 104.166L78.0479 104.313C78.0422 104.325 78.0342 104.342 78.0223 104.368L77.7043 104.222ZM77.7304 104.166L77.4138 104.016L77.4185 104.007L77.735 104.156L78.0515 104.305L78.0469 104.315L77.7304 104.166ZM77.735 104.156L77.6185 104.486C77.598 104.479 77.5732 104.467 77.5667 104.464C77.5492 104.456 77.5201 104.443 77.4712 104.42C77.3732 104.374 77.1937 104.291 76.8648 104.137C76.2068 103.83 74.95 103.243 72.5489 102.121L72.6971 101.803L72.8454 101.486C75.2464 102.609 76.5031 103.196 77.1608 103.503C77.4897 103.657 77.6686 103.74 77.7659 103.785C77.8147 103.808 77.8424 103.82 77.858 103.828C77.8846 103.84 77.8693 103.832 77.8515 103.826L77.735 104.156ZM72.6971 101.803L72.5489 102.121C70.0542 100.954 68.7949 100.366 68.1592 100.07C67.841 99.9221 67.6799 99.8475 67.5983 99.8101C67.5565 99.791 67.5386 99.783 67.5318 99.7801C67.5256 99.7774 67.5348 99.7817 67.5487 99.7863C67.55 99.7867 67.5835 99.7988 67.6278 99.8026C67.651 99.8046 67.7063 99.8073 67.7719 99.7847C67.8533 99.7565 67.9126 99.7028 67.9499 99.6462L67.6573 99.454L67.3648 99.2618C67.4021 99.205 67.4615 99.1513 67.5431 99.1231C67.6088 99.1004 67.6643 99.1031 67.6878 99.1052C67.7327 99.109 67.7672 99.1213 67.7701 99.1223C67.7874 99.128 67.8028 99.1347 67.8077 99.1368C67.8234 99.1435 67.8486 99.1549 67.8897 99.1737C67.9736 99.2121 68.1368 99.2876 68.4546 99.4357C69.091 99.7319 70.3507 100.32 72.8454 101.486L72.6971 101.803ZM67.6573 99.454L67.9763 99.598C67.9781 99.5942 67.9793 99.5912 67.9799 99.5897C67.9806 99.5881 67.9811 99.587 67.9812 99.5866C67.9814 99.5862 67.9815 99.5859 67.9813 99.5863C67.9813 99.5865 67.981 99.5873 67.9807 99.588C67.98 99.5896 67.9788 99.5926 67.9773 99.5961C67.9759 99.5996 67.9737 99.6047 67.9709 99.6106L67.6536 99.4629L67.3363 99.3151C67.3343 99.3194 67.3329 99.3228 67.3321 99.3246C67.3317 99.3256 67.3314 99.3264 67.3312 99.3269C67.331 99.3273 67.3309 99.3277 67.3309 99.3277C67.3308 99.3277 67.3309 99.3277 67.3309 99.3276C67.331 99.3275 67.331 99.3274 67.3311 99.3271C67.3312 99.3267 67.3316 99.3258 67.332 99.3247C67.3325 99.3237 67.3332 99.3219 67.3341 99.3198C67.3349 99.3177 67.3364 99.3142 67.3383 99.31L67.6573 99.454Z" fill="#101828"/>
<path opacity="0.2" fill-rule="evenodd" clip-rule="evenodd" d="M45.6272 432.58C45.6879 432.86 45.7488 433.141 45.8098 433.421L58.981 430.552C37.7272 332.985 42.5113 251.335 52.5713 194.149C57.6017 165.553 63.9516 143.078 69.0216 127.8C71.5563 120.161 73.7707 114.323 75.3393 110.42C76.1234 108.469 76.7459 107.002 77.1665 106.036C77.3767 105.553 77.5366 105.195 77.6406 104.965C77.6925 104.85 77.7305 104.766 77.7541 104.715L77.7718 104.677L77.7786 104.662L77.7824 104.654C77.7717 104.651 77.528 104.54 71.6746 101.803C65.6454 98.9846 65.5681 98.9522 65.5656 98.9552L65.5612 98.9652L65.5481 98.9931L65.5054 99.0863C65.4695 99.1644 65.4191 99.2751 65.3549 99.4175C65.2377 99.6769 65.0741 100.042 64.8686 100.512L67.6306 101.803C73.4839 104.54 73.7276 104.651 73.7383 104.654L73.7345 104.662L73.7244 104.684L73.71 104.715L73.6731 104.796L73.5966 104.965C73.4926 105.195 73.3326 105.553 73.1224 106.036C72.7019 107.002 72.0793 108.469 71.2952 110.42C69.7266 114.323 67.5122 120.161 64.9776 127.8C59.9075 143.078 53.5577 165.553 48.5272 194.149C38.4672 251.335 33.6831 332.985 54.937 430.552L45.6272 432.58Z" fill="#101828" stroke="#101828" stroke-width="0.7"/>
<path d="M21.7199 106.689C44.1462 110.379 51.4785 141.277 52.3413 156.265L50.3975 160.006L48.5407 163.306C26.7641 157.545 21.5866 123.161 21.7199 106.689Z" fill="#2DA17D"/>
<path d="M52.3413 156.265C51.4785 141.277 44.1462 110.379 21.7199 106.689C21.5866 123.161 26.7641 157.545 48.5407 163.306" stroke="#101828" stroke-width="0.7" stroke-linecap="round"/>
<path d="M10.2329 180.257C29.678 184.198 41.6598 206.906 41.9298 220.009L40.1137 223.21L38.3876 226.029C19.576 220.301 9.58619 194.622 10.2329 180.257Z" fill="#2DA17D"/>
<path d="M41.9298 220.009C41.6598 206.906 29.678 184.198 10.2329 180.257C9.58619 194.622 19.576 220.301 38.3876 226.029" stroke="#101828" stroke-width="0.7" stroke-linecap="round"/>
<path d="M140.357 43.6371L137.849 51.3982L130.389 63.5218L103.379 96.3462L71.4361 104.655L43.4377 90.3863L50.602 45.7423C48.0697 38.5879 46.8943 24.0081 48.9532 18.5614C51.5268 11.7531 57.0435 7.94606 95.2079 17.8608C125.739 25.7926 136.904 37.9863 140.357 43.6371Z" fill="#E6D0F3"/>
<path d="M61.8422 20.8698C61.203 24.0257 69.8004 28.8666 80.6194 33.1663L83.2068 25.1624C92.6046 27.0316 120.766 36.3671 120.877 40.5029C120.884 40.7634 120.83 40.9958 120.718 41.2016L99.6649 106.327M61.8422 20.8698L61.8897 20.6887M61.8422 20.8698C61.8546 20.8088 61.8704 20.7484 61.8897 20.6887M61.8897 20.6887C61.9272 20.2904 62.4466 19.2795 63.0502 19.0192C64.9497 18.1999 69.325 18.3471 74.9646 19.2136" stroke="#101828" stroke-width="0.7" stroke-linecap="round"/>
<path fill-rule="evenodd" clip-rule="evenodd" d="M120.877 40.5028C120.765 36.3671 92.6041 27.0316 83.2063 25.1624L80.6189 33.1663C97.0687 39.7038 118.654 44.9905 120.717 41.2015C120.829 40.9958 120.884 40.7633 120.877 40.5028Z" fill="#9A6BA7" stroke="#101828" stroke-width="0.7" stroke-linecap="round"/>
<path fill-rule="evenodd" clip-rule="evenodd" d="M120.718 41.2013C118.655 44.9902 97.0694 39.7036 80.6197 33.166C69.8007 28.8663 61.2032 24.0254 61.8425 20.8695L44.1465 88.3792L61.0089 93.8303L99.6651 106.327L120.718 41.2013Z" fill="#CD90E3"/>
<path d="M61.8425 20.8695C61.2032 24.0254 69.8007 28.8663 80.6197 33.166C97.0694 39.7036 118.655 44.9902 120.718 41.2013L99.6651 106.327L61.0089 93.8303L44.1465 88.3792L61.8425 20.8695ZM61.8425 20.8695C61.8548 20.8085 61.8706 20.7482 61.8899 20.6884L61.8425 20.8695Z" stroke="#101828" stroke-width="0.7" stroke-linecap="round"/>
<path d="M98.676 16.9359C88.7616 13.7742 62.3649 5.97427 48.8017 13.2952C33.9033 21.3369 49.8097 37.844 42.2828 61.1297C34.32 85.7638 33.343 105.85 66.7254 116.915C66.7259 116.918 66.7253 116.921 66.7258 116.924C66.8545 116.965 66.9837 117.003 67.1117 117.044C67.2107 117.077 67.3095 117.111 67.4091 117.143C67.4107 117.142 67.4121 117.14 67.4137 117.139C100.956 127.708 111.921 110.85 119.885 86.2161C127.413 62.9308 149.973 58.8585 142.601 43.6176C135.89 29.7428 109.923 20.615 100.034 17.3747L100.035 17.372C99.8205 17.3028 99.5939 17.2301 99.3559 17.1536C99.1177 17.0762 98.8913 17.0024 98.6769 16.9331L98.676 16.9359ZM98.402 20.0155C108.907 23.5079 140.211 36.0242 136.875 46.3429C133.742 56.0347 119.172 46.9687 100.661 56.3355C93.3619 60.029 87.2066 64.8113 82.2024 70.2165C81.3092 62.9045 79.1175 55.4235 75.3615 48.156C65.8365 29.7264 46.7921 27.9262 49.9247 18.2346C53.2554 7.93149 87.7067 16.6614 98.402 20.0155Z" fill="#E6D0F3"/>
<path d="M48.6421 17.8187C44.3607 27.031 65.8357 29.7254 75.3608 48.1553C79.0998 55.3898 81.2901 62.8355 82.191 70.1158M67.4084 117.143C33.3281 106.126 34.2659 85.9299 42.2829 61.1284C49.8098 37.8427 33.903 21.3358 48.8014 13.2942C63.0418 5.60766 91.4295 14.5891 100.034 17.3706" stroke="#101828" stroke-width="0.7" stroke-linecap="round"/>
<path d="M140.081 47.3789C138.941 57.9607 119.171 46.9679 100.661 56.3347C74.37 69.6382 62.8996 97.0505 66.7256 116.923C100.806 127.94 111.867 111.017 119.885 86.2155C127.413 62.9302 149.972 58.8581 142.601 43.6172C135.554 29.0494 107.281 19.7142 98.6764 16.9326" stroke="#101828" stroke-width="0.7" stroke-linecap="round"/>
<path opacity="0.1" d="M119.885 86.2155C111.867 111.017 100.806 127.94 66.7256 116.923C66.7115 116.849 66.6976 116.776 66.6839 116.703C96.3134 124.074 106.563 107.705 114.113 84.3496C117.526 73.7932 124.028 67.1856 129.43 61.696L129.43 61.6958C135.944 55.0766 142.556 49.2147 138.526 40.8833C132.654 28.7432 110.343 21.1049 98.6555 16.9972L98.6764 16.9326C107.281 19.7142 135.554 29.0494 142.601 43.6172C149.972 58.8581 127.413 62.9302 119.885 86.2155Z" fill="#101828"/>
<path d="M189.916 250.379C215.776 251.576 227.416 272.038 230.944 283.196L229.396 286.132L227.87 288.732C202.388 285.939 192.577 262.717 189.916 250.379Z" fill="#2DA17D"/>
<path d="M230.944 283.196C227.416 272.038 215.776 251.576 189.916 250.379C192.577 262.717 202.388 285.939 227.87 288.732" stroke="#101828" stroke-width="0.7" stroke-linecap="round"/>
<path d="M219.024 185.848C219.026 185.854 219.029 185.861 219.032 185.869C219.038 185.885 219.047 185.908 219.058 185.937C219.08 185.994 219.111 186.076 219.15 186.18C219.229 186.39 219.341 186.694 219.485 187.09C219.773 187.884 220.185 189.05 220.697 190.576C221.722 193.628 223.149 198.121 224.785 203.961C228.056 215.639 232.164 232.708 235.567 254.405C242.374 297.8 246.361 359.735 235.169 434.111L229.672 433.284L224.173 432.457C235.171 359.368 231.241 298.585 224.582 256.128C221.252 234.901 217.241 218.26 214.076 206.961C212.494 201.312 211.123 196.998 210.155 194.116C209.671 192.676 209.289 191.593 209.03 190.88C208.901 190.523 208.802 190.259 208.738 190.089C208.707 190.004 208.683 189.942 208.669 189.904C208.662 189.885 208.657 189.871 208.654 189.864L208.651 189.858C208.657 189.857 208.82 189.795 213.836 187.849C218.827 185.912 219.013 185.842 219.021 185.841C219.021 185.843 219.023 185.846 219.024 185.848Z" fill="#2DA17D"/>
<path d="M219.024 185.848L218.698 185.975L218.698 185.975L219.024 185.848ZM219.032 185.869L218.705 185.995L218.705 185.995L219.032 185.869ZM219.058 185.937L219.385 185.812L219.385 185.812L219.058 185.937ZM219.15 186.18L219.478 186.057L219.478 186.057L219.15 186.18ZM219.485 187.09L219.814 186.971L219.814 186.971L219.485 187.09ZM220.697 190.576L221.029 190.465L221.029 190.465L220.697 190.576ZM224.785 203.961L225.122 203.866L224.785 203.961ZM235.567 254.405L235.913 254.351L235.567 254.405ZM235.169 434.111L235.117 434.457L235.463 434.509L235.515 434.163L235.169 434.111ZM229.672 433.284L229.724 432.938L229.724 432.938L229.672 433.284ZM224.173 432.457L223.827 432.405L223.775 432.751L224.121 432.803L224.173 432.457ZM224.582 256.128L224.928 256.074L224.582 256.128ZM214.076 206.961L214.413 206.866L214.413 206.866L214.076 206.961ZM210.155 194.116L210.487 194.005L210.487 194.005L210.155 194.116ZM209.03 190.88L209.359 190.76L209.359 190.76L209.03 190.88ZM208.738 190.089L209.066 189.966L209.066 189.966L208.738 190.089ZM208.669 189.904L208.996 189.779L208.996 189.779L208.669 189.904ZM208.654 189.864L208.98 189.739L208.98 189.736L208.654 189.864ZM208.651 189.858L208.589 189.514L208.17 189.589L208.326 189.986L208.651 189.858ZM213.836 187.849L213.962 188.175L213.836 187.849ZM219.021 185.841L219.344 185.707L219.251 185.483L219.009 185.491L219.021 185.841ZM219.024 185.848L218.698 185.975C218.699 185.979 218.701 185.984 218.702 185.986C218.703 185.989 218.704 185.992 218.705 185.995L219.032 185.869L219.359 185.743C219.356 185.737 219.354 185.732 219.353 185.729C219.351 185.724 219.351 185.723 219.35 185.722L219.024 185.848ZM219.032 185.869L218.705 185.995C218.713 186.014 218.72 186.033 218.731 186.062L219.058 185.937L219.385 185.812C219.374 185.783 219.364 185.757 219.359 185.743L219.032 185.869ZM219.058 185.937L218.731 186.062C218.753 186.118 218.783 186.198 218.822 186.303L219.15 186.18L219.478 186.057C219.439 185.953 219.407 185.87 219.385 185.812L219.058 185.937ZM219.15 186.18L218.822 186.303C218.9 186.511 219.013 186.814 219.156 187.209L219.485 187.09L219.814 186.971C219.67 186.573 219.557 186.268 219.478 186.057L219.15 186.18ZM219.485 187.09L219.156 187.209C219.443 188 219.854 189.164 220.365 190.687L220.697 190.576L221.029 190.465C220.515 188.936 220.103 187.767 219.814 186.971L219.485 187.09ZM220.697 190.576L220.365 190.687C221.388 193.734 222.814 198.222 224.448 204.055L224.785 203.961L225.122 203.866C223.484 198.021 222.056 193.522 221.029 190.465L220.697 190.576ZM224.785 203.961L224.448 204.055C227.716 215.722 231.821 232.777 235.222 254.459L235.567 254.405L235.913 254.351C232.508 232.639 228.396 215.557 225.122 203.866L224.785 203.961ZM235.567 254.405L235.222 254.459C242.023 297.825 246.009 359.723 234.823 434.059L235.169 434.111L235.515 434.163C246.713 359.746 242.724 297.775 235.913 254.351L235.567 254.405ZM235.169 434.111L235.221 433.765L229.724 432.938L229.672 433.284L229.619 433.63L235.117 434.457L235.169 434.111ZM229.672 433.284L229.724 432.938L224.225 432.111L224.173 432.457L224.121 432.803L229.619 433.63L229.672 433.284ZM224.173 432.457L224.519 432.509C235.523 359.38 231.591 298.56 224.928 256.074L224.582 256.128L224.236 256.182C230.89 298.609 234.818 359.356 223.827 432.405L224.173 432.457ZM224.582 256.128L224.928 256.074C221.596 234.832 217.582 218.177 214.413 206.866L214.076 206.961L213.739 207.055C216.901 218.342 220.909 234.97 224.236 256.182L224.582 256.128ZM214.076 206.961L214.413 206.866C212.829 201.211 211.456 196.892 210.487 194.005L210.155 194.116L209.823 194.228C210.789 197.104 212.159 201.412 213.739 207.055L214.076 206.961ZM210.155 194.116L210.487 194.005C210.002 192.562 209.619 191.476 209.359 190.76L209.03 190.88L208.701 190.999C208.959 191.709 209.34 192.79 209.823 194.228L210.155 194.116ZM209.03 190.88L209.359 190.76C209.229 190.402 209.13 190.137 209.066 189.966L208.738 190.089L208.411 190.212C208.474 190.381 208.572 190.644 208.701 190.999L209.03 190.88ZM208.738 190.089L209.066 189.966C209.034 189.881 209.011 189.818 208.996 189.779L208.669 189.904L208.342 190.029C208.356 190.066 208.379 190.127 208.411 190.212L208.738 190.089ZM208.669 189.904L208.996 189.779C208.99 189.763 208.983 189.746 208.98 189.739L208.654 189.864L208.327 189.99C208.33 189.997 208.334 190.007 208.342 190.029L208.669 189.904ZM208.654 189.864L208.98 189.736L208.977 189.73L208.651 189.858L208.326 189.986L208.328 189.992L208.654 189.864ZM208.651 189.858L208.713 190.203C208.731 190.199 208.744 190.196 208.748 190.194C208.754 190.193 208.759 190.191 208.762 190.19C208.767 190.189 208.772 190.187 208.774 190.186C208.779 190.184 208.786 190.182 208.794 190.179C208.81 190.173 208.837 190.162 208.884 190.144C208.979 190.108 209.157 190.039 209.491 189.909C210.16 189.65 211.455 189.148 213.962 188.175L213.836 187.849L213.709 187.522C211.201 188.496 209.907 188.998 209.239 189.257C208.904 189.386 208.727 189.455 208.633 189.491C208.586 189.509 208.56 189.519 208.546 189.524C208.543 189.525 208.541 189.526 208.539 189.527C208.537 189.527 208.537 189.528 208.537 189.527C208.537 189.527 208.538 189.527 208.538 189.527C208.539 189.527 208.541 189.526 208.543 189.525C208.545 189.525 208.55 189.523 208.555 189.522C208.559 189.52 208.572 189.517 208.589 189.514L208.651 189.858ZM213.836 187.849L213.962 188.175C216.458 187.206 217.752 186.705 218.423 186.445C218.759 186.315 218.938 186.246 219.034 186.21C219.082 186.191 219.108 186.182 219.121 186.177C219.128 186.174 219.129 186.174 219.126 186.175C219.125 186.175 219.119 186.177 219.111 186.179C219.111 186.179 219.077 186.19 219.033 186.191L219.021 185.841L219.009 185.491C218.964 185.493 218.929 185.503 218.928 185.504C218.918 185.506 218.91 185.509 218.906 185.51C218.897 185.513 218.888 185.517 218.88 185.52C218.862 185.526 218.833 185.537 218.784 185.556C218.687 185.593 218.506 185.662 218.171 185.792C217.499 186.052 216.204 186.554 213.709 187.522L213.836 187.849ZM219.021 185.841L218.698 185.976C218.7 185.981 218.702 185.986 218.703 185.988C218.704 185.991 218.705 185.993 218.706 185.994C218.706 185.995 218.707 185.996 218.707 185.996C218.707 185.997 218.707 185.996 218.707 185.996C218.707 185.996 218.706 185.994 218.704 185.991C218.703 185.988 218.7 185.982 218.698 185.975L219.024 185.848L219.35 185.722C219.347 185.713 219.344 185.706 219.342 185.702C219.34 185.698 219.338 185.694 219.338 185.693C219.337 185.692 219.337 185.691 219.337 185.691C219.336 185.69 219.337 185.691 219.337 185.691C219.337 185.692 219.338 185.693 219.339 185.696C219.34 185.697 219.342 185.701 219.344 185.707L219.021 185.841Z" fill="#101828"/>
<g opacity="0.2">
<path fill-rule="evenodd" clip-rule="evenodd" d="M214.871 186.783C215.16 187.582 215.562 188.725 216.058 190.201C217.089 193.271 218.522 197.784 220.163 203.643C223.445 215.362 227.565 232.475 230.976 254.223C237.779 297.601 241.77 359.444 230.668 433.692L234.623 434.287C245.835 359.775 241.841 297.717 235.02 254.223C231.609 232.475 227.489 215.362 224.207 203.643C222.566 197.784 221.133 193.271 220.102 190.201C219.587 188.666 219.172 187.491 218.881 186.689C218.736 186.288 218.621 185.98 218.541 185.766C218.502 185.661 218.47 185.579 218.448 185.52L218.419 185.446L218.41 185.424C218.41 185.422 218.411 185.425 218.41 185.424L218.408 185.416C218.406 185.413 218.362 185.428 214.871 186.783Z" fill="#101828"/>
<path d="M218.41 185.424L218.419 185.446L218.448 185.52C218.47 185.579 218.502 185.661 218.541 185.766C218.621 185.98 218.736 186.288 218.881 186.689C219.172 187.491 219.587 188.666 220.102 190.201C221.133 193.271 222.566 197.784 224.207 203.643C227.489 215.362 231.609 232.475 235.02 254.223C241.841 297.717 245.835 359.775 234.623 434.287L230.668 433.692C241.77 359.444 237.779 297.601 230.976 254.223C227.565 232.475 223.445 215.362 220.163 203.643C218.522 197.784 217.089 193.271 216.058 190.201C215.562 188.725 215.16 187.582 214.871 186.783C218.362 185.428 218.406 185.413 218.408 185.416L218.41 185.424ZM218.41 185.424C218.41 185.422 218.411 185.425 218.41 185.424ZM205.839 190.288L205.838 190.285" stroke="#101828" stroke-width="0.7"/>
</g>
<path d="M261.001 196.142C238.378 198.32 228.99 228.657 227.125 243.554L228.813 247.417L230.445 250.834C252.558 246.545 260.03 212.586 261.001 196.142Z" fill="#2DA17D"/>
<path d="M227.125 243.554C228.99 228.657 238.378 198.32 261.001 196.142C260.03 212.586 252.558 246.545 230.445 250.834" stroke="#101828" stroke-width="0.7" stroke-linecap="round"/>
<path d="M237.806 90.1842L239.891 98.0698L240.168 112.302L235.186 154.518L212.803 178.774L181.535 181.904L163.431 140.471C157.433 135.82 148.563 124.19 147.352 118.494C145.837 111.375 148.42 105.19 185.888 92.9027C215.862 83.0727 231.847 87.2966 237.806 90.1842Z" fill="#E6D0F3"/>
<path d="M223.076 100.964C223.466 104.16 214.517 108.315 203.396 111.757L201.441 103.576C191.926 104.705 163.122 111.814 162.688 115.928C162.661 116.187 162.697 116.424 162.792 116.637L178.697 183.207M223.076 100.964L223.042 100.78M223.076 100.964C223.068 100.902 223.057 100.841 223.042 100.78M223.042 100.78C223.036 100.38 222.597 99.3313 222.016 99.0246C220.186 98.0596 215.813 97.8647 210.122 98.2883" stroke="#101828" stroke-width="0.7" stroke-linecap="round"/>
<path fill-rule="evenodd" clip-rule="evenodd" d="M162.688 115.928C163.122 111.814 191.926 104.705 201.441 103.576L203.396 111.757C186.486 116.99 164.554 120.576 162.793 116.637C162.697 116.423 162.661 116.187 162.688 115.928Z" fill="#9A6BA7" stroke="#101828" stroke-width="0.7" stroke-linecap="round"/>
<path fill-rule="evenodd" clip-rule="evenodd" d="M162.793 116.638C164.554 120.576 186.486 116.991 203.396 111.757C214.518 108.315 223.467 104.16 223.076 100.964L235.447 169.649L218.211 173.767L178.697 183.208L162.793 116.638Z" fill="#CD90E3"/>
<path d="M223.076 100.964C223.467 104.16 214.518 108.315 203.396 111.757C186.486 116.991 164.554 120.576 162.793 116.638L178.697 183.208L218.211 173.767L235.447 169.649L223.076 100.964ZM223.076 100.964C223.068 100.902 223.057 100.841 223.043 100.78L223.076 100.964Z" stroke="#101828" stroke-width="0.7" stroke-linecap="round"/>
<path d="M188.306 90.2506C178.256 92.9497 151.831 100.656 144.377 114.146C136.19 128.965 158.495 134.254 164.749 157.913C171.365 182.943 181.4 200.371 215.467 191.636C215.469 191.638 215.47 191.64 215.472 191.642C215.584 191.612 215.695 191.579 215.806 191.549C215.925 191.518 216.046 191.49 216.166 191.458C216.166 191.456 216.167 191.453 216.168 191.451C250.1 182.212 250.213 162.102 243.598 137.072C237.345 113.413 254.124 97.7924 239.683 88.9546C226.537 80.9089 199.756 87.2657 189.685 89.8851L189.685 89.8832C189.524 89.9257 189.356 89.9709 189.182 90.0171C188.871 90.0986 188.578 90.1747 188.305 90.2468L188.306 90.2506ZM189.817 92.9693C200.624 90.2185 233.574 83.8833 236.339 94.3427C238.942 104.19 221.783 104.438 211.272 122.325C207.128 129.378 204.534 136.729 203.246 143.981C198.542 138.312 192.655 133.203 185.566 129.119C167.591 118.762 150.595 127.542 147.992 117.695C145.219 107.201 179.09 95.8956 189.817 92.9693Z" fill="#E6D0F3"/>
<path d="M146.688 118.039C148.065 128.103 167.589 118.762 185.565 129.119C192.621 133.185 198.488 138.265 203.181 143.903M216.164 191.458C181.536 200.611 171.409 183.113 164.748 157.913C158.494 134.254 136.188 128.964 144.376 114.146C152.202 99.9816 180.94 92.1934 189.683 89.8825" stroke="#101828" stroke-width="0.7" stroke-linecap="round"/>
<path d="M239.596 93.4819C244.356 103.001 221.782 104.439 211.271 122.325C196.343 147.728 201.51 176.991 215.471 191.642C250.098 182.489 250.257 162.272 243.597 137.073C237.344 113.413 254.123 97.7932 239.682 88.9554C225.88 80.5079 197.047 87.9365 188.304 90.2473" stroke="#101828" stroke-width="0.7" stroke-linecap="round"/>
<path opacity="0.1" d="M243.597 137.073C250.257 162.272 250.098 182.489 215.471 191.642C215.419 191.588 215.368 191.534 215.317 191.479C244.229 181.665 244.004 162.353 237.732 138.623C234.898 127.897 236.796 118.823 238.374 111.284L238.374 111.284C240.276 102.194 242.67 93.6889 234.776 88.8578C223.274 81.818 200.374 87.4516 188.321 90.313L188.304 90.2473C197.047 87.9365 225.88 80.5079 239.682 88.9554C254.123 97.7932 237.344 113.413 243.597 137.073Z" fill="#101828"/>
<path d="M136.684 279.691C136.684 279.693 136.684 279.697 136.684 279.7C136.683 279.709 136.681 279.722 136.679 279.739C136.675 279.773 136.668 279.826 136.659 279.896C136.642 280.037 136.617 280.248 136.583 280.528C136.516 281.088 136.417 281.923 136.29 283.017C136.037 285.205 135.672 288.429 135.23 292.558C134.345 300.817 133.15 312.696 131.911 327.157C129.431 356.087 126.777 395.31 126.068 436.528L120.465 436.567L114.863 436.608C115.577 395.066 118.25 355.581 120.743 326.494C121.99 311.947 123.193 299.989 124.084 291.664C124.53 287.502 124.898 284.246 125.155 282.029C125.283 280.92 125.384 280.071 125.453 279.497C125.487 279.21 125.514 278.991 125.532 278.843C125.541 278.771 125.547 278.715 125.552 278.677C125.554 278.658 125.556 278.644 125.557 278.634C125.558 278.629 125.559 278.625 125.559 278.622L125.56 278.619C125.56 278.618 125.56 278.617 131.122 279.153C136.684 279.689 136.685 279.689 136.685 279.69L136.684 279.691Z" fill="#2DA17D"/>
<path d="M136.684 279.691L136.347 279.597L136.337 279.631L136.333 279.666L136.684 279.691ZM136.684 279.7L137.034 279.734L137.034 279.734L136.684 279.7ZM136.679 279.739L137.029 279.772L137.029 279.772L136.679 279.739ZM136.659 279.896L136.309 279.863L136.309 279.863L136.659 279.896ZM136.583 280.528L136.233 280.495L136.233 280.495L136.583 280.528ZM136.29 283.017L135.94 282.986L135.94 282.986L136.29 283.017ZM135.23 292.558L134.879 292.53L135.23 292.558ZM131.911 327.157L131.559 327.136L131.911 327.157ZM126.068 436.528L126.062 436.875L126.415 436.872L126.421 436.525L126.068 436.528ZM120.465 436.567L120.471 436.22L120.471 436.22L120.465 436.567ZM114.863 436.608L114.51 436.61L114.504 436.957L114.857 436.955L114.863 436.608ZM120.743 326.494L120.392 326.473L120.743 326.494ZM124.084 291.664L123.734 291.636L124.084 291.664ZM125.155 282.029L124.804 281.997L124.804 281.997L125.155 282.029ZM125.453 279.497L125.103 279.464L125.103 279.464L125.453 279.497ZM125.532 278.843L125.182 278.81L125.182 278.81L125.532 278.843ZM125.552 278.677L125.202 278.643L125.202 278.643L125.552 278.677ZM125.557 278.634L125.207 278.6L125.207 278.6L125.557 278.634ZM125.559 278.622L125.222 278.528L125.213 278.556L125.209 278.586L125.559 278.622ZM125.56 278.619L125.897 278.714L125.906 278.684L125.91 278.653L125.56 278.619ZM131.122 279.153L131.079 279.499L131.122 279.153ZM136.685 279.69L137.022 279.784L137.031 279.754L137.035 279.723L136.685 279.69ZM136.684 279.691L136.333 279.666C136.333 279.67 136.333 279.673 136.333 279.675C136.332 279.677 136.332 279.678 136.332 279.679C136.332 279.68 136.332 279.681 136.332 279.681C136.332 279.681 136.332 279.681 136.332 279.681C136.332 279.68 136.333 279.674 136.333 279.667L136.684 279.7L137.034 279.734C137.035 279.723 137.036 279.714 137.036 279.71C137.036 279.709 137.036 279.708 137.036 279.707C137.036 279.707 137.036 279.707 137.036 279.707C137.036 279.707 137.036 279.708 137.036 279.71C137.036 279.711 137.036 279.714 137.035 279.717L136.684 279.691ZM136.684 279.7L136.333 279.667C136.333 279.672 136.331 279.69 136.329 279.705L136.679 279.739L137.029 279.772C137.031 279.754 137.032 279.745 137.034 279.734L136.684 279.7ZM136.679 279.739L136.329 279.705C136.325 279.737 136.318 279.794 136.309 279.863L136.659 279.896L137.01 279.929C137.018 279.859 137.024 279.809 137.029 279.772L136.679 279.739ZM136.659 279.896L136.309 279.863C136.292 280.004 136.266 280.216 136.233 280.495L136.583 280.528L136.934 280.56C136.967 280.281 136.993 280.069 137.01 279.929L136.659 279.896ZM136.583 280.528L136.233 280.495C136.166 281.056 136.067 281.892 135.94 282.986L136.29 283.017L136.641 283.048C136.767 281.955 136.866 281.12 136.934 280.56L136.583 280.528ZM136.29 283.017L135.94 282.986C135.686 285.175 135.321 288.4 134.879 292.53L135.23 292.558L135.581 292.586C136.023 288.458 136.387 285.235 136.641 283.048L136.29 283.017ZM135.23 292.558L134.879 292.53C133.994 300.791 132.799 312.673 131.559 327.136L131.911 327.157L132.262 327.177C133.501 312.72 134.696 300.843 135.581 292.586L135.23 292.558ZM131.911 327.157L131.559 327.136C129.079 356.071 126.424 395.303 125.716 436.53L126.068 436.528L126.421 436.525C127.129 395.318 129.783 356.103 132.262 327.177L131.911 327.157ZM126.068 436.528L126.074 436.18L120.471 436.22L120.465 436.567L120.459 436.914L126.062 436.875L126.068 436.528ZM120.465 436.567L120.471 436.22L114.869 436.26L114.863 436.608L114.857 436.955L120.459 436.914L120.465 436.567ZM114.863 436.608L115.216 436.605C115.929 395.074 118.602 355.597 121.095 326.515L120.743 326.494L120.392 326.473C117.898 355.565 115.224 395.058 114.51 436.61L114.863 436.608ZM120.743 326.494L121.095 326.515C122.341 311.97 123.544 300.016 124.435 291.693L124.084 291.664L123.734 291.636C122.842 299.963 121.639 311.923 120.392 326.473L120.743 326.494ZM124.084 291.664L124.435 291.693C124.881 287.531 125.248 284.276 125.505 282.06L125.155 282.029L124.804 281.997C124.547 284.216 124.179 287.473 123.734 291.636L124.084 291.664ZM125.155 282.029L125.505 282.06C125.634 280.952 125.735 280.103 125.803 279.529L125.453 279.497L125.103 279.464C125.034 280.038 124.933 280.889 124.804 281.997L125.155 282.029ZM125.453 279.497L125.803 279.529C125.838 279.242 125.864 279.023 125.882 278.877L125.532 278.843L125.182 278.81C125.164 278.958 125.137 279.177 125.103 279.464L125.453 279.497ZM125.532 278.843L125.882 278.877C125.891 278.803 125.898 278.748 125.902 278.71L125.552 278.677L125.202 278.643C125.197 278.681 125.19 278.738 125.182 278.81L125.532 278.843ZM125.552 278.677L125.902 278.71C125.905 278.689 125.906 278.679 125.908 278.667L125.557 278.634L125.207 278.6C125.206 278.608 125.204 278.628 125.202 278.643L125.552 278.677ZM125.557 278.634L125.907 278.667C125.907 278.668 125.907 278.669 125.908 278.667C125.908 278.667 125.908 278.666 125.908 278.666C125.908 278.665 125.908 278.665 125.908 278.664C125.908 278.663 125.908 278.66 125.909 278.657L125.559 278.622L125.209 278.586C125.209 278.585 125.209 278.584 125.209 278.584C125.209 278.585 125.209 278.585 125.209 278.585C125.209 278.586 125.209 278.586 125.209 278.587C125.209 278.59 125.208 278.594 125.207 278.6L125.557 278.634ZM125.559 278.622L125.896 278.716L125.897 278.714L125.56 278.619L125.223 278.525L125.222 278.528L125.559 278.622ZM125.56 278.619L125.91 278.653C125.911 278.644 125.907 278.707 125.872 278.773C125.831 278.851 125.769 278.899 125.717 278.926C125.672 278.949 125.634 278.957 125.617 278.96C125.598 278.964 125.583 278.965 125.575 278.966C125.559 278.967 125.547 278.966 125.543 278.966C125.538 278.966 125.535 278.966 125.533 278.966C125.528 278.966 125.525 278.965 125.532 278.966C125.541 278.967 125.561 278.968 125.605 278.973C125.691 278.981 125.865 278.997 126.213 279.031C126.908 279.097 128.298 279.231 131.079 279.499L131.122 279.153L131.165 278.808C128.384 278.54 126.993 278.406 126.298 278.339C125.95 278.306 125.776 278.289 125.689 278.281C125.645 278.277 125.622 278.275 125.61 278.274C125.605 278.274 125.597 278.273 125.59 278.272C125.587 278.272 125.583 278.272 125.577 278.272C125.574 278.272 125.561 278.272 125.545 278.273C125.537 278.273 125.522 278.274 125.503 278.278C125.486 278.281 125.447 278.289 125.403 278.312C125.351 278.339 125.289 278.387 125.247 278.466C125.213 278.531 125.209 278.594 125.21 278.585L125.56 278.619ZM131.122 279.153L131.079 279.499C133.861 279.767 135.251 279.901 135.947 279.968C136.294 280.001 136.468 280.018 136.555 280.027C136.599 280.031 136.62 280.033 136.631 280.034C136.636 280.035 136.637 280.035 136.637 280.035C136.637 280.035 136.636 280.035 136.635 280.034C136.634 280.034 136.631 280.034 136.626 280.033C136.624 280.033 136.62 280.032 136.614 280.031C136.61 280.031 136.596 280.028 136.579 280.023C136.578 280.023 136.506 280.006 136.442 279.947C136.397 279.906 136.356 279.847 136.34 279.77C136.335 279.743 136.332 279.701 136.332 279.687C136.333 279.672 136.335 279.657 136.335 279.656L136.685 279.69L137.035 279.723C137.035 279.722 137.037 279.707 137.037 279.692C137.038 279.678 137.035 279.636 137.03 279.61C137.013 279.532 136.973 279.473 136.928 279.432C136.863 279.373 136.792 279.356 136.791 279.356C136.774 279.351 136.76 279.349 136.756 279.348C136.75 279.347 136.746 279.346 136.743 279.346C136.739 279.345 136.735 279.345 136.734 279.345C136.732 279.344 136.731 279.344 136.73 279.344C136.727 279.344 136.723 279.343 136.718 279.343C136.706 279.342 136.684 279.34 136.641 279.335C136.554 279.327 136.38 279.31 136.032 279.277C135.337 279.21 133.946 279.076 131.165 278.808L131.122 279.153ZM136.685 279.69L136.348 279.595L136.347 279.597L136.684 279.691L137.021 279.786L137.022 279.784L136.685 279.69Z" fill="#101828"/>
<g opacity="0.2">
<path fill-rule="evenodd" clip-rule="evenodd" d="M122.192 436.518L112.653 436.587L112.653 436.615L126.236 436.518C126.944 395.335 129.596 356.14 132.075 327.227C133.313 312.776 134.507 300.905 135.391 292.653C135.833 288.527 136.197 285.306 136.451 283.121C136.577 282.029 136.675 281.195 136.742 280.637C136.775 280.365 136.8 280.159 136.817 280.019L136.819 280.007L136.838 279.851L136.842 279.813C136.842 279.815 136.843 279.811 136.842 279.813L136.843 279.805C136.843 279.805 136.771 279.796 130.101 279.153C123.608 278.527 123.367 278.508 123.358 278.508L123.357 278.52L123.351 278.564L123.33 278.732L123.311 278.889L126.057 279.153C132.727 279.796 132.799 279.805 132.799 279.805C132.799 279.806 132.799 279.81 132.798 279.813L132.794 279.851L132.774 280.007C132.757 280.147 132.732 280.357 132.698 280.637C132.631 281.195 132.533 282.029 132.406 283.121C132.153 285.306 131.789 288.527 131.347 292.653C130.463 300.905 129.269 312.776 128.031 327.227C125.552 356.14 122.9 395.335 122.192 436.518Z" fill="#101828"/>
<path d="M136.842 279.813L136.838 279.851L136.819 280.007L136.817 280.019C136.8 280.159 136.775 280.365 136.742 280.637C136.675 281.195 136.577 282.029 136.451 283.121C136.197 285.306 135.833 288.527 135.391 292.653C134.507 300.905 133.313 312.776 132.075 327.227C129.596 356.14 126.944 395.335 126.236 436.518L112.653 436.615L112.653 436.587L122.192 436.518C122.9 395.335 125.552 356.14 128.031 327.227C129.269 312.776 130.463 300.905 131.347 292.653C131.789 288.527 132.153 285.306 132.406 283.121C132.533 282.029 132.631 281.195 132.698 280.637C132.732 280.357 132.757 280.147 132.774 280.007L132.794 279.851L132.798 279.813M136.842 279.813C136.843 279.811 136.842 279.815 136.842 279.813ZM136.842 279.813L136.843 279.805C136.843 279.805 136.771 279.796 130.101 279.153C123.608 278.527 123.367 278.508 123.358 278.508L123.357 278.52L123.351 278.564L123.33 278.732L123.311 278.889L126.057 279.153C132.727 279.796 132.799 279.805 132.799 279.805M132.799 279.805C132.799 279.806 132.799 279.81 132.798 279.813M132.799 279.805L132.798 279.813" stroke="#101828" stroke-width="0.7"/>
</g>
<path d="M172.419 209.4L171.852 217.116L168.304 230.03L153.573 266.647L130.963 282.009L107.482 275.737L105.279 233.112C102.158 227.175 98.7948 214.107 99.417 208.619C100.195 201.759 103.696 196.934 134.083 196.751C158.392 196.605 170.29 202.996 172.419 209.4Z" fill="#E6D0F3"/>
<path d="M117.387 205.164C117.423 207.647 123.269 209.567 130.387 210.645L130.879 204.156C136.812 203.698 155.09 205.117 155.711 208.184C155.75 208.378 155.749 208.562 155.708 208.738L151.702 261.541M117.387 205.164L117.391 205.019M117.387 205.164C117.386 205.116 117.387 205.067 117.391 205.019M117.391 205.019C117.36 204.714 117.539 203.856 117.869 203.543C118.908 202.556 121.573 201.803 125.099 201.338" stroke="#101828" stroke-width="0.7" stroke-linecap="round"/>
<path fill-rule="evenodd" clip-rule="evenodd" d="M155.711 208.184C155.09 205.116 136.812 203.698 130.879 204.155L130.387 210.645C141.209 212.283 154.968 211.975 155.708 208.737C155.749 208.561 155.75 208.377 155.711 208.184Z" fill="#9A6BA7" stroke="#101828" stroke-width="0.7" stroke-linecap="round"/>
<path fill-rule="evenodd" clip-rule="evenodd" d="M155.708 208.737C154.968 211.975 141.209 212.283 130.387 210.645C123.269 209.567 117.423 207.647 117.387 205.163L115.729 259.086L126.655 259.831L151.702 261.541L155.708 208.737Z" fill="#CD90E3"/>
<path d="M117.387 205.163C117.423 207.647 123.269 209.567 130.387 210.645C141.209 212.283 154.968 211.975 155.708 208.737L151.702 261.541L126.655 259.831L115.729 259.086L117.387 205.163ZM117.387 205.163C117.386 205.115 117.387 205.067 117.391 205.018L117.387 205.163Z" stroke="#101828" stroke-width="0.7" stroke-linecap="round"/>
<path d="M137.726 195.077C130.872 194.624 108.293 193.308 99.0006 203.83C89.279 214.837 103.846 226.098 102.142 249.289C100.327 273.99 103 292.741 130.146 294.535C130.165 294.499 130.184 294.462 130.203 294.426C157.102 295.893 162.466 277.813 164.263 253.363C165.965 230.211 182.238 221.006 174.103 208.837C166.725 197.802 145.778 195.719 137.721 195.142L137.726 195.077ZM136.324 197.912C144.221 198.434 177.546 203.84 167.568 208.405C165.392 209.401 150.333 215.024 138.005 228.095C136.82 229.353 135.702 230.656 134.648 231.995C133.511 229.826 132.176 227.713 130.623 225.674C119.846 211.52 105.494 206.153 107.426 201.036C108.215 198.947 127.744 197.555 136.327 197.875L136.324 197.912Z" fill="#E6D0F3"/>
<path d="M167.568 208.406C167.568 208.406 147.3 214.789 134.73 232.044M129.508 294.389C157.01 296.207 162.451 278.023 164.264 253.364C165.966 230.212 182.239 221.007 174.104 208.838C166.328 197.207 143.478 195.52 136.534 195.061" stroke="#101828" stroke-width="0.7" stroke-linecap="round"/>
<path d="M105.612 204.31C105.612 204.31 125.567 214.633 135.491 233.375C145.415 252.117 145.709 275.7 130.727 294.468C103.225 292.65 100.496 273.927 102.308 249.268C104.009 226.115 89.2403 214.858 99.0769 203.878C108.479 193.382 131.355 194.717 138.299 195.176" stroke="#101828" stroke-width="0.7" stroke-linecap="round"/>
<path opacity="0.1" d="M164.264 253.364C162.451 278.023 157.01 296.207 129.508 294.389C129.485 294.325 129.462 294.261 129.439 294.197C152.974 293.756 155.209 276.1 156.917 252.878C157.688 242.382 161.455 234.753 164.584 228.414L164.584 228.414C168.357 220.771 175.022 213.975 170.575 207.323C164.094 197.63 146.017 196.05 136.53 195.125L136.534 195.061C143.478 195.52 166.328 197.207 174.104 208.838C182.239 221.007 165.966 230.212 164.264 253.364Z" fill="#101828"/>
<path d="M203.509 190.287L203.507 190.284M216.079 185.419V185.419Z" stroke="#101828" stroke-width="0.7"/>
</svg>
