<svg width="478" height="414" viewBox="0 0 478 414" fill="none" xmlns="http://www.w3.org/2000/svg">
<g clip-path="url(#clip0_10197_1524)">
<path d="M370.29 355.785C367.439 364.104 341.743 379.674 341.591 387.017L367.434 387.907C387.513 367.478 370.32 355.805 370.29 355.785Z" fill="#005D46"/>
<path d="M370.304 355.781C370.914 360.119 376.324 370.15 360.179 387.657L367.443 387.908C387.547 367.459 370.304 355.781 370.304 355.781Z" fill="#005D46"/>
<path d="M370.29 355.785C367.439 364.104 341.743 379.674 341.591 387.017L367.434 387.907C387.513 367.478 370.32 355.805 370.29 355.785Z" stroke="#101828" stroke-width="0.5" stroke-miterlimit="10" stroke-linejoin="round"/>
<path d="M370.304 355.781C370.914 360.119 376.324 370.15 360.179 387.657L367.443 387.908C387.547 367.459 370.304 355.781 370.304 355.781Z" stroke="#101828" stroke-width="0.5" stroke-miterlimit="10" stroke-linejoin="round"/>
<path fill-rule="evenodd" clip-rule="evenodd" d="M370.303 355.797L370.301 355.781C370.301 355.781 387.534 367.458 367.43 387.907C387.164 367.831 370.897 356.21 370.303 355.797Z" fill="#00A47B"/>
<path d="M367.43 387.907L360.177 387.657C374.257 372.388 371.942 362.807 370.715 357.728C370.704 357.682 370.693 357.636 370.682 357.591C370.628 357.364 370.575 357.146 370.527 356.938C370.432 356.521 370.353 356.141 370.303 355.797C370.897 356.21 387.164 367.831 367.43 387.907Z" fill="#00A47B"/>
<path d="M370.303 355.797L370.301 355.781C370.301 355.781 387.534 367.458 367.43 387.907M370.303 355.797C370.897 356.21 387.164 367.831 367.43 387.907M370.303 355.797C370.353 356.141 370.432 356.521 370.527 356.938C370.575 357.146 370.628 357.364 370.682 357.591M367.43 387.907L360.177 387.657M360.177 387.657C374.257 372.388 371.942 362.807 370.715 357.728M360.177 387.657C373.817 372.865 372.071 363.41 370.833 358.217C370.793 358.049 370.754 357.886 370.715 357.728M370.715 357.728C370.704 357.682 370.693 357.636 370.682 357.591M370.715 357.728C371.941 362.8 374.251 372.365 360.228 387.602M370.715 357.728L370.682 357.591" stroke="#00A47B" stroke-width="0.5" stroke-miterlimit="10" stroke-linejoin="round"/>
<path fill-rule="evenodd" clip-rule="evenodd" d="M370.303 355.797L370.301 355.781C370.301 355.781 387.534 367.458 367.43 387.907C387.164 367.831 370.897 356.21 370.303 355.797Z" fill="#00A47B"/>
<path d="M370.303 355.797L370.301 355.781C370.301 355.781 387.534 367.458 367.43 387.907C387.164 367.831 370.897 356.21 370.303 355.797ZM370.303 355.797C370.353 356.141 370.432 356.521 370.527 356.938C370.575 357.146 370.628 357.364 370.682 357.591M370.715 357.728C371.942 362.807 374.257 372.388 360.177 387.657C373.817 372.865 372.071 363.41 370.833 358.217C370.793 358.049 370.754 357.886 370.715 357.728ZM370.715 357.728C370.704 357.682 370.693 357.636 370.682 357.591M370.715 357.728C371.941 362.8 374.251 372.365 360.228 387.602M370.715 357.728L370.682 357.591" stroke="#101828" stroke-width="0.5" stroke-miterlimit="10" stroke-linejoin="round"/>
<path d="M368.371 337.565C359.339 350.599 371.149 381.271 360.379 392.508L337.315 392.669L321.08 391.422C320.597 350.389 368.371 337.565 368.371 337.565Z" fill="#00A47B"/>
<path d="M321.08 391.422C321.08 391.426 321.081 391.429 321.081 391.433L321.065 391.421L321.08 391.422Z" fill="#00A47B"/>
<path d="M342.581 382.458C342.696 374.014 347.914 353.269 367.865 337.846" stroke="#101828" stroke-width="0.5"/>
<path d="M321.08 391.422C321.08 391.426 321.081 391.429 321.081 391.433L321.065 391.421L321.08 391.422Z" fill="#00A47B"/>
<path d="M360.379 392.508C371.149 381.271 359.339 350.599 368.371 337.565C368.371 337.565 320.597 350.389 321.08 391.422M321.08 391.422C321.08 391.426 321.081 391.429 321.081 391.433L321.065 391.421L321.08 391.422Z" stroke="#101828" stroke-width="0.5" stroke-miterlimit="10" stroke-linejoin="round"/>
<path d="M305.286 353.88C302.435 362.199 276.739 377.769 276.587 385.112L302.43 386.002C322.509 365.573 305.316 353.9 305.286 353.88Z" fill="#005D46"/>
<path d="M305.3 353.876C305.911 358.214 311.32 368.245 295.175 385.752L302.44 386.003C322.543 365.553 305.3 353.876 305.3 353.876Z" fill="#005D46"/>
<path d="M305.286 353.88C302.435 362.199 276.739 377.769 276.587 385.112L302.43 386.002C322.509 365.573 305.316 353.9 305.286 353.88Z" stroke="#101828" stroke-width="0.5" stroke-miterlimit="10" stroke-linejoin="round"/>
<path d="M305.3 353.876C305.911 358.214 311.32 368.245 295.175 385.752L302.44 386.003C322.543 365.553 305.3 353.876 305.3 353.876Z" stroke="#101828" stroke-width="0.5" stroke-miterlimit="10" stroke-linejoin="round"/>
<path fill-rule="evenodd" clip-rule="evenodd" d="M305.299 353.892L305.297 353.876C305.297 353.876 322.53 365.553 302.426 386.002C322.16 365.925 305.893 354.305 305.299 353.892Z" fill="#00A47B"/>
<path d="M302.426 386.002L295.173 385.752C309.253 370.483 306.938 360.901 305.712 355.823C305.7 355.777 305.689 355.731 305.678 355.686C305.624 355.459 305.571 355.241 305.524 355.033C305.428 354.616 305.349 354.236 305.299 353.892C305.893 354.305 322.16 365.925 302.426 386.002Z" fill="#00A47B"/>
<path d="M305.299 353.892L305.297 353.876C305.297 353.876 322.53 365.553 302.426 386.002M305.299 353.892C305.893 354.305 322.16 365.925 302.426 386.002M305.299 353.892C305.349 354.236 305.428 354.616 305.524 355.033C305.571 355.241 305.624 355.459 305.678 355.686M302.426 386.002L295.173 385.752M295.173 385.752C309.253 370.483 306.938 360.901 305.712 355.823M295.173 385.752C308.813 370.96 307.067 361.505 305.829 356.312C305.789 356.144 305.75 355.981 305.712 355.823M305.712 355.823C305.7 355.777 305.689 355.731 305.678 355.686M305.712 355.823C306.937 360.895 309.247 370.46 295.224 385.697M305.712 355.823L305.678 355.686" stroke="#00A47B" stroke-width="0.5" stroke-miterlimit="10" stroke-linejoin="round"/>
<path fill-rule="evenodd" clip-rule="evenodd" d="M305.299 353.892L305.297 353.876C305.297 353.876 322.53 365.553 302.426 386.002C322.16 365.925 305.893 354.305 305.299 353.892Z" fill="#00A47B"/>
<path d="M305.299 353.892L305.297 353.876C305.297 353.876 322.53 365.553 302.426 386.002C322.16 365.925 305.893 354.305 305.299 353.892ZM305.299 353.892C305.349 354.236 305.428 354.616 305.524 355.033C305.571 355.241 305.624 355.459 305.678 355.686M305.712 355.823C306.938 360.901 309.253 370.483 295.173 385.752C308.813 370.96 307.067 361.505 305.829 356.312C305.789 356.144 305.75 355.981 305.712 355.823ZM305.712 355.823C305.7 355.777 305.689 355.731 305.678 355.686M305.712 355.823C306.937 360.895 309.247 370.46 295.224 385.697M305.712 355.823L305.678 355.686" stroke="#101828" stroke-width="0.5" stroke-miterlimit="10" stroke-linejoin="round"/>
<path d="M303.367 335.66C294.335 348.694 306.145 379.366 295.375 390.603L272.311 390.764L256.076 389.517C255.593 348.484 303.367 335.66 303.367 335.66Z" fill="#00A47B"/>
<path d="M256.076 389.517C256.076 389.521 256.077 389.524 256.077 389.528L256.061 389.516L256.076 389.517Z" fill="#00A47B"/>
<path d="M213.877 390.029C214.965 383.309 213.363 368.37 198.25 362.372C196.622 368.61 197.468 382.874 213.877 390.029Z" fill="#005D46" stroke="#101828" stroke-width="0.5"/>
<path d="M214.794 374.177C223.343 373.733 238.665 367.569 231.556 346.468C223.15 350.9 212.745 356.211 214.794 374.177Z" fill="#00A47B" stroke="#101828" stroke-width="0.5"/>
<path d="M226.945 356.597C211.599 366.55 211.218 389.15 212.946 399.206L218.805 397.471C211.167 376.738 221.049 361.583 226.945 356.597Z" fill="#00A47B"/>
<path d="M212.946 399.206C211.218 389.15 209.567 373.875 226.945 356.597C219.233 369.983 211.167 376.738 218.805 397.471" stroke="#101828" stroke-width="0.5"/>
<path d="M277.577 380.553C277.692 372.109 282.91 351.364 302.861 335.941" stroke="#101828" stroke-width="0.5"/>
<path d="M256.076 389.517C256.076 389.521 256.077 389.524 256.077 389.528L256.061 389.516L256.076 389.517Z" fill="#00A47B"/>
<path d="M295.375 390.603C306.145 379.366 294.335 348.694 303.367 335.66C303.367 335.66 255.593 348.484 256.076 389.517M256.076 389.517C256.076 389.521 256.077 389.524 256.077 389.528L256.061 389.516L256.076 389.517Z" stroke="#101828" stroke-width="0.5" stroke-miterlimit="10" stroke-linejoin="round"/>
<path d="M86.1406 221.935V100.545" stroke="#101828" stroke-width="0.5" stroke-miterlimit="10" stroke-linejoin="round"/>
<path d="M168.169 239.057C165.9 248.597 130.04 256.173 86.1429 256.173C42.2455 256.173 6.38305 248.597 4.11328 239.057C6.37095 229.518 42.2303 221.935 86.1398 221.935C130.049 221.935 165.909 229.518 168.166 239.057H168.169Z" fill="#E7A200" stroke="black" stroke-width="0.5" stroke-linejoin="round"/>
<path d="M95.8438 256.62C95.8271 256.62 95.8112 256.62 95.7953 256.619C94.927 256.593 94.2448 255.868 94.2702 254.999C94.562 245.256 95.5249 236.31 97.1311 228.409C99.3885 217.312 102.873 208.667 107.488 202.712C108.02 202.025 109.009 201.901 109.695 202.433C110.381 202.966 110.506 203.954 109.973 204.642C99.9737 217.54 97.8125 241.788 97.4149 255.093C97.3895 255.946 96.6906 256.62 95.8438 256.62Z" fill="#00A47B" stroke="black" stroke-width="0.5" stroke-linejoin="round"/>
<path d="M112.1 232.015C106.255 236.614 97.3164 235.132 97.3164 235.132C97.3164 235.132 97.8554 226.194 103.702 221.594C109.548 216.995 118.486 218.476 118.486 218.476C118.486 218.476 117.947 227.415 112.1 232.015Z" fill="#00A47B"/>
<path d="M98.54 235.271C101.186 235.491 107.573 235.579 112.103 232.015C117.949 227.415 118.488 218.476 118.488 218.476C118.488 218.476 109.55 216.995 103.704 221.594C100.501 224.114 98.8909 227.937 98.0898 230.878" stroke="black" stroke-width="0.5" stroke-linejoin="round"/>
<path d="M109.012 203.189C108.294 195.626 104.873 190.03 103.961 184.417C103.049 178.803 105.422 171.375 111.326 172.349C121.291 173.993 116.892 194.181 109.012 203.189Z" fill="#CD90E3" stroke="black" stroke-width="0.5"/>
<path d="M108.745 203.05C115.357 199.32 121.901 198.933 127.026 196.476C132.152 194.018 136.889 187.825 132.717 183.532C125.676 176.286 111.632 191.431 108.745 203.05Z" fill="#CD90E3" stroke="black" stroke-width="0.5"/>
<path opacity="0.15" d="M108.745 203.05C115.357 199.32 121.901 198.933 127.026 196.476C132.152 194.018 136.889 187.825 132.717 183.532C125.676 176.286 111.632 191.431 108.745 203.05Z" fill="#101828" stroke="#101828" stroke-width="0.5"/>
<path d="M109.58 204.926C111.424 203.737 111.062 201.944 124.221 201.476C137.381 201.008 138.284 189.962 133.445 187.213C123.283 181.439 113.745 194.597 109.58 204.926Z" fill="#E6D0F3" stroke="black" stroke-width="0.5"/>
<g opacity="0.08">
<path d="M124.223 201.477C137.382 201.009 138.285 189.962 133.446 187.213C133.074 187.002 132.704 186.816 132.334 186.654C133.961 190.691 132.068 197.288 123.034 199.342C115.714 201.007 113.007 202.286 111.679 203.367C113.218 202.536 116.22 201.761 124.223 201.477Z" fill="#101828"/>
<path d="M110.527 202.736C110.187 203.475 109.871 204.207 109.581 204.926C109.761 204.81 109.921 204.688 110.074 204.562C110.211 203.961 110.363 203.351 110.527 202.736Z" fill="#101828"/>
<path d="M124.223 201.477C137.382 201.009 138.285 189.962 133.446 187.213C133.074 187.002 132.704 186.816 132.334 186.654C133.961 190.691 132.068 197.288 123.034 199.342C115.714 201.007 113.007 202.286 111.679 203.367C113.218 202.536 116.22 201.761 124.223 201.477Z" stroke="#101828" stroke-width="0.5"/>
<path d="M110.527 202.736C110.187 203.475 109.871 204.207 109.581 204.926C109.761 204.81 109.921 204.688 110.074 204.562C110.211 203.961 110.363 203.351 110.527 202.736Z" stroke="#101828" stroke-width="0.5"/>
</g>
<path d="M110.074 204.561C110.016 204.814 109.96 205.065 109.907 205.314C110.523 204.716 110.796 204.085 111.68 203.366C111.097 203.681 110.725 204.003 110.37 204.31C110.271 204.395 110.174 204.479 110.074 204.561Z" fill="#E6D0F3" stroke="black" stroke-width="0.5"/>
<path d="M107.51 203.845C107.431 201.651 109.162 200.82 102.029 189.744C94.8956 178.668 103.385 171.719 108.404 174.123C118.945 179.172 113.602 194.523 107.51 203.845Z" fill="#E6D0F3" stroke="black" stroke-width="0.5"/>
<path d="M109.527 204.984C110.236 204.676 110.945 204.399 111.652 204.149C110.996 204.24 110.335 204.35 109.668 204.482C109.619 204.65 109.572 204.817 109.527 204.984Z" fill="#E6D0F3" stroke="black" stroke-width="0.5"/>
<path d="M108.115 203.998L109.58 204.764C111.894 203.402 116.13 200.773 119.624 198.342C120.085 198.022 120.533 197.704 120.962 197.393C122.001 196.642 122.927 195.931 123.656 195.306C124.067 194.954 124.416 194.629 124.685 194.341C130.723 187.887 130.601 179.219 123.883 175.708C114.826 170.972 109.129 179.629 108.075 184.57C107.021 189.51 106.646 198.238 108.115 203.998Z" fill="#E6D0F3"/>
<g opacity="0.08">
<path d="M124.689 194.342C130.727 187.888 130.605 179.22 123.887 175.708C122.861 175.172 121.878 174.807 120.94 174.59C126.027 177.852 126.826 185.196 122.71 191.713C122.5 192.046 122.219 192.429 121.882 192.851C121.285 193.598 120.51 194.467 119.634 195.395C119.272 195.779 118.892 196.173 118.5 196.573C115.727 199.402 112.353 202.517 110.28 204.351C112.683 202.913 116.46 200.547 119.627 198.343C120.088 198.022 120.537 197.705 120.966 197.394C122.004 196.643 122.931 195.931 123.659 195.307C124.071 194.955 124.419 194.63 124.689 194.342Z" fill="#101828"/>
<path d="M108.031 203.644C108.06 203.764 108.089 203.882 108.118 203.999L108.207 204.045C108.148 203.914 108.089 203.78 108.031 203.644Z" fill="#101828"/>
<path d="M109.583 204.765L109.733 204.676L108.936 204.426L109.583 204.765Z" fill="#101828"/>
<path d="M124.689 194.342C130.727 187.888 130.605 179.22 123.887 175.708C122.861 175.172 121.878 174.807 120.94 174.59C126.027 177.852 126.826 185.196 122.71 191.713C122.5 192.046 122.219 192.429 121.882 192.851C121.285 193.598 120.51 194.467 119.634 195.395C119.272 195.779 118.892 196.173 118.5 196.573C115.727 199.402 112.353 202.517 110.28 204.351C112.683 202.913 116.46 200.547 119.627 198.343C120.088 198.022 120.537 197.705 120.966 197.394C122.004 196.643 122.931 195.931 123.659 195.307C124.071 194.955 124.419 194.63 124.689 194.342Z" stroke="#101828" stroke-width="0.5"/>
<path d="M108.031 203.644C108.06 203.764 108.089 203.882 108.118 203.999L108.207 204.045C108.148 203.914 108.089 203.78 108.031 203.644Z" stroke="#101828" stroke-width="0.5"/>
<path d="M109.583 204.765L109.733 204.676L108.936 204.426L109.583 204.765Z" stroke="#101828" stroke-width="0.5"/>
</g>
<path d="M108.206 204.045C108.233 204.104 108.26 204.163 108.287 204.222L108.934 204.425L108.206 204.045Z" fill="#E6D0F3"/>
<path d="M109.862 204.716C109.994 204.601 110.133 204.478 110.279 204.35C110.087 204.464 109.904 204.573 109.731 204.675L109.862 204.716Z" fill="#E6D0F3"/>
<path d="M108.065 203.972L109.521 204.734C112.034 203.246 116.817 200.253 120.444 197.651C120.903 197.323 121.342 197 121.757 196.688C122.977 195.768 123.978 194.935 124.582 194.287C130.607 187.827 130.507 179.17 123.829 175.679C117.182 172.204 112.34 176.014 109.834 180.233C108.945 181.729 108.35 183.276 108.073 184.568" stroke="black" stroke-width="0.5"/>
<path d="M108.241 204.109C108.283 204.178 108.326 204.246 108.368 204.313L108.9 204.454L108.241 204.109Z" fill="#E6D0F3"/>
<path d="M109.733 204.674L110.168 204.789C110.544 204.469 110.975 204.095 111.448 203.68C110.813 204.054 110.233 204.39 109.733 204.674Z" fill="#E6D0F3"/>
<path d="M113.332 195.337C116.448 196.966 117.273 199.686 118.254 201.847C115.037 202.275 111.685 205.015 109.739 205.473C109.234 205.592 108.692 205.522 108.217 205.274C107.752 205.031 107.39 204.637 107.196 204.167C106.43 202.315 106.378 197.88 105.159 195.001C107.921 194.533 110.217 193.709 113.332 195.337Z" fill="#00A47B"/>
<path d="M107.196 204.167C106.43 202.315 106.378 197.88 105.159 195.001C107.921 194.533 110.217 193.709 113.332 195.337C116.448 196.966 117.273 199.686 118.254 201.847C115.037 202.275 111.685 205.015 109.739 205.473" stroke="black" stroke-width="0.5" stroke-linejoin="round"/>
<path opacity="0.13" fill-rule="evenodd" clip-rule="evenodd" d="M117.032 199.159C115.315 199.977 113.745 201.551 112.39 202.909C111.441 203.862 110.597 204.708 109.884 205.111C109.424 205.371 108.883 205.448 108.362 205.323C108.329 205.315 108.296 205.307 108.263 205.297C108.727 205.526 109.251 205.588 109.74 205.473C110.524 205.288 111.537 204.733 112.678 204.108C114.367 203.182 116.335 202.103 118.255 201.847C118.132 201.576 118.012 201.296 117.889 201.011C117.629 200.408 117.359 199.781 117.032 199.159Z" fill="#101828" stroke="#101828" stroke-width="0.5"/>
<path d="M70.2993 252.261C70.2921 252.272 70.2852 252.282 70.2778 252.293C69.8842 252.866 69.1006 253.012 68.5264 252.619C62.0905 248.204 56.4817 243.683 51.8556 239.181C45.3584 232.857 41.0436 226.767 39.0313 221.081C38.799 220.425 39.1427 219.705 39.7983 219.474C40.4545 219.242 41.1741 219.586 41.4066 220.243C45.7656 232.561 61.1615 244.514 69.951 250.541C70.5145 250.928 70.6659 251.69 70.2993 252.261Z" fill="#00A47B" stroke="black" stroke-width="0.400329" stroke-linejoin="round"/>
<path d="M60.7618 230.66C61.329 236.588 56.4617 241.967 56.4617 241.967C56.4617 241.967 50.6744 237.734 50.1076 231.805C49.5404 225.877 54.4071 220.498 54.4071 220.498C54.4071 220.498 60.1943 224.73 60.7618 230.66Z" fill="#00A47B"/>
<path d="M57.0861 241.203C58.3796 239.516 61.2035 235.252 60.7639 230.658C60.1964 224.729 54.4092 220.496 54.4092 220.496C54.4092 220.496 49.5425 225.875 50.1098 231.804C50.4203 235.052 52.298 237.791 53.9324 239.604" stroke="black" stroke-width="0.400329" stroke-linejoin="round"/>
<path d="M40.0062 220.264C34.602 217.474 29.352 217.356 25.1762 215.54C21.0003 213.724 17.0241 208.91 20.2363 205.355C25.6575 199.355 37.3503 211.057 40.0062 220.264Z" fill="#CD90E3" stroke="black" stroke-width="0.400329"/>
<path d="M39.8001 220.381C40.15 214.313 42.7226 209.738 43.286 205.222C43.8495 200.706 41.729 194.835 37.0313 195.786C29.1029 197.392 33.2241 213.407 39.8001 220.381Z" fill="#CD90E3" stroke="black" stroke-width="0.400329"/>
<path opacity="0.15" d="M39.8001 220.381C40.15 214.313 42.7226 209.738 43.286 205.222C43.8495 200.706 41.729 194.835 37.0313 195.786C29.1029 197.392 33.2241 213.407 39.8001 220.381Z" fill="#101828" stroke="#101828" stroke-width="0.400329"/>
<path d="M41.4248 220.631C41.4228 218.874 40.0585 218.342 45.4398 209.276C50.8211 200.21 43.7722 194.82 39.8256 196.889C31.5373 201.234 36.2711 213.354 41.4248 220.631Z" fill="#E6D0F3" stroke="black" stroke-width="0.400329"/>
<g opacity="0.08">
<path d="M45.4385 209.276C50.8198 200.21 43.7709 194.819 39.8244 196.888C39.5212 197.047 39.2354 197.217 38.9665 197.396C42.3899 198.047 46.0136 202.178 43.4865 209.152C41.439 214.803 41.1288 217.18 41.2815 218.542C41.3882 217.146 42.1662 214.789 45.4385 209.276Z" fill="#101828"/>
<path d="M40.3578 219.045C40.7082 219.594 41.0648 220.124 41.4236 220.631C41.4234 220.459 41.4101 220.298 41.3914 220.141C41.0467 219.788 40.7014 219.422 40.3578 219.045Z" fill="#101828"/>
<path d="M45.4385 209.276C50.8198 200.21 43.7709 194.819 39.8244 196.888C39.5212 197.047 39.2354 197.217 38.9665 197.396C42.3899 198.047 46.0136 202.178 43.4865 209.152C41.439 214.803 41.1288 217.18 41.2815 218.542C41.3882 217.146 42.1662 214.789 45.4385 209.276Z" stroke="#101828" stroke-width="0.400329"/>
<path d="M40.3578 219.045C40.7082 219.594 41.0648 220.124 41.4236 220.631C41.4234 220.459 41.4101 220.298 41.3914 220.141C41.0467 219.788 40.7014 219.422 40.3578 219.045Z" stroke="#101828" stroke-width="0.400329"/>
</g>
<path d="M41.3911 220.141C41.5362 220.289 41.6811 220.435 41.8258 220.579C41.6898 219.905 41.3829 219.448 41.2812 218.542C41.2409 219.07 41.2966 219.461 41.3497 219.832C41.3644 219.936 41.3789 220.038 41.3911 220.141Z" fill="#E6D0F3" stroke="black" stroke-width="0.400329"/>
<path d="M39.7985 221.557C38.2867 220.661 38.4768 219.135 27.9286 219.145C17.3804 219.154 16.3752 210.428 20.1673 208.088C28.1313 203.175 36.1574 213.419 39.7985 221.557Z" fill="#E6D0F3" stroke="black" stroke-width="0.400329"/>
<path d="M41.4394 220.692C41.5389 220.081 41.6594 219.484 41.7969 218.899C41.5742 219.38 41.3619 219.873 41.1623 220.38C41.2542 220.485 41.3466 220.589 41.4394 220.692Z" fill="#E6D0F3" stroke="black" stroke-width="0.400329"/>
<path d="M40.1647 221.216L41.3144 220.561C41.3989 218.412 41.4622 214.422 41.3373 211.016C41.3208 210.567 41.3011 210.127 41.2776 209.704C41.221 208.679 41.1429 207.747 41.038 206.986C40.9787 206.556 40.9109 206.181 40.8335 205.875C39.1002 199.014 33.2094 195.344 27.9359 198.349C20.8255 202.399 24.1902 209.984 27.0614 212.832C29.9326 215.681 35.6491 219.712 40.1647 221.216Z" fill="#E6D0F3"/>
<g opacity="0.08">
<path d="M40.8367 205.873C39.1034 199.012 33.2126 195.342 27.9391 198.346C27.1337 198.805 26.4627 199.309 25.9101 199.847C30.3093 197.833 35.6017 200.474 38.2095 206.067C38.3427 206.353 38.4792 206.708 38.6175 207.118C38.8622 207.843 39.1122 208.741 39.3581 209.734C39.4598 210.144 39.5607 210.57 39.6603 211.007C40.3655 214.099 41.0031 217.721 41.3407 219.91C41.4123 217.669 41.4537 214.101 41.3405 211.014C41.324 210.564 41.3043 210.125 41.2809 209.702C41.2242 208.677 41.1461 207.745 41.0412 206.984C40.9819 206.554 40.9141 206.179 40.8367 205.873Z" fill="#101828"/>
<path d="M39.8913 221.119C39.984 221.152 40.0762 221.184 40.1679 221.214L40.2378 221.174C40.1232 221.157 40.0077 221.139 39.8913 221.119Z" fill="#101828"/>
<path d="M41.3177 220.559L41.323 220.42L40.8095 220.849L41.3177 220.559Z" fill="#101828"/>
<path d="M40.8367 205.873C39.1034 199.012 33.2126 195.342 27.9391 198.346C27.1337 198.805 26.4627 199.309 25.9101 199.847C30.3093 197.833 35.6017 200.474 38.2095 206.067C38.3427 206.353 38.4792 206.708 38.6175 207.118C38.8622 207.843 39.1122 208.741 39.3581 209.734C39.4598 210.144 39.5607 210.57 39.6603 211.007C40.3655 214.099 41.0031 217.721 41.3407 219.91C41.4123 217.669 41.4537 214.101 41.3405 211.014C41.324 210.564 41.3043 210.125 41.2809 209.702C41.2242 208.677 41.1461 207.745 41.0412 206.984C40.9819 206.554 40.9141 206.179 40.8367 205.873Z" stroke="#101828" stroke-width="0.400329"/>
<path d="M39.8913 221.119C39.984 221.152 40.0762 221.184 40.1679 221.214L40.2378 221.174C40.1232 221.157 40.0077 221.139 39.8913 221.119Z" stroke="#101828" stroke-width="0.400329"/>
<path d="M41.3177 220.559L41.323 220.42L40.8095 220.849L41.3177 220.559Z" stroke="#101828" stroke-width="0.400329"/>
</g>
<path d="M40.2338 221.175C40.2855 221.183 40.3371 221.19 40.3885 221.197L40.8054 220.849L40.2338 221.175Z" fill="#E6D0F3"/>
<path d="M41.403 220.35C41.3824 220.211 41.3602 220.065 41.3365 219.911C41.3308 220.09 41.3249 220.26 41.3188 220.421L41.403 220.35Z" fill="#E6D0F3"/>
<path d="M40.1256 221.239L41.2685 220.587C41.3542 218.251 41.4092 213.734 41.227 210.164C41.204 209.713 41.1772 209.278 41.1462 208.863C41.0549 207.643 40.9271 206.609 40.7524 205.921C39.0093 199.066 33.1354 195.386 27.8931 198.373C22.6749 201.346 23.1452 206.256 24.902 209.771C25.5248 211.017 26.3094 212.087 27.0595 212.833" stroke="black" stroke-width="0.400329"/>
<path d="M40.2942 221.18C40.3587 221.181 40.423 221.181 40.487 221.182L40.8116 220.885L40.2942 221.18Z" fill="#E6D0F3"/>
<path d="M41.3207 220.419L41.5866 220.176C41.5334 219.784 41.4685 219.332 41.3933 218.833C41.3703 219.423 41.3455 219.959 41.3207 220.419Z" fill="#E6D0F3"/>
<path d="M36.5902 213.953C39.0359 212.559 41.225 213.181 43.1054 213.456C42.0013 215.808 42.3955 219.252 41.8614 220.761C41.7228 221.152 41.4411 221.487 41.0681 221.7C40.7033 221.908 40.2816 221.981 39.8811 221.908C38.3022 221.622 35.2924 219.738 32.8256 219.312C33.7056 217.249 34.1445 215.346 36.5902 213.953Z" fill="#00A47B"/>
<path d="M39.8811 221.908C38.3022 221.622 35.2924 219.738 32.8256 219.312C33.7056 217.249 34.1445 215.346 36.5902 213.953C39.0359 212.559 41.225 213.181 43.1054 213.456C42.0013 215.808 42.3955 219.252 41.8614 220.761" stroke="black" stroke-width="0.400329" stroke-linejoin="round"/>
<path opacity="0.13" fill-rule="evenodd" clip-rule="evenodd" d="M40.7641 213.115C40.5712 214.626 40.9521 216.365 41.2805 217.865C41.5108 218.917 41.7154 219.852 41.6784 220.507C41.6545 220.929 41.4719 221.326 41.1627 221.623C41.1429 221.642 41.1227 221.661 41.1021 221.678C41.4574 221.465 41.7257 221.139 41.8598 220.76C42.0751 220.152 42.1396 219.229 42.2122 218.19C42.3196 216.652 42.4448 214.859 43.1039 213.455C42.868 213.421 42.6273 213.381 42.3819 213.34C41.8635 213.254 41.3239 213.164 40.7641 213.115Z" fill="#101828" stroke="#101828" stroke-width="0.400329"/>
<path opacity="0.1" fill-rule="evenodd" clip-rule="evenodd" d="M20.832 249.062C35.8423 253.385 59.5143 256.173 86.1431 256.173C112.771 256.173 136.442 253.385 151.451 249.062C136.443 244.739 112.772 241.95 86.14 241.95C59.5097 241.95 35.8404 244.739 20.832 249.062Z" fill="black" stroke="black" stroke-width="0.5" stroke-linejoin="round"/>
<path d="M79.5387 251.982C78.7102 251.982 78.0161 251.333 77.9699 250.494C76.5602 224.944 71.7664 207.746 67.9935 197.817C63.9105 187.072 60.1138 182.299 60.0756 182.252C59.5309 181.577 59.6351 180.586 60.3086 180.039C60.9828 179.494 61.9704 179.595 62.5174 180.268C62.682 180.471 66.5948 185.351 70.8512 196.481C74.7369 206.643 79.6715 224.233 81.1107 250.322C81.1584 251.19 80.4945 251.931 79.627 251.979C79.5976 251.981 79.5681 251.982 79.5387 251.982Z" fill="#00A47B" stroke="black" stroke-width="0.5" stroke-linejoin="round"/>
<path d="M58.5351 213.866C52.2398 208.799 51.7969 199.122 51.7969 199.122C51.7969 199.122 61.5612 197.661 67.8565 202.727C74.1519 207.794 74.5948 217.472 74.5948 217.472C74.5948 217.472 64.8305 218.933 58.5351 213.866Z" fill="#00A47B"/>
<path d="M74.5948 217.472C74.5948 217.472 64.8305 218.933 58.5351 213.866C52.2398 208.799 51.7969 199.122 51.7969 199.122C51.7969 199.122 61.5612 197.661 67.8565 202.727C71.2772 205.48 72.97 209.595 73.8027 212.779" stroke="black" stroke-width="0.5" stroke-linejoin="round"/>
<path d="M125.32 248.229C122.609 244.369 117.53 241.211 111.707 241.211C110.052 241.211 108.456 241.421 106.959 241.811C103.921 242.601 100.61 241.886 98.4236 239.873C91.6034 233.601 79.8271 233.578 72.9643 239.798C70.7821 241.779 67.51 242.498 64.4911 241.754C62.0366 241.147 59.4022 241.044 56.8446 241.468C50.1289 246.141 54.1147 255.806 62.9009 255.806H128.999L125.32 248.229Z" fill="#FFF4D9"/>
<path d="M45.9884 248.228L41.7344 255.806H62.8994C60.2937 251.295 58.2502 246.492 56.843 241.468C52.1006 242.254 48.1322 244.794 45.9884 248.228Z" fill="#F5DCB8"/>
<path d="M72.9629 239.798L72.795 239.613L72.7949 239.613L72.9629 239.798ZM98.4229 239.874L98.5921 239.69L98.5921 239.689L98.4229 239.874ZM106.958 241.811L107.021 242.053L107.021 242.053L106.958 241.811ZM111.706 241.211V240.961V241.211ZM125.318 248.229L125.543 248.12L125.534 248.102L125.523 248.085L125.318 248.229ZM128.998 255.806V256.056H129.397L129.223 255.697L128.998 255.806ZM62.8994 255.806L62.7226 255.983L62.7959 256.056H62.8994V255.806ZM62.8984 255.805L63.0752 255.628L62.6748 255.917L62.8984 255.805ZM62.8994 255.807V256.057H63.3039L63.123 255.695L62.8994 255.807ZM41.7344 255.807L41.5164 255.685L41.3073 256.057H41.7344V255.807ZM45.9883 248.23L45.776 248.097L45.7703 248.108L45.9883 248.23ZM56.8428 241.469L56.8837 241.716L56.9628 241.703L57.0196 241.646L56.8428 241.469ZM56.8438 241.468L56.8028 241.222L56.7237 241.235L56.667 241.291L56.8438 241.468ZM64.4902 241.754L64.4302 241.997L64.4304 241.997L64.4902 241.754ZM72.9629 239.798L73.1308 239.984C79.8982 233.849 91.5289 233.873 98.2536 240.058L98.4229 239.874L98.5921 239.689C91.6764 233.329 79.7533 233.306 72.795 239.613L72.9629 239.798ZM98.4229 239.874L98.2536 240.057C100.51 242.133 103.91 242.862 107.021 242.053L106.958 241.811L106.895 241.569C103.931 242.34 100.71 241.638 98.5921 239.69L98.4229 239.874ZM106.958 241.811L107.021 242.053C108.497 241.668 110.072 241.461 111.706 241.461V241.211V240.961C110.03 240.961 108.412 241.174 106.895 241.569L106.958 241.811ZM111.706 241.211V241.461C117.44 241.461 122.445 244.574 125.114 248.373L125.318 248.229L125.523 248.085C122.769 244.165 117.617 240.961 111.706 240.961V241.211ZM125.318 248.229L125.093 248.338L128.773 255.915L128.998 255.806L129.223 255.697L125.543 248.12L125.318 248.229ZM128.998 255.806V255.556H62.8994V255.806V256.056H128.998V255.806ZM62.8994 255.806L63.0762 255.629L63.0752 255.628L62.8984 255.805L62.7217 255.982L62.7226 255.983L62.8994 255.806ZM62.8984 255.805L62.6748 255.917L62.6758 255.919L62.8994 255.807L63.123 255.695L63.122 255.693L62.8984 255.805ZM62.8994 255.807V255.557H41.7344V255.807V256.057H62.8994V255.807ZM41.7344 255.807L41.9524 255.929L46.2063 248.352L45.9883 248.23L45.7703 248.108L41.5164 255.685L41.7344 255.807ZM45.9883 248.23L46.2004 248.362C48.3007 244.997 52.2017 242.492 56.8837 241.716L56.8428 241.469L56.8019 241.223C51.9993 242.019 47.9631 244.593 45.7762 248.098L45.9883 248.23ZM56.8428 241.469L57.0196 241.646L57.0205 241.645L56.8438 241.468L56.667 241.291L56.666 241.292L56.8428 241.469ZM56.8438 241.468L56.8847 241.715C59.409 241.296 62.0092 241.399 64.4302 241.997L64.4902 241.754L64.5502 241.512C62.0625 240.897 59.3936 240.792 56.8028 241.222L56.8438 241.468ZM64.4902 241.754L64.4304 241.997C67.5212 242.758 70.8807 242.026 73.1309 239.983L72.9629 239.798L72.7949 239.613C70.6809 241.532 67.497 242.238 64.55 241.512L64.4902 241.754Z" fill="#101828"/>
<path d="M157.69 248.904C157.236 254.425 154.527 267.614 150.378 271.297C147.576 273.787 144.11 275.693 140.231 276.791C139.126 277.003 137.997 277.208 136.838 277.406C136.157 277.523 135.473 277.639 134.774 277.755C133.07 278.036 131.309 278.296 129.505 278.552C125.208 279.14 120.65 279.65 115.874 280.067C115.844 280.067 115.814 280.074 115.784 280.074C113.974 280.225 112.131 280.368 110.261 280.498H110.23C110.182 280.505 110.139 280.505 110.091 280.505H110.079C105.527 280.82 100.812 281.039 95.964 281.172C92.6622 281.261 89.306 281.309 85.8953 281.309C82.4846 281.309 79.4431 281.268 76.3017 281.186C71.3385 281.063 66.5084 280.837 61.8538 280.522C61.6783 280.515 61.4967 280.502 61.3212 280.488C61.2607 280.488 61.1941 280.488 61.1275 280.481C59.9442 280.392 58.773 280.303 57.6078 280.214C57.5473 280.208 57.4868 280.201 57.4202 280.194C52.2088 279.777 47.2425 279.233 42.5941 278.597C40.4332 278.302 38.339 277.988 36.3204 277.649C35.9875 277.594 35.6516 277.533 35.3187 277.478C34.6499 277.362 33.9901 277.245 33.3394 277.129C23.0891 274.755 15.378 258.563 14.582 248.908C28.6788 254.394 55.441 258.098 86.1344 258.098C116.828 258.098 143.59 254.394 157.687 248.908L157.69 248.904Z" fill="#FECC2F" stroke="black" stroke-width="0.5" stroke-linejoin="round"/>
<path d="M168.283 240.015C168.283 243.089 164.8 245.983 158.653 248.514C158.345 248.644 158.021 248.774 157.694 248.901C143.597 254.39 116.835 258.095 86.1416 258.095C55.4482 258.095 28.6861 254.39 14.5892 248.901C14.1837 248.74 13.7812 248.579 13.3938 248.415C7.39861 245.904 4 243.045 4 240.015C4 239.693 4.03632 239.375 4.115 239.057C4.8262 242.036 8.81192 244.824 15.3065 247.255C15.4941 247.324 15.6878 247.396 15.8815 247.464C30.2809 252.687 56.3652 256.172 86.1416 256.172C115.918 256.172 141.718 252.725 156.166 247.55C156.438 247.454 156.71 247.351 156.98 247.252C163.474 244.824 167.46 242.033 168.171 239.053C168.25 239.372 168.286 239.69 168.286 240.011L168.283 240.015Z" fill="#FECC2F" stroke="black" stroke-width="0.5" stroke-linejoin="round"/>
<path d="M62.0449 280.495C61.4638 280.642 56.6731 280.817 54.1915 280.995C51.2983 281.2 49.0648 281.364 45.7176 280.96C45.8024 280.96 45.8871 280.96 45.9719 280.954C41.3899 278.402 37.5162 273.908 36.0575 267.918C35.7064 266.482 35.2858 265.001 34.6956 263.646C33.6152 261.153 31.1306 258.865 28.5279 259.6C27.1842 259.98 26.3186 261.184 26.0039 262.583C26.8422 256.782 31.6329 256.183 34.6351 259.323C38.5754 263.448 38.7812 277.588 48.3929 279.055C55.859 280.194 61.4214 280.571 62.0418 280.499L62.0449 280.495Z" fill="#E7A200" stroke="black" stroke-width="0.5" stroke-linejoin="round"/>
<path d="M45.9745 280.953C45.8897 280.957 45.805 280.964 45.7202 280.96C37.9395 281.22 28.1704 273.627 26.0337 265.134C25.828 264.299 25.8159 263.407 26.0065 262.582C26.3243 261.183 27.1868 259.983 28.5305 259.6C31.1332 258.864 33.6208 261.153 34.6982 263.646C35.2884 265.001 35.709 266.482 36.0601 267.918C37.5158 273.907 41.3925 278.402 45.9745 280.953Z" fill="#FECC2F" stroke="black" stroke-width="0.5" stroke-linejoin="round"/>
<path d="M110.02 280.495C110.601 280.642 115.391 280.817 117.873 280.994C120.766 281.2 123 281.364 126.347 280.96C126.262 280.96 126.177 280.96 126.093 280.953C130.674 278.402 134.548 273.907 136.007 267.918C136.358 266.482 136.779 265.001 137.369 263.646C138.449 261.153 140.934 258.865 143.537 259.6C144.88 259.98 145.746 261.184 146.061 262.583C145.222 256.782 140.431 256.183 137.429 259.323C133.489 263.448 133.283 277.588 123.671 279.055C116.205 280.194 110.643 280.57 110.023 280.499L110.02 280.495Z" fill="#E7A200" stroke="black" stroke-width="0.5" stroke-linejoin="round"/>
<path d="M126.09 280.953C126.175 280.957 126.259 280.964 126.344 280.96C134.125 281.22 143.894 273.627 146.031 265.134C146.236 264.299 146.248 263.407 146.058 262.582C145.74 261.183 144.878 259.983 143.534 259.6C140.931 258.864 138.443 261.153 137.366 263.646C136.776 265.001 136.355 266.482 136.004 267.918C134.549 273.907 130.672 278.402 126.09 280.953Z" fill="#FECC2F" stroke="black" stroke-width="0.5" stroke-linejoin="round"/>
<path d="M30.0765 264.142C15.2624 228.081 51.2005 164.27 86.385 100.545" stroke="#101828" stroke-width="0.5" stroke-miterlimit="10" stroke-linejoin="round"/>
<path d="M30.8202 263.629C31.1531 264.597 30.8959 265.613 30.2512 265.897C29.6036 266.181 28.8107 265.623 28.4778 264.655C28.1449 263.688 28.4021 262.672 29.0467 262.388C29.6944 262.104 30.4873 262.661 30.8202 263.629Z" fill="#101828"/>
<path d="M140.845 263.629C140.512 264.597 140.769 265.613 141.414 265.897C142.062 266.181 142.854 265.623 143.187 264.655C143.52 263.688 143.263 262.672 142.618 262.388C141.971 262.104 141.178 262.661 140.845 263.629Z" fill="#101828"/>
<path d="M390.539 167.208V45.8185" stroke="#101828" stroke-width="0.5" stroke-miterlimit="10" stroke-linejoin="round"/>
<path d="M472.569 184.331C470.299 193.871 434.44 201.447 390.542 201.447C346.645 201.447 310.785 193.871 308.516 184.331C310.773 174.792 346.633 167.209 390.542 167.209C434.452 167.209 470.311 174.792 472.569 184.331Z" fill="#E7A200" stroke="black" stroke-width="0.5" stroke-linejoin="round"/>
<path opacity="0.1" fill-rule="evenodd" clip-rule="evenodd" d="M455.451 194.021C440.442 198.344 416.771 201.132 390.143 201.132C363.514 201.132 339.842 198.344 324.832 194.021C339.84 189.698 363.51 186.909 390.14 186.909C416.772 186.909 440.443 189.698 455.451 194.021Z" fill="black" stroke="black" stroke-width="0.5" stroke-linejoin="round"/>
<path d="M408.588 140.62C416.683 140.62 423.246 134.053 423.246 125.951C423.246 117.849 416.683 111.282 408.588 111.282C400.492 111.282 393.93 117.849 393.93 125.951C393.93 134.053 400.492 140.62 408.588 140.62Z" fill="#E7A200" stroke="black" stroke-width="0.5" stroke-linejoin="round"/>
<path d="M373.408 140.62C381.504 140.62 388.066 134.053 388.066 125.951C388.066 117.849 381.504 111.282 373.408 111.282C365.313 111.282 358.75 117.849 358.75 125.951C358.75 134.053 365.313 140.62 373.408 140.62Z" fill="#FECC2F" stroke="black" stroke-width="0.5" stroke-linejoin="round"/>
<path d="M390.998 140.62C399.094 140.62 405.656 134.053 405.656 125.951C405.656 117.849 399.094 111.282 390.998 111.282C382.903 111.282 376.34 117.849 376.34 125.951C376.34 134.053 382.903 140.62 390.998 140.62Z" fill="#F8DA92"/>
<path d="M405.658 125.951C405.658 117.849 399.096 111.282 391 111.282V140.62C399.096 140.62 405.658 134.052 405.658 125.951Z" fill="#FECC2F"/>
<path d="M390.998 111.282V111.032V111.282ZM405.656 125.951H405.906V125.951L405.656 125.951ZM400.322 137.27L400.479 137.465L400.481 137.463L400.322 137.27ZM400.048 137.492L400.202 137.688L400.205 137.686L400.048 137.492ZM399.769 137.706L399.918 137.906L399.769 137.706ZM390.998 140.621L390.995 140.871H390.998V140.621ZM390.62 140.616L390.614 140.866L390.617 140.866L390.62 140.616ZM376.34 125.951L376.09 125.951V125.951H376.34ZM390.998 111.282V111.532C398.955 111.532 405.406 117.987 405.406 125.951L405.656 125.951L405.906 125.951C405.906 117.711 399.232 111.032 390.998 111.032V111.282ZM405.656 125.951H405.406C405.406 130.43 403.366 134.432 400.163 137.077L400.322 137.27L400.481 137.463C403.794 134.727 405.906 130.585 405.906 125.951H405.656ZM400.322 137.27L400.165 137.076L399.891 137.297L400.048 137.492L400.205 137.686L400.479 137.465L400.322 137.27ZM400.048 137.492L399.893 137.295C399.803 137.366 399.711 137.436 399.619 137.505L399.769 137.706L399.918 137.906C400.013 137.835 400.108 137.762 400.202 137.688L400.048 137.492ZM399.769 137.706L399.619 137.505C397.215 139.305 394.231 140.371 390.998 140.371V140.621V140.871C394.343 140.871 397.431 139.767 399.918 137.906L399.769 137.706ZM390.998 140.621L391.001 140.371L390.623 140.366L390.62 140.616L390.617 140.866L390.995 140.871L390.998 140.621ZM390.62 140.616L390.626 140.366C382.841 140.169 376.59 133.79 376.59 125.951H376.34H376.09C376.09 134.062 382.558 140.662 390.614 140.866L390.62 140.616ZM376.34 125.951L376.59 125.951C376.59 117.987 383.041 111.532 390.998 111.532V111.282V111.032C382.764 111.032 376.09 117.711 376.09 125.951L376.34 125.951Z" fill="black"/>
<mask id="mask0_10197_1524" style="mask-type:alpha" maskUnits="userSpaceOnUse" x="376" y="111" width="30" height="30">
<path d="M390.998 140.62C399.094 140.62 405.656 134.052 405.656 125.951C405.656 117.849 399.094 111.282 390.998 111.282C382.903 111.282 376.34 117.849 376.34 125.951C376.34 134.052 382.903 140.62 390.998 140.62Z" fill="#F8DA92"/>
</mask>
<g mask="url(#mask0_10197_1524)">
<mask id="mask1_10197_1524" style="mask-type:alpha" maskUnits="userSpaceOnUse" x="376" y="111" width="30" height="30">
<path d="M390.998 140.62C399.094 140.62 405.656 134.053 405.656 125.951C405.656 117.849 399.094 111.282 390.998 111.282C382.903 111.282 376.34 117.849 376.34 125.951C376.34 134.053 382.903 140.62 390.998 140.62Z" fill="#F8DA92"/>
</mask>
<g mask="url(#mask1_10197_1524)">
<path opacity="0.55" d="M396 108.282L372.617 148.782" stroke="white" stroke-width="8"/>
<path opacity="0.55" d="M404 109.282L380.617 149.782" stroke="white" stroke-width="3"/>
</g>
</g>
<path d="M435.168 199.688H435.147L435.128 197.339C434.499 177.517 427.423 165.942 419.742 155.289L410.795 152.355H390.998H371.078L362.258 155.289C354.978 165.423 347.492 177.703 346.868 197.339L346.85 199.688H346.828C343.59 199.688 340.965 202.315 340.965 205.556C340.965 208.796 343.59 211.424 346.828 211.424H390.998H435.168C438.407 211.424 441.032 208.796 441.032 205.556C441.032 202.315 438.407 199.688 435.168 199.688Z" fill="#F9F4F2"/>
<path d="M390.998 134.753H352.887C352.887 142.025 357.068 146.634 360.468 149.422L370.106 152.356H390.998H409.544L421.435 149.422C424.873 146.575 429.109 141.944 429.109 134.753H390.998Z" fill="#F9F4F2"/>
<path d="M429.109 134.753H429.359V134.503H429.109V134.753ZM421.436 149.422L421.495 149.664L421.551 149.651L421.595 149.614L421.436 149.422ZM409.549 152.355L409.489 152.112L409.549 152.605V152.355ZM410.795 152.355L410.873 152.118L410.835 152.105H410.795V152.355ZM419.742 155.29L419.945 155.144L419.897 155.078L419.82 155.052L419.742 155.29ZM435.128 197.339L435.378 197.337L435.378 197.331L435.128 197.339ZM435.146 199.688L434.896 199.69L434.898 199.938H435.146V199.688ZM441.031 205.556L441.281 205.556V205.556H441.031ZM340.965 205.556H340.715V205.556L340.965 205.556ZM346.85 199.688V199.938H347.098L347.1 199.69L346.85 199.688ZM346.868 197.339L346.618 197.331L346.618 197.337L346.868 197.339ZM362.258 155.29L362.179 155.053L362.102 155.078L362.055 155.144L362.258 155.29ZM371.075 152.356L371.154 152.593L371.075 152.106V152.356ZM370.106 152.356L370.034 152.595L370.069 152.606H370.106V152.356ZM360.469 149.422L360.31 149.615L360.349 149.646L360.396 149.661L360.469 149.422ZM352.887 134.753V134.503H352.637V134.753H352.887ZM429.109 134.753H428.859C428.859 141.833 424.693 146.4 421.276 149.229L421.436 149.422L421.595 149.614C425.055 146.749 429.359 142.055 429.359 134.753H429.109ZM421.436 149.422L421.376 149.179L409.489 152.112L409.549 152.355L409.609 152.598L421.495 149.664L421.436 149.422ZM409.549 152.355V152.605H410.795V152.355V152.105H409.549V152.355ZM410.795 152.355L410.717 152.593L419.664 155.527L419.742 155.29L419.82 155.052L410.873 152.118L410.795 152.355ZM419.742 155.29L419.539 155.436C427.206 166.069 434.251 177.596 434.878 197.347L435.128 197.339L435.378 197.331C434.746 177.438 427.639 165.815 419.945 155.144L419.742 155.29ZM435.128 197.339L434.878 197.341L434.896 199.69L435.146 199.688L435.396 199.686L435.378 197.337L435.128 197.339ZM435.146 199.688V199.938H435.168V199.688V199.438H435.146V199.688ZM435.168 199.688V199.938C438.268 199.938 440.781 202.453 440.781 205.556H441.031H441.281C441.281 202.178 438.545 199.438 435.168 199.438V199.688ZM441.031 205.556L440.781 205.556C440.781 208.659 438.268 211.174 435.168 211.174V211.424V211.674C438.544 211.674 441.281 208.934 441.281 205.556L441.031 205.556ZM435.168 211.424V211.174H346.828V211.424V211.674H435.168V211.424ZM346.828 211.424V211.174C343.728 211.174 341.215 208.659 341.215 205.556L340.965 205.556L340.715 205.556C340.715 208.934 343.452 211.674 346.828 211.674V211.424ZM340.965 205.556H341.215C341.215 202.453 343.728 199.938 346.828 199.938V199.688V199.438C343.452 199.438 340.715 202.178 340.715 205.556H340.965ZM346.828 199.688V199.938H346.85V199.688V199.438H346.828V199.688ZM346.85 199.688L347.1 199.69L347.118 197.341L346.868 197.339L346.618 197.337L346.6 199.686L346.85 199.688ZM346.868 197.339L347.118 197.346C347.739 177.782 355.194 165.552 362.461 155.436L362.258 155.29L362.055 155.144C354.762 165.296 347.244 177.623 346.618 197.331L346.868 197.339ZM362.258 155.29L362.337 155.527L371.154 152.593L371.075 152.356L370.996 152.119L362.179 155.053L362.258 155.29ZM371.075 152.356V152.106H370.106V152.356V152.606H371.075V152.356ZM370.106 152.356L370.179 152.117L360.542 149.182L360.469 149.422L360.396 149.661L370.034 152.595L370.106 152.356ZM360.469 149.422L360.627 149.228C357.252 146.46 353.137 141.915 353.137 134.753H352.887H352.637C352.637 142.134 356.886 146.807 360.31 149.615L360.469 149.422ZM352.887 134.753V135.003H429.109V134.753V134.503H352.887V134.753Z" fill="black"/>
<path d="M421.437 149.422C424.875 146.575 429.111 141.944 429.111 134.753H391V152.356H409.546L421.437 149.422Z" fill="#EBE6E4"/>
<path d="M421.436 149.422H390.999H360.469C362.182 150.826 363.713 151.801 364.379 152.356C363.677 153.314 362.967 154.303 362.258 155.289H390.999H419.742C419.037 154.311 418.333 153.332 417.618 152.356C418.34 151.755 419.806 150.771 421.436 149.422Z" fill="#D9D1C2"/>
<path d="M441.033 205.556C441.033 202.315 438.408 199.688 435.17 199.688H435.149L435.13 197.339C434.5 177.517 427.424 165.942 419.744 155.289L410.796 152.355H391V211.424H435.17C438.408 211.424 441.033 208.796 441.033 205.556Z" fill="#EBE6E4"/>
<path d="M417.62 152.356C418.341 151.755 419.807 150.771 421.437 149.422H391V155.289H419.744C419.038 154.311 418.335 153.332 417.62 152.356Z" fill="#D9D1C2"/>
<path d="M421.436 149.422H390.999H360.469C362.182 150.826 363.713 151.801 364.379 152.356C363.677 153.314 362.967 154.303 362.258 155.289H390.999H419.742C419.037 154.311 418.333 153.332 417.618 152.356C418.34 151.755 419.806 150.771 421.436 149.422Z" stroke="black" stroke-width="0.5"/>
<path d="M462.092 194.178C461.638 199.699 458.929 212.888 454.78 216.572C451.978 219.062 448.513 220.967 444.633 222.065C443.528 222.277 442.399 222.482 441.24 222.68C440.559 222.797 439.875 222.913 439.176 223.029C437.473 223.31 435.711 223.57 433.908 223.826C429.61 224.415 425.052 224.924 420.277 225.342C420.246 225.342 420.216 225.348 420.186 225.348C418.376 225.499 416.533 225.642 414.663 225.772H414.633C414.584 225.779 414.542 225.779 414.493 225.779H414.481C409.93 226.094 405.215 226.313 400.366 226.446C397.065 226.535 393.708 226.583 390.298 226.583C386.887 226.583 383.845 226.542 380.704 226.46C375.741 226.337 370.911 226.111 366.256 225.796C366.081 225.79 365.899 225.776 365.724 225.762C365.663 225.762 365.596 225.762 365.53 225.755C364.347 225.666 363.175 225.578 362.01 225.489C361.95 225.482 361.889 225.475 361.823 225.468C356.611 225.051 351.645 224.507 346.996 223.871C344.836 223.577 342.741 223.262 340.723 222.923C340.39 222.869 340.054 222.807 339.721 222.752C339.052 222.636 338.392 222.52 337.742 222.403C327.491 220.03 319.78 203.838 318.984 194.182C333.081 199.668 359.843 203.372 390.537 203.372C421.23 203.372 447.992 199.668 462.089 194.182L462.092 194.178Z" fill="#FECC2F" stroke="black" stroke-width="0.5" stroke-linejoin="round"/>
<path d="M472.685 185.289C472.685 188.364 469.202 191.257 463.056 193.788C462.747 193.918 462.423 194.048 462.096 194.175C447.999 199.665 421.237 203.369 390.544 203.369C359.851 203.369 333.088 199.665 318.992 194.175C318.586 194.014 318.184 193.853 317.796 193.689C311.801 191.179 308.402 188.319 308.402 185.289C308.402 184.967 308.439 184.649 308.517 184.331C309.229 187.31 313.214 190.098 319.709 192.53C319.896 192.598 320.09 192.67 320.284 192.738C334.683 197.961 360.768 201.447 390.544 201.447C420.32 201.447 446.12 197.999 460.568 192.824C460.84 192.728 461.113 192.626 461.382 192.526C467.877 190.098 471.862 187.307 472.574 184.328C472.652 184.646 472.688 184.964 472.688 185.285L472.685 185.289Z" fill="#FECC2F" stroke="black" stroke-width="0.5" stroke-linejoin="round"/>
<path d="M366.447 225.769C365.866 225.916 361.075 226.09 358.594 226.268C355.701 226.473 353.467 226.638 350.12 226.234C350.205 226.234 350.289 226.234 350.374 226.227C345.792 223.676 341.919 219.181 340.46 213.192C340.109 211.756 339.688 210.274 339.098 208.92C338.018 206.427 335.533 204.138 332.93 204.874C331.587 205.253 330.721 206.457 330.406 207.856C331.245 202.055 336.035 201.457 339.037 204.597C342.978 208.722 343.184 222.862 352.795 224.329C360.261 225.468 365.824 225.844 366.444 225.772L366.447 225.769Z" fill="#E7A200" stroke="black" stroke-width="0.5" stroke-linejoin="round"/>
<path d="M350.373 226.227C350.288 226.231 350.203 226.237 350.119 226.234C342.338 226.494 332.569 218.901 330.432 210.408C330.226 209.573 330.214 208.681 330.405 207.856C330.723 206.457 331.585 205.257 332.929 204.874C335.532 204.138 338.019 206.427 339.097 208.92C339.687 210.274 340.107 211.755 340.459 213.192C341.914 219.181 345.791 223.676 350.373 226.227Z" fill="#FECC2F" stroke="black" stroke-width="0.5" stroke-linejoin="round"/>
<path d="M414.422 225.769C415.003 225.916 419.794 226.09 422.275 226.268C425.168 226.474 427.402 226.638 430.749 226.234C430.664 226.234 430.58 226.234 430.495 226.227C435.077 223.676 438.951 219.181 440.409 213.192C440.76 211.756 441.181 210.275 441.771 208.92C442.852 206.427 445.336 204.138 447.939 204.874C449.283 205.253 450.148 206.457 450.463 207.856C449.625 202.055 444.834 201.457 441.832 204.597C437.891 208.722 437.686 222.862 428.074 224.329C420.608 225.468 415.045 225.844 414.425 225.772L414.422 225.769Z" fill="#E7A200" stroke="black" stroke-width="0.5" stroke-linejoin="round"/>
<path d="M430.492 226.227C430.577 226.231 430.662 226.237 430.746 226.234C438.527 226.494 448.296 218.901 450.433 210.408C450.639 209.573 450.651 208.681 450.46 207.856C450.142 206.457 449.28 205.257 447.936 204.874C445.333 204.138 442.846 206.427 441.768 208.92C441.178 210.274 440.758 211.755 440.407 213.192C438.951 219.181 435.074 223.676 430.492 226.227Z" fill="#FECC2F" stroke="black" stroke-width="0.5" stroke-linejoin="round"/>
<path d="M334.237 209.416C319.423 173.355 355.361 109.544 390.545 45.8185" stroke="#101828" stroke-width="0.5" stroke-miterlimit="10" stroke-linejoin="round"/>
<path d="M446.242 209.416C461.056 173.355 425.727 109.544 390.539 45.8185" stroke="#101828" stroke-width="0.5" stroke-miterlimit="10" stroke-linejoin="round"/>
<path d="M335.219 208.903C335.552 209.871 335.294 210.887 334.65 211.17C334.002 211.454 333.209 210.897 332.876 209.929C332.543 208.961 332.801 207.945 333.445 207.661C334.093 207.377 334.886 207.935 335.219 208.903Z" fill="#101828"/>
<path d="M445.247 208.903C444.914 209.871 445.172 210.887 445.816 211.17C446.464 211.454 447.257 210.897 447.59 209.929C447.923 208.961 447.665 207.945 447.021 207.661C446.373 207.377 445.58 207.935 445.247 208.903Z" fill="#101828"/>
<path d="M238.48 86.4047V62.6809L380.985 32.4993V39.193L256.538 70.1852C254.816 70.2673 253.448 72.0767 253.448 74.2863V84.3525L238.477 86.4047H238.48Z" fill="#FECC2F" stroke="black" stroke-width="0.5" stroke-linejoin="round"/>
<path d="M238.478 86.405V62.6811L95.9727 87.2259V93.9196L220.42 73.9479C222.142 74.03 223.51 75.8394 223.51 78.0489V88.4572L238.481 86.405H238.478Z" fill="#FECC2F" stroke="black" stroke-width="0.5" stroke-linejoin="round"/>
<path d="M380.983 32.499L238.479 62.6806V62.6816L95.9727 87.2255V81.1445L238.479 53.7812L380.983 26.4179V32.499Z" fill="#F8DA92"/>
<path d="M380.983 32.499L381.035 32.7435C381.151 32.7191 381.233 32.6171 381.233 32.499H380.983ZM238.479 62.6806L238.427 62.436C238.311 62.4605 238.229 62.5625 238.229 62.6806H238.479ZM238.479 62.6816L238.521 62.928C238.641 62.9073 238.729 62.8033 238.729 62.6816H238.479ZM95.9727 87.2255H95.7227C95.7227 87.2992 95.7552 87.3692 95.8116 87.4167C95.868 87.4642 95.9424 87.4844 96.0151 87.4719L95.9727 87.2255ZM95.9727 81.1445L95.9255 80.899C95.8078 80.9216 95.7227 81.0246 95.7227 81.1445H95.9727ZM238.479 53.7812L238.526 54.0267V54.0267L238.479 53.7812ZM380.983 26.4179H381.233C381.233 26.3433 381.2 26.2727 381.143 26.2252C381.085 26.1777 381.009 26.1583 380.936 26.1724L380.983 26.4179ZM380.983 32.499L380.932 32.2544L238.427 62.436L238.479 62.6806L238.53 62.9252L381.035 32.7435L380.983 32.499ZM238.479 62.6806H238.229V62.6816H238.479H238.729V62.6806H238.479ZM238.479 62.6816L238.436 62.4352L95.9302 86.9792L95.9727 87.2255L96.0151 87.4719L238.521 62.928L238.479 62.6816ZM95.9727 87.2255H96.2227V81.1445H95.9727H95.7227V87.2255H95.9727ZM95.9727 81.1445L96.0198 81.39L238.526 54.0267L238.479 53.7812L238.431 53.5357L95.9255 80.899L95.9727 81.1445ZM238.479 53.7812L238.526 54.0267L381.031 26.6634L380.983 26.4179L380.936 26.1724L238.431 53.5357L238.479 53.7812ZM380.983 26.4179H380.733V32.499H380.983H381.233V26.4179H380.983Z" fill="black"/>
<path d="M255.312 372.123H238.5V68.0135H246.402L255.312 372.123Z" fill="#F8DA92" stroke="black" stroke-width="0.5" stroke-linejoin="round"/>
<path d="M238.499 68.0132V372.123H221.68L230.59 68.0132H238.499Z" fill="#FECC2F" stroke="black" stroke-width="0.5" stroke-linejoin="round"/>
<path opacity="0.15" d="M236.497 82.8339C242.215 82.8339 246.85 78.1954 246.85 72.4735C246.85 66.7516 242.215 62.1131 236.497 62.1131C230.78 62.1131 226.145 66.7516 226.145 72.4735C226.145 78.1954 230.78 82.8339 236.497 82.8339Z" fill="black" stroke="black" stroke-width="0.5" stroke-linejoin="round"/>
<path d="M238.497 79.8318C244.215 79.8318 248.85 75.1933 248.85 69.4715C248.85 63.7496 244.215 59.1111 238.497 59.1111C232.78 59.1111 228.145 63.7496 228.145 69.4715C228.145 75.1933 232.78 79.8318 238.497 79.8318Z" fill="#FECC2F" stroke="black" stroke-width="0.5" stroke-linejoin="round"/>
<path d="M77.7826 77.6917H94.0959C95.7228 77.6917 97.042 79.012 97.042 80.6401V101.522H74.8398V80.6401C74.8398 79.012 76.1591 77.6917 77.786 77.6917H77.7826Z" fill="#FECC2F" stroke="black" stroke-width="0.5" stroke-linejoin="round"/>
<ellipse opacity="0.15" cx="85" cy="91.3334" rx="4" ry="4.003" fill="black" stroke="black" stroke-width="0.5" stroke-linejoin="round"/>
<ellipse cx="86" cy="89.3319" rx="4" ry="4.003" fill="#F8DA92" stroke="black" stroke-width="0.5" stroke-linejoin="round"/>
<path d="M382.329 22.2815H398.643C400.27 22.2815 401.589 23.6018 401.589 25.2299V46.1114H379.387V25.2299C379.387 23.6018 380.706 22.2815 382.333 22.2815H382.329Z" fill="#FECC2F" stroke="black" stroke-width="0.5" stroke-linejoin="round"/>
<ellipse opacity="0.15" cx="389.996" cy="36.292" rx="4" ry="4.003" fill="black" stroke="black" stroke-width="0.5" stroke-linejoin="round"/>
<ellipse cx="390.996" cy="34.2905" rx="4" ry="4.003" fill="#F8DA92" stroke="black" stroke-width="0.5" stroke-linejoin="round"/>
<path d="M364.383 138.297H369.706" stroke="black" stroke-width="0.5"/>
<path d="M412.289 138.297H417.612" stroke="black" stroke-width="0.5"/>
<path d="M60.8523 180.354C53.3518 176.099 45.8341 175.535 40.0082 172.716C34.1822 169.897 28.9099 162.964 33.8328 158.313C42.1414 150.463 57.8648 167.471 60.8523 180.354Z" fill="#CD90E3" stroke="black" stroke-width="0.5"/>
<path d="M61.4238 180.073C62.6099 171.526 66.735 165.212 68.0418 158.869C69.3486 152.526 67.0551 144.121 60.372 145.204C49.0928 147.031 53.0218 169.865 61.4238 180.073Z" fill="#CD90E3" stroke="black" stroke-width="0.5"/>
<path opacity="0.15" d="M61.4238 180.073C62.6099 171.526 66.735 165.212 68.0418 158.869C69.3486 152.526 67.0551 144.121 60.372 145.204C49.0928 147.031 53.0218 169.865 61.4238 180.073Z" fill="#101828" stroke="#101828" stroke-width="0.5"/>
<path d="M61.1431 181.691C52.2717 179.447 44.1422 180.817 37.3514 179.549C30.5607 178.281 27.5979 171.685 32.1212 167.17C41.7764 157.534 55.3057 169.857 61.1431 181.691Z" fill="#E6D0F3" stroke="black" stroke-width="0.5"/>
<path d="M62.3054 181.117C65.9203 172.705 71.9513 167.08 75.0753 160.914C78.1993 154.748 74.7684 148.383 68.4366 149.231C54.9208 151.041 56.468 169.283 62.3054 181.117Z" fill="#E6D0F3" stroke="black" stroke-width="0.5"/>
<g opacity="0.08">
<path d="M75.0765 160.914C78.2005 154.748 74.7696 148.383 68.4378 149.231C68.3315 149.245 68.2261 149.26 68.1217 149.276C71.008 150.885 72.5544 154.713 71.372 158.992C70.5953 161.803 69.2797 164.621 67.8817 167.616C66.321 170.959 64.6575 174.522 63.5262 178.542C67.1627 171.511 72.2824 166.429 75.0765 160.914Z" fill="#101828"/>
<path d="M61.3686 179.074C61.6666 179.772 61.9799 180.455 62.3066 181.117C62.374 180.96 62.4422 180.804 62.5112 180.65C62.1225 180.139 61.741 179.613 61.3686 179.074Z" fill="#101828"/>
<path d="M75.0765 160.914C78.2005 154.748 74.7696 148.383 68.4378 149.231C68.3315 149.245 68.2261 149.26 68.1217 149.276C71.008 150.885 72.5544 154.713 71.372 158.992C70.5953 161.803 69.2797 164.621 67.8817 167.616C66.321 170.959 64.6575 174.522 63.5262 178.542C67.1627 171.511 72.2824 166.429 75.0765 160.914Z" stroke="#101828" stroke-width="0.5"/>
<path d="M61.3686 179.074C61.6666 179.772 61.9799 180.455 62.3066 181.117C62.374 180.96 62.4422 180.804 62.5112 180.65C62.1225 180.139 61.741 179.613 61.3686 179.074Z" stroke="#101828" stroke-width="0.5"/>
</g>
<path d="M62.8863 181.138C63.0713 180.251 63.2856 179.387 63.5234 178.542C63.1699 179.226 62.8304 179.927 62.5084 180.649C62.6336 180.814 62.7596 180.977 62.8863 181.138Z" fill="#E6D0F3" stroke="black" stroke-width="0.5"/>
<path d="M61.0091 181.826L62.708 180.987C63.215 176.003 64.0751 164.028 63.3211 160.023C61.4542 150.105 54.4132 146.778 46.6206 150.627C36.1139 155.817 39.2033 164.516 43.0492 168.809C46.8951 173.102 54.6973 179.313 61.0091 181.826Z" fill="#E6D0F3"/>
<path d="M61.2037 181.731C61.2966 181.74 61.3891 181.747 61.4813 181.755L61.9692 181.353L61.2037 181.731Z" fill="#E6D0F3"/>
<path d="M62.7344 180.723L63.134 180.394C63.0841 179.813 63.0213 179.142 62.9469 178.402C62.8736 179.266 62.8013 180.05 62.7344 180.723Z" fill="#E6D0F3"/>
<g opacity="0.08">
<path d="M63.2728 160.098C61.3979 150.136 54.5062 146.704 46.4972 150.661C45.5333 151.137 44.6784 151.633 43.9237 152.143C50.1637 148.768 56.2718 151.493 59.5761 159.294C61.0019 162.66 62.3083 172.721 62.8962 178.558C63.3838 172.804 63.9194 163.533 63.2728 160.098Z" fill="#101828"/>
<path d="M60.5711 181.845C60.6978 181.898 60.824 181.949 60.9496 181.999L61.1451 181.903C61.0363 181.893 60.9271 181.882 60.8174 181.871L60.7076 181.86L60.5711 181.845Z" fill="#101828"/>
<path d="M62.6563 181.156C62.6651 181.069 62.674 180.98 62.6831 180.889L61.9142 181.523L62.6563 181.156Z" fill="#101828"/>
<path d="M63.2728 160.098C61.3979 150.136 54.5062 146.704 46.4972 150.661C45.5333 151.137 44.6784 151.633 43.9237 152.143C50.1637 148.768 56.2718 151.493 59.5761 159.294C61.0019 162.66 62.3083 172.721 62.8962 178.558C63.3838 172.804 63.9194 163.533 63.2728 160.098Z" stroke="#101828" stroke-width="0.5"/>
<path d="M60.5711 181.845C60.6978 181.898 60.824 181.949 60.9496 181.999L61.1451 181.903C61.0363 181.893 60.9271 181.882 60.8174 181.871L60.7076 181.86L60.5711 181.845Z" stroke="#101828" stroke-width="0.5"/>
<path d="M62.6563 181.156C62.6651 181.069 62.674 180.98 62.6831 180.889L61.9142 181.523L62.6563 181.156Z" stroke="#101828" stroke-width="0.5"/>
</g>
<path d="M43.0492 168.809C39.2033 164.516 36.1139 155.817 46.6206 150.627C53.3108 147.322 59.3903 149.546 62.0888 155.826M48.8027 174.189C52.5731 177.265 57.0799 180.262 61.0091 181.826L62.708 180.987C63.1221 176.916 63.7717 168.182 63.5851 162.935" stroke="black" stroke-width="0.5"/>
<path d="M57.0827 171.915C60.9983 169.981 65.1729 169.787 68.2098 171.092C66.6732 173.235 64.3507 178.818 63.4786 180.977C63.2523 181.538 62.8236 182 62.2717 182.272C61.732 182.539 61.1195 182.602 60.5474 182.453C58.2921 181.866 52.3195 180.372 49.6541 180.288C50.4556 177.07 53.1535 173.857 57.0827 171.915Z" fill="#00A47B"/>
<path d="M62.9385 181.794C63.1704 181.561 63.3548 181.284 63.4786 180.977C64.3507 178.818 66.6732 173.235 68.2099 171.092C65.1729 169.787 60.9983 169.981 57.0827 171.915C53.1535 173.857 50.4556 177.07 49.6541 180.288C52.3195 180.372 58.2921 181.866 60.5474 182.453C60.6714 182.485 60.7974 182.508 60.924 182.52" stroke="black" stroke-width="0.5" stroke-linejoin="round"/>
<path opacity="0.13" fill-rule="evenodd" clip-rule="evenodd" d="M65.3889 170.376C64.6978 173.161 63.3332 178.48 63.2048 180.67C63.1755 181.171 62.9912 181.642 62.678 182.023C63.035 181.753 63.3133 181.392 63.4808 180.977C64.3529 178.818 66.6754 173.235 68.212 171.092C67.0758 170.604 66.8219 170.576 65.3889 170.376Z" fill="#101828" stroke="#101828" stroke-width="0.5"/>
<path d="M19.4961 171.404L19.436 173.968C19.3183 178.989 23.4166 183.09 28.434 182.973L30.9961 182.913L28.434 182.852C23.4166 182.735 19.3183 186.836 19.436 191.857L19.4961 194.421L19.5562 191.857C19.6739 186.836 15.5756 182.735 10.5582 182.852L7.99609 182.913L10.5582 182.973C15.5756 183.09 19.6739 178.989 19.5562 173.968L19.4961 171.404Z" fill="white" stroke="#101828" stroke-width="0.5"/>
<path d="M449.496 91.4041L449.436 93.9681C449.318 98.9893 453.417 103.091 458.434 102.973L460.996 102.913L458.434 102.853C453.417 102.735 449.318 106.836 449.436 111.857L449.496 114.421L449.556 111.857C449.674 106.836 445.576 102.735 440.558 102.853L437.996 102.913L440.558 102.973C445.576 103.091 449.674 98.9893 449.556 93.9681L449.496 91.4041Z" fill="white" stroke="#101828" stroke-width="0.5"/>
<path d="M365 59.2815L364.916 62.8462C364.753 69.8269 370.455 75.5289 377.435 75.3651L381 75.2815L377.435 75.1979C370.455 75.0341 364.753 80.736 364.916 87.7168L365 91.2815L365.084 87.7168C365.247 80.736 359.545 75.0341 352.565 75.1979L349 75.2815L352.565 75.3651C359.545 75.5289 365.247 69.8269 365.084 62.8462L365 59.2815Z" fill="white" stroke="#101828" stroke-width="0.5"/>
<path d="M142.441 262.281C157.547 223.148 121.883 170.436 86 101.281" stroke="#101828" stroke-width="0.5" stroke-miterlimit="10" stroke-linecap="round" stroke-linejoin="round"/>
<path d="M317.462 363.499H159.531L163.807 349.841L164.479 347.7H312.52L313.193 349.841L317.462 363.499Z" fill="#FECC2F" stroke="black" stroke-width="0.5" stroke-linejoin="round"/>
<path d="M154.594 379.302H322.396L317.46 363.5H159.529L154.594 379.302Z" fill="#E7A200" stroke="black" stroke-width="0.5" stroke-linejoin="round"/>
<path d="M312.517 347.701H164.477L168.8 333.847H308.187L312.517 347.701Z" fill="#F8DA92"/>
<path d="M312.517 347.701V347.951H312.857L312.755 347.626L312.517 347.701ZM164.477 347.701L164.238 347.626L164.137 347.951H164.477V347.701ZM168.8 333.847V333.597H168.616L168.561 333.773L168.8 333.847ZM308.187 333.847L308.425 333.773L308.37 333.597H308.187V333.847ZM312.517 347.701V347.451H164.477V347.701V347.951H312.517V347.701ZM164.477 347.701L164.715 347.775L169.038 333.922L168.8 333.847L168.561 333.773L164.238 347.626L164.477 347.701ZM168.8 333.847V334.097H308.187V333.847V333.597H168.8V333.847ZM308.187 333.847L307.948 333.922L312.278 347.775L312.517 347.701L312.755 347.626L308.425 333.773L308.187 333.847Z" fill="black"/>
<path d="M81.7371 363.292C80.3463 355.983 81.4828 339.291 97.1552 330.996C99.0964 337.712 98.7304 353.575 81.7371 363.292Z" fill="#005D46" stroke="#101828" stroke-width="0.5"/>
<path d="M82.7985 362.458C86.6447 353.578 87.3955 334.282 59.6289 328.137C60.4198 339.386 61.1967 353.198 82.7985 362.458Z" fill="#00A47B" stroke="#101828" stroke-width="0.5"/>
<path d="M73.5977 340.146C89.2045 357.959 82.7749 382.972 77.6092 393.252L71.0206 388.722C86.6225 369.351 79.2394 348.267 73.5977 340.146Z" fill="#00A47B"/>
<path d="M77.6092 393.252C82.7749 382.972 89.2045 357.959 73.5977 340.146C79.2394 348.267 86.6225 369.351 71.0206 388.722" stroke="#101828" stroke-width="0.5"/>
<path d="M447.787 382.029C448.875 375.309 447.273 360.37 432.16 354.372C430.532 360.61 431.378 374.874 447.787 382.029Z" fill="#005D46" stroke="#101828" stroke-width="0.5"/>
<path d="M448.704 366.177C457.253 365.733 472.575 359.569 465.466 338.467C457.06 342.9 446.655 348.211 448.704 366.177Z" fill="#00A47B" stroke="#101828" stroke-width="0.5"/>
<path d="M460.855 348.597C445.509 358.55 445.128 381.15 446.856 391.206L452.715 389.471C445.077 368.738 454.96 353.583 460.855 348.597Z" fill="#00A47B"/>
<path d="M446.856 391.206C445.128 381.15 443.478 365.875 460.855 348.597C453.143 361.983 445.077 368.738 452.715 389.471" stroke="#101828" stroke-width="0.5"/>
<path d="M384.468 364.632C377.673 360.328 365.355 347.115 370.446 328.701C377.183 332.137 389.419 344.133 384.468 364.632Z" fill="#00A47B" stroke="#101828" stroke-width="0.5"/>
<path d="M391.46 365.387C393.15 358.219 400.789 344.267 417.828 345.795C416.856 352.753 410.222 366.412 391.46 365.387Z" fill="#005D46" stroke="#101828" stroke-width="0.5"/>
<path d="M385.262 357.795C394.543 352.656 410.021 337.351 397.694 317.25C388.288 321.425 372.632 335.378 385.262 357.795Z" fill="#00A47B" stroke="#101828" stroke-width="0.5"/>
<path d="M388.722 341.723C381.483 359.001 381.349 387.736 382.187 399.943H388.722C385.102 379.284 387.213 352.522 388.722 341.723Z" fill="#00A47B"/>
<path d="M380.656 399.943C382.219 382.571 381.483 359.001 388.721 341.723C387.213 352.522 385.102 379.284 388.721 399.943" stroke="#101828" stroke-width="0.5"/>
<path d="M405.21 355.035C392.331 360.557 386.362 371.946 384.988 376.951L386.12 381.179C389.485 368.063 400.249 358.285 405.21 355.035Z" fill="#00A47B"/>
<path d="M385.1 375.076C387.283 371.842 392.331 360.557 405.21 355.035C400.249 358.285 389.485 368.063 386.12 381.179" stroke="#101828" stroke-width="0.5"/>
<path d="M34.2261 381.819C40.5348 379.685 52.4915 371.627 49.8484 356.471C43.6742 357.943 31.9058 365.073 34.2261 381.819Z" fill="#005D46" stroke="#101828" stroke-width="0.5"/>
<path d="M34.4326 380.523C26.1411 375.931 12.3114 362.257 23.3249 344.297C31.7294 348.027 45.7173 360.494 34.4326 380.523Z" fill="#00A47B" stroke="#101828" stroke-width="0.5"/>
<path d="M30.5237 362.898C36.9913 376.445 37.1111 398.974 36.3625 408.545H30.5237C33.7574 392.348 31.8711 371.365 30.5237 362.898Z" fill="#00A47B"/>
<path d="M37.7305 408.545C36.3346 394.925 36.9921 376.445 30.5245 362.898C31.8719 371.365 33.7582 392.348 30.5245 408.545" stroke="#101828" stroke-width="0.5"/>
<path d="M34.6923 398.872C35.3724 393.419 40.0024 382.767 53.0816 383.784C52.9297 389.072 49.0392 399.493 34.6923 398.872Z" fill="#00A47B"/>
<path d="M34.6923 398.872C49.0392 399.493 52.9297 389.072 53.0816 383.784C42.5189 382.963 37.4669 389.752 35.5556 395.267" stroke="#101828" stroke-width="0.5"/>
<path d="M52.9102 383.977C49.9734 385.637 42.7156 390.353 37.1778 395.931" stroke="#101828" stroke-width="0.5"/>
<path d="M104 352.169C104 352.169 105.044 368.607 113.103 375.162L134.626 375.289C134.626 375.289 129.686 365.096 117.591 359.894C105.496 354.692 104 352.169 104 352.169Z" fill="#00A47B"/>
<path d="M117.591 378.051C104 369.316 104 352.168 104 352.168C104 352.168 105.496 354.692 117.591 359.894C129.686 365.096 134.626 375.288 134.626 375.288" stroke="#101828" stroke-width="0.5" stroke-linecap="round" stroke-linejoin="round"/>
<path d="M104 352.169C104 352.169 110.774 366.985 123.956 375.162L134.626 375.289C134.626 375.289 129.686 365.096 117.591 359.894C105.496 354.692 104 352.169 104 352.169Z" fill="#005D46" stroke="#101828" stroke-width="0.5" stroke-miterlimit="10" stroke-linejoin="round"/>
<path d="M152.808 327.201C152.808 327.201 142.703 348.799 147.869 362.389L173.668 376.571C173.668 376.571 174.769 360.373 163.817 345.88C152.865 331.388 152.808 327.187 152.808 327.187L152.808 327.201Z" fill="#005D46" stroke="#101828" stroke-width="0.5" stroke-linecap="round" stroke-linejoin="round"/>
<path d="M152.809 327.201C152.809 327.201 150.72 350.462 160.924 369.466L173.669 376.571C173.669 376.571 174.769 360.373 163.817 345.88C152.866 331.388 152.809 327.187 152.809 327.187L152.809 327.201Z" fill="#00A47B" stroke="#101828" stroke-width="0.5" stroke-miterlimit="10" stroke-linejoin="round"/>
<mask id="mask2_10197_1524" style="mask-type:alpha" maskUnits="userSpaceOnUse" x="146" y="327" width="28" height="50">
<path d="M147.581 362.131C145.136 355.327 146.375 346.647 148.228 339.654C149.17 336.097 150.274 332.966 151.143 330.725C151.577 329.604 151.953 328.705 152.22 328.086C152.353 327.777 152.459 327.537 152.532 327.375C152.569 327.294 152.597 327.231 152.616 327.189C152.622 327.176 152.628 327.165 152.632 327.156C152.647 327.073 152.719 327.009 152.807 327.009C152.905 327.008 152.985 327.087 152.986 327.185L152.986 327.191C152.987 327.197 152.988 327.208 152.989 327.223C152.992 327.253 152.997 327.301 153.008 327.368C153.03 327.504 153.073 327.718 153.159 328.022C153.332 328.631 153.677 329.599 154.365 331.022C155.742 333.87 158.488 338.533 163.959 345.773C169.456 353.047 171.927 360.749 173.024 366.629C173.573 369.569 173.778 372.055 173.847 373.808C173.881 374.683 173.881 375.376 173.872 375.851C173.868 376.088 173.861 376.271 173.855 376.394C173.853 376.456 173.85 376.503 173.849 376.535C173.848 376.551 173.847 376.563 173.847 376.571C173.846 376.575 173.846 376.579 173.846 376.581L173.846 376.584C173.841 376.645 173.806 376.7 173.753 376.729C173.699 376.759 173.635 376.758 173.581 376.728L173.58 376.728L147.781 362.547C147.753 362.532 147.731 362.508 147.715 362.481L147.701 362.453L147.581 362.131Z" fill="#00A47B"/>
</mask>
<g mask="url(#mask2_10197_1524)">
<path opacity="0.3" d="M119.974 319.505C119.974 319.505 129.476 355.754 156.165 379.493L180.297 383.972C180.297 383.972 173.105 358.913 147.731 342.37C122.357 325.828 119.963 319.488 119.963 319.488L119.974 319.505Z" fill="#101828" stroke="#101828" stroke-width="0.5" stroke-miterlimit="10" stroke-linejoin="round"/>
</g>
<path d="M106.002 325.143C106.002 325.143 109.275 363.855 127.82 378.939L177.344 379.221C177.344 379.221 165.095 354.889 137.263 342.934C109.432 330.98 105.988 325.143 105.988 325.143L106.002 325.143Z" fill="#00A47B"/>
<path d="M130.64 380.672C109.241 368.443 106.002 325.142 106.002 325.142L105.988 325.142C105.988 325.142 109.432 330.979 137.263 342.934C165.095 354.888 176.47 378.347 176.47 378.347" stroke="#101828" stroke-width="0.5" stroke-linecap="round" stroke-linejoin="round"/>
<path d="M106.125 325.679C108.927 332.475 117.249 347.855 128.122 355.009C138.995 362.162 147.317 369.435 148.331 372.177" stroke="#101828" stroke-width="0.5"/>
<rect x="-5" y="375" width="487" height="56" fill="white" stroke="black" stroke-width="0.5"/>
</g>
<defs>
<clipPath id="clip0_10197_1524">
<rect width="478" height="414" fill="white"/>
</clipPath>
</defs>
</svg>
