<svg width="162" height="77" viewBox="0 0 162 77" fill="none" xmlns="http://www.w3.org/2000/svg">
<path d="M48.8428 0.257812H112.891C116.389 0.257821 119.226 3.09394 119.227 6.59277V69.6992C119.226 73.198 116.389 76.0342 112.891 76.0342H48.8428C45.3441 76.034 42.5081 73.1979 42.5078 69.6992V6.59277C42.508 3.09405 45.3441 0.258002 48.8428 0.257812Z" fill="url(#paint0_linear_10085_975)" stroke="#101828" stroke-width="0.515264"/>
<mask id="mask0_10085_975" style="mask-type:alpha" maskUnits="userSpaceOnUse" x="42" y="4" width="146" height="73">
<path d="M49.3428 4.41357H181.157C184.656 4.41376 187.492 7.24982 187.492 10.7485V69.563C187.492 73.0617 184.656 75.8978 181.157 75.8979H49.3428C45.8441 75.8978 43.008 73.0617 43.0078 69.563V10.7485C43.008 7.24982 45.8441 4.41376 49.3428 4.41357Z" fill="#DCEBFF" stroke="#101828" stroke-width="0.515264"/>
</mask>
<g mask="url(#mask0_10085_975)">
<g filter="url(#filter0_f_10085_975)">
<circle cx="42.7378" cy="60.3838" r="28.7378" fill="#84B8FA" fill-opacity="0.8"/>
</g>
<path d="M84.0348 57.2606C78.7476 44.9589 64.4073 44.3738 57.8981 45.619L56.6315 47.1553L55.5378 48.5912C61.5971 60.2844 77.0605 59.243 84.0348 57.2606Z" fill="#00A47B"/>
<path opacity="0.2" d="M84.0348 57.2606C78.7476 44.9589 64.4073 44.3738 57.8981 45.619L56.6315 47.1553L55.5378 48.5912C61.5971 60.2844 77.0605 59.243 84.0348 57.2606Z" fill="#101828"/>
<path d="M61.7031 49.2107C65.1936 49.5912 73.6824 51.2935 79.7142 55.0592" stroke="black" stroke-width="0.515264"/>
<path d="M57.8981 45.619C64.4073 44.3738 78.7476 44.9589 84.0348 57.2606C77.0605 59.243 61.5971 60.2844 55.5378 48.5912" stroke="#101828" stroke-width="0.515264" stroke-linecap="round"/>
<path d="M156.182 11.5717L160.582 24.4328L158.8 25.0431L157.018 25.6524L153.894 16.5238L152.796 18.2734L152.779 18.3001L152.762 18.3258C146.772 27.1989 139.011 38.6055 128.784 45.6716C123.631 49.2313 117.796 51.7328 111.199 52.2452C104.595 52.758 97.371 51.2648 89.4678 47.0638C78.6919 41.3359 67.5252 42.7026 57.4162 47.6997C47.2687 52.7161 38.3429 61.3344 32.3779 69.7354L29.3053 67.5536C35.5429 58.7685 44.9175 49.6757 55.747 44.3222C66.6148 38.95 79.1021 37.2879 91.2361 43.7378C98.6077 47.6562 105.122 48.9385 110.907 48.4893C116.7 48.0394 121.908 45.8423 126.642 42.5717C136.178 35.9835 143.56 25.2201 149.62 16.2445L150.615 14.6623L140.925 16.1385L140.642 14.2756L140.357 12.4135L154.117 10.3189L155.673 10.0819L156.182 11.5717Z" fill="#00A47B"/>
<path d="M156.182 11.5717L155.939 11.655L155.939 11.6551L156.182 11.5717ZM160.582 24.4328L160.666 24.6765L160.909 24.5931L160.826 24.3494L160.582 24.4328ZM158.8 25.0431L158.884 25.2869L158.884 25.2868L158.8 25.0431ZM157.018 25.6524L156.774 25.7358L156.858 25.9794L157.101 25.8961L157.018 25.6524ZM153.894 16.5238L154.138 16.4403L153.963 15.9294L153.676 16.3868L153.894 16.5238ZM152.796 18.2734L152.577 18.1364L152.577 18.1369L152.796 18.2734ZM152.779 18.3001L152.996 18.4396L152.997 18.4366L152.779 18.3001ZM152.762 18.3258L152.976 18.47L152.979 18.4653L152.762 18.3258ZM128.784 45.6716L128.93 45.8836L128.93 45.8836L128.784 45.6716ZM111.199 52.2452L111.219 52.502L111.219 52.502L111.199 52.2452ZM89.4678 47.0638L89.5887 46.8363L89.5887 46.8363L89.4678 47.0638ZM57.4162 47.6997L57.302 47.4688L57.302 47.4688L57.4162 47.6997ZM32.3779 69.7354L32.2288 69.9454L32.4388 70.0946L32.588 69.8845L32.3779 69.7354ZM29.3053 67.5536L29.0952 67.4045L28.946 67.6145L29.1561 67.7637L29.3053 67.5536ZM55.747 44.3222L55.6328 44.0913L55.6328 44.0913L55.747 44.3222ZM91.2361 43.7378L91.1152 43.9653L91.1152 43.9653L91.2361 43.7378ZM110.907 48.4893L110.927 48.7461L110.927 48.7461L110.907 48.4893ZM126.642 42.5717L126.789 42.7836L126.789 42.7836L126.642 42.5717ZM149.62 16.2445L149.833 16.3887L149.838 16.3816L149.62 16.2445ZM150.615 14.6623L150.833 14.7994L151.132 14.3228L150.576 14.4076L150.615 14.6623ZM140.925 16.1385L140.67 16.1772L140.709 16.432L140.964 16.3932L140.925 16.1385ZM140.642 14.2756L140.896 14.2369L140.896 14.2367L140.642 14.2756ZM140.357 12.4135L140.319 12.1588L140.064 12.1976L140.103 12.4524L140.357 12.4135ZM154.117 10.3189L154.155 10.5736L154.155 10.5736L154.117 10.3189ZM155.673 10.0819L155.917 9.99853L155.847 9.79479L155.634 9.82721L155.673 10.0819ZM156.182 11.5717L155.939 11.6551L160.338 24.5162L160.582 24.4328L160.826 24.3494L156.426 11.4883L156.182 11.5717ZM160.582 24.4328L160.499 24.1891L158.717 24.7994L158.8 25.0431L158.884 25.2868L160.666 24.6765L160.582 24.4328ZM158.8 25.0431L158.717 24.7993L156.935 25.4086L157.018 25.6524L157.101 25.8961L158.884 25.2869L158.8 25.0431ZM157.018 25.6524L157.262 25.5689L154.138 16.4403L153.894 16.5238L153.65 16.6072L156.774 25.7358L157.018 25.6524ZM153.894 16.5238L153.676 16.3868L152.577 18.1364L152.796 18.2734L153.014 18.4104L154.112 16.6607L153.894 16.5238ZM152.796 18.2734L152.577 18.1369L152.56 18.1636L152.779 18.3001L152.997 18.4366L153.014 18.4099L152.796 18.2734ZM152.779 18.3001L152.562 18.1606L152.546 18.1863L152.762 18.3258L152.979 18.4653L152.996 18.4396L152.779 18.3001ZM152.762 18.3258L152.549 18.1816C146.554 27.0621 138.818 38.4257 128.637 45.4596L128.784 45.6716L128.93 45.8836C139.204 38.7853 146.991 27.3358 152.976 18.4699L152.762 18.3258ZM128.784 45.6716L128.637 45.4596C123.514 48.9995 117.721 51.4802 111.179 51.9883L111.199 52.2452L111.219 52.502C117.871 51.9854 123.749 49.463 128.93 45.8836L128.784 45.6716ZM111.199 52.2452L111.179 51.9883C104.631 52.4968 97.4555 51.018 89.5887 46.8363L89.4678 47.0638L89.3469 47.2913C97.2864 51.5116 104.559 53.0192 111.219 52.502L111.199 52.2452ZM89.4678 47.0638L89.5887 46.8363C78.72 41.0591 67.463 42.4459 57.302 47.4688L57.4162 47.6997L57.5304 47.9307C67.5873 42.9592 78.6638 41.6127 89.3469 47.2913L89.4678 47.0638ZM57.4162 47.6997L57.302 47.4688C47.1079 52.5082 38.1514 61.159 32.1679 69.5862L32.3779 69.7354L32.588 69.8845C38.5343 61.5098 47.4295 52.924 57.5304 47.9307L57.4162 47.6997ZM32.3779 69.7354L32.5271 69.5253L29.4544 67.3435L29.3053 67.5536L29.1561 67.7637L32.2288 69.9454L32.3779 69.7354ZM29.3053 67.5536L29.5153 67.7028C35.7343 58.9439 45.0783 49.8836 55.8612 44.5532L55.747 44.3222L55.6328 44.0913C44.7567 49.4678 35.3515 58.5931 29.0952 67.4045L29.3053 67.5536ZM55.747 44.3222L55.8612 44.5532C66.6772 39.2065 79.0741 37.5648 91.1152 43.9653L91.2361 43.7378L91.357 43.5103C79.1301 37.011 66.5524 38.6934 55.6328 44.0913L55.747 44.3222ZM91.2361 43.7378L91.1152 43.9653C98.5231 47.9031 105.086 49.1997 110.927 48.7461L110.907 48.4893L110.887 48.2324C105.158 48.6773 98.6922 47.4094 91.357 43.5103L91.2361 43.7378ZM110.907 48.4893L110.927 48.7461C116.775 48.292 122.026 46.074 126.789 42.7836L126.642 42.5717L126.496 42.3597C121.791 45.6105 116.625 47.7868 110.887 48.2324L110.907 48.4893ZM126.642 42.5717L126.789 42.7836C136.371 36.1633 143.779 25.3569 149.833 16.3886L149.62 16.2445L149.406 16.1003C143.342 25.0834 135.985 35.8038 126.496 42.3597L126.642 42.5717ZM149.62 16.2445L149.838 16.3816L150.833 14.7994L150.615 14.6623L150.396 14.5252L149.402 16.1074L149.62 16.2445ZM150.615 14.6623L150.576 14.4076L140.886 15.8838L140.925 16.1385L140.964 16.3932L150.653 14.917L150.615 14.6623ZM140.925 16.1385L141.18 16.0998L140.896 14.2369L140.642 14.2756L140.387 14.3143L140.67 16.1772L140.925 16.1385ZM140.642 14.2756L140.896 14.2367L140.612 12.3746L140.357 12.4135L140.103 12.4524L140.387 14.3145L140.642 14.2756ZM140.357 12.4135L140.396 12.6682L154.155 10.5736L154.117 10.3189L154.078 10.0642L140.319 12.1588L140.357 12.4135ZM154.117 10.3189L154.155 10.5736L155.712 10.3366L155.673 10.0819L155.634 9.82721L154.078 10.0642L154.117 10.3189ZM155.673 10.0819L155.429 10.1653L155.939 11.655L156.182 11.5717L156.426 11.4883L155.917 9.99853L155.673 10.0819Z" fill="black"/>
<path d="M123.954 16.3819C131.751 27.074 125.566 40.8194 121.499 46.3556L119.628 46.8307L117.922 47.1901C110.991 36.0558 119.055 22.012 123.954 16.3819Z" fill="#00A47B"/>
<path d="M121.499 46.3556C125.566 40.8194 131.751 27.074 123.954 16.3819C119.055 22.012 110.991 36.0558 117.922 47.1901" stroke="#101828" stroke-width="0.515264" stroke-linecap="round"/>
<path d="M97.3684 16.1088C99.8279 29.3947 88.5421 38.8987 82.5918 41.9899L80.7251 41.5442L79.0533 41.0708C77.5522 27.7912 90.6379 18.8963 97.3684 16.1088Z" fill="#00A47B"/>
<path d="M82.5918 41.9899C88.5421 38.8987 99.8279 29.3947 97.3684 16.1088C90.6379 18.8963 77.5522 27.7912 79.0533 41.0708" stroke="#101828" stroke-width="0.515264" stroke-linecap="round"/>
<path d="M83.2098 37.182C85.1666 34.6759 87.9209 26.0402 95.5852 19.8828" stroke="black" stroke-width="0.515264"/>
<path d="M48.0359 23.5564C55.4942 34.5165 48.8875 48.046 44.6519 53.4407L42.7684 53.8511L41.0525 54.1514C34.4739 42.7791 42.967 29.0163 48.0359 23.5564Z" fill="#00A47B"/>
<path d="M44.6519 53.4407C48.8875 48.046 55.4942 34.5165 48.0359 23.5564C42.967 29.0163 34.4739 42.7791 41.0525 54.1514" stroke="#101828" stroke-width="0.515264" stroke-linecap="round"/>
<path d="M119.81 42.3551C119.75 40.0243 120.034 34.2342 121.657 29.7206C123.281 25.207 123.561 22.5175 123.498 21.7369" stroke="black" stroke-width="0.515264"/>
<path d="M43.0585 49.1226C43.0955 46.4071 43.5939 39.9344 45.2913 35.7681C46.9887 31.6018 47.6363 28.5125 47.7479 27.4886" stroke="black" stroke-width="0.515264"/>
</g>
<defs>
<filter id="filter0_f_10085_975" x="-21.2691" y="-3.62313" width="128.015" height="128.014" filterUnits="userSpaceOnUse" color-interpolation-filters="sRGB">
<feFlood flood-opacity="0" result="BackgroundImageFix"/>
<feBlend mode="normal" in="SourceGraphic" in2="BackgroundImageFix" result="shape"/>
<feGaussianBlur stdDeviation="17.6346" result="effect1_foregroundBlur_10085_975"/>
</filter>
<linearGradient id="paint0_linear_10085_975" x1="-11.1453" y1="-38.0506" x2="161.575" y2="14.1026" gradientUnits="userSpaceOnUse">
<stop offset="0.160747" stop-color="#2A81FE"/>
<stop offset="0.648338" stop-color="#C0E0FF"/>
<stop offset="0.850962" stop-color="#C0E0FF"/>
</linearGradient>
</defs>
</svg>
