<svg version="1.1" id="Layer_1" xmlns="http://www.w3.org/2000/svg" xmlns:xlink="http://www.w3.org/1999/xlink" x="0px" y="0px"
	 width="100%" viewBox="0 0 1024 1024" enable-background="new 0 0 1024 1024" xml:space="preserve">

<!-- ===== COLOR FILLS (behind outline paths) ===== -->

<!-- Yellow sunflower petals disk -->
<circle cx="512" cy="460" r="378" fill="#F5C200"/>

<!-- Green stem -->
<rect x="499" y="635" width="26" height="300" fill="#2E8050"/>

<!-- Green leaves (left and right, along stem) -->
<ellipse cx="445" cy="742" rx="94" ry="27" transform="rotate(-32 445 742)" fill="#2E8050"/>
<ellipse cx="579" cy="793" rx="94" ry="27" transform="rotate(32 579 793)" fill="#2E8050"/>

<!-- Brown bear face -->
<ellipse cx="512" cy="470" rx="183" ry="173" fill="#9B6845"/>

<!-- Brown outer ears -->
<circle cx="648" cy="354" r="44" fill="#9B6845"/>
<circle cx="378" cy="352" r="44" fill="#9B6845"/>

<!-- Light inner ears -->
<circle cx="651" cy="351" r="24" fill="#C49570"/>
<circle cx="377" cy="352" r="22" fill="#C49570"/>

<!-- Beige muzzle -->
<ellipse cx="512" cy="511" rx="73" ry="86" fill="#D4AA7C"/>

<!-- ===== OUTLINE PATHS (fill changed to dark navy-green) ===== -->

<path fill="#1A2D28" opacity="1.000000" stroke="none"
	d="
M722.333679,544.380859
	C720.799377,544.275024 719.643433,544.183472 717.650269,544.025574
	C725.633850,549.920715 732.822388,555.672424 738.909485,562.653320
	C756.007690,582.262268 765.075012,605.352234 768.184753,630.907776
	C771.030518,654.293762 768.993896,677.399414 763.605164,700.293518
	C762.656555,704.323914 760.531311,706.304077 756.754578,707.134583
	C732.850403,712.391296 708.770935,714.096558 684.349548,711.600159
	C663.075195,709.425476 643.330933,703.236084 625.562866,691.175781
	C617.372620,685.616394 610.396545,678.699646 603.671448,671.501892
	C602.573914,670.327148 601.800293,668.729736 599.950684,668.294312
	C598.753967,669.598938 599.267944,671.181580 599.424866,672.544250
	C603.276978,705.993042 591.424744,734.304871 570.945801,759.787537
	C560.438599,772.862061 547.979797,783.905823 534.617432,793.933167
	C531.483826,796.284790 530.198792,798.863708 530.252380,802.758789
	C530.431335,815.755554 530.288757,828.756592 530.334167,841.755737
	C530.339600,843.320984 529.727539,845.140320 531.464417,846.364929
	C533.612061,846.336182 533.984375,844.413208 534.812683,843.098755
	C556.244263,809.085815 587.496155,789.747192 626.362122,781.790405
	C642.122864,778.563782 657.992065,777.935669 674.036560,779.280579
	C682.874817,780.021362 682.192566,783.790100 681.037354,789.604187
	C677.955139,805.116516 672.154419,819.615051 663.271423,832.746948
	C640.851562,865.890808 609.688171,885.173035 570.247803,891.554932
	C559.304565,893.325684 548.368835,893.341797 537.381165,893.372009
	C531.223999,893.388916 530.360046,894.250183 530.338928,900.236877
	C530.316589,906.569702 530.441101,912.903931 530.347961,919.235291
	C530.282166,923.710083 532.370056,925.436707 536.758362,925.437866
	C587.729736,925.451294 638.701233,925.522827 689.672424,925.668823
	C693.187256,925.678894 698.368652,924.174133 698.186401,930.294312
	C698.019531,935.897339 693.270630,934.440063 689.777649,934.474548
	C576.460144,935.594238 463.140106,934.670715 349.821411,934.865112
	C344.494415,934.874268 339.167816,934.496094 333.839294,934.420471
	C330.595734,934.374512 327.460052,934.003540 327.421936,929.930115
	C327.381744,925.640503 330.749969,925.658752 333.870667,925.657654
	C376.868530,925.642151 419.866455,925.635864 462.864288,925.587646
	C471.193054,925.578308 479.521423,925.375061 487.850342,925.308105
	C492.882477,925.267639 495.000366,922.767700 494.877075,917.784119
	C494.724609,911.622375 494.676910,905.442566 494.980804,899.290161
	C495.202454,894.803284 493.814056,893.031067 489.056763,893.262695
	C473.865631,894.002258 458.865234,892.695435 443.934509,889.403687
	C394.534668,878.512573 353.691223,836.507507 345.025726,787.186218
	C344.175720,782.348267 345.489227,780.293823 350.455475,779.675842
	C375.740936,776.529480 400.272278,779.935242 424.049225,788.795349
	C452.106476,799.250549 474.646240,816.672607 490.492401,842.344177
	C490.925598,843.045959 491.463531,843.699951 492.041809,844.288696
	C492.364685,844.617249 492.871674,844.764893 493.331085,845.013245
	C495.609711,843.936035 494.913116,841.860840 494.919586,840.199158
	C494.968231,827.700256 494.778259,815.198792 494.975098,802.703064
	C495.040253,798.568176 493.517334,795.929626 490.254395,793.539856
	C470.962097,779.410645 454.500885,762.548645 442.165314,741.960938
	C429.096039,720.148682 423.413910,696.585754 426.376282,671.145142
	C426.491547,670.155396 426.516571,669.151489 426.516571,668.154175
	C426.516571,667.877869 426.274811,667.601624 425.950287,666.916382
	C420.116913,673.485840 414.355682,679.855042 407.657349,685.339722
	C388.874115,700.719666 367.131989,708.594299 343.298370,711.383118
	C318.756012,714.254822 294.467224,712.532593 270.368683,707.336609
	C266.614136,706.527039 263.543671,705.315430 262.502716,700.890259
	C253.931671,664.454102 252.892105,628.380066 267.647644,593.106628
	C275.336487,574.726257 287.298798,559.570435 303.252594,547.597351
	C304.697540,546.513000 306.154785,545.445007 308.316833,543.842834
	C293.826965,545.762634 280.158875,546.307922 266.539307,543.744751
	C241.120804,538.961060 220.157379,525.796936 201.383224,508.709564
	C187.647629,496.208069 175.695572,482.152069 165.422668,466.634155
	C162.441269,462.130585 162.192581,458.449402 165.280289,453.891815
	C182.759766,428.090881 203.063965,405.217010 230.549347,389.603302
	C253.854889,376.363983 278.715607,371.866791 305.312653,376.530243
	C305.435150,374.888489 304.070953,374.633972 303.309845,374.043549
	C275.817017,352.717377 261.312531,324.346130 257.613495,290.070770
	C255.049927,266.316772 256.919678,242.899658 262.841736,219.784683
	C263.680237,216.511917 264.675537,213.512009 268.747131,212.588989
	C303.079834,204.805878 337.283264,203.282669 371.258606,214.416306
	C392.296600,221.310379 409.449097,233.755859 423.174194,251.040558
	C424.080261,252.181564 425.036469,253.282730 426.783661,255.379791
	C426.379883,250.479172 425.938660,246.770050 425.788849,243.049179
	C424.450989,209.812683 436.587494,181.475433 457.905090,156.754929
	C471.365051,141.146362 487.115387,128.091339 504.614990,117.104210
	C510.254547,113.563408 514.964722,113.524673 520.641968,117.122437
	C539.373657,128.993027 556.124084,143.049988 570.270386,160.159821
	C593.144165,187.825470 603.517517,219.234558 598.237610,256.215607
	C612.006104,237.451904 628.770630,224.230835 649.436768,216.059311
	C663.350342,210.557770 677.912048,207.812057 692.726868,206.887436
	C713.429749,205.595306 733.965454,207.394989 754.266418,211.841110
	C759.010925,212.880203 761.678284,215.101959 762.869873,220.071472
	C771.601379,256.486725 772.494019,292.546631 758.361572,327.942291
	C750.748596,347.009552 737.806091,362.042999 721.846680,374.652802
	C721.364624,375.033661 720.876587,375.406799 719.282715,376.644318
	C738.934143,373.265656 757.026550,374.240173 774.660767,380.233337
	C799.316345,388.612885 818.979797,404.287476 836.409424,423.114227
	C845.489441,432.921967 853.394958,443.645111 860.856934,454.711731
	C863.054993,457.971619 864.145386,461.078308 861.625671,464.810883
	C840.578674,495.989044 815.302979,522.452881 780.034973,537.620361
	C761.658997,545.523193 742.386169,546.924072 722.333679,544.380859
M677.559692,439.918762
	C675.498169,430.985413 673.007751,422.179596 669.675903,413.628326
	C666.624207,405.796112 666.650452,405.686462 673.808411,401.421387
	C694.715698,388.963745 705.737915,366.738953 701.282471,344.950256
	C696.479614,321.462402 682.312378,306.118408 658.921997,300.871857
	C635.690674,295.660980 616.661682,303.557404 602.402588,322.670502
	C597.578003,329.137451 596.853699,329.357513 589.701111,325.741394
	C567.838074,314.688232 544.604675,308.510773 520.196716,307.489563
	C490.701019,306.255554 462.621277,312.343719 436.215912,325.741516
	C428.590607,329.610504 428.323914,329.440491 423.216583,322.662415
	C409.454468,304.398407 391.275604,296.510406 368.581604,300.358521
	C336.333313,305.826721 316.199615,339.451050 326.117126,370.598846
	C330.735687,385.104340 340.273590,395.278534 353.369202,402.365021
	C357.725891,404.722595 358.649719,407.333923 356.747406,412.071014
	C347.760406,434.450287 343.478668,457.678925 345.116760,481.872192
	C347.517456,517.328247 359.072266,549.343933 382.384460,576.354675
	C424.359406,624.989014 477.718903,644.579895 541.066162,635.171326
	C576.295166,629.939148 606.853088,613.982239 632.020630,588.592041
	C672.917603,547.333252 687.338196,497.717957 677.559692,439.918762
M437.305450,260.310944
	C440.302612,275.550568 446.621552,289.384430 454.688354,302.573303
	C456.955505,306.279999 459.080109,307.148163 463.162811,305.758423
	C475.189209,301.664795 487.676910,299.593475 500.319855,298.771759
	C508.522247,298.238678 508.565613,298.539734 508.573547,290.316681
	C508.595520,267.498810 508.591583,244.680923 508.614502,221.863068
	C508.615997,220.368576 508.602203,218.845306 508.873566,217.387177
	C509.205933,215.601471 510.412354,214.385895 512.255249,214.177856
	C514.072754,213.972687 515.428772,214.925278 516.423950,216.412018
	C517.420654,217.900986 517.275269,219.598724 517.277466,221.253662
	C517.291321,231.919525 517.280823,242.585449 517.283081,253.251343
	C517.285950,266.750366 517.287292,280.249420 517.304626,293.748444
	C517.307617,296.073029 516.927368,298.587158 520.557983,298.658112
	C535.638428,298.952698 550.283020,301.875977 564.661743,306.249176
	C567.437683,307.093445 569.005676,306.163635 570.289734,303.703918
	C572.368896,299.720947 574.870178,295.954865 576.886719,291.943176
	C590.734131,264.395599 595.433899,235.751129 585.601746,205.936707
	C573.587585,169.505646 547.169678,145.129135 516.143860,124.818184
	C513.222595,122.905815 510.800049,123.955711 508.317017,125.556725
	C485.219757,140.449463 465.094055,158.371857 450.739655,182.151321
	C436.243500,206.165573 431.877167,231.972092 437.305450,260.310944
M235.793243,522.661011
	C269.719025,542.005188 304.104767,540.320557 338.843689,525.023438
	C342.473633,523.424988 343.251556,521.316528 342.206726,517.551208
	C339.224518,506.804199 337.343231,495.871155 336.453644,484.698730
	C335.944000,478.297791 336.085846,471.854950 335.667175,465.067688
	C333.357941,465.067688 331.544037,465.066528 329.730133,465.067871
	C310.571960,465.082062 291.413818,465.104980 272.255646,465.096527
	C270.599762,465.095795 268.898468,465.089508 267.299255,464.727783
	C265.156433,464.243134 263.843292,462.788391 263.795258,460.460022
	C263.744812,458.016998 265.186859,456.759308 267.392914,456.424744
	C269.357086,456.126862 271.366577,456.017517 273.356293,456.015076
	C292.681030,455.991455 312.006165,455.948944 331.330292,456.063965
	C335.064789,456.086182 337.345490,455.200714 337.661926,450.998718
	C338.631012,438.130463 341.893127,425.765442 346.574432,413.790436
	C347.693970,410.926605 347.330719,409.325745 344.750183,407.601135
	C339.211151,403.899536 333.783081,399.977997 329.504517,394.776123
	C327.733856,392.623352 325.574036,391.262726 323.012268,390.343353
	C295.203217,380.363464 267.829773,381.000885 241.131424,394.080383
	C212.248520,408.230103 191.587830,431.253571 173.734726,457.236572
	C172.286591,459.344177 172.446396,461.100647 173.832367,463.155884
	C190.070801,487.235168 210.058151,507.411713 235.793243,522.661011
M746.743530,383.988525
	C730.659546,382.483215 715.301331,385.610901 700.336182,391.254181
	C698.721741,391.863007 697.521362,392.992462 696.427673,394.274078
	C692.176819,399.255371 687.308655,403.564789 681.700745,406.919525
	C678.723877,408.700378 678.085815,410.501434 679.387451,413.831268
	C683.884583,425.336395 686.953186,437.282593 688.154663,449.569366
	C688.638916,454.521393 690.417114,456.082306 695.265869,456.028900
	C714.758118,455.814148 734.253967,455.895844 753.748352,455.938232
	C757.311096,455.945984 762.089783,455.184357 762.024719,460.542816
	C761.961670,465.736023 757.282898,465.149780 753.667725,465.157684
	C734.173340,465.200317 714.678711,465.230072 695.184448,465.160645
	C691.820923,465.148682 689.935486,465.831451 689.988403,469.840210
	C690.209290,486.577423 687.844666,503.019928 683.410522,519.137817
	C682.539001,522.305603 683.524841,523.557251 686.265747,524.784912
	C695.728638,529.023438 705.500793,532.290527 715.635803,534.379883
	C720.654541,535.414551 725.339233,535.292419 730.594727,533.179016
	C737.825989,530.271179 745.983215,528.119324 753.459351,533.716797
	C755.066284,534.919922 756.962036,534.814941 758.752258,534.390686
	C767.341919,532.355347 775.827332,530.058167 783.750671,525.959351
	C811.361816,511.675812 832.578857,490.421204 850.339478,465.330200
	C852.762390,461.907227 852.857849,458.885132 850.389648,455.334229
	C840.366882,440.915497 829.266541,427.463623 816.135681,415.742279
	C796.518005,398.230682 774.489380,385.966278 746.743530,383.988525
M362.850983,698.367676
	C398.781067,687.842957 422.353333,664.109924 436.677155,630.148560
	C435.633606,629.355469 435.158508,628.860962 434.580353,628.574341
	C417.273132,619.994751 401.582703,609.113892 387.894867,595.461609
	C385.267517,592.841064 383.770599,594.081726 381.794006,596.066284
	C369.799530,608.109131 357.743652,620.090942 345.697723,632.082520
	C344.637512,633.138000 343.578369,634.221191 342.382202,635.107300
	C340.597839,636.429199 338.659302,636.704407 336.969116,634.953430
	C335.363159,633.289673 335.328857,631.292480 336.591858,629.469788
	C337.626923,627.975952 338.927307,626.646973 340.217499,625.351929
	C352.091858,613.432922 363.976562,601.524231 375.894867,589.649170
	C377.672943,587.877563 379.120544,586.399292 376.893799,583.811523
	C365.168060,570.184692 356.035889,554.938721 349.062103,538.395325
	C347.812927,535.431946 346.097229,535.007507 343.155273,536.070435
	C310.214142,547.972229 285.988464,569.003052 273.631287,602.401184
	C262.877228,631.466614 263.761749,661.087341 269.408600,691.006470
	C270.468628,696.622925 273.179688,698.765808 278.374420,699.690735
	C306.358337,704.673096 334.255341,705.653870 362.850983,698.367676
M688.268738,538.301758
	C686.082764,537.494507 683.863281,536.766602 681.719421,535.859802
	C679.090210,534.747742 677.682312,535.788086 676.728149,538.225342
	C670.295044,554.657837 661.024109,569.403137 649.722046,582.873413
	C647.438293,585.595276 647.855652,587.367310 650.125183,589.621277
	C657.920532,597.363525 665.601074,605.221252 673.354248,613.006165
	C678.406860,618.079407 683.565857,623.047852 688.561035,628.176331
	C690.459229,630.125183 691.234009,632.622498 689.165771,634.887451
	C687.021362,637.235840 684.667419,636.340271 682.529419,634.592590
	C681.885742,634.066528 681.254822,633.518066 680.669128,632.929016
	C671.514954,623.720947 662.335205,614.537964 653.236938,605.274780
	C649.297485,601.263916 645.530396,597.083740 641.662109,592.956055
	C639.972961,594.166809 639.106934,594.649170 638.408264,595.308838
	C624.521545,608.420532 609.323730,619.694702 592.080078,628.022583
	C588.899841,629.558533 589.710999,631.447815 590.681885,633.689148
	C594.206177,641.824463 598.744690,649.379028 603.839844,656.610535
	C608.232971,662.845703 608.428711,662.825134 615.953735,660.497681
	C617.652222,659.972351 619.571899,660.101379 621.393188,660.049744
	C623.562744,659.988098 625.825073,660.183960 627.740295,659.044922
	C632.744812,656.068481 637.323425,657.725830 641.937805,660.012268
	C651.103210,664.553894 659.039551,670.996155 667.071777,677.122864
	C672.034180,680.908020 676.911865,682.935730 682.957581,683.085571
	C687.842102,683.206665 692.411926,684.240417 696.287964,687.762817
	C709.472778,699.744873 725.074768,701.106506 741.670349,697.632751
	C745.855286,696.756714 750.028320,695.856506 754.578491,696.860413
	C756.578247,690.940613 757.419617,685.024109 758.184326,679.134583
	C761.164490,656.183533 761.275940,633.293884 754.839233,610.849243
	C744.836182,575.968689 722.144409,552.450928 688.268738,538.301758
M269.402893,231.831924
	C266.496552,248.577271 264.725922,265.313110 266.042480,282.428650
	C268.040344,308.400604 275.556427,331.949890 292.969788,351.824890
	C299.876068,359.707458 307.548553,366.638916 317.020233,372.566315
	C310.170837,342.716919 319.056305,319.173859 342.913422,301.082031
	C340.509247,298.399506 338.429993,296.266846 336.576843,293.953094
	C335.067139,292.068146 334.868195,289.938568 336.720520,288.090515
	C338.585632,286.229736 340.637817,286.469269 342.532898,288.059906
	C343.931854,289.234131 345.357910,290.443634 346.478912,291.868042
	C349.328674,295.488983 352.426422,296.088104 356.929871,294.549408
	C384.462708,285.141998 410.257538,292.435699 428.663818,314.825623
	C432.121674,319.031830 434.738403,316.021942 437.778809,314.941437
	C440.911469,313.828278 442.396881,312.044647 441.133484,308.488159
	C438.907410,302.221710 437.251465,295.738098 434.785034,289.574158
	C421.678741,256.819733 399.975006,232.633179 365.447083,221.944336
	C338.313080,213.544434 310.762665,214.131027 282.986725,218.779968
	C275.211853,220.081268 269.663788,222.092728 269.402893,231.831924
M753.385071,314.877808
	C762.336365,285.259521 761.226501,255.490524 754.844666,225.610535
	C754.164734,222.427307 752.828064,220.819885 749.466492,220.150558
	C724.608032,215.200882 699.685242,213.705002 674.623413,218.349228
	C649.550354,222.995529 628.242615,234.344574 611.646606,254.025040
	C598.617004,269.476227 590.329407,287.277527 585.259827,306.702087
	C584.527710,309.507294 582.665344,312.701904 586.731201,314.406464
	C590.421753,315.953705 593.606628,318.775970 597.890259,313.763367
	C615.563293,293.082520 638.174744,285.881592 664.314941,293.227203
	C672.152039,295.429535 677.562256,296.212524 682.410217,288.968170
	C683.845032,286.823975 686.413757,285.712524 688.845337,288.110229
	C691.087402,290.320984 690.356506,292.553040 688.718933,294.812225
	C687.181458,296.933380 684.501343,298.131714 683.581360,301.486145
	C706.312927,319.019684 715.405579,342.142456 709.276184,370.681519
	C712.077759,371.028381 713.329102,369.508759 714.756897,368.464630
	C733.211243,354.968933 745.948608,337.319611 753.385071,314.877808
M559.693298,640.366699
	C547.788513,643.602295 535.735657,646.063171 523.363647,646.264771
	C518.584106,646.342712 517.148376,648.196960 517.220764,652.912170
	C517.471313,669.228577 517.310791,685.551392 517.292053,701.871765
	C517.290344,703.367249 517.371155,704.899780 517.083801,706.349670
	C516.617432,708.702820 515.171997,710.287415 512.605408,710.199524
	C509.986450,710.109741 508.807831,708.398376 508.594757,705.958496
	C508.493744,704.801880 508.574188,703.629272 508.574768,702.463867
	C508.582794,686.159302 508.532440,669.854309 508.639343,653.550354
	C508.667419,649.266724 507.581543,646.499817 502.645538,646.332520
	C484.682404,645.723694 467.414703,641.663696 450.692566,635.255859
	C447.337097,633.970032 445.726654,635.034790 444.551270,637.990967
	C438.283447,653.755188 434.222107,669.905762 435.159851,687.080139
	C435.671906,696.458313 442.564697,701.158752 448.651794,706.481750
	C450.371674,707.985718 452.605133,708.051758 454.788696,707.067749
	C459.199921,705.079712 462.176453,707.448853 464.616852,710.647827
	C466.333405,712.897949 467.161652,715.656128 468.134277,718.330994
	C469.750427,722.775757 471.974091,726.703552 476.915466,728.523682
	C487.078522,732.267456 497.476379,735.218567 507.861969,738.232422
	C512.425537,739.556885 516.755493,739.151794 520.885132,736.813538
	C524.069580,735.010498 527.099854,732.870911 530.429688,731.406250
	C534.237244,729.731506 538.595642,728.164246 541.745972,732.355103
	C544.196960,735.615662 546.635254,737.997803 550.832153,736.173340
	C554.092407,734.756104 555.037292,730.086243 553.154663,725.517334
	C551.408569,721.279907 548.184998,718.055786 545.166382,714.757935
	C542.554993,711.905090 541.777344,708.915283 542.682739,705.142639
	C544.294739,698.426270 549.526672,694.917175 554.907043,692.233826
	C560.750488,689.319519 567.239807,688.893799 573.910278,690.365784
	C583.998596,692.591919 591.364685,686.250183 590.612610,676.097778
	C589.608765,662.547791 585.924438,649.619507 580.749084,637.082275
	C579.638367,634.391602 578.080200,634.238464 575.628296,635.124573
	C570.627441,636.932068 565.540649,638.501892 559.693298,640.366699
z"/>
<path fill="#1A2D28" opacity="1.000000" stroke="none"
	d="
M457.754791,461.825317
	C464.850647,449.111694 473.455139,438.137695 485.680084,430.605988
	C507.686615,417.047913 534.737549,421.384796 552.741150,441.405487
	C574.107483,465.165741 585.840210,493.659912 590.941284,524.711121
	C594.895142,548.778870 585.536621,568.005005 565.534973,582.119019
	C536.005493,602.956238 490.993225,603.388245 461.348328,582.926514
	C438.098480,566.878784 429.825287,545.194092 436.080627,516.760071
	C440.337982,497.408112 447.774750,479.312103 457.754791,461.825317
M470.284760,458.768127
	C457.204590,479.164795 447.612122,500.986389 443.815308,525.056213
	C441.019867,542.777893 445.823303,558.073608 459.572510,570.040955
	C487.787598,594.599487 534.455139,595.687744 563.588989,572.239319
	C578.133850,560.532837 584.753052,545.459045 582.049316,526.438538
	C579.043396,505.292358 570.876221,486.114624 560.815186,467.605988
	C555.940186,458.637695 549.792419,450.552490 542.163879,443.657837
	C526.138672,429.174286 505.945404,427.687927 488.085297,439.761261
	C480.924072,444.602264 475.524109,451.124878 470.284760,458.768127
z"/>
<path fill="#1A2D28" opacity="1.000000" stroke="none"
	d="
M651.024658,321.696869
	C665.921570,324.602539 675.460815,333.059753 678.633850,347.492554
	C681.619080,361.071289 677.569153,372.759766 666.872253,381.951019
	C659.631042,388.172882 656.236572,387.829590 650.884766,380.212341
	C642.132446,367.755127 631.873901,356.710785 619.986389,347.179016
	C614.835266,343.048645 614.398987,340.772766 618.364258,335.521881
	C626.435181,324.834229 637.255432,320.229218 651.024658,321.696869
M648.697693,362.824402
	C651.479614,366.347168 654.286499,369.850555 657.033875,373.400055
	C658.672791,375.517487 660.175354,375.805634 662.394775,373.926788
	C672.323853,365.521332 673.386230,348.511749 664.483337,338.317505
	C655.797302,328.371582 639.573914,327.251373 629.877258,335.927948
	C625.710632,339.656311 625.651611,340.449371 629.939270,343.941132
	C636.677063,349.428253 642.502441,355.805084 648.697693,362.824402
z"/>
<path fill="#1A2D28" opacity="1.000000" stroke="none"
	d="
M406.023743,334.065308
	C411.499969,341.754395 411.502380,342.473145 404.714722,348.083374
	C392.722229,357.995575 382.183655,369.209106 373.486481,382.135040
	C370.075287,387.204803 367.492157,387.814880 362.360352,384.263855
	C351.141876,376.500977 344.911713,365.802124 346.328766,352.041565
	C347.843384,337.333588 355.900269,326.867340 370.355408,322.754791
	C384.249664,318.801819 396.226562,322.880676 406.023743,334.065308
M355.254883,355.481842
	C355.016266,362.585907 358.004486,368.290009 362.764496,373.329834
	C365.436493,376.158905 367.402100,375.710846 369.478302,372.686920
	C371.448944,369.816833 373.558746,367.024231 375.805511,364.364990
	C382.979645,355.873810 390.773987,347.974945 399.185089,340.847565
	C394.061127,331.039337 382.869507,328.768860 374.018982,330.646362
	C362.954865,332.993408 355.678497,342.542023 355.254883,355.481842
z"/>
<path fill="#1A2D28" opacity="1.000000" stroke="none"
	d="
M591.999756,420.271301
	C599.961182,420.887115 605.267334,424.515045 607.554749,431.916016
	C609.525574,438.292450 607.651428,443.794464 603.016724,448.313202
	C598.422791,452.792267 590.457642,453.816498 584.850525,450.955627
	C579.054321,447.998260 575.162537,441.122253 575.773804,434.918854
	C576.405273,428.510468 581.377258,422.597137 587.655762,420.894806
	C588.932983,420.548523 590.283325,420.471924 591.999756,420.271301
z"/>
<path fill="#1A2D28" opacity="1.000000" stroke="none"
	d="
M449.212646,433.472626
	C449.635040,445.034790 443.637695,452.256287 433.859894,452.453247
	C425.855133,452.614471 418.979736,447.153931 417.788513,439.689087
	C416.394073,430.950775 420.554962,423.650391 428.357971,421.144806
	C435.953979,418.705658 444.205994,422.154266 447.777740,429.318848
	C448.365265,430.497345 448.703613,431.800018 449.212646,433.472626
z"/>
<path fill="#1A2D28" opacity="1.000000" stroke="none"
	d="
M488.243134,487.960907
	C503.585419,482.917969 518.847839,483.378448 533.894165,486.748047
	C544.678833,489.163239 547.555237,496.854919 542.308960,506.612976
	C538.082520,514.474243 531.462952,520.010437 523.719482,524.231873
	C516.632568,528.095337 515.330933,535.661072 520.748840,542.028687
	C526.802307,549.143250 538.752502,549.728088 545.920349,543.207947
	C547.144836,542.094116 548.176819,540.765503 549.273132,539.514465
	C551.112488,537.415588 553.286621,536.291138 555.828552,538.065735
	C558.668823,540.048645 558.142883,542.818359 556.442139,545.105835
	C551.664856,551.531372 545.337646,555.686523 537.220703,556.290344
	C527.002319,557.050598 524.400208,555.967041 512.775513,547.408813
	C507.416962,552.667786 501.121826,556.403198 493.189484,556.569702
	C483.539337,556.772278 475.659821,553.259583 469.781433,545.573547
	C468.131653,543.416321 466.616272,540.836609 469.386353,538.503967
	C472.175079,536.155579 474.670929,537.403198 476.699005,539.881714
	C481.084595,545.241272 486.511047,548.216980 493.632629,547.682190
	C500.080933,547.198120 506.019562,542.724854 507.813416,536.828125
	C509.887451,530.010376 508.945862,527.906189 502.669373,524.625488
	C493.737457,519.956787 486.274963,513.754272 482.461700,504.079895
	C479.515533,496.605377 481.071594,492.291290 488.243134,487.960907
z"/>
</svg>
