<svg xmlns="http://www.w3.org/2000/svg" viewBox="0 0 80 84" fill="none">

  <!-- 8 sunflower petals around center (40,40) -->
  <path d="M40,40 C31,41 35,20 40,19 C45,20 49,41 40,40" fill="#F5C200" stroke="#1A2D28" stroke-width="1.1" transform="rotate(0,40,40)"/>
  <path d="M40,40 C31,41 35,20 40,19 C45,20 49,41 40,40" fill="#F5C200" stroke="#1A2D28" stroke-width="1.1" transform="rotate(45,40,40)"/>
  <path d="M40,40 C31,41 35,20 40,19 C45,20 49,41 40,40" fill="#F5C200" stroke="#1A2D28" stroke-width="1.1" transform="rotate(90,40,40)"/>
  <path d="M40,40 C31,41 35,20 40,19 C45,20 49,41 40,40" fill="#F5C200" stroke="#1A2D28" stroke-width="1.1" transform="rotate(135,40,40)"/>
  <path d="M40,40 C31,41 35,20 40,19 C45,20 49,41 40,40" fill="#F5C200" stroke="#1A2D28" stroke-width="1.1" transform="rotate(180,40,40)"/>
  <path d="M40,40 C31,41 35,20 40,19 C45,20 49,41 40,40" fill="#F5C200" stroke="#1A2D28" stroke-width="1.1" transform="rotate(225,40,40)"/>
  <path d="M40,40 C31,41 35,20 40,19 C45,20 49,41 40,40" fill="#F5C200" stroke="#1A2D28" stroke-width="1.1" transform="rotate(270,40,40)"/>
  <path d="M40,40 C31,41 35,20 40,19 C45,20 49,41 40,40" fill="#F5C200" stroke="#1A2D28" stroke-width="1.1" transform="rotate(315,40,40)"/>

  <!-- Left ear -->
  <circle cx="29" cy="28" r="6.5" fill="#9B6845" stroke="#1A2D28" stroke-width="1.1"/>
  <circle cx="29" cy="28.5" r="3.8" fill="#C49570"/>
  <!-- Right ear -->
  <circle cx="51" cy="28" r="6.5" fill="#9B6845" stroke="#1A2D28" stroke-width="1.1"/>
  <circle cx="51" cy="28.5" r="3.8" fill="#C49570"/>

  <!-- Bear face -->
  <ellipse cx="40" cy="40" rx="16" ry="15" fill="#9B6845" stroke="#1A2D28" stroke-width="1.3"/>
  <!-- Muzzle -->
  <ellipse cx="40" cy="45" rx="7" ry="8" fill="#D4AA7C"/>
  <!-- Left eye -->
  <circle cx="33" cy="36" r="2.2" fill="#1A2D28"/>
  <circle cx="33.8" cy="35.2" r="0.85" fill="white"/>
  <!-- Right eye -->
  <circle cx="47" cy="36" r="2.2" fill="#1A2D28"/>
  <circle cx="47.8" cy="35.2" r="0.85" fill="white"/>
  <!-- Nose -->
  <ellipse cx="40" cy="42" rx="1.8" ry="1.4" fill="#1A2D28"/>

  <!-- BAR CHART (ascending left to right) -->
  <!-- Chart floor -->
  <rect x="18" y="79" width="44" height="2" rx="1" fill="#1A2D28"/>
  <!-- Bar 1 — short, leftmost -->
  <rect x="20" y="72" width="10" height="7" rx="1.5" fill="#7DCFB6" stroke="#1A2D28" stroke-width="0.9"/>
  <!-- Bar 2 — medium -->
  <rect x="34" y="67" width="10" height="12" rx="1.5" fill="#4BAF94" stroke="#1A2D28" stroke-width="0.9"/>
  <!-- Bar 3 — tallest, rightmost -->
  <rect x="48" y="61" width="10" height="18" rx="1.5" fill="#2A6B58" stroke="#1A2D28" stroke-width="0.9"/>
  <!-- Upward arrow on tallest bar -->
  <path d="M53,59 L53,55 M51,57 L53,54.5 L55,57" stroke="#F5C200" stroke-width="1.8" stroke-linecap="round" stroke-linejoin="round" fill="none"/>

</svg>
