<svg width="560" height="394" viewBox="0 0 560 394" fill="none" xmlns="http://www.w3.org/2000/svg">
<g clip-path="url(#clip0_8823_12444)">
<path d="M0 10C0 4.47716 4.47715 0 10 0H550C555.523 0 560 4.47715 560 10V384C560 389.523 555.523 394 550 394H10C4.47715 394 0 389.523 0 384V10Z" fill="url(#paint0_linear_8823_12444)"/>
<g opacity="0.6">
<path d="M272.26 170.522L246.349 3.41386L298.171 3.41386L272.26 170.522Z" fill="url(#paint1_linear_8823_12444)"/>
<path d="M272.26 170.523L331.387 10.0793L378.077 29.8471L272.26 170.523Z" fill="url(#paint2_linear_8823_12444)"/>
<path d="M272.259 170.522L404.713 48.5216L437.024 84.1419L272.259 170.522Z" fill="url(#paint3_linear_8823_12444)"/>
<path d="M272.26 170.522L451.807 111.128L463.338 155.545L272.26 170.522Z" fill="url(#paint4_linear_8823_12444)"/>
<path d="M272.259 170.522L463.338 185.498L451.806 229.916L272.259 170.522Z" fill="url(#paint5_linear_8823_12444)"/>
<path d="M272.26 170.522L437.025 256.903L404.714 292.523L272.26 170.522Z" fill="url(#paint6_linear_8823_12444)"/>
<path d="M272.259 170.523L378.076 311.199L331.386 330.966L272.259 170.523Z" fill="url(#paint7_linear_8823_12444)"/>
<path d="M272.26 170.522L298.171 337.631L246.348 337.631L272.26 170.522Z" fill="url(#paint8_linear_8823_12444)"/>
<path d="M272.259 170.522L213.133 330.965L166.442 311.198L272.259 170.522Z" fill="url(#paint9_linear_8823_12444)"/>
<path d="M272.26 170.522L139.806 292.523L107.496 256.903L272.26 170.522Z" fill="url(#paint10_linear_8823_12444)"/>
<path d="M272.259 170.523L92.7127 229.917L81.1811 185.5L272.259 170.523Z" fill="url(#paint11_linear_8823_12444)"/>
<path d="M272.26 170.523L81.182 155.547L92.7136 111.129L272.26 170.523Z" fill="url(#paint12_linear_8823_12444)"/>
<path d="M272.259 170.522L107.495 84.142L139.806 48.5217L272.259 170.522Z" fill="url(#paint13_linear_8823_12444)"/>
<path d="M272.26 170.522L166.443 29.8461L213.133 10.0783L272.26 170.522Z" fill="url(#paint14_linear_8823_12444)"/>
</g>
<circle cx="241.959" cy="190.911" r="8.3774" transform="rotate(17.5757 241.959 190.911)" fill="#E7A200" stroke="#101828" stroke-width="0.6"/>
<path opacity="0.1" d="M239.425 198.895C242.844 199.978 246.443 198.754 248.539 196.092C246.681 196.989 244.491 197.205 242.37 196.533C237.959 195.136 235.516 190.428 236.913 186.017C237.227 185.026 237.708 184.134 238.316 183.363C236.311 184.33 234.693 186.09 233.968 188.379C232.571 192.79 235.014 197.498 239.425 198.895Z" fill="#101828"/>
<path d="M335.868 190.397C327.659 213.265 316.609 231.57 317.028 231.591C317.028 231.591 309.138 212.304 317.343 189.442C325.551 166.574 336.601 148.269 336.182 148.247C336.605 148.269 344.072 167.534 335.868 190.397Z" fill="#2DA17D" stroke="#101828" stroke-width="0.6" stroke-linejoin="round"/>
<path d="M316.918 231.216C316.918 231.216 320.232 204.729 328.146 184.536C336.06 164.344 336.184 148.25 336.184 148.25" fill="#2DA17D"/>
<path d="M316.918 231.216C316.918 231.216 320.232 204.729 328.146 184.536C336.06 164.344 336.184 148.25 336.184 148.25" stroke="#101828" stroke-width="0.6"/>
<ellipse cx="4.8546" cy="20.7007" rx="4.8546" ry="20.7007" transform="matrix(-0.996271 0.0862837 0.0862837 0.996271 306.223 209.733)" fill="#FECC2F" stroke="#101828" stroke-width="0.6"/>
<ellipse cx="309.031" cy="230.935" rx="4.8546" ry="20.7007" transform="rotate(8.08107 309.031 230.935)" fill="#FECC2F" stroke="#101828" stroke-width="0.6"/>
<ellipse cx="306.117" cy="230.307" rx="4.8546" ry="20.7007" transform="rotate(1.56561 306.117 230.307)" fill="#FFEAB4" stroke="#101828" stroke-width="0.6"/>
<ellipse cx="4.8546" cy="20.7007" rx="4.8546" ry="20.7007" transform="matrix(-0.972637 0.232332 0.232332 0.972637 300.389 209.806)" fill="#FFEAB4" stroke="#101828" stroke-width="0.6"/>
<ellipse cx="311.651" cy="231.376" rx="4.8546" ry="20.7007" transform="rotate(16.5656 311.651 231.376)" fill="#FFEAB4"/>
<path d="M305.749 251.218C308.319 251.982 313.045 243.718 316.305 232.76C319.564 221.802 320.123 212.299 317.553 211.535C314.984 210.77 310.258 219.034 306.998 229.992C306.482 231.727 306.034 233.426 305.655 235.059C305.348 236.383 305.086 237.664 304.871 238.886" stroke="#101828" stroke-width="0.6"/>
<path d="M311.872 244.392C310.777 246.775 308.828 252.483 309.795 256.248C310.992 260.913 308.54 263.945 305.245 263.909L305.245 263.912C305.224 263.912 305.204 263.91 305.183 263.909C305.175 263.909 305.166 263.909 305.158 263.909L305.158 263.907C301.866 263.764 299.583 260.601 301.033 256.008C302.204 252.302 300.569 246.497 299.605 244.058C301.483 245.32 303.924 245.634 305.673 245.688C307.424 245.734 309.909 245.562 311.872 244.392Z" fill="#2DA17D"/>
<path d="M311.872 244.392L312.145 244.517C312.2 244.398 312.171 244.257 312.073 244.169C311.975 244.081 311.832 244.067 311.719 244.134L311.872 244.392ZM309.795 256.248L310.085 256.173L310.085 256.173L309.795 256.248ZM305.245 263.909L305.248 263.609C305.084 263.607 304.949 263.737 304.945 263.9L305.245 263.909ZM305.245 263.912L305.237 264.212C305.402 264.217 305.54 264.086 305.545 263.921L305.245 263.912ZM305.183 263.909L305.195 263.609L305.19 263.609L305.183 263.909ZM305.158 263.909L304.858 263.901C304.853 264.067 304.984 264.204 305.15 264.209L305.158 263.909ZM305.158 263.907L305.458 263.915C305.462 263.752 305.335 263.615 305.171 263.607L305.158 263.907ZM301.033 256.008L301.319 256.099L301.319 256.099L301.033 256.008ZM299.605 244.058L299.773 243.809C299.664 243.735 299.52 243.742 299.417 243.824C299.315 243.906 299.278 244.046 299.326 244.168L299.605 244.058ZM305.673 245.688L305.663 245.988L305.665 245.988L305.673 245.688ZM311.872 244.392L311.6 244.267C311.044 245.475 310.276 247.517 309.768 249.735C309.262 251.944 309.003 254.369 309.504 256.322L309.795 256.248L310.085 256.173C309.62 254.361 309.853 252.05 310.353 249.869C310.851 247.695 311.605 245.692 312.145 244.517L311.872 244.392ZM309.795 256.248L309.504 256.322C310.087 258.593 309.772 260.426 308.953 261.677C308.136 262.924 306.797 263.626 305.248 263.609L305.245 263.909L305.242 264.209C306.987 264.228 308.522 263.431 309.455 262.006C310.387 260.583 310.7 258.568 310.085 256.173L309.795 256.248ZM305.245 263.909L304.945 263.9L304.945 263.904L305.245 263.912L305.545 263.921L305.545 263.917L305.245 263.909ZM305.245 263.912L305.253 263.613C305.25 263.613 305.246 263.612 305.236 263.612C305.227 263.611 305.211 263.61 305.195 263.609L305.183 263.909L305.172 264.209C305.176 264.209 305.18 264.209 305.192 264.21C305.202 264.211 305.219 264.212 305.237 264.212L305.245 263.912ZM305.183 263.909L305.19 263.609C305.183 263.609 305.177 263.609 305.172 263.609C305.168 263.609 305.164 263.609 305.162 263.609C305.16 263.609 305.16 263.609 305.16 263.609C305.161 263.609 305.163 263.609 305.166 263.609L305.158 263.909L305.15 264.209C305.157 264.209 305.164 264.209 305.169 264.209C305.173 264.209 305.177 264.209 305.179 264.209C305.182 264.209 305.182 264.209 305.182 264.209C305.182 264.209 305.18 264.209 305.177 264.209L305.183 263.909ZM305.158 263.909L305.458 263.917L305.458 263.915L305.158 263.907L304.858 263.899L304.858 263.901L305.158 263.909ZM305.158 263.907L305.171 263.607C303.623 263.54 302.324 262.767 301.577 261.476C300.827 260.182 300.613 258.334 301.319 256.099L301.033 256.008L300.747 255.918C300.003 258.275 300.205 260.305 301.058 261.777C301.912 263.252 303.401 264.131 305.145 264.207L305.158 263.907ZM301.033 256.008L301.319 256.099C301.926 254.176 301.8 251.74 301.415 249.507C301.029 247.265 300.373 245.184 299.884 243.947L299.605 244.058L299.326 244.168C299.801 245.37 300.445 247.412 300.824 249.609C301.204 251.814 301.31 254.134 300.747 255.918L301.033 256.008ZM299.605 244.058L299.438 244.307C301.388 245.618 303.9 245.933 305.663 245.988L305.673 245.688L305.682 245.388C303.948 245.334 301.578 245.023 299.773 243.809L299.605 244.058ZM305.673 245.688L305.665 245.988C307.431 246.035 309.987 245.864 312.026 244.65L311.872 244.392L311.719 244.134C309.83 245.259 307.418 245.434 305.68 245.388L305.673 245.688Z" fill="#101828"/>
<g opacity="0.1">
<path d="M316.479 211.513C316.865 211.346 317.238 211.298 317.586 211.402C317.948 211.509 318.245 211.769 318.481 212.142C318.717 212.515 318.898 213.009 319.029 213.602C319.291 214.79 319.359 216.406 319.246 218.332C319.019 222.187 318.062 227.313 316.43 232.799C315.114 237.225 313.557 241.214 311.998 244.351C312.008 244.382 312.007 244.417 311.993 244.449C311.449 245.633 310.691 247.647 310.19 249.832C309.688 252.021 309.448 254.363 309.923 256.213C310.529 258.574 310.215 260.542 309.314 261.918C308.414 263.292 306.938 264.062 305.252 264.048C305.246 264.048 305.239 264.049 305.233 264.049C305.224 264.049 305.215 264.048 305.208 264.048L305.174 264.047C305.167 264.047 305.158 264.047 305.149 264.047C305.142 264.046 305.136 264.045 305.13 264.044C303.445 263.966 302.014 263.117 301.191 261.696C301.04 261.436 300.911 261.157 300.803 260.861C301.312 261.065 301.865 261.186 302.449 261.213C302.455 261.214 302.462 261.215 302.468 261.215C302.477 261.215 302.486 261.215 302.493 261.215L302.527 261.216C302.534 261.216 302.543 261.217 302.552 261.217C302.558 261.218 302.565 261.217 302.571 261.216C304.258 261.231 305.733 260.46 306.633 259.087C307.535 257.71 307.848 255.743 307.242 253.381C306.767 251.531 307.007 249.189 307.509 247C308.01 244.815 308.768 242.802 309.312 241.618C309.327 241.586 309.328 241.551 309.318 241.519C310.876 238.383 312.433 234.393 313.749 229.968C315.381 224.482 316.338 219.355 316.565 215.501C316.656 213.95 316.629 212.6 316.479 211.513Z" fill="#101828"/>
<path d="M311.875 210.295C311.734 210.463 311.591 210.641 311.447 210.829C311.409 210.669 311.369 210.514 311.328 210.364C311.511 210.305 311.694 210.282 311.875 210.295Z" fill="#101828"/>
<path d="M306.513 209.664C306.491 209.605 306.468 209.548 306.446 209.491C306.507 209.482 306.569 209.477 306.63 209.476C306.591 209.537 306.552 209.6 306.513 209.664Z" fill="#101828"/>
</g>
<path d="M206.804 215.535C215.558 222.139 229.3 234.467 242.23 250.083C255.149 265.686 267.369 284.708 272.909 304.699L270.982 305.232L269.055 305.766C263.725 286.537 251.887 268.02 239.149 252.635C226.421 237.263 212.907 225.15 204.396 218.729L206.804 215.535Z" fill="#2DA17D"/>
<path d="M206.804 215.535L206.984 215.296L206.745 215.115L206.564 215.355L206.804 215.535ZM242.23 250.083L242.461 249.892L242.23 250.083ZM272.909 304.699L272.989 304.988L273.279 304.908L273.199 304.618L272.909 304.699ZM270.982 305.232L270.902 304.943L270.902 304.943L270.982 305.232ZM269.055 305.766L268.765 305.846L268.846 306.136L269.135 306.055L269.055 305.766ZM239.149 252.635L239.38 252.443L239.149 252.635ZM204.396 218.729L204.156 218.548L203.975 218.788L204.215 218.968L204.396 218.729ZM206.804 215.535L206.623 215.775C215.359 222.365 229.084 234.676 241.999 250.275L242.23 250.083L242.461 249.892C229.516 234.257 215.757 221.914 206.984 215.296L206.804 215.535ZM242.23 250.083L241.999 250.275C254.905 265.861 267.096 284.845 272.62 304.779L272.909 304.699L273.199 304.618C267.643 284.571 255.394 265.511 242.461 249.892L242.23 250.083ZM272.909 304.699L272.829 304.409L270.902 304.943L270.982 305.232L271.062 305.521L272.989 304.988L272.909 304.699ZM270.982 305.232L270.902 304.943L268.974 305.477L269.055 305.766L269.135 306.055L271.062 305.521L270.982 305.232ZM269.055 305.766L269.344 305.686C263.999 286.4 252.132 267.845 239.38 252.443L239.149 252.635L238.918 252.826C251.643 268.195 263.452 286.674 268.765 305.846L269.055 305.766ZM239.149 252.635L239.38 252.443C226.637 237.053 213.106 224.924 204.576 218.489L204.396 218.729L204.215 218.968C212.708 225.376 226.205 237.472 238.918 252.826L239.149 252.635ZM204.396 218.729L204.635 218.91L207.043 215.716L206.804 215.535L206.564 215.355L204.156 218.548L204.396 218.729Z" fill="#101828"/>
<ellipse cx="4.90148" cy="20.9006" rx="4.90148" ry="20.9006" transform="matrix(-0.551851 0.833943 0.833943 0.551851 167.998 187.581)" fill="#FECC2F" stroke="#101828" stroke-width="0.6"/>
<ellipse cx="4.90148" cy="20.9006" rx="4.90148" ry="20.9006" transform="matrix(-0.230513 0.973069 0.973069 0.230513 160.943 198.291)" fill="#FECC2F" stroke="#101828" stroke-width="0.6"/>
<ellipse cx="191.986" cy="193.78" rx="4.90148" ry="20.9006" transform="rotate(-23.3082 191.986 193.78)" fill="#FECC2F" stroke="#101828" stroke-width="0.6"/>
<ellipse cx="187.963" cy="196.961" rx="4.90148" ry="20.9006" transform="rotate(-43.475 187.963 196.961)" fill="#FECC2F" stroke="#101828" stroke-width="0.6"/>
<ellipse cx="183.988" cy="198.939" rx="4.90148" ry="20.9006" transform="rotate(-49.9905 183.988 198.939)" fill="#FFEAB4" stroke="#101828" stroke-width="0.6"/>
<path d="M161.567 196.906C162.617 194.411 172.093 196.016 182.732 200.493C185.532 201.67 188.132 202.931 190.426 204.193C188.786 202.153 187.096 199.81 185.451 197.258C179.199 187.556 175.974 178.502 178.249 177.035C180.524 175.568 187.438 182.246 193.691 191.949C199.944 201.651 203.168 210.705 200.893 212.171C200.688 212.303 200.445 212.37 200.169 212.373C200.212 212.644 200.191 212.893 200.097 213.116C199.047 215.611 189.57 214.005 178.931 209.529C168.292 205.053 160.518 199.401 161.567 196.906Z" fill="#FFEAB4"/>
<path d="M161.567 196.906L161.29 196.79L161.29 196.79L161.567 196.906ZM182.732 200.493L182.849 200.216L182.732 200.493ZM190.426 204.193L190.281 204.456L190.66 204.005L190.426 204.193ZM185.451 197.258L185.199 197.421L185.199 197.421L185.451 197.258ZM178.249 177.035L178.087 176.783L178.086 176.783L178.249 177.035ZM193.691 191.949L193.943 191.786L193.691 191.949ZM200.893 212.171L201.055 212.424L201.055 212.424L200.893 212.171ZM200.169 212.373L200.165 212.073L199.818 212.078L199.872 212.421L200.169 212.373ZM200.097 213.116L200.374 213.233L200.374 213.233L200.097 213.116ZM178.931 209.529L178.814 209.805L178.814 209.805L178.931 209.529ZM161.567 196.906L161.843 197.022C161.939 196.796 162.138 196.594 162.473 196.43C162.811 196.264 163.272 196.146 163.853 196.083C165.016 195.956 166.6 196.058 168.503 196.381C172.305 197.025 177.311 198.537 182.616 200.769L182.732 200.493L182.849 200.216C177.514 197.972 172.463 196.443 168.604 195.789C166.677 195.463 165.03 195.351 163.788 195.486C163.168 195.553 162.632 195.684 162.21 195.891C161.784 196.099 161.457 196.392 161.29 196.79L161.567 196.906ZM182.732 200.493L182.616 200.769C185.406 201.943 187.997 203.199 190.281 204.456L190.426 204.193L190.571 203.93C188.267 202.663 185.657 201.398 182.849 200.216L182.732 200.493ZM190.426 204.193L190.66 204.005C189.027 201.973 187.343 199.639 185.704 197.096L185.451 197.258L185.199 197.421C186.849 199.981 188.546 202.332 190.192 204.381L190.426 204.193ZM185.451 197.258L185.704 197.096C182.586 192.258 180.229 187.59 178.935 183.957C178.287 182.139 177.912 180.596 177.835 179.429C177.796 178.846 177.833 178.372 177.937 178.01C178.041 177.651 178.205 177.42 178.412 177.287L178.249 177.035L178.086 176.783C177.724 177.016 177.492 177.389 177.361 177.844C177.23 178.296 177.195 178.846 177.236 179.469C177.319 180.715 177.714 182.317 178.37 184.159C179.683 187.846 182.064 192.556 185.199 197.421L185.451 197.258ZM178.249 177.035L178.412 177.287C178.618 177.154 178.896 177.099 179.266 177.153C179.638 177.208 180.085 177.37 180.601 177.646C181.632 178.199 182.882 179.178 184.27 180.519C187.044 183.198 190.321 187.273 193.439 192.111L193.691 191.949L193.943 191.786C190.808 186.921 187.502 182.807 184.687 180.087C183.281 178.729 181.985 177.708 180.884 177.117C180.334 176.822 179.818 176.628 179.353 176.56C178.884 176.491 178.449 176.549 178.087 176.783L178.249 177.035ZM193.691 191.949L193.439 192.111C196.556 196.949 198.914 201.617 200.207 205.249C200.855 207.067 201.23 208.61 201.307 209.777C201.346 210.361 201.309 210.835 201.205 211.196C201.101 211.555 200.937 211.786 200.73 211.919L200.893 212.171L201.055 212.424C201.417 212.19 201.65 211.817 201.781 211.362C201.912 210.91 201.947 210.36 201.906 209.737C201.823 208.491 201.428 206.889 200.772 205.048C199.459 201.361 197.078 196.651 193.943 191.786L193.691 191.949ZM200.893 212.171L200.73 211.919C200.58 212.016 200.395 212.07 200.165 212.073L200.169 212.373L200.173 212.673C200.496 212.669 200.795 212.591 201.055 212.424L200.893 212.171ZM200.169 212.373L199.872 212.421C199.909 212.648 199.889 212.838 199.821 213L200.097 213.116L200.374 213.233C200.493 212.948 200.515 212.641 200.465 212.326L200.169 212.373ZM200.097 213.116L199.821 213C199.725 213.227 199.526 213.428 199.191 213.593C198.853 213.758 198.392 213.877 197.811 213.94C196.648 214.066 195.063 213.964 193.16 213.641C189.359 212.997 184.352 211.484 179.047 209.252L178.931 209.529L178.814 209.805C184.149 212.05 189.201 213.579 193.06 214.233C194.987 214.559 196.634 214.671 197.875 214.536C198.496 214.469 199.032 214.338 199.454 214.132C199.879 213.924 200.206 213.63 200.374 213.233L200.097 213.116ZM178.931 209.529L179.047 209.252C173.742 207.02 169.161 204.499 166.042 202.232C164.481 201.097 163.3 200.036 162.577 199.116C162.216 198.656 161.979 198.244 161.86 197.887C161.743 197.532 161.748 197.249 161.843 197.022L161.567 196.906L161.29 196.79C161.123 197.187 161.142 197.626 161.291 198.075C161.438 198.522 161.72 198.996 162.106 199.487C162.878 200.469 164.109 201.568 165.69 202.717C168.855 205.019 173.48 207.561 178.814 209.805L178.931 209.529Z" fill="#101828"/>
<ellipse cx="195.594" cy="191.178" rx="4.90148" ry="20.9006" transform="rotate(-16.4207 195.594 191.178)" fill="#FFEAB4"/>
<ellipse cx="4.90148" cy="20.9006" rx="4.90148" ry="20.9006" transform="matrix(-0.112159 0.99369 0.99369 0.112159 158.285 204.325)" fill="#FFEAB4"/>
<path d="M201.503 211.226C204.099 210.461 203.559 200.865 200.296 189.792C197.033 178.72 192.283 170.365 189.686 171.13C187.089 171.895 187.63 181.491 190.893 192.564C191.93 196.085 193.119 199.331 194.34 202.097" stroke="#101828" stroke-width="0.6"/>
<ellipse cx="4.90148" cy="20.9006" rx="4.90148" ry="20.9006" transform="matrix(-0.112159 0.99369 0.99369 0.112159 158.285 204.325)" fill="#FFEAB4"/>
<path d="M199.273 213.883C198.969 216.573 189.425 217.704 177.954 216.41C166.484 215.115 157.432 211.885 157.735 209.195C158.039 206.505 167.584 205.374 179.054 206.669C182.702 207.08 186.105 207.688 189.041 208.411" stroke="#101828" stroke-width="0.6"/>
<path d="M203.113 206.993C203.9 209.028 206.216 213.364 209.186 214.43C212.762 215.715 213.169 218.993 211.232 221.569L211.241 221.577C211.192 221.636 211.14 221.693 211.089 221.75C211.059 221.786 211.032 221.823 211.002 221.859L210.995 221.853C208.794 224.208 205.495 224.375 203.61 221.076C202.045 218.336 197.374 216.806 195.234 216.383C197.161 215.532 198.869 213.826 200.022 212.479C201.162 211.107 202.597 209.085 203.113 206.993Z" fill="#2DA17D"/>
<path d="M203.113 206.993L203.393 206.885C203.346 206.763 203.225 206.686 203.094 206.694C202.963 206.702 202.853 206.794 202.822 206.921L203.113 206.993ZM209.186 214.43L209.287 214.148L209.287 214.148L209.186 214.43ZM211.232 221.569L210.992 221.388C210.896 221.516 210.917 221.696 211.039 221.798L211.232 221.569ZM211.241 221.577L211.471 221.77C211.522 221.709 211.547 221.63 211.54 221.551C211.533 221.471 211.495 221.398 211.434 221.347L211.241 221.577ZM211.089 221.75L210.865 221.549C210.862 221.553 210.858 221.557 210.855 221.561L211.089 221.75ZM211.002 221.859L210.809 222.089C210.87 222.14 210.949 222.165 211.028 222.158C211.107 222.151 211.18 222.113 211.232 222.052L211.002 221.859ZM210.995 221.853L211.188 221.624C211.066 221.521 210.885 221.532 210.776 221.649L210.995 221.853ZM203.61 221.076L203.35 221.225L203.35 221.225L203.61 221.076ZM195.234 216.383L195.113 216.109C194.993 216.162 194.921 216.286 194.936 216.416C194.95 216.547 195.047 216.652 195.176 216.678L195.234 216.383ZM200.022 212.479L200.25 212.674L200.253 212.67L200.022 212.479ZM203.113 206.993L202.833 207.102C203.235 208.139 204.022 209.754 205.087 211.249C206.146 212.735 207.512 214.148 209.084 214.713L209.186 214.43L209.287 214.148C207.89 213.646 206.613 212.357 205.575 210.901C204.543 209.452 203.779 207.882 203.393 206.885L203.113 206.993ZM209.186 214.43L209.084 214.713C210.795 215.327 211.705 216.398 211.984 217.584C212.266 218.78 211.92 220.154 210.992 221.388L211.232 221.569L211.471 221.749C212.481 220.407 212.9 218.854 212.568 217.447C212.234 216.029 211.153 214.818 209.287 214.148L209.186 214.43ZM211.232 221.569L211.039 221.798L211.048 221.807L211.241 221.577L211.434 221.347L211.424 221.339L211.232 221.569ZM211.241 221.577L211.011 221.384C210.966 221.438 210.919 221.489 210.865 221.549L211.089 221.75L211.312 221.95C211.36 221.896 211.417 221.834 211.471 221.77L211.241 221.577ZM211.089 221.75L210.855 221.561C210.811 221.616 210.803 221.629 210.772 221.666L211.002 221.859L211.232 222.052C211.26 222.018 211.308 221.956 211.322 221.938L211.089 221.75ZM211.002 221.859L211.195 221.629L211.188 221.624L210.995 221.853L210.802 222.083L210.809 222.089L211.002 221.859ZM210.995 221.853L210.776 221.649C209.722 222.776 208.428 223.355 207.201 223.285C205.985 223.216 204.772 222.505 203.871 220.927L203.61 221.076L203.35 221.225C204.333 222.946 205.713 223.801 207.167 223.884C208.611 223.967 210.068 223.285 211.214 222.058L210.995 221.853ZM203.61 221.076L203.871 220.927C203.042 219.476 201.414 218.376 199.767 217.59C198.11 216.8 196.383 216.304 195.292 216.089L195.234 216.383L195.176 216.678C196.225 216.885 197.903 217.366 199.508 218.131C201.123 218.901 202.613 219.936 203.35 221.225L203.61 221.076ZM195.234 216.383L195.355 216.658C197.346 215.778 199.09 214.029 200.25 212.674L200.022 212.479L199.794 212.284C198.648 213.623 196.976 215.286 195.113 216.109L195.234 216.383ZM200.022 212.479L200.253 212.67C201.399 211.291 202.871 209.225 203.404 207.065L203.113 206.993L202.822 206.921C202.323 208.944 200.925 210.922 199.792 212.287L200.022 212.479Z" fill="#101828"/>
<path opacity="0.1" fill-rule="evenodd" clip-rule="evenodd" d="M188.38 172.406C188.334 172.53 188.292 172.661 188.252 172.798C188.296 172.845 188.34 172.893 188.383 172.942C188.38 172.76 188.379 172.581 188.38 172.406ZM158.148 208.135C158.443 207.865 158.84 207.622 159.324 207.406C159.4 207.465 159.48 207.524 159.562 207.583C160.566 208.297 162.044 209 163.88 209.655C167.555 210.967 172.699 212.1 178.444 212.749C184.188 213.397 198.848 213.679 198.848 213.679C198.848 213.679 198.455 213.415 200.071 214.185C201.693 214.959 203.213 216.007 203.969 217.33C204.935 219.021 206.278 219.846 207.682 219.926C209.063 220.005 210.467 219.361 211.587 218.184C211.608 218.173 211.628 218.159 211.643 218.141C211.683 218.093 211.722 218.045 211.76 217.997C211.8 217.952 211.842 217.905 211.882 217.856C211.898 217.837 211.909 217.816 211.915 217.793C212.074 217.579 212.217 217.359 212.343 217.136C212.381 217.249 212.414 217.364 212.441 217.48C212.758 218.826 212.368 220.32 211.403 221.628C211.397 221.65 211.386 221.672 211.37 221.691C211.329 221.739 211.288 221.786 211.248 221.831C211.21 221.879 211.171 221.927 211.131 221.975C211.116 221.994 211.096 222.008 211.075 222.018C209.955 223.196 208.551 223.84 207.17 223.761C205.766 223.68 204.422 222.855 203.456 221.164C202.7 219.841 201.181 218.793 199.559 218.02C197.943 217.249 196.254 216.765 195.196 216.556C195.196 216.556 193.632 216.717 192.818 216.814C188.944 217.273 183.676 217.231 177.931 216.583C172.187 215.935 167.043 214.801 163.368 213.49C161.532 212.835 160.054 212.132 159.05 211.417C158.548 211.06 158.157 210.694 157.901 210.324C157.644 209.952 157.516 209.566 157.56 209.177C157.604 208.788 157.814 208.44 158.148 208.135Z" fill="#101828"/>
<path d="M258.422 253.758C263.372 237.117 281.129 238.255 281.129 238.255C274.233 255.525 258.422 253.758 258.422 253.758Z" fill="#2DA17D" stroke="#101828" stroke-width="0.6" stroke-miterlimit="10"/>
<path d="M267.815 228.816C273.154 244.496 258.433 253.766 258.433 253.766C254.378 236.811 267.815 228.816 267.815 228.816Z" fill="#2DA17D" stroke="#101828" stroke-width="0.6" stroke-miterlimit="10"/>
<path d="M260.464 248.826C262.278 246.547 266.276 239.376 267.754 228.928" stroke="#101828" stroke-width="0.6"/>
<path d="M266.637 247.907C269.622 246.471 276.657 242.537 280.915 238.289" stroke="#101828" stroke-width="0.6"/>
<path d="M256.67 252.615C238.023 234.944 248.187 213.082 248.187 213.082C266.485 226.248 260.176 247.727 258.381 252.735C259.809 256.071 260.572 261.572 260.427 271.787L260.568 272.07L258.91 270.429C259.205 260.122 258.012 255.15 256.67 252.615Z" fill="#2DA17D"/>
<path d="M256.67 252.615L256.935 252.475L256.912 252.431L256.877 252.398L256.67 252.615ZM248.187 213.082L248.362 212.839L248.068 212.627L247.915 212.956L248.187 213.082ZM258.381 252.735L258.098 252.634L258.059 252.745L258.105 252.853L258.381 252.735ZM260.427 271.787L260.127 271.783L260.126 271.856L260.159 271.921L260.427 271.787ZM260.568 272.07L260.357 272.283L261.647 273.559L260.837 271.936L260.568 272.07ZM258.91 270.429L258.61 270.421L258.606 270.551L258.699 270.643L258.91 270.429ZM256.67 252.615L256.877 252.398C247.627 243.632 245.527 233.838 245.736 226.23C245.84 222.424 246.522 219.164 247.179 216.857C247.507 215.703 247.828 214.788 248.067 214.163C248.186 213.851 248.285 213.611 248.353 213.45C248.388 213.369 248.414 213.308 248.432 213.268C248.441 213.248 248.448 213.233 248.453 213.223C248.455 213.218 248.457 213.214 248.458 213.212C248.458 213.211 248.458 213.21 248.459 213.209C248.459 213.209 248.459 213.209 248.459 213.209C248.459 213.209 248.459 213.209 248.187 213.082C247.915 212.956 247.915 212.956 247.915 212.957C247.915 212.957 247.914 212.957 247.914 212.958C247.914 212.958 247.913 212.96 247.913 212.961C247.911 212.964 247.909 212.968 247.907 212.974C247.901 212.985 247.894 213.002 247.884 213.024C247.865 213.067 247.837 213.131 247.801 213.215C247.73 213.383 247.628 213.63 247.506 213.949C247.262 214.589 246.935 215.52 246.602 216.692C245.935 219.036 245.242 222.346 245.136 226.214C244.924 233.955 247.066 243.927 256.464 252.833L256.67 252.615ZM248.187 213.082L248.012 213.326C257.072 219.845 260.038 228.414 260.519 235.987C261.001 243.57 258.989 250.148 258.098 252.634L258.381 252.735L258.663 252.836C259.567 250.315 261.607 243.649 261.118 235.949C260.628 228.239 257.6 219.486 248.362 212.839L248.187 213.082ZM258.381 252.735L258.105 252.853C259.506 256.126 260.272 261.57 260.127 271.783L260.427 271.787L260.727 271.791C260.872 261.574 260.112 256.016 258.656 252.617L258.381 252.735ZM260.427 271.787L260.159 271.921L260.3 272.204L260.568 272.07L260.837 271.936L260.696 271.653L260.427 271.787ZM260.568 272.07L260.779 271.856L259.121 270.216L258.91 270.429L258.699 270.643L260.357 272.283L260.568 272.07ZM258.91 270.429L259.21 270.438C259.506 260.117 258.315 255.08 256.935 252.475L256.67 252.615L256.405 252.756C257.71 255.22 258.905 260.127 258.61 270.421L258.91 270.429Z" fill="#101828"/>
<path d="M254.079 239.505C253.691 234.512 251.993 222.274 248.307 213.273" stroke="#101828" stroke-width="0.6"/>
<path d="M386 246.993C386 244.236 388.236 242 390.993 242H414.007C416.764 242 419 244.236 419 246.993V270.007C419 272.764 416.764 275 414.007 275H390.993C388.236 275 386 272.764 386 270.007V246.993Z" fill="#EBF4FF"/>
<g clip-path="url(#clip1_8823_12444)">
<path d="M411.435 262.14L411.102 261.974L403.599 265.726C403.168 265.944 402.638 265.944 402.207 265.726L394.704 261.974L394.371 262.14C394.195 262.228 394.084 262.408 394.084 262.604C394.084 262.801 394.195 262.98 394.371 263.068L402.671 267.218C402.817 267.292 402.989 267.292 403.135 267.218L411.435 263.068C411.611 262.98 411.722 262.801 411.722 262.604C411.722 262.408 411.611 262.228 411.435 262.14Z" fill="#BEDAFF"/>
<path d="M411.435 259.719L411.102 259.553L403.599 263.305C403.168 263.523 402.638 263.523 402.207 263.305L394.704 259.553L394.371 259.719C394.195 259.807 394.084 259.987 394.084 260.183C394.084 260.38 394.195 260.56 394.371 260.647L402.671 264.798C402.817 264.871 402.989 264.871 403.135 264.798L411.435 260.647C411.611 260.56 411.722 260.38 411.722 260.183C411.722 259.987 411.611 259.807 411.435 259.719Z" fill="#BEDAFF"/>
<path d="M398.341 255.67L399.379 257.467C399.522 257.715 399.839 257.801 400.087 257.657L400.514 257.411C400.774 257.607 401.052 257.769 401.347 257.895V258.385C401.347 258.671 401.579 258.903 401.866 258.903H403.941C404.227 258.903 404.46 258.671 404.46 258.385V257.895C404.755 257.769 405.033 257.607 405.292 257.411L405.719 257.657C405.967 257.8 406.285 257.715 406.428 257.467L407.465 255.67C407.609 255.422 407.524 255.105 407.275 254.962L406.85 254.716C406.87 254.554 406.88 254.393 406.88 254.234C406.88 254.075 406.87 253.914 406.85 253.753L407.276 253.507C407.524 253.364 407.609 253.047 407.465 252.798L406.428 251.001C406.285 250.753 405.967 250.668 405.719 250.811L405.292 251.058C405.033 250.862 404.755 250.7 404.46 250.574V250.084C404.46 249.798 404.227 249.565 403.941 249.565H401.866C401.579 249.565 401.347 249.798 401.347 250.084V250.574C401.052 250.7 400.773 250.862 400.514 251.058L400.087 250.811C399.839 250.668 399.522 250.753 399.379 251.001L398.341 252.798C398.198 253.047 398.283 253.364 398.531 253.507L398.956 253.753C398.936 253.914 398.926 254.075 398.926 254.234C398.926 254.393 398.936 254.554 398.956 254.716L398.531 254.962C398.283 255.105 398.198 255.422 398.341 255.67ZM402.903 252.678C403.761 252.678 404.46 253.376 404.46 254.234C404.46 255.092 403.761 255.791 402.903 255.791C402.045 255.791 401.347 255.092 401.347 254.234C401.347 253.376 402.045 252.678 402.903 252.678Z" fill="#BEDAFF"/>
<path d="M394.371 258.226L402.671 262.376C402.817 262.449 402.989 262.449 403.135 262.376L411.435 258.226C411.611 258.138 411.722 257.959 411.722 257.762C411.722 257.566 411.611 257.386 411.435 257.298L408.513 255.837C408.478 255.958 408.429 256.076 408.364 256.189L407.326 257.986C407.049 258.466 406.532 258.765 405.978 258.765C405.978 258.765 405.978 258.765 405.978 258.765C405.804 258.765 405.632 258.735 405.469 258.679C405.331 259.397 404.698 259.941 403.941 259.941H401.866C401.108 259.941 400.475 259.397 400.337 258.679C400.174 258.735 400.002 258.765 399.828 258.765C399.274 258.765 398.757 258.466 398.48 257.986L397.442 256.189C397.377 256.077 397.328 255.959 397.293 255.837L394.371 257.298C394.195 257.386 394.084 257.566 394.084 257.762C394.084 257.959 394.195 258.138 394.371 258.226Z" fill="#BEDAFF"/>
</g>
<path d="M305.192 289.363C300.772 267.698 305.138 217.302 357.107 187.155L359.616 191.48C309.965 220.281 305.983 268.227 310.091 288.365L307.641 288.864L305.192 289.363Z" fill="#00A47B"/>
<path d="M305.192 289.363L304.898 289.423L304.958 289.717L305.252 289.657L305.192 289.363ZM357.107 187.155L357.367 187.005L357.216 186.745L356.957 186.896L357.107 187.155ZM359.616 191.48L359.766 191.74L360.026 191.589L359.875 191.329L359.616 191.48ZM310.091 288.365L310.151 288.659L310.445 288.599L310.385 288.305L310.091 288.365ZM307.641 288.864L307.581 288.57L307.581 288.57L307.641 288.864ZM305.192 289.363L305.486 289.304C301.085 267.73 305.427 217.48 357.258 187.415L357.107 187.155L356.957 186.896C304.848 217.123 300.459 267.666 304.898 289.423L305.192 289.363ZM357.107 187.155L356.848 187.306L359.356 191.631L359.616 191.48L359.875 191.329L357.367 187.005L357.107 187.155ZM359.616 191.48L359.465 191.221C309.676 220.102 305.67 268.196 309.797 288.425L310.091 288.365L310.385 288.305C306.295 268.259 310.255 220.46 359.766 191.74L359.616 191.48ZM310.091 288.365L310.031 288.071L307.581 288.57L307.641 288.864L307.701 289.158L310.151 288.659L310.091 288.365ZM307.641 288.864L307.581 288.57L305.132 289.07L305.192 289.363L305.252 289.657L307.701 289.158L307.641 288.864Z" fill="#101828"/>
<path opacity="0.8" d="M234 344C320.709 344 391 341.09 391 337.5C391 333.91 320.709 331 234 331V344Z" fill="url(#paint15_linear_8823_12444)"/>
<path d="M326.189 276.512L257.174 288.642L261.741 314.629L298.06 308.246C319.356 297.116 326.189 276.512 326.189 276.512Z" fill="#FECC2F"/>
<path d="M330.756 302.499L261.741 314.629L257.174 288.642L326.189 276.512L330.756 302.499ZM326.697 269.029L247.461 282.955L257.549 340.356L324.209 328.641C332.977 319.96 333.387 309.98 333.31 307.189L262.049 319.713L332.808 303.802L326.697 269.029Z" fill="white"/>
<path d="M332.808 303.802L262.049 319.713L333.31 307.19L349.82 304.288L349.091 300.141L343.116 266.144L328.397 268.731L326.697 269.03L332.808 303.802Z" fill="#CDC4CF"/>
<path d="M324.209 328.641L369.393 320.7L366.009 301.442L333.309 307.189C333.386 309.98 332.976 319.96 324.209 328.641Z" fill="#CDC4CF"/>
<path d="M298.059 308.246L330.755 302.5L326.188 276.513C326.188 276.513 319.356 297.116 298.059 308.246Z" fill="#FECC2F"/>
<path d="M298.059 308.246L330.755 302.5L326.188 276.513C326.188 276.513 319.356 297.116 298.059 308.246Z" fill="#101828" fill-opacity="0.12"/>
<path d="M247.46 282.955L237.725 284.666L244.428 322.81L254.164 321.099L247.46 282.955Z" fill="#FFF6DB"/>
<path d="M244.428 322.81L228.238 325.655L231.623 344.912L257.548 340.356L254.164 321.099L244.428 322.81Z" fill="#FFF6DB"/>
<path fill-rule="evenodd" clip-rule="evenodd" d="M349.819 304.287L366.01 301.442L369.394 320.7L231.623 344.912L228.238 325.655L244.429 322.81L237.725 284.666L343.116 266.144L349.819 304.287ZM261.741 314.628L330.755 302.499L326.188 276.512L257.173 288.641L261.741 314.628Z" stroke="#101828" stroke-width="0.6"/>
<path d="M229.215 197.918C213.659 198.295 200.192 193.722 189.101 184.272C175.81 172.946 168.236 156.493 164.224 144.683C161.293 136.055 159.778 128.567 159.088 124.49L181.589 120.535C181.008 118.256 180.467 115.948 179.969 113.613L154.698 118.054C152.987 118.355 151.817 120.028 152.025 121.884C152.076 122.334 153.308 133.051 157.944 146.763C160.672 154.835 164.023 162.275 167.907 168.879C172.801 177.209 178.56 184.227 185.024 189.74C199.318 201.937 217.007 206.871 237.598 204.411C237.655 204.404 237.712 204.396 237.767 204.387C238.098 204.328 238.413 204.217 238.698 204.063C235.472 202.274 232.306 200.218 229.217 197.916L229.215 197.918Z" fill="#FECC2F" stroke="#101828" stroke-width="0.6"/>
<path d="M368.18 83.8946C367.743 82.0794 366.072 80.9055 364.362 81.2061L339.089 85.6477C339.169 86.2238 339.245 86.7971 339.32 87.3723C339.345 87.5618 339.367 87.7516 339.39 87.9414C339.427 88.2326 339.464 88.5238 339.5 88.8153C339.505 88.8672 339.513 88.9204 339.518 88.9723C339.533 89.0948 339.547 89.2174 339.562 89.3399C339.571 89.3929 339.576 89.4485 339.583 89.5017C339.602 89.6904 339.625 89.8785 339.647 90.0665C339.667 90.2464 339.688 90.4276 339.707 90.6074C339.711 90.649 339.715 90.6907 339.72 90.732C339.737 90.8893 339.754 91.0466 339.771 91.2022C339.794 91.4097 339.816 91.6188 339.839 91.8263C339.867 92.119 339.898 92.4131 339.926 92.7041L362.429 88.7494C363.17 92.8188 364.299 100.374 364.485 109.484C364.739 121.954 363.229 140.005 354.595 155.183C347.391 167.849 336.291 176.74 321.538 181.689C321.305 182.045 321.067 182.397 320.829 182.747C320.766 182.839 320.703 182.933 320.64 183.025C320.573 183.123 320.506 183.223 320.437 183.321C320.357 183.438 320.279 183.553 320.198 183.668C320.126 183.77 320.053 183.873 319.981 183.976C319.939 184.036 319.897 184.096 319.853 184.157C319.649 184.444 319.444 184.731 319.237 185.014C319.187 185.082 319.138 185.151 319.088 185.22C319.047 185.278 319.003 185.335 318.961 185.392C318.863 185.525 318.767 185.658 318.669 185.79C318.579 185.912 318.487 186.032 318.396 186.152C318.364 186.194 318.333 186.237 318.302 186.277C318.077 186.576 317.849 186.87 317.622 187.163C317.57 187.229 317.521 187.297 317.469 187.363C317.164 187.753 316.857 188.142 316.547 188.524C316.544 188.526 316.543 188.53 316.54 188.532C315.943 189.267 315.336 189.991 314.72 190.698C315.042 190.745 315.375 190.743 315.706 190.685C315.762 190.675 315.819 190.663 315.874 190.65C336.071 185.942 351.018 175.273 360.296 158.932C364.491 151.546 367.514 142.985 369.274 133.485C370.672 125.953 371.286 117.816 371.099 109.297C370.783 94.8263 368.286 84.3304 368.179 83.8912L368.18 83.8946Z" fill="#FECC2F" stroke="#101828" stroke-width="0.6"/>
<path d="M251.84 180.889L253.845 155.326L231.544 142.668L256.475 136.674L261.623 111.555L275.025 133.414L300.506 130.548L283.859 150.051L294.46 173.399L270.768 163.593L251.839 180.89L251.84 180.889ZM311.562 83.7968L194.16 104.43C199.422 131.706 217.634 196.715 273.283 212.441C273.283 212.441 277.939 246.241 273.438 262.713C273.438 262.713 260.483 267.753 263.385 280.158L305.242 272.802C306.043 259.848 281.743 261.253 281.743 261.253C284.666 260.544 287.073 259.835 289.052 259.144C294.425 257.271 297.054 251.211 294.753 246.008C288.594 232.079 284.832 212.03 284.832 212.03C281.962 212.527 279.495 212.334 277.689 211.974C278.203 211.898 278.715 211.815 279.229 211.725C326.809 193.304 317.414 115.09 311.562 83.7968Z" fill="#FECC2F"/>
<path d="M300.508 130.549L275.027 133.416L261.624 111.557L256.477 136.676L231.545 142.669L253.844 155.328L251.84 180.889L270.77 163.592L294.461 173.399L283.861 150.052L300.508 130.549Z" fill="#E7A200"/>
<path d="M311.562 83.7965C317.414 115.089 326.808 193.304 279.229 211.725C278.714 211.815 278.202 211.898 277.689 211.974C279.494 212.333 281.961 212.525 284.831 212.03C284.831 212.03 288.593 232.079 294.753 246.007C297.053 251.21 294.424 257.271 289.051 259.144C287.072 259.835 284.665 260.543 281.742 261.253C281.742 261.253 306.043 259.848 305.242 272.802L328.397 268.732L327.944 266.153C326.718 259.178 320.069 254.517 313.092 255.743L308.063 256.627C307.787 256.26 307.515 255.885 307.246 255.506C298.179 242.787 291.676 224.154 287.593 209.571C287.842 209.485 288.091 209.397 288.34 209.308C288.511 209.248 288.681 209.184 288.851 209.121C288.939 209.088 289.027 209.057 289.112 209.024C289.384 208.923 289.652 208.818 289.921 208.713C290.026 208.671 290.134 208.63 290.241 208.586C290.486 208.488 290.732 208.387 290.977 208.284C291.095 208.235 291.215 208.186 291.333 208.135C291.39 208.111 291.448 208.087 291.505 208.061C291.608 208.016 291.711 207.972 291.812 207.926C292.027 207.834 292.239 207.74 292.452 207.644C292.66 207.55 292.869 207.455 293.076 207.358C293.193 207.304 293.309 207.251 293.424 207.195C293.644 207.091 293.862 206.988 294.079 206.881C294.149 206.848 294.22 206.812 294.29 206.777C294.423 206.711 294.554 206.644 294.686 206.577C294.909 206.464 295.133 206.35 295.354 206.236C295.507 206.156 295.662 206.076 295.815 205.994C295.939 205.929 296.063 205.863 296.185 205.796C296.284 205.743 296.382 205.689 296.48 205.635C296.639 205.548 296.796 205.463 296.952 205.375C297.096 205.295 297.239 205.212 297.383 205.131C297.538 205.042 297.695 204.952 297.85 204.863C298.02 204.765 298.189 204.665 298.356 204.563C298.417 204.528 298.476 204.493 298.536 204.456C298.694 204.361 298.853 204.264 299.011 204.168C299.146 204.086 299.281 204.002 299.414 203.919C299.514 203.857 299.614 203.794 299.712 203.731C299.911 203.606 300.109 203.48 300.305 203.352C300.37 203.311 300.434 203.268 300.499 203.226C300.743 203.067 300.984 202.907 301.225 202.745C301.252 202.726 301.28 202.709 301.307 202.69C301.464 202.583 301.62 202.475 301.775 202.368C301.898 202.283 302.022 202.199 302.144 202.113C302.218 202.063 302.29 202.01 302.362 201.958C302.499 201.862 302.636 201.764 302.772 201.666C302.844 201.615 302.916 201.561 302.99 201.51C303.245 201.326 303.496 201.141 303.748 200.952C303.77 200.936 303.792 200.92 303.813 200.903C304.083 200.701 304.352 200.497 304.618 200.29C304.7 200.226 304.781 200.163 304.863 200.099C304.979 200.008 305.095 199.917 305.211 199.824C305.378 199.693 305.543 199.56 305.708 199.427C305.849 199.314 305.989 199.2 306.129 199.085C306.225 199.007 306.322 198.928 306.417 198.848C306.463 198.81 306.508 198.772 306.554 198.734C306.79 198.536 307.025 198.338 307.261 198.136C307.38 198.034 307.498 197.93 307.617 197.827C307.777 197.688 307.938 197.547 308.096 197.406C308.243 197.276 308.385 197.147 308.53 197.018C308.644 196.915 308.756 196.813 308.869 196.71C309.02 196.571 309.172 196.431 309.323 196.29C309.417 196.203 309.513 196.114 309.606 196.025C309.81 195.833 310.014 195.64 310.216 195.444C310.228 195.433 310.239 195.423 310.251 195.412C310.335 195.33 310.419 195.247 310.503 195.165C310.864 194.813 311.221 194.457 311.577 194.097C311.643 194.031 311.709 193.965 311.775 193.899C312.063 193.603 312.347 193.306 312.631 193.005C312.712 192.918 312.792 192.832 312.872 192.746C313.099 192.503 313.324 192.259 313.549 192.014C313.943 191.581 314.333 191.145 314.72 190.701C315.336 189.994 315.944 189.273 316.54 188.535C316.543 188.533 316.544 188.529 316.547 188.527C316.857 188.145 317.164 187.756 317.469 187.366C317.521 187.301 317.57 187.232 317.622 187.167C317.882 186.832 318.14 186.496 318.396 186.155C318.586 185.903 318.774 185.65 318.962 185.395C319.054 185.27 319.146 185.142 319.237 185.015C319.444 184.732 319.649 184.446 319.853 184.159C319.896 184.098 319.939 184.038 319.981 183.977C320.202 183.662 320.421 183.345 320.64 183.027C320.703 182.934 320.766 182.841 320.829 182.748C321.067 182.398 321.304 182.045 321.538 181.69C321.747 181.373 321.953 181.055 322.158 180.736C322.216 180.644 322.275 180.551 322.333 180.46C322.488 180.218 322.64 179.974 322.793 179.731C322.88 179.591 322.968 179.45 323.052 179.31C323.14 179.168 323.228 179.026 323.314 178.884C323.506 178.566 323.699 178.247 323.889 177.926C323.95 177.824 324.012 177.722 324.072 177.617C324.567 176.775 325.052 175.922 325.527 175.056C325.574 174.972 325.618 174.886 325.665 174.801C325.845 174.47 326.024 174.137 326.201 173.803C326.346 173.531 326.49 173.259 326.632 172.985C326.642 172.963 326.654 172.941 326.666 172.918C326.69 172.873 326.712 172.829 326.734 172.784C326.9 172.463 327.065 172.141 327.228 171.818C327.265 171.745 327.301 171.672 327.338 171.598C327.486 171.301 327.633 171.004 327.779 170.703C327.828 170.607 327.874 170.509 327.92 170.412C328.043 170.16 328.165 169.908 328.284 169.654C328.362 169.489 328.441 169.326 328.518 169.161C328.632 168.917 328.746 168.673 328.859 168.428C328.93 168.276 328.998 168.123 329.066 167.972C329.168 167.75 329.268 167.528 329.367 167.304C329.444 167.132 329.521 166.958 329.598 166.786C329.692 166.571 329.786 166.355 329.88 166.138C329.955 165.963 330.032 165.787 330.107 165.612C330.199 165.395 330.291 165.178 330.381 164.959C330.457 164.779 330.533 164.6 330.607 164.419C330.687 164.231 330.763 164.041 330.84 163.852C330.928 163.632 331.019 163.413 331.107 163.193C331.233 162.879 331.357 162.564 331.481 162.247C331.582 161.986 331.682 161.723 331.782 161.463C331.843 161.306 331.904 161.151 331.962 160.992C332.017 160.845 332.072 160.698 332.126 160.551C332.235 160.261 332.343 159.971 332.448 159.677C332.485 159.578 332.522 159.478 332.557 159.376C332.627 159.183 332.695 158.988 332.765 158.794C332.863 158.519 332.959 158.245 333.055 157.969C333.15 157.696 333.246 157.42 333.338 157.143C333.358 157.085 333.378 157.028 333.397 156.97C333.491 156.691 333.584 156.411 333.676 156.129C333.724 155.981 333.774 155.835 333.822 155.687C333.917 155.397 334.008 155.105 334.102 154.814C334.141 154.688 334.181 154.565 334.221 154.438C334.268 154.287 334.316 154.136 334.361 153.986C334.439 153.736 334.516 153.485 334.592 153.232C334.64 153.075 334.688 152.917 334.736 152.759C334.835 152.428 334.933 152.094 335.029 151.761C335.055 151.676 335.08 151.59 335.104 151.505C335.204 151.162 335.3 150.819 335.397 150.474C335.427 150.365 335.459 150.257 335.489 150.148C335.57 149.855 335.649 149.561 335.727 149.267C335.779 149.08 335.829 148.894 335.879 148.705C335.936 148.489 335.993 148.273 336.048 148.057C336.104 147.845 336.159 147.633 336.213 147.419C336.308 147.046 336.402 146.672 336.493 146.297C336.637 145.713 336.777 145.126 336.913 144.539C336.981 144.243 337.049 143.946 337.115 143.649C337.27 142.959 337.419 142.265 337.566 141.568C337.595 141.429 337.623 141.29 337.651 141.15C337.803 140.417 337.95 139.681 338.089 138.941C338.102 138.881 338.112 138.819 338.123 138.759C338.18 138.462 338.235 138.163 338.288 137.865C338.324 137.67 338.359 137.476 338.393 137.281C338.452 136.947 338.511 136.61 338.568 136.274C338.576 136.236 338.583 136.196 338.588 136.156C338.606 136.058 338.621 135.962 338.637 135.864C338.687 135.565 338.736 135.264 338.785 134.963C338.889 134.321 338.989 133.676 339.084 133.03C339.118 132.788 339.153 132.546 339.188 132.304C339.245 131.905 339.3 131.506 339.355 131.105C339.375 130.952 339.396 130.8 339.415 130.647C339.467 130.252 339.517 129.855 339.566 129.459C339.583 129.319 339.601 129.18 339.619 129.04C339.674 128.582 339.726 128.124 339.777 127.666C339.787 127.588 339.796 127.511 339.803 127.434C339.865 126.884 339.923 126.331 339.978 125.779C340.009 125.465 340.038 125.15 340.068 124.837C340.13 124.169 340.189 123.501 340.243 122.829C340.254 122.688 340.264 122.545 340.276 122.404C340.303 122.065 340.327 121.724 340.352 121.383C340.364 121.212 340.376 121.041 340.387 120.87C340.409 120.554 340.429 120.239 340.449 119.921C340.46 119.743 340.471 119.565 340.482 119.387C340.499 119.072 340.518 118.757 340.535 118.443C340.544 118.266 340.552 118.091 340.562 117.915C340.579 117.591 340.592 117.266 340.607 116.941C340.615 116.774 340.622 116.607 340.628 116.441C340.643 116.091 340.655 115.74 340.667 115.389C340.672 115.246 340.679 115.103 340.682 114.96C340.696 114.519 340.708 114.077 340.718 113.634C340.72 113.583 340.722 113.533 340.724 113.484C340.728 113.298 340.731 113.113 340.733 112.927C340.737 112.708 340.742 112.487 340.746 112.268C340.754 111.833 340.757 111.399 340.76 110.963C340.761 110.792 340.763 110.621 340.765 110.45C340.764 110.388 340.764 110.327 340.766 110.265C340.765 110.082 340.764 109.897 340.765 109.712C340.764 109.353 340.764 108.995 340.763 108.636C340.76 108.236 340.756 107.835 340.751 107.433C340.745 107.052 340.738 106.67 340.731 106.288C340.727 106.084 340.723 105.882 340.719 105.679C340.705 105.119 340.69 104.56 340.67 103.999C340.667 103.921 340.665 103.84 340.662 103.761C340.653 103.478 340.642 103.194 340.631 102.911C340.617 102.601 340.605 102.292 340.591 101.982C340.58 101.718 340.567 101.454 340.554 101.189C340.54 100.923 340.525 100.658 340.512 100.393C340.496 100.123 340.482 99.8503 340.466 99.5783C340.451 99.3308 340.437 99.0814 340.42 98.8342C340.419 98.8185 340.418 98.8028 340.416 98.7854C340.376 98.132 340.329 97.476 340.28 96.8187C340.269 96.6744 340.258 96.5319 340.247 96.3876C340.195 95.7098 340.141 95.0305 340.079 94.3507C340.031 93.8026 339.98 93.2548 339.926 92.7058C339.877 92.2054 339.824 91.7038 339.771 91.2022C339.754 91.0449 339.737 90.8893 339.72 90.732C339.668 90.2689 339.617 89.8041 339.562 89.3399C339.561 89.3348 339.559 89.3279 339.559 89.3228C339.545 89.2054 339.53 89.09 339.516 88.9726C339.475 88.6292 339.432 88.2844 339.388 87.9417C339.365 87.7519 339.342 87.5621 339.318 87.3726C339.243 86.7974 339.167 86.2241 339.087 85.648C339.024 85.1993 338.959 84.7509 338.894 84.3007C338.816 83.7649 338.736 83.2293 338.653 82.6943C338.63 82.545 338.607 82.3958 338.583 82.2468C338.564 82.1303 338.545 82.0138 338.527 81.899C338.476 81.5802 338.426 81.2632 338.373 80.943C338.35 80.8114 338.328 80.6778 338.306 80.5443C338.228 80.0771 338.147 79.6086 338.065 79.1386L311.56 83.7968L311.562 83.7965Z" fill="#E2A425"/>
<path d="M194.159 104.429L178.709 107.145C179.092 109.322 179.513 111.476 179.967 113.611C180.466 115.946 181.007 118.253 181.587 120.533C190.221 154.364 207.901 182.036 229.216 197.917C232.305 200.219 235.471 202.275 238.697 204.064C244.674 207.381 250.858 209.787 257.141 211.176C258.065 211.38 258.99 211.561 259.918 211.72C263.47 212.332 267.046 212.615 270.632 212.55C270.646 212.549 270.662 212.55 270.678 212.549C271.545 212.534 272.413 212.498 273.281 212.438C217.633 196.713 199.421 131.704 194.159 104.428L194.159 104.429Z" fill="#FECC2F"/>
<path d="M273.28 212.441C272.412 212.5 271.544 212.535 270.677 212.552C270.663 212.552 270.647 212.552 270.631 212.553C271.765 227.653 272.004 247.388 267.818 262.435C267.693 262.884 267.567 263.329 267.432 263.768L273.436 262.713C277.935 246.243 273.281 212.443 273.281 212.443L273.28 212.441Z" fill="#FECC2F"/>
<path d="M273.438 262.711L262.404 264.65C255.426 265.876 250.765 272.525 251.991 279.5L252.444 282.079L263.385 280.156C260.482 267.752 273.438 262.711 273.438 262.711Z" fill="#FECC2F"/>
<path d="M194.159 104.429L178.709 107.145C179.092 109.322 179.513 111.476 179.967 113.611C180.466 115.946 181.007 118.253 181.587 120.533C190.221 154.364 207.901 182.036 229.216 197.917C232.305 200.219 235.471 202.275 238.697 204.064C244.674 207.381 250.858 209.787 257.141 211.176C258.065 211.38 258.99 211.561 259.918 211.72C263.47 212.332 267.046 212.615 270.632 212.55C270.646 212.549 270.662 212.55 270.678 212.549C271.545 212.534 272.413 212.498 273.281 212.438C217.633 196.713 199.421 131.704 194.159 104.428L194.159 104.429Z" fill="#F8DA92"/>
<path d="M263.385 280.157L328.397 268.731L327.944 266.152C326.718 259.177 320.069 254.517 313.092 255.743L308.063 256.627C307.787 256.26 307.515 255.884 307.246 255.505C298.179 242.787 291.677 224.153 287.594 209.571C287.843 209.485 288.092 209.397 288.34 209.308C288.511 209.248 288.681 209.183 288.851 209.12C288.939 209.087 289.027 209.056 289.113 209.023C289.384 208.923 289.653 208.818 289.922 208.712C290.027 208.671 290.134 208.628 290.241 208.585C290.486 208.487 290.733 208.387 290.977 208.284C291.095 208.235 291.216 208.186 291.334 208.135C291.391 208.111 291.449 208.086 291.506 208.06C291.609 208.016 291.711 207.971 291.812 207.925C292.027 207.833 292.24 207.74 292.452 207.644C292.661 207.549 292.869 207.454 293.076 207.358C293.193 207.304 293.31 207.25 293.425 207.195C293.644 207.091 293.862 206.987 294.08 206.88C294.149 206.847 294.22 206.812 294.289 206.777C294.422 206.711 294.553 206.644 294.686 206.576C294.909 206.463 295.133 206.35 295.354 206.236C295.507 206.156 295.662 206.076 295.815 205.994C295.939 205.928 296.064 205.862 296.186 205.795C296.284 205.743 296.381 205.688 296.479 205.634C296.638 205.547 296.797 205.462 296.952 205.375C297.097 205.295 297.239 205.212 297.383 205.131C297.538 205.042 297.696 204.952 297.851 204.863C298.02 204.765 298.189 204.664 298.356 204.563C298.417 204.528 298.476 204.492 298.537 204.455C298.694 204.36 298.853 204.264 299.011 204.167C299.146 204.086 299.281 204.002 299.414 203.919C299.514 203.857 299.615 203.793 299.713 203.73C299.911 203.605 300.109 203.479 300.305 203.352C300.37 203.311 300.435 203.267 300.5 203.225C300.743 203.067 300.984 202.906 301.224 202.744C301.251 202.725 301.281 202.709 301.307 202.69C301.464 202.583 301.62 202.474 301.776 202.368C301.898 202.283 302.023 202.199 302.145 202.112C302.219 202.062 302.29 202.009 302.362 201.957C302.499 201.861 302.637 201.764 302.773 201.666C302.845 201.614 302.917 201.56 302.99 201.509C303.245 201.325 303.496 201.141 303.748 200.952C303.77 200.936 303.792 200.919 303.814 200.903C304.083 200.701 304.352 200.497 304.618 200.29C304.7 200.226 304.781 200.161 304.863 200.098C304.979 200.007 305.096 199.916 305.212 199.823C305.379 199.692 305.544 199.559 305.709 199.427C305.849 199.314 305.99 199.198 306.13 199.084C306.225 199.006 306.322 198.927 306.417 198.847C306.463 198.809 306.508 198.772 306.554 198.734C306.79 198.535 307.025 198.337 307.261 198.136C307.38 198.034 307.498 197.931 307.617 197.827C307.778 197.688 307.939 197.545 308.097 197.405C308.243 197.275 308.386 197.146 308.53 197.017C308.644 196.914 308.756 196.811 308.868 196.709C309.02 196.569 309.173 196.431 309.324 196.29C309.418 196.203 309.513 196.113 309.607 196.025C309.811 195.832 310.015 195.639 310.217 195.444C310.229 195.433 310.239 195.422 310.251 195.411C310.335 195.329 310.42 195.247 310.504 195.165C310.865 194.813 311.221 194.456 311.577 194.096C311.643 194.03 311.71 193.965 311.775 193.899C312.063 193.603 312.347 193.306 312.631 193.005C312.712 192.918 312.793 192.831 312.873 192.745C313.099 192.503 313.324 192.259 313.548 192.013C313.943 191.581 314.333 191.144 314.72 190.701C315.336 189.994 315.945 189.272 316.541 188.535C316.544 188.532 316.546 188.529 316.548 188.526C316.858 188.145 317.164 187.756 317.469 187.366C317.521 187.301 317.57 187.231 317.622 187.166C317.882 186.831 318.141 186.496 318.396 186.155C318.586 185.903 318.774 185.649 318.962 185.394C319.054 185.269 319.147 185.142 319.237 185.015C319.444 184.732 319.65 184.446 319.853 184.158C319.897 184.098 319.939 184.037 319.981 183.977C320.202 183.662 320.422 183.345 320.641 183.026C320.704 182.934 320.767 182.84 320.83 182.748C321.068 182.398 321.304 182.044 321.538 181.689C321.747 181.373 321.954 181.055 322.159 180.736C322.217 180.644 322.276 180.55 322.334 180.459C322.489 180.217 322.641 179.974 322.794 179.731C322.88 179.591 322.968 179.45 323.052 179.31C323.14 179.168 323.228 179.025 323.314 178.884C323.506 178.566 323.699 178.246 323.889 177.926C323.95 177.824 324.013 177.722 324.074 177.618C324.568 176.775 325.052 175.921 325.527 175.055C325.574 174.971 325.619 174.886 325.666 174.801C325.845 174.47 326.025 174.136 326.202 173.802C326.346 173.53 326.49 173.258 326.633 172.985C326.643 172.962 326.655 172.94 326.666 172.917C326.69 172.873 326.713 172.829 326.735 172.784C326.901 172.463 327.065 172.14 327.229 171.817C327.265 171.744 327.302 171.671 327.339 171.597C327.487 171.3 327.633 171.003 327.779 170.703C327.828 170.607 327.875 170.508 327.922 170.412C328.045 170.16 328.165 169.907 328.284 169.654C328.362 169.489 328.441 169.325 328.518 169.16C328.632 168.917 328.746 168.672 328.86 168.427C328.93 168.276 328.998 168.122 329.066 167.971C329.168 167.749 329.268 167.527 329.366 167.304C329.443 167.132 329.521 166.958 329.599 166.786C329.693 166.57 329.786 166.354 329.88 166.137C329.955 165.962 330.032 165.786 330.107 165.611C330.199 165.394 330.292 165.177 330.382 164.959C330.458 164.778 330.534 164.599 330.608 164.418C330.688 164.23 330.763 164.04 330.841 163.851C330.929 163.631 331.019 163.412 331.107 163.192C331.233 162.878 331.358 162.564 331.482 162.246C331.582 161.985 331.682 161.722 331.782 161.461C331.843 161.305 331.904 161.15 331.962 160.992C332.017 160.845 332.072 160.698 332.126 160.551C332.235 160.261 332.343 159.971 332.448 159.678C332.485 159.578 332.522 159.477 332.557 159.376C332.627 159.182 332.696 158.987 332.766 158.793C332.864 158.519 332.959 158.244 333.055 157.969C333.15 157.695 333.246 157.419 333.338 157.143C333.358 157.085 333.378 157.027 333.398 156.969C333.492 156.691 333.585 156.409 333.676 156.127C333.724 155.98 333.775 155.834 333.823 155.687C333.918 155.397 334.009 155.104 334.102 154.813C334.142 154.688 334.182 154.564 334.221 154.437C334.269 154.286 334.316 154.135 334.362 153.984C334.439 153.735 334.517 153.483 334.592 153.231C334.64 153.074 334.688 152.916 334.736 152.758C334.835 152.427 334.933 152.093 335.03 151.761C335.055 151.675 335.081 151.59 335.105 151.505C335.205 151.161 335.3 150.818 335.397 150.474C335.427 150.365 335.46 150.256 335.49 150.147C335.571 149.855 335.649 149.561 335.728 149.267C335.78 149.08 335.829 148.893 335.879 148.704C335.936 148.488 335.993 148.272 336.049 148.057C336.105 147.844 336.16 147.633 336.214 147.419C336.309 147.046 336.403 146.671 336.494 146.296C336.638 145.712 336.777 145.125 336.913 144.538C336.981 144.242 337.049 143.944 337.115 143.647C337.27 142.958 337.419 142.264 337.566 141.567C337.595 141.429 337.624 141.29 337.652 141.15C337.803 140.417 337.95 139.68 338.089 138.94C338.102 138.88 338.112 138.818 338.123 138.759C338.18 138.462 338.235 138.163 338.288 137.865C338.324 137.67 338.359 137.475 338.393 137.28C338.453 136.946 338.512 136.61 338.569 136.275C338.576 136.236 338.583 136.195 338.588 136.155C338.606 136.057 338.621 135.962 338.637 135.864C338.687 135.565 338.737 135.263 338.786 134.962C338.89 134.321 338.989 133.676 339.083 133.03C339.118 132.788 339.154 132.546 339.189 132.304C339.245 131.905 339.301 131.505 339.356 131.104C339.376 130.951 339.397 130.799 339.416 130.646C339.468 130.251 339.518 129.855 339.566 129.459C339.584 129.319 339.602 129.18 339.619 129.039C339.675 128.582 339.727 128.124 339.779 127.666C339.788 127.589 339.797 127.51 339.804 127.433C339.866 126.884 339.924 126.33 339.978 125.779C340.009 125.465 340.038 125.149 340.067 124.836C340.13 124.168 340.19 123.5 340.244 122.829C340.255 122.688 340.264 122.545 340.277 122.404C340.303 122.064 340.328 121.723 340.353 121.383C340.365 121.212 340.377 121.04 340.388 120.869C340.41 120.554 340.429 120.238 340.449 119.921C340.46 119.743 340.471 119.565 340.482 119.387C340.499 119.072 340.517 118.756 340.534 118.442C340.544 118.266 340.552 118.089 340.561 117.913C340.578 117.59 340.593 117.265 340.608 116.94C340.616 116.774 340.623 116.606 340.629 116.44C340.643 116.091 340.656 115.74 340.668 115.389C340.673 115.246 340.68 115.102 340.683 114.959C340.697 114.518 340.709 114.076 340.719 113.634C340.721 113.583 340.722 113.532 340.723 113.483C340.728 113.297 340.731 113.112 340.734 112.926C340.738 112.708 340.742 112.487 340.746 112.268C340.754 111.833 340.757 111.398 340.76 110.963C340.761 110.792 340.764 110.62 340.765 110.449C340.765 110.387 340.764 110.325 340.766 110.264C340.765 110.081 340.765 109.896 340.766 109.711C340.764 109.352 340.765 108.995 340.764 108.636C340.761 108.236 340.756 107.834 340.751 107.431C340.745 107.05 340.738 106.669 340.731 106.287C340.727 106.083 340.723 105.881 340.719 105.678C340.705 105.118 340.69 104.559 340.671 103.999C340.668 103.92 340.666 103.839 340.663 103.76C340.653 103.477 340.641 103.194 340.63 102.91C340.617 102.601 340.604 102.291 340.59 101.981C340.579 101.718 340.568 101.454 340.555 101.188C340.542 100.923 340.525 100.657 340.512 100.392C340.496 100.122 340.482 99.8496 340.466 99.5779C340.451 99.3307 340.438 99.0803 340.421 98.8334C340.42 98.8179 340.418 98.8016 340.417 98.7844C340.376 98.1312 340.33 97.4753 340.282 96.8182C340.27 96.674 340.259 96.5311 340.247 96.387C340.195 95.7092 340.14 95.0298 340.079 94.3502C340.03 93.8024 339.981 93.254 339.927 92.7053C339.877 92.2049 339.824 91.7021 339.771 91.2007C339.754 91.0438 339.737 90.8885 339.72 90.7317C339.669 90.2688 339.616 89.8038 339.561 89.3398L339.558 89.3225C339.545 89.2052 339.53 89.0891 339.516 88.9719C339.475 88.6288 339.433 88.2838 339.389 87.9413C339.366 87.7517 339.343 87.5619 339.319 87.3726C339.244 86.7974 339.168 86.2233 339.088 85.6473C339.025 85.1987 338.96 84.75 338.895 84.3C338.816 83.7645 338.736 83.2291 338.653 82.6945C338.63 82.5452 338.608 82.3947 338.583 82.2458C338.564 82.1295 338.546 82.0131 338.528 81.8985C338.477 81.5799 338.426 81.2631 338.373 80.9431C338.35 80.8117 338.328 80.6778 338.306 80.5444C338.227 80.0775 338.147 79.6079 338.065 79.1382L178.709 107.144C179.092 109.321 179.514 111.476 179.968 113.61C180.467 115.945 181.007 118.253 181.588 120.533C190.222 154.363 207.901 182.035 229.216 197.916C232.305 200.218 235.471 202.275 238.697 204.064C244.675 207.38 250.858 209.786 257.141 211.175C258.065 211.379 258.99 211.561 259.918 211.72C263.47 212.332 267.047 212.614 270.633 212.55C270.647 212.549 270.663 212.55 270.678 212.549M263.384 280.156L252.444 282.079L251.991 279.5C250.765 272.524 255.426 265.876 262.403 264.649L267.433 263.765C267.567 263.327 267.693 262.882 267.819 262.434C272.004 247.387 271.765 227.653 270.631 212.552C270.647 212.551 270.663 212.552 270.677 212.551" stroke="#101828" stroke-width="0.6"/>
<path d="M366.319 144.627C368.107 148.15 374.747 168.308 371.224 170.096C367.701 171.884 355.349 154.626 353.56 151.103C351.772 147.58 353.178 143.274 356.702 141.486C360.225 139.697 364.531 141.104 366.319 144.627Z" fill="#FFEAB4" stroke="#101828" stroke-width="0.6"/>
<path d="M382.148 145.073C381.935 149.018 377.607 169.795 373.662 169.582C369.716 169.369 367.648 148.247 367.861 144.302C368.074 140.357 371.444 137.331 375.39 137.544C379.335 137.756 382.361 141.127 382.148 145.073Z" fill="#FFEAB4" stroke="#FFEAB4" stroke-width="0.6"/>
<path d="M369.419 159.569C370.401 164.873 371.829 169.483 373.662 169.582C377.607 169.795 381.935 149.018 382.148 145.073C382.361 141.127 379.335 137.756 375.39 137.544C371.444 137.331 368.074 140.357 367.861 144.302C367.796 145.499 367.942 148.276 368.285 151.57" stroke="#101828" stroke-width="0.6"/>
<path d="M395.637 153.372C393.48 156.682 379.343 172.511 376.033 170.354C372.722 168.197 381.492 148.871 383.649 145.56C385.806 142.25 390.238 141.315 393.549 143.472C396.859 145.629 397.794 150.061 395.637 153.372Z" fill="#FFEAB4" stroke="#101828" stroke-width="0.6"/>
<path d="M403.163 167.305C399.64 169.093 379.483 175.733 377.694 172.21C375.906 168.687 393.164 156.334 396.687 154.546C400.21 152.758 404.516 154.164 406.305 157.687C408.093 161.21 406.687 165.516 403.163 167.305Z" fill="#FFEAB4" stroke="#FFEAB4" stroke-width="0.6"/>
<path d="M389.917 159.051C392.882 156.866 395.528 155.134 396.687 154.546C400.21 152.758 404.516 154.164 406.305 157.687C408.093 161.21 406.687 165.516 403.163 167.305C399.64 169.093 379.483 175.733 377.694 172.21C377.011 170.863 379.111 168.226 382.163 165.382" stroke="#101828" stroke-width="0.6"/>
<path d="M402.72 183.133C398.775 182.921 377.998 178.592 378.211 174.647C378.424 170.701 399.546 168.633 403.491 168.846C407.436 169.059 410.462 172.43 410.249 176.375C410.037 180.32 406.666 183.346 402.72 183.133Z" fill="#FFEAB4" stroke="#101828" stroke-width="0.6"/>
<path d="M394.421 196.619C391.111 194.462 375.282 180.325 377.439 177.015C379.596 173.704 398.922 182.474 402.233 184.631C405.543 186.788 406.478 191.22 404.321 194.531C402.164 197.841 397.732 198.776 394.421 196.619Z" fill="#FFEAB4" stroke="#FFEAB4" stroke-width="0.6"/>
<path d="M387.673 178.15C382.806 176.469 378.404 175.532 377.439 177.013C375.282 180.324 391.111 194.461 394.421 196.618C397.732 198.775 402.164 197.84 404.321 194.529C406.478 191.219 405.543 186.787 402.233 184.63C401.243 183.985 398.82 182.748 395.854 181.421" stroke="#101828" stroke-width="0.6"/>
<path d="M380.49 204.148C378.701 200.625 372.061 180.467 375.584 178.679C379.108 176.891 391.46 194.149 393.248 197.672C395.037 201.195 393.63 205.501 390.107 207.289C386.584 209.078 382.278 207.671 380.49 204.148Z" fill="#FFEAB4" stroke="#FFEAB4" stroke-width="0.6"/>
<path d="M382.199 182.92C381.831 182.529 381.467 182.156 381.109 181.803C378.782 179.511 376.722 178.101 375.584 178.679C372.061 180.467 378.701 200.625 380.49 204.148C382.278 207.671 386.584 209.078 390.107 207.289C393.63 205.501 395.037 201.195 393.248 197.672C392.67 196.533 390.989 193.96 388.858 191.058" stroke="#101828" stroke-width="0.6"/>
<path d="M364.66 203.702C364.873 199.757 369.202 178.98 373.147 179.193C377.092 179.406 379.161 200.528 378.948 204.473C378.735 208.418 375.364 211.444 371.419 211.231C367.473 211.019 364.448 207.648 364.66 203.702Z" fill="#FFEAB4" stroke="#101828" stroke-width="0.6"/>
<path d="M351.172 195.403C353.328 192.092 367.465 176.263 370.776 178.42C374.086 180.577 365.316 199.903 363.159 203.214C361.002 206.524 356.57 207.459 353.26 205.302C349.95 203.145 349.015 198.713 351.172 195.403Z" fill="#FFEAB4" stroke="#101828" stroke-width="0.6"/>
<path d="M343.645 181.47C347.168 179.682 367.326 173.042 369.114 176.565C370.903 180.088 353.645 192.44 350.122 194.229C346.598 196.017 342.292 194.611 340.504 191.088C338.716 187.565 340.122 183.259 343.645 181.47Z" fill="#FFEAB4" stroke="#FFEAB4" stroke-width="0.6"/>
<path d="M363.197 184.699C366.997 181.379 369.902 178.116 369.114 176.565C367.326 173.042 347.168 179.682 343.645 181.47C340.122 183.259 338.716 187.565 340.504 191.088C342.292 194.611 346.598 196.017 350.122 194.229C351.159 193.702 353.388 192.259 355.972 190.395" stroke="#101828" stroke-width="0.6"/>
<path d="M344.088 165.642C348.034 165.854 368.811 170.183 368.598 174.128C368.385 178.074 347.263 180.142 343.318 179.929C339.372 179.716 336.346 176.345 336.559 172.4C336.772 168.455 340.143 165.429 344.088 165.642Z" fill="#FFEAB4" stroke="#101828" stroke-width="0.6"/>
<path d="M352.387 152.156C355.698 154.313 371.527 168.45 369.37 171.761C367.213 175.071 347.886 166.301 344.576 164.144C341.266 161.987 340.331 157.555 342.488 154.245C344.645 150.934 349.077 149.999 352.387 152.156Z" fill="#FFEAB4" stroke="#FFEAB4" stroke-width="0.6"/>
<path d="M351.925 167.783C348.523 166.297 345.672 164.858 344.576 164.144C341.266 161.987 340.331 157.555 342.488 154.245C344.645 150.934 349.077 149.999 352.387 152.156C355.698 154.313 371.527 168.45 369.37 171.761C368.526 173.055 365.056 172.502 360.945 171.22" stroke="#101828" stroke-width="0.6"/>
<circle cx="372.809" cy="174.193" r="9.05879" transform="rotate(-26.9125 372.809 174.193)" fill="#E7A200" stroke="#101828" stroke-width="0.6"/>
<path opacity="0.1" d="M376.903 182.272C380.362 180.517 382.21 176.845 381.81 173.204C381.056 175.303 379.53 177.129 377.385 178.218C372.924 180.483 367.472 178.702 365.207 174.241C364.698 173.238 364.394 172.186 364.278 171.131C363.464 173.396 363.55 175.979 364.725 178.295C366.99 182.756 372.442 184.537 376.903 182.272Z" fill="#101828"/>
<path d="M312.777 238.723C321.809 230.363 354.317 211.699 376.821 215.436C366.505 227.896 332.197 252.301 312.777 238.723Z" fill="#2DA17D"/>
<path d="M317.784 234.748C330.611 225.628 357.43 212.215 376.82 215.436C366.826 227.507 334.313 250.79 314.636 239.884" stroke="#101828" stroke-width="0.6"/>
<path d="M323 237C326.889 236.259 337.333 233.222 348 227C358.667 220.778 369.111 217.741 373 217" stroke="#101828" stroke-width="0.6"/>
<path d="M251.28 263.549C244.54 255.724 220.784 238.651 205.076 243.003C212.905 254.767 238.185 277.356 251.28 263.549Z" fill="#2DA17D"/>
<path d="M247.572 259.852C238.121 251.41 218.611 239.253 205.076 243.004C212.661 254.401 236.625 275.957 250.02 264.736" stroke="#101828" stroke-width="0.6"/>
<path d="M243.972 262.193C241.177 261.595 231.844 256.567 225.769 253.227C219.694 249.887 210.361 244.859 207.566 244.261" stroke="#101828" stroke-width="0.6"/>
<path d="M115 118L114.864 123.793C114.598 135.136 123.864 144.402 135.207 144.136L141 144L135.207 143.864C123.864 143.598 114.598 152.864 114.864 164.207L115 170L115.136 164.207C115.402 152.864 106.136 143.598 94.7927 143.864L89 144L94.7927 144.136C106.136 144.402 115.402 135.136 115.136 123.793L115 118Z" fill="white" stroke="#101828" stroke-width="0.6"/>
<path d="M415 106L414.927 109.119C414.783 115.227 419.773 120.217 425.881 120.073L429 120L425.881 119.927C419.773 119.783 414.783 124.773 414.927 130.881L415 134L415.073 130.881C415.217 124.773 410.227 119.783 404.119 119.927L401 120L404.119 120.073C410.227 120.217 415.217 115.227 415.073 109.119L415 106Z" fill="white" stroke="#101828" stroke-width="0.6"/>
<path d="M155 245L154.948 247.228C154.845 251.591 158.409 255.155 162.772 255.052L165 255L162.772 254.948C158.409 254.845 154.845 258.409 154.948 262.772L155 265L155.052 262.772C155.155 258.409 151.591 254.845 147.228 254.948L145 255L147.228 255.052C151.591 255.155 155.155 251.591 155.052 247.228L155 245Z" fill="white" stroke="#101828" stroke-width="0.6"/>
<rect x="90" y="209" width="41" height="41" rx="5" fill="white"/>
<path d="M103.582 231.67H102.527C102.236 231.67 102 231.434 102 231.143V227.451C102 227.16 102.236 226.924 102.527 226.924H103.582V231.67Z" fill="#669CE2"/>
<path d="M107.273 237.559H105.691C105.4 237.559 105.164 237.323 105.164 237.032V233.692H107.801V237.032C107.801 237.323 107.565 237.559 107.273 237.559Z" fill="#669CE2"/>
<path d="M107.801 225.958H105.164C104.873 225.958 104.637 226.194 104.637 226.485V232.11C104.637 232.401 104.873 232.637 105.164 232.637H107.801V225.958Z" fill="#669CE2"/>
<path d="M117.667 222.539C117.463 222.395 117.194 222.415 117.014 222.575C114.759 224.57 111.863 225.762 108.855 225.935V232.661C111.863 232.833 114.759 234.025 117.014 236.021C117.112 236.108 117.237 236.153 117.363 236.153C117.458 236.153 117.553 236.128 117.638 236.076C117.798 235.978 117.891 235.799 117.891 235.611V222.982C117.891 222.807 117.811 222.639 117.667 222.539Z" fill="#669CE2"/>
<path d="M118.945 227.19V231.406C119.585 230.924 120 230.158 120 229.298C120 228.437 119.585 227.671 118.945 227.19Z" fill="#669CE2"/>
<rect x="432.055" y="171.055" width="40.9451" height="40.9451" rx="4.9933" fill="#EBF4FF"/>
<g clip-path="url(#clip2_8823_12444)">
<path d="M463.856 185.675C464.006 185.524 464.073 185.309 464.033 185.099C463.993 184.89 463.853 184.713 463.657 184.628L461.484 183.683L460.722 181.481C460.649 181.272 460.473 181.114 460.257 181.064C460.041 181.015 459.814 181.08 459.657 181.237L458.428 182.466C456.774 181.551 454.878 181.051 453.035 181.051C450.099 181.051 447.338 182.194 445.261 184.271C443.185 186.347 442.041 189.108 442.041 192.045C442.041 194.982 443.185 197.742 445.261 199.819C447.338 201.896 450.099 203.039 453.035 203.039C455.972 203.039 458.733 201.896 460.809 199.819C462.886 197.742 464.03 194.982 464.03 192.045C464.03 190.216 463.574 188.42 462.71 186.821L463.856 185.675ZM459.341 188.367L458.009 188.009L461.112 184.927L462.275 185.433L459.341 188.367ZM459.098 192.045C459.098 195.388 456.378 198.108 453.035 198.108C449.692 198.108 446.972 195.388 446.972 192.045C446.972 188.702 449.692 185.982 453.035 185.982C454.042 185.982 454.9 186.181 455.721 186.605L456.054 188.135L455.236 188.947C454.615 188.504 453.855 188.243 453.035 188.243C450.939 188.243 449.233 189.949 449.233 192.045C449.233 194.141 450.939 195.847 453.035 195.847C455.132 195.847 456.837 194.141 456.837 192.045C456.837 191.233 456.581 190.479 456.145 189.861L456.951 189.06L458.536 189.486C458.919 190.269 459.098 191.087 459.098 192.045ZM455.548 192.045C455.548 193.43 454.421 194.558 453.035 194.558C451.65 194.558 450.522 193.43 450.522 192.045C450.522 190.659 451.65 189.532 453.035 189.532C453.497 189.532 453.929 189.658 454.301 189.876L452.558 191.607C452.306 191.858 452.305 192.266 452.555 192.518C452.681 192.645 452.847 192.709 453.013 192.709C453.177 192.709 453.341 192.646 453.467 192.521L455.21 190.789C455.425 191.159 455.548 191.588 455.548 192.045ZM459.84 182.876L460.226 183.99L457.139 187.057L456.875 185.842L459.84 182.876ZM462.74 192.045C462.74 194.637 461.731 197.074 459.898 198.907C458.065 200.74 455.628 201.75 453.035 201.75C450.443 201.75 448.006 200.74 446.173 198.907C444.34 197.074 443.33 194.637 443.33 192.045C443.33 189.453 444.34 187.015 446.173 185.182C448.006 183.349 450.443 182.34 453.035 182.34C454.542 182.34 456.091 182.72 457.474 183.419L455.714 185.179C455.713 185.181 455.711 185.182 455.709 185.184C454.882 184.855 454.001 184.693 453.035 184.693C448.981 184.693 445.683 187.991 445.683 192.045C445.683 196.099 448.981 199.397 453.035 199.397C457.089 199.397 460.387 196.099 460.387 192.045C460.387 191.137 460.252 190.33 459.969 189.56C459.976 189.554 459.983 189.548 459.989 189.542L461.753 187.778C462.401 189.1 462.74 190.56 462.74 192.045Z" fill="#669CE2"/>
</g>
</g>
<defs>
<linearGradient id="paint0_linear_8823_12444" x1="280" y1="0" x2="280" y2="394" gradientUnits="userSpaceOnUse">
<stop stop-color="#DCEBFF"/>
<stop offset="1" stop-color="#B0D3FF"/>
</linearGradient>
<linearGradient id="paint1_linear_8823_12444" x1="272.26" y1="7.77614" x2="272.26" y2="170.522" gradientUnits="userSpaceOnUse">
<stop stop-color="white" stop-opacity="0"/>
<stop offset="1" stop-color="white"/>
</linearGradient>
<linearGradient id="paint2_linear_8823_12444" x1="352.579" y1="23.8935" x2="287.727" y2="177.071" gradientUnits="userSpaceOnUse">
<stop stop-color="white" stop-opacity="0"/>
<stop offset="1" stop-color="white"/>
</linearGradient>
<linearGradient id="paint3_linear_8823_12444" x1="416.989" y1="69.0516" x2="287.095" y2="186.877" gradientUnits="userSpaceOnUse">
<stop stop-color="white" stop-opacity="0"/>
<stop offset="1" stop-color="white"/>
</linearGradient>
<linearGradient id="paint4_linear_8823_12444" x1="452.735" y1="134.307" x2="274.848" y2="180.49" gradientUnits="userSpaceOnUse">
<stop stop-color="white" stop-opacity="0"/>
<stop offset="1" stop-color="white"/>
</linearGradient>
<linearGradient id="paint5_linear_8823_12444" x1="452.734" y1="206.736" x2="274.847" y2="160.554" gradientUnits="userSpaceOnUse">
<stop stop-color="white" stop-opacity="0"/>
<stop offset="1" stop-color="white"/>
</linearGradient>
<linearGradient id="paint6_linear_8823_12444" x1="416.99" y1="271.993" x2="287.095" y2="154.168" gradientUnits="userSpaceOnUse">
<stop stop-color="white" stop-opacity="0"/>
<stop offset="1" stop-color="white"/>
</linearGradient>
<linearGradient id="paint7_linear_8823_12444" x1="352.578" y1="317.152" x2="287.726" y2="163.975" gradientUnits="userSpaceOnUse">
<stop stop-color="white" stop-opacity="0"/>
<stop offset="1" stop-color="white"/>
</linearGradient>
<linearGradient id="paint8_linear_8823_12444" x1="272.26" y1="333.269" x2="272.26" y2="170.522" gradientUnits="userSpaceOnUse">
<stop stop-color="white" stop-opacity="0"/>
<stop offset="1" stop-color="white"/>
</linearGradient>
<linearGradient id="paint9_linear_8823_12444" x1="191.941" y1="317.151" x2="256.793" y2="163.974" gradientUnits="userSpaceOnUse">
<stop stop-color="white" stop-opacity="0"/>
<stop offset="1" stop-color="white"/>
</linearGradient>
<linearGradient id="paint10_linear_8823_12444" x1="127.53" y1="271.993" x2="257.425" y2="154.168" gradientUnits="userSpaceOnUse">
<stop stop-color="white" stop-opacity="0"/>
<stop offset="1" stop-color="white"/>
</linearGradient>
<linearGradient id="paint11_linear_8823_12444" x1="91.7844" y1="206.738" x2="269.671" y2="160.555" gradientUnits="userSpaceOnUse">
<stop stop-color="white" stop-opacity="0"/>
<stop offset="1" stop-color="white"/>
</linearGradient>
<linearGradient id="paint12_linear_8823_12444" x1="91.7852" y1="134.309" x2="269.672" y2="180.491" gradientUnits="userSpaceOnUse">
<stop stop-color="white" stop-opacity="0"/>
<stop offset="1" stop-color="white"/>
</linearGradient>
<linearGradient id="paint13_linear_8823_12444" x1="127.53" y1="69.0517" x2="257.424" y2="186.877" gradientUnits="userSpaceOnUse">
<stop stop-color="white" stop-opacity="0"/>
<stop offset="1" stop-color="white"/>
</linearGradient>
<linearGradient id="paint14_linear_8823_12444" x1="191.941" y1="23.8925" x2="256.793" y2="177.07" gradientUnits="userSpaceOnUse">
<stop stop-color="white" stop-opacity="0"/>
<stop offset="1" stop-color="white"/>
</linearGradient>
<linearGradient id="paint15_linear_8823_12444" x1="234" y1="337.5" x2="384.271" y2="337.5" gradientUnits="userSpaceOnUse">
<stop offset="0.202434" stop-color="#101828"/>
<stop offset="1" stop-color="#101828" stop-opacity="0.1"/>
</linearGradient>
<clipPath id="clip0_8823_12444">
<path d="M0 10C0 4.47716 4.47715 0 10 0H550C555.523 0 560 4.47715 560 10V384C560 389.523 555.523 394 550 394H10C4.47715 394 0 389.523 0 384V10Z" fill="white"/>
</clipPath>
<clipPath id="clip1_8823_12444">
<rect width="17.7073" height="17.7073" fill="white" transform="translate(394.049 249.565)"/>
</clipPath>
<clipPath id="clip2_8823_12444">
<rect width="22.0034" height="22.0034" fill="white" transform="translate(442.041 181.042)"/>
</clipPath>
</defs>
</svg>
