<svg width="723" height="410" viewBox="0 0 723 410" fill="none" xmlns="http://www.w3.org/2000/svg">
<path d="M781.356 283.248C780.991 246.389 758.823 219.409 729.257 200.449C724.025 197.094 718.552 193.985 712.917 191.11L712.933 191.073C712.739 190.988 712.543 190.905 712.348 190.821C704.762 186.979 696.886 183.559 688.903 180.538C658.201 167.37 621.953 132.006 596.586 90.4033L594.899 91.4311L593.213 92.4598C613.743 126.13 641.47 156.019 668.015 173.559C655.423 169.872 642.96 167.107 631.334 165.167C599.689 159.887 561.413 151.633 528.15 137.681C494.824 123.703 466.934 104.174 455.457 76.591C446.702 55.5501 451.935 33.2653 465.818 14.629C479.712 -4.02233 502.167 -18.8356 527.363 -24.6775L526.916 -26.603L526.47 -28.5279C500.401 -22.4835 477.125 -7.16408 462.649 12.2676C448.162 31.7141 442.386 55.4623 451.809 78.1095C463.895 107.157 492.998 127.222 526.621 141.325C560.307 155.454 598.938 163.768 630.683 169.065C647.258 171.831 665.497 176.285 683.317 182.691C659.484 179.248 633.547 182.952 614.004 197.989L616.414 201.122C642.854 180.778 682.241 182.142 710.67 194.401C716.354 197.284 721.867 200.404 727.125 203.776C756.056 222.33 777.057 248.251 777.404 283.287L779.379 283.267L781.356 283.248Z" fill="#00A47B"/>
<path d="M781.356 283.248L781.706 283.245C781.707 283.337 781.671 283.427 781.606 283.493C781.541 283.559 781.452 283.597 781.359 283.598L781.356 283.248ZM729.257 200.449L729.446 200.155L729.446 200.155L729.257 200.449ZM712.917 191.11L712.757 191.422C712.593 191.338 712.522 191.141 712.595 190.971L712.917 191.11ZM712.933 191.073L713.074 190.752C713.25 190.83 713.33 191.035 713.254 191.212L712.933 191.073ZM712.348 190.821L712.209 191.142C712.203 191.139 712.196 191.136 712.19 191.133L712.348 190.821ZM688.903 180.538L688.779 180.865C688.774 180.863 688.769 180.861 688.765 180.859L688.903 180.538ZM596.586 90.4033L596.404 90.1044C596.569 90.0039 596.784 90.0561 596.885 90.2211L596.586 90.4033ZM594.899 91.4311L594.717 91.1323L594.717 91.1322L594.899 91.4311ZM593.213 92.4598L592.914 92.642C592.814 92.477 592.866 92.2616 593.031 92.161L593.213 92.4598ZM668.015 173.559L668.207 173.267C668.352 173.362 668.405 173.549 668.332 173.706C668.259 173.863 668.082 173.943 667.916 173.895L668.015 173.559ZM631.334 165.167L631.392 164.822L631.392 164.822L631.334 165.167ZM528.15 137.681L528.015 138.004L528.015 138.004L528.15 137.681ZM455.457 76.591L455.134 76.7255L455.134 76.7255L455.457 76.591ZM465.818 14.629L465.537 14.4199L465.537 14.4199L465.818 14.629ZM527.363 -24.6775L527.704 -24.7566C527.725 -24.6662 527.709 -24.5711 527.66 -24.4923C527.61 -24.4135 527.532 -24.3575 527.442 -24.3365L527.363 -24.6775ZM526.916 -26.603L526.575 -26.5239L526.575 -26.5241L526.916 -26.603ZM526.47 -28.5279L526.391 -28.8688C526.481 -28.8898 526.577 -28.874 526.655 -28.8248C526.734 -28.7757 526.79 -28.6973 526.811 -28.6068L526.47 -28.5279ZM462.649 12.2676L462.368 12.0585L462.368 12.0585L462.649 12.2676ZM451.809 78.1095L451.486 78.244L451.486 78.244L451.809 78.1095ZM526.621 141.325L526.486 141.647L526.486 141.647L526.621 141.325ZM630.683 169.065L630.741 168.72L630.741 168.72L630.683 169.065ZM683.317 182.691L683.435 182.362C683.605 182.422 683.7 182.601 683.657 182.776C683.613 182.95 683.445 183.063 683.267 183.037L683.317 182.691ZM614.004 197.989L613.727 198.202C613.609 198.049 613.638 197.829 613.791 197.711L614.004 197.989ZM616.414 201.122L616.628 201.399C616.554 201.456 616.461 201.481 616.369 201.469C616.277 201.457 616.193 201.409 616.137 201.335L616.414 201.122ZM710.67 194.401L710.808 194.079C710.815 194.082 710.821 194.085 710.828 194.088L710.67 194.401ZM727.125 203.776L727.314 203.482L727.314 203.482L727.125 203.776ZM777.404 283.287L777.407 283.637C777.314 283.638 777.225 283.602 777.159 283.537C777.092 283.472 777.055 283.383 777.054 283.29L777.404 283.287ZM779.379 283.267L779.375 282.917L779.375 282.917L779.379 283.267ZM781.356 283.248L781.006 283.252C780.643 246.554 758.578 219.668 729.068 200.744L729.257 200.449L729.446 200.155C759.068 219.151 781.339 246.224 781.706 283.245L781.356 283.248ZM729.257 200.449L729.068 200.744C723.847 197.395 718.384 194.293 712.757 191.422L712.917 191.11L713.076 190.798C718.721 193.678 724.203 196.793 729.446 200.155L729.257 200.449ZM712.917 191.11L712.595 190.971L712.611 190.934L712.933 191.073L713.254 191.212L713.238 191.249L712.917 191.11ZM712.933 191.073L712.792 191.393C712.598 191.308 712.409 191.229 712.209 191.142L712.348 190.821L712.487 190.5C712.676 190.582 712.879 190.667 713.074 190.752L712.933 191.073ZM712.348 190.821L712.19 191.133C704.617 187.298 696.752 183.883 688.779 180.865L688.903 180.538L689.026 180.21C697.021 183.236 704.908 186.661 712.506 190.509L712.348 190.821ZM688.903 180.538L688.765 180.859C657.972 167.653 621.675 132.223 596.287 90.5855L596.586 90.4033L596.885 90.2211C622.23 131.789 658.43 167.088 689.04 180.216L688.903 180.538ZM596.586 90.4033L596.768 90.7022L595.081 91.7299L594.899 91.4311L594.717 91.1322L596.404 90.1044L596.586 90.4033ZM594.899 91.4311L595.082 91.7299L593.395 92.7586L593.213 92.4598L593.031 92.161L594.717 91.1323L594.899 91.4311ZM593.213 92.4598L593.512 92.2776C614.021 125.913 641.714 155.761 668.207 173.267L668.015 173.559L667.822 173.851C641.226 156.277 613.465 126.347 592.914 92.642L593.213 92.4598ZM668.015 173.559L667.916 173.895C655.339 170.212 642.889 167.45 631.277 165.512L631.334 165.167L631.392 164.822C643.03 166.764 655.507 169.532 668.113 173.223L668.015 173.559ZM631.334 165.167L631.277 165.512C599.622 160.23 561.315 151.971 528.015 138.004L528.15 137.681L528.285 137.358C561.511 151.294 599.755 159.543 631.392 164.822L631.334 165.167ZM528.15 137.681L528.015 138.004C494.662 124.015 466.665 104.438 455.134 76.7255L455.457 76.591L455.78 76.4565C467.203 103.91 494.986 123.391 528.285 137.358L528.15 137.681ZM455.457 76.591L455.134 76.7255C446.32 55.5424 451.601 33.1281 465.537 14.4199L465.818 14.629L466.099 14.838C452.269 33.4026 447.084 55.5579 455.78 76.4566L455.457 76.591ZM465.818 14.629L465.537 14.4199C479.483 -4.30055 502.01 -19.1586 527.284 -25.0184L527.363 -24.6775L527.442 -24.3365C502.323 -18.5126 479.941 -3.74411 466.099 14.838L465.818 14.629ZM527.363 -24.6775L527.022 -24.5984L526.575 -26.5239L526.916 -26.603L527.257 -26.6821L527.704 -24.7566L527.363 -24.6775ZM526.916 -26.603L526.575 -26.5241L526.129 -28.4489L526.47 -28.5279L526.811 -28.6068L527.257 -26.682L526.916 -26.603ZM526.47 -28.5279L526.549 -28.1869C500.557 -22.1605 477.354 -6.88586 462.93 12.4767L462.649 12.2676L462.368 12.0585C476.895 -7.44231 500.244 -22.8065 526.391 -28.8688L526.47 -28.5279ZM462.649 12.2676L462.93 12.4767C448.497 31.8515 442.768 55.4701 452.132 77.9751L451.809 78.1095L451.486 78.244C442.003 55.4544 447.828 31.5766 462.368 12.0585L462.649 12.2676ZM451.809 78.1095L452.132 77.975C464.165 106.892 493.16 126.91 526.756 141.002L526.621 141.325L526.486 141.647C492.836 127.534 463.626 107.421 451.486 78.244L451.809 78.1095ZM526.621 141.325L526.756 141.002C560.405 155.115 599.005 163.424 630.741 168.72L630.683 169.065L630.625 169.41C598.872 164.112 560.209 155.792 526.486 141.647L526.621 141.325ZM630.683 169.065L630.741 168.72C647.334 171.489 665.593 175.948 683.435 182.362L683.317 182.691L683.199 183.02C665.401 176.623 647.182 172.173 630.625 169.41L630.683 169.065ZM683.317 182.691L683.267 183.037C659.496 179.604 633.664 183.304 614.218 198.266L614.004 197.989L613.791 197.711C633.431 182.6 659.472 178.893 683.367 182.345L683.317 182.691ZM614.004 197.989L614.282 197.775L616.692 200.909L616.414 201.122L616.137 201.335L613.727 198.202L614.004 197.989ZM616.414 201.122L616.201 200.845C642.775 180.398 682.308 181.789 710.808 194.079L710.67 194.401L710.531 194.722C682.175 182.494 642.934 181.159 616.628 201.399L616.414 201.122ZM710.67 194.401L710.828 194.088C716.522 196.976 722.045 200.103 727.314 203.482L727.125 203.776L726.936 204.071C721.689 200.706 716.186 197.591 710.511 194.713L710.67 194.401ZM727.125 203.776L727.314 203.482C756.302 222.071 777.405 248.086 777.754 283.283L777.404 283.287L777.054 283.29C776.708 248.415 755.811 222.588 726.936 204.071L727.125 203.776ZM777.404 283.287L777.4 282.937L779.375 282.917L779.379 283.267L779.382 283.617L777.407 283.637L777.404 283.287ZM779.379 283.267L779.375 282.917L781.352 282.898L781.356 283.248L781.359 283.598L779.382 283.617L779.379 283.267Z" fill="black"/>
<ellipse cx="588.383" cy="69.0312" rx="6.97768" ry="29.7539" transform="rotate(-23.0283 588.383 69.0312)" fill="#FFCA00" stroke="black" stroke-width="0.7"/>
<ellipse cx="6.97768" cy="29.7539" rx="6.97768" ry="29.7539" transform="matrix(-0.808409 0.588621 0.588621 0.808409 569.176 45.0215)" fill="#FFCA00" stroke="black" stroke-width="0.7"/>
<ellipse cx="6.97768" cy="29.7539" rx="6.97768" ry="29.7539" transform="matrix(-0.86998 0.493088 0.493088 0.86998 575.725 41.0928)" fill="#F8DA92" stroke="black" stroke-width="0.7"/>
<ellipse cx="592.001" cy="67.5863" rx="6.97768" ry="29.7539" transform="rotate(-14.5437 592.001 67.5863)" fill="#F8DA92" stroke="black" stroke-width="0.7"/>
<ellipse cx="6.97768" cy="29.7539" rx="6.97768" ry="29.7539" transform="matrix(-0.712715 0.701454 0.701454 0.712715 562.123 49.4053)" fill="#F8DA92"/>
<path d="M598.892 96.7119C596.145 99.415 584.575 92.1121 573.048 80.4004C561.521 68.6886 554.403 57.003 557.15 54.2998C559.897 51.5966 571.467 58.8995 582.994 70.6113C584.819 72.4658 586.534 74.3197 588.116 76.1373C589.399 77.6105 590.595 79.0599 591.692 80.4666" stroke="black" stroke-width="0.7"/>
<path d="M601.861 83.4873C600.309 86.3943 597.366 88.4562 595.174 89.6989C592.982 90.928 589.756 92.3445 586.518 92.1859C589.515 94.4724 595.837 100.402 597.149 105.832C598.776 112.562 603.933 114.759 608.091 112.49L608.092 112.492C608.101 112.487 608.11 112.481 608.119 112.475C608.146 112.461 608.174 112.448 608.201 112.432L608.198 112.427C612.281 110.025 613.046 104.472 608.108 99.62C604.123 95.7044 602.283 87.2333 601.861 83.4873Z" fill="#00A47B"/>
<path d="M601.861 83.4873L601.553 83.3224C601.625 83.1872 601.777 83.1147 601.927 83.1436C602.078 83.1724 602.192 83.2958 602.209 83.4481L601.861 83.4873ZM595.174 89.6989L595.346 90.0034L595.345 90.0042L595.174 89.6989ZM586.518 92.1859L586.306 92.4642C586.184 92.3712 586.137 92.2098 586.189 92.0658C586.242 91.9219 586.382 91.8289 586.535 91.8364L586.518 92.1859ZM597.149 105.832L597.49 105.75L597.49 105.75L597.149 105.832ZM608.091 112.49L607.924 112.183C608.091 112.091 608.302 112.151 608.396 112.317L608.091 112.49ZM608.092 112.492L608.265 112.796C608.184 112.842 608.089 112.854 607.999 112.829C607.91 112.804 607.834 112.745 607.788 112.664L608.092 112.492ZM608.119 112.475L607.945 112.172L607.95 112.169L608.119 112.475ZM608.201 112.432L608.506 112.26C608.601 112.428 608.542 112.641 608.374 112.737L608.201 112.432ZM608.198 112.427L607.894 112.6C607.8 112.433 607.856 112.222 608.021 112.125L608.198 112.427ZM608.108 99.62L608.353 99.3704L608.353 99.3704L608.108 99.62ZM601.861 83.4873L602.17 83.6522C600.569 86.6497 597.554 88.7523 595.346 90.0034L595.174 89.6989L595.001 89.3944C597.179 88.1601 600.048 86.139 601.553 83.3224L601.861 83.4873ZM595.174 89.6989L595.345 90.0042C593.138 91.2419 589.84 92.699 586.501 92.5355L586.518 92.1859L586.535 91.8364C589.672 91.9899 592.827 90.6141 595.003 89.3936L595.174 89.6989ZM586.518 92.1859L586.73 91.9077C588.246 93.0639 590.594 95.1341 592.73 97.601C594.86 100.061 596.814 102.952 597.49 105.75L597.149 105.832L596.809 105.914C596.173 103.282 594.309 100.493 592.201 98.0593C590.099 95.6322 587.787 93.5944 586.306 92.4642L586.518 92.1859ZM597.149 105.832L597.49 105.75C598.285 109.042 599.932 111.18 601.84 112.229C603.743 113.276 605.945 113.262 607.924 112.183L608.091 112.49L608.259 112.797C606.079 113.987 603.624 114.009 601.502 112.842C599.385 111.677 597.64 109.352 596.809 105.914L597.149 105.832ZM608.091 112.49L608.396 112.317L608.397 112.319L608.092 112.492L607.788 112.664L607.787 112.663L608.091 112.49ZM608.092 112.492L607.92 112.187C607.919 112.188 607.918 112.188 607.917 112.189C607.917 112.189 607.916 112.189 607.916 112.189C607.916 112.189 607.916 112.189 607.917 112.189C607.918 112.188 607.918 112.188 607.919 112.187C607.921 112.186 607.925 112.184 607.929 112.181C607.933 112.179 607.939 112.175 607.945 112.172L608.119 112.475L608.293 112.779C608.295 112.778 608.296 112.777 608.296 112.778C608.295 112.778 608.295 112.778 608.292 112.78C608.288 112.782 608.277 112.789 608.265 112.796L608.092 112.492ZM608.119 112.475L607.95 112.169C607.97 112.158 607.989 112.148 608.001 112.142C608.015 112.135 608.023 112.131 608.029 112.128L608.201 112.432L608.374 112.737C608.353 112.749 608.333 112.759 608.319 112.766C608.303 112.774 608.295 112.778 608.288 112.782L608.119 112.475ZM608.201 112.432L607.897 112.605L607.894 112.6L608.198 112.427L608.503 112.255L608.506 112.26L608.201 112.432ZM608.198 112.427L608.021 112.125C609.963 110.983 611.106 109.101 611.186 106.93C611.266 104.754 610.279 102.244 607.863 99.8697L608.108 99.62L608.353 99.3704C610.875 101.849 611.974 104.54 611.886 106.955C611.797 109.374 610.516 111.47 608.376 112.729L608.198 112.427ZM608.108 99.62L607.863 99.8697C605.809 97.8524 604.332 94.6909 603.316 91.5993C602.297 88.4988 601.727 85.4208 601.514 83.5265L601.861 83.4873L602.209 83.4481C602.418 85.2998 602.978 88.3303 603.981 91.3808C604.986 94.4402 606.421 97.4721 608.353 99.3704L608.108 99.62Z" fill="black"/>
<g opacity="0.1">
<path d="M558.5 53.5454C557.898 53.5937 557.392 53.7854 557.02 54.1513C556.633 54.5319 556.431 55.0608 556.383 55.6943C556.335 56.3265 556.439 57.0756 556.673 57.9174C557.141 59.6012 558.144 61.6995 559.587 64.0678C562.473 68.8074 567.145 74.669 572.916 80.5323C577.571 85.2622 582.237 89.2764 586.33 92.2068C586.339 92.254 586.364 92.2978 586.404 92.3283C587.893 93.4641 590.213 95.5091 592.322 97.945C594.435 100.385 596.318 103.196 596.963 105.864C597.786 109.271 599.511 111.557 601.584 112.696C603.652 113.833 606.044 113.816 608.175 112.66C608.184 112.657 608.193 112.653 608.201 112.649C608.212 112.642 608.223 112.635 608.231 112.63L608.274 112.606C608.283 112.601 608.294 112.596 608.306 112.589C608.314 112.585 608.321 112.579 608.329 112.573C610.414 111.339 611.658 109.295 611.745 106.937C611.761 106.505 611.737 106.064 611.674 105.616C611.166 106.218 610.545 106.744 609.822 107.172C609.815 107.177 609.807 107.183 609.799 107.188C609.788 107.194 609.776 107.2 609.768 107.204L609.725 107.228C609.716 107.234 609.706 107.241 609.694 107.247C609.686 107.252 609.677 107.255 609.669 107.258C607.538 108.414 605.145 108.431 603.077 107.294C601.005 106.155 599.28 103.869 598.457 100.463C597.812 97.7941 595.929 94.983 593.816 92.5432C591.706 90.1073 589.386 88.0623 587.897 86.9265C587.857 86.8959 587.833 86.8522 587.824 86.805C583.73 83.8746 579.064 79.8604 574.409 75.1305C568.639 69.2672 563.967 63.4056 561.08 58.6659C559.919 56.7589 559.042 55.0268 558.5 53.5454Z" fill="black"/>
<path d="M563.523 48.8962C563.815 49.013 564.116 49.1424 564.426 49.2844C564.367 49.0556 564.312 48.8321 564.263 48.6142C563.992 48.6627 563.744 48.7558 563.523 48.8962Z" fill="black"/>
<path d="M569.904 44.478C569.892 44.3894 569.883 44.3014 569.872 44.2145C569.788 44.2437 569.707 44.2783 569.628 44.319C569.719 44.3704 569.811 44.4233 569.904 44.478Z" fill="black"/>
</g>
<ellipse cx="580.029" cy="-15.5355" rx="8.76087" ry="37.3577" transform="rotate(109.533 580.029 -15.5355)" fill="#F8DA92"/>
<ellipse cx="580.029" cy="-15.5355" rx="8.76087" ry="37.3577" transform="rotate(109.533 580.029 -15.5355)" fill="#F8DA92"/>
<path d="M544.821 -28.0259C543.204 -23.4659 557.655 -14.1771 577.1 -7.27882C596.545 -0.380552 613.619 1.51496 615.237 -3.04508C616.855 -7.60512 602.403 -16.8939 582.958 -23.7922C576.774 -25.986 570.83 -27.6738 565.547 -28.8089" stroke="black" stroke-width="0.7"/>
<path opacity="0.1" fill-rule="evenodd" clip-rule="evenodd" d="M594.788 -86.1482C594.765 -85.9133 594.731 -85.67 594.687 -85.419C594.58 -85.377 594.472 -85.334 594.364 -85.2901C594.511 -85.5802 594.653 -85.8663 594.788 -86.1482ZM615.401 -5.07246C615.138 -5.73722 614.689 -6.43774 614.081 -7.16375C613.912 -7.12851 613.738 -7.09605 613.56 -7.06626C611.388 -6.70379 608.462 -6.73141 604.999 -7.11585C598.068 -7.88533 588.914 -10.0906 579.176 -13.5452C569.438 -16.9998 545.66 -28.022 545.66 -28.022C545.66 -28.022 546.498 -28.1394 543.298 -28.1662C540.088 -28.1931 536.825 -27.6984 534.575 -26.164C531.699 -24.2034 528.894 -23.9294 526.575 -24.899C524.294 -25.8528 522.542 -27.9862 521.664 -30.7555C521.638 -30.7889 521.618 -30.827 521.608 -30.8686C521.581 -30.9769 521.556 -31.0847 521.532 -31.191C521.503 -31.2953 521.474 -31.4029 521.446 -31.5124C521.435 -31.5556 521.435 -31.5989 521.442 -31.6401C521.356 -32.1086 521.298 -32.5731 521.269 -33.0306C521.12 -32.8784 520.978 -32.7196 520.843 -32.5546C519.279 -30.6401 518.736 -27.9341 519.264 -25.0778C519.257 -25.0366 519.257 -24.9933 519.268 -24.9501C519.295 -24.8406 519.325 -24.7329 519.354 -24.6286C519.378 -24.5223 519.402 -24.4145 519.429 -24.3063C519.44 -24.2647 519.46 -24.2266 519.485 -24.1932C520.364 -21.4239 522.116 -19.2904 524.397 -18.3367C526.716 -17.3671 529.52 -17.6411 532.396 -19.6017C534.647 -21.1361 537.909 -21.6308 541.12 -21.6039C544.32 -21.5771 547.413 -21.033 549.276 -20.5404C549.276 -20.5404 551.663 -19.0573 552.896 -18.2648C558.762 -14.4941 567.26 -10.4375 576.998 -6.98285C586.735 -3.52827 595.889 -1.323 602.82 -0.553515C606.283 -0.169077 609.209 -0.141454 611.382 -0.503926C612.468 -0.685166 613.382 -0.96647 614.084 -1.3614C614.788 -1.75764 615.296 -2.2776 615.53 -2.93733C615.764 -3.59711 615.698 -4.3209 615.401 -5.07246Z" fill="black"/>
<ellipse cx="6.71816" cy="27.3071" rx="6.71816" ry="27.3071" transform="matrix(0.748318 0.659431 0.638385 -0.773404 571.258 237.23)" fill="#FFCA00" stroke="black" stroke-width="0.7"/>
<ellipse cx="6.72752" cy="27.2652" rx="6.72752" ry="27.2652" transform="matrix(-0.630865 -0.775961 0.765763 -0.643031 571.889 238.814)" fill="#FFCA00" stroke="black" stroke-width="0.7"/>
<ellipse cx="6.72495" cy="27.2767" rx="6.72495" ry="27.2767" transform="matrix(-0.695732 -0.716393 0.700803 -0.715472 576.676 243.065)" fill="#F8DA92" stroke="black" stroke-width="0.7"/>
<ellipse cx="6.7057" cy="27.3627" rx="6.7057" ry="27.3627" transform="matrix(0.802197 0.590524 0.562963 -0.831593 575.396 241.465)" fill="#F8DA92" stroke="black" stroke-width="0.7"/>
<ellipse cx="6.724" cy="27.281" rx="6.724" ry="27.281" transform="matrix(-0.554743 -0.833939 0.828171 -0.55732 567.57 234.425)" fill="#F8DA92"/>
<path d="M609.027 198.409C606.967 195.312 595.181 199.609 582.703 208.006C570.225 216.403 561.78 225.721 563.84 228.817C565.9 231.914 577.686 227.618 590.164 219.221C592.139 217.891 594.014 216.538 595.762 215.191C597.179 214.099 598.512 213.01 599.748 211.94" stroke="black" stroke-width="0.7"/>
<path d="M609.303 213.146C609.307 210.011 607.668 206.061 606.419 203.974L606.421 203.974C605.181 201.921 603.611 199.929 600.889 198.475C605.281 197.333 608.213 197.286 614.013 192.976C621.289 187.57 625.339 188.895 627.576 192.632L627.565 192.639C629.28 196.08 627.671 198.325 625.89 199.551C624.092 200.789 621.655 200.832 618.619 202.107C612.447 204.7 609.306 213.138 609.303 213.146Z" fill="#00A47B"/>
<path d="M609.303 213.146L608.953 213.145C608.953 213.315 609.074 213.46 609.24 213.49C609.407 213.52 609.572 213.426 609.631 213.268L609.303 213.146ZM606.419 203.974L606.392 203.625C606.271 203.634 606.164 203.705 606.108 203.813C606.052 203.921 606.056 204.05 606.118 204.154L606.419 203.974ZM606.421 203.974L606.447 204.323C606.569 204.314 606.676 204.242 606.732 204.134C606.788 204.026 606.783 203.897 606.721 203.793L606.421 203.974ZM600.889 198.475L600.801 198.136C600.662 198.172 600.559 198.29 600.542 198.433C600.525 198.577 600.597 198.716 600.724 198.783L600.889 198.475ZM614.013 192.976L614.222 193.257L614.222 193.257L614.013 192.976ZM627.576 192.632L627.756 192.933C627.922 192.833 627.976 192.618 627.876 192.453L627.576 192.632ZM627.565 192.639L627.385 192.339C627.228 192.432 627.17 192.631 627.252 192.795L627.565 192.639ZM625.89 199.551L626.089 199.839L626.089 199.839L625.89 199.551ZM618.619 202.107L618.484 201.785L618.484 201.785L618.619 202.107ZM609.303 213.146L609.653 213.146C609.655 211.524 609.234 209.712 608.662 208.053C608.089 206.391 607.357 204.86 606.719 203.794L606.419 203.974L606.118 204.154C606.73 205.175 607.442 206.662 608 208.281C608.559 209.902 608.955 211.632 608.953 213.145L609.303 213.146ZM606.419 203.974L606.445 204.323L606.447 204.323L606.421 203.974L606.394 203.625L606.392 203.625L606.419 203.974ZM606.421 203.974L606.721 203.793C605.462 201.71 603.852 199.661 601.054 198.166L600.889 198.475L600.724 198.783C603.37 200.197 604.899 202.132 606.121 204.155L606.421 203.974ZM600.889 198.475L600.977 198.813C603.132 198.253 605.016 197.942 607.037 197.244C609.083 196.538 611.298 195.43 614.222 193.257L614.013 192.976L613.805 192.695C610.929 194.832 608.777 195.903 606.809 196.583C604.816 197.271 603.038 197.554 600.801 198.136L600.889 198.475ZM614.013 192.976L614.222 193.257C617.835 190.573 620.584 189.609 622.665 189.725C624.717 189.839 626.197 191.011 627.276 192.812L627.576 192.632L627.876 192.453C626.717 190.516 625.054 189.157 622.704 189.026C620.381 188.897 617.468 189.974 613.805 192.695L614.013 192.976ZM627.576 192.632L627.396 192.332L627.385 192.339L627.565 192.639L627.745 192.939L627.756 192.933L627.576 192.632ZM627.565 192.639L627.252 192.795C628.073 194.443 628.082 195.765 627.709 196.807C627.331 197.86 626.545 198.675 625.692 199.263L625.89 199.551L626.089 199.839C627.016 199.2 627.925 198.279 628.368 197.043C628.815 195.796 628.772 194.275 627.878 192.483L627.565 192.639ZM625.89 199.551L625.692 199.263C624.848 199.844 623.844 200.152 622.628 200.477C621.424 200.8 620.029 201.136 618.484 201.785L618.619 202.107L618.755 202.43C620.246 201.804 621.587 201.481 622.809 201.153C624.02 200.829 625.134 200.496 626.089 199.839L625.89 199.551ZM618.619 202.107L618.484 201.785C615.3 203.122 612.923 205.951 611.353 208.407C609.777 210.871 608.981 213.008 608.975 213.023L609.303 213.146L609.631 213.268C609.628 213.276 610.404 211.19 611.942 208.784C613.486 206.371 615.766 203.685 618.755 202.43L618.619 202.107Z" fill="black"/>
<path opacity="0.1" fill-rule="evenodd" clip-rule="evenodd" d="M625.946 190.852C625.777 190.515 625.593 190.193 625.391 189.891C626.34 190.468 627.115 191.315 627.747 192.333C627.762 192.351 627.775 192.37 627.786 192.391L627.79 192.399L627.799 192.414L627.805 192.423C627.813 192.436 627.825 192.454 627.836 192.473C627.854 192.504 627.866 192.538 627.873 192.572C628.727 194.325 628.763 195.809 628.326 197.027C627.886 198.252 626.985 199.167 626.062 199.803C625.114 200.455 624.006 200.787 622.795 201.111C622.653 201.149 622.508 201.187 622.362 201.226L622.353 201.228C621.252 201.52 620.051 201.837 618.736 202.389C615.735 203.65 613.448 206.346 611.903 208.762C611.155 209.932 610.587 211.026 610.201 211.841C610.043 212.206 609.879 212.576 609.708 212.951C609.631 213.141 609.591 213.247 609.589 213.25C609.575 213.29 609.552 213.324 609.524 213.353C607.637 217.434 605.001 222.081 601.8 226.809C597.536 233.107 593.068 238.373 589.283 241.795C587.393 243.504 585.661 244.766 584.2 245.461C582.763 246.146 581.481 246.331 580.594 245.678C579.708 245.025 579.446 243.704 579.583 242.063C579.553 242.073 579.523 242.083 579.494 242.093C579.619 241.061 579.894 239.862 580.307 238.528C581.194 237.999 582.142 237.354 583.139 236.606C587.219 233.542 592.148 228.705 596.967 222.822C600.585 218.405 603.633 214.017 605.885 210.125C605.915 210.098 605.941 210.066 605.959 210.029L605.964 210.018L605.978 209.99C605.99 209.965 606.008 209.929 606.032 209.882C606.052 209.843 606.076 209.796 606.105 209.742C606.309 209.383 606.506 209.03 606.696 208.681C607.155 207.904 607.82 206.867 608.671 205.77C610.43 203.504 612.953 201.028 616.056 200.046C617.417 199.615 618.64 199.409 619.764 199.219L619.983 199.182L620.085 199.164L620.216 199.142C621.451 198.929 622.584 198.7 623.587 198.137C624.564 197.588 625.546 196.759 626.095 195.579C626.641 194.405 626.74 192.924 626.05 191.101C626.046 191.066 626.037 191.031 626.022 190.999C626.017 190.989 626.011 190.978 626.007 190.969L626 190.955L625.995 190.947L625.991 190.938L625.984 190.926C625.983 190.922 625.981 190.917 625.979 190.912C625.97 190.891 625.959 190.871 625.946 190.852Z" fill="#2E2E2E"/>
<path d="M187.073 489.524C184.007 452.791 203.567 423.866 231.241 402.237C236.138 398.41 241.298 394.806 246.642 391.418L246.621 391.379C246.827 391.264 247.035 391.153 247.242 391.039C254.395 386.539 261.872 382.426 269.492 378.696C298.854 362.753 331.691 324.141 353.095 280.323L354.87 281.19L356.645 282.057C339.335 317.496 314.504 349.838 289.704 369.771C301.902 364.926 314.059 361.011 325.458 357.997C356.475 349.795 393.816 338.016 425.637 321.031C457.518 304.013 483.469 281.973 492.33 253.442C499.089 231.678 491.806 209.976 476.249 192.712C460.68 175.434 436.945 162.774 411.315 159.302L411.58 157.344L411.845 155.386C438.364 158.979 462.965 172.065 479.186 190.066C495.419 208.08 503.379 231.189 496.103 254.615C486.772 284.66 459.663 307.346 427.498 324.516C395.272 341.718 357.583 353.591 326.469 361.818C310.229 366.113 292.491 372.241 275.35 380.272C298.754 374.633 324.912 375.911 345.763 389.06L343.656 392.403C315.46 374.622 276.41 379.622 249.249 394.446C243.835 397.856 238.616 401.489 233.675 405.351C206.595 426.516 188.097 454.278 191.012 489.195L189.043 489.359L187.073 489.524Z" fill="#00A47B"/>
<path d="M187.073 489.524L186.724 489.554C186.732 489.646 186.776 489.732 186.847 489.792C186.918 489.852 187.01 489.881 187.102 489.873L187.073 489.524ZM231.241 402.237L231.026 401.962L231.026 401.962L231.241 402.237ZM246.642 391.418L246.829 391.714C246.983 391.616 247.037 391.417 246.952 391.256L246.642 391.418ZM246.621 391.379L246.451 391.073C246.285 391.165 246.223 391.373 246.311 391.541L246.621 391.379ZM247.242 391.039L247.41 391.346C247.416 391.343 247.423 391.339 247.429 391.336L247.242 391.039ZM269.492 378.696L269.646 379.01C269.651 379.008 269.655 379.006 269.659 379.003L269.492 378.696ZM353.095 280.323L353.248 280.008C353.165 279.967 353.069 279.961 352.981 279.992C352.893 280.022 352.821 280.086 352.78 280.169L353.095 280.323ZM354.87 281.19L354.716 281.504L354.716 281.504L354.87 281.19ZM356.645 282.057L356.96 282.211C357.045 282.037 356.973 281.828 356.799 281.743L356.645 282.057ZM289.704 369.771L289.484 369.498C289.349 369.606 289.314 369.797 289.401 369.947C289.488 370.096 289.672 370.16 289.833 370.096L289.704 369.771ZM325.458 357.997L325.368 357.658L325.368 357.658L325.458 357.997ZM425.637 321.031L425.802 321.34L425.802 321.34L425.637 321.031ZM492.33 253.442L492.665 253.546L492.665 253.546L492.33 253.442ZM476.249 192.712L476.509 192.478L476.509 192.478L476.249 192.712ZM411.315 159.302L410.968 159.255C410.955 159.347 410.98 159.44 411.036 159.514C411.092 159.588 411.176 159.636 411.268 159.649L411.315 159.302ZM411.58 157.344L411.927 157.391L411.927 157.391L411.58 157.344ZM411.845 155.386L411.892 155.039C411.8 155.027 411.707 155.052 411.633 155.108C411.559 155.164 411.51 155.247 411.498 155.339L411.845 155.386ZM479.186 190.066L479.446 189.832L479.446 189.832L479.186 190.066ZM496.103 254.615L496.438 254.719L496.438 254.718L496.103 254.615ZM427.498 324.516L427.662 324.825L427.662 324.825L427.498 324.516ZM326.469 361.818L326.558 362.157L326.558 362.157L326.469 361.818ZM275.35 380.272L275.202 379.955C275.039 380.031 274.96 380.218 275.02 380.388C275.079 380.557 275.257 380.654 275.432 380.612L275.35 380.272ZM345.763 389.06L346.059 389.247C346.162 389.083 346.113 388.867 345.95 388.764L345.763 389.06ZM343.656 392.403L343.469 392.699C343.548 392.749 343.643 392.765 343.733 392.745C343.824 392.724 343.903 392.668 343.952 392.59L343.656 392.403ZM249.249 394.446L249.081 394.138C249.075 394.142 249.068 394.146 249.062 394.15L249.249 394.446ZM233.675 405.351L233.46 405.075L233.46 405.075L233.675 405.351ZM191.012 489.195L191.041 489.544C191.133 489.536 191.219 489.492 191.279 489.421C191.339 489.35 191.368 489.259 191.361 489.166L191.012 489.195ZM189.043 489.359L189.013 489.011L189.013 489.011L189.043 489.359ZM187.073 489.524L187.422 489.495C184.369 452.923 203.835 424.101 231.457 402.513L231.241 402.237L231.026 401.962C203.299 423.631 183.645 452.659 186.724 489.554L187.073 489.524ZM231.241 402.237L231.457 402.513C236.344 398.693 241.494 395.096 246.829 391.714L246.642 391.418L246.455 391.123C241.102 394.516 235.933 398.126 231.026 401.962L231.241 402.237ZM246.642 391.418L246.952 391.256L246.931 391.216L246.621 391.379L246.311 391.541L246.332 391.581L246.642 391.418ZM246.621 391.379L246.791 391.685C246.996 391.571 247.199 391.462 247.41 391.346L247.242 391.039L247.074 390.732C246.871 390.843 246.658 390.958 246.451 391.073L246.621 391.379ZM247.242 391.039L247.429 391.336C254.57 386.842 262.036 382.736 269.646 379.01L269.492 378.696L269.339 378.381C261.709 382.117 254.22 386.235 247.056 390.743L247.242 391.039ZM269.492 378.696L269.659 379.003C299.108 363.014 331.987 324.332 353.409 280.476L353.095 280.323L352.78 280.169C331.394 323.951 298.6 362.493 269.325 378.388L269.492 378.696ZM353.095 280.323L352.941 280.637L354.716 281.504L354.87 281.19L355.023 280.876L353.248 280.008L353.095 280.323ZM354.87 281.19L354.716 281.504L356.492 282.372L356.645 282.057L356.799 281.743L355.023 280.875L354.87 281.19ZM356.645 282.057L356.331 281.904C339.038 317.306 314.237 349.603 289.484 369.498L289.704 369.771L289.923 370.043C314.771 350.072 339.631 317.686 356.96 282.211L356.645 282.057ZM289.704 369.771L289.833 370.096C302.018 365.257 314.161 361.346 325.547 358.335L325.458 357.997L325.368 357.658C313.957 360.676 301.787 364.595 289.575 369.445L289.704 369.771ZM325.458 357.997L325.547 358.335C356.573 350.131 393.945 338.344 425.802 321.34L425.637 321.031L425.472 320.722C393.688 337.689 356.377 349.459 325.368 357.658L325.458 357.997ZM425.637 321.031L425.802 321.34C457.708 304.308 483.762 282.211 492.665 253.546L492.33 253.442L491.996 253.338C483.177 281.735 457.328 303.717 425.472 320.722L425.637 321.031ZM492.33 253.442L492.665 253.546C499.469 231.635 492.126 209.808 476.509 192.478L476.249 192.712L475.989 192.946C491.486 210.144 498.709 231.721 491.996 253.338L492.33 253.442ZM476.249 192.712L476.509 192.478C460.882 175.136 437.07 162.438 411.362 158.955L411.315 159.302L411.268 159.649C436.819 163.11 460.478 175.733 475.989 192.946L476.249 192.712ZM411.315 159.302L411.661 159.349L411.927 157.391L411.58 157.344L411.233 157.297L410.968 159.255L411.315 159.302ZM411.58 157.344L411.927 157.391L412.192 155.433L411.845 155.386L411.498 155.339L411.233 157.297L411.58 157.344ZM411.845 155.386L411.798 155.733C438.238 159.315 462.763 172.364 478.926 190.3L479.186 190.066L479.446 189.832C463.167 171.767 438.489 158.643 411.892 155.039L411.845 155.386ZM479.186 190.066L478.926 190.3C495.099 208.248 502.999 231.232 495.769 254.511L496.103 254.615L496.438 254.718C503.759 231.146 495.738 207.912 479.446 189.832L479.186 190.066ZM496.103 254.615L495.769 254.511C486.479 284.422 459.473 307.051 427.333 324.207L427.498 324.516L427.662 324.825C459.853 307.642 487.064 284.898 496.438 254.719L496.103 254.615ZM427.498 324.516L427.333 324.207C395.143 341.39 357.485 353.254 326.379 361.48L326.469 361.818L326.558 362.157C357.681 353.927 395.401 342.046 427.662 324.825L427.498 324.516ZM326.469 361.818L326.379 361.48C310.122 365.779 292.363 371.914 275.202 379.955L275.35 380.272L275.499 380.589C292.618 372.568 310.337 366.446 326.558 362.157L326.469 361.818ZM275.35 380.272L275.432 380.612C298.775 374.988 324.829 376.272 345.576 389.356L345.763 389.06L345.95 388.764C324.995 375.55 298.732 374.278 275.268 379.932L275.35 380.272ZM345.763 389.06L345.467 388.873L343.36 392.217L343.656 392.403L343.952 392.59L346.059 389.247L345.763 389.06ZM343.656 392.403L343.843 392.107C315.504 374.236 276.311 379.278 249.081 394.138L249.249 394.446L249.416 394.753C276.509 379.967 315.417 375.008 343.469 392.699L343.656 392.403ZM249.249 394.446L249.062 394.15C243.639 397.566 238.41 401.206 233.46 405.075L233.675 405.351L233.891 405.626C238.821 401.773 244.03 398.147 249.435 394.742L249.249 394.446ZM233.675 405.351L233.46 405.075C206.326 426.281 187.735 454.147 190.663 489.224L191.012 489.195L191.361 489.166C188.459 454.41 206.863 426.75 233.891 405.626L233.675 405.351ZM191.012 489.195L190.983 488.846L189.013 489.011L189.043 489.359L189.072 489.708L191.041 489.544L191.012 489.195ZM189.043 489.359L189.013 489.011L187.044 489.176L187.073 489.524L187.102 489.873L189.072 489.708L189.043 489.359Z" fill="black"/>
<ellipse cx="6.97768" cy="29.7539" rx="6.97768" ry="29.7539" transform="matrix(-0.952716 -0.303863 -0.303863 0.952716 374.961 232.061)" fill="#FFCA00" stroke="black" stroke-width="0.7"/>
<ellipse cx="366.959" cy="261.735" rx="6.97768" ry="29.7539" transform="rotate(30.7207 366.959 261.735)" fill="#FFCA00" stroke="black" stroke-width="0.7"/>
<ellipse cx="363.44" cy="259.29" rx="6.97768" ry="29.7539" transform="rotate(24.2053 363.44 259.29)" fill="#F8DA92" stroke="black" stroke-width="0.7"/>
<ellipse cx="6.97768" cy="29.7539" rx="6.97768" ry="29.7539" transform="matrix(-0.987121 -0.159972 -0.159971 0.987122 367.182 228.929)" fill="#F8DA92" stroke="black" stroke-width="0.7"/>
<ellipse cx="370.193" cy="263.768" rx="6.97768" ry="29.7539" transform="rotate(39.2053 370.193 263.768)" fill="#F8DA92"/>
<path d="M351.386 286.824C354.372 289.26 365.213 280.912 375.6 268.179C385.987 255.445 391.987 243.148 389.001 240.712C386.015 238.276 375.173 246.624 364.786 259.358C363.142 261.374 361.607 263.379 360.2 265.336C359.06 266.922 358.005 268.477 357.043 269.979" stroke="black" stroke-width="0.7"/>
<path d="M347.191 273.933C349.008 276.683 352.129 278.462 354.428 279.495L354.426 279.5C356.722 280.519 360.066 281.63 363.276 281.17C360.504 283.726 354.761 290.218 353.96 295.747C352.958 302.658 347.948 305.314 343.57 303.346L343.574 303.337C339.286 301.325 338.008 295.867 342.473 290.577C346.076 286.307 347.12 277.702 347.191 273.933Z" fill="#00A47B"/>
<path d="M347.191 273.933L347.483 273.74C347.399 273.612 347.241 273.554 347.094 273.596C346.947 273.639 346.844 273.773 346.841 273.926L347.191 273.933ZM354.428 279.495L354.747 279.639C354.826 279.462 354.748 279.255 354.571 279.176L354.428 279.495ZM354.426 279.5L354.107 279.356C354.068 279.441 354.066 279.538 354.099 279.625C354.132 279.711 354.199 279.782 354.284 279.819L354.426 279.5ZM363.276 281.17L363.513 281.428C363.626 281.324 363.658 281.159 363.592 281.02C363.526 280.882 363.378 280.802 363.226 280.824L363.276 281.17ZM353.96 295.747L353.613 295.696L353.613 295.696L353.96 295.747ZM343.57 303.346L343.251 303.203C343.213 303.287 343.21 303.384 343.243 303.471C343.276 303.557 343.342 303.628 343.427 303.666L343.57 303.346ZM343.574 303.337L343.894 303.48C343.972 303.306 343.896 303.101 343.723 303.02L343.574 303.337ZM342.473 290.577L342.205 290.351L342.205 290.351L342.473 290.577ZM347.191 273.933L346.899 274.126C348.772 276.961 351.97 278.774 354.284 279.814L354.428 279.495L354.571 279.176C352.288 278.15 349.243 276.404 347.483 273.74L347.191 273.933ZM354.428 279.495L354.109 279.352L354.107 279.356L354.426 279.5L354.745 279.643L354.747 279.639L354.428 279.495ZM354.426 279.5L354.284 279.819C356.596 280.846 360.016 281.99 363.325 281.517L363.276 281.17L363.226 280.824C360.117 281.269 356.848 280.192 354.568 279.18L354.426 279.5ZM363.276 281.17L363.038 280.913C361.637 282.205 359.492 284.485 357.594 287.14C355.702 289.787 354.026 292.848 353.613 295.696L353.96 295.747L354.306 295.797C354.695 293.116 356.291 290.167 358.164 287.547C360.031 284.935 362.143 282.691 363.513 281.428L363.276 281.17ZM353.96 295.747L353.613 295.696C353.123 299.078 351.661 301.37 349.837 302.585C348.017 303.797 345.798 303.964 343.714 303.027L343.57 303.346L343.427 303.666C345.721 304.697 348.196 304.519 350.225 303.167C352.251 301.818 353.795 299.327 354.306 295.797L353.96 295.747ZM343.57 303.346L343.889 303.49L343.894 303.48L343.574 303.337L343.255 303.193L343.251 303.203L343.57 303.346ZM343.574 303.337L343.723 303.02C341.683 302.063 340.37 300.295 340.088 298.141C339.806 295.983 340.556 293.391 342.74 290.802L342.473 290.577L342.205 290.351C339.925 293.053 339.081 295.835 339.394 298.232C339.708 300.632 341.178 302.599 343.426 303.653L343.574 303.337ZM342.473 290.577L342.74 290.802C344.597 288.603 345.774 285.317 346.498 282.145C347.224 278.963 347.505 275.845 347.541 273.939L347.191 273.933L346.841 273.926C346.806 275.789 346.53 278.859 345.815 281.989C345.099 285.129 343.952 288.281 342.205 290.351L342.473 290.577Z" fill="black"/>
<g opacity="0.1">
<path d="M387.581 240.088C388.185 240.08 388.708 240.223 389.112 240.553C389.532 240.896 389.782 241.404 389.889 242.03C389.996 242.655 389.962 243.411 389.808 244.271C389.498 245.991 388.695 248.173 387.479 250.665C385.045 255.653 380.939 261.924 375.739 268.299C371.544 273.441 367.272 277.872 363.469 281.171C363.465 281.218 363.444 281.264 363.407 281.298C362.03 282.568 359.911 284.82 358.037 287.441C356.16 290.067 354.547 293.041 354.153 295.758C353.65 299.227 352.146 301.663 350.188 302.99C348.235 304.315 345.851 304.52 343.622 303.568C343.613 303.565 343.604 303.563 343.595 303.559C343.583 303.553 343.572 303.548 343.563 303.543L343.518 303.523C343.509 303.519 343.497 303.515 343.486 303.509C343.477 303.506 343.469 303.501 343.461 303.496C341.27 302.46 339.841 300.541 339.535 298.202C339.479 297.773 339.462 297.331 339.483 296.879C340.044 297.431 340.712 297.897 341.471 298.256C341.479 298.261 341.487 298.266 341.496 298.27C341.508 298.275 341.52 298.28 341.529 298.284L341.573 298.304C341.582 298.308 341.594 298.314 341.606 298.319C341.614 298.323 341.623 298.326 341.632 298.328C343.861 299.281 346.245 299.075 348.198 297.751C350.156 296.424 351.661 293.987 352.163 290.519C352.557 287.802 354.171 284.828 356.047 282.202C357.921 279.58 360.041 277.328 361.417 276.059C361.454 276.025 361.475 275.979 361.479 275.931C365.282 272.633 369.555 268.202 373.75 263.059C378.95 256.684 383.056 250.414 385.489 245.426C386.468 243.419 387.18 241.613 387.581 240.088Z" fill="black"/>
<path d="M382.148 235.926C381.868 236.069 381.58 236.226 381.284 236.396C381.323 236.163 381.356 235.936 381.385 235.714C381.659 235.737 381.914 235.807 382.148 235.926Z" fill="black"/>
<path d="M375.383 232.121C375.387 232.031 375.388 231.943 375.391 231.855C375.477 231.876 375.561 231.903 375.644 231.937C375.558 231.996 375.471 232.058 375.383 232.121Z" fill="black"/>
</g>
<ellipse cx="8.76087" cy="37.3577" rx="8.76087" ry="37.3577" transform="matrix(-0.0380907 0.999274 0.999274 0.0380908 321.43 146.479)" fill="#FFCA00" stroke="black" stroke-width="0.7"/>
<ellipse cx="8.76087" cy="37.3577" rx="8.76087" ry="37.3577" transform="matrix(0.308749 0.951144 0.951144 -0.308748 320.619 169.384)" fill="#FFCA00" stroke="black" stroke-width="0.7"/>
<ellipse cx="363.832" cy="133.668" rx="8.76087" ry="37.3577" transform="rotate(-54.6193 363.832 133.668)" fill="#FFCA00" stroke="black" stroke-width="0.7"/>
<ellipse cx="360.635" cy="142.261" rx="8.76087" ry="37.3577" transform="rotate(-74.7861 360.635 142.261)" fill="#FFCA00" stroke="black" stroke-width="0.7"/>
<ellipse cx="356.403" cy="148.974" rx="8.76087" ry="37.3577" transform="rotate(-81.3016 356.403 148.974)" fill="#F8DA92" stroke="black" stroke-width="0.7"/>
<path d="M320.28 166.688C319.565 161.903 335.529 155.554 355.935 152.506C361.3 151.705 366.439 151.215 371.112 151.01C366.715 149.418 361.96 147.413 357.081 145.045C338.52 136.036 325.185 125.204 327.298 120.851C329.411 116.499 346.17 120.274 364.732 129.283C383.293 138.291 396.628 149.123 394.515 153.476C394.325 153.867 394.016 154.191 393.599 154.453C393.915 154.826 394.112 155.225 394.176 155.653C394.89 160.438 378.928 166.788 358.522 169.835C338.117 172.882 320.995 171.474 320.28 166.688Z" fill="#F8DA92"/>
<path d="M320.28 166.688L319.934 166.74L319.934 166.74L320.28 166.688ZM355.935 152.506L355.883 152.16L355.883 152.16L355.935 152.506ZM371.112 151.01L371.127 151.36L371.231 150.681L371.112 151.01ZM357.081 145.045L356.928 145.36L356.928 145.36L357.081 145.045ZM327.298 120.851L326.983 120.699L326.983 120.699L327.298 120.851ZM364.732 129.283L364.884 128.968L364.884 128.968L364.732 129.283ZM394.515 153.476L394.83 153.629L394.83 153.629L394.515 153.476ZM393.599 154.453L393.413 154.157L393.07 154.372L393.332 154.68L393.599 154.453ZM394.176 155.653L394.522 155.601L394.522 155.601L394.176 155.653ZM358.522 169.835L358.574 170.181L358.574 170.181L358.522 169.835ZM320.28 166.688L320.626 166.637C320.553 166.145 320.688 165.607 321.065 165.019C321.443 164.428 322.054 163.804 322.893 163.16C324.571 161.872 327.104 160.549 330.316 159.271C336.737 156.717 345.802 154.373 355.986 152.853L355.935 152.506L355.883 152.16C345.661 153.687 336.542 156.041 330.058 158.62C326.818 159.909 324.219 161.26 322.467 162.604C321.591 163.276 320.913 163.958 320.475 164.641C320.036 165.328 319.829 166.035 319.934 166.74L320.28 166.688ZM355.935 152.506L355.986 152.853C361.341 152.053 366.467 151.564 371.127 151.36L371.112 151.01L371.096 150.66C366.411 150.866 361.26 151.357 355.883 152.16L355.935 152.506ZM371.112 151.01L371.231 150.681C366.846 149.093 362.102 147.093 357.234 144.73L357.081 145.045L356.928 145.36C361.817 147.733 366.584 149.743 370.993 151.339L371.112 151.01ZM357.081 145.045L357.234 144.73C347.97 140.234 340.021 135.287 334.657 130.931C331.973 128.75 329.953 126.73 328.736 125C328.128 124.135 327.732 123.357 327.547 122.679C327.364 122.005 327.396 121.451 327.613 121.004L327.298 120.851L326.983 120.699C326.672 121.34 326.658 122.077 326.872 122.863C327.085 123.647 327.529 124.499 328.164 125.402C329.433 127.209 331.51 129.276 334.216 131.474C339.632 135.874 347.631 140.847 356.928 145.36L357.081 145.045ZM327.298 120.851L327.613 121.004C327.83 120.557 328.245 120.19 328.888 119.917C329.534 119.642 330.391 119.473 331.447 119.415C333.559 119.3 336.396 119.638 339.77 120.398C346.511 121.916 355.315 125.101 364.579 129.597L364.732 129.283L364.884 128.968C355.587 124.455 346.731 121.248 339.924 119.715C336.523 118.949 333.614 118.596 331.409 118.716C330.307 118.776 329.362 118.955 328.615 119.272C327.865 119.591 327.294 120.058 326.983 120.699L327.298 120.851ZM364.732 129.283L364.579 129.597C373.843 134.094 381.792 139.04 387.155 143.397C389.839 145.577 391.86 147.597 393.076 149.328C393.685 150.193 394.081 150.971 394.265 151.648C394.449 152.323 394.417 152.876 394.2 153.323L394.515 153.476L394.83 153.629C395.141 152.988 395.155 152.251 394.941 151.464C394.728 150.681 394.284 149.828 393.649 148.925C392.379 147.119 390.302 145.052 387.597 142.854C382.18 138.454 374.182 133.48 364.884 128.968L364.732 129.283ZM394.515 153.476L394.2 153.323C394.044 153.645 393.785 153.923 393.413 154.157L393.599 154.453L393.785 154.75C394.247 154.459 394.606 154.089 394.83 153.629L394.515 153.476ZM393.599 154.453L393.332 154.68C393.614 155.013 393.777 155.353 393.83 155.705L394.176 155.653L394.522 155.601C394.447 155.098 394.216 154.64 393.865 154.227L393.599 154.453ZM394.176 155.653L393.83 155.705C393.903 156.196 393.768 156.734 393.391 157.323C393.013 157.914 392.402 158.538 391.563 159.182C389.885 160.469 387.353 161.793 384.14 163.071C377.719 165.625 368.655 167.968 358.471 169.489L358.522 169.835L358.574 170.181C368.795 168.655 377.915 166.3 384.399 163.721C387.638 162.433 390.237 161.081 391.989 159.737C392.865 159.065 393.543 158.384 393.981 157.7C394.42 157.014 394.627 156.306 394.522 155.601L394.176 155.653ZM358.522 169.835L358.471 169.489C348.286 171.01 338.932 171.417 332.046 170.85C328.6 170.567 325.791 170.041 323.81 169.3C322.819 168.929 322.053 168.511 321.518 168.056C320.986 167.603 320.7 167.128 320.626 166.637L320.28 166.688L319.934 166.74C320.039 167.445 320.444 168.061 321.065 168.589C321.683 169.115 322.531 169.568 323.565 169.955C325.633 170.729 328.514 171.262 331.988 171.548C338.943 172.12 348.353 171.708 358.574 170.181L358.522 169.835Z" fill="black"/>
<ellipse cx="366.912" cy="126.341" rx="8.76087" ry="37.3577" transform="rotate(-47.7318 366.912 126.341)" fill="#F8DA92"/>
<ellipse cx="8.76087" cy="37.3577" rx="8.76087" ry="37.3577" transform="matrix(0.420582 0.907255 0.907255 -0.420582 322.156 181.072)" fill="#F8DA92"/>
<path d="M394.557 151.468C397.812 147.887 388.073 133.735 372.805 119.858C357.537 105.981 342.522 97.6337 339.268 101.214C336.013 104.795 345.752 118.947 361.02 132.824C365.875 137.237 370.705 141.091 375.14 144.18" stroke="black" stroke-width="0.7"/>
<ellipse cx="8.76087" cy="37.3577" rx="8.76087" ry="37.3577" transform="matrix(0.420582 0.907255 0.907255 -0.420582 322.156 181.072)" fill="#F8DA92"/>
<path d="M393.627 157.597C395.662 161.986 382.137 172.58 363.418 181.257C344.7 189.934 327.876 193.41 325.841 189.021C323.806 184.631 337.331 174.038 356.049 165.36C362.002 162.601 367.763 160.367 372.918 158.745" stroke="black" stroke-width="0.7"/>
<path d="M389.773 165.167C392.025 161.933 393.045 157.494 393.53 154.328C393.96 151.211 394.195 147.022 393.092 143.515C396.183 145.89 403.748 150.36 409.273 149.231C415.925 147.871 419.591 152.495 419.028 158.225L419.042 158.227C419.031 158.302 419.015 158.375 419.003 158.449C418.986 158.594 418.969 158.741 418.946 158.888L418.921 158.884C417.745 164.521 412.865 167.837 406.923 164.55C401.988 161.821 393.434 163.824 389.773 165.167Z" fill="#00A47B"/>
<path d="M389.773 165.167L389.486 164.967C389.399 165.092 389.403 165.26 389.496 165.381C389.59 165.502 389.751 165.548 389.894 165.496L389.773 165.167ZM393.53 154.328L393.876 154.381L393.877 154.376L393.53 154.328ZM393.092 143.515L393.305 143.237C393.184 143.144 393.017 143.14 392.892 143.228C392.766 143.315 392.712 143.474 392.758 143.62L393.092 143.515ZM409.273 149.231L409.203 148.888L409.203 148.888L409.273 149.231ZM419.028 158.225L418.68 158.191C418.661 158.376 418.791 158.543 418.975 158.571L419.028 158.225ZM419.042 158.227L419.388 158.28C419.402 158.189 419.379 158.095 419.324 158.02C419.269 157.945 419.187 157.896 419.095 157.882L419.042 158.227ZM419.003 158.449L418.658 158.39C418.657 158.396 418.656 158.402 418.655 158.408L419.003 158.449ZM418.946 158.888L418.893 159.234C418.985 159.248 419.079 159.225 419.154 159.17C419.228 159.115 419.278 159.032 419.292 158.94L418.946 158.888ZM418.921 158.884L418.974 158.538C418.79 158.51 418.617 158.63 418.579 158.812L418.921 158.884ZM406.923 164.55L406.754 164.857L406.754 164.857L406.923 164.55ZM389.773 165.167L390.061 165.367C392.36 162.064 393.39 157.557 393.876 154.381L393.53 154.328L393.184 154.275C392.701 157.431 391.689 161.802 389.486 164.967L389.773 165.167ZM393.53 154.328L393.877 154.376C394.308 151.246 394.553 146.994 393.426 143.41L393.092 143.515L392.758 143.62C393.837 147.051 393.611 151.176 393.183 154.28L393.53 154.328ZM393.092 143.515L392.879 143.792C394.444 144.995 397.133 146.722 400.132 148.009C403.12 149.29 406.474 150.16 409.343 149.573L409.273 149.231L409.203 148.888C406.547 149.431 403.356 148.63 400.408 147.365C397.47 146.105 394.831 144.41 393.305 143.237L393.092 143.515ZM409.273 149.231L409.343 149.573C412.575 148.913 415.027 149.711 416.607 151.315C418.196 152.927 418.953 155.404 418.68 158.191L419.028 158.225L419.376 158.26C419.666 155.316 418.872 152.616 417.106 150.823C415.331 149.022 412.624 148.188 409.203 148.888L409.273 149.231ZM419.028 158.225L418.975 158.571L418.989 158.573L419.042 158.227L419.095 157.882L419.081 157.879L419.028 158.225ZM419.042 158.227L418.696 158.175C418.685 158.252 418.675 158.289 418.658 158.39L419.003 158.449L419.348 158.508C419.356 158.461 419.378 158.351 419.388 158.28L419.042 158.227ZM419.003 158.449L418.655 158.408C418.638 158.555 418.622 158.695 418.6 158.835L418.946 158.888L419.292 158.94C419.316 158.786 419.333 158.633 419.35 158.489L419.003 158.449ZM418.946 158.888L418.999 158.542L418.974 158.538L418.921 158.884L418.868 159.23L418.893 159.234L418.946 158.888ZM418.921 158.884L418.579 158.812C418.007 161.554 416.543 163.691 414.545 164.754C412.558 165.812 409.979 165.841 407.093 164.244L406.923 164.55L406.754 164.857C409.809 166.547 412.641 166.561 414.874 165.372C417.095 164.19 418.66 161.851 419.264 158.955L418.921 158.884ZM406.923 164.55L407.093 164.244C404.53 162.827 401.069 162.654 397.835 162.983C394.589 163.314 391.507 164.158 389.653 164.838L389.773 165.167L389.894 165.496C391.701 164.833 394.726 164.004 397.906 163.68C401.098 163.354 404.382 163.544 406.754 164.857L406.923 164.55Z" fill="black"/>
<path opacity="0.1" fill-rule="evenodd" clip-rule="evenodd" d="M338.459 104.376C338.505 104.608 338.561 104.847 338.628 105.093C338.739 105.125 338.85 105.157 338.962 105.191C338.789 104.916 338.621 104.644 338.459 104.376ZM325.48 187.018C325.68 186.332 326.062 185.592 326.599 184.813C326.771 184.832 326.947 184.849 327.127 184.862C329.324 185.02 332.234 184.721 335.647 184.016C342.476 182.605 351.385 179.557 360.759 175.212C370.133 170.866 392.783 157.679 392.783 157.679C392.783 157.679 391.937 157.64 395.121 157.316C398.315 156.991 401.61 157.18 403.993 158.498C407.039 160.182 409.857 160.194 412.075 159.013C414.258 157.851 415.804 155.564 416.421 152.725C416.443 152.689 416.46 152.65 416.466 152.607C416.483 152.497 416.497 152.387 416.511 152.279C416.53 152.173 416.55 152.063 416.567 151.951C416.574 151.907 416.57 151.864 416.559 151.824C416.602 151.349 416.616 150.881 416.602 150.423C416.765 150.561 416.921 150.706 417.071 150.857C418.805 152.618 419.598 155.262 419.339 158.155C419.349 158.195 419.353 158.238 419.346 158.282C419.329 158.394 419.31 158.504 419.29 158.611C419.277 158.719 419.262 158.828 419.246 158.938C419.239 158.981 419.223 159.021 419.2 159.056C418.583 161.895 417.037 164.183 414.855 165.344C412.636 166.526 409.818 166.514 406.773 164.829C404.389 163.511 401.095 163.322 397.901 163.647C394.717 163.972 391.688 164.801 389.878 165.465C389.878 165.465 387.64 167.164 386.486 168.067C380.996 172.368 372.913 177.197 363.539 181.543C354.165 185.888 345.256 188.936 338.426 190.347C335.014 191.052 332.103 191.352 329.907 191.193C328.808 191.113 327.872 190.918 327.136 190.59C326.398 190.261 325.845 189.791 325.55 189.156C325.256 188.521 325.254 187.794 325.48 187.018Z" fill="black"/>
<path fill-rule="evenodd" clip-rule="evenodd" d="M414.442 153.867V153.867ZM414.452 153.785C414.456 153.765 414.459 153.745 414.463 153.725C414.462 153.73 414.461 153.735 414.46 153.739L414.452 153.785Z" fill="#00A47B"/>
<ellipse cx="6.71816" cy="27.3071" rx="6.71816" ry="27.3071" transform="matrix(-0.68372 0.726194 -0.707573 -0.710655 391.977 424.156)" fill="#FFCA00" stroke="black" stroke-width="0.7"/>
<ellipse cx="6.72752" cy="27.2652" rx="6.72752" ry="27.2652" transform="matrix(0.555933 -0.831291 -0.822269 -0.568995 391.498 425.791)" fill="#FFCA00" stroke="black" stroke-width="0.7"/>
<ellipse cx="6.72495" cy="27.2767" rx="6.72495" ry="27.2767" transform="matrix(0.626062 -0.778016 -0.76433 -0.647167 387.121 430.475)" fill="#F8DA92" stroke="black" stroke-width="0.7"/>
<ellipse cx="6.7057" cy="27.3627" rx="6.7057" ry="27.3627" transform="matrix(-0.743775 0.662599 -0.637892 -0.775608 388.252 428.757)" fill="#F8DA92" stroke="black" stroke-width="0.7"/>
<ellipse cx="6.724" cy="27.281" rx="6.724" ry="27.281" transform="matrix(0.474747 -0.881935 -0.876431 -0.47785 395.385 421.022)" fill="#F8DA92"/>
<path d="M350.757 389.02C352.52 385.745 364.654 388.926 377.859 396.126C391.064 403.326 400.34 411.817 398.577 415.092C396.814 418.367 384.68 415.186 371.475 407.986C369.384 406.846 367.391 405.674 365.526 404.495C364.014 403.539 362.585 402.579 361.254 401.629" stroke="black" stroke-width="0.7"/>
<path d="M351.855 403.715C351.56 400.594 352.824 396.509 353.874 394.315L353.871 394.314C354.915 392.154 356.293 390.023 358.869 388.321C354.39 387.593 351.465 387.82 345.289 384.068C337.542 379.363 333.634 381.057 331.754 384.987L331.766 384.993C330.376 388.58 332.187 390.667 334.075 391.722C335.981 392.788 338.411 392.604 341.552 393.591C347.939 395.599 351.852 403.707 351.855 403.715Z" fill="#00A47B"/>
<path d="M351.855 403.715L352.204 403.682C352.22 403.851 352.113 404.006 351.949 404.052C351.786 404.098 351.614 404.02 351.54 403.867L351.855 403.715ZM353.874 394.315L353.917 393.967C354.029 393.981 354.127 394.048 354.181 394.147C354.235 394.246 354.238 394.364 354.189 394.466L353.874 394.315ZM353.871 394.314L353.827 394.662C353.715 394.648 353.617 394.581 353.563 394.482C353.509 394.383 353.506 394.264 353.555 394.162L353.871 394.314ZM358.869 388.321L358.926 387.976C359.068 387.999 359.181 388.107 359.212 388.248C359.242 388.389 359.183 388.534 359.062 388.613L358.869 388.321ZM345.289 384.068L345.471 383.769L345.471 383.769L345.289 384.068ZM331.754 384.987L331.603 385.303C331.519 385.262 331.455 385.191 331.424 385.103C331.393 385.016 331.398 384.919 331.438 384.836L331.754 384.987ZM331.766 384.993L331.917 384.677C332.082 384.756 332.159 384.949 332.093 385.119L331.766 384.993ZM334.075 391.722L333.904 392.028L333.904 392.028L334.075 391.722ZM341.552 393.591L341.657 393.258L341.657 393.258L341.552 393.591ZM351.855 403.715L351.507 403.748C351.354 402.133 351.605 400.29 352.02 398.585C352.435 396.877 353.022 395.284 353.558 394.164L353.874 394.315L354.189 394.466C353.675 395.54 353.105 397.087 352.7 398.75C352.294 400.417 352.061 402.175 352.204 403.682L351.855 403.715ZM353.874 394.315L353.83 394.662L353.827 394.662L353.871 394.314L353.914 393.967L353.917 393.967L353.874 394.315ZM353.871 394.314L353.555 394.162C354.615 391.97 356.028 389.779 358.676 388.029L358.869 388.321L359.062 388.613C356.558 390.268 355.215 392.337 354.186 394.467L353.871 394.314ZM358.869 388.321L358.813 388.667C356.615 388.309 354.711 388.175 352.633 387.669C350.53 387.156 348.221 386.259 345.107 384.368L345.289 384.068L345.471 383.769C348.533 385.629 350.775 386.495 352.798 386.989C354.847 387.488 356.644 387.605 358.926 387.976L358.869 388.321ZM345.289 384.068L345.107 384.368C341.261 382.031 338.434 381.327 336.373 381.636C334.34 381.94 332.976 383.244 332.07 385.138L331.754 384.987L331.438 384.836C332.412 382.8 333.941 381.292 336.269 380.943C338.57 380.599 341.57 381.4 345.471 383.769L345.289 384.068ZM331.754 384.987L331.905 384.671L331.917 384.677L331.766 384.993L331.615 385.308L331.603 385.303L331.754 384.987ZM331.766 384.993L332.093 385.119C331.427 386.838 331.54 388.156 332.009 389.159C332.483 390.173 333.342 390.911 334.246 391.417L334.075 391.722L333.904 392.028C332.921 391.478 331.931 390.645 331.374 389.455C330.813 388.254 330.716 386.735 331.44 384.866L331.766 384.993ZM334.075 391.722L334.246 391.417C335.14 391.917 336.168 392.13 337.409 392.341C338.639 392.55 340.059 392.755 341.657 393.258L341.552 393.591L341.448 393.925C339.905 393.441 338.54 393.244 337.292 393.031C336.056 392.821 334.916 392.594 333.904 392.028L334.075 391.722ZM341.552 393.591L341.657 393.258C344.952 394.293 347.581 396.889 349.374 399.188C351.172 401.494 352.163 403.548 352.171 403.563L351.855 403.715L351.54 403.867C351.544 403.875 350.577 401.87 348.822 399.618C347.06 397.359 344.54 394.897 341.448 393.925L341.552 393.591Z" fill="black"/>
<path opacity="0.1" fill-rule="evenodd" clip-rule="evenodd" d="M333.212 383.069C333.349 382.718 333.503 382.381 333.675 382.06C332.785 382.724 332.091 383.639 331.556 384.712C331.543 384.731 331.532 384.751 331.523 384.772L331.52 384.781L331.512 384.797L331.507 384.807C331.5 384.82 331.491 384.839 331.481 384.859C331.466 384.892 331.457 384.926 331.453 384.962C330.766 386.786 330.869 388.267 331.417 389.439C331.969 390.618 332.951 391.445 333.93 391.992C334.934 392.554 336.068 392.78 337.304 392.991C337.449 393.015 337.597 393.04 337.746 393.065L337.755 393.066C338.879 393.254 340.104 393.458 341.465 393.886C344.57 394.862 347.098 397.333 348.861 399.595C349.714 400.69 350.382 401.727 350.842 402.502C351.033 402.851 351.231 403.204 351.435 403.562C351.53 403.743 351.58 403.845 351.582 403.849C351.6 403.886 351.626 403.918 351.656 403.945C353.915 407.832 356.972 412.214 360.599 416.624C365.43 422.498 370.369 427.325 374.455 430.38C376.496 431.906 378.339 433.001 379.857 433.558C381.352 434.106 382.646 434.171 383.468 433.438C384.29 432.706 384.428 431.366 384.138 429.744C384.169 429.752 384.2 429.759 384.231 429.766C384.009 428.75 383.624 427.582 383.089 426.292C382.157 425.848 381.152 425.294 380.091 424.642C375.744 421.971 370.385 417.614 365.04 412.204C361.026 408.143 357.583 404.058 354.979 400.392C354.947 400.368 354.918 400.339 354.897 400.303L354.891 400.293L354.874 400.266C354.86 400.243 354.838 400.209 354.81 400.164C354.786 400.127 354.758 400.082 354.725 400.031C354.488 399.693 354.259 399.36 354.037 399.03C353.509 398.299 352.75 397.328 351.8 396.315C349.838 394.223 347.096 391.992 343.914 391.303C342.52 391.001 341.282 390.909 340.146 390.825L339.925 390.808L339.821 390.8L339.689 390.79C338.439 390.693 337.29 390.571 336.238 390.103C335.214 389.647 334.16 388.913 333.504 387.79C332.851 386.672 332.614 385.206 333.132 383.327C333.133 383.292 333.138 383.256 333.151 383.223C333.155 383.212 333.159 383.201 333.163 383.192L333.168 383.177L333.172 383.168L333.176 383.159L333.181 383.147C333.182 383.143 333.183 383.137 333.185 383.133C333.191 383.11 333.201 383.089 333.212 383.069Z" fill="#2E2E2E"/>
<path d="M406.166 21.0674L405.96 29.845C405.688 41.4397 415.159 50.9105 426.753 50.6384L435.531 50.4325L426.753 50.2265C415.159 49.9545 405.688 59.4253 405.96 71.02L406.166 79.7976L406.372 71.02C406.644 59.4253 397.173 49.9545 385.578 50.2265L376.801 50.4325L385.578 50.6384C397.173 50.9105 406.644 41.4397 406.372 29.845L406.166 21.0674Z" fill="white" stroke="#101828" stroke-width="0.7"/>
<path d="M293.753 203.682L293.615 209.548C293.432 217.355 299.809 223.732 307.617 223.549L313.483 223.411L307.617 223.274C299.809 223.09 293.432 229.468 293.615 237.275L293.753 243.141L293.891 237.275C294.074 229.468 287.697 223.09 279.89 223.274L274.023 223.411L279.89 223.549C287.697 223.732 294.074 217.355 293.891 209.548L293.753 203.682Z" fill="white" stroke="#101828" stroke-width="0.7"/>
</svg>
